<svg xmlns="http://www.w3.org/2000/svg" xmlns:xlink="http://www.w3.org/1999/xlink" width="484.024" height="315.87" viewBox="0 0 484.024 315.87">
  <defs>
    <clipPath id="clip-path">
      <rect id="Rectángulo_49972" data-name="Rectángulo 49972" width="484.024" height="315.87" fill="none"/>
    </clipPath>
  </defs>
  <g id="Grupo_172672" data-name="Grupo 172672" transform="translate(0 -0.003)">
    <g id="Grupo_172671" data-name="Grupo 172671" transform="translate(0 0.003)" clip-path="url(#clip-path)">
      <path id="Trazado_208978" data-name="Trazado 208978" d="M345.516,391.362s-56.953-128.159-15.968-156.7c27.395-19.075,56.432,22.975,91.089.73,30.855-19.8,21.046-80.057,70.256-88.386,55.327-9.364,67.51,103.017,112.915,87.656,55.1-18.639,109.9,19.2,62.539,156.942Z" transform="translate(-259.867 -120.931)" fill="#d2e1f1"/>
      <path id="Trazado_208979" data-name="Trazado 208979" d="M150.946,259.35c-.956-2.46-1.9-5.009-2.811-7.576l2.241-.56c.9,2.55,1.843,5.083,2.793,7.526Zm400.984-3.177-2.321-.241c.385-2.618.751-5.256,1.088-7.838l2.325.214c-.338,2.592-.7,5.238-1.091,7.865m-406.377-12.03c-.819-2.537-1.612-5.121-2.359-7.68l2.271-.467c.743,2.544,1.532,5.112,2.345,7.634Zm408.426-3.713-2.328-.185c.3-2.629.57-5.274.814-7.86l2.331.155c-.245,2.6-.52,5.251-.817,7.89M141.057,228.737c-.675-2.585-1.318-5.2-1.91-7.768l2.3-.373c.588,2.554,1.227,5.151,1.9,7.72Zm414.41-4.1-2.334-.124c.2-2.627.372-5.277.516-7.876l2.336.091c-.145,2.61-.319,5.271-.518,7.909m-418-11.476c-.52-2.616-1-5.254-1.431-7.841l2.316-.271c.427,2.57.905,5.19,1.421,7.789Zm418.871-4.349-2.337-.057c.091-2.639.154-5.292.187-7.885l2.338.021c-.033,2.605-.1,5.27-.188,7.921M134.867,197.449c-.349-2.642-.652-5.3-.9-7.9l2.331-.158c.248,2.58.549,5.218.9,7.841ZM554.2,192.987c-.028-2.641-.087-5.293-.178-7.883l2.338-.057c.091,2.6.151,5.269.178,7.923ZM133.352,181.63c-.155-2.658-.258-5.327-.306-7.932l2.338-.03c.047,2.584.149,5.23.3,7.866Zm420.3-4.4c-.161-2.637-.358-5.283-.586-7.865l2.332-.146c.23,2.6.429,5.258.59,7.911ZM135.406,165.8l-2.338-.04c.065-2.665.191-5.335.373-7.934l2.334.115c-.181,2.575-.306,5.219-.37,7.859m416.844-4.284c-.312-2.637-.666-5.27-1.051-7.828l2.32-.246c.388,2.574.744,5.226,1.058,7.88ZM136.518,150.1l-2.327-.2c.318-2.655.7-5.309,1.151-7.888l2.314.282c-.441,2.55-.824,5.175-1.138,7.8m413.372-4.213c-.487-2.62-1.021-5.23-1.588-7.758l2.3-.363c.572,2.548,1.11,5.179,1.6,7.819Zm-276.562-.277c-3.249-.43-5.6-1.672-8.855-3.817l1.478-1.521c2.852,1.874,4.912,3,7.626,3.386Zm8.113-4.671-2.082-.893a27.7,27.7,0,0,0,2.813-7.259l2.285.419a28.984,28.984,0,0,1-3.015,7.733m-23.831-4.776c-1.863-1.742-3.854-3.746-6.086-6.129l1.838-1.214c2.2,2.348,4.16,4.321,5.988,6.031Zm-118.392-1.611-2.3-.374c.606-2.621,1.291-5.233,2.037-7.767l2.27.471c-.737,2.5-1.414,5.081-2.012,7.669m407.194-4.13c-.692-2.593-1.439-5.164-2.22-7.641l2.261-.5c.788,2.5,1.542,5.1,2.241,7.714ZM286.03,125.305l-2.319-.251c.359-2.344.681-4.91.984-7.846l2.33.17c-.306,2.963-.631,5.556-.994,7.927m-40.233-1.6c-1.9-2.155-3.872-4.433-5.571-6.4l1.893-1.153c1.7,1.962,3.663,4.236,5.558,6.385Zm171.2-.161a11.267,11.267,0,0,1-5.311-1.358l1.247-1.661a8.757,8.757,0,0,0,7.791.277l1.006,1.772a12.747,12.747,0,0,1-4.733.969m-273.282-4.23-2.236-.574c.929-2.551,1.949-5.088,3.03-7.541l2.193.682c-1.066,2.418-2.07,4.919-2.986,7.434m285.662-1.872-1.718-1.332a69.859,69.859,0,0,0,5.811-6.08l1.895,1.151a71.883,71.883,0,0,1-5.987,6.261m-24.34-1.35a58.531,58.531,0,0,1-4.585-7.057l2.114-.84A56.664,56.664,0,0,0,407,115.028Zm136.569-.869c-.942-2.544-1.947-5.048-2.987-7.443l2.2-.673c1.053,2.425,2.07,4.959,3.024,7.533Zm-306.925-4.318c-2.139-2.455-3.923-4.47-5.611-6.343l1.864-1.185c1.7,1.881,3.487,3.9,5.634,6.369Zm53.044-1.459-2.333-.127c.177-2.3.358-4.886.551-7.9l2.335.106c-.194,3.025-.375,5.618-.553,7.925m-137.519-4.833-2.139-.793q1.926-3.661,4.105-7.182l2.074.908q-2.146,3.459-4.039,7.067m290.514,0-1.954-1.079c1.662-2.121,3.378-4.369,5.116-6.639l1.967,1.061c-1.742,2.276-3.46,4.526-5.129,6.657m-44.033-2.9c-1.059-2.231-2.154-4.665-3.346-7.44l2.2-.666c1.184,2.755,2.269,5.169,3.319,7.38Zm138.491-1.224c-1.257-2.459-2.587-4.847-3.953-7.1l2.084-.891c1.389,2.29,2.741,4.717,4.017,7.215ZM223.3,98.344c-2.122-2.212-4.1-4.18-6.038-6.017l1.749-1.3c1.966,1.861,3.964,3.852,6.11,6.088ZM288.767,93.6l-2.336-.1c.158-2.623.314-5.248.481-7.918l2.335.1c-.167,2.669-.323,5.292-.481,7.914m162.212-2.276-1.951-1.083c1.954-2.482,3.7-4.629,5.342-6.564l1.9,1.139c-1.625,1.916-3.358,4.045-5.3,6.508m-292.093-.554-1.971-1.057a62.6,62.6,0,0,1,5.631-6.486l1.786,1.267a60.585,60.585,0,0,0-5.447,6.276m231.336-3.994c-1.073-2.639-2.125-5.279-3.012-7.514l2.218-.621c.887,2.231,1.937,4.867,3.007,7.5Zm-179.39-.138a78.228,78.228,0,0,0-6.985-5.13l1.426-1.556a80.565,80.565,0,0,1,7.19,5.279Zm315.857-.084a81.183,81.183,0,0,0-5.222-6.454l1.865-1.184a83.186,83.186,0,0,1,5.351,6.612Zm-355.8-7.4-1.418-1.561a29.824,29.824,0,0,1,8.638-3.833l.684,1.877a27.313,27.313,0,0,0-7.9,3.517m291.023-.6L460.1,77.319a83.258,83.258,0,0,1,6.353-5.977l1.654,1.388a81.285,81.285,0,0,0-6.19,5.825m-172.143-.772-2.334-.117c.2-2.854.4-5.446.615-7.923l2.332.14c-.21,2.47-.411,5.054-.613,7.9m-93.656-.411a31.641,31.641,0,0,0-8.531-2.313l.317-1.945a34.293,34.293,0,0,1,9.255,2.5ZM515.451,74.2a53.461,53.461,0,0,0-6.928-5.081l1.377-1.587a55.753,55.753,0,0,1,7.225,5.3ZM384.226,71.753c-1.163-2.921-2.122-5.3-3.017-7.5l2.212-.636c.9,2.2,1.858,4.584,3.023,7.51ZM475.1,67.718l-1.34-1.609a35.7,35.7,0,0,1,8.634-3.718l.722,1.867a33.175,33.175,0,0,0-8.015,3.46m25.515-2.405a34.147,34.147,0,0,0-8.713-1.887l.217-1.955a36.832,36.832,0,0,1,9.4,2.033ZM291.133,62l-2.329-.174c.292-2.755.608-5.415.942-7.907l2.324.219c-.332,2.477-.647,5.122-.937,7.862M378.1,56.789c-1.13-2.648-2.195-5.069-3.255-7.4l2.184-.7c1.067,2.344,2.137,4.778,3.272,7.439ZM293.26,46.31l-2.314-.281c.473-2.749.993-5.392,1.545-7.857l2.3.363c-.546,2.438-1.061,5.053-1.529,7.775m78.109-4.252c-1.256-2.538-2.523-4.965-3.765-7.216l2.122-.825c1.254,2.274,2.534,4.726,3.8,7.288ZM296.775,30.851l-2.269-.476c.816-2.742,1.715-5.324,2.673-7.676l2.212.635c-.936,2.3-1.816,4.828-2.616,7.517m66.677-3.057c-1.538-2.432-3.109-4.715-4.67-6.786l1.976-1.05c1.592,2.112,3.193,4.439,4.759,6.915ZM302.9,16.141l-2.1-.869a38.66,38.66,0,0,1,5.061-6.865L307.7,9.622a36.725,36.725,0,0,0-4.8,6.519m50.519-1.5a52.566,52.566,0,0,0-6.268-5.662l1.569-1.456a54.765,54.765,0,0,1,6.528,5.894ZM314.228,4.534,312.967,2.88A26.17,26.17,0,0,1,322.038,0l.356,1.941a23.553,23.553,0,0,0-8.167,2.59m25.548,0a31.911,31.911,0,0,0-8.434-2.505l.41-1.933a34.544,34.544,0,0,1,9.133,2.71Z" transform="translate(-109.859 -0.003)" fill="#c6dcf7"/>
      <path id="Trazado_208980" data-name="Trazado 208980" d="M458.2,844.127c-19.405-2.523-16.239,20.27-43.9,20.27-25.29,0-33.381-86.8-51.782-61.986-94.333,127.2-39.555-54.094-114.577-56.4-33.923-1.042-56.527,30.684-64.863,86.856-12.083,50.782-40.105-38.732-68.943-30.409C95.806,807.749,97.9,864.4,72.615,864.4c-27.661,0-24.494-22.792-43.9-20.27C7.822,846.843,1.582,887.185,1.582,887.185H485.331s-6.24-40.342-27.133-43.058" transform="translate(-1.306 -615.977)" fill="#c6dcf7"/>
      <path id="Trazado_208981" data-name="Trazado 208981" d="M532.719,1169.644c-17.852-1.077-14.939,8.655-40.386,8.655-23.266,0-22.627-21.812-38.2-26.448-28.672-8.537-52.31,34.669-63.426,12.985-21.113-57.538-82.688-86.393-111.1,0-11.116,21.684-37.111-17.008-63.426-12.985-16.2,2.477-14.93,26.448-38.2,26.448-25.447,0-22.534-9.733-40.386-8.655-19.221,1.16-24.962,18.386-24.962,18.386H557.681s-5.741-17.227-24.962-18.386" transform="translate(-93.012 -916.822)" fill="#d2e5f7"/>
      <path id="Trazado_208982" data-name="Trazado 208982" d="M.275,1556.164s-3.034,10.364,11.026,12.959C30.533,1572.672,143.42,1582,116,1589.083c-15.481,4,7.9,9.432,83.307,11.432s204.791-5.837,161.28-17.432,120.952.8,123.441-26.919Z" transform="translate(0 -1284.956)" fill="#bad2f4"/>
      <path id="Trazado_208983" data-name="Trazado 208983" d="M2258.328,957.6l-55.205-10.906a11.743,11.743,0,0,1-9.245-13.8l20.633-104.445a11.744,11.744,0,0,1,13.8-9.245l55.205,10.906a11.743,11.743,0,0,1,9.245,13.8l-20.634,104.445a11.743,11.743,0,0,1-13.8,9.245" transform="translate(-1811.343 -676.251)" fill="#8a9edd"/>
      <path id="Trazado_208984" data-name="Trazado 208984" d="M2369.321,937.023l-21.463,5.264a11.088,11.088,0,0,1,21.463-5.264" transform="translate(-1938.559 -767.476)" fill="#f4d4be"/>
      <path id="Trazado_208985" data-name="Trazado 208985" d="M2359.4,995.755a11.083,11.083,0,0,1-8.362-7.349l21.463-5.264a11.092,11.092,0,0,1-13.1,12.613" transform="translate(-1941.297 -811.801)" fill="#f4d4be"/>
      <path id="Trazado_208986" data-name="Trazado 208986" d="M2329.221,1140.035l-21.46,5.263a11.087,11.087,0,0,1,21.46-5.263" transform="translate(-1905.45 -935.107)" fill="#f4d4be"/>
      <path id="Trazado_208987" data-name="Trazado 208987" d="M2319.3,1198.762a11.084,11.084,0,0,1-8.362-7.349l21.463-5.264a11.093,11.093,0,0,1-13.1,12.613" transform="translate(-1908.19 -979.428)" fill="#f4d4be"/>
      <path id="Trazado_208988" data-name="Trazado 208988" d="M2289.114,1343.043l-21.463,5.264a11.088,11.088,0,0,1,21.463-5.264" transform="translate(-1872.33 -1102.735)" fill="#f4d4be"/>
      <path id="Trazado_208989" data-name="Trazado 208989" d="M2279.189,1401.774a11.084,11.084,0,0,1-8.362-7.349l21.463-5.264a10.973,10.973,0,0,1-.074,3.881,11.09,11.09,0,0,1-13.027,8.732" transform="translate(-1875.068 -1147.059)" fill="#f4d4be"/>
      <path id="Trazado_208990" data-name="Trazado 208990" d="M2503.875,1385.472l-21.459,5.263a11.086,11.086,0,0,1,21.459-5.263" transform="translate(-2049.667 -1137.769)" fill="#f4d4be"/>
      <path id="Trazado_208991" data-name="Trazado 208991" d="M2493.955,1444.2a11.078,11.078,0,0,1-8.361-7.345l21.46-5.263a11.088,11.088,0,0,1-13.1,12.609" transform="translate(-2052.405 -1182.092)" fill="#f4d4be"/>
      <path id="Trazado_208992" data-name="Trazado 208992" d="M2543.974,1182.46l-21.463,5.264a11.088,11.088,0,0,1,21.463-5.264" transform="translate(-2082.774 -970.138)" fill="#f4d4be"/>
      <path id="Trazado_208993" data-name="Trazado 208993" d="M2534.066,1241.188a11.079,11.079,0,0,1-8.358-7.346l21.46-5.263a11.089,11.089,0,0,1-13.1,12.609" transform="translate(-2085.528 -1014.462)" fill="#f4d4be"/>
      <path id="Trazado_208994" data-name="Trazado 208994" d="M2584.089,979.451l-21.464,5.264a11.089,11.089,0,0,1,21.464-5.264" transform="translate(-2115.897 -802.51)" fill="#f4d4be"/>
      <path id="Trazado_208995" data-name="Trazado 208995" d="M2574.164,1038.179a11.088,11.088,0,0,1-8.362-7.349l21.463-5.264a11.1,11.1,0,0,1-13.1,12.613" transform="translate(-2118.634 -846.831)" fill="#f4d4be"/>
      <path id="Trazado_208996" data-name="Trazado 208996" d="M1117.018,899v122.009c0,6.126,22.315,11.093,49.843,11.093s49.843-4.967,49.843-11.093V899h-99.685Z" transform="translate(-922.344 -742.327)" fill="#7e5ee3"/>
      <path id="Trazado_208997" data-name="Trazado 208997" d="M1216.7,846.448c0,6.126-22.315,11.093-49.843,11.093s-49.843-4.966-49.843-11.093,22.315-11.093,49.843-11.093,49.843,4.966,49.843,11.093" transform="translate(-922.344 -689.77)" fill="#7640cc"/>
      <path id="Trazado_208998" data-name="Trazado 208998" d="M1185.016,644.154v39.731c0,4.67,17.01,8.455,37.992,8.455S1261,688.555,1261,683.885V644.154Z" transform="translate(-978.491 -531.891)" fill="#7e5ee3"/>
      <path id="Trazado_208999" data-name="Trazado 208999" d="M1261,604.093c0,4.67-17.01,8.456-37.992,8.456s-37.992-3.786-37.992-8.456,17.01-8.456,37.992-8.456S1261,599.423,1261,604.093" transform="translate(-978.491 -491.83)" fill="#7640cc"/>
      <path id="Trazado_209000" data-name="Trazado 209000" d="M1269.006,1103.2a35.85,35.85,0,1,1-35.85-35.85,35.849,35.849,0,0,1,35.85,35.85" transform="translate(-988.641 -881.333)" fill="#7640cc"/>
      <path id="Trazado_209001" data-name="Trazado 209001" d="M1308.414,1267.492h-46.842a1.488,1.488,0,0,1,0-2.976h46.842a1.488,1.488,0,0,1,0,2.976" transform="translate(-1040.477 -1044.137)" fill="#d4e8ff"/>
      <path id="Trazado_209002" data-name="Trazado 209002" d="M1308.414,1201.588h-46.842a1.488,1.488,0,0,1,0-2.976h46.842a1.488,1.488,0,0,1,0,2.976" transform="translate(-1040.477 -989.719)" fill="#d4e8ff"/>
      <path id="Trazado_209003" data-name="Trazado 209003" d="M1308.414,1333.393h-46.842a1.488,1.488,0,0,1,0-2.976h46.842a1.488,1.488,0,0,1,0,2.976" transform="translate(-1040.477 -1098.552)" fill="#d4e8ff"/>
      <path id="Trazado_209004" data-name="Trazado 209004" d="M118.66,929.773l-55.608,8.62a11.743,11.743,0,0,1-13.4-9.806L33.339,823.38a11.743,11.743,0,0,1,9.806-13.4l55.608-8.62a11.743,11.743,0,0,1,13.4,9.806L128.466,916.37a11.744,11.744,0,0,1-9.806,13.4" transform="translate(-27.413 -661.581)" fill="#8a9edd"/>
      <path id="Trazado_209005" data-name="Trazado 209005" d="M137.233,920.2s-7.154-5.829-7.146-5.834l6.162-7.554c2.441-3.205,7.958-1.615,8.221,2.385a4.6,4.6,0,0,1-1.015,3.382s-6.217,7.63-6.223,7.621" transform="translate(-107.415 -747.362)" fill="#1d3f70"/>
      <path id="Trazado_209006" data-name="Trazado 209006" d="M90.1,972.38a4.615,4.615,0,0,1-.631-6.47l6.217-7.621c.008-.008,7.154,5.829,7.152,5.834-3.066,2.942-7.341,12.513-12.737,8.257" transform="translate(-73.015 -791.279)" fill="#fff"/>
      <path id="Trazado_209007" data-name="Trazado 209007" d="M375,882.949s-7.154-5.829-7.146-5.834l6.162-7.554c2.441-3.205,7.958-1.614,8.221,2.385a4.6,4.6,0,0,1-1.015,3.382s-6.217,7.63-6.222,7.621" transform="translate(-303.749 -716.603)" fill="#1d3f70"/>
      <path id="Trazado_209008" data-name="Trazado 209008" d="M327.867,935.129a4.615,4.615,0,0,1-.631-6.47l6.217-7.621c.008-.008,7.154,5.828,7.152,5.834-3.066,2.942-7.341,12.513-12.737,8.257" transform="translate(-269.347 -760.52)" fill="#fff"/>
      <path id="Trazado_209009" data-name="Trazado 209009" d="M212.048,1397.738s-7.154-5.829-7.146-5.834l6.162-7.554c2.441-3.205,7.958-1.615,8.221,2.384a4.6,4.6,0,0,1-1.015,3.382s-6.217,7.63-6.223,7.621" transform="translate(-169.192 -1141.674)" fill="#1d3f70"/>
      <path id="Trazado_209010" data-name="Trazado 209010" d="M164.91,1449.917a4.615,4.615,0,0,1-.631-6.47l6.217-7.621c.008-.008,7.154,5.828,7.152,5.834-3.066,2.942-7.341,12.513-12.737,8.257" transform="translate(-134.79 -1185.591)" fill="#fff"/>
      <path id="Trazado_209011" data-name="Trazado 209011" d="M449.819,1360.487s-7.154-5.829-7.146-5.834l6.162-7.554c2.441-3.205,7.958-1.614,8.221,2.384a4.6,4.6,0,0,1-1.015,3.382s-6.217,7.63-6.222,7.621" transform="translate(-365.524 -1110.916)" fill="#1d3f70"/>
      <path id="Trazado_209012" data-name="Trazado 209012" d="M402.682,1412.666a4.615,4.615,0,0,1-.631-6.47l6.217-7.62c.008-.008,7.154,5.828,7.152,5.834-3.066,2.942-7.341,12.513-12.737,8.257" transform="translate(-331.123 -1154.832)" fill="#fff"/>
      <path id="Trazado_209013" data-name="Trazado 209013" d="M187.109,1238.558s-7.154-5.829-7.146-5.834l6.162-7.554c2.441-3.205,7.958-1.614,8.221,2.385a4.6,4.6,0,0,1-1.015,3.382s-6.217,7.63-6.223,7.621" transform="translate(-148.599 -1010.237)" fill="#1d3f70"/>
      <path id="Trazado_209014" data-name="Trazado 209014" d="M139.972,1290.738a4.615,4.615,0,0,1-.631-6.47l6.217-7.62c.008-.008,7.154,5.828,7.152,5.834-3.066,2.942-7.341,12.513-12.737,8.257" transform="translate(-114.199 -1054.154)" fill="#fff"/>
      <path id="Trazado_209015" data-name="Trazado 209015" d="M424.881,1201.307s-7.154-5.829-7.146-5.834l6.162-7.554c2.441-3.205,7.958-1.615,8.221,2.385a4.6,4.6,0,0,1-1.015,3.383s-6.217,7.63-6.223,7.621" transform="translate(-344.932 -979.477)" fill="#1d3f70"/>
      <path id="Trazado_209016" data-name="Trazado 209016" d="M377.743,1253.487a4.615,4.615,0,0,1-.631-6.47l6.217-7.621c.008-.008,7.154,5.828,7.152,5.834-3.066,2.942-7.341,12.513-12.737,8.257" transform="translate(-310.53 -1023.394)" fill="#fff"/>
      <path id="Trazado_209017" data-name="Trazado 209017" d="M162.171,1079.379s-7.154-5.829-7.146-5.834l6.162-7.554c2.441-3.205,7.958-1.614,8.221,2.384a4.6,4.6,0,0,1-1.015,3.383s-6.217,7.63-6.223,7.621" transform="translate(-128.007 -878.799)" fill="#1d3f70"/>
      <path id="Trazado_209018" data-name="Trazado 209018" d="M115.034,1131.559a4.615,4.615,0,0,1-.631-6.47l6.217-7.621c.008-.008,7.154,5.828,7.152,5.834-3.066,2.942-7.341,12.513-12.737,8.257" transform="translate(-93.606 -922.716)" fill="#fff"/>
      <path id="Trazado_209019" data-name="Trazado 209019" d="M399.943,1042.128s-7.154-5.829-7.146-5.834l6.162-7.554c2.441-3.205,7.958-1.614,8.221,2.384a4.6,4.6,0,0,1-1.015,3.383s-6.217,7.63-6.222,7.621" transform="translate(-324.34 -848.04)" fill="#1d3f70"/>
      <path id="Trazado_209020" data-name="Trazado 209020" d="M352.8,1094.308a4.615,4.615,0,0,1-.631-6.47l6.217-7.621c.008-.008,7.154,5.828,7.152,5.834-3.066,2.942-7.341,12.513-12.737,8.257" transform="translate(-289.939 -891.957)" fill="#fff"/>
      <path id="Trazado_209021" data-name="Trazado 209021" d="M266.174,980.063a1.762,1.762,0,0,1-2.014-1.468l-17.478-111.56a1.762,1.762,0,1,1,3.482-.546l17.478,111.56a1.762,1.762,0,0,1-1.468,2.014" transform="translate(-203.673 -714.247)" fill="#7689d6"/>
      <path id="Trazado_209022" data-name="Trazado 209022" d="M1705.406,603.786l-1.921-14.858c-1.523-10.334-16.919-8.346-15.765,2.038l1.917,14.827a19.39,19.39,0,0,0-9.9,19.46s17.749,137.276,17.748,137.275c3.587,25.485,43.2,20.289,40.185-5.195l-17.748-137.276a19.3,19.3,0,0,0-14.518-16.271" transform="translate(-1386.855 -480.657)" fill="#8a9edd"/>
      <path id="Trazado_209023" data-name="Trazado 209023" d="M1777.292,772.81l-8.34,1.078-21.485-166.172a4.2,4.2,0,0,1,8.34-1.078Z" transform="translate(-1442.89 -497.886)" fill="#eef7ff"/>
      <rect id="Rectángulo_49946" data-name="Rectángulo 49946" width="9.875" height="1.372" transform="translate(316.683 137.875) rotate(-7.367)" fill="#1d3f70"/>
      <rect id="Rectángulo_49947" data-name="Rectángulo 49947" width="4.938" height="1.372" transform="matrix(0.992, -0.128, 0.128, 0.992, 317.375, 143.226)" fill="#1d3f70"/>
      <rect id="Rectángulo_49948" data-name="Rectángulo 49948" width="4.938" height="1.372" transform="matrix(0.992, -0.128, 0.128, 0.992, 318.759, 153.929)" fill="#1d3f70"/>
      <rect id="Rectángulo_49949" data-name="Rectángulo 49949" width="4.938" height="1.372" transform="matrix(0.992, -0.128, 0.128, 0.992, 320.143, 164.631)" fill="#1d3f70"/>
      <rect id="Rectángulo_49950" data-name="Rectángulo 49950" width="4.938" height="1.372" transform="matrix(0.992, -0.128, 0.128, 0.992, 321.526, 175.334)" fill="#1d3f70"/>
      <rect id="Rectángulo_49951" data-name="Rectángulo 49951" width="4.937" height="1.372" transform="matrix(0.992, -0.128, 0.128, 0.992, 322.91, 186.037)" fill="#1d3f70"/>
      <rect id="Rectángulo_49952" data-name="Rectángulo 49952" width="4.937" height="1.372" transform="matrix(0.992, -0.128, 0.128, 0.992, 324.294, 196.739)" fill="#1d3f70"/>
      <rect id="Rectángulo_49953" data-name="Rectángulo 49953" width="4.938" height="1.372" transform="matrix(0.992, -0.128, 0.128, 0.992, 325.678, 207.442)" fill="#1d3f70"/>
      <rect id="Rectángulo_49954" data-name="Rectángulo 49954" width="4.937" height="1.372" transform="matrix(0.992, -0.128, 0.128, 0.992, 327.061, 218.145)" fill="#1d3f70"/>
      <rect id="Rectángulo_49955" data-name="Rectángulo 49955" width="9.875" height="1.372" transform="translate(318.067 148.577) rotate(-7.367)" fill="#1d3f70"/>
      <rect id="Rectángulo_49956" data-name="Rectángulo 49956" width="9.875" height="1.372" transform="translate(319.451 159.28) rotate(-7.367)" fill="#1d3f70"/>
      <rect id="Rectángulo_49957" data-name="Rectángulo 49957" width="9.875" height="1.372" transform="translate(320.835 169.983) rotate(-7.367)" fill="#1d3f70"/>
      <rect id="Rectángulo_49958" data-name="Rectángulo 49958" width="9.875" height="1.372" transform="translate(322.218 180.685) rotate(-7.367)" fill="#1d3f70"/>
      <rect id="Rectángulo_49959" data-name="Rectángulo 49959" width="9.875" height="1.372" transform="translate(323.602 191.388) rotate(-7.367)" fill="#1d3f70"/>
      <rect id="Rectángulo_49960" data-name="Rectángulo 49960" width="9.875" height="1.372" transform="translate(326.369 212.793) rotate(-7.367)" fill="#1d3f70"/>
      <rect id="Rectángulo_49961" data-name="Rectángulo 49961" width="9.875" height="1.372" transform="translate(327.753 223.496) rotate(-7.367)" fill="#1d3f70"/>
      <rect id="Rectángulo_49962" data-name="Rectángulo 49962" width="4.938" height="1.372" transform="translate(328.445 228.847) rotate(-7.368)" fill="#1d3f70"/>
      <rect id="Rectángulo_49963" data-name="Rectángulo 49963" width="4.938" height="1.372" transform="translate(329.829 239.55) rotate(-7.368)" fill="#1d3f70"/>
      <rect id="Rectángulo_49964" data-name="Rectángulo 49964" width="9.875" height="1.372" transform="translate(329.137 234.198) rotate(-7.367)" fill="#1d3f70"/>
      <rect id="Rectángulo_49965" data-name="Rectángulo 49965" width="9.875" height="1.372" transform="translate(330.521 244.901) rotate(-7.367)" fill="#1d3f70"/>
      <rect id="Rectángulo_49966" data-name="Rectángulo 49966" width="4.938" height="1.372" transform="translate(331.212 250.253) rotate(-7.368)" fill="#1d3f70"/>
      <rect id="Rectángulo_49967" data-name="Rectángulo 49967" width="9.875" height="1.372" transform="translate(331.904 255.604) rotate(-7.367)" fill="#1d3f70"/>
      <rect id="Rectángulo_49968" data-name="Rectángulo 49968" width="9.875" height="1.372" transform="translate(324.986 202.091) rotate(-7.367)" fill="#1d3f70"/>
      <path id="Trazado_209024" data-name="Trazado 209024" d="M1840.7,1293.81c-3.226-24.7-5.787-46.234-5.787-46.234-.294-2.391-2.9-3.836-5.274-3.3a4,4,0,0,0-3.526,4.427l5.976,46.221a11.484,11.484,0,0,0-6.638,12.2c2.315,15.743,26.528,12.615,24.766-3.2-.9-6.1-4.832-9.316-9.517-10.111" transform="translate(-1507.235 -1027.33)" fill="#1d3f70"/>
      <path id="Trazado_209025" data-name="Trazado 209025" d="M1268.45,1661.567s1.888-16.256,1.9-16.248l17.171,2c7.12.591,10.006,10.356,4.279,14.564a8.157,8.157,0,0,1-6.025,1.71s-17.337-2.015-17.329-2.03" transform="translate(-1047.385 -1358.573)" fill="#ff9d00"/>
      <path id="Trazado_209026" data-name="Trazado 209026" d="M1127.58,1640.558a8.184,8.184,0,0,1,9.07-7.117l17.323,2.022c.02,0-1.887,16.255-1.9,16.257-7.323-1.776-25.709.964-24.5-11.162" transform="translate(-931.018 -1348.72)" fill="#fff"/>
      <path id="Trazado_209027" data-name="Trazado 209027" d="M1502.307,1645.071v7.421c0,5.989-10.34,10.843-23.1,10.843a39.38,39.38,0,0,1-16.441-3.228c-4.115-1.958-6.656-4.647-6.656-7.615v-7.421Z" transform="translate(-1202.342 -1358.369)" fill="#ff9d00"/>
      <path id="Trazado_209028" data-name="Trazado 209028" d="M1502.241,1594.064c-.216,12.976-43.419,15.73-46.1.968a6.176,6.176,0,0,1-.088-1.573c.641-8.594,20.132-12.153,33.611-9.062,6.67,1.529,11.867,4.686,12.58,9.667" transform="translate(-1202.276 -1307.362)" fill="#f9b233"/>
      <path id="Trazado_209029" data-name="Trazado 209029" d="M1546.589,1587.819l-20.264,20.284c-.526-.1-.923-.41-1.428-.532l19.841-20.16c.526.1,1.347.286,1.852.409" transform="translate(-1259.138 -1310.757)" fill="#f39200"/>
      <path id="Trazado_209030" data-name="Trazado 209030" d="M150.052,1627.338v7.421c0,5.989-10.341,10.844-23.1,10.844a39.381,39.381,0,0,1-16.441-3.228c-4.115-1.958-6.656-4.647-6.656-7.615v-7.421Z" transform="translate(-85.758 -1343.726)" fill="#ff9d00"/>
      <path id="Trazado_209031" data-name="Trazado 209031" d="M149.987,1576.331c-.216,12.976-43.419,15.73-46.1.968a6.165,6.165,0,0,1-.088-1.573c.64-8.593,20.132-12.153,33.611-9.062,6.67,1.529,11.867,4.686,12.58,9.667" transform="translate(-85.692 -1292.72)" fill="#f9b233"/>
      <path id="Trazado_209032" data-name="Trazado 209032" d="M194.335,1570.086,174.07,1590.37c-.526-.1-.923-.41-1.428-.533l19.841-20.16c.525.1,1.347.287,1.852.409" transform="translate(-142.554 -1296.115)" fill="#f39200"/>
      <path id="Trazado_209033" data-name="Trazado 209033" d="M2406.9,1366.325c1.072,16.231,3.089,32.426,5.31,48.539.517,3.816,5.068,4.545,5.49.38.379-4.138.262-8.021.591-12.179.758-12.128,1.836-24.276,3.179-36.354.923-10.479-14.936-10.921-14.57-.385" transform="translate(-1987.421 -1121.852)" fill="#f99370"/>
      <path id="Trazado_209034" data-name="Trazado 209034" d="M2472.9,1367.908l13.284,48.13a2.239,2.239,0,0,0,3.1,1.759c1.432-.383,2.343.086,2.218-1.345l-4.243-51.067c-1.2-10.408-16.751-7.689-14.356,2.522" transform="translate(-2041.72 -1121.982)" fill="#f99370"/>
      <path id="Trazado_209035" data-name="Trazado 209035" d="M2396.833,1681.275c-6.189.3-7.992,2.409-8.5,3.825l-.008.022a.959.959,0,0,0,.907,1.269l13.468.044a3.39,3.39,0,0,0,.409-1.286,8.361,8.361,0,0,0-.693-3.855,12.419,12.419,0,0,1-5.584-.018" transform="translate(-1972.044 -1388.263)" fill="#1d3f70"/>
      <path id="Trazado_209036" data-name="Trazado 209036" d="M2388.333,1703.22l14.777.048a3.4,3.4,0,0,1-.409,1.287l-13.468-.044a.959.959,0,0,1-.907-1.269Z" transform="translate(-1972.043 -1406.383)" fill="#395b96"/>
      <path id="Trazado_209037" data-name="Trazado 209037" d="M2542.962,1684.093v1.209h7.821v-1.209a3.91,3.91,0,1,0-7.821,0" transform="translate(-2099.774 -1387.352)" fill="#1d3f70"/>
      <rect id="Rectángulo_49969" data-name="Rectángulo 49969" width="7.82" height="1.209" transform="translate(443.187 296.742)" fill="#395b96"/>
      <path id="Trazado_209038" data-name="Trazado 209038" d="M2519.591,993.486c1.491,2.583.887,5.723-1.351,7.015s-5.259.245-6.75-2.338-.886-5.723,1.351-7.015,5.259-.245,6.75,2.338" transform="translate(-2073.112 -817.955)" fill="#163260"/>
      <path id="Trazado_209039" data-name="Trazado 209039" d="M2504.53,938.357s5.271-2.076,5.771-9.614c.526-7.911-7.217-9.5-10.335-7.252Z" transform="translate(-2064.272 -760.124)" fill="#163260"/>
      <path id="Trazado_209040" data-name="Trazado 209040" d="M2386.215,1056.216s-12.5,2.848-17.473,20.9l12.614,2.871Z" transform="translate(-1955.918 -872.139)" fill="#fff"/>
      <path id="Trazado_209041" data-name="Trazado 209041" d="M2417.392,1083.991s-3.831,3.568-4.643,5.8,2.207,2.366,2.207,2.366Z" transform="translate(-1992.141 -895.074)" fill="#d1e0f2"/>
      <path id="Trazado_209042" data-name="Trazado 209042" d="M2459.842,920.754c-7.628-2.148-12.7,8.937-9.042,14.712Z" transform="translate(-2022.672 -760.06)" fill="#163260"/>
      <path id="Trazado_209043" data-name="Trazado 209043" d="M2443.533,1036.787h-23.811a113.672,113.672,0,0,1,3.175-28.078c1.32-5.336,2.079-9.6,7.164-12.454a34.918,34.918,0,0,1,.573-9.595,2.756,2.756,0,0,1,1.773-2.035c2.086-.724,4.555,1.053,3.913,3.4a33.43,33.43,0,0,0-.376,8.446c10.335,3.3,5.067,15.04,5.773,22.918a88.308,88.308,0,0,0,1.817,17.394" transform="translate(-1998.005 -812.89)" fill="#f99370"/>
      <path id="Trazado_209044" data-name="Trazado 209044" d="M2484.6,987.5c-.015.1-.032.205-.056.305a32.934,32.934,0,0,0-.521,6.293,10.185,10.185,0,0,1-5.842.525c-.145-3.672-.292-9.221,2.45-10.221a2.945,2.945,0,0,1,3.97,3.1" transform="translate(-2046.23 -812.662)" fill="#e57d61"/>
      <path id="Trazado_209045" data-name="Trazado 209045" d="M2460.227,940.787c-.424,2.628-1.311,5.591-3.387,7.329h0a6.561,6.561,0,0,1-2.943,1.353c-6.133,1.715-13.325-5.414-8.532-10.607,1.742-1.609,2.111-4.46,3.5-6.061,2.019-2.93,6.449-2.778,8.841-.389a9.816,9.816,0,0,1,2.526,8.374" transform="translate(-2017.892 -768.425)" fill="#f99370"/>
      <path id="Trazado_209046" data-name="Trazado 209046" d="M2480.289,976.974a.4.4,0,0,1,.709-.36.4.4,0,0,1-.709.36" transform="translate(-2047.984 -806.233)" fill="#c16256"/>
      <path id="Trazado_209047" data-name="Trazado 209047" d="M2461.1,973.748a.4.4,0,0,1,.71-.36.4.4,0,0,1-.71.36" transform="translate(-2032.137 -803.569)" fill="#c16256"/>
      <path id="Trazado_209048" data-name="Trazado 209048" d="M2462.494,981.073c-.728-.009-1.861-.5-.94-1.147.751-.407,1.3-1.965,1.31-1.981.777-.587-.329,1.84-1.166,2.245-.589.361.638.711,1.146.532a.15.15,0,0,1,.189.1c.043.27-.351.232-.539.252" transform="translate(-2032.269 -807.435)" fill="#c16256"/>
      <path id="Trazado_209049" data-name="Trazado 209049" d="M2382.586,1281.191a43.828,43.828,0,0,0,37.92.082s-.136-1.927-.375-5.1c-1.05-14.056-4.067-52.558-5.834-56.061a60.291,60.291,0,0,1-8.331,1.513,91.1,91.1,0,0,1-19.278.022c-.781,4.05-3.789,41.829-4.079,57.341-.017.8-.024,1.53-.024,2.2" transform="translate(-1967.349 -1007.474)" fill="#ff9d00"/>
      <path id="Trazado_209050" data-name="Trazado 209050" d="M2433.474,1080.52a24.966,24.966,0,0,1-27.355,2.423c.021-.028,2.211-24.686,12.718-30.811,0,0-1.266,4.793,5.882.22,8.819,2.9,5.5,17.1,8.756,28.169" transform="translate(-1986.781 -868.766)" fill="#3a72aa"/>
      <path id="Trazado_209051" data-name="Trazado 209051" d="M2404,1217.443s14.073,5.71,27.356-2.422l1.448,3.582s-10.847,9.247-29.251,3.093Z" transform="translate(-1984.659 -1003.268)" fill="#ce3932"/>
      <path id="Trazado_209052" data-name="Trazado 209052" d="M2502.906,1086.485c0,.021,0,.044.008.066.557,4.37,1.233,27.877,1.233,48.863,0,0,.767.089,1.989.139,3.286.139,9.862,0,13.631-2.891,0,0-2.23-40.622-2.9-44.186-1.815-10.774-7.37-21.611-12.468-30.635q-.4-.7-.791-1.393c-6.413,8.857-2.784,19.556-.7,30.037" transform="translate(-2064.288 -872.331)" fill="#fff"/>
      <path id="Trazado_209053" data-name="Trazado 209053" d="M2488.643,940.7c-.423,2.628-1.311,5.591-3.386,7.329h0a14.62,14.62,0,0,0,1.868-4.624l-.544-1.422c-9.125-2.945-8.35-10.3-8.35-10.3a5.406,5.406,0,0,1,4.955-.971c4.284,1.108,6,5.735,5.461,9.986" transform="translate(-2046.308 -768.339)" fill="#e57d61"/>
      <path id="Trazado_209054" data-name="Trazado 209054" d="M2483.559,925.455s-.685,7.268,7.481,10.235l2.931-1.618c2.859-5.608-2.366-13.886-10.413-8.617" transform="translate(-2050.713 -762.777)" fill="#163260"/>
      <path id="Trazado_209055" data-name="Trazado 209055" d="M2376.313,1130.835a6.21,6.21,0,0,0,2.943,1.045h0a14.168,14.168,0,0,0,1.8.142c1.521-10.429,4.333-56.318,6.372-66.652l.024-.12c1.092-4.778,4.354-9.065,6.77-13.122l-.241.078c-10.138,3.357-11.972,20.006-13.729,41.693-1.267,15.638-3.943,36.933-3.943,36.933" transform="translate(-1962.169 -868.766)" fill="#fff"/>
      <path id="Trazado_209056" data-name="Trazado 209056" d="M2521.531,1244.839s7.917,1.522,13.387-2.228a18.452,18.452,0,0,0-.364-3.487c-.355-1.486-13.152,4.585-13.152,4.585Z" transform="translate(-2081.971 -1022.976)" fill="#d1e0f2"/>
      <path id="Trazado_209057" data-name="Trazado 209057" d="M2498.58,1083.962c0,.021,0,.044.008.066.557,4.37,1.233,27.878,1.233,48.862,0,0,.767.089,1.989.139l-1.535-47.795c-2.759-11.452-6.571-22.668-.99-31.311a5.378,5.378,0,0,0-.685-.331,4.635,4.635,0,0,0-.7-.2c-6.414,8.857-1.4,20.089.681,30.57" transform="translate(-2059.961 -869.807)" fill="#d1e0f2"/>
      <path id="Trazado_209058" data-name="Trazado 209058" d="M2393.2,1131.881h0a14.17,14.17,0,0,0,1.8.142c1.521-10.429,4.333-56.318,6.371-66.652.008-.041.016-.081.024-.12,1.092-4.778,4.354-9.065,6.77-13.122l-.241.078a10.832,10.832,0,0,0-1.51.628,24.07,24.07,0,0,0-1.54,1.932,28.46,28.46,0,0,0-5.506,13.078c-1.066,8.583-5.1,55.273-6.173,64.034" transform="translate(-1976.114 -868.766)" fill="#d1e0f2"/>
      <path id="Trazado_209059" data-name="Trazado 209059" d="M2511.2,1129.195a21.708,21.708,0,0,0,3.222,6.445c2.451,3.442,6.43,10.507-2.288,10.68l.342,2.628,9.738-1.164-1.973-13.435Z" transform="translate(-2073.548 -932.399)" fill="#d1e0f2"/>
      <path id="Trazado_209060" data-name="Trazado 209060" d="M2481.709,1064.157c6.481,4.793,12.651,13.717,13.29,21.637.67,15.025-13.315,16.223-23.972,10.433-2.246-1.141-.379-4.594,2.031-3.955a19.8,19.8,0,0,0,4.729.894c15.365.43,6.119-11.949.161-17.517,0,0-.573-14.531,3.761-11.492" transform="translate(-2039.543 -878.351)" fill="#f99370"/>
      <path id="Trazado_209061" data-name="Trazado 209061" d="M2523.544,1090.941a16.484,16.484,0,0,1-5.559,1.931s-.027-4.911-3.384-6.518c0,0,3.126-4.33-1.164-10.162-2.33-3.166-5.368-5.31-5.869-9.5-.3-2.526,2.283-10.249,2.283-10.249a24.979,24.979,0,0,1,14.257,10.455c5.369,8.369,7.455,19.314-.564,24.037" transform="translate(-2070.529 -872.331)" fill="#fff"/>
      <path id="Trazado_209062" data-name="Trazado 209062" d="M2361.451,1136.892l-17.229-1.324-5.3-29.493,17.229,1.324Z" transform="translate(-1931.298 -913.309)" fill="#1d3f70"/>
      <path id="Trazado_209063" data-name="Trazado 209063" d="M2354.767,1209.152c-.755.147-2.257-.689-1.109-1.366a1.334,1.334,0,0,1,1.2.117l-.036,0c1.165-.053.976,1.192-.054,1.247" transform="translate(-1943.118 -997.206)" fill="#f99370"/>
      <path id="Trazado_209064" data-name="Trazado 209064" d="M2353.082,1201.836a1.618,1.618,0,0,1-1.334-.744c-.328-.794,1.307-1.244,1.6-.542,0-.015-.018-.016.015,0a.563.563,0,0,0,.138.04s.022,0-.006,0c1.175.167.508,1.373-.409,1.245" transform="translate(-1941.849 -991.031)" fill="#f99370"/>
      <path id="Trazado_209065" data-name="Trazado 209065" d="M2351.589,1195.835l-.714-.264c-1.025-.48.182-1.478.9-1.137l.713.264c1.025.48-.181,1.478-.9,1.137" transform="translate(-1940.838 -986.21)" fill="#f99370"/>
      <path id="Trazado_209066" data-name="Trazado 209066" d="M2350.274,1189.569l-.714-.265c-1.025-.479.181-1.478.9-1.137l.714.264c1.025.48-.181,1.478-.9,1.137" transform="translate(-1939.752 -981.036)" fill="#f99370"/>
      <path id="Trazado_209067" data-name="Trazado 209067" d="M2444.094,1216.282a.875.875,0,0,0-.141-.457,1.425,1.425,0,0,0,.164-1.389c-1.239-1.554-4.37-2.462-6.165-2.717a10.692,10.692,0,0,0-2.15-.084.576.576,0,0,0,0,1.147,9.365,9.365,0,0,1,2.238.409,20.391,20.391,0,0,0-2.78-.111.576.576,0,0,0-.08,1.142,20.372,20.372,0,0,1,3.806.946,35.666,35.666,0,0,1-3.616-.627.575.575,0,0,0-.287,1.111,37.364,37.364,0,0,0,3.973.988c-.679-.041-1.379-.115-2.054-.2a.576.576,0,0,0-.215,1.126c.249.066.5.135.746.2a23.96,23.96,0,0,0,5.4.8,1.026,1.026,0,0,0,.911-1.644.877.877,0,0,0,.252-.635" transform="translate(-2010.368 -1000.455)" fill="#f99370"/>
      <path id="Trazado_209068" data-name="Trazado 209068" d="M2506.528,992.05a.132.132,0,0,1-.015-.264l3.381-.389a.132.132,0,1,1,.031.263l-3.381.389h-.015" transform="translate(-2069.581 -818.617)" fill="#c16256"/>
      <path id="Trazado_209069" data-name="Trazado 209069" d="M2513.382,1008.646a.132.132,0,0,1-.068-.246l3.437-2.051a.132.132,0,1,1,.136.227l-3.437,2.051a.132.132,0,0,1-.068.019" transform="translate(-2075.24 -830.947)" fill="#c16256"/>
      <path id="Trazado_209070" data-name="Trazado 209070" d="M2529.9,983.974c-.646,2.987-4.294,2.216-3.676-.777.646-2.987,4.294-2.216,3.676.777" transform="translate(-2085.896 -810.285)" fill="#f99370"/>
      <path id="Trazado_209071" data-name="Trazado 209071" d="M2534.848,988.583a.151.151,0,0,1-.144-.195c.569-1.589-.135-2.257-1.207-1.815a.151.151,0,0,1-.11-.28c1.254-.513,2.284.281,1.6,2.184a.15.15,0,0,1-.144.107" transform="translate(-2091.792 -814.276)" fill="#c16256"/>
      <path id="Trazado_209072" data-name="Trazado 209072" d="M2533.543,991.571c-.468-.037.424-1.48,1.566-1.557a.152.152,0,0,1,.16.14.151.151,0,0,1-.14.16c-1.168.121-1.309,1.218-1.586,1.257" transform="translate(-2091.892 -817.474)" fill="#c16256"/>
      <path id="Trazado_209073" data-name="Trazado 209073" d="M2535,1002.964a.338.338,0,0,1-.676,0,.338.338,0,0,1,.676,0" transform="translate(-2092.644 -827.896)" fill="#f4d4be"/>
      <path id="Trazado_209074" data-name="Trazado 209074" d="M2443.682,984.184s2.516,2.148,10.519,1.389c0,0-.231,3.057,1.235,4.7,0,0-4.073,3.178-8.687,2.436,0,0-3.2-1.432-3.832-4.3s.766-4.221.766-4.221" transform="translate(-2017.03 -812.661)" fill="#edebff"/>
      <path id="Trazado_209075" data-name="Trazado 209075" d="M2481.814,966.677a.133.133,0,0,1-.113-.064,2.959,2.959,0,0,0-2.1-1.525.132.132,0,0,1,.018-.264,3.162,3.162,0,0,1,2.3,1.652.132.132,0,0,1-.113.2" transform="translate(-2047.358 -796.675)" fill="#c16256"/>
      <path id="Trazado_209076" data-name="Trazado 209076" d="M2461.494,964.7a.132.132,0,0,1-.07-.245,2.9,2.9,0,0,1,1.975-.355.132.132,0,1,1-.058.258,2.665,2.665,0,0,0-1.777.321.13.13,0,0,1-.07.02" transform="translate(-2032.395 -796.03)" fill="#c16256"/>
      <path id="Trazado_209077" data-name="Trazado 209077" d="M2484.79,1228.2a5.635,5.635,0,0,1-1.4,4.448s.156.483,1.021.463a7.809,7.809,0,0,0,1.364-4.657.884.884,0,0,0-.981-.254" transform="translate(-2050.582 -1014.101)" fill="#1d3f70"/>
      <path id="Trazado_209078" data-name="Trazado 209078" d="M2382.586,1546.8a43.829,43.829,0,0,0,37.92.082s-.136-1.927-.375-5.1a14.759,14.759,0,0,0-6.489,3.189c-7.656,6-12.365.926-17.353,0-4.543-.844-6.049,3.225-13.678-.375-.017.8-.024,1.53-.024,2.2" transform="translate(-1967.349 -1273.088)" fill="#ff9d00"/>
      <path id="Trazado_209079" data-name="Trazado 209079" d="M1382.474,190.576s2.364-4.425,9.571-3.119,8.907,10.167,11.353,14.2c5.181,8.543,6.733,17.621,4.042,21.982-2.989,4.843-9.59,2.95-19.231,2.081-10.287-.927-14.6-9.578-8.2-21.474Z" transform="translate(-1137.018 -154.589)" fill="#662948"/>
      <path id="Trazado_209080" data-name="Trazado 209080" d="M1333.559,324.541s0,0-.005.008c-.016.027-.06.1-.131.2-1.066,1.655-7.9,12.594-8.322,21.541a13.877,13.877,0,0,1-.473,2.983c-.571-.042-1.161-.084-1.76-.127-.789-.055-1.591-.113-2.385-.171-2.45-.174-4.795-.343-6.271-.448-.96-7.147,8.82-21.8,17.738-23.538v0s.005,0,.008,0a14.625,14.625,0,0,1,1.6-.445" transform="translate(-1085.116 -267.981)" fill="#fff"/>
      <path id="Trazado_209081" data-name="Trazado 209081" d="M1180.74,897.6l14.329-.152c-.037-2.219-.647-6.7-.192-9.232l-6.186.773c.172,1.216.552,3.854-1.531,4.486-2.7.818-5.638.566-7.323,2.579a1.014,1.014,0,0,0,.9,1.546" transform="translate(-974.083 -733.419)" fill="#f99370"/>
      <path id="Trazado_209082" data-name="Trazado 209082" d="M1194.9,914.11a3.439,3.439,0,0,1-.42,1.342l-14.468.154a1,1,0,0,1-.995-1.3c.532-1.509,2.415-3.71,9.08-4.119a16.366,16.366,0,0,0,6.055-.164,9.337,9.337,0,0,1,.748,4.091" transform="translate(-973.492 -751.421)" fill="#1d3f70"/>
      <path id="Trazado_209083" data-name="Trazado 209083" d="M1194.307,920.329a.294.294,0,0,1-.27-.175,3.056,3.056,0,0,0-1.546-1.655c-.767-1.131,1.422-.344,2.087,1.436a.286.286,0,0,1-.27.394" transform="translate(-984.531 -757.989)" fill="#e8c0a6"/>
      <path id="Trazado_209084" data-name="Trazado 209084" d="M1206.183,916.326a.293.293,0,0,1-.279-.2,3.977,3.977,0,0,0-1.826-2.134c-.7-1.317,1.848.073,2.384,1.96a.287.287,0,0,1-.279.371" transform="translate(-994.132 -754.276)" fill="#e8c0a6"/>
      <path id="Trazado_209085" data-name="Trazado 209085" d="M1221.117,913.481a.293.293,0,0,1-.276-.188,5.162,5.162,0,0,0-1.851-2.343c-.543-1.382,1.775.276,2.4,2.151a.287.287,0,0,1-.276.38" transform="translate(-1006.477 -751.768)" fill="#e8c0a6"/>
      <path id="Trazado_209086" data-name="Trazado 209086" d="M1179.023,933.661l15.875-.169a3.437,3.437,0,0,1-.42,1.342l-14.468.154a1,1,0,0,1-.986-1.327" transform="translate(-973.492 -770.804)" fill="#395b96"/>
      <path id="Trazado_209087" data-name="Trazado 209087" d="M1235.691,564.012c-7.052-.287-19.339-4.051-24.638,4.643-5.8,9.5-4.381,29.639-3.795,39.373-7.742,2.416-11.9,0-11.9,0-3.3-19.927-14.161-65.317,22.162-59.019,0,0,24.359,0,24.359,0,4.075,8.048.431,14.87-6.185,15" transform="translate(-983.64 -452.838)" fill="#fcb4b4"/>
      <path id="Trazado_209088" data-name="Trazado 209088" d="M1279.331,897.6l14.329-.152c-.037-2.219-.647-6.7-.192-9.232l-6.185.774c.172,1.216.6,3.855-1.531,4.485-2.705.8-5.639.566-7.323,2.579a1.014,1.014,0,0,0,.9,1.546" transform="translate(-1055.492 -733.415)" fill="#f99370"/>
      <path id="Trazado_209089" data-name="Trazado 209089" d="M1293.49,914.453a3.444,3.444,0,0,1-.42,1.342l-14.468.154a1,1,0,0,1-.994-1.3c.532-1.509,2.415-3.71,9.08-4.119a15.258,15.258,0,0,0,6.058-.09,8.912,8.912,0,0,1,.745,4.018" transform="translate(-1054.901 -751.765)" fill="#1d3f70"/>
      <path id="Trazado_209090" data-name="Trazado 209090" d="M1292.9,920.324a.294.294,0,0,1-.271-.174,3.059,3.059,0,0,0-1.546-1.655c-.768-1.131,1.422-.344,2.087,1.436a.287.287,0,0,1-.27.394" transform="translate(-1065.939 -757.985)" fill="#e8c0a6"/>
      <path id="Trazado_209091" data-name="Trazado 209091" d="M1304.775,916.321a.293.293,0,0,1-.279-.2,3.977,3.977,0,0,0-1.826-2.134c-.7-1.317,1.848.073,2.384,1.96a.287.287,0,0,1-.279.371" transform="translate(-1075.541 -754.272)" fill="#e8c0a6"/>
      <path id="Trazado_209092" data-name="Trazado 209092" d="M1349.129,369.659s-5.4,4.5-7.163,10.374c-1.427,4.739,3.5,3.319,4.375.717s2.788-11.092,2.788-11.092" transform="translate(-1107.876 -305.235)" fill="#d1e0f2"/>
      <path id="Trazado_209093" data-name="Trazado 209093" d="M1319.709,913.477a.293.293,0,0,1-.276-.188,5.16,5.16,0,0,0-1.851-2.343c-.543-1.382,1.775.276,2.4,2.151a.287.287,0,0,1-.276.381" transform="translate(-1087.887 -751.764)" fill="#e8c0a6"/>
      <path id="Trazado_209094" data-name="Trazado 209094" d="M1277.614,933.656l15.875-.169a3.441,3.441,0,0,1-.42,1.342l-14.468.154a1,1,0,0,1-.986-1.327" transform="translate(-1054.901 -770.8)" fill="#395b96"/>
      <path id="Trazado_209095" data-name="Trazado 209095" d="M1282.547,551.817l-2.084,14.716c-9.108,3.476-9.764,12.771-10.6,23.224-4.218-16.151-3.851-32.485,12.679-37.941" transform="translate(-1046.687 -455.647)" fill="#f49f9f"/>
      <path id="Trazado_209096" data-name="Trazado 209096" d="M1318.194,564.659c-7.381,4.4-14.752-.4-19.943,9.753-4.189,8.89-1.84,25.879-.69,33.581-7.742,2.416-11.9,0-11.9,0-4.591-17.19-15.09-57.138,14.578-59.02,8.124-.251,18.8-.182,25.979-.6a16.1,16.1,0,0,1-8.021,16.287" transform="translate(-1056.965 -452.802)" fill="#fcb4b4"/>
      <path id="Trazado_209097" data-name="Trazado 209097" d="M1388.637,358.973a34.467,34.467,0,0,1-.283,9.415c-9.591-2.954-18.31-3.227-32.878-5.2,9.2-26.7-12.11-8.02,12.214-39.162.058,0,6.043-.105,6.043-.105,6.839,4.984,11.223,12.224,14.9,35.051" transform="translate(-1119.243 -267.469)" fill="#ff9d00"/>
      <path id="Trazado_209098" data-name="Trazado 209098" d="M1222.054,324.586c-.016.026-.06.095-.131.2-1.066,1.655-7.9,12.594-8.322,21.541a13.891,13.891,0,0,1-.474,2.983c-2.252,8.446-11.855,15.728-18.562,20.147-7.482,4.933-9.981,15.235-8.964,25.209,0,0-.6.09-1.464.14a13,13,0,0,1-4.553-.409s-1.808-11.933,1.643-19.288,11.039-11.485,20.392-14.265c.351-.1.683-.216,1-.335a8.828,8.828,0,0,0,5.97-6.246v0a17.413,17.413,0,0,0,.392-5.25c-.068-1.431-.212-2.783-.234-3.921-.079-4.035,3.258-9.851,9.8-16.916q1.619-1.747,3.5-3.592" transform="translate(-973.617 -268.018)" fill="#fff"/>
      <path id="Trazado_209099" data-name="Trazado 209099" d="M1370.1,362.143a40.789,40.789,0,0,1-1.485,9.727c-2.3,7.537-9.921,9.78-17.637,12.246a11.287,11.287,0,0,0-7.931,10,32.854,32.854,0,0,1-10.147.235c-1.1-.121-1.8-.235-1.8-.235,1.572-19.122,12.5-23.056,18.33-28.29s1.018-15.938,1.1-23.565c.082-7.387,2.886-17.678,3.062-18.313,0-.01.005-.021.008-.032.427.163.843.332,1.248.511,11.183,4.857,14.224,14.768,14.76,21.776a128.878,128.878,0,0,1,.481,15.936" transform="translate(-1099.123 -267.469)" fill="#fff"/>
      <path id="Trazado_209100" data-name="Trazado 209100" d="M1353.34,331.819a60.294,60.294,0,0,0-1.292,10.446c.168,4.936,3.4,15.561,1.46,21.372s-9.532,6.889-14.809,14.244-5.8,16.473-5.8,16.473c-1.1-.121-1.795-.235-1.795-.235,1.572-19.122,12.5-23.056,18.33-28.29s1.018-15.938,1.1-23.565c.081-7.387,2.886-17.678,3.062-18.313l.008-.032q.673.012,1.346.074c-.019.082-.054.232-.1.437-.261,1.152-.911,4.108-1.523,7.387" transform="translate(-1099.123 -267.469)" fill="#d1e0f2"/>
      <path id="Trazado_209101" data-name="Trazado 209101" d="M1244.064,324.541s0,0-.005.008c-.016.027-.06.1-.13.2-1.066,1.655-7.9,12.594-8.322,21.541a13.862,13.862,0,0,1-.473,2.983c-2.252,8.446-11.855,15.727-18.562,20.147-7.482,4.933-9.981,15.235-8.964,25.209,0,0-.6.09-1.463.14-1.836-12.6,3.315-22.658,7.574-25.439a110.469,110.469,0,0,0,10.908-8.857c2.869-2.606,5.282-5.039,5.97-6.246v0c.944-1.66,2.015-3.415,2.777-5.078a10.169,10.169,0,0,0,.987-3.265c.193-2.44.1-6.156,2.516-11,1.2-2.417,2.592-4.878,3.682-6.744s1.9-3.149,1.9-3.149l.008-.005a14.627,14.627,0,0,1,1.6-.445" transform="translate(-995.622 -267.981)" fill="#d1e0f2"/>
      <path id="Trazado_209102" data-name="Trazado 209102" d="M1178.46,452.086H1210.7l-6.419-22.9h-32.046Z" transform="translate(-967.939 -354.388)" fill="#163260"/>
      <rect id="Rectángulo_49970" data-name="Rectángulo 49970" width="32.241" height="1.555" transform="translate(210.521 97.584)" fill="#234270"/>
      <path id="Trazado_209103" data-name="Trazado 209103" d="M1353.331,429.186h1.153l6.287,22.786h15.3v1.555H1359.7v-1.391Z" transform="translate(-1117.473 -354.388)" fill="#0b274f"/>
      <path id="Trazado_209104" data-name="Trazado 209104" d="M1425.509,312.3l-.146,2.075a10.429,10.429,0,0,0,.035,2.148,2.021,2.021,0,0,0,3.378,1.278,16.837,16.837,0,0,0,2.631-3.531,17.924,17.924,0,0,1,.1-2.037Z" transform="translate(-1176.918 -257.82)" fill="#f99370"/>
      <path id="Trazado_209105" data-name="Trazado 209105" d="M1433.042,261.789c-.025.1-.053.2-.087.294a29.539,29.539,0,0,0-1.131,5.982,9.87,9.87,0,0,1-6.065,1.115c.138-3.894.476-9.721,3.57-10.806a2.953,2.953,0,0,1,3.713,3.415" transform="translate(-1177.279 -213.244)" fill="#e57d61"/>
      <path id="Trazado_209106" data-name="Trazado 209106" d="M1389.913,204.712c-7.776-.9-9.009,10.99-3.725,15.366Z" transform="translate(-1141.952 -168.995)" fill="#662948"/>
      <path id="Trazado_209107" data-name="Trazado 209107" d="M1401.2,216.224c.375,2.6.4,5.643-1.1,7.882h0c-4.091,6.483-17.628,2.3-13.919-5.384a7.482,7.482,0,0,0,.892-3.186c.122-10.617,13.044-8.389,14.127.687" transform="translate(-1144.072 -172.127)" fill="#f99370"/>
      <path id="Trazado_209108" data-name="Trazado 209108" d="M1416.12,257.8c-.37-.36.222-.916.582-.545s-.222.916-.582.545" transform="translate(-1169.222 -212.322)" fill="#c16256"/>
      <path id="Trazado_209109" data-name="Trazado 209109" d="M1396.508,260.33c-.37-.36.222-.916.581-.545s-.222.916-.581.545" transform="translate(-1153.027 -214.409)" fill="#c16256"/>
      <path id="Trazado_209110" data-name="Trazado 209110" d="M1402.881,265.017c-.684.106-1.675-.066-1.028-.861a4.289,4.289,0,0,0,.679-2.245.153.153,0,0,1,.306.011,4.458,4.458,0,0,1-.767,2.441c-.078.078-.159.184-.1.25a1.408,1.408,0,0,0,1.375-.081.156.156,0,0,1,.213.037c.114.31-.438.377-.677.448" transform="translate(-1157.365 -216.152)" fill="#c16256"/>
      <path id="Trazado_209111" data-name="Trazado 209111" d="M1414.713,215.787c.375,2.6.4,5.643-1.1,7.882h0a13.971,13.971,0,0,0,.431-4.9l-.954-1.181c-9.748-.126-11.181-7.253-11.181-7.253,4.284-5.576,12.3-.54,12.8,5.446" transform="translate(-1157.584 -171.689)" fill="#e57d61"/>
      <path id="Trazado_209112" data-name="Trazado 209112" d="M1406.195,201.064s1.449,7.017,10.272,7.441l2.364-2.373c1.1-6.108-6.394-12.362-12.635-5.068" transform="translate(-1161.123 -163.308)" fill="#662948"/>
      <path id="Trazado_209113" data-name="Trazado 209113" d="M1468.854,247.617c.313,2.971-3.561,3.312-3.8.334-.313-2.971,3.56-3.311,3.8-.334" transform="translate(-1209.706 -202.753)" fill="#f99370"/>
      <path id="Trazado_209114" data-name="Trazado 209114" d="M1472.333,250.635h0c-.395-1.177-2.733.08-1.738.125,0-.052,1.04-.654,1.363-.132-1.021.467-1.361,2.312-.77,1.715a2,2,0,0,1,.927-1.459c.4,2.683.761.822.218-.249" transform="translate(-1214.098 -206.541)" fill="#c16256"/>
      <path id="Trazado_209115" data-name="Trazado 209115" d="M1476.954,266.523c.138.411-.532.611-.656.2s.532-.611.656-.2" transform="translate(-1218.993 -219.885)" fill="#f4d4be"/>
      <path id="Trazado_209116" data-name="Trazado 209116" d="M1224.125,871.284c.127,2.085.241,3.344.241,3.344-7.742,2.416-11.9,0-11.9,0s-.158-1.065-.492-2.869c.093.045,4.9,2.383,12.155-.475" transform="translate(-1000.748 -719.437)" fill="#f49f9f"/>
      <path id="Trazado_209117" data-name="Trazado 209117" d="M1320.806,878c-7.742,2.416-11.9,0-11.9,0s-.26-.966-.7-2.633c0,0,4.269,2.151,12.2,0,.234,1.648.4,2.633.4,2.633" transform="translate(-1080.209 -722.805)" fill="#f49f9f"/>
      <path id="Trazado_209118" data-name="Trazado 209118" d="M1413.422,249.776a.175.175,0,0,1-.107-.036,2.27,2.27,0,0,0-1.9-.487.174.174,0,0,1-.215-.113.167.167,0,0,1,.115-.209,2.618,2.618,0,0,1,2.209.544.165.165,0,0,1,.03.236.175.175,0,0,1-.137.065" transform="translate(-1165.254 -205.499)" fill="#c16256"/>
      <path id="Trazado_209119" data-name="Trazado 209119" d="M1393.925,251.524a.177.177,0,0,1-.1-.029.165.165,0,0,1-.047-.233,1.838,1.838,0,0,1,1.464-.762.168.168,0,1,1-.014.336,1.517,1.517,0,0,0-1.163.615.175.175,0,0,1-.144.074" transform="translate(-1150.849 -206.842)" fill="#c16256"/>
      <path id="Trazado_209120" data-name="Trazado 209120" d="M1413.029,280.976a.683.683,0,0,1-.552-.236c-.269-.337-.091-.893.4-1.264a1.009,1.009,0,0,1,1.364-.061c.269.337.091.892-.4,1.264a1.393,1.393,0,0,1-.813.3m.664-1.459a1.038,1.038,0,0,0-.6.225c-.36.269-.469.634-.342.792s.518.148.878-.121.469-.634.343-.793a.349.349,0,0,0-.279-.1" transform="translate(-1166.207 -230.524)" fill="#c16256"/>
      <path id="Trazado_209121" data-name="Trazado 209121" d="M1458.349,347.286c7.432,5.4,11.4,15.112,9.439,23.945-.752,4.962-3.983,9.681-9.037,11.085-2.5.967-14.136,2.522-13.594-1.482.185-.961,1.064-1.314,1.915-1.571,1.4-.48,2.85-1.009,4.188-1.6,2.4-1.2,5.477-2.334,6-4.941a17.04,17.04,0,0,0-6.158-16.012c.008,0-.022-.018.048.031-6.362-4.592.8-13.99,7.2-9.456" transform="translate(-1193.28 -285.767)" fill="#f99370"/>
      <path id="Trazado_209122" data-name="Trazado 209122" d="M1478.867,362.493c-.462.271-.949.535-1.455.788a23.829,23.829,0,0,1-10.125,2.235s.637-3.985-2.333-5.624c14.012-10.32-.889-16.329-2.028-26.427a32.009,32.009,0,0,1,.8-9.121c17.12,1.568,34.445,26.87,15.143,38.149" transform="translate(-1207.886 -267.818)" fill="#fff"/>
      <path id="Trazado_209123" data-name="Trazado 209123" d="M1404.5,539.323s1.436-4.865,10.008-4.3l1.8,4.3Z" transform="translate(-1159.721 -441.739)" fill="#f99370"/>
      <path id="Trazado_209124" data-name="Trazado 209124" d="M1479.34,527.746c-1.226.132-1.989.135-1.989.135s.636-3.984-2.335-5.625a16.077,16.077,0,0,0,1.686-1.278,7.265,7.265,0,0,1,2.637,6.768" transform="translate(-1217.951 -430.183)" fill="#d1e0f2"/>
      <path id="Trazado_209125" data-name="Trazado 209125" d="M1405.942,546c-1.523.045,4.022-3.641,5.676-2.74a.238.238,0,0,1-.218.259c-3.12.316-5.2,2.471-5.458,2.48" transform="translate(-1160.698 -448.462)" fill="#e57d61"/>
      <path id="Trazado_209126" data-name="Trazado 209126" d="M1419.6,551.747c-1.156-.478,2.435-1.3,4.213-1.764a.244.244,0,0,1,.288.183.236.236,0,0,1-.189.279,41.529,41.529,0,0,0-4.311,1.3" transform="translate(-1172.002 -454.128)" fill="#e57d61"/>
      <path id="Trazado_209127" data-name="Trazado 209127" d="M1473.652,426.983a.412.412,0,0,1-.32-.149.387.387,0,0,1,.066-.555c5.465-4.2,4.985-9.517,3.329-12.063-1.8-2.774-4.925-7.848-4.957-7.9a.389.389,0,0,1,.141-.542.415.415,0,0,1,.559.137c.031.051,3.148,5.116,4.946,7.882,1.813,2.787,2.374,8.577-3.512,13.1a.414.414,0,0,1-.253.086" transform="translate(-1215.223 -335.011)" fill="#d1e0f2"/>
      <path id="Trazado_209128" data-name="Trazado 209128" d="M1493.721,545.424a.4.4,0,0,1-.03-.79c.067,0,6.7-.508,9.754-2.288a.415.415,0,0,1,.56.135.388.388,0,0,1-.139.543c-3.221,1.876-9.833,2.378-10.113,2.4h-.031" transform="translate(-1233.059 -447.78)" fill="#d1e0f2"/>
      <path id="Trazado_209129" data-name="Trazado 209129" d="M777,1021.216v107.008c0,3.369,11.626,6.1,25.968,6.1s25.968-2.731,25.968-6.1V1021.216Z" transform="translate(-641.584 -843.239)" fill="#8a9edd"/>
      <path id="Trazado_209130" data-name="Trazado 209130" d="M811.99,987.307a94.358,94.358,0,0,0-39.513,0H764v5.228c0,4.042,12.641,7.32,28.233,7.32s28.233-3.277,28.233-7.32v-5.228Z" transform="translate(-630.85 -813.513)" fill="#23659b"/>
      <path id="Trazado_209131" data-name="Trazado 209131" d="M820.467,962.536c0,4.043-12.641,7.32-28.233,7.32S764,966.578,764,962.536s12.641-7.32,28.233-7.32,28.233,3.277,28.233,7.32" transform="translate(-630.85 -788.741)" fill="#3a72aa"/>
      <path id="Trazado_209132" data-name="Trazado 209132" d="M810.492,1583.765l-8.136-.606h-.007l-8.208-.612a3.863,3.863,0,0,0-4.136,3.535c-.333,5.742,8.282,4.087,11.77,4.78l0,0c0,.008,8.211.615,8.211.616a3.85,3.85,0,0,0,2.807-.925c2.617-2.1,1.064-6.645-2.305-6.783" transform="translate(-652.315 -1306.732)" fill="#7689d6"/>
      <path id="Trazado_209133" data-name="Trazado 209133" d="M934.562,1580.346l-7.865,2.168-.007,0-7.935,2.188a3.862,3.862,0,0,0-2.7,4.721c1.619,5.519,9.174,1.06,12.692.538,0,0,0,0,0,0s7.938-2.185,7.939-2.185a3.85,3.85,0,0,0,2.332-1.816c1.759-2.856-1.235-6.615-4.454-5.611" transform="translate(-756.292 -1304.786)" fill="#7689d6"/>
      <path id="Trazado_209134" data-name="Trazado 209134" d="M904.452,1523.166c-2.731-5.062-9.195.869-12.527,2.111,0,0,0,0,0,0s-7.311,3.787-7.312,3.787a3.85,3.85,0,0,0-1.9,2.261c-1.127,3.159,2.583,6.214,5.523,4.563l7.243-3.755.006,0,7.307-3.788a3.862,3.862,0,0,0,1.665-5.18" transform="translate(-728.699 -1256.047)" fill="#7689d6"/>
      <path id="Trazado_209135" data-name="Trazado 209135" d="M818.77,1510.011l0,0c.005-.007-7.8-2.643-7.8-2.643a3.85,3.85,0,0,0-2.949.2c-3.058,1.379-2.687,6.17.541,7.144l7.728,2.616.007,0,7.8,2.639a3.862,3.862,0,0,0,4.887-2.392c1.754-5.477-7-6.023-10.207-7.563" transform="translate(-665.463 -1244.497)" fill="#7689d6"/>
      <path id="Trazado_209136" data-name="Trazado 209136" d="M936.033,1490.126h0c.006-.005-7.232-3.935-7.233-3.936a3.85,3.85,0,0,0-2.939-.311c-3.248.836-3.7,5.62-.687,7.131l7.168,3.9.006,0,7.231,3.931a3.863,3.863,0,0,0,5.224-1.522c2.664-5.1-5.87-7.13-8.766-9.2" transform="translate(-762.259 -1226.791)" fill="#7689d6"/>
      <path id="Trazado_209137" data-name="Trazado 209137" d="M860.962,1454.08l-7.681,2.751-.006,0-7.749,2.775a3.863,3.863,0,0,0-2.344,4.91c2.028,5.382,9.228.37,12.7-.414,0,0,0,0,0,0s7.753-2.773,7.753-2.773a3.85,3.85,0,0,0,2.189-1.986c1.54-2.98-1.727-6.5-4.862-5.262" transform="translate(-696.053 -1200.452)" fill="#7689d6"/>
      <path id="Trazado_209138" data-name="Trazado 209138" d="M964.918,1417.378h0c.008,0-5.729-5.913-5.729-5.914a3.849,3.849,0,0,0-2.713-1.173c-3.35-.171-5.209,4.261-2.782,6.6l5.679,5.858,0,0,5.73,5.909a3.862,3.862,0,0,0,5.44.1c4.063-4.071-3.477-8.556-5.624-11.391" transform="translate(-786.567 -1164.502)" fill="#7689d6"/>
      <path id="Trazado_209139" data-name="Trazado 209139" d="M917.177,1375.759l-7.592,2.988-.007,0-7.659,3.015a3.862,3.862,0,0,0-2.19,4.98c2.194,5.317,9.235.083,12.678-.808,0,0,0,0,0,0s7.663-3.013,7.663-3.013a3.85,3.85,0,0,0,2.126-2.053c1.446-3.026-1.928-6.448-5.023-5.108" transform="translate(-742.712 -1135.745)" fill="#7689d6"/>
      <path id="Trazado_209140" data-name="Trazado 209140" d="M830.975,1352.129l-7.817-2.337-.007,0-7.886-2.358a3.862,3.862,0,0,0-4.8,2.565c-1.557,5.537,7.213,5.768,10.471,7.193l0,0c-.005.006,7.888,2.362,7.888,2.362a3.849,3.849,0,0,0,2.94-.3c3.006-1.487,2.464-6.262-.8-7.12" transform="translate(-669.068 -1112.468)" fill="#7689d6"/>
      <path id="Trazado_209141" data-name="Trazado 209141" d="M811.773,1399.481l-6.677,4.689-.006,0-6.736,4.73a3.863,3.863,0,0,0-.958,5.356c3.382,4.652,9-2.09,12.133-3.765,0,0,0-.005,0,0s6.74-4.729,6.741-4.73a3.848,3.848,0,0,0,1.584-2.495c.695-3.281-3.39-5.813-6.083-3.784" transform="translate(-657.861 -1154.98)" fill="#7689d6"/>
      <path id="Trazado_209142" data-name="Trazado 209142" d="M970.139,1318.131l-5.413-6.1,0-.005-5.461-6.158a3.862,3.862,0,0,0-5.43-.347c-4.24,3.886,3.093,8.7,5.112,11.63h0c-.008,0,5.461,6.162,5.461,6.163a3.85,3.85,0,0,0,2.658,1.292c3.339.319,5.393-4.025,3.073-6.471" transform="translate(-786.525 -1077.205)" fill="#7689d6"/>
      <path id="Trazado_209143" data-name="Trazado 209143" d="M810.945,1269.808c-2.006-5.39-9.227-.408-12.7.362,0,0,0,0,0,0s-7.764,2.742-7.764,2.742a3.849,3.849,0,0,0-2.2,1.977c-1.552,2.973,1.7,6.511,4.84,5.282l7.692-2.72.007,0,7.76-2.744a3.863,3.863,0,0,0,2.364-4.9" transform="translate(-650.571 -1046.463)" fill="#7689d6"/>
      <path id="Trazado_209144" data-name="Trazado 209144" d="M890.67,1215.725c2.407-5.224-6.218-6.829-9.212-8.747l0,0c.006-.006-7.419-3.571-7.42-3.571a3.848,3.848,0,0,0-2.951-.163c-3.2,1-3.417,5.8-.331,7.156l7.353,3.535.006,0,7.418,3.566a3.862,3.862,0,0,0,5.141-1.781" transform="translate(-717.183 -993.364)" fill="#7689d6"/>
      <path id="Trazado_209145" data-name="Trazado 209145" d="M974.2,1283.329c-4.329-3.787-8.31,4.03-11,6.359,0,0,0,.005,0,.005s-5.525,6.1-5.525,6.105a3.85,3.85,0,0,0-.992,2.784c.049,3.354,4.593,4.918,6.77,2.343l5.472-6.051,0-.005,5.521-6.1a3.862,3.862,0,0,0-.252-5.435" transform="translate(-789.948 -1058.829)" fill="#7689d6"/>
      <path id="Trazado_209146" data-name="Trazado 209146" d="M881.012,1328.051c-1.189-5.627-9.066-1.763-12.613-1.514,0,0,0,0,0,0s-8.083,1.567-8.084,1.567a3.848,3.848,0,0,0-2.464,1.631c-1.973,2.712.722,6.691,4.009,5.937l8.009-1.556h.007l8.08-1.57a3.862,3.862,0,0,0,3.06-4.5" transform="translate(-707.789 -1094.09)" fill="#7689d6"/>
      <path id="Trazado_209147" data-name="Trazado 209147" d="M834.6,1432.871c2.375-5.238-6.26-6.791-9.265-8.691l0,0c.006-.006-7.441-3.525-7.441-3.526a3.849,3.849,0,0,0-2.952-.146c-3.2,1.016-3.381,5.818-.287,7.158l7.374,3.49.006,0,7.44,3.521a3.862,3.862,0,0,0,5.13-1.811" transform="translate(-670.839 -1172.757)" fill="#7689d6"/>
      <path id="Trazado_209148" data-name="Trazado 209148" d="M925.31,1246.465c-4.092-4.041-8.538,3.522-11.361,5.684,0,0,0,.005,0,0s-5.883,5.76-5.884,5.76a3.849,3.849,0,0,0-1.159,2.719c-.153,3.35,4.288,5.186,6.616,2.747l5.827-5.71.005,0,5.879-5.761a3.862,3.862,0,0,0,.077-5.44" transform="translate(-748.848 -1028.266)" fill="#7689d6"/>
      <path id="Trazado_209149" data-name="Trazado 209149" d="M528.788,1596.445c1.834-2.421-.4-13.489-.319-16.318h8.33c.094,2.821-2,13.914-.249,16.313.5.866-8.26.856-7.762.005" transform="translate(-436.366 -1304.743)" fill="#f99370"/>
      <path id="Trazado_209150" data-name="Trazado 209150" d="M683.805,1599.776h-14.58a1.467,1.467,0,0,1-1.462-1.6,34.535,34.535,0,0,0,.359-4.537c.058-.883-1.214-12.327-1.308-13.511H676l-1.482,11.816a2.941,2.941,0,0,0,1.991,3.161c1.8.594,3.853.852,5.209,1.2a4.621,4.621,0,0,1,3.073,1.792,1.125,1.125,0,0,1-.983,1.68" transform="translate(-550.602 -1304.742)" fill="#f99370"/>
      <path id="Trazado_209151" data-name="Trazado 209151" d="M669.272,1662.253l0,.016a1.732,1.732,0,0,0,1.719,1.522h14.69a1.252,1.252,0,0,0,1.2-1.62c-.774-2.419-3.2-3.917-10.079-4.519a15.713,15.713,0,0,1-6.688,0,9.965,9.965,0,0,0-.845,4.6" transform="translate(-552.597 -1368.757)" fill="#395b96"/>
      <path id="Trazado_209152" data-name="Trazado 209152" d="M526.656,1663.6h6.406a1.582,1.582,0,0,0,1.589-1.64c-.277-6.03-9.348-6.079-9.583.006a1.584,1.584,0,0,0,1.589,1.634" transform="translate(-433.558 -1368.563)" fill="#395b96"/>
      <path id="Trazado_209153" data-name="Trazado 209153" d="M742.25,1667.857a.327.327,0,0,0,.3-.2,3.46,3.46,0,0,1,1.7-1.923.327.327,0,0,0-.241-.607,4.107,4.107,0,0,0-2.067,2.284.329.329,0,0,0,.3.45" transform="translate(-612.62 -1374.904)" fill="#e8c0a6"/>
      <path id="Trazado_209154" data-name="Trazado 209154" d="M727.68,1663.409a.327.327,0,0,0,.312-.23A4.557,4.557,0,0,1,730,1660.7a.327.327,0,0,0-.3-.58,5.145,5.145,0,0,0-2.331,2.864.328.328,0,0,0,.312.423" transform="translate(-600.59 -1370.763)" fill="#e8c0a6"/>
      <path id="Trazado_209155" data-name="Trazado 209155" d="M711.1,1660.362a.327.327,0,0,0,.309-.219,5.853,5.853,0,0,1,2.033-2.718.327.327,0,0,0-.361-.545,6.457,6.457,0,0,0-2.29,3.048.328.328,0,0,0,.309.434" transform="translate(-586.898 -1368.07)" fill="#e8c0a6"/>
      <path id="Trazado_209156" data-name="Trazado 209156" d="M537.525,1663.188c2.494-1.409,4.711.438,5.07-.192.293-.662-2.973-1.655-5.235-.417a.329.329,0,0,0,.165.609" transform="translate(-443.578 -1372.338)" fill="#e8c0a6"/>
      <path id="Trazado_209157" data-name="Trazado 209157" d="M687.107,1684.053H669.469l0,.016a1.732,1.732,0,0,0,1.719,1.522h14.844a1.14,1.14,0,0,0,1.082-1.512l-.009-.026" transform="translate(-552.794 -1390.557)" fill="#4867aa"/>
      <path id="Trazado_209158" data-name="Trazado 209158" d="M526.5,1685.59h6.668a1.46,1.46,0,0,0,1.464-1.512c0-.009,0-.017,0-.026h-9.594c0,.011,0,.021,0,.032a1.46,1.46,0,0,0,1.464,1.506" transform="translate(-433.53 -1390.556)" fill="#4867aa"/>
      <path id="Trazado_209159" data-name="Trazado 209159" d="M630.525,799.342s.839-4.732-3.314-6.264l-2.623,1.971Z" transform="translate(-515.735 -654.861)" fill="#8c4225"/>
      <path id="Trazado_209160" data-name="Trazado 209160" d="M661.1,940.956c11.658,8.78,29.9,6.151,36.647-6.619l-1.708-3.55c-19.559,8.407-27.257-8.065-43.126-9.013l3.2,4.078s4.716,14.825,4.99,15.1" transform="translate(-539.127 -761.128)" fill="#fff"/>
      <path id="Trazado_209161" data-name="Trazado 209161" d="M521.873,1184.316s7.01,1.7,10.622-.127c1.88-11.788,7.1-44.61,8.915-67.1.07,1.312,3.888,54.2,4.615,67.1,2.494.834,7.507,1.841,10.313-.18,1.26-13.578,5.307-58.281-.789-94.79,0,0-16.706,1.859-29.752-2.084-3.591,11.581-4.542,83.284-3.923,97.181" transform="translate(-430.776 -897.67)" fill="#ce4abf"/>
      <path id="Trazado_209162" data-name="Trazado 209162" d="M609.055,863.784c.116-3.6.563-10.743-2.359-11.7-2.1-.729-4.583,1.059-3.938,3.425a33.609,33.609,0,0,1,.379,8.5c-5.539,1.662,11.12,7.126,5.918-.221" transform="translate(-497.078 -703.447)" fill="#f99370"/>
      <path id="Trazado_209163" data-name="Trazado 209163" d="M605.893,854.97c.014.1.033.206.057.307a33.1,33.1,0,0,1,.525,6.331,10.288,10.288,0,0,0,5.819.6c.141-3.728.369-9.31-2.406-10.351a2.963,2.963,0,0,0-3.994,3.117" transform="translate(-500.27 -703.216)" fill="#e57d61"/>
      <path id="Trazado_209164" data-name="Trazado 209164" d="M582.514,807.747c.426,2.644,1.319,5.625,3.407,7.374h0a8.661,8.661,0,0,0,10.6-.482h0c2.39-2.233,3.146-5.239,1.888-7.556-.823-1.365-2.338-2.566-2.747-4.122-3.546-10.351-14.66-4.562-13.154,4.786" transform="translate(-480.878 -658.48)" fill="#f99370"/>
      <path id="Trazado_209165" data-name="Trazado 209165" d="M637.466,844.385a.4.4,0,0,0-.714-.362.4.4,0,0,0,.714.362" transform="translate(-525.739 -696.749)" fill="#c16256"/>
      <path id="Trazado_209166" data-name="Trazado 209166" d="M656.774,841.139a.4.4,0,0,0-.714-.362.4.4,0,0,0,.714.362" transform="translate(-541.682 -694.069)" fill="#c16256"/>
      <path id="Trazado_209167" data-name="Trazado 209167" d="M582.332,807.309c.426,2.644,1.319,5.625,3.407,7.374h0a4.19,4.19,0,0,0,.48.335c-1.59-1.578-2.447-4.9-2.447-4.9l.374-2.865a5.428,5.428,0,0,0,1.461-5.523c4.291,1.2,5.736-1.444,5.736-1.444a5.666,5.666,0,0,0,2.783-.525c-4.881-7.061-13.308.45-11.8,7.545" transform="translate(-480.695 -658.042)" fill="#e57d61"/>
      <path id="Trazado_209168" data-name="Trazado 209168" d="M579.359,816.94c1.824.721,2.464,4.957-1.846,7.853,0,0-2.088-6.979,1.846-7.853" transform="translate(-476.407 -674.564)" fill="#8c4225"/>
      <path id="Trazado_209169" data-name="Trazado 209169" d="M890.463,974.162a3.572,3.572,0,0,0,2.444,4.421,13.329,13.329,0,0,0,.9-1.542l-1.708-3.55a16.865,16.865,0,0,0-1.637.671" transform="translate(-735.184 -803.832)" fill="#d1e0f2"/>
      <path id="Trazado_209170" data-name="Trazado 209170" d="M649.919,848.476c.733-.009,1.872-.5.946-1.154-.756-.409-1.312-1.977-1.317-1.993a.152.152,0,0,0-.286.1,4.667,4.667,0,0,0,1.459,2.159c.593.363-.643.716-1.153.536a.151.151,0,0,0-.19.1c-.043.272.353.234.542.254" transform="translate(-536.1 -697.924)" fill="#c16256"/>
      <path id="Trazado_209171" data-name="Trazado 209171" d="M533.274,965.513c9.071,3.772,31.666,4.078,33.857,1.408,4.285-10.578-3.622-38.779-13.411-46.6a9.608,9.608,0,0,0-1.811-.307c.043.173,1.139,4.733-5.921.218a8.561,8.561,0,0,0-2.17.387c.507,7.376-13.84,36.815-10.542,44.891" transform="translate(-439.928 -759.678)" fill="#e8c0a6"/>
      <path id="Trazado_209172" data-name="Trazado 209172" d="M702.547,958.091l4.385,15.7c6.839,3.769,18.526,3,23.954-1.245-19.432,7.527-21.018-7.348-28.077-14.453Z" transform="translate(-580.107 -791.115)" fill="#d1e0f2"/>
      <path id="Trazado_209173" data-name="Trazado 209173" d="M575,773.464c1.428-1.694,4.029-2.523,4.624-4.247a7.471,7.471,0,0,1,.78,3.5,13.709,13.709,0,0,0,1.823-2.534,4.079,4.079,0,0,1,1.189,2.35,7.318,7.318,0,0,1,4.177.408,14.973,14.973,0,0,1-13.1,4.726L571.909,781c-3.671-6.364,3.088-7.54,3.088-7.54" transform="translate(-471.335 -635.158)" fill="#8c4225"/>
      <path id="Trazado_209174" data-name="Trazado 209174" d="M639.421,1326.1c.058-1.134-4.615-67.1-4.615-67.1s2.207,1.178,2.732,8.183c.456,6.091,3.178,46.564,3.881,57.028a14.507,14.507,0,0,0,8.532-.653c-.146,1.533-.217,2.365-.217,2.365-2.3,1.653-6.067,1.28-8.729.633-.646-.15-1.149-.31-1.4-.394l-.182-.059" transform="translate(-524.172 -1039.578)" fill="#a523a2"/>
      <path id="Trazado_209175" data-name="Trazado 209175" d="M522.28,1631.855s7.01,1.7,10.622-.127c0,0,.149-.912.41-2.545a25.452,25.452,0,0,1-11.117-.05c-.028,1.591.108,2.59.086,2.722" transform="translate(-431.183 -1345.208)" fill="#a523a2"/>
      <path id="Trazado_209176" data-name="Trazado 209176" d="M497.163,1015.805a43.835,43.835,0,0,0,15.255,1.544c1.272-.106,1.987-.239,1.987-.239s2.243-46.35,2.924-56.148c1.1-10.108,1.9-33.468-2.924-37.472l-1.76.3c-11.726,14.552-14.4,84.886-15.482,92.013" transform="translate(-410.517 -762.546)" fill="#fff"/>
      <path id="Trazado_209177" data-name="Trazado 209177" d="M664.526,1016.038a15.715,15.715,0,0,0,1.591.13c1.891.071,5.019-.111,6.768-1.805.224-3.741,3.258-87.781-17.827-92.417l0,0a8.741,8.741,0,0,0-2.135-.194c13.767,12.956,12.965,83.4,11.605,94.289" transform="translate(-539.13 -761.104)" fill="#fff"/>
      <path id="Trazado_209178" data-name="Trazado 209178" d="M603.929,858.547s7.331,4.372,10.4,1.68c2.7-2.374,3.137-5.234,1.888-7.555,0,0-3.449,1.2-11.243.872,0,0,.545,3.515-1.041,5" transform="translate(-498.676 -704.069)" fill="#fff"/>
      <path id="Trazado_209179" data-name="Trazado 209179" d="M594.017,853a.152.152,0,0,0,.039-.3l-3.227-.872c-1.049.337,3.223,1.076,3.188,1.17" transform="translate(-487.723 -703.375)" fill="#c16256"/>
      <path id="Trazado_209180" data-name="Trazado 209180" d="M589.245,876.616a.152.152,0,0,0,.084-.278c-.092.028-3.149-2.3-3.171-1.926-.23.234,2.981,2.118,3.087,2.2" transform="translate(-483.992 -721.986)" fill="#c16256"/>
      <path id="Trazado_209181" data-name="Trazado 209181" d="M573.2,851.428c.65,3.005,4.32,2.229,3.7-.782-.651-3.005-4.32-2.229-3.7.782" transform="translate(-473.248 -700.825)" fill="#f99370"/>
      <path id="Trazado_209182" data-name="Trazado 209182" d="M577.209,856.124a.152.152,0,0,0,.145-.2c-.573-1.6.136-2.271,1.214-1.827,1.06-.362-2.693-1.34-1.5,1.915a.151.151,0,0,0,.145.107" transform="translate(-476.299 -704.9)" fill="#c16256"/>
      <path id="Trazado_209183" data-name="Trazado 209183" d="M578.915,859.069c.459-.065-.412-1.472-1.575-1.567a.151.151,0,0,0-.02.3c1.171.121,1.318,1.226,1.6,1.264" transform="translate(-476.591 -708.057)" fill="#c16256"/>
      <path id="Trazado_209184" data-name="Trazado 209184" d="M573.207,974.338c.757,5.9-4.795,15.423,3.893,18.089L570.556,994l-1.825-7.076Z" transform="translate(-469.613 -804.531)" fill="#d1e0f2"/>
      <path id="Trazado_209185" data-name="Trazado 209185" d="M664.526,1016.038a15.715,15.715,0,0,0,1.591.13c1.289-12.232.927-27.93.637-35.647-.3-7.968-1.271-24.43-3.947-38.935s-7.749-19.64-7.749-19.64l0,0a8.741,8.741,0,0,0-2.135-.194c13.767,12.956,12.965,83.4,11.605,94.289" transform="translate(-539.13 -761.104)" fill="#d1e0f2"/>
      <path id="Trazado_209186" data-name="Trazado 209186" d="M528.146,1096.9l-.113,1.118c5.163,2.55,14.787,1.2,14.787,1.2q.147-2.235.285-4.3l-13.606-3.994c-.436,2.386-1.015,3.494-1.353,5.969" transform="translate(-436.007 -900.807)" fill="#d1e0f2"/>
      <path id="Trazado_209187" data-name="Trazado 209187" d="M584.694,1017.346c1.271-.106,1.987-.239,1.987-.239s2.243-46.35,2.924-56.148c1.1-10.108,1.9-33.469-2.923-37.473l-1.76.3c1.624.958,3.86,8.022,3.8,17.856-.084,13.184-1.424,29.187-2.093,40.315-.573,9.542-1.64,29.807-1.933,35.387" transform="translate(-482.793 -762.542)" fill="#d1e0f2"/>
      <path id="Trazado_209188" data-name="Trazado 209188" d="M629.537,836.647a.123.123,0,0,0,.112-.072,2,2,0,0,1,1.8-1.138.127.127,0,0,0,.127-.119.123.123,0,0,0-.119-.127,2.257,2.257,0,0,0-2.028,1.281.123.123,0,0,0,.061.163.128.128,0,0,0,.051.011" transform="translate(-519.72 -689.635)" fill="#c16256"/>
      <path id="Trazado_209189" data-name="Trazado 209189" d="M650.377,833.064a.123.123,0,0,0,.074-.221,1.972,1.972,0,0,0-1.823-.128.123.123,0,0,0,.082.232,1.739,1.739,0,0,1,1.593.092.121.121,0,0,0,.074.025" transform="translate(-535.517 -687.466)" fill="#c16256"/>
      <path id="Trazado_209190" data-name="Trazado 209190" d="M596.121,920.623c1.511,1.419,10.723,7.563,9.9-.3a9.68,9.68,0,0,0-1.812-.307c.043.173.756,4.439-5.921.218a6.97,6.97,0,0,0-2.167.387" transform="translate(-492.229 -759.679)" fill="#d1a68f"/>
      <path id="Trazado_209191" data-name="Trazado 209191" d="M901.284,928.181c.755.322-.726,2.108-.747,2.871a12.791,12.791,0,0,0,2.647-1.286q1.925-1.878,3.649-3.945a.476.476,0,0,1,.763.563c-.951,1.47-1.97,2.9-3.057,4.277l.018.02a40.967,40.967,0,0,0,4.331-3.116.923.923,0,0,1,.6-.222c1.9.035-3.77,4.293-4.224,4.681l.008.011a23.443,23.443,0,0,0,4.417-2.446.923.923,0,0,1,.7-.165c1.687.325-4.236,4.044-4.825,4.275,0,.007,0,.014,0,.021a23.346,23.346,0,0,0,3.743-1.355.928.928,0,0,1,.627-.057c1.705.475-3.829,2.947-4.4,3.124a15.507,15.507,0,0,1-6.1,2.368c-1.037.159-2.494-2.382-2.007-3.654a20.959,20.959,0,0,1,1.553-2.732c.326-.753,1.344-3.522,2.3-3.233" transform="translate(-740.948 -764.329)" fill="#f99370"/>
      <path id="Trazado_209192" data-name="Trazado 209192" d="M661.692,958.735s22.219,18.118,22.194,18.135l-19.153,23.462c-7.587,9.955-24.727,5.006-25.539-7.418a14.289,14.289,0,0,1,3.157-10.508s19.325-23.7,19.341-23.671" transform="translate(-527.735 -791.647)" fill="#ff9d00"/>
      <path id="Trazado_209193" data-name="Trazado 209193" d="M808.2,795.695a14.338,14.338,0,0,1,1.954,20.1l-19.323,23.669c-.024.025-22.22-18.116-22.212-18.133,9.529-9.137,22.823-38.868,39.581-25.639" transform="translate(-634.666 -654.264)" fill="#fff"/>
      <path id="Trazado_209194" data-name="Trazado 209194" d="M674.6,1066.732c.517.638-1.628,1.523-2,2.188a12.789,12.789,0,0,0,2.941.1c1.72-.506,3.409-1.1,5.071-1.779a.476.476,0,0,1,.41.855c-1.528.854-3.1,1.643-4.7,2.349l.006.026a40.977,40.977,0,0,0,5.285-.727.921.921,0,0,1,.636.086c1.667.923-5.341,2.03-5.923,2.16l0,.013a23.448,23.448,0,0,0,5.048-.095.923.923,0,0,1,.7.182c1.339,1.077-5.635,1.592-6.265,1.52l-.009.019a23.325,23.325,0,0,0,3.943.554.927.927,0,0,1,.58.244c1.285,1.218-4.763.813-5.348.7a10.727,10.727,0,0,1-5.992-.287c-.992-.345-1.434-4.938-.429-5.169a13.917,13.917,0,0,0,2.512-1.162c.64-.513,2.836-2.484,3.544-1.782" transform="translate(-551.562 -880.699)" fill="#f99370"/>
      <path id="Trazado_209195" data-name="Trazado 209195" d="M507.887,958.88q1.072-.355,2.184-.765c.122-.64.871-3.656-.429-5.169-31.045-1.356-7.357-12.045-14.855-27.731-22.264,1.468-33.427,46.722,13.1,33.664" transform="translate(-392.659 -763.97)" fill="#fff"/>
      <path id="Trazado_209196" data-name="Trazado 209196" d="M661.162,1089.839q1.073-.355,2.185-.765c.122-.64.871-3.656-.429-5.169,0,0-.85-.09-1.756-.09a6.942,6.942,0,0,1,0,6.023" transform="translate(-545.935 -894.929)" fill="#d1e0f2"/>
      <path id="Trazado_209197" data-name="Trazado 209197" d="M2079.534,1316.717h-33.526v-49.346a12.916,12.916,0,0,1,12.915-12.916h7.695a12.916,12.916,0,0,1,12.916,12.916Z" transform="translate(-1689.43 -1035.83)" fill="#23659b"/>
      <path id="Trazado_209198" data-name="Trazado 209198" d="M2079.534,1586.541c0,2.933-7.505,5.311-16.763,5.311s-16.763-2.378-16.763-5.311,7.505-5.311,16.763-5.311,16.763,2.378,16.763,5.311" transform="translate(-1689.43 -1305.654)" fill="#23659b"/>
      <rect id="Rectángulo_49971" data-name="Rectángulo 49971" width="19.173" height="6.457" transform="translate(363.755 213.512)" fill="#23659b"/>
      <path id="Trazado_209199" data-name="Trazado 209199" d="M2059.817,1424.138v29c0,2.933,6.427,5.311,14.356,5.311s14.356-2.378,14.356-5.311v-29Z" transform="translate(-1700.832 -1175.94)" fill="#ff9d00"/>
      <path id="Trazado_209200" data-name="Trazado 209200" d="M2088.529,1398.975c0,2.933-6.427,5.311-14.356,5.311s-14.356-2.378-14.356-5.311,6.428-5.311,14.356-5.311,14.356,2.378,14.356,5.311" transform="translate(-1700.831 -1150.777)" fill="#f39200"/>
      <path id="Trazado_209201" data-name="Trazado 209201" d="M2123.3,1279.444c0,2.337,1.474,4.232,3.292,4.232s3.292-1.895,3.292-4.232v-28.678c0-.561-6.583-.561-6.583,0Z" transform="translate(-1753.255 -1032.436)" fill="#ff9d00"/>
      <path id="Trazado_209202" data-name="Trazado 209202" d="M2066.483,1176.5v11.7c0,1.487,5.907,2.693,13.194,2.693s13.195-1.206,13.195-2.693v-11.7Z" transform="translate(-1706.336 -971.458)" fill="#3a72aa"/>
      <path id="Trazado_209203" data-name="Trazado 209203" d="M2092.872,1163.738c0,1.487-5.907,2.693-13.195,2.693s-13.195-1.206-13.195-2.693,5.907-2.693,13.195-2.693,13.195,1.206,13.195,2.693" transform="translate(-1706.336 -958.699)" fill="#23659b"/>
      <path id="Trazado_209204" data-name="Trazado 209204" d="M2126.371,1057.168a4.232,4.232,0,0,0-8.464,0v17.3c0,.561,1.9,1.016,4.232,1.016s4.232-.455,4.232-1.016Z" transform="translate(-1748.798 -869.431)" fill="#617ac9"/>
    </g>
  </g>
</svg>
