<svg xmlns="http://www.w3.org/2000/svg" xmlns:xlink="http://www.w3.org/1999/xlink" width="610" height="451.467" viewBox="0 0 610 451.467">
  <defs>
    <clipPath id="clip-path">
      <path id="Trazado_209312" data-name="Trazado 209312" d="M0,0H610V451.467H0Z" fill="none"/>
    </clipPath>
    <clipPath id="clip-path-2">
      <rect id="Rectángulo_49996" data-name="Rectángulo 49996" width="610.001" height="454.526" fill="none"/>
    </clipPath>
    <clipPath id="clip-path-3">
      <rect id="Rectángulo_49987" data-name="Rectángulo 49987" width="66.618" height="129.989" fill="none"/>
    </clipPath>
    <clipPath id="clip-path-4">
      <rect id="Rectángulo_49988" data-name="Rectángulo 49988" width="26.475" height="129.98" fill="none"/>
    </clipPath>
    <clipPath id="clip-path-5">
      <rect id="Rectángulo_49989" data-name="Rectángulo 49989" width="34.293" height="2.259" fill="none"/>
    </clipPath>
    <clipPath id="clip-path-6">
      <rect id="Rectángulo_49990" data-name="Rectángulo 49990" width="69.283" height="98.305" fill="none"/>
    </clipPath>
    <clipPath id="clip-path-7">
      <rect id="Rectángulo_49993" data-name="Rectángulo 49993" width="48.558" height="134.553" fill="none"/>
    </clipPath>
    <clipPath id="clip-path-8">
      <rect id="Rectángulo_49994" data-name="Rectángulo 49994" width="37.768" height="2.488" fill="none"/>
    </clipPath>
    <clipPath id="clip-path-9">
      <rect id="Rectángulo_49995" data-name="Rectángulo 49995" width="36.167" height="19.485" fill="none"/>
    </clipPath>
  </defs>
  <g id="Grupo_172723" data-name="Grupo 172723" transform="translate(0 108.841)">
    <g id="Enmascarar_grupo_108" data-name="Enmascarar grupo 108" transform="translate(0 -108.841)" clip-path="url(#clip-path)">
      <g id="Grupo_172721" data-name="Grupo 172721" transform="translate(0 0.079)">
        <g id="Enmascarar_grupo_172720" data-name="Enmascarar grupo 172720" clip-path="url(#clip-path-2)">
          <path id="Trazado_209205" data-name="Trazado 209205" d="M130.493,414.249S47.743,218.627,225.728,182.258c111.056-22.692,108.153-101.586,265.3-96.2,160.923,5.515,97.551,157.55,118.431,192.327s74.463,48.728,55.032,135.864Z" transform="translate(-88.418 37.138)" fill="#ebf3fa"/>
          <path id="Trazado_209206" data-name="Trazado 209206" d="M1717.126,278.242c-5.71-12.874-27.734-5.18-27.734-5.18s-11.769,25.884-16.161,27.134,5.741-24.1,5.741-24.1c-8.806.5-29.277,14.543-29.277,14.543s5.628,27.213,1.064,27.344-3.754-24.35-3.754-24.35c-8.008,3.814-14.335,14.818-14.335,14.818-7.336,17.464,15.468,25.983,15.468,25.983a45.179,45.179,0,0,1-2.448,21.295h0a32.765,32.765,0,0,0-1.836,5.853l2.289-.353q.138-.964.347-1.873a.012.012,0,0,1,0-.011c0-.009,0-.017.006-.026.1-.378.25-.916.436-1.573v0s0,0,0,0c.488-1.477.8-2.561.991-3.337a.021.021,0,0,0,0-.007c1.433-4.621,3.588-10.686,5.421-12.171a4.488,4.488,0,0,1-.652-.974l.652.974c5.213,7.792,25.021,6.171,35.591,2.249s5.338-6.267-1.311-10.358-18.76-.875-22.7-2.273,1.075-4.178,8.438-4.74,12.124,6.154,24.052,5.461,17.475-24.185,17.475-24.185c-7.728,3.771-22.973,1.536-23.964-1.176s20.6-5.756,23.832-7.113,8.071-8.981,2.361-21.855" transform="translate(-1296.067 -109.841)" fill="#dfebfd"/>
          <path id="Trazado_209207" data-name="Trazado 209207" d="M1760.285,861.241c20.485-12.235,3.043-47.7,3.043-47.7s-45.942-14.5-48.942-21.635,41.7,4.73,41.7,4.73c-2.638-14.709-30.445-46.27-30.445-46.27s-44.621,15.03-45.774,7.38,40.188-11.292,40.188-11.292c-8.051-12.69-27.853-21.081-27.853-21.081-30.873-8.769-40.54,31.327-40.54,31.327s-15.576,4.875-36.317.237h0a55.526,55.526,0,0,0-10.221-1.891l1.062,3.778c1.1.024,2.175.089,3.221.2a.022.022,0,0,1,.019,0l.046.005c.656.095,1.591.233,2.734.413h0s0,0,.005,0c2.584.519,4.472.83,5.816.985h.013c8.064,1.466,18.706,3.851,21.578,6.63a7.605,7.605,0,0,1,1.506-1.3l-1.506,1.3c-12.041,10.361-5.264,43.345,3.493,60.322s11.632,7.7,17.153-4.321-2.364-31.732-.818-38.646,7.246.954,9.7,13.224-7.872,21.65-4.268,41.57,44.25,24.448,44.25,24.448c-7.922-12.228-7.281-38.325-2.921-40.547s13.892,33.477,16.836,38.63,16.755,11.739,37.241-.5" transform="translate(-1275.337 -470.032)" fill="#dfebfd"/>
          <path id="Trazado_209209" data-name="Trazado 209209" d="M1857.43,790.215c-.038-.09-.084-.186-.138-.287-.182-.706-1.767-4.451-1.942-4.862-.5-1.166-1.313-.546-1.313.325,0,.269.115,2.192.048,2.47a13.1,13.1,0,0,0-5.646-3s-2.648-.87-1.375,1.8c.851,1.783,1.865,2.007,3.105,4.5s3.531,4.209,5.581,4.053l2.2.745,2.225-3.29-1.431-.884a3.371,3.371,0,0,1-1.315-1.566" transform="translate(-1467.293 -517.953)" fill="#ffb27d"/>
          <rect id="Rectángulo_49973" data-name="Rectángulo 49973" width="229.35" height="330.04" transform="translate(208.742 0)" fill="#f6f6f6"/>
          <rect id="Rectángulo_49974" data-name="Rectángulo 49974" width="104.54" height="5.428" transform="translate(267.558 29.719)" fill="#f99746"/>
          <rect id="Rectángulo_49975" data-name="Rectángulo 49975" width="52.27" height="5.428" transform="translate(254.047 42.316)" fill="#f99746"/>
          <rect id="Rectángulo_49976" data-name="Rectángulo 49976" width="76.717" height="5.428" transform="translate(312.622 42.316)" fill="#f99746"/>
          <rect id="Rectángulo_49977" data-name="Rectángulo 49977" width="112.787" height="4.132" transform="translate(259.67 164.581)" fill="#aec3ff"/>
          <rect id="Rectángulo_49978" data-name="Rectángulo 49978" width="79.865" height="4.132" transform="translate(319.145 153.554)" fill="#aec3ff"/>
          <rect id="Rectángulo_49979" data-name="Rectángulo 49979" width="77.8" height="4.132" transform="translate(233.117 153.554)" fill="#aec3ff"/>
          <rect id="Rectángulo_49980" data-name="Rectángulo 49980" width="68.706" height="4.132" transform="translate(322.483 142.528)" fill="#aec3ff"/>
          <rect id="Rectángulo_49981" data-name="Rectángulo 49981" width="68.706" height="4.132" transform="translate(240.937 142.528)" fill="#aec3ff"/>
          <path id="Trazado_209210" data-name="Trazado 209210" d="M1650.328,747.272h-33.165a2.736,2.736,0,1,1,0-5.472h33.165a2.736,2.736,0,1,1,0,5.472" transform="translate(-1315.858 -541.932)" fill="#a8c3f7"/>
          <path id="Trazado_209211" data-name="Trazado 209211" d="M1822.039,747.272h-33.165a2.736,2.736,0,1,1,0-5.472h33.165a2.736,2.736,0,1,1,0,5.472" transform="translate(-1441.305 -541.932)" fill="#a8c3f7"/>
          <path id="Trazado_209212" data-name="Trazado 209212" d="M1688.025,869.763a29.878,29.878,0,1,1,29.877-29.878,29.912,29.912,0,0,1-29.877,29.878m0-58.249a28.371,28.371,0,1,0,28.371,28.371,28.4,28.4,0,0,0-28.371-28.371" transform="translate(-1347.799 -591.761)" fill="#a8c3f7"/>
          <path id="Trazado_209213" data-name="Trazado 209213" d="M1703.761,879.695a24.074,24.074,0,1,1,24.075-24.075,24.1,24.1,0,0,1-24.075,24.075m0-46.642a22.568,22.568,0,1,0,22.568,22.568,22.593,22.593,0,0,0-22.568-22.568" transform="translate(-1363.535 -607.497)" fill="#a8c3f7"/>
          <path id="Trazado_209214" data-name="Trazado 209214" d="M1731.233,900.971a23.192,23.192,0,0,1-8.578,1.343c-3.657-.3-5.716-2.22-5.8-5.4a8.143,8.143,0,0,1,3.03-6.513c-.02-.172-.036-.344-.049-.516-.135-1.776.245-2.956,1.127-3.506,1.428-.891,3.549.327,3.639.379l-.474.812c-.475-.277-1.887-.886-2.668-.394-.673.422-.754,1.584-.7,2.528a19.954,19.954,0,0,1,6.5-2.909,34.888,34.888,0,0,1,6.126-1.046c.011-.221.029-.419.053-.581.064-.436.216-.946.644-1.048a.706.706,0,0,1,.758.4,2.263,2.263,0,0,1,.288,1.141c.681-.016,1.314,0,1.874.037l.015-.036a10.743,10.743,0,0,1,.145-3.271c.237-1.087.627-1.637,1.174-1.691a.719.719,0,0,1,.745.461c.306.737-.268,2.729-1.1,4.64a.089.089,0,0,0,0,.01c.778.132,1.307.347,1.474.648a.7.7,0,0,1-.19.881,1.109,1.109,0,0,1-1.373.295,1.345,1.345,0,0,1-.5-.576,9.834,9.834,0,0,1-1.851,2.756.925.925,0,0,1-1.093.159,1.029,1.029,0,0,1-.238-.19,12.843,12.843,0,0,1-.715,1.48c-.982,1.725-2.089,2.612-3.2,2.559a1.809,1.809,0,0,1-1.2-.531,17.379,17.379,0,0,1-2.154,3.543,2.521,2.521,0,0,1-2.805.995c-1.822-.569-3.47-3.2-4.087-6.328a7.043,7.043,0,0,0-2.262,5.393c.07,2.708,1.731,4.216,4.937,4.483,8.091.674,22.277-6.849,23.353-12.384-.875,4.5-7.606,9.629-14.853,11.977m-10.35-10.19c.493,3.294,2.142,5.714,3.542,6.152a1.6,1.6,0,0,0,1.8-.689,16.173,16.173,0,0,0,2.262-3.866,5.721,5.721,0,0,1-.391-1.226,8.827,8.827,0,0,1,0-3.6,23.757,23.757,0,0,0-4.429,1.542,14.529,14.529,0,0,0-2.784,1.686m8.637,1.541a1.079,1.079,0,0,0,.826.562c.711.03,1.566-.728,2.341-2.086a12.4,12.4,0,0,0,.969-2.189,9.282,9.282,0,0,1-.264-1.909c-1.041.083-2.176.224-3.345.436.609,1.186.257,3.189-.528,5.186m5.117-3.7c.146.442.277.527.279.528a8.8,8.8,0,0,0,1.67-2.54c-.446-.017-.948-.019-1.5,0a11.475,11.475,0,0,1-.453,2.018m-5.513-1.207a7.187,7.187,0,0,0-.12,3.512c.471-1.556.568-2.9.12-3.512m9.247-.6s0,0,.005,0l-.005,0m-.138-4.819a5.8,5.8,0,0,0-.223.983,7.3,7.3,0,0,0,.223-.983" transform="translate(-1390.688 -643.404)" fill="#a8c3f7"/>
          <rect id="Rectángulo_49982" data-name="Rectángulo 49982" width="125.938" height="4.132" transform="translate(253.094 114.379)" fill="#aec3ff"/>
          <rect id="Rectángulo_49983" data-name="Rectángulo 49983" width="89.176" height="4.132" transform="translate(319.505 103.353)" fill="#aec3ff"/>
          <rect id="Rectángulo_49984" data-name="Rectángulo 49984" width="86.872" height="4.132" transform="translate(223.445 103.353)" fill="#aec3ff"/>
          <rect id="Rectángulo_49985" data-name="Rectángulo 49985" width="76.717" height="4.132" transform="translate(323.231 92.327)" fill="#aec3ff"/>
          <rect id="Rectángulo_49986" data-name="Rectángulo 49986" width="76.717" height="4.132" transform="translate(232.178 92.327)" fill="#aec3ff"/>
          <path id="Trazado_209215" data-name="Trazado 209215" d="M2215.064,424.129s14.7,56.325-30,46.963c-12.069-2.528-44.223-34.57-44.223-34.57s3.094-4.882,6.9-4.364c0,0,31.065,10.1,36.033,13.758,2.752,2.025,5.894-29.886,15.409-29.431s15.878,7.645,15.878,7.645" transform="translate(-1700.985 -225.604)" fill="#91cecf"/>
          <path id="Trazado_209216" data-name="Trazado 209216" d="M2474.3,1596.452s-.821,13.248-3.384,13.438c-.341.025-13,.025-13,.025l-16.159-.094s.105-3.894,4.829-4.717,12.629-4.142,15.491-10.385c3.01-6.568,12.223,1.733,12.223,1.733" transform="translate(-1940.076 -1159.754)" fill="#163560"/>
          <path id="Trazado_209217" data-name="Trazado 209217" d="M2392.678,984.93a33.69,33.69,0,0,1-8.748,1.643,32.108,32.108,0,0,1-8.166-1.166s-.925-8.944-6.014-28.649c-2.669-10.329-6.479-23.609-11.9-40.112-14.989-45.607-19.547-72.288-19.963-74.815-.022-.133-.031-.2-.031-.2l.049-.022,46.081-20.233s-5.7,62.858,1.571,86.985a101.708,101.708,0,0,1,2.638,11.559c4.589,26.207,4.483,65.008,4.483,65.008" transform="translate(-1857.523 -547.312)" fill="#7e5ee3"/>
          <path id="Trazado_209218" data-name="Trazado 209218" d="M2388.315,919.922l-18.445,36.837c-2.668-10.329-6.479-23.609-11.9-40.112-14.989-45.608-19.547-72.288-19.963-74.815,0-.076.009-.146.018-.221l46.081-20.233s-5.7,62.857,1.571,86.985a101.71,101.71,0,0,1,2.637,11.559" transform="translate(-1857.642 -547.312)" fill="#7e5ee3"/>
          <path id="Trazado_209219" data-name="Trazado 209219" d="M2299.121,1596.452s-.821,13.248-3.384,13.438c-.341.025-13,.025-13,.025l-16.159-.094s.106-3.894,4.829-4.717,12.629-4.142,15.491-10.385c3.01-6.568,12.223,1.733,12.223,1.733" transform="translate(-1800.889 -1159.754)" fill="#163560"/>
          <path id="Trazado_209220" data-name="Trazado 209220" d="M2297.76,828.586a656.031,656.031,0,0,0,6.449,90.745c7.048,50.012,4.659,71.242,4.659,71.242a48.03,48.03,0,0,0,6.8,1.728,30.837,30.837,0,0,0,10.083-1.167s10.087-50.031,7.195-75.063,13.813-85.9,13.813-85.9Z" transform="translate(-1825.654 -553.039)" fill="#7e5ee3"/>
          <path id="Trazado_209221" data-name="Trazado 209221" d="M2378.836,280.87l-8.081,7.1-13.208-.582c.031-1.064.273-5.49.5-9.5.014-.237.029-.473.041-.7.194-3.412.364-6.344.364-6.344l11.271-7,4.2-2.61c0,.072.173,3.732.2,4.266a30.95,30.95,0,0,0,4.714,15.378" transform="translate(-1873.168 -102.249)" fill="#ffb27d"/>
          <path id="Trazado_209222" data-name="Trazado 209222" d="M2284.665,448.517c.185,21.5,1.618,71.795,2.673,72.818,11.2,10.809,60.453-2.964,63.065-14.872s-9.925-152.691-29.051-158.313c-3.968-1.164-25.188,5.695-25.188,5.695a134.611,134.611,0,0,0-5.51,19.8c-.809,4.11-3.449,33.433-4.991,53.028-.406,5.223-.74,9.754-.936,12.931-.08,1.313-.1,4.512-.062,8.916" transform="translate(-1815.246 -171.207)" fill="#6bcfc6"/>
          <path id="Trazado_209223" data-name="Trazado 209223" d="M2375.164,275.3c-2.008,4.844-11.3,10.1-15.2,12.1.014-.237.029-.473.041-.7.194-3.412.364-6.344.364-6.344l11.271-7c2.652-.411,4.353-.045,3.524,1.949" transform="translate(-1875.088 -111.761)" fill="#fca56b"/>
          <path id="Trazado_209224" data-name="Trazado 209224" d="M2321.609,178.878s20.395,1.9,21.38-10.823,4.281-21.041-8.7-22.789-15.889,2.909-17.251,7.074-.711,25.717,4.57,26.538" transform="translate(-1840.495 -9.813)" fill="#ffb27d"/>
          <path id="Trazado_209225" data-name="Trazado 209225" d="M2310.553,123.646s4.183,13.667,6.935,12.449,5.268-2.221,5.74,2.066-2.49,9.985,6.544,8.839,16.923-26.752,13.562-30.567c-9.7-11.008-46.195-5.879-32.78,7.212" transform="translate(-1833.503 17.568)" fill="#12263f"/>
          <path id="Trazado_209226" data-name="Trazado 209226" d="M2345.907,326.954c.252-.106,14.556-6.523,16.229-5.97s3.758,5.662,3.758,5.662l-25.187,5.694s1.982-4.03,5.2-5.385" transform="translate(-1859.787 -149.702)" fill="#91cecf"/>
          <path id="Trazado_209227" data-name="Trazado 209227" d="M2284.65,635.079c38.325-27.714,41.306-71.642,41.306-71.642-18.234,10.287-35.55,27.291-41.169,45.982-.406,5.223.121,13.566-.075,16.744-.08,1.313-.1,4.513-.062,8.916" transform="translate(-1815.231 -342.368)" fill="#91cecf"/>
          <path id="Trazado_209228" data-name="Trazado 209228" d="M2110.54,832.175a3.022,3.022,0,0,0-1.554-.47,21.978,21.978,0,0,1-3.952-1.85c-1.4-1.272-1.892.082-.915,1.432.212.293.971.791,1.235,1.07a29.182,29.182,0,0,0-8.536,5.62s-2.912,2.348,1.022,2.86c2.63.342,3.622-.637,7.335-.214s7.316-.907,8.636-3.33l2.443-1.935-2.083-4.906Z" transform="translate(-1665.184 -553.643)" fill="#ffb27d"/>
          <path id="Trazado_209229" data-name="Trazado 209229" d="M2226.858,381.313s40.365-1.938,3.862,65.975c-5.838,10.862-47.554,34.463-47.554,34.463s-3.921-4.247-2.44-7.794c0,0,27.165-30.915,30.805-32.172,3.229-1.116,2.563-38.757,5.451-47.834a22.235,22.235,0,0,1,9.875-12.637" transform="translate(-1732.411 -197.658)" fill="#6bcfc6"/>
          <g id="Grupo_172701" data-name="Grupo 172701" transform="translate(391.03 319.455)" opacity="0.5">
            <g id="Grupo_172700" data-name="Grupo 172700">
              <g id="Grupo_172699" data-name="Grupo 172699" clip-path="url(#clip-path-3)">
                <path id="Trazado_209230" data-name="Trazado 209230" d="M1958.857,1172.284l-29.262-.009-15.478,0a10.957,10.957,0,0,1-10.919-10.93l.034-108.127a10.95,10.95,0,0,1,10.924-10.919l13.727,0,31.013.009a10.953,10.953,0,0,1,10.919,10.927l-.031,108.128a10.958,10.958,0,0,1-10.927,10.921" transform="translate(-1903.198 -1042.295)" fill="#c0d8fb"/>
              </g>
            </g>
          </g>
          <path id="Trazado_209231" data-name="Trazado 209231" d="M1974.9,1355.662l-.776-5.691-.777-5.693a5.35,5.35,0,0,0-6-4.562c-.161.022-.318.054-.473.089a5.283,5.283,0,0,0,.917-2.52,5.329,5.329,0,0,0,10.1-3.289l-1.337-5.586-1.337-5.588a5.332,5.332,0,1,0-10.372,2.481l2.014,8.418a5.277,5.277,0,0,0-4.206-2.265,14.607,14.607,0,0,0-1.108-11.246l-8.856-7.32a5.33,5.33,0,0,0-7.267,7.773,5.276,5.276,0,0,0-1.42.183l-5.542,1.516h0l-5.54,1.516a5.342,5.342,0,0,0-3.769,3.885l-.582-1.393-2.214-5.3a5.332,5.332,0,0,0-9.841,4.11l2.214,5.3,1.419,3.4a5.345,5.345,0,0,0-3.369,4.683l-.29,5.736-.29,5.739a5.312,5.312,0,0,0,6.856,5.369,5.376,5.376,0,0,0-.423,3.6,5.3,5.3,0,0,0-2.261,2.568l-2.194,5.308-2.194,5.31a19.306,19.306,0,0,1,10.5,7.786,5.346,5.346,0,0,0,7.475-.993l3.491-4.561,3.493-4.562a3.48,3.48,0,0,1,4.5-2.939l.915-.631-1.267,1.655-3.491,4.561a5.332,5.332,0,0,0,8.469,6.482l3.491-4.561,3.492-4.563c.045-.059.083-.121.124-.181a5.32,5.32,0,0,0,1.022,1.2l-1.243,1.624a5.332,5.332,0,0,0,8.468,6.482l6.984-9.124a5.313,5.313,0,0,0-2.267-8.191c.065-.006.129-.008.194-.016a5.346,5.346,0,0,0,4.563-6m-48.052-5.089.1-1.957a5.114,5.114,0,0,0,1.986,1.928l-2.443,1.685a5.275,5.275,0,0,0,.358-1.656m35.932-4.854,1.044,7.654a5.347,5.347,0,0,0-5.536-2.934,5.272,5.272,0,0,0,1.452-1.3l3-3.916c.007.165.019.33.042.5m-12.128-20.676,1.344,1.111-1.383.954a5.271,5.271,0,0,0,.039-2.064m1.159,16.909a1.437,1.437,0,0,1,.2-2.856l4.2-2.9Zm3.488,9.978a5.37,5.37,0,0,0-4.02-1.213l.114-1.436a2.738,2.738,0,1,1,3.906,2.649m-10.742-20.181a5.346,5.346,0,0,0,.04,5.985c.023.034.05.063.074.1a1.171,1.171,0,1,1-.886-1.764,5.313,5.313,0,0,0-2.037-3.533l-.016-.011Zm-5.308,12.822,2.057-2.687c-.029.166-.052.334-.066.505l-.39,4.933a5.336,5.336,0,0,0-2.708-1.3Zm-9.628,22.538.6-1.461a5.287,5.287,0,0,0,.256-3.243c.122-.071.244-.142.362-.223l9.458-6.523c.061-.042.116-.09.174-.133a5.324,5.324,0,0,0,.6,1.459l-1.684,1.161a8.057,8.057,0,0,1-6.917,5.236Zm25.089-6.573.3,1.233a5.286,5.286,0,0,0-1.477-.418Zm11.264,1.245-.411-1.718-.078-.327a1.352,1.352,0,1,1,.489,2.045m-32.3-27.472-2.894,3.78-3.491,4.561c-.016.021-.029.043-.044.064l.183-3.616c0-.093,0-.184,0-.276.164-.051.328-.108.489-.176a3.656,3.656,0,0,1,5.757-4.338" transform="translate(-1522.004 -936.873)" fill="#afcdfb"/>
          <g id="Grupo_172704" data-name="Grupo 172704" transform="translate(391.03 319.455)" opacity="0.5">
            <g id="Grupo_172703" data-name="Grupo 172703">
              <g id="Grupo_172702" data-name="Grupo 172702" clip-path="url(#clip-path-4)">
                <path id="Trazado_209232" data-name="Trazado 209232" d="M1929.595,1172.275l-15.478,0a10.957,10.957,0,0,1-10.919-10.93l.034-108.127a10.95,10.95,0,0,1,10.924-10.919l13.727,0a13.387,13.387,0,0,1,1.791,6.754l-.036,122.13q0,.552-.044,1.091" transform="translate(-1903.198 -1042.295)" fill="#afcdfb"/>
              </g>
            </g>
          </g>
          <path id="Trazado_209233" data-name="Trazado 209233" d="M1963.8,1011.285l-41.559-.013-23.587-.009a2.126,2.126,0,0,1-2.123-2.125l0-10.182a2.129,2.129,0,0,1,2.125-2.123l23.554.007h0l41.588.012a2.13,2.13,0,0,1,2.123,2.125l0,10.182a2.13,2.13,0,0,1-2.125,2.125" transform="translate(-1506.874 -686.719)" fill="#f99746"/>
          <path id="Trazado_209234" data-name="Trazado 209234" d="M1922.245,1011.272l-23.587-.009a2.126,2.126,0,0,1-2.123-2.125l0-10.182a2.13,2.13,0,0,1,2.125-2.123l23.554.007h0a2.13,2.13,0,0,1,2.118,2.124l0,10.182a2.131,2.131,0,0,1-2.092,2.125" transform="translate(-1506.874 -686.718)" fill="#ef7e29"/>
          <path id="Trazado_209235" data-name="Trazado 209235" d="M2782.77,1615.766a7.188,7.188,0,0,1-7.163,7.163h-33.824a7.162,7.162,0,0,1,0-14.324h33.824a7.184,7.184,0,0,1,7.163,7.161" transform="translate(-2172.769 -1172.796)" fill="#ef7e29"/>
          <path id="Trazado_209236" data-name="Trazado 209236" d="M2765.321,1615.766a7.184,7.184,0,0,1-7.161,7.163h-16.378a7.162,7.162,0,0,1,0-14.324h16.378a7.182,7.182,0,0,1,7.161,7.161" transform="translate(-2172.768 -1172.796)" fill="#f99746"/>
          <g id="Grupo_172707" data-name="Grupo 172707" transform="translate(570.133 437.397)" opacity="0.5">
            <g id="Grupo_172706" data-name="Grupo 172706">
              <g id="Grupo_172705" data-name="Grupo 172705" clip-path="url(#clip-path-5)">
                <path id="Trazado_209237" data-name="Trazado 209237" d="M2808.2,1618.594h-32.263a1.018,1.018,0,0,1-1.015-1.015v-.229a1.018,1.018,0,0,1,1.015-1.015H2808.2a1.018,1.018,0,0,1,1.015,1.015v.229a1.018,1.018,0,0,1-1.015,1.015" transform="translate(-2774.919 -1616.335)" fill="#ffe2cc"/>
              </g>
            </g>
          </g>
          <path id="Trazado_209238" data-name="Trazado 209238" d="M1147.885,685.78V786.633a11.286,11.286,0,0,1-11.254,11.254h-59.945a11.126,11.126,0,0,1-4.517-.953,11.292,11.292,0,0,1-6.737-10.3V685.78a11.287,11.287,0,0,1,11.254-11.254h59.945a11.285,11.285,0,0,1,11.254,11.254" transform="translate(-846.53 -452.114)" fill="#fcecdb"/>
          <path id="Trazado_209239" data-name="Trazado 209239" d="M1306.764,767.38a12.25,12.25,0,1,1,15.774-7.162,12.249,12.249,0,0,1-15.774,7.162" transform="translate(-1031.963 -485.561)" fill="#f7e0cb"/>
          <path id="Trazado_209240" data-name="Trazado 209240" d="M1325.575,760.218l-22.936-8.612a12.25,12.25,0,1,1,22.936,8.612" transform="translate(-1035 -510.704)" fill="#efcbab"/>
          <path id="Trazado_209241" data-name="Trazado 209241" d="M1118.6,765.413a12.25,12.25,0,1,1,17.236-1.743,12.249,12.249,0,0,1-17.236,1.743" transform="translate(-885.193 -485.573)" fill="#f7e0cb"/>
          <path id="Trazado_209242" data-name="Trazado 209242" d="M1146.512,763.669l-18.979-15.493a12.25,12.25,0,1,1,18.979,15.493" transform="translate(-895.871 -510.714)" fill="#efcbab"/>
          <path id="Trazado_209243" data-name="Trazado 209243" d="M1306.764,1131.082a12.25,12.25,0,1,1,15.774-7.162,12.249,12.249,0,0,1-15.774,7.162" transform="translate(-1031.963 -774.537)" fill="#f7e0cb"/>
          <path id="Trazado_209244" data-name="Trazado 209244" d="M1325.575,1127.971l-22.936-8.612a12.25,12.25,0,1,1,22.936,8.612" transform="translate(-1035 -777.756)" fill="#efcbab"/>
          <path id="Trazado_209245" data-name="Trazado 209245" d="M1118.6,1129.113a12.25,12.25,0,1,1,17.236-1.743,12.249,12.249,0,0,1-17.236,1.743" transform="translate(-885.193 -774.547)" fill="#f7e0cb"/>
          <path id="Trazado_209246" data-name="Trazado 209246" d="M1146.512,1131.423l-18.979-15.493a12.25,12.25,0,0,1,18.979,15.493" transform="translate(-895.871 -777.767)" fill="#efcbab"/>
          <path id="Trazado_209247" data-name="Trazado 209247" d="M1316.318,955.606a12.25,12.25,0,1,1,5.823-16.316,12.249,12.249,0,0,1-5.823,16.316" transform="translate(-1031.965 -635.432)" fill="#f7e0cb"/>
          <path id="Trazado_209248" data-name="Trazado 209248" d="M1322.141,939.29,1300,949.782a12.25,12.25,0,1,1,22.139-10.492" transform="translate(-1031.965 -635.431)" fill="#efcbab"/>
          <path id="Trazado_209249" data-name="Trazado 209249" d="M1114.963,939.982a12.25,12.25,0,1,1,6.821,15.924,12.249,12.249,0,0,1-6.821-15.924" transform="translate(-885.184 -635.429)" fill="#f7e0cb"/>
          <path id="Trazado_209250" data-name="Trazado 209250" d="M1151.564,959.311l9.1-22.745a12.25,12.25,0,1,1-9.1,22.745" transform="translate(-914.965 -638.834)" fill="#efcbab"/>
          <g id="Grupo_172710" data-name="Grupo 172710" transform="translate(232.072 268.949)" opacity="0.5">
            <g id="Grupo_172709" data-name="Grupo 172709">
              <g id="Grupo_172708" data-name="Grupo 172708" clip-path="url(#clip-path-6)">
                <path id="Trazado_209251" data-name="Trazado 209251" d="M1198.812,796.475v87.761a10.453,10.453,0,0,1-10.3,10.543h-54.852a9.976,9.976,0,0,1-4.133-.893V808.624a12.251,12.251,0,0,1,3.773-8.863,11.915,11.915,0,0,1,2.9-2.051,11.534,11.534,0,0,1,5.194-1.235Z" transform="translate(-1129.529 -796.475)" fill="#efcbab"/>
              </g>
            </g>
          </g>
          <path id="Trazado_209252" data-name="Trazado 209252" d="M1139.06,911.34V810.487a11.287,11.287,0,0,1,11.254-11.254h59.945a11.287,11.287,0,0,1,11.254,11.254V911.34a11.287,11.287,0,0,1-11.254,11.254h-59.945a11.287,11.287,0,0,1-11.254-11.254" transform="translate(-905.03 -529.717)" fill="#fcecdb"/>
          <path id="Trazado_209253" data-name="Trazado 209253" d="M1380.391,892.092a12.25,12.25,0,1,1,15.774-7.162,12.249,12.249,0,0,1-15.774,7.162" transform="translate(-1090.463 -584.65)" fill="#f7e0cb"/>
          <path id="Trazado_209254" data-name="Trazado 209254" d="M1399.2,884.93l-22.936-8.612a12.25,12.25,0,1,1,22.936,8.612" transform="translate(-1093.5 -584.65)" fill="#efcbab"/>
          <path id="Trazado_209255" data-name="Trazado 209255" d="M1192.224,890.125a12.25,12.25,0,1,1,17.236-1.743,12.249,12.249,0,0,1-17.236,1.743" transform="translate(-943.692 -584.661)" fill="#f7e0cb"/>
          <path id="Trazado_209256" data-name="Trazado 209256" d="M1220.138,888.382l-18.979-15.493a12.25,12.25,0,1,1,18.979,15.493" transform="translate(-954.37 -584.661)" fill="#efcbab"/>
          <path id="Trazado_209257" data-name="Trazado 209257" d="M1380.391,1255.794a12.25,12.25,0,1,1,15.774-7.161,12.249,12.249,0,0,1-15.774,7.161" transform="translate(-1090.463 -873.626)" fill="#f7e0cb"/>
          <path id="Trazado_209258" data-name="Trazado 209258" d="M1399.2,1252.683l-22.936-8.612a12.25,12.25,0,0,1,22.936,8.612" transform="translate(-1093.5 -876.845)" fill="#efcbab"/>
          <path id="Trazado_209259" data-name="Trazado 209259" d="M1192.224,1253.825a12.25,12.25,0,1,1,17.236-1.743,12.249,12.249,0,0,1-17.236,1.743" transform="translate(-943.692 -873.636)" fill="#f7e0cb"/>
          <path id="Trazado_209260" data-name="Trazado 209260" d="M1220.138,1256.135l-18.979-15.493a12.25,12.25,0,0,1,18.979,15.493" transform="translate(-954.37 -876.856)" fill="#efcbab"/>
          <path id="Trazado_209261" data-name="Trazado 209261" d="M1389.945,1080.318a12.25,12.25,0,1,1,5.823-16.316,12.249,12.249,0,0,1-5.823,16.316" transform="translate(-1090.465 -734.521)" fill="#f7e0cb"/>
          <path id="Trazado_209262" data-name="Trazado 209262" d="M1395.768,1064l-22.139,10.492A12.25,12.25,0,1,1,1395.768,1064" transform="translate(-1090.464 -734.522)" fill="#efcbab"/>
          <path id="Trazado_209263" data-name="Trazado 209263" d="M1188.59,1064.694a12.25,12.25,0,1,1,6.821,15.925,12.249,12.249,0,0,1-6.821-15.925" transform="translate(-943.684 -734.518)" fill="#f7e0cb"/>
          <path id="Trazado_209264" data-name="Trazado 209264" d="M1225.191,1084.024l9.1-22.745a12.25,12.25,0,1,1-9.1,22.745" transform="translate(-973.464 -737.924)" fill="#efcbab"/>
          <rect id="Rectángulo_49991" data-name="Rectángulo 49991" width="94.15" height="140.507" transform="translate(213.054 309.744)" fill="#ef7e29"/>
          <rect id="Rectángulo_49992" data-name="Rectángulo 49992" width="94.15" height="140.508" transform="translate(226.169 309.744)" fill="#f99746"/>
          <path id="Trazado_209265" data-name="Trazado 209265" d="M1050.081,1003.187l-4.512,7.017h-8.6v-15.17h13.113Z" transform="translate(-823.913 -685.289)" fill="#d8661a"/>
          <path id="Trazado_209266" data-name="Trazado 209266" d="M1010.938,1006.1H997.824l8.042-11.069h13.113Z" transform="translate(-792.812 -685.289)" fill="#f99746"/>
          <g id="Grupo_172713" data-name="Grupo 172713" transform="translate(226.169 316.147)" opacity="0.5">
            <g id="Grupo_172712" data-name="Grupo 172712">
              <g id="Grupo_172711" data-name="Grupo 172711" clip-path="url(#clip-path-7)">
                <path id="Trazado_209267" data-name="Trazado 209267" d="M1149.355,1160.748H1100.8V1026.2l48.559,4.666Z" transform="translate(-1100.797 -1026.195)" fill="#efcbab"/>
              </g>
            </g>
          </g>
          <path id="Trazado_209268" data-name="Trazado 209268" d="M1194.947,1006.1l-7.639,4.1h-81.972l-4.538-7.017V995.03Z" transform="translate(-874.628 -685.286)" fill="#ef7e29"/>
          <path id="Trazado_209269" data-name="Trazado 209269" d="M1201.593,1006.1h-94.15l-6.651-11.069h94.15Z" transform="translate(-874.625 -685.289)" fill="#f99746"/>
          <path id="Trazado_209270" data-name="Trazado 209270" d="M511.572,792.355c-2.492-8-13.328-9.5-17.689-2.344a8.885,8.885,0,0,0-1.324,4.461c-.24,9.382,18.263,45.7,20.719,48.909,4.471,5.848,31.46,19.912,31.46,19.912l5.735-.836a42.5,42.5,0,0,1-6.6-5.389c-6.934-6.923-17.043-18.177-18.9-19.736-3.178-2.675-8.676-29.783-13.407-44.975" transform="translate(-391.357 -518.732)" fill="#ed985f"/>
          <path id="Trazado_209271" data-name="Trazado 209271" d="M836.521,1281.821H713.394a13.9,13.9,0,0,1-13.859-13.859v-74.547a13.9,13.9,0,0,1,13.859-13.859H836.521a13.9,13.9,0,0,1,13.859,13.859v74.547a13.9,13.9,0,0,1-13.859,13.859" transform="translate(-555.809 -831.9)" fill="#fcecdb"/>
          <path id="Trazado_209272" data-name="Trazado 209272" d="M813.083,1260.434a14.916,14.916,0,0,1-19.288,8.883,15.257,15.257,0,0,1-8.758-19.564,14.92,14.92,0,0,1,19.289-8.883,15.261,15.261,0,0,1,8.758,19.565" transform="translate(-622.981 -879.842)" fill="#f7e0cb"/>
          <path id="Trazado_209273" data-name="Trazado 209273" d="M804.326,1240.869l-10.531,28.447a15.257,15.257,0,0,1-8.757-19.564,14.919,14.919,0,0,1,19.288-8.883" transform="translate(-622.981 -879.842)" fill="#efcbab"/>
          <path id="Trazado_209274" data-name="Trazado 209274" d="M810.676,1493.844a14.834,14.834,0,0,1-21.076,2.161,15.341,15.341,0,0,1-2.131-21.377,14.837,14.837,0,0,1,21.076-2.161,15.344,15.344,0,0,1,2.131,21.377" transform="translate(-622.994 -1061.909)" fill="#f7e0cb"/>
          <path id="Trazado_209275" data-name="Trazado 209275" d="M808.545,1472.467,789.6,1496.005a15.341,15.341,0,0,1-2.131-21.377,14.837,14.837,0,0,1,21.076-2.161" transform="translate(-622.994 -1061.909)" fill="#efcbab"/>
          <path id="Trazado_209276" data-name="Trazado 209276" d="M1257.815,1260.434a14.916,14.916,0,0,1-19.288,8.883,15.257,15.257,0,0,1-8.758-19.564,14.92,14.92,0,0,1,19.288-8.883,15.26,15.26,0,0,1,8.757,19.565" transform="translate(-976.339 -879.842)" fill="#f7e0cb"/>
          <path id="Trazado_209277" data-name="Trazado 209277" d="M1249.075,1240.869l-10.531,28.447a15.257,15.257,0,0,1-8.757-19.564,14.919,14.919,0,0,1,19.288-8.883" transform="translate(-976.353 -879.842)" fill="#efcbab"/>
          <path id="Trazado_209278" data-name="Trazado 209278" d="M1255.408,1493.84a14.825,14.825,0,0,1-20.4,2.68c-.228-.161-.45-.336-.671-.519a15.34,15.34,0,0,1-2.13-21.377,14.833,14.833,0,0,1,21.075-2.161c.218.182.429.365.636.558a15.348,15.348,0,0,1,1.494,20.819" transform="translate(-976.352 -1061.904)" fill="#f7e0cb"/>
          <path id="Trazado_209279" data-name="Trazado 209279" d="M1253.913,1473.02l-18.91,23.5c-.228-.161-.45-.337-.671-.519a15.34,15.34,0,0,1-2.13-21.377,14.833,14.833,0,0,1,21.075-2.161c.218.182.429.365.636.558" transform="translate(-976.352 -1061.904)" fill="#efcbab"/>
          <path id="Trazado_209280" data-name="Trazado 209280" d="M1043.244,1248.589a15.288,15.288,0,0,1-7.121,20.236,14.887,14.887,0,0,1-19.951-7.223,15.29,15.29,0,0,1,7.121-20.237,14.89,14.89,0,0,1,19.951,7.223" transform="translate(-806.242 -879.845)" fill="#f7e0cb"/>
          <path id="Trazado_209281" data-name="Trazado 209281" d="M1023.294,1247.039l12.83,27.459a14.887,14.887,0,0,1-19.951-7.223,15.291,15.291,0,0,1,7.121-20.236" transform="translate(-806.242 -885.517)" fill="#efcbab"/>
          <path id="Trazado_209282" data-name="Trazado 209282" d="M1024.139,1498.324a15.266,15.266,0,0,1-8.34-19.751,14.908,14.908,0,0,1,19.473-8.46,15.268,15.268,0,0,1,8.34,19.751,14.911,14.911,0,0,1-19.472,8.46" transform="translate(-806.238 -1061.891)" fill="#f7e0cb"/>
          <path id="Trazado_209283" data-name="Trazado 209283" d="M1047.775,1489.863l-27.813-11.291a14.908,14.908,0,0,1,19.472-8.46,15.268,15.268,0,0,1,8.34,19.751" transform="translate(-810.402 -1061.89)" fill="#efcbab"/>
          <path id="Trazado_209284" data-name="Trazado 209284" d="M554.1,595.2c.15-.6-13.092,5.985-13.763,6.729-6.21,6.889-4.439,15.878-.886,15.964,2.279.055,1.837,3.844,1.837,3.844l25.389-10.74s-3.057-17.826-12.577-15.8" transform="translate(-426.056 -367.473)" fill="#12263f"/>
          <path id="Trazado_209285" data-name="Trazado 209285" d="M501.482,564.337s.907-9.891-10.143-9.891a12.978,12.978,0,0,1,5.081,2.725s-7.048-4.138-14.718,2.22-2.9,22.3-5.237,25.332-11.416,3.633-10.305,13.423S494.986,620.2,493.207,628.3c0,0,10.862-15.967,3.1-23.254,0,0,3.786,3.566,4.171,7.8,0,0,1.027-8.276-4.239-10.923-4.66-2.342-8.478-10.909-8.074-12.441s13.322-25.147,13.322-25.147" transform="translate(-370.308 -335.224)" fill="#12263f" stroke="#12263f" stroke-width="1"/>
          <path id="Trazado_209286" data-name="Trazado 209286" d="M245.377,1107.271l-5.494-.807s-18.473-14.68-21.224-42.073a48.945,48.945,0,0,1-.131-8.469,1.483,1.483,0,0,0-.192-.935s0,0-.006-.008c-.591-.906-2.063-3.177-4.055-6.407-1.964-3.181-5.325-9.2-9.023-15.946-6.661-12.155-14.416-26.692-17.076-31.323-8.476-14.757-4.39-24.68-4.39-24.68s23.644-2.337,30.124-8.005l2.333,3.6s5.123,22.68,4.881,22.785q.378,1.157.769,2.355c4.043,12.478,8.694,28.075,11.229,40.777,1.425,7.147,2.18,13.374,1.774,17.617a30.9,30.9,0,0,0,.418,6.453c2.289,16.277,10.064,45.069,10.064,45.069" transform="translate(-145.243 -664.3)" fill="#7e5ee3"/>
          <path id="Trazado_209287" data-name="Trazado 209287" d="M454.332,1627.973H431.41a12.584,12.584,0,0,1,.648-6.144c1.147-2.543,2.782-2.624.209-6.611,1.456,1.5,6.139,2.12,9.452,1.674.406.658,2.618,5.075,3.974,6.049,1.5,1.076,8.177.693,8.639,5.031" transform="translate(-342.673 -1178.051)" fill="#233862"/>
          <path id="Trazado_209288" data-name="Trazado 209288" d="M221.892,997.353c-2,11.043-6.731,29.422-16.64,35.271-6.661-12.155-14.416-26.692-17.076-31.323-8.476-14.757-4.39-24.68-4.39-24.68s23.645-2.337,30.124-8.005l2.333,3.6s5.123,22.68,4.881,22.785q.378,1.157.769,2.355" transform="translate(-145.242 -664.299)" fill="#7e5ee3"/>
          <path id="Trazado_209289" data-name="Trazado 209289" d="M72.324,959.829l.078-4.287c-8.542,1.077-29.451-10.207-29.451-10.207s-8.936,5.943-10.159,22.917c-.6,8.285-4.375,43.321-4.792,53.783-.152,3.792-.2,6.5-.22,7.579a.017.017,0,0,1,0,.011,1.489,1.489,0,0,1-.363.882,48.945,48.945,0,0,0-4.628,7.094c-13.034,24.25-6.218,57.2-6.218,57.2l3.027-.77s11.021-34.159,18.224-48.934a30.938,30.938,0,0,1,3.262-5.584c2.708-3.289,5.564-8.876,8.379-15.6,5.321-12.71,10.486-29.482,14.17-42.467.26.047,8.692-21.62,8.692-21.62" transform="translate(-11.751 -645.801)" fill="#7e5ee3"/>
          <path id="Trazado_209290" data-name="Trazado 209290" d="M508,749.362c-13.963-3.2-5.043-22.826-4.233-22.481,1.935-.394,6.184-3.791,9.985-10.426l.513.445,8.577,7.519s-1.983,2.924-3.65,5.789c-1.3,2.243-2.411,4.452-2.235,5.211.69.543-5.232,14.8-8.956,13.943" transform="translate(-397.444 -463.947)" fill="#ffb27d"/>
          <path id="Trazado_209291" data-name="Trazado 209291" d="M536.68,805.677a70.338,70.338,0,0,1,3.765,9.042c1.31,4.2,4.587,17.544,4.587,17.544s-6.759,7.713-16.162,7.263c0,0-5.056-7.914-3.274-15.061s11.084-18.788,11.084-18.788" transform="translate(-417.305 -534.837)" fill="#d2e1f1"/>
          <path id="Trazado_209292" data-name="Trazado 209292" d="M576.553,726.153s-1.983,2.921-3.65,5.789c-5.332-3.287-5.338-9.889-4.927-13.308Z" transform="translate(-451.154 -465.678)" fill="#ed985f"/>
          <path id="Trazado_209293" data-name="Trazado 209293" d="M575.417,670.636s-12.947-7.2-8.336-15.2,6.045-14.307,14.505-10.045,8.294,8.23,7.4,11.272S578.9,672.3,575.417,670.636" transform="translate(-449.78 -406.395)" fill="#ffb27d"/>
          <path id="Trazado_209294" data-name="Trazado 209294" d="M585.913,647.816c-.593-3.549-2.4-3.888-3.653-3.651a10.355,10.355,0,0,0-12.593-4.821,17.627,17.627,0,0,1-10.2,6.129s1.5,2.8,7.693,4.526a10.581,10.581,0,0,0,6.107-.488,34.561,34.561,0,0,1-8.786,3.312c8.157.747,15.919-6.711,16.724-7.509a11.608,11.608,0,0,1,.641,5.344c-.537,2.4-2.671,6.758-1.368,7.321,0,0,6.329-4.84,5.44-10.163" transform="translate(-444.516 -402.208)" fill="#12263f"/>
          <path id="Trazado_209295" data-name="Trazado 209295" d="M23.048,1627.332H.125a12.585,12.585,0,0,1,.648-6.144c1.147-2.543,2.944-3.7,2.514-6.776a8.254,8.254,0,0,0,7.144,2.733c.406.659,2.621,4.181,3.977,5.156,1.5,1.076,8.177.693,8.639,5.031" transform="translate(0 -1177.41)" fill="#233862"/>
          <path id="Trazado_209296" data-name="Trazado 209296" d="M160.274,794.212a55.736,55.736,0,0,1-11.322,2.053c-6.028.658-12.251,1.107-15.51,2.409a20.65,20.65,0,0,0-4.348,2.373v0a1.306,1.306,0,0,0-.128.1,13.941,13.941,0,0,0-1.8,1.551,9.825,9.825,0,0,0-2.1,3.121c-1.2,2.953.388,11.141,1.4,15.617a4.067,4.067,0,0,1-2.082,4.512q-3.437,1.777-6.757,3.281l-.349.156c.021-.455.029-.907.029-1.348a41.684,41.684,0,0,0-.388-5.658c-.544,3.117-2.6,6.483-4.512,9.074-30.761,12.344-52.253,6.978-51.9.829,1.213-21.349,15.61-39.507,15.61-39.507,26.851-31.224,81.164-39.443,81.164-39.443s2.6-.313,5.74,3.459c4.515,5.434,4.74,6.85,4.74,6.85s1.192,27.544-7.487,30.572" transform="translate(-48.072 -493.241)" fill="#6bcfc6"/>
          <path id="Trazado_209297" data-name="Trazado 209297" d="M430.5,836.747c-6.027.658-12.25,1.108-15.51,2.408a63.561,63.561,0,0,1,8.062-34.88s6.128,24.938,7.448,32.471" transform="translate(-329.627 -533.724)" fill="#d2e1f1"/>
          <path id="Trazado_209298" data-name="Trazado 209298" d="M458.436,785.531s-15.106,1.493-16.317,11.308,14.483,49.794,16.73,53.414c4.092,6.59,28.185,29.181,28.185,29.181l4.441-2.691s-17.09-28.932-19.736-31.639c-4.154-4.251-8.188-56.173-13.3-59.573" transform="translate(-351.229 -518.83)" fill="#ffb27d"/>
          <path id="Trazado_209299" data-name="Trazado 209299" d="M460.03,798.9s1.551-25.308-17.819-19.188,3.006,49.649,3.006,49.649,11.369-.561,15.4-10.481Z" transform="translate(-345.083 -513.45)" fill="#6bcfc6"/>
          <path id="Trazado_209300" data-name="Trazado 209300" d="M344.484,1012.372a4.067,4.067,0,0,1-2.082,4.512q-3.437,1.777-6.757,3.281c-.117-.377-.224-.772-.32-1.192a20.783,20.783,0,0,1-.388-5.658c.513-9.45,6.949-16.606,10.248-19.68a9.82,9.82,0,0,0-2.1,3.121c-1.2,2.953.388,11.141,1.4,15.617" transform="translate(-266.09 -684.177)" fill="#91cecf"/>
          <path id="Trazado_209301" data-name="Trazado 209301" d="M531.537,742.16s2.365-2.989,3.963-2.893c0,0,6.464,9.049,6.516,13.2,0,0-8.062-10.728-10.479-10.308" transform="translate(-422.328 -482.07)" fill="#91cecf"/>
          <path id="Trazado_209302" data-name="Trazado 209302" d="M761.372,1163.157s-3.437.061-4.179-.045a22.046,22.046,0,0,0-2.68-.456,11.443,11.443,0,0,0-2.751.462,2.026,2.026,0,0,1-.409.039h-5.7a3.41,3.41,0,0,1-1.2-1.279c-.27-.436-.307-1.473-.922-1.816-3.452-1.926,5.735-.836,5.735-.836s5.767-.1,6.3.293c.948.713,6.019,3.365,5.8,3.638" transform="translate(-590.151 -815.502)" fill="#ed985f"/>
          <path id="Trazado_209303" data-name="Trazado 209303" d="M756.5,1170.327a26.514,26.514,0,0,1,4.45,1.658l1,.634s.581-.649-.334-1.369c-.483-.38-1.815-1.492-1.859-2.767s-3.994-.161-3.262,1.843" transform="translate(-601 -822.671)" fill="#ed985f"/>
          <path id="Trazado_209304" data-name="Trazado 209304" d="M662.785,1228.839s2.5,2.222,4.4,2.691,4.064,5.916,4.41,6.694-1.816-.346-2.68-1.672-1.455-1.844-1.707-1.556.151,3.92,1.592,5.937,2.306,3.8,1.268,3.689-7.2-1.614-8.473-5.36-.338-3.878-3.253-7.732,4.441-2.691,4.441-2.691" transform="translate(-522.538 -870.926)" fill="#ffb27d"/>
          <path id="Trazado_209305" data-name="Trazado 209305" d="M1820.332,1607.638a7.917,7.917,0,0,1-7.889,7.889h-37.251a7.888,7.888,0,0,1,0-15.775h37.251a7.911,7.911,0,0,1,7.889,7.886" transform="translate(-1404.196 -1165.762)" fill="#2b478b"/>
          <path id="Trazado_209306" data-name="Trazado 209306" d="M1801.115,1607.638a7.912,7.912,0,0,1-7.886,7.889h-18.037a7.888,7.888,0,0,1,0-15.775h18.037a7.909,7.909,0,0,1,7.886,7.886" transform="translate(-1404.196 -1165.762)" fill="#699ff0"/>
          <g id="Grupo_172716" data-name="Grupo 172716" transform="translate(372.228 435.739)" opacity="0.4">
            <g id="Grupo_172715" data-name="Grupo 172715">
              <g id="Grupo_172714" data-name="Grupo 172714" clip-path="url(#clip-path-8)">
                <path id="Trazado_209307" data-name="Trazado 209307" d="M1848.335,1610.752H1812.8a1.121,1.121,0,0,1-1.118-1.118v-.252a1.121,1.121,0,0,1,1.118-1.118h35.532a1.121,1.121,0,0,1,1.118,1.118v.252a1.121,1.121,0,0,1-1.118,1.118" transform="translate(-1811.686 -1608.265)" fill="#e9f3fe"/>
              </g>
            </g>
          </g>
          <path id="Trazado_209308" data-name="Trazado 209308" d="M1672.91,1511.565a8.392,8.392,0,0,1-3.73,11.224l-35.308,17.694a8.362,8.362,0,0,1-7.493-14.952l35.308-17.694a8.388,8.388,0,0,1,11.223,3.728" transform="translate(-1288.562 -1092.032)" fill="#ef7e29"/>
          <path id="Trazado_209309" data-name="Trazado 209309" d="M1654.7,1555.986a8.387,8.387,0,0,1-3.728,11.223l-17.1,8.567a8.362,8.362,0,0,1-7.493-14.952l17.1-8.567a8.385,8.385,0,0,1,11.22,3.729" transform="translate(-1288.562 -1127.326)" fill="#f99746"/>
          <g id="Grupo_172719" data-name="Grupo 172719" transform="translate(340.222 417.038)" opacity="0.5">
            <g id="Grupo_172718" data-name="Grupo 172718">
              <g id="Grupo_172717" data-name="Grupo 172717" clip-path="url(#clip-path-9)">
                <path id="Trazado_209310" data-name="Trazado 209310" d="M1691.423,1519.73l-33.678,16.877a1.188,1.188,0,0,1-1.59-.529l-.12-.239a1.189,1.189,0,0,1,.528-1.59l33.679-16.877a1.188,1.188,0,0,1,1.59.529l.12.239a1.188,1.188,0,0,1-.528,1.59" transform="translate(-1655.91 -1517.247)" fill="#ffe2cc"/>
              </g>
            </g>
          </g>
          <path id="Trazado_209311" data-name="Trazado 209311" d="M631.058,1678.762H47.8a.646.646,0,0,1-.644-.644v-.178a.646.646,0,0,1,.644-.644H631.058a.646.646,0,0,1,.644.644v.178a.646.646,0,0,1-.644.644" transform="translate(-37.467 -1227.374)" fill="#2e3552"/>
        </g>
      </g>
    </g>
  </g>
</svg>
