<svg id="Grupo_73269" data-name="Grupo 73269" xmlns="http://www.w3.org/2000/svg" xmlns:xlink="http://www.w3.org/1999/xlink" width="144" height="144" viewBox="0 0 144 144">
  <defs>
    <clipPath id="clip-path">
      <circle id="Elipse_5630" data-name="Elipse 5630" cx="72" cy="72" r="72" fill="#7e5ee3"/>
    </clipPath>
    <clipPath id="clip-path-2">
      <rect id="Rectángulo_50247" data-name="Rectángulo 50247" width="106.598" height="177.704" fill="none"/>
    </clipPath>
    <clipPath id="clip-path-4">
      <rect id="Rectángulo_50200" data-name="Rectángulo 50200" width="38.267" height="37.907" fill="none"/>
    </clipPath>
    <clipPath id="clip-path-5">
      <rect id="Rectángulo_50201" data-name="Rectángulo 50201" width="1.53" height="12.416" fill="none"/>
    </clipPath>
    <clipPath id="clip-path-6">
      <path id="Trazado_209652" data-name="Trazado 209652" d="M575.6,1687.6v54.663a4.233,4.233,0,0,0,4.234,4.233h38.01a4.234,4.234,0,0,0,4.234-4.233V1687.6Z" transform="translate(-575.596 -1687.597)" fill="#ff9d00"/>
    </clipPath>
    <clipPath id="clip-path-8">
      <rect id="Rectángulo_50204" data-name="Rectángulo 50204" width="46.427" height="58.897" fill="none"/>
    </clipPath>
    <clipPath id="clip-path-9">
      <rect id="Rectángulo_50207" data-name="Rectángulo 50207" width="42.075" height="2.336" fill="#ff9d00"/>
    </clipPath>
    <clipPath id="clip-path-13">
      <path id="Trazado_209662" data-name="Trazado 209662" d="M639.075,565.508v2.675h40.247v-2.675a2.592,2.592,0,0,0-2.592-2.592H641.667a2.592,2.592,0,0,0-2.592,2.592" transform="translate(-639.075 -562.916)" fill="#f6f6f6"/>
    </clipPath>
    <clipPath id="clip-path-15">
      <rect id="Rectángulo_50214" data-name="Rectángulo 50214" width="0.79" height="7.188" fill="none"/>
    </clipPath>
    <clipPath id="clip-path-27">
      <rect id="Rectángulo_50226" data-name="Rectángulo 50226" width="0.791" height="7.188" fill="none"/>
    </clipPath>
    <clipPath id="clip-path-31">
      <rect id="Rectángulo_50230" data-name="Rectángulo 50230" width="9.975" height="9.871" fill="none"/>
    </clipPath>
    <clipPath id="clip-path-32">
      <rect id="Rectángulo_50231" data-name="Rectángulo 50231" width="9.975" height="9.87" fill="none"/>
    </clipPath>
    <clipPath id="clip-path-33">
      <rect id="Rectángulo_50232" data-name="Rectángulo 50232" width="8.846" height="7.351" fill="none"/>
    </clipPath>
    <clipPath id="clip-path-35">
      <rect id="Rectángulo_50234" data-name="Rectángulo 50234" width="9.83" height="8.982" fill="none"/>
    </clipPath>
    <clipPath id="clip-path-37">
      <rect id="Rectángulo_50236" data-name="Rectángulo 50236" width="9.607" height="10.017" fill="none"/>
    </clipPath>
    <clipPath id="clip-path-38">
      <rect id="Rectángulo_50237" data-name="Rectángulo 50237" width="9.607" height="10.018" fill="none"/>
    </clipPath>
    <clipPath id="clip-path-39">
      <rect id="Rectángulo_50238" data-name="Rectángulo 50238" width="5.901" height="13.063" fill="none"/>
    </clipPath>
    <clipPath id="clip-path-40">
      <rect id="Rectángulo_50239" data-name="Rectángulo 50239" width="5.15" height="6.393" fill="none"/>
    </clipPath>
    <clipPath id="clip-path-41">
      <rect id="Rectángulo_50240" data-name="Rectángulo 50240" width="6.275" height="7.22" fill="none"/>
    </clipPath>
    <clipPath id="clip-path-42">
      <rect id="Rectángulo_50241" data-name="Rectángulo 50241" width="12.323" height="13.206" fill="none"/>
    </clipPath>
    <clipPath id="clip-path-43">
      <rect id="Rectángulo_50242" data-name="Rectángulo 50242" width="12.424" height="15.895" fill="none"/>
    </clipPath>
    <clipPath id="clip-path-44">
      <rect id="Rectángulo_50243" data-name="Rectángulo 50243" width="6.208" height="7.38" fill="none"/>
    </clipPath>
    <clipPath id="clip-path-45">
      <rect id="Rectángulo_50244" data-name="Rectángulo 50244" width="3.912" height="8.672" fill="none"/>
    </clipPath>
    <clipPath id="clip-path-46">
      <rect id="Rectángulo_50245" data-name="Rectángulo 50245" width="3.446" height="22.608" fill="none"/>
    </clipPath>
  </defs>
  <circle id="Elipse_4525" data-name="Elipse 4525" cx="72" cy="72" r="72" transform="translate(0)" fill="#7e5ee3"/>
  <g id="Grupo_73267" data-name="Grupo 73267" transform="translate(44.614 115.053)">
    <path id="Trazado_145440" data-name="Trazado 145440" d="M1846.766,556.319a.4.4,0,1,0-.464-.311.395.395,0,0,0,.464.311Z" transform="translate(-1846.295 -553.201)" fill="#0f7986"/>
    <path id="Trazado_145441" data-name="Trazado 145441" d="M1888.418,548.036a.395.395,0,1,0-.464-.31A.394.394,0,0,0,1888.418,548.036Z" transform="translate(-1876.2 -547.254)" fill="#0f7986"/>
  </g>
  <g id="Enmascarar_grupo_110" data-name="Enmascarar grupo 110" clip-path="url(#clip-path)">
    <g id="Grupo_172988" data-name="Grupo 172988" transform="translate(21.701 16.795)">
      <g id="Grupo_172987" data-name="Grupo 172987" clip-path="url(#clip-path-2)">
        <g id="Grupo_172871" data-name="Grupo 172871" transform="translate(0 0)">
          <g id="Grupo_172870" data-name="Grupo 172870" clip-path="url(#clip-path-2)">
            <path id="Trazado_209648" data-name="Trazado 209648" d="M793.316,1847.984a83.435,83.435,0,0,1-2.668,11.091,34.724,34.724,0,0,0-1.047,10.33c0,.084.006.13.006.13l-29.031,12.087-.071-.1c-.332-.485-.65-.933-.955-1.35q-.222-.3-.436-.586c-.216-.285-.427-.554-.632-.81l-.015-.018-.064-.079-.017-.021q-.13-.161-.258-.313c-2.2-2.632-3.884-3.742-6.437-5.9-.486-.41-1.114-.977-1.835-1.646-1.01-.939-2.2-2.081-3.432-3.282-.468-.456-.942-.92-1.414-1.385-.721-.71-1.438-1.42-2.125-2.1h14.253v-23.162h21.92v-6.674l2.092-.759-.02-.7-.46-16.088a8.847,8.847,0,0,1,.483-2.529,4.2,4.2,0,0,1,.531-1.011,4.036,4.036,0,0,1,3.1-1.864c.026,0,.051,0,.077,0h.208a3.186,3.186,0,0,1,2.374,1.466,4.438,4.438,0,0,1,.739,2.608,47.137,47.137,0,0,0,.39,6.045c.109.94.236,1.917.374,2.937.462,3.416,2.846,12.1,3.877,15.69a16.4,16.4,0,0,1,.5,8" transform="translate(-706.425 -1722.341)" fill="#fcb89d"/>
            <g id="Grupo_172866" data-name="Grupo 172866" transform="translate(36.459 118.524)" style="mix-blend-mode: multiply;isolation: isolate">
              <g id="Grupo_172865" data-name="Grupo 172865">
                <g id="Grupo_172864" data-name="Grupo 172864" clip-path="url(#clip-path-4)">
                  <path id="Trazado_209649" data-name="Trazado 209649" d="M781.153,2424.283v9.368a4.587,4.587,0,0,1-1.749,3.608l-.186.14,0,0-20.732,15.557-.015-.018-.064-.08-.017-.021c-.087-.107-.173-.212-.258-.313-2.2-2.631-3.884-3.742-6.437-5.9-.486-.41-1.115-.977-1.835-1.647-1.01-.939-2.2-2.081-3.432-3.282-.468-.456-.942-.92-1.414-1.385-.721-.71-1.438-1.419-2.125-2.1h14.253V2415.05h17.087Z" transform="translate(-742.885 -2415.05)" fill="#e6e6e6"/>
                </g>
              </g>
            </g>
            <path id="Trazado_209650" data-name="Trazado 209650" d="M436.491,1642.422a3.906,3.906,0,0,1-1.13.889,3,3,0,0,1-1.22.32,4.662,4.662,0,0,1-2.093-.466h0l-.022-.01c-.091-.04-.181-.082-.271-.127-.305-.15-.614-.322-.926-.514-.1-.063-.205-.127-.308-.195-.195-.125-.39-.257-.587-.393-.712-.5-1.439-1.058-2.175-1.632-2.392-1.864-4.57-6.255-1.991-8.768a3.821,3.821,0,0,1,2.2-1.069,4.8,4.8,0,0,1,.945-.03,6,6,0,0,1,.764.1,7.255,7.255,0,0,1,.845.222,9.285,9.285,0,0,1,1.025.4q.24.111.481.236l.022.011h0a13.31,13.31,0,0,1,1.217.723q.2.13.39.268.244.172.486.358.284.216.565.45a8.507,8.507,0,0,1,.654.6c2.55,2.61,3.048,6.5,1.13,8.619" transform="translate(-403.763 -1550.399)" fill="#fcb89d"/>
            <g id="Grupo_172869" data-name="Grupo 172869" transform="translate(26.755 80.35)" style="mix-blend-mode: multiply;isolation: isolate">
              <g id="Grupo_172868" data-name="Grupo 172868">
                <g id="Grupo_172867" data-name="Grupo 172867" clip-path="url(#clip-path-5)">
                  <path id="Trazado_209651" data-name="Trazado 209651" d="M546.686,1637.871v11.763h0l-.022-.01c-.091-.04-.181-.083-.271-.127-.3-.15-.613-.322-.926-.514-.1-.063-.205-.127-.308-.195v-11.569a9.228,9.228,0,0,1,1.025.4q.24.11.481.236l.022.011h0" transform="translate(-545.156 -1637.219)" fill="#ccc"/>
                </g>
              </g>
            </g>
          </g>
        </g>
        <g id="Grupo_172873" data-name="Grupo 172873" transform="translate(28.249 82.823)">
          <g id="Grupo_172872" data-name="Grupo 172872" clip-path="url(#clip-path-6)">
            <rect id="Rectángulo_50203" data-name="Rectángulo 50203" width="46.478" height="58.897" transform="translate(0)" fill="#ff9d00"/>
          </g>
        </g>
        <g id="Grupo_172878" data-name="Grupo 172878" transform="translate(0 0)">
          <g id="Grupo_172877" data-name="Grupo 172877" clip-path="url(#clip-path-2)">
            <g id="Grupo_172876" data-name="Grupo 172876" transform="translate(28.248 82.823)" style="mix-blend-mode: multiply;isolation: isolate">
              <g id="Grupo_172875" data-name="Grupo 172875">
                <g id="Grupo_172874" data-name="Grupo 172874" clip-path="url(#clip-path-8)">
                  <path id="Trazado_209653" data-name="Trazado 209653" d="M622.017,1742.923a4.235,4.235,0,0,1-4.183,3.571h-38.01a4.234,4.234,0,0,1-4.234-4.233V1687.6h3.519v51.144a4.23,4.23,0,0,0,4.234,4.234h38.01a4.165,4.165,0,0,0,.664-.052" transform="translate(-575.59 -1687.597)" fill="#f2f2f2"/>
                </g>
              </g>
            </g>
            <path id="Trazado_209654" data-name="Trazado 209654" d="M561.812,1615.9H512.485a1.759,1.759,0,1,0,0,3.519h49.326a1.759,1.759,0,1,0,0-3.519" transform="translate(-485.661 -1536.595)" fill="#f7941d"/>
          </g>
        </g>
        <g id="Grupo_172880" data-name="Grupo 172880" transform="translate(30.45 76.968)">
          <g id="Grupo_172879" data-name="Grupo 172879" clip-path="url(#clip-path-9)">
            <rect id="Rectángulo_50206" data-name="Rectángulo 50206" width="42.075" height="2.336" transform="translate(0 0)" fill="#ff9d00"/>
          </g>
        </g>
        <g id="Grupo_172882" data-name="Grupo 172882" transform="translate(30.45 74.631)">
          <g id="Grupo_172881" data-name="Grupo 172881" clip-path="url(#clip-path-9)">
            <rect id="Rectángulo_50208" data-name="Rectángulo 50208" width="42.075" height="2.336" transform="translate(0 0)" fill="#ff9d00"/>
          </g>
        </g>
        <g id="Grupo_172884" data-name="Grupo 172884" transform="translate(30.45 72.295)">
          <g id="Grupo_172883" data-name="Grupo 172883" clip-path="url(#clip-path-9)">
            <rect id="Rectángulo_50210" data-name="Rectángulo 50210" width="42.075" height="2.336" transform="translate(0 0)" fill="#ff9d00"/>
          </g>
        </g>
        <g id="Grupo_172886" data-name="Grupo 172886" transform="translate(0 0)">
          <g id="Grupo_172885" data-name="Grupo 172885" clip-path="url(#clip-path-2)">
            <path id="Trazado_209655" data-name="Trazado 209655" d="M1003.44,1920.712H980.184a3.539,3.539,0,0,0-3.539,3.539v28.938a3.539,3.539,0,0,0,3.539,3.539h23.256Z" transform="translate(-928.714 -1826.449)" fill="#fff"/>
            <path id="Trazado_209656" data-name="Trazado 209656" d="M1112.581,2035.735h-20.332a.875.875,0,0,0-.875.875v.959a.875.875,0,0,0,.875.875h20.332Z" transform="translate(-1037.812 -1935.827)" fill="#ff9d00"/>
            <path id="Trazado_209657" data-name="Trazado 209657" d="M1221.638,2232.426h-14.659a.875.875,0,0,0,0,1.75h14.659Z" transform="translate(-1146.912 -2122.865)" fill="#48c2ed"/>
            <path id="Trazado_209658" data-name="Trazado 209658" d="M1221.638,2319.077h-14.659a.875.875,0,0,0,0,1.75h14.659Z" transform="translate(-1146.912 -2205.263)" fill="#48c2ed"/>
            <path id="Trazado_209659" data-name="Trazado 209659" d="M1221.638,2405.728h-14.659a.875.875,0,0,0-.875.875h0a.875.875,0,0,0,.875.875h14.659Z" transform="translate(-1146.912 -2287.661)" fill="#48c2ed"/>
            <path id="Trazado_209660" data-name="Trazado 209660" d="M1221.638,2492.379h-14.659a.875.875,0,0,0,0,1.75h14.659Z" transform="translate(-1146.912 -2370.059)" fill="#48c2ed"/>
            <path id="Trazado_209661" data-name="Trazado 209661" d="M559.7,670.229H514.595a3.869,3.869,0,0,0-3.869,3.869v7.308h52.845V674.1a3.869,3.869,0,0,0-3.869-3.869" transform="translate(-485.661 -637.336)" fill="#fff"/>
          </g>
        </g>
        <g id="Grupo_172888" data-name="Grupo 172888" transform="translate(31.364 27.626)">
          <g id="Grupo_172887" data-name="Grupo 172887" clip-path="url(#clip-path-13)">
            <rect id="Rectángulo_50213" data-name="Rectángulo 50213" width="40.247" height="5.267" transform="translate(0)" fill="#f6f6f6"/>
          </g>
        </g>
        <g id="Grupo_172986" data-name="Grupo 172986" transform="translate(0 0)">
          <g id="Grupo_172985" data-name="Grupo 172985" clip-path="url(#clip-path-2)">
            <g id="Grupo_172891" data-name="Grupo 172891" transform="translate(28.794 34.887)" style="mix-blend-mode: multiply;isolation: isolate">
              <g id="Grupo_172890" data-name="Grupo 172890">
                <g id="Grupo_172889" data-name="Grupo 172889" clip-path="url(#clip-path-15)">
                  <path id="Trazado_209663" data-name="Trazado 209663" d="M587.109,710.871h0a.4.4,0,0,0-.4.4v6.4a.4.4,0,0,0,.79,0v-6.4a.4.4,0,0,0-.4-.4" transform="translate(-586.714 -710.871)" fill="#e6e6e6"/>
                </g>
              </g>
            </g>
            <g id="Grupo_172894" data-name="Grupo 172894" transform="translate(31.768 34.887)" style="mix-blend-mode: multiply;isolation: isolate">
              <g id="Grupo_172893" data-name="Grupo 172893">
                <g id="Grupo_172892" data-name="Grupo 172892" clip-path="url(#clip-path-15)">
                  <path id="Trazado_209664" data-name="Trazado 209664" d="M647.689,710.871h0a.4.4,0,0,0-.4.4v6.4a.4.4,0,0,0,.79,0v-6.4a.4.4,0,0,0-.4-.4" transform="translate(-647.294 -710.871)" fill="#e6e6e6"/>
                </g>
              </g>
            </g>
            <g id="Grupo_172897" data-name="Grupo 172897" transform="translate(34.741 34.887)" style="mix-blend-mode: multiply;isolation: isolate">
              <g id="Grupo_172896" data-name="Grupo 172896">
                <g id="Grupo_172895" data-name="Grupo 172895" clip-path="url(#clip-path-15)">
                  <path id="Trazado_209665" data-name="Trazado 209665" d="M708.268,710.871h0a.4.4,0,0,0-.4.4v6.4a.4.4,0,0,0,.79,0v-6.4a.4.4,0,0,0-.4-.4" transform="translate(-707.873 -710.871)" fill="#e6e6e6"/>
                </g>
              </g>
            </g>
            <g id="Grupo_172900" data-name="Grupo 172900" transform="translate(37.714 34.887)" style="mix-blend-mode: multiply;isolation: isolate">
              <g id="Grupo_172899" data-name="Grupo 172899">
                <g id="Grupo_172898" data-name="Grupo 172898" clip-path="url(#clip-path-15)">
                  <path id="Trazado_209666" data-name="Trazado 209666" d="M768.847,710.871h0a.4.4,0,0,0-.4.4v6.4a.4.4,0,0,0,.79,0v-6.4a.4.4,0,0,0-.4-.4" transform="translate(-768.452 -710.871)" fill="#e6e6e6"/>
                </g>
              </g>
            </g>
            <g id="Grupo_172903" data-name="Grupo 172903" transform="translate(40.687 34.887)" style="mix-blend-mode: multiply;isolation: isolate">
              <g id="Grupo_172902" data-name="Grupo 172902">
                <g id="Grupo_172901" data-name="Grupo 172901" clip-path="url(#clip-path-15)">
                  <path id="Trazado_209667" data-name="Trazado 209667" d="M829.426,710.871h0a.4.4,0,0,0-.4.4v6.4a.4.4,0,0,0,.79,0v-6.4a.4.4,0,0,0-.4-.4" transform="translate(-829.031 -710.871)" fill="#e6e6e6"/>
                </g>
              </g>
            </g>
            <g id="Grupo_172906" data-name="Grupo 172906" transform="translate(43.66 34.887)" style="mix-blend-mode: multiply;isolation: isolate">
              <g id="Grupo_172905" data-name="Grupo 172905">
                <g id="Grupo_172904" data-name="Grupo 172904" clip-path="url(#clip-path-15)">
                  <path id="Trazado_209668" data-name="Trazado 209668" d="M890.005,710.871h0a.4.4,0,0,0-.4.4v6.4a.4.4,0,0,0,.791,0v-6.4a.4.4,0,0,0-.4-.4" transform="translate(-889.61 -710.871)" fill="#e6e6e6"/>
                </g>
              </g>
            </g>
            <g id="Grupo_172909" data-name="Grupo 172909" transform="translate(46.633 34.887)" style="mix-blend-mode: multiply;isolation: isolate">
              <g id="Grupo_172908" data-name="Grupo 172908">
                <g id="Grupo_172907" data-name="Grupo 172907" clip-path="url(#clip-path-15)">
                  <path id="Trazado_209669" data-name="Trazado 209669" d="M950.584,710.871h0a.4.4,0,0,0-.4.4v6.4a.4.4,0,1,0,.79,0v-6.4a.4.4,0,0,0-.4-.4" transform="translate(-950.189 -710.871)" fill="#e6e6e6"/>
                </g>
              </g>
            </g>
            <g id="Grupo_172912" data-name="Grupo 172912" transform="translate(49.606 34.887)" style="mix-blend-mode: multiply;isolation: isolate">
              <g id="Grupo_172911" data-name="Grupo 172911">
                <g id="Grupo_172910" data-name="Grupo 172910" clip-path="url(#clip-path-15)">
                  <path id="Trazado_209670" data-name="Trazado 209670" d="M1011.163,710.871h0a.4.4,0,0,0-.4.4v6.4a.4.4,0,0,0,.79,0v-6.4a.4.4,0,0,0-.4-.4" transform="translate(-1010.768 -710.871)" fill="#e6e6e6"/>
                </g>
              </g>
            </g>
            <g id="Grupo_172915" data-name="Grupo 172915" transform="translate(52.579 34.887)" style="mix-blend-mode: multiply;isolation: isolate">
              <g id="Grupo_172914" data-name="Grupo 172914">
                <g id="Grupo_172913" data-name="Grupo 172913" clip-path="url(#clip-path-15)">
                  <path id="Trazado_209671" data-name="Trazado 209671" d="M1071.743,710.871h0a.4.4,0,0,0-.4.4v6.4a.4.4,0,0,0,.79,0v-6.4a.4.4,0,0,0-.4-.4" transform="translate(-1071.348 -710.871)" fill="#e6e6e6"/>
                </g>
              </g>
            </g>
            <g id="Grupo_172918" data-name="Grupo 172918" transform="translate(55.552 34.887)" style="mix-blend-mode: multiply;isolation: isolate">
              <g id="Grupo_172917" data-name="Grupo 172917">
                <g id="Grupo_172916" data-name="Grupo 172916" clip-path="url(#clip-path-15)">
                  <path id="Trazado_209672" data-name="Trazado 209672" d="M1132.322,710.871h0a.4.4,0,0,0-.4.4v6.4a.4.4,0,0,0,.79,0v-6.4a.4.4,0,0,0-.4-.4" transform="translate(-1131.927 -710.871)" fill="#e6e6e6"/>
                </g>
              </g>
            </g>
            <g id="Grupo_172921" data-name="Grupo 172921" transform="translate(58.525 34.887)" style="mix-blend-mode: multiply;isolation: isolate">
              <g id="Grupo_172920" data-name="Grupo 172920">
                <g id="Grupo_172919" data-name="Grupo 172919" clip-path="url(#clip-path-15)">
                  <path id="Trazado_209673" data-name="Trazado 209673" d="M1192.9,710.871h0a.4.4,0,0,0-.4.4v6.4a.4.4,0,0,0,.791,0v-6.4a.4.4,0,0,0-.4-.4" transform="translate(-1192.506 -710.871)" fill="#e6e6e6"/>
                </g>
              </g>
            </g>
            <g id="Grupo_172924" data-name="Grupo 172924" transform="translate(61.498 34.887)" style="mix-blend-mode: multiply;isolation: isolate">
              <g id="Grupo_172923" data-name="Grupo 172923">
                <g id="Grupo_172922" data-name="Grupo 172922" clip-path="url(#clip-path-15)">
                  <path id="Trazado_209674" data-name="Trazado 209674" d="M1253.48,710.871h0a.4.4,0,0,0-.4.4v6.4a.4.4,0,0,0,.791,0v-6.4a.4.4,0,0,0-.4-.4" transform="translate(-1253.085 -710.871)" fill="#e6e6e6"/>
                </g>
              </g>
            </g>
            <g id="Grupo_172927" data-name="Grupo 172927" transform="translate(64.471 34.887)" style="mix-blend-mode: multiply;isolation: isolate">
              <g id="Grupo_172926" data-name="Grupo 172926">
                <g id="Grupo_172925" data-name="Grupo 172925" clip-path="url(#clip-path-27)">
                  <path id="Trazado_209675" data-name="Trazado 209675" d="M1314.059,710.871h0a.4.4,0,0,0-.4.4v6.4a.4.4,0,0,0,.791,0v-6.4a.4.4,0,0,0-.4-.4" transform="translate(-1313.664 -710.871)" fill="#e6e6e6"/>
                </g>
              </g>
            </g>
            <g id="Grupo_172930" data-name="Grupo 172930" transform="translate(67.444 34.887)" style="mix-blend-mode: multiply;isolation: isolate">
              <g id="Grupo_172929" data-name="Grupo 172929">
                <g id="Grupo_172928" data-name="Grupo 172928" clip-path="url(#clip-path-27)">
                  <path id="Trazado_209676" data-name="Trazado 209676" d="M1374.638,710.871h0a.4.4,0,0,0-.4.4v6.4a.4.4,0,0,0,.791,0v-6.4a.4.4,0,0,0-.4-.4" transform="translate(-1374.243 -710.871)" fill="#e6e6e6"/>
                </g>
              </g>
            </g>
            <g id="Grupo_172933" data-name="Grupo 172933" transform="translate(70.417 34.887)" style="mix-blend-mode: multiply;isolation: isolate">
              <g id="Grupo_172932" data-name="Grupo 172932">
                <g id="Grupo_172931" data-name="Grupo 172931" clip-path="url(#clip-path-27)">
                  <path id="Trazado_209677" data-name="Trazado 209677" d="M1435.217,710.871h0a.4.4,0,0,0-.4.4v6.4a.4.4,0,0,0,.79,0v-6.4a.4.4,0,0,0-.4-.4" transform="translate(-1434.822 -710.871)" fill="#e6e6e6"/>
                </g>
              </g>
            </g>
            <g id="Grupo_172936" data-name="Grupo 172936" transform="translate(73.39 34.887)" style="mix-blend-mode: multiply;isolation: isolate">
              <g id="Grupo_172935" data-name="Grupo 172935">
                <g id="Grupo_172934" data-name="Grupo 172934" clip-path="url(#clip-path-27)">
                  <path id="Trazado_209678" data-name="Trazado 209678" d="M1495.8,710.871h0a.4.4,0,0,0-.4.4v6.4a.4.4,0,1,0,.79,0v-6.4a.4.4,0,0,0-.4-.4" transform="translate(-1495.402 -710.871)" fill="#e6e6e6"/>
                </g>
              </g>
            </g>
            <g id="Grupo_172939" data-name="Grupo 172939" transform="translate(32.175 123.561)" style="mix-blend-mode: screen;isolation: isolate">
              <g id="Grupo_172938" data-name="Grupo 172938">
                <g id="Grupo_172937" data-name="Grupo 172937" clip-path="url(#clip-path-31)">
                  <path id="Trazado_209679" data-name="Trazado 209679" d="M660.643,2527.552l-3.833-3.47a3.676,3.676,0,0,1,4.933-5.45l3.833,3.47Z" transform="translate(-655.6 -2517.682)" fill="#4d4d4d"/>
                </g>
              </g>
            </g>
            <g id="Grupo_172942" data-name="Grupo 172942" transform="translate(37.217 127.982)" style="mix-blend-mode: color-burn;isolation: isolate">
              <g id="Grupo_172941" data-name="Grupo 172941">
                <g id="Grupo_172940" data-name="Grupo 172940" clip-path="url(#clip-path-32)">
                  <path id="Trazado_209680" data-name="Trazado 209680" d="M762.171,2616.68l-3.833-3.47,4.933-5.45,3.833,3.47a3.675,3.675,0,1,1-4.933,5.45" transform="translate(-758.338 -2607.76)" fill="#ccc"/>
                </g>
              </g>
            </g>
            <g id="Grupo_172945" data-name="Grupo 172945" transform="translate(49.014 130.279)" style="mix-blend-mode: screen;isolation: isolate">
              <g id="Grupo_172944" data-name="Grupo 172944">
                <g id="Grupo_172943" data-name="Grupo 172943" clip-path="url(#clip-path-33)">
                  <path id="Trazado_209681" data-name="Trazado 209681" d="M1007.549,2661.913h-5.171a3.675,3.675,0,1,1,0-7.351h5.171Z" transform="translate(-998.703 -2654.562)" fill="#4d4d4d"/>
                </g>
              </g>
            </g>
            <g id="Grupo_172948" data-name="Grupo 172948" transform="translate(57.86 130.279)" style="mix-blend-mode: color-burn;isolation: isolate">
              <g id="Grupo_172947" data-name="Grupo 172947">
                <g id="Grupo_172946" data-name="Grupo 172946" clip-path="url(#clip-path-33)">
                  <path id="Trazado_209682" data-name="Trazado 209682" d="M1184.122,2661.913h-5.171v-7.351h5.171a3.675,3.675,0,1,1,0,7.351" transform="translate(-1178.951 -2654.562)" fill="#ccc"/>
                </g>
              </g>
            </g>
            <g id="Grupo_172951" data-name="Grupo 172951" transform="translate(48.778 117.636)" style="mix-blend-mode: screen;isolation: isolate">
              <g id="Grupo_172950" data-name="Grupo 172950">
                <g id="Grupo_172949" data-name="Grupo 172949" clip-path="url(#clip-path-35)">
                  <path id="Trazado_209683" data-name="Trazado 209683" d="M993.9,2399.085l4.816-1.882a3.675,3.675,0,1,1,2.676,6.847l-4.816,1.882Z" transform="translate(-993.898 -2396.949)" fill="#4d4d4d"/>
                </g>
              </g>
            </g>
            <g id="Grupo_172954" data-name="Grupo 172954" transform="translate(41.623 119.771)" style="mix-blend-mode: color-burn;isolation: isolate">
              <g id="Grupo_172953" data-name="Grupo 172953">
                <g id="Grupo_172952" data-name="Grupo 172952" clip-path="url(#clip-path-35)">
                  <path id="Trazado_209684" data-name="Trazado 209684" d="M850.453,2442.335l4.816-1.882,2.676,6.847-4.816,1.882a3.676,3.676,0,0,1-4.761-2.086h0a3.675,3.675,0,0,1,2.086-4.761" transform="translate(-848.115 -2440.453)" fill="#ccc"/>
                </g>
              </g>
            </g>
            <g id="Grupo_172957" data-name="Grupo 172957" transform="translate(36.389 106.717)" style="mix-blend-mode: screen;isolation: isolate">
              <g id="Grupo_172956" data-name="Grupo 172956">
                <g id="Grupo_172955" data-name="Grupo 172955" clip-path="url(#clip-path-37)">
                  <path id="Trazado_209685" data-name="Trazado 209685" d="M741.464,2180.394l2.877-4.3a3.676,3.676,0,1,1,6.108,4.091l-2.877,4.3Z" transform="translate(-741.464 -2174.467)" fill="#4d4d4d"/>
                </g>
              </g>
            </g>
            <g id="Grupo_172960" data-name="Grupo 172960" transform="translate(32.89 112.644)" style="mix-blend-mode: color-burn;isolation: isolate">
              <g id="Grupo_172959" data-name="Grupo 172959">
                <g id="Grupo_172958" data-name="Grupo 172958" clip-path="url(#clip-path-38)">
                  <path id="Trazado_209686" data-name="Trazado 209686" d="M670.79,2299.531l2.877-4.3,6.108,4.091-2.877,4.3a3.675,3.675,0,0,1-6.108-4.09" transform="translate(-670.168 -2295.233)" fill="#ccc"/>
                </g>
              </g>
            </g>
            <path id="Trazado_209687" data-name="Trazado 209687" d="M1178.408,1127.025l-4.943,5.46-3.841-3.477a3.67,3.67,0,0,1-1.193-2.368.031.031,0,0,1,0,0c-.012-.12-.017-.24-.018-.36a3.683,3.683,0,0,1,6.155-2.729Z" transform="translate(-1111.07 -1067.502)" fill="#fff"/>
            <path id="Trazado_209688" data-name="Trazado 209688" d="M1280.4,1221.527a3.682,3.682,0,0,1-5.2.259l-3.841-3.477,4.943-5.461,3.841,3.477a3.669,3.669,0,0,1,1.193,2.367c.012.118.018.238.018.357,0,0,0,0,0,0a3.668,3.668,0,0,1-.953,2.477" transform="translate(-1208.96 -1153.325)" fill="#15d3ec"/>
            <path id="Trazado_209689" data-name="Trazado 209689" d="M667.315,1272.929l1.747,7.155-5.033,1.229a3.67,3.67,0,0,1-2.629-.34l0,0q-.158-.086-.308-.187a3.683,3.683,0,0,1,1.194-6.626Z" transform="translate(-627.106 -1210.457)" fill="#fff"/>
            <path id="Trazado_209690" data-name="Trazado 209690" d="M828.773,1248.549a3.682,3.682,0,0,1-2.7,4.451l-5.033,1.229-1.746-7.156,5.033-1.229a3.669,3.669,0,0,1,2.629.34c.1.056.207.119.306.185h0a3.669,3.669,0,0,1,1.516,2.178" transform="translate(-779.08 -1184.601)" fill="#15d3ec"/>
            <path id="Trazado_209691" data-name="Trazado 209691" d="M891.356,940.188l-4.618-5.738,4.036-3.248a3.67,3.67,0,0,1,2.525-.807h0c.12.007.24.02.358.039a3.683,3.683,0,0,1,1.731,6.506Z" transform="translate(-843.219 -884.728)" fill="#fff"/>
            <path id="Trazado_209692" data-name="Trazado 209692" d="M777.318,1021.585a3.682,3.682,0,0,1,.56-5.178l4.036-3.249,4.618,5.738-4.036,3.249a3.668,3.668,0,0,1-2.525.807c-.119-.007-.238-.02-.356-.038h0a3.668,3.668,0,0,1-2.3-1.329" transform="translate(-738.395 -963.436)" fill="#15d3ec"/>
            <path id="Trazado_209693" data-name="Trazado 209693" d="M1878.942,1132.009h-9.959a.662.662,0,1,1,0-1.323h9.959a.662.662,0,1,1,0,1.323" transform="translate(-1776.629 -1075.195)" fill="#ccc"/>
            <path id="Trazado_209694" data-name="Trazado 209694" d="M10.621,1132.009H.662a.662.662,0,1,1,0-1.323h9.96a.662.662,0,1,1,0,1.323" transform="translate(0 -1075.195)" fill="#ccc"/>
            <path id="Trazado_209695" data-name="Trazado 209695" d="M1818.762,743.1a.662.662,0,0,1-.248-1.275l9.359-3.776a.662.662,0,0,1,.495,1.227l-9.359,3.776a.66.66,0,0,1-.247.048" transform="translate(-1728.872 -701.782)" fill="#ccc"/>
            <path id="Trazado_209696" data-name="Trazado 209696" d="M63.115,1451.515a.662.662,0,0,1-.248-1.275l9.359-3.776a.662.662,0,1,1,.5,1.227l-9.359,3.776a.66.66,0,0,1-.247.048" transform="translate(-59.388 -1375.429)" fill="#ccc"/>
            <path id="Trazado_209697" data-name="Trazado 209697" d="M1674.17,401.108a.662.662,0,0,1-.451-1.146l7.63-7.1a.662.662,0,1,1,.9.969l-7.63,7.1a.659.659,0,0,1-.45.177" transform="translate(-1591.377 -373.416)" fill="#ccc"/>
            <path id="Trazado_209698" data-name="Trazado 209698" d="M1452.634,147.267a.662.662,0,0,1-.586-.967l4.98-9.562a.662.662,0,0,1,1.174.611l-4.98,9.562a.662.662,0,0,1-.587.356" transform="translate(-1380.714 -129.688)" fill="#ccc"/>
            <path id="Trazado_209699" data-name="Trazado 209699" d="M1180.885,12.2a.662.662,0,0,1-.654-.766L1181.96.562a.662.662,0,1,1,1.307.208l-1.729,10.874a.662.662,0,0,1-.652.558" transform="translate(-1122.3 -0.005)" fill="#ccc"/>
            <path id="Trazado_209700" data-name="Trazado 209700" d="M858.183,12.2a.662.662,0,0,1-.653-.558L855.8.77a.662.662,0,0,1,1.307-.208l1.729,10.874a.662.662,0,0,1-.654.766" transform="translate(-813.793 -0.005)" fill="#ccc"/>
            <path id="Trazado_209701" data-name="Trazado 209701" d="M523.455,147.267a.662.662,0,0,1-.587-.356l-4.98-9.562a.662.662,0,1,1,1.173-.611l4.98,9.562a.662.662,0,0,1-.586.967" transform="translate(-492.4 -129.689)" fill="#ccc"/>
            <path id="Trazado_209702" data-name="Trazado 209702" d="M250.582,401.109a.659.659,0,0,1-.45-.177l-7.63-7.1a.662.662,0,0,1,.9-.969l7.63,7.1a.661.661,0,0,1-.451,1.146" transform="translate(-230.4 -373.416)" fill="#ccc"/>
            <path id="Trazado_209703" data-name="Trazado 209703" d="M72.474,743.1a.657.657,0,0,1-.247-.048l-9.359-3.776a.662.662,0,0,1,.5-1.227l9.359,3.776a.662.662,0,0,1-.248,1.275" transform="translate(-59.388 -701.783)" fill="#ccc"/>
            <path id="Trazado_209704" data-name="Trazado 209704" d="M1828.121,1451.516a.66.66,0,0,1-.247-.048l-9.359-3.776a.661.661,0,1,1,.5-1.227l9.359,3.776a.662.662,0,0,1-.248,1.275" transform="translate(-1728.872 -1375.43)" fill="#ccc"/>
            <path id="Trazado_209705" data-name="Trazado 209705" d="M1083.316,2990.528l-36.842,15.339-1.079-2.592a3.525,3.525,0,0,1,1.9-4.609l30.334-12.63a3.524,3.524,0,0,1,4.609,1.9Z" transform="translate(-993.831 -2839.231)" fill="#f2f2f2"/>
            <path id="Trazado_209706" data-name="Trazado 209706" d="M1036.839,3067.747l-.966.4-36.843,15.34-.966.4a4.6,4.6,0,0,0-2.479,6.016l1.936,4.651h55.463l-10.13-24.331a4.6,4.6,0,0,0-6.016-2.479" transform="translate(-946.388 -2916.853)" fill="#4a6684"/>
            <path id="Trazado_209707" data-name="Trazado 209707" d="M1801.683,3236.231a2.052,2.052,0,1,0,2.051-2.051,2.051,2.051,0,0,0-2.051,2.051" transform="translate(-1713.261 -3075.455)" fill="#e6e6e6"/>
            <path id="Trazado_209708" data-name="Trazado 209708" d="M455.24,2493.553a3.626,3.626,0,0,1-1.441,1.035,3.2,3.2,0,0,1-2.1-.007,14.722,14.722,0,0,1-3.933-2.338c-1.923-1.413-3.58-4.87-1.608-7.2.073-.087.151-.173.235-.256l.051-.05a3.935,3.935,0,0,1,.64-.505,4.811,4.811,0,0,1,4.615.005,10.922,10.922,0,0,1,2.1,1.251q.133.1.265.2a6.121,6.121,0,0,1,1.75,2.2c.061.13.118.262.169.4a5.123,5.123,0,0,1-.743,5.271" transform="translate(-423.421 -2361.753)" fill="#fcb89d"/>
            <g id="Grupo_172963" data-name="Grupo 172963" transform="translate(28.282 121.165)" style="mix-blend-mode: multiply;isolation: isolate">
              <g id="Grupo_172962" data-name="Grupo 172962">
                <g id="Grupo_172961" data-name="Grupo 172961" clip-path="url(#clip-path-39)">
                  <path id="Trazado_209709" data-name="Trazado 209709" d="M581.522,2473.359l-.026-.055a7.432,7.432,0,0,0-.471-.848q-.074-.115-.152-.226a7.357,7.357,0,0,0-1.474-1.561q-.508-.4-1.02-.734-.314-.2-.629-.384t-.635-.335q-.229-.112-.458-.21c-.125-.053-.249-.1-.374-.15v1.317q.4.177.8.4l.032.019h0q.176.1.351.207.2.121.393.254c.087.059.174.118.26.18s.173.125.259.189l.133.1c.044.034.088.068.132.1a6.1,6.1,0,0,1,1.75,2.2c.025.052.048.1.071.157l.028.065.034.082c.012.03.024.061.036.091s.029.076.043.114.019.053.029.08.013.037.02.056.019.057.028.086l.017.053q.062.2.11.4c.01.042.02.084.028.126s.019.092.028.138c0,.02.008.041.011.061s.008.043.011.064a5.656,5.656,0,0,1,.071.666c0,.016,0,.033,0,.049s0,.038,0,.057,0,.03,0,.045,0,.031,0,.046a4.705,4.705,0,0,1-1.145,3.227,4.832,4.832,0,0,1-.4.4c-.029.026-.059.052-.089.076a3.224,3.224,0,0,1-.955.563c-.06.023-.121.042-.182.06a2.722,2.722,0,0,1-.429.089,2.882,2.882,0,0,1-.373.023c-.093,0-.186,0-.279-.012q-.17-.015-.342-.047c-.046-.008-.093-.018-.139-.028l-.14-.034c-.047-.012-.093-.025-.14-.039l-.07-.021v1.262a4.9,4.9,0,0,0,.832.128c.094.006.187.009.279.009a4.073,4.073,0,0,0,.984-.118,4.656,4.656,0,0,0,2.35-1.5,5.8,5.8,0,0,0,1.428-3.364,7.008,7.008,0,0,0-.634-3.581" transform="translate(-576.283 -2468.854)" fill="#ccc"/>
                </g>
              </g>
            </g>
            <g id="Grupo_172966" data-name="Grupo 172966" transform="translate(24.433 124.628)" style="mix-blend-mode: screen;isolation: isolate">
              <g id="Grupo_172965" data-name="Grupo 172965">
                <g id="Grupo_172964" data-name="Grupo 172964" clip-path="url(#clip-path-40)">
                  <path id="Trazado_209710" data-name="Trazado 209710" d="M502.96,2541.945a3.568,3.568,0,0,0-2.016-2.415,2.335,2.335,0,0,0-2.573.707,4.167,4.167,0,0,0-.448,1.545,2.624,2.624,0,0,0,.212,1.938,8.525,8.525,0,0,0,1.449,1.407c1.143.72,1.625,1.083,2.392.066a5.312,5.312,0,0,0,.984-3.249" transform="translate(-497.84 -2539.429)" fill="#666"/>
                </g>
              </g>
            </g>
            <path id="Trazado_209711" data-name="Trazado 209711" d="M421.912,2272.176a3.806,3.806,0,0,1-1.865.975,3.64,3.64,0,0,1-2.1-.306c-1.7-.729-3.481-2.476-5.53-4.2-2.616-2.2-3.765-7.963-1.21-10.053a3.669,3.669,0,0,1,1.242-.679,3.5,3.5,0,0,1,.456-.108,3.9,3.9,0,0,1,1.06-.026,8.475,8.475,0,0,1,3.982,1.857,22.121,22.121,0,0,1,2.1,1.824l.26.256c.132.132.264.267.4.4.081.084.16.169.237.254q.152.168.3.338c2.7,3.214,3.1,7.313.678,9.46" transform="translate(-389.668 -2146.954)" fill="#fcb89d"/>
            <g id="Grupo_172969" data-name="Grupo 172969" transform="translate(23.841 116.402)" style="mix-blend-mode: screen;isolation: isolate">
              <g id="Grupo_172968" data-name="Grupo 172968">
                <g id="Grupo_172967" data-name="Grupo 172967" clip-path="url(#clip-path-41)">
                  <path id="Trazado_209712" data-name="Trazado 209712" d="M492,2374.927a5,5,0,0,0-2.686-2.953c-1.014-.249-2.348-.356-2.917.587a5.439,5.439,0,0,0-.579,1.868,2.952,2.952,0,0,0,.5,2.155l.055.075a6.322,6.322,0,0,0,1.592,1.524c1.3.818,1.85,1.263,2.9.267a4.056,4.056,0,0,0,1.138-3.522" transform="translate(-485.778 -2371.801)" fill="#666"/>
                </g>
              </g>
            </g>
            <path id="Trazado_209713" data-name="Trazado 209713" d="M453.543,2057.218c2.631,3.062,2.636,7.483.208,9.39-2.869,2.253-5.484-.535-8.253-3.567-2.044-2.239-3.453-6.935-.488-8.978,2.492-1.716,5.78-.048,8.532,3.155" transform="translate(-421.555 -1952.602)" fill="#fcb89d"/>
            <g id="Grupo_172972" data-name="Grupo 172972" transform="translate(22.742 114.257)" style="mix-blend-mode: multiply;isolation: isolate">
              <g id="Grupo_172971" data-name="Grupo 172971">
                <g id="Grupo_172970" data-name="Grupo 172970" clip-path="url(#clip-path-42)">
                  <path id="Trazado_209714" data-name="Trazado 209714" d="M475.033,2331.95a11.414,11.414,0,0,0-1.731-2.932q-.234-.292-.49-.573c-.086-.1-.176-.191-.263-.281l-.063-.066a3.479,3.479,0,0,1-1.208.511q.2.2.4.4.121.126.237.254.152.167.3.339c2.7,3.213,3.1,7.313.678,9.46-.082.073-.163.14-.244.2a3.639,3.639,0,0,1-1.622.771,3.048,3.048,0,0,1-.533.046,3.974,3.974,0,0,1-1.563-.353,20.688,20.688,0,0,1-4.615-3.415,3.938,3.938,0,0,0-.64.506l-.051.05c-.084.083-.162.169-.235.256l.5.436a31.7,31.7,0,0,0,3.138,2.508,8.277,8.277,0,0,0,1.9.966,4.852,4.852,0,0,0,1.563.268,4.353,4.353,0,0,0,.533-.033,4.706,4.706,0,0,0,2.184-.9,6.234,6.234,0,0,0,.491-.394,5.813,5.813,0,0,0,1.447-1.969,6.535,6.535,0,0,0,.554-2.343,8.845,8.845,0,0,0-.66-3.715" transform="translate(-463.381 -2328.099)" fill="#ccc"/>
                </g>
              </g>
            </g>
            <g id="Grupo_172975" data-name="Grupo 172975" transform="translate(22.785 100.151)" style="mix-blend-mode: multiply;isolation: isolate">
              <g id="Grupo_172974" data-name="Grupo 172974">
                <g id="Grupo_172973" data-name="Grupo 172973" clip-path="url(#clip-path-43)">
                  <path id="Trazado_209715" data-name="Trazado 209715" d="M476.246,2047.649a9.536,9.536,0,0,0-1.456-2.807q-.193-.256-.4-.5a16.468,16.468,0,0,0-2.534-2.419q-.443-.335-.891-.614-.186-.116-.372-.221c-.078-.044-.156-.087-.233-.128q-.267-.142-.532-.26l-.067-.028v1.351l0,0,.124.066.006,0c.041.022.082.046.123.07l.018.01.119.069.089.054.077.047q.136.084.272.176l.065.043c.145.1.29.2.435.311l.087.066c.059.045.117.09.175.137.036.029.072.057.108.087l.01.008.125.1c.086.072.173.146.259.222l.1.091.1.093.1.094c.068.064.136.128.2.194l.1.1.068.067.067.067.11.112.086.089c.032.033.065.067.1.1q.289.3.569.631a8.433,8.433,0,0,1,1.274,1.989c.018.038.035.076.051.114l0,.007.019.043c.018.039.034.078.049.117q.114.276.207.555.033.1.063.2c.014.044.027.089.04.134s.023.082.034.124.023.085.033.128a7.243,7.243,0,0,1,.155,2.831c-.019.125-.042.249-.069.371h0a5.414,5.414,0,0,1-.428,1.245c-.031.065-.064.128-.1.191l0,.008q-.066.121-.14.237t-.158.235c-.055.076-.112.151-.171.224s-.121.143-.185.211c-.032.035-.065.068-.1.1a4.285,4.285,0,0,1-.369.328h0l-.069.053c-.046.035-.09.068-.136.1l-.068.047-.064.042-.013.009-.059.038-.049.03-.047.028-.06.035-.05.028-.065.035-.067.034c-.068.034-.135.065-.2.092l-.067.028c-.014.006-.027.011-.04.016l-.052.02-.089.031-.037.012-.049.015-.062.018-.1.025c-.036.009-.072.017-.108.024l-.008,0-.038.007c-.074.014-.148.026-.222.034l-.086.008-.072,0c-.057,0-.114.005-.17.005l-.1,0h-.039l-.065,0-.041,0c-.07-.005-.141-.014-.211-.024l-.047-.007-.03-.005-.04-.007-.056-.011-.048-.01-.082-.019c-.044-.01-.088-.022-.131-.034l-.048-.014-.007,0-.055-.017c-.056-.018-.113-.037-.169-.057l-.05-.019-.056-.021-.055-.022-.063-.026c-.052-.022-.1-.045-.157-.07l-.11-.053-.067-.033-.039-.02,0,0-.052-.026-.011-.006c-.06-.033-.119-.065-.179-.1l-.007,0c-.061-.036-.122-.073-.183-.111-.1-.065-.209-.135-.313-.208l-.062-.044,0,0-.095-.068-.047-.035-.1-.076c-.269-.2-.537-.431-.806-.672l-.089-.081c-.039-.036-.078-.071-.117-.109-.025-.021-.049-.044-.072-.067q-.193-.182-.388-.375l-.088-.088-.19-.191-.1-.1-.1-.1c-.064-.066-.128-.133-.191-.2l-.1-.1q-.192-.2-.384-.409l-.317-.343a3.877,3.877,0,0,0-1.06.025,3.532,3.532,0,0,0-.456.108c.085.1.171.2.258.3a30.151,30.151,0,0,0,3.189,3.169,8.576,8.576,0,0,0,1.772,1.135q.139.064.278.12l0,0a5.2,5.2,0,0,0,.828.255,4.41,4.41,0,0,0,.936.1c.11,0,.219,0,.328-.014a4.206,4.206,0,0,0,1.188-.27,5.02,5.02,0,0,0,1.1-.586c.1-.066.191-.136.286-.211q.191-.149.367-.317a6.281,6.281,0,0,0,1.855-4.016,8.739,8.739,0,0,0-.4-3.5" transform="translate(-464.259 -2040.67)" fill="#ccc"/>
                </g>
              </g>
            </g>
            <g id="Grupo_172978" data-name="Grupo 172978" transform="translate(24.262 105.336)" style="mix-blend-mode: screen;isolation: isolate">
              <g id="Grupo_172977" data-name="Grupo 172977">
                <g id="Grupo_172976" data-name="Grupo 172976" clip-path="url(#clip-path-44)">
                  <path id="Trazado_209716" data-name="Trazado 209716" d="M500.561,2149.863a5,5,0,0,0-2.366-3.215c-.983-.353-2.3-.6-2.962.282a5.431,5.431,0,0,0-.77,1.8,2.952,2.952,0,0,0,.272,2.2l.047.08a6.321,6.321,0,0,0,1.426,1.68c1.207.948,1.709,1.448,2.856.566a4.056,4.056,0,0,0,1.5-3.385" transform="translate(-494.364 -2146.327)" fill="#666"/>
                </g>
              </g>
            </g>
            <g id="Grupo_172981" data-name="Grupo 172981" transform="translate(78.228 90.339)" style="mix-blend-mode: screen;isolation: isolate">
              <g id="Grupo_172980" data-name="Grupo 172980">
                <g id="Grupo_172979" data-name="Grupo 172979" clip-path="url(#clip-path-45)">
                  <path id="Trazado_209717" data-name="Trazado 209717" d="M1597.9,1849.413a6.559,6.559,0,0,1-1.4-.264c-.836-.249-1.227-.818-1.761-1.655s-.623-3.113-.712-3.948a2.91,2.91,0,0,1,.48-2.224c.516-.712,2.241-.569,2.241-.569l.027.008a4.428,4.428,0,0,1,.739,2.607,47.4,47.4,0,0,0,.39,6.046" transform="translate(-1593.984 -1840.741)" fill="#666"/>
                </g>
              </g>
            </g>
            <path id="Trazado_209718" data-name="Trazado 209718" d="M1481.754,1811.308c-.442.021-1.013.793-1.554,1.751a13.913,13.913,0,0,0-1.779,6.557l-.274,13.222c-1.315-1.217-2.316-4.991-2.316-9.411a25.608,25.608,0,0,1,1.727-8.753,5.656,5.656,0,0,1,1.643-2.314,4.227,4.227,0,0,1,2.554-1.052" transform="translate(-1403.401 -1722.414)" fill="#fcb89d"/>
            <g id="Grupo_172984" data-name="Grupo 172984" transform="translate(71.281 89.364)" style="mix-blend-mode: multiply;isolation: isolate">
              <g id="Grupo_172983" data-name="Grupo 172983">
                <g id="Grupo_172982" data-name="Grupo 172982" clip-path="url(#clip-path-46)">
                  <path id="Trazado_209719" data-name="Trazado 209719" d="M1455.283,1823.787a5.837,5.837,0,0,1,.57-1.11v-1.787a6.871,6.871,0,0,0-1.642,2.482c-.122.317-.281.749-.453,1.277a26.209,26.209,0,0,0-1.351,7.889,25.865,25.865,0,0,0,.7,6.188,13.95,13.95,0,0,0,.651,2q.077.182.157.354a5.518,5.518,0,0,0,1.177,1.718l.761.7v-1.567c-.955-.9-1.742-3.158-2.1-6.026a27.672,27.672,0,0,1-.2-3.367,21.111,21.111,0,0,1,.2-2.842,27.139,27.139,0,0,1,1.526-5.91" transform="translate(-1452.406 -1820.891)" fill="#ccc"/>
                </g>
              </g>
            </g>
          </g>
        </g>
      </g>
    </g>
  </g>
</svg>
