<svg xmlns="http://www.w3.org/2000/svg" xmlns:xlink="http://www.w3.org/1999/xlink" width="438" height="298" viewBox="0 0 438 298">
  <defs>
    <clipPath id="clip-path">
      <rect id="Rectángulo_50358" data-name="Rectángulo 50358" width="298" height="438" transform="translate(0.333)" fill="#fff" stroke="#707070" stroke-width="1" opacity="0.325"/>
    </clipPath>
    <clipPath id="clip-path-2">
      <rect id="Rectángulo_50383" data-name="Rectángulo 50383" width="371.988" height="255.784" fill="none"/>
    </clipPath>
  </defs>
  <g id="Grupo_1036429" data-name="Grupo 1036429" transform="translate(-882 6914)">
    <g id="Grupo_173126" data-name="Grupo 173126" transform="translate(1320 -6914.333) rotate(90)" clip-path="url(#clip-path)">
      <path id="Trazado_210080" data-name="Trazado 210080" d="M0,63.365a334.489,334.489,0,0,0,69.788,113.2C163.669,276.943,314.071,313.8,453.707,302.882c72.008-5.631,143.938-22.473,215.71-14.5s146.642,49.374,162.772,117.356c8.159,34.387.325,70.873,8.285,105.3s43.926,68.313,77.561,54.514c27.342-11.219,38.437-48.324,67.6-53.793,26.087-4.891,49.182,21.019,51.808,46.546s-8.428,50.226-16.6,74.639C999.541,696.62,997.441,767.318,1022,829.891s77.267,115.8,143.379,135.9c22.241,6.764,46.379,9.776,68.881,3.872,42.434-11.132,70.458-52.055,79.254-93.646s2.27-84.555-2.045-126.8a1202.7,1202.7,0,0,1,15.5-349.323c11.916-61.833,28.6-126.338,9.335-186.419-25.592-79.834-107.793-129.689-188.933-158.825C975.6-7.031,786.814-6.914,604.263,8.816S239.855,55.1,0,63.365Z" transform="translate(-998.968 -575.738)" fill="#81d4fa" opacity="0.418"/>
    </g>
    <g id="Grupo_173128" data-name="Grupo 173128" transform="translate(921.87 -6903.39)">
      <g id="Enmascarar_grupo_173127" data-name="Enmascarar grupo 173127" transform="translate(0 -0.002)" clip-path="url(#clip-path-2)">
        <path id="Trazado_210082" data-name="Trazado 210082" d="M1300.562,126.883a1.552,1.552,0,0,1-.459,1.107,1.544,1.544,0,0,1-1.112.464h-36.759l-.127-.01a1.568,1.568,0,0,1-1.444-1.561l.015-.189a1.561,1.561,0,0,1,.444-.923,1.585,1.585,0,0,1,1.112-.459h36.759a1.572,1.572,0,0,1,1.572,1.572" transform="translate(-1025.334 -101.919)" fill="#36120d"/>
        <rect id="Rectángulo_50360" data-name="Rectángulo 50360" width="41.902" height="24.438" transform="translate(234.327 0)" fill="#dfe4f5"/>
        <rect id="Rectángulo_50361" data-name="Rectángulo 50361" width="22.315" height="24.438" transform="translate(253.913 0)" fill="#bdcbe9"/>
        <rect id="Rectángulo_50362" data-name="Rectángulo 50362" width="37.269" height="9.841" transform="translate(236.771 26.055)" fill="#e8e8e8"/>
        <path id="Trazado_210083" data-name="Trazado 210083" d="M1201.752,247.509v134.03h-99.174V247.509c1.944-42.616,23.061-66.559,31.229-74.283a42.157,42.157,0,0,1,3.2-2.79l13.336-1.357,1.928-.2v-.031l.174.016.168-.016v.031l15.1,1.556s1.173.9,3.092,2.724c8.025,7.642,29.029,31.606,30.953,74.349" transform="translate(-896.76 -137.33)" fill="#f6f6f6"/>
        <path id="Trazado_210084" data-name="Trazado 210084" d="M1150.673,138.921s-.117.235-.332.77c-.3.745-.775,2.071-1.367,4.148-2.638,9.311-7.5,33.672-8.092,88.144-.449,41.116-.408,77.263-.281,101.6.041,7.316.087,13.571.133,18.566h-38.157V218.122c1.944-42.616,23.061-66.559,31.229-74.283h-.276v-9.372a1.568,1.568,0,0,1-1.444-1.561l.015-.189,3.827,1.281,1.439.48Z" transform="translate(-896.76 -107.942)" fill="#e8e8e8"/>
        <path id="Trazado_210085" data-name="Trazado 210085" d="M1149.879,273.637c1.125-1.953,6.053-1,8-1.024,3.3-.039,6.593-.09,9.888-.179,6.444-.174,12.887-.482,19.307-1.083,2.92-.273,5.348.359,8.278.664,1.525.159,3.413-.2,4.883.068,1.351.242,2.36-.072,3.517,1.011a9.554,9.554,0,0,1,1.845,2.764,146.576,146.576,0,0,1,12.034,33.321,131.9,131.9,0,0,1,3.155,16.173c.644,6.547.617,13.135.617,19.706V456.31h-89.377V352.169c0-11.854-.106-23.246,2-35a134.951,134.951,0,0,1,15.859-43.535" transform="translate(-920.709 -220.644)" fill="#afafaf"/>
        <path id="Trazado_210086" data-name="Trazado 210086" d="M1282.042,270.6c0,1.445-11.921,2.617-26.626,2.617s-26.626-1.172-26.626-2.617,11.921-2.617,26.626-2.617,26.626,1.172,26.626,2.617" transform="translate(-999.412 -217.959)" fill="#636363"/>
        <path id="Trazado_210087" data-name="Trazado 210087" d="M1130.1,425.092c-4.517,17.715-4.994,36.1-4.891,54.281.107,18.917.377,37.834.572,56.75q.165,16.01.33,32.019a1.276,1.276,0,0,0,2.551,0q-.292-28.307-.585-56.613-.145-14.07-.288-28.14c-.082-9.074-.094-18.155.407-27.218a158.186,158.186,0,0,1,4.363-30.4,1.277,1.277,0,0,0-2.46-.679" transform="translate(-915.159 -345.002)" fill="#ff9d00"/>
        <path id="Trazado_210088" data-name="Trazado 210088" d="M1357.333,664.492V766.1H1305.9c-.128-24.341-.168-60.487.281-101.6Z" transform="translate(-1062.06 -540.451)" fill="#dfe4f5"/>
        <path id="Trazado_210089" data-name="Trazado 210089" d="M1180.9,766.1H1152.13v-101.6h29.055c-.449,41.116-.408,77.263-.281,101.6" transform="translate(-937.062 -540.451)" fill="#fff"/>
        <path id="Trazado_210090" data-name="Trazado 210090" d="M1280.978,156.911V161.6a1.182,1.182,0,1,0,2.364,0v-4.689a1.182,1.182,0,1,0-2.364,0" transform="translate(-1041.858 -126.658)" fill="#fff"/>
        <path id="Trazado_210091" data-name="Trazado 210091" d="M1153.641,506.443a243.516,243.516,0,0,0-1.8,37.906,1.183,1.183,0,0,0,2.365,0,239.687,239.687,0,0,1,1.716-37.277c.2-1.488-2.076-2.132-2.28-.629" transform="translate(-936.763 -411.208)" fill="#fff"/>
        <path id="Trazado_210092" data-name="Trazado 210092" d="M1174.042,419.024a60.66,60.66,0,0,1,2.659-10.609,1.183,1.183,0,0,0-2.28-.629,60.733,60.733,0,0,0-2.66,10.609,1.22,1.22,0,0,0,.826,1.454,1.192,1.192,0,0,0,1.455-.826" transform="translate(-953.013 -330.958)" fill="#fff"/>
        <rect id="Rectángulo_50363" data-name="Rectángulo 50363" width="28.05" height="1.388" transform="translate(264.345 212.301)" fill="#0f2238"/>
        <rect id="Rectángulo_50364" data-name="Rectángulo 50364" width="28.05" height="1.388" transform="translate(264.345 215.122)" fill="#0f2238"/>
        <rect id="Rectángulo_50365" data-name="Rectángulo 50365" width="28.05" height="1.388" transform="translate(264.345 217.944)" fill="#0f2238"/>
        <rect id="Rectángulo_50366" data-name="Rectángulo 50366" width="28.05" height="1.393" transform="translate(264.345 220.591)" fill="#0f2238"/>
        <path id="Trazado_210093" data-name="Trazado 210093" d="M1267.291,40V22.413a1.183,1.183,0,0,0-2.365,0V40a1.183,1.183,0,0,0,2.365,0" transform="translate(-1028.803 -17.3)" fill="#fff"/>
        <path id="Trazado_210094" data-name="Trazado 210094" d="M1291.715,40V22.413a1.183,1.183,0,0,0-2.365,0V40a1.183,1.183,0,0,0,2.365,0" transform="translate(-1048.667 -17.3)" fill="#fff"/>
        <path id="Trazado_210095" data-name="Trazado 210095" d="M1316.138,40V22.413a1.183,1.183,0,0,0-2.365,0V40a1.183,1.183,0,0,0,2.365,0" transform="translate(-1068.531 -17.3)" fill="#fff"/>
        <path id="Trazado_210096" data-name="Trazado 210096" d="M1340.562,40V22.413a1.183,1.183,0,0,0-2.364,0V40a1.183,1.183,0,0,0,2.364,0" transform="translate(-1088.397 -17.3)" fill="#fff"/>
        <path id="Trazado_210097" data-name="Trazado 210097" d="M1364.984,40V22.413a1.183,1.183,0,0,0-2.365,0V40a1.183,1.183,0,0,0,2.365,0" transform="translate(-1108.26 -17.3)" fill="#fff"/>
        <path id="Trazado_210098" data-name="Trazado 210098" d="M1389.408,40V22.413a1.183,1.183,0,0,0-2.365,0V40a1.183,1.183,0,0,0,2.365,0" transform="translate(-1128.124 -17.3)" fill="#fff"/>
        <path id="Trazado_210099" data-name="Trazado 210099" d="M1413.832,40V22.413a1.183,1.183,0,0,0-2.365,0V40a1.183,1.183,0,0,0,2.365,0" transform="translate(-1147.989 -17.3)" fill="#fff"/>
        <path id="Trazado_210100" data-name="Trazado 210100" d="M1438.255,40V22.413a1.183,1.183,0,0,0-2.364,0V40a1.183,1.183,0,0,0,2.364,0" transform="translate(-1167.854 -17.3)" fill="#fff"/>
        <path id="Trazado_210101" data-name="Trazado 210101" d="M1462.677,40V22.413a1.183,1.183,0,0,0-2.365,0V40a1.183,1.183,0,0,0,2.365,0" transform="translate(-1187.716 -17.3)" fill="#fff"/>
        <path id="Trazado_210102" data-name="Trazado 210102" d="M505.3,439.007H421.152l-13.786,7.217V601.265H519.02V446.224Z" transform="translate(-331.323 -357.057)" fill="#ff9d00"/>
        <path id="Trazado_210103" data-name="Trazado 210103" d="M579.1,446.227V601.272H545.484V590.522h27.509V481.889H545.484V444.436l-64.257-5.423h84.144Z" transform="translate(-391.396 -357.062)" fill="#ea5f22" opacity="0.42"/>
        <rect id="Rectángulo_50367" data-name="Rectángulo 50367" width="88.958" height="30.25" transform="translate(87.738 51.7)" fill="#dfe4f5"/>
        <path id="Trazado_210104" data-name="Trazado 210104" d="M491.207,296.595v24.1a.957.957,0,0,0,1.913,0v-24.1a.957.957,0,0,0-1.913,0" transform="translate(-399.514 -240.477)" fill="#fff"/>
        <path id="Trazado_210105" data-name="Trazado 210105" d="M530.189,296.595v24.1a.957.957,0,0,0,1.913,0v-24.1a.957.957,0,0,0-1.913,0" transform="translate(-431.219 -240.477)" fill="#fff"/>
        <path id="Trazado_210106" data-name="Trazado 210106" d="M569.171,296.595v24.1a.957.957,0,0,0,1.914,0v-24.1a.957.957,0,0,0-1.914,0" transform="translate(-462.924 -240.477)" fill="#fff"/>
        <path id="Trazado_210107" data-name="Trazado 210107" d="M608.152,296.595v24.1a.957.957,0,0,0,1.913,0v-24.1a.957.957,0,0,0-1.913,0" transform="translate(-494.629 -240.477)" fill="#fff"/>
        <path id="Trazado_210108" data-name="Trazado 210108" d="M647.134,296.595v24.1a.957.957,0,0,0,1.914,0v-24.1a.957.957,0,0,0-1.914,0" transform="translate(-526.334 -240.477)" fill="#fff"/>
        <path id="Trazado_210109" data-name="Trazado 210109" d="M686.118,296.595v24.1a.957.957,0,0,0,1.913,0v-24.1a.957.957,0,0,0-1.913,0" transform="translate(-558.041 -240.477)" fill="#fff"/>
        <path id="Trazado_210110" data-name="Trazado 210110" d="M725.1,296.595v24.1a.957.957,0,0,0,1.913,0v-24.1a.957.957,0,0,0-1.913,0" transform="translate(-589.746 -240.477)" fill="#fff"/>
        <path id="Trazado_210111" data-name="Trazado 210111" d="M764.081,296.595v24.1a.957.957,0,0,0,1.913,0v-24.1a.957.957,0,0,0-1.913,0" transform="translate(-621.45 -240.477)" fill="#fff"/>
        <path id="Trazado_210112" data-name="Trazado 210112" d="M803.063,296.595v24.1a.957.957,0,0,0,1.913,0v-24.1a.957.957,0,0,0-1.913,0" transform="translate(-653.155 -240.477)" fill="#fff"/>
        <path id="Trazado_210113" data-name="Trazado 210113" d="M842.045,296.595v24.1a.957.957,0,0,0,1.913,0v-24.1a.957.957,0,0,0-1.913,0" transform="translate(-684.861 -240.477)" fill="#fff"/>
        <path id="Trazado_210114" data-name="Trazado 210114" d="M881.027,296.595v24.1a.957.957,0,0,0,1.913,0v-24.1a.957.957,0,0,0-1.913,0" transform="translate(-716.566 -240.477)" fill="#fff"/>
        <path id="Trazado_210115" data-name="Trazado 210115" d="M920.009,296.595v24.1a.957.957,0,0,0,1.913,0v-24.1a.957.957,0,0,0-1.913,0" transform="translate(-748.271 -240.477)" fill="#fff"/>
        <rect id="Rectángulo_50368" data-name="Rectángulo 50368" width="24.491" height="108.633" transform="translate(154.088 124.826)" fill="#dfe4f5"/>
        <rect id="Rectángulo_50369" data-name="Rectángulo 50369" width="66.35" height="108.633" transform="translate(87.738 124.826)" fill="#fff"/>
        <path id="Trazado_210116" data-name="Trazado 210116" d="M436.988,474.028h92.918a1.276,1.276,0,0,0,0-2.551H436.988a1.276,1.276,0,0,0,0,2.551" transform="translate(-354.414 -383.466)" fill="#feab35"/>
        <path id="Trazado_210117" data-name="Trazado 210117" d="M438.1,523.922v7.816a1.275,1.275,0,0,0,2.551,0v-7.816a1.275,1.275,0,1,0-2.551,0" transform="translate(-356.319 -425.083)" fill="#feab35"/>
        <path id="Trazado_210118" data-name="Trazado 210118" d="M438.1,619.016V738.333a1.276,1.276,0,0,0,2.551,0V619.016a1.276,1.276,0,0,0-2.551,0" transform="translate(-356.319 -502.462)" fill="#feab35"/>
        <rect id="Rectángulo_50370" data-name="Rectángulo 50370" width="36.646" height="2.367" transform="translate(135.765 208.573)" fill="#36120d"/>
        <rect id="Rectángulo_50371" data-name="Rectángulo 50371" width="36.646" height="2.367" transform="translate(135.765 213.385)" fill="#36120d"/>
        <rect id="Rectángulo_50372" data-name="Rectángulo 50372" width="36.646" height="2.367" transform="translate(135.765 218.197)" fill="#36120d"/>
        <rect id="Rectángulo_50373" data-name="Rectángulo 50373" width="36.646" height="2.376" transform="translate(135.765 222.713)" fill="#36120d"/>
        <path id="Trazado_210160" data-name="Trazado 210160" d="M0,0H39.6V44.809H0Z" transform="translate(90.697 130.622)" fill="#7e5ee3"/>
        <path id="Trazado_210119" data-name="Trazado 210119" d="M493.3,965.518h35.952a1.276,1.276,0,0,0,0-2.551H493.3a1.276,1.276,0,0,0,0,2.551" transform="translate(-400.21 -783.21)" fill="#7e5ee3"/>
        <path id="Trazado_210120" data-name="Trazado 210120" d="M539.351,991.337h27.615a1.276,1.276,0,0,0,0-2.551H539.351a1.276,1.276,0,0,0,0,2.551" transform="translate(-437.668 -804.209)" fill="#7e5ee3"/>
        <path id="Trazado_210121" data-name="Trazado 210121" d="M519.812,1015.062H551.2a1.276,1.276,0,0,0,0-2.551H519.812a1.276,1.276,0,0,0,0,2.551" transform="translate(-421.777 -823.506)" fill="#7e5ee3"/>
        <path id="Trazado_210122" data-name="Trazado 210122" d="M1608.891,881.184l.246,64.432c0,2.544-1.739,4.625-3.864,4.625H1556.02c-2.125,0-3.864-2.081-3.864-4.625l-.246-64.432a5.061,5.061,0,0,1,1.288-3.434l7.606-9.289.316-.385h38.56l8.032,9.794.1.123.006.008a5.108,5.108,0,0,1,1.072,3.184" transform="translate(-1262.216 -706.031)" fill="#e8e8e8"/>
        <path id="Trazado_210123" data-name="Trazado 210123" d="M1627.052,945.613c0,2.544-1.738,4.626-3.866,4.626h-49.249l29.764-3.419,1.534-6.8,16.262.023-.227-57.089-3.149,0,.3-1.334-39.7-13.163.317-.385h38.56l8.029,9.794.1.123.008.008a5.11,5.11,0,0,1,1.071,3.184Z" transform="translate(-1280.131 -706.03)" fill="#afafaf"/>
        <path id="Trazado_210124" data-name="Trazado 210124" d="M1757.867,1004.889l-16.262-.023,12.885-57.069,3.149,0Z" transform="translate(-1416.501 -770.872)" fill="#dfe4f5"/>
        <path id="Trazado_210125" data-name="Trazado 210125" d="M1625.125,947.528,1612.24,1004.6l-29.464-.039-.227-57.092Z" transform="translate(-1287.135 -770.603)" fill="#fff"/>
        <rect id="Rectángulo_50375" data-name="Rectángulo 50375" width="22.126" height="1.312" transform="translate(317.603 221.903)" fill="#bdcbe9"/>
        <rect id="Rectángulo_50376" data-name="Rectángulo 50376" width="22.126" height="1.312" transform="translate(317.603 224.568)" fill="#bdcbe9"/>
        <rect id="Rectángulo_50377" data-name="Rectángulo 50377" width="22.126" height="1.312" transform="translate(317.603 227.233)" fill="#bdcbe9"/>
        <rect id="Rectángulo_50378" data-name="Rectángulo 50378" width="22.126" height="1.312" transform="translate(317.603 229.733)" fill="#bdcbe9"/>
        <path id="Trazado_210126" data-name="Trazado 210126" d="M1563.625,928.736h51.635a.881.881,0,0,0,0-1.762h-51.635a.881.881,0,0,0,0,1.762" transform="translate(-1271.052 -753.936)" fill="#36120d"/>
        <path id="Trazado_210127" data-name="Trazado 210127" d="M1639.81,806.313l-2.714-14.175H1603.91l-2.661,14.175Z" transform="translate(-1302.345 -644.27)" fill="#afafaf"/>
        <path id="Trazado_210128" data-name="Trazado 210128" d="M1579.786,888.865l3.506-3.981a.893.893,0,0,0-1.263-1.263l-3.506,3.981a.893.893,0,0,0,1.263,1.263" transform="translate(-1283.653 -718.466)" fill="#fff"/>
        <path id="Trazado_210129" data-name="Trazado 210129" d="M1614.419,843.419q.249-1.181.5-2.361a.948.948,0,0,0-.09-.688.892.892,0,0,0-1.222-.321.893.893,0,0,0-.411.534q-.248,1.181-.5,2.361a.952.952,0,0,0,.09.688.892.892,0,0,0,1.222.32.888.888,0,0,0,.411-.533" transform="translate(-1311.634 -683.141)" fill="#fff"/>
        <path id="Trazado_210130" data-name="Trazado 210130" d="M1671.3,633.258v-24.02a9.731,9.731,0,0,0-9.7-9.7h-1.052a9.731,9.731,0,0,0-9.7,9.7v24.02Z" transform="translate(-1342.68 -487.62)" fill="#ff9d00"/>
        <path id="Trazado_210131" data-name="Trazado 210131" d="M1623.516,770.065h-37.13a5.17,5.17,0,0,1,0-10.341h37.13a5.17,5.17,0,0,1,0,10.341" transform="translate(-1286.051 -617.906)" fill="#e13510"/>
        <path id="Trazado_210132" data-name="Trazado 210132" d="M1661.39,607.794c-4.07,1.649-4.574,6.1-4.72,9.964q-.292,7.666-.02,15.339c.039,1.13,1.8,1.136,1.761,0q-.222-6.505-.055-13.016c.091-3.375-.376-9.017,3.5-10.588,1.037-.42.584-2.125-.468-1.7" transform="translate(-1347.299 -494.282)" fill="#fff"/>
        <path id="Trazado_210133" data-name="Trazado 210133" d="M1562.19,956.789v52.158a.964.964,0,0,0,1.927,0V956.789a.964.964,0,0,0-1.927,0" transform="translate(-1270.577 -777.428)" fill="#ff9d00"/>
        <path id="Trazado_210134" data-name="Trazado 210134" d="M960.735,755.706a27.752,27.752,0,0,0,3.19-5.761,15.609,15.609,0,0,0,.318-6.614,32.965,32.965,0,0,0-1.181-5.886c-.426-1.371-.975-2.7-1.524-4.026-1.1-2.65-2.275-5.268-3.414-7.9a6.622,6.622,0,0,0-2.212-3.179c-1.322-.832-3.267.367-4.218,1.368a19.97,19.97,0,0,0-2.438,3.905c-1.4,2.4-2.661,4.888-3.883,7.387-1.544,3.158-3.059,6.464-3.138,9.978a12.952,12.952,0,0,0,2.546,7.921c1.756,2.37,4.451,4.82,2.78,8.09-.707,1.385,1.633.929,2.649.928,1.308,0,2.617.037,3.926.041.717,0,6.554.308,6.761-.411a.478.478,0,0,0-.083-.342l-.707-1.334c-.739-1.395-.2-2.8.628-4.166" transform="translate(-766.346 -587.275)" fill="#e8e8e8"/>
        <path id="Trazado_210135" data-name="Trazado 210135" d="M955.89,931.612q0,5.706,0,11.412v45.806H926.382V931.61c0-1.9-.261-4.031.464-5.835a10.819,10.819,0,0,1,3.29-3.891l4.126-3.543a14.039,14.039,0,0,1,2.521-2.165c1.036-.473,2.677-.389,3.814-.557l.57-.084v-.013l.052.006.05-.006v.013l4.492.664c.233.035.634.813.778.971.594.654,1.292,1.242,1.929,1.858L953,923.4a9.994,9.994,0,0,1,1.659,1.9,7.737,7.737,0,0,1,.948,3.588,25.166,25.166,0,0,1,.286,2.722" transform="translate(-753.417 -744.622)" fill="#e8e8e8"/>
        <path id="Trazado_210136" data-name="Trazado 210136" d="M940.932,761.855c-.232,1.614-.626,3.213-.956,4.62a61.047,61.047,0,0,0-1.768,8.779c-.247,2.934-.283,5.867-.306,8.824-.133,17.553-.121,32.985-.083,43.377.012,3.123.026,5.794.039,7.926H926.506V778.16c.094-2.956-.5-5.106,1.4-7.485a31.62,31.62,0,0,1,4.816-4.337,7.355,7.355,0,0,0,1.938-1.988,3.735,3.735,0,0,0,.147-2.909,12.627,12.627,0,0,0-2.064-3.347,17.323,17.323,0,0,1-3.153-5.73,13.012,13.012,0,0,1,.091-6.5,32.467,32.467,0,0,1,2.366-6.117c1.256-2.632,2.6-5.222,3.976-7.793a21.732,21.732,0,0,1,2.4-3.805c.65-.773,1.781-1.6,2.854-1.187.93.356,1.169,1.658,1.066,2.559a23.534,23.534,0,0,1-1.77,5.661c-2,5.211-3.17,11.008-1.616,16.369.509,1.756,1.364,3.423,1.846,5.174a12.81,12.81,0,0,1,.121,5.13" transform="translate(-753.541 -591.172)" fill="#afafaf"/>
        <rect id="Rectángulo_50379" data-name="Rectángulo 50379" width="26.594" height="44.46" transform="translate(174.6 196.102)" fill="#15d3ec"/>
        <rect id="Rectángulo_50380" data-name="Rectángulo 50380" width="18.663" height="13.589" transform="translate(182.53 204.742)" fill="#fff"/>
        <path id="Trazado_210137" data-name="Trazado 210137" d="M961.937,1043.88c0,.733-5.953,1.327-13.3,1.327s-13.3-.594-13.3-1.327,5.953-1.327,13.3-1.327,13.3.594,13.3,1.327" transform="translate(-760.743 -847.94)" fill="#727997"/>
        <path id="Trazado_210138" data-name="Trazado 210138" d="M978.284,755.282l-.748,1.567a.657.657,0,0,0-.1.328.665.665,0,0,0,.016.351.9.9,0,0,0,.4.527.886.886,0,0,0,.679.089.867.867,0,0,0,.527-.4l.748-1.567a.654.654,0,0,0,.1-.327.663.663,0,0,0-.016-.352.882.882,0,0,0-1.084-.615.868.868,0,0,0-.527.405" transform="translate(-794.962 -613.936)" fill="#fff"/>
        <path id="Trazado_210139" data-name="Trazado 210139" d="M950.7,791.193c-2.479,4.1-4.373,9-2.5,13.72.414,1.042,2.118.587,1.7-.469-1.708-4.3.065-8.633,2.32-12.363a.882.882,0,0,0-1.522-.889" transform="translate(-770.587 -643.16)" fill="#fff"/>
        <path id="Trazado_210142" data-name="Trazado 210142" d="M297.242,755.706a27.746,27.746,0,0,0,3.19-5.761,15.615,15.615,0,0,0,.319-6.614,32.939,32.939,0,0,0-1.181-5.886c-.426-1.371-.975-2.7-1.523-4.026-1.1-2.65-2.275-5.268-3.414-7.9a6.629,6.629,0,0,0-2.213-3.179c-1.322-.832-3.267.367-4.218,1.368a19.986,19.986,0,0,0-2.438,3.905c-1.4,2.4-2.661,4.888-3.883,7.387-1.544,3.158-3.058,6.464-3.137,9.978a12.951,12.951,0,0,0,2.546,7.921c1.755,2.37,4.45,4.82,2.78,8.09-.707,1.385,1.633.929,2.649.928,1.308,0,2.617.037,3.926.041.717,0,6.554.308,6.761-.411a.478.478,0,0,0-.084-.342l-.707-1.334c-.739-1.395-.2-2.8.629-4.166" transform="translate(-226.708 -587.275)" fill="#e8e8e8"/>
        <path id="Trazado_210143" data-name="Trazado 210143" d="M292.4,931.612q0,5.706,0,11.412v45.806H262.889V931.61c0-1.9-.262-4.031.464-5.835a10.824,10.824,0,0,1,3.291-3.891l4.126-3.543a14.048,14.048,0,0,1,2.521-2.165c1.036-.473,2.677-.389,3.814-.557l.571-.084v-.013l.051.006.05-.006v.013l4.492.664c.233.035.635.813.778.971.594.654,1.292,1.242,1.929,1.858l4.53,4.377a9.969,9.969,0,0,1,1.658,1.9,7.74,7.74,0,0,1,.949,3.588,25.423,25.423,0,0,1,.286,2.722" transform="translate(-213.778 -744.622)" fill="#e8e8e8"/>
        <path id="Trazado_210144" data-name="Trazado 210144" d="M277.439,761.855c-.232,1.614-.625,3.213-.956,4.62a61.1,61.1,0,0,0-1.768,8.779c-.246,2.934-.283,5.867-.3,8.824-.134,17.553-.122,32.985-.084,43.377.012,3.123.026,5.794.04,7.926H263.012V778.16c.094-2.956-.5-5.106,1.4-7.485a31.633,31.633,0,0,1,4.816-4.337,7.346,7.346,0,0,0,1.939-1.988,3.733,3.733,0,0,0,.147-2.909,12.62,12.62,0,0,0-2.064-3.347,17.327,17.327,0,0,1-3.153-5.73,13,13,0,0,1,.091-6.5,32.393,32.393,0,0,1,2.366-6.117c1.256-2.632,2.6-5.222,3.976-7.793a21.726,21.726,0,0,1,2.4-3.805c.65-.773,1.781-1.6,2.854-1.187.93.356,1.169,1.658,1.067,2.559a23.521,23.521,0,0,1-1.771,5.661c-2,5.211-3.169,11.008-1.616,16.369.509,1.756,1.365,3.423,1.847,5.174a12.8,12.8,0,0,1,.12,5.13" transform="translate(-213.902 -591.172)" fill="#afafaf"/>
        <rect id="Rectángulo_50381" data-name="Rectángulo 50381" width="26.593" height="44.46" transform="translate(50.746 196.102)" fill="#15d3ec"/>
        <rect id="Rectángulo_50382" data-name="Rectángulo 50382" width="18.663" height="13.589" transform="translate(58.676 204.742)" fill="#fff"/>
        <path id="Trazado_210145" data-name="Trazado 210145" d="M298.442,1043.88c0,.733-5.953,1.327-13.3,1.327s-13.3-.594-13.3-1.327,5.953-1.327,13.3-1.327,13.3.594,13.3,1.327" transform="translate(-221.103 -847.94)" fill="#727997"/>
        <path id="Trazado_210146" data-name="Trazado 210146" d="M314.791,755.282l-.748,1.567a.655.655,0,0,0-.1.328.663.663,0,0,0,.015.351.9.9,0,0,0,.4.527.886.886,0,0,0,.679.089.867.867,0,0,0,.526-.4l.748-1.567a.649.649,0,0,0,.1-.327.671.671,0,0,0-.016-.352.9.9,0,0,0-.405-.526.889.889,0,0,0-.679-.089.865.865,0,0,0-.526.405" transform="translate(-255.323 -613.936)" fill="#fff"/>
        <path id="Trazado_210147" data-name="Trazado 210147" d="M287.209,791.193c-2.479,4.1-4.372,9-2.5,13.72.414,1.042,2.119.587,1.7-.469-1.708-4.3.065-8.633,2.32-12.363a.882.882,0,0,0-1.522-.889" transform="translate(-230.947 -643.16)" fill="#fff"/>
        <path id="Trazado_210150" data-name="Trazado 210150" d="M938.634,1209.433l-108.136,7.68c-3.359.239-6.264-1.776-6.456-4.476l-.867-12.2c-.192-2.7,2.4-5.1,5.758-5.343l108.136-7.681c.091-.006.178-.012.27-.011a6.053,6.053,0,0,1,.773.011c2.9.193,5.241,2.062,5.412,4.476l.867,12.205a4.161,4.161,0,0,1-.692,2.574,6.532,6.532,0,0,1-5.066,2.769" transform="translate(-669.505 -965.74)" fill="#dfe4f5"/>
        <path id="Trazado_210151" data-name="Trazado 210151" d="M1384.2,1205.3l-13.206.938,11.912-22.973.495-.956.278.967,5.588,19.255a6.532,6.532,0,0,1-5.066,2.769" transform="translate(-1115.068 -961.607)" fill="#bdcbe9"/>
        <path id="Trazado_210152" data-name="Trazado 210152" d="M746.866,1242.834a3.56,3.56,0,0,0,.84,1.817c1.487,1.822,5.213,2.755,7.68,3.635a95.691,95.691,0,0,0,9.37,2.81,7.97,7.97,0,0,0,2.215.316,2.75,2.75,0,0,0,2.666-1.923,22.315,22.315,0,0,0-2.27-18.81,2.311,2.311,0,0,0-.838-.9c-.909-.486-2.143-.018-3.1.452a99.032,99.032,0,0,0-11.818,6.607c-2.314,1.558-5.033,3.645-4.743,6" transform="translate(-607.432 -1000.048)" fill="#dfe4f5"/>
        <path id="Trazado_210153" data-name="Trazado 210153" d="M775.093,1255.363c-.439.38-.8.716-1.067.973a5.489,5.489,0,0,0-1.61,2.306c-.6,2.207,1.709,3.814,3.805,4.818a42.772,42.772,0,0,0,4.341,1.789c1.28.448,2.842.823,4.038.189a1.1,1.1,0,0,0,.665-.808,1.242,1.242,0,0,0-.192-.6c-1.528-3-2.1-7.229-.811-10.413a2.666,2.666,0,0,0,.313-1.986c-1.2-2.821-8.174,2.6-9.482,3.727" transform="translate(-628.151 -1017.339)" fill="#bdcbe9"/>
        <path id="Trazado_210154" data-name="Trazado 210154" d="M1523.349,1177.623l-54.95,3.9-1.945-27.394,54.95-3.9a13.065,13.065,0,0,1,13.915,12.07l.1,1.41a12.915,12.915,0,0,1-.073,2.578,13.077,13.077,0,0,1-12,11.337" transform="translate(-1192.711 -935.489)" fill="#6bcfc6"/>
        <path id="Trazado_210155" data-name="Trazado 210155" d="M1433.618,1170.862l-2.324-32.712a4.567,4.567,0,1,1,9.11-.647l2.323,32.712a4.566,4.566,0,1,1-9.11.647" transform="translate(-1164.106 -921.715)" fill="#15d3ec"/>
        <path id="Trazado_210156" data-name="Trazado 210156" d="M1644.356,1164.5c-3.291-6.88-13.035-5.254-19.213-4.916-6.777.37-13.56.841-20.311,1.556-1.5.159-1.514,2.525,0,2.365,6.3-.667,12.624-1.113,18.946-1.479,3.024-.175,6.057-.357,9.086-.388,3.54-.037,7.739.481,9.45,4.057.656,1.372,2.7.174,2.042-1.194" transform="translate(-1304.34 -942.789)" fill="#fff"/>
        <path id="Trazado_210157" data-name="Trazado 210157" d="M1527.129,1229.886l-53.49,3.8-1.621-2.161-.917-12.911,2.466-4.159c26.852,9.647,60.523,5.486,65.559,4.095a13.077,13.077,0,0,1-12,11.337" transform="translate(-1196.491 -987.752)" fill="#15d3ec"/>
        <path id="Trazado_210158" data-name="Trazado 210158" d="M881.379,1198.833q-24.7,1.754-49.412,3.455-12.472.864-24.943,1.73c-8.177.569-16.366,1.329-24.554,1.712a57.453,57.453,0,0,0-5.9.3,14.517,14.517,0,0,0-5.246,2.1c-3.537,2.108-7.1,4.191-10.55,6.44-1.27.827-.086,2.876,1.194,2.042,3.008-1.96,6.138-3.7,9.183-5.6a13.612,13.612,0,0,1,9.946-2.879c3.945-.069,7.9-.491,11.835-.766q6.005-.422,12.01-.839,24.478-1.705,48.956-3.4,13.738-.957,27.476-1.931c1.509-.107,1.521-2.473,0-2.365" transform="translate(-618.32 -975.044)" fill="#fff"/>
      </g>
    </g>
  </g>
</svg>
