<svg id="Grupo_168467" data-name="Grupo 168467" xmlns="http://www.w3.org/2000/svg" xmlns:xlink="http://www.w3.org/1999/xlink" width="105.895" height="105.895" viewBox="0 0 105.895 105.895">
  <defs>
    <clipPath id="clip-path">
      <path id="path531" d="M0-682.665H72.688v72.688H0Z" transform="translate(0 682.665)" fill="#fff"/>
    </clipPath>
  </defs>
  <circle id="Elipse_5382" data-name="Elipse 5382" cx="52.947" cy="52.947" r="52.947" fill="#4722bb"/>
  <g id="g525" transform="translate(17.711 697.269)">
    <g id="g527" transform="translate(0 -682.665)">
      <g id="g529" clip-path="url(#clip-path)">
        <g id="g535" transform="translate(31.462 9.268)">
          <path id="path537" d="M-160.773-196.556l8.918-17.846a3.854,3.854,0,0,0-1.231-4.875,3.854,3.854,0,0,0-5,.491l-20.595,21.571a8.371,8.371,0,0,0-1.246,1.687" transform="translate(179.932 219.978)" fill="none" stroke="#fff" stroke-linecap="round" stroke-linejoin="round" stroke-miterlimit="10" stroke-width="2"/>
        </g>
        <g id="g539" transform="translate(1.065 56.225)">
          <path id="path541" d="M-561.92-60.373h-63.364a3.6,3.6,0,0,1-3.6-3.6h0a3.6,3.6,0,0,1,3.6-3.6h63.364a3.6,3.6,0,0,1,3.6,3.6h0A3.6,3.6,0,0,1-561.92-60.373Z" transform="translate(628.881 67.568)" fill="none" stroke="#fff" stroke-linecap="round" stroke-linejoin="round" stroke-miterlimit="10" stroke-width="2"/>
        </g>
        <g id="g543" transform="translate(56.351 21.224)">
          <path id="path545" d="M-56.54-206.174a51.916,51.916,0,0,0,6.089-20.5,3.764,3.764,0,0,0-3.754-4.065h-9.073" transform="translate(63.277 230.742)" fill="none" stroke="#fff" stroke-linecap="round" stroke-linejoin="round" stroke-miterlimit="10" stroke-width="2"/>
        </g>
        <g id="g547" transform="translate(51.511 50)">
          <path id="path549" d="M0-52.236a19.293,19.293,0,0,0,8.922-6.225" transform="translate(0 58.461)" fill="none" stroke="#fff" stroke-linecap="round" stroke-linejoin="round" stroke-miterlimit="10" stroke-width="2"/>
        </g>
        <g id="g551" transform="translate(3.497 21.224)">
          <path id="path553" d="M-64.606,0h-3.932a3.764,3.764,0,0,0-3.754,4.065,51.914,51.914,0,0,0,7.748,23.349h0A18.307,18.307,0,0,0-55,35" transform="translate(72.305)" fill="none" stroke="#fff" stroke-linecap="round" stroke-linejoin="round" stroke-miterlimit="10" stroke-width="2"/>
        </g>
        <g id="g555" transform="translate(16.09 21.224)">
          <path id="path557" d="M-226.057,0H-253" transform="translate(252.995)" fill="none" stroke="#fff" stroke-linecap="round" stroke-linejoin="round" stroke-miterlimit="10" stroke-width="2"/>
        </g>
        <g id="g559" transform="translate(11.196 32.507)">
          <path id="path561" d="M-404.058-15.721c-5.751,0-5.751-1.873-11.5-1.873s-5.751,1.873-11.5,1.873-5.75-1.873-11.5-1.873-5.75,1.873-11.5,1.873a9.032,9.032,0,0,1-1.088-.065.954.954,0,0,0-1.009,1.251A46.35,46.35,0,0,0-447.42-4.424a12.665,12.665,0,0,0,10.793,5.974h18.605a13.687,13.687,0,0,0,11.37-6.045,46.367,46.367,0,0,0,4.693-10.041.954.954,0,0,0-1.009-1.251A9.083,9.083,0,0,1-404.058-15.721Z" transform="translate(452.207 17.595)" fill="none" stroke="#fff" stroke-linecap="round" stroke-linejoin="round" stroke-miterlimit="10" stroke-width="2"/>
        </g>
      </g>
    </g>
  </g>
</svg>
