<svg xmlns="http://www.w3.org/2000/svg" xmlns:xlink="http://www.w3.org/1999/xlink" width="505.001" height="425.842" viewBox="0 0 505.001 425.842">
  <defs>
    <clipPath id="clip-path">
      <rect id="Rectángulo_50173" data-name="Rectángulo 50173" width="505" height="406.74" fill="none"/>
    </clipPath>
    <clipPath id="clip-path-3">
      <rect id="Rectángulo_50129" data-name="Rectángulo 50129" width="66.64" height="31.238" fill="none"/>
    </clipPath>
    <clipPath id="clip-path-4">
      <rect id="Rectángulo_50147" data-name="Rectángulo 50147" width="48.027" height="38.554" fill="none"/>
    </clipPath>
  </defs>
  <g id="Grupo_1033652" data-name="Grupo 1033652" transform="translate(-180 -2152.992)">
    <g id="Grupo_172811" data-name="Grupo 172811" transform="translate(221.784 2152.991)">
      <g id="Grupo_171328" data-name="Grupo 171328" transform="translate(0 0)">
        <g id="Grupo_171324" data-name="Grupo 171324" transform="translate(87.329 64.502)">
          <path id="Trazado_207509" data-name="Trazado 207509" d="M2534.07,1357.009a.542.542,0,0,1,.024-.105,86.8,86.8,0,0,1,25.14-39.23c10.01-8.911,22.324-15.789,36.6-20.443,25.071-8.171,51.826-7.793,66.077-3.984a.67.67,0,0,1,.495.839.742.742,0,0,1-.9.465c-25.071-6.7-104.761-4.271-126.011,62.732a.742.742,0,0,1-.905.462A.675.675,0,0,1,2534.07,1357.009Z" transform="translate(-2534.064 -1290.642)" fill="#fcf7f2"/>
        </g>
        <g id="Grupo_171325" data-name="Grupo 171325" transform="translate(357.904 123.642)">
          <path id="Trazado_207510" data-name="Trazado 207510" d="M833.877,1604.272a.809.809,0,0,1,.115.025c16.9,4.916,31.116,12.986,42.242,23.986a89.975,89.975,0,0,1,21.41,33.982c8.291,23.128,7.193,47.577,2.663,60.506a.756.756,0,0,1-.929.431.659.659,0,0,1-.485-.838c7.969-22.748,7.351-95.66-65.351-116.8a.658.658,0,0,1-.482-.839A.746.746,0,0,1,833.877,1604.272Z" transform="translate(-833.026 -1604.264)" fill="#fcf7f2"/>
        </g>
        <g id="Grupo_171327" data-name="Grupo 171327" transform="translate(0 0)">
          <g id="Grupo_171326" data-name="Grupo 171326">
            <path id="Trazado_207511" data-name="Trazado 207511" d="M676.722,1346.983c-30.515-5.269-105.327-188.634,11.493-287.662,36.156-30.649,71.023-11.981,109.82-59.375,29.486-36.021,51.787-59.037,89.532-62.766,45.46-4.492,111.4,1.627,129.523,61.485,8.281,27.354,12.295,50.956,12.534,79.418.613,72.734,43.373,79.047,54.141,127.737,17.307,78.262-21,139.685-44.7,141.112C1016.93,1348.263,700.113,1350.387,676.722,1346.983Z" transform="translate(-624.903 -936.014)" fill="#e7f7ff"/>
          </g>
        </g>
      </g>
    </g>
    <g id="Grupo_172810" data-name="Grupo 172810" transform="translate(180 2171.094)">
      <g id="Grupo_172809" data-name="Grupo 172809" transform="translate(0 1)" clip-path="url(#clip-path)">
        <g id="Grupo_172808" data-name="Grupo 172808">
          <g id="Grupo_172807" data-name="Grupo 172807" clip-path="url(#clip-path)">
            <path id="Trazado_209445" data-name="Trazado 209445" d="M0,366.684c0-6.53,113.048-11.823,252.5-11.823S505,360.154,505,366.684s-113.048,11.823-252.5,11.823S0,373.215,0,366.684" transform="translate(0 28.232)" fill="#9eb9de"/>
            <rect id="Rectángulo_50127" data-name="Rectángulo 50127" width="56.446" height="71.316" transform="translate(175.634 48.554)" fill="#d6eeff"/>
            <path id="Trazado_209446" data-name="Trazado 209446" d="M271.316,72.582a8.808,8.808,0,1,0,8.807-8.808,8.808,8.808,0,0,0-8.807,8.808" transform="translate(-76.833 5.074)" fill="#15d3ec"/>
            <path id="Trazado_209447" data-name="Trazado 209447" d="M276.354,57.176c.144-.911.8-1.565,1.456-1.461s1.081.927.936,1.838a2.08,2.08,0,0,1-.437,1.005,3.119,3.119,0,0,0-.675,1.65l-.788,6.854-1.613-.255,1.361-6.763a3.12,3.12,0,0,0-.134-1.778,2.079,2.079,0,0,1-.107-1.09" transform="translate(-70.906 4.432)" fill="#519fd6"/>
            <path id="Trazado_209448" data-name="Trazado 209448" d="M279.845,59.084c-.082-.644.23-1.216.7-1.275s.912.413,1,1.058a1.467,1.467,0,0,1-.1.766,2.191,2.191,0,0,0-.131,1.248l.818,4.79-1.14.146-.413-4.842a2.2,2.2,0,0,0-.442-1.175,1.468,1.468,0,0,1-.287-.717" transform="translate(-79.223 4.599)" fill="#519fd6"/>
            <path id="Trazado_209449" data-name="Trazado 209449" d="M273.738,61.634A.9.9,0,1,1,275,62.785a1.465,1.465,0,0,1-.647.42,2.2,2.2,0,0,0-1.037.708l-3.123,3.723-.849-.775,3.424-3.448a2.192,2.192,0,0,0,.611-1.1,1.471,1.471,0,0,1,.361-.682" transform="translate(-61.152 4.866)" fill="#519fd6"/>
            <path id="Trazado_209450" data-name="Trazado 209450" d="M271.459,70.428c.646-.074,1.212.244,1.266.711s-.424.909-1.07.983a1.466,1.466,0,0,1-.764-.107,2.2,2.2,0,0,0-1.247-.146l-4.8.761-.133-1.142,4.847-.355a2.2,2.2,0,0,0,1.18-.428,1.467,1.467,0,0,1,.72-.279" transform="translate(-53.503 5.602)" fill="#519fd6"/>
            <path id="Trazado_209451" data-name="Trazado 209451" d="M287.485,71.7c-.755-.052-1.337-.538-1.3-1.085s.68-.949,1.435-.9a1.7,1.7,0,0,1,.853.285,2.564,2.564,0,0,0,1.4.433l5.658.15-.092,1.337-5.626-.626a2.569,2.569,0,0,0-1.442.238,1.706,1.706,0,0,1-.884.166" transform="translate(-99.483 5.546)" fill="#519fd6"/>
            <path id="Trazado_209452" data-name="Trazado 209452" d="M286.094,64.455A.9.9,0,1,1,287.13,63.1a1.464,1.464,0,0,1,.474.608,2.185,2.185,0,0,0,.795.971l3.974,2.787-.7.912-3.726-3.112a2.192,2.192,0,0,0-1.144-.513,1.455,1.455,0,0,1-.71-.3" transform="translate(-95.636 4.996)" fill="#519fd6"/>
            <path id="Trazado_209453" data-name="Trazado 209453" d="M271.313,64.958a1.384,1.384,0,0,1,1.84.5c.218.579-.253,1.291-1.051,1.591a1.917,1.917,0,0,1-1.007.107,2.887,2.887,0,0,0-1.634.211l-5.87,2.495-.531-1.412,6.058-1.993a2.887,2.887,0,0,0,1.368-.919,1.918,1.918,0,0,1,.828-.584" transform="translate(-52.194 5.157)" fill="#519fd6"/>
            <path id="Trazado_209454" data-name="Trazado 209454" d="M283.092,58.848a1.339,1.339,0,0,1,.446-1.789c.555-.223,1.254.216,1.562.98a1.866,1.866,0,0,1,.125.972,2.789,2.789,0,0,0,.24,1.574l2.541,5.618-1.353.545-2.061-5.811a2.782,2.782,0,0,0-.919-1.3,1.866,1.866,0,0,1-.582-.787" transform="translate(-88.464 4.535)" fill="#519fd6"/>
            <path id="Trazado_209455" data-name="Trazado 209455" d="M282.408,86.537c-.08.752-.587,1.316-1.132,1.258s-.924-.715-.844-1.468a1.717,1.717,0,0,1,.317-.841,2.562,2.562,0,0,0,.485-1.38l.361-5.649,1.332.142-.835,5.6a2.555,2.555,0,0,0,.184,1.45,1.713,1.713,0,0,1,.133.89" transform="translate(-80.658 6.242)" fill="#519fd6"/>
            <path id="Trazado_209456" data-name="Trazado 209456" d="M284.868,82.856a.9.9,0,1,1-1.313-1.086,1.46,1.46,0,0,1,.624-.451,2.21,2.21,0,0,0,1-.757l2.933-3.868.885.732-3.248,3.607a2.2,2.2,0,0,0-.556,1.125,1.463,1.463,0,0,1-.326.7" transform="translate(-89.746 6.102)" fill="#519fd6"/>
            <path id="Trazado_209457" data-name="Trazado 209457" d="M286.9,78.676a1.338,1.338,0,0,1-1.772-.513c-.2-.562.262-1.245,1.039-1.523a1.861,1.861,0,0,1,.975-.09,2.785,2.785,0,0,0,1.583-.181l5.709-2.331.493,1.373-5.884,1.843a2.781,2.781,0,0,0-1.334.869,1.863,1.863,0,0,1-.809.553" transform="translate(-97.684 5.89)" fill="#519fd6"/>
            <path id="Trazado_209458" data-name="Trazado 209458" d="M278.524,86.907a1.5,1.5,0,0,1-.747,1.924c-.647.169-1.361-.416-1.6-1.308a2.083,2.083,0,0,1,0-1.1,3.119,3.119,0,0,0-.044-1.781L274.1,78.052l1.578-.415,1.471,6.741a3.131,3.131,0,0,0,.837,1.574,2.068,2.068,0,0,1,.536.955" transform="translate(-69.507 6.177)" fill="#519fd6"/>
            <path id="Trazado_209459" data-name="Trazado 209459" d="M275.73,82.232a.9.9,0,1,1-1.312,1.09,1.453,1.453,0,0,1-.328-.7,2.209,2.209,0,0,0-.559-1.124l-3.261-3.6.884-.735,2.946,3.865a2.2,2.2,0,0,0,1,.756,1.466,1.466,0,0,1,.627.45" transform="translate(-62.846 6.139)" fill="#519fd6"/>
            <path id="Trazado_209460" data-name="Trazado 209460" d="M273.162,79.464a1.139,1.139,0,1,1-1.261,1.76,1.858,1.858,0,0,1-.627-.752,2.785,2.785,0,0,0-1.047-1.2l-5.158-3.377.85-1.186,4.857,3.8a2.79,2.79,0,0,0,1.473.606,1.858,1.858,0,0,1,.914.352" transform="translate(-55.058 5.944)" fill="#519fd6"/>
            <rect id="Rectángulo_50128" data-name="Rectángulo 50128" width="41.872" height="13.39" transform="translate(182.921 101.295)" fill="#2786d1"/>
            <path id="Trazado_209461" data-name="Trazado 209461" d="M286.561,99.227H295.1a1,1,0,1,0,0-2h-8.536a1,1,0,0,0,0,2" transform="translate(-99.378 7.735)" fill="#fff"/>
            <path id="Trazado_209462" data-name="Trazado 209462" d="M290.189,102.986h4.619a1,1,0,1,0,0-2h-4.619a1,1,0,0,0,0,2" transform="translate(-103.006 8.034)" fill="#fff"/>
            <path id="Trazado_209463" data-name="Trazado 209463" d="M259.835,57.648a1.943,1.943,0,1,0,1.943-1.943,1.943,1.943,0,0,0-1.943,1.943" transform="translate(-39.229 4.432)" fill="#519fd6"/>
            <path id="Trazado_209464" data-name="Trazado 209464" d="M267.758,52.808a.855.855,0,1,0,.855-.855.855.855,0,0,0-.855.855" transform="translate(-53.529 4.133)" fill="#fff"/>
            <path id="Trazado_209465" data-name="Trazado 209465" d="M297.232,61.718a2.413,2.413,0,1,0,2.413-2.413,2.413,2.413,0,0,0-2.413,2.413" transform="translate(-117.938 4.718)" fill="#fff"/>
            <path id="Trazado_209466" data-name="Trazado 209466" d="M297.233,73.069a1.136,1.136,0,1,0,1.137-1.137,1.137,1.137,0,0,0-1.137,1.137" transform="translate(-115.387 5.723)" fill="#519fd6"/>
            <path id="Trazado_209467" data-name="Trazado 209467" d="M257.015,78.154a1.913,1.913,0,1,0,1.913-1.913,1.912,1.912,0,0,0-1.913,1.913" transform="translate(-33.304 6.066)" fill="#fff"/>
            <path id="Trazado_209468" data-name="Trazado 209468" d="M294.2,86.1a1.184,1.184,0,1,0,1.184-1.184A1.184,1.184,0,0,0,294.2,86.1" transform="translate(-109.173 6.756)" fill="#519fd6"/>
            <path id="Trazado_209469" data-name="Trazado 209469" d="M176.8,20.962a12.279,12.279,0,1,0-17.365,0,12.278,12.278,0,0,0,17.365,0" transform="translate(156.373 0)" fill="#daebff"/>
            <path id="Trazado_209470" data-name="Trazado 209470" d="M106.337,141.311a12.279,12.279,0,1,0-17.365,0,12.278,12.278,0,0,0,17.365,0" transform="translate(302.898 9.575)" fill="#daebff"/>
            <ellipse id="Elipse_5629" data-name="Elipse 5629" cx="17.143" cy="17.143" rx="17.143" ry="17.143" transform="translate(205.172 111.289)" fill="none" stroke="#daebff" stroke-miterlimit="10" stroke-width="1"/>
            <path id="Trazado_209471" data-name="Trazado 209471" d="M203.237,102.368a24.558,24.558,0,1,0-34.73,0A24.558,24.558,0,0,0,203.237,102.368Z" transform="translate(120.422 4.809)" fill="none" stroke="#daebff" stroke-miterlimit="10" stroke-width="1"/>
            <line id="Línea_1892" data-name="Línea 1892" x1="12.182" y2="53.587" transform="translate(312.304 12.279)" fill="none" stroke="#daebff" stroke-miterlimit="10" stroke-width="1"/>
            <line id="Línea_1893" data-name="Línea 1893" x2="72.457" y2="40.257" transform="translate(328.181 101.795)" fill="none" stroke="#daebff" stroke-miterlimit="10" stroke-width="1"/>
            <line id="Línea_1894" data-name="Línea 1894" x1="46.117" y2="21.319" transform="translate(238.611 101.795)" fill="none" stroke="#daebff" stroke-miterlimit="10" stroke-width="1"/>
            <path id="Trazado_209472" data-name="Trazado 209472" d="M250.7,348.415h0a17.737,17.737,0,0,0,17.737-17.737V164.086H232.961V330.678A17.737,17.737,0,0,0,250.7,348.415" transform="translate(-14.931 13.054)" fill="#cce2ff"/>
            <path id="Trazado_209473" data-name="Trazado 209473" d="M250,333.95h0a8.314,8.314,0,0,0,8.315-8.315V201.626H241.689V325.635A8.314,8.314,0,0,0,250,333.95" transform="translate(-14.237 16.041)" fill="#adc9ed"/>
            <path id="Trazado_209474" data-name="Trazado 209474" d="M314.053,348.415h0a17.738,17.738,0,0,0,17.738-17.737V164.086H296.316V330.678a17.737,17.737,0,0,0,17.737,17.737" transform="translate(-146.683 13.054)" fill="#cce2ff"/>
            <path id="Trazado_209475" data-name="Trazado 209475" d="M313.36,333.95h0a8.314,8.314,0,0,0,8.315-8.315V201.626h-16.63V325.635a8.314,8.314,0,0,0,8.315,8.315" transform="translate(-145.989 16.041)" fill="#adc9ed"/>
            <path id="Trazado_209476" data-name="Trazado 209476" d="M377.409,348.415h0a17.738,17.738,0,0,0,17.738-17.737V164.086H359.672V330.678a17.737,17.737,0,0,0,17.737,17.737" transform="translate(-278.435 13.054)" fill="#cce2ff"/>
            <path id="Trazado_209477" data-name="Trazado 209477" d="M376.716,333.95h0a8.314,8.314,0,0,0,8.315-8.315V201.626H368.4V325.635a8.314,8.314,0,0,0,8.315,8.315" transform="translate(-277.742 16.041)" fill="#adc9ed"/>
            <path id="Trazado_209478" data-name="Trazado 209478" d="M437.943,376.83v-190.6H204.737v190.6" transform="translate(-153.969 14.816)" fill="none" stroke="#83a3cc" stroke-miterlimit="10" stroke-width="2"/>
            <path id="Trazado_209479" data-name="Trazado 209479" d="M241.036,123.929s1.208-10.989.461-11.388c-.991-.53-3.513,1.156-2.836,8.171Z" transform="translate(5.733 8.946)" fill="#fe7a63"/>
            <path id="Trazado_209480" data-name="Trazado 209480" d="M127.844,202.2c10.6-9.973,25.412-17.007,41.723-19.831V104.552h32.888v77.736c16.325,2.745,31.165,9.71,41.818,19.629,10.9,10.152,16.923,22.993,16.956,36.159.038,15.333-7.752,29.76-21.932,40.624-14.149,10.839-32.975,16.834-53.013,16.883h-.243c-19.945,0-38.705-5.9-52.849-16.627-14.233-10.795-22.092-25.184-22.129-40.515-.032-13.167,5.928-26.038,16.782-36.242" transform="translate(123.874 8.318)" fill="#fff"/>
            <path id="Trazado_209481" data-name="Trazado 209481" d="M182.163,277.614c-48.4.022-69.661-50.633-53.246-71.874,4.511-5.837,15.116-5.015,20.677-.167,7.7,6.713,19.245,25.1,50.341,17.874,6.127-1.424,34.6-14.805,41.6-9.249,20.354,16.155-2,63.389-59.368,63.415" transform="translate(122.826 16.043)" fill="#15d3ec"/>
            <g id="Grupo_172803" data-name="Grupo 172803" transform="translate(276.756 254.569)" opacity="0.1">
              <g id="Grupo_172802" data-name="Grupo 172802" transform="translate(0)">
                <g id="Grupo_172801" data-name="Grupo 172801" transform="translate(0)" clip-path="url(#clip-path-3)">
                  <path id="Trazado_209482" data-name="Trazado 209482" d="M149.695,251.507c.021,8.626,14.955,15.582,33.357,15.538s33.3-7.073,33.282-15.7-14.955-15.582-33.357-15.538-33.3,7.073-33.282,15.7" transform="translate(-149.695 -235.808)" fill="#fff"/>
                </g>
              </g>
            </g>
            <path id="Trazado_209483" data-name="Trazado 209483" d="M198.442,262.354a5.615,5.615,0,1,0-5.615,5.615,5.615,5.615,0,0,0,5.615-5.615" transform="translate(104.451 20.426)" fill="#468aba"/>
            <path id="Trazado_209484" data-name="Trazado 209484" d="M203.056,236.451a8.724,8.724,0,1,0-8.724,8.725A8.724,8.724,0,0,0,203.056,236.451Z" transform="translate(101.57 18.118)" fill="none" stroke="#5cb4f2" stroke-miterlimit="10" stroke-width="1"/>
            <path id="Trazado_209485" data-name="Trazado 209485" d="M217.02,231.675a2.05,2.05,0,1,0-2.05,2.05,2.05,2.05,0,0,0,2.05-2.05" transform="translate(58.12 18.269)" fill="#5cb4f2"/>
            <path id="Trazado_209486" data-name="Trazado 209486" d="M145.381,237.765a2.677,2.677,0,1,0-2.677,2.677,2.676,2.676,0,0,0,2.677-2.677" transform="translate(208.452 18.703)" fill="#468aba"/>
            <path id="Trazado_209487" data-name="Trazado 209487" d="M176.075,190.176a4.964,4.964,0,1,0,4.952-4.976A4.964,4.964,0,0,0,176.075,190.176Z" transform="translate(128.913 14.734)" fill="none" stroke="#519fd6" stroke-miterlimit="10" stroke-width="1"/>
            <path id="Trazado_209488" data-name="Trazado 209488" d="M189.763,206.156a4.237,4.237,0,1,0,4.226-4.247,4.236,4.236,0,0,0-4.226,4.247" transform="translate(101.902 16.064)" fill="#468aba"/>
            <path id="Trazado_209489" data-name="Trazado 209489" d="M151.653,199.033a3.115,3.115,0,1,0,3.108-3.123,3.115,3.115,0,0,0-3.108,3.123" transform="translate(183.398 15.586)" fill="#5cb3f2"/>
            <rect id="Rectángulo_50130" data-name="Rectángulo 50130" width="36.517" height="1.875" transform="translate(291.761 110.995)" fill="#fff"/>
            <rect id="Rectángulo_50131" data-name="Rectángulo 50131" width="5.972" height="274.12" transform="translate(416.301 101.295)" fill="#12263f"/>
            <rect id="Rectángulo_50132" data-name="Rectángulo 50132" width="159.939" height="5.972" transform="translate(290.258 130.699)" fill="#12263f"/>
            <rect id="Rectángulo_50133" data-name="Rectángulo 50133" width="42.252" height="10.945" transform="translate(288.951 128.213)" fill="#5cc0f1"/>
            <path id="Trazado_209490" data-name="Trazado 209490" d="M62.18,125.2a18.586,18.586,0,1,0,18.586-18.586A18.586,18.586,0,0,0,62.18,125.2" transform="translate(338.521 8.482)" fill="#5cc0f1"/>
            <path id="Trazado_209491" data-name="Trazado 209491" d="M70.245,124.561a9.879,9.879,0,1,0,9.878-9.878,9.878,9.878,0,0,0-9.878,9.878" transform="translate(339.164 9.124)" fill="#519fd6"/>
            <rect id="Rectángulo_50134" data-name="Rectángulo 50134" width="229.222" height="17.346" transform="translate(227.169 375.415)" fill="#e3efff"/>
            <path id="Trazado_209492" data-name="Trazado 209492" d="M249.705,119.2s-4.188-7.342-5.447-6.53c-1.559,1,1.071,5.093,1.071,5.093s-4.1-1.4-4.809-.6c-1.053,1.183,4.614,4.5,4.614,4.5Z" transform="translate(-4.22 8.959)" fill="#fe7a63"/>
            <line id="Línea_1895" data-name="Línea 1895" x2="1.116" y2="1.539" transform="translate(244.76 126.938)" fill="none" stroke="#2c1817" stroke-miterlimit="10" stroke-width="0.5"/>
            <path id="Trazado_209493" data-name="Trazado 209493" d="M389.265,45.492s0-19.329-19.326-20.612c-13.918-.924-16.759,20.643-15.575,30.815s-9,9.957-12.083,7.933c0,0,5.924,13.726,16.348,9.523s4.738-21.126,9-22.19,20.287,11.116,21.634-5.468" transform="translate(-253.777 1.977)" fill="#12263f"/>
            <path id="Trazado_209494" data-name="Trazado 209494" d="M358.821,40.483s-8.347-4.621-15.929,0-4.383,15.281-4.383,15.281Z" transform="translate(-218.54 3.057)" fill="#81d4fa"/>
            <path id="Trazado_209495" data-name="Trazado 209495" d="M350.4,74.172A22.618,22.618,0,0,0,360.927,61.11c3.159-9.588-3.317-18.591-6.16-20.013s-9.133,2.053-9.133,2.053-11.132-5.9-18.3-2.394-14.3,10.243-14.3,21.061c0,15.645,15.583,21.19,15.583,21.19Z" transform="translate(-194.718 3.154)" fill="#12263f"/>
            <path id="Trazado_209496" data-name="Trazado 209496" d="M255.923,158.138,290.145,130.2s6.378-4.112,8.572-6.049c1.1-.973-4.3-11.313-5.619-10.473-5.983,3.823-4.137,8.89-4.137,8.89l-49.787,30.289s7.417,12.267,16.749,5.277" transform="translate(-52.067 9.04)" fill="#fe7a63"/>
            <path id="Trazado_209497" data-name="Trazado 209497" d="M312.282,200.888s-.107,74.927,1.242,83.708S331.3,352.328,331.3,352.328l9.377-.01s-3.132-68.25-3.132-78.129,8.226-73.3,8.226-73.3Z" transform="translate(-177.894 15.982)" fill="#e8705a"/>
            <path id="Trazado_209498" data-name="Trazado 209498" d="M332.381,200.888s-.107,74.927,1.242,83.708,9.833,67.733,9.833,67.733l9.377-.01s4.809-68.25,4.809-78.129,8.226-73.3,8.226-73.3Z" transform="translate(-219.691 15.982)" fill="#fe7a63"/>
            <path id="Trazado_209499" data-name="Trazado 209499" d="M310.2,187.624s-5.732,54.062-5.189,82.947h70.923l-4.775-82.947Z" transform="translate(-200.173 14.927)" fill="#727997"/>
            <line id="Línea_1896" data-name="Línea 1896" y1="56.819" x2="0.179" transform="translate(141.869 228.679)" fill="none" stroke="#0d0000" stroke-miterlimit="10" stroke-width="1"/>
            <path id="Trazado_209500" data-name="Trazado 209500" d="M336.081,133.889s-10.424,11.811-19.428,12.454-39.842-19.552-39.842-19.552l-.356-40.132A93.523,93.523,0,0,1,288.949,90.9c5.251,2.37,47.133,42.987,47.133,42.987" transform="translate(-129.531 6.894)" fill="#fff"/>
            <path id="Trazado_209501" data-name="Trazado 209501" d="M332.545,87.34s-15.858,7.618-19.315,10.954c-3.3,3.189-10.079,160.323-10.079,160.323h36.378l5.6-16.411,7.357,16.411h28.323s-12.277-153.169-14.054-157.023C363.951,95.517,350,86.658,350,86.658Z" transform="translate(-203.078 6.894)" fill="#fff"/>
            <line id="Línea_1897" data-name="Línea 1897" x2="3.53" y2="40.404" transform="translate(165.413 118.371)" fill="none" stroke="#0d0000" stroke-miterlimit="10" stroke-width="1"/>
            <line id="Línea_1898" data-name="Línea 1898" x1="29.079" y2="25.586" transform="translate(123.918 185.603)" fill="none" stroke="#dbdbdb" stroke-miterlimit="10" stroke-width="0.5"/>
            <line id="Línea_1899" data-name="Línea 1899" x1="15.083" y2="15.864" transform="translate(136.048 201.026)" fill="none" stroke="#dbdbdb" stroke-miterlimit="10" stroke-width="0.5"/>
            <line id="Línea_1900" data-name="Línea 1900" x1="0.358" y1="79.528" transform="translate(141.69 169.573)" fill="none" stroke="#0d0000" stroke-miterlimit="10" stroke-width="1"/>
            <path id="Trazado_209502" data-name="Trazado 209502" d="M330.381,79.81s-7.054,4.049-8.638,5.938,0,17.972,0,17.972l5.735,3.729s-6.35,2.071-6.437,3,20.786,52.771,20.786,52.771,15.952-45.538,16.669-50.667-5.362-6.928-5.362-6.928a29.963,29.963,0,0,1,2.681-4.447c1.023-1.143-1.788-17.727-3.416-19.2s-22.018-2.172-22.018-2.172" transform="translate(-200.136 6.35)" fill="#d6eeff"/>
            <path id="Trazado_209503" data-name="Trazado 209503" d="M341.607,162.678c-3.493-31.506-9.727-55.347-11.077-66.815-.651-5.56-1.143-8.523-1.143-8.523l17.453-.681c.584,2.5,1.1,5.208,1.539,8.049,4.162,26.646-6.772,67.97-6.772,67.97" transform="translate(-199.917 6.894)" fill="#81d4fa"/>
            <path id="Trazado_209504" data-name="Trazado 209504" d="M349.143,88.489l-.526-16.542-14.476-8.3-2.456,25.523,11.446,13.3Z" transform="translate(-202.218 5.064)" fill="#e8705a"/>
            <path id="Trazado_209505" data-name="Trazado 209505" d="M348.6,67.757c-1.91,19.686-7.634,17.442-16.979,13.436A16.2,16.2,0,0,1,322.4,62.243c2.073-8.119,9.564-12.8,16.733-10.451s10.289,7.564,9.474,15.966" transform="translate(-191.213 4.072)" fill="#fe7a63"/>
            <path id="Trazado_209506" data-name="Trazado 209506" d="M335.729,61.044c.046.4-2.159.986-3.488,1.138s-1.823-.122-1.87-.525,1.541-.914,2.87-1.067,2.442.051,2.488.453" transform="translate(-187.385 4.816)" fill="#2c1817"/>
            <path id="Trazado_209507" data-name="Trazado 209507" d="M331.437,65.651c.087.761-.136,1.412-.5,1.453s-.727-.542-.813-1.3.136-1.412.5-1.453.727.542.814,1.3" transform="translate(-182.826 5.119)" fill="#2c1817"/>
            <path id="Trazado_209508" data-name="Trazado 209508" d="M321.1,60.591c.046.4,2.326.472,3.655.321s1.748-.531,1.7-.934-1.708-.543-3.036-.391-2.369.6-2.322,1" transform="translate(-168.097 4.736)" fill="#2c1817"/>
            <path id="Trazado_209509" data-name="Trazado 209509" d="M324.059,65.107c.087.761.451,1.344.814,1.3s.585-.692.5-1.453-.451-1.345-.813-1.3-.586.692-.5,1.453" transform="translate(-170.211 5.064)" fill="#2c1817"/>
            <path id="Trazado_209510" data-name="Trazado 209510" d="M326.5,63.319c.559,2.577,1.877,8.031,1.566,8.587a1.087,1.087,0,0,1-1.64.1" transform="translate(-175.509 5.038)" fill="none" stroke="#2c1817" stroke-miterlimit="10" stroke-width="0.5"/>
            <path id="Trazado_209511" data-name="Trazado 209511" d="M348.383,52.531s-8.275,7.785-16.237,8.746l-9.26,1.117s-1.39-9.591,2.573-12.316,22.924,2.453,22.924,2.453" transform="translate(-191.704 3.921)" fill="#12263f"/>
            <path id="Trazado_209512" data-name="Trazado 209512" d="M322.2,79.014s5.64,6.127,10.926,4.806a5.3,5.3,0,0,0,1.831-.845c3.468-2.391,4.825-8.6,4.9-12.941.012-.48,0-.931-.018-1.356,0,0-6.047-1.163-8.687-1.32a62.2,62.2,0,0,0-8.444.663Z" transform="translate(-182.691 5.357)" fill="#f3ffff"/>
            <path id="Trazado_209514" data-name="Trazado 209514" d="M349.255,94.708l-6.771,12.434L331.405,95.864c-.651-5.561-1.143-8.523-1.143-8.523l11.443,13.293,6.01-13.974c.584,2.5,1.1,5.207,1.539,8.048" transform="translate(-200.793 6.895)" fill="#67adf5"/>
            <path id="Trazado_209515" data-name="Trazado 209515" d="M363.075,97.442c-7.5,1.47-13.876,53.074-7.4,71.662l21.167-11.6s-2.266-62.312-13.767-60.059" transform="translate(-252.924 7.748)" fill="#fff"/>
            <path id="Trazado_209516" data-name="Trazado 209516" d="M331.607,341.168c-2.828,0-4.655,5.715-3.43,9.99s8.565,15.115,10.4,16.606l20.358-.019a3.714,3.714,0,0,0-2.861-4.2c-3.456-1.015-5.085-1.217-8.548-3.962Z" transform="translate(-207.843 27.143)" fill="#39415e"/>
            <path id="Trazado_209517" data-name="Trazado 209517" d="M354.5,347.035s.331,16.336.019,20.272l1.821,0s.8-15.405.391-17.848Z" transform="translate(-234.557 27.61)" fill="#39415e"/>
            <path id="Trazado_209518" data-name="Trazado 209518" d="M338.394,341.169s1.256,12.825,6.351,18.419l9.568-.01s-6.32-9.207-6.542-18.418Z" transform="translate(-214.63 27.142)" fill="#fe7a63"/>
            <path id="Trazado_209519" data-name="Trazado 209519" d="M304.151,341.168c-2.828,0-4.655,5.715-3.43,9.99s8.565,15.115,10.4,16.606l20.358-.019a3.714,3.714,0,0,0-2.861-4.2c-3.456-1.015-5.085-1.217-8.548-3.962Z" transform="translate(-150.747 27.143)" fill="#39415e"/>
            <path id="Trazado_209520" data-name="Trazado 209520" d="M327.046,347.035s.331,16.336.019,20.272l1.821,0s.8-15.405.391-17.848Z" transform="translate(-177.46 27.61)" fill="#39415e"/>
            <path id="Trazado_209521" data-name="Trazado 209521" d="M310.938,341.169s1.255,12.825,6.351,18.419l9.568-.01s-6.32-9.207-6.542-18.418Z" transform="translate(-157.534 27.142)" fill="#e8705a"/>
            <path id="Trazado_209522" data-name="Trazado 209522" d="M358.182,113.247s2.065,30.327,3.744,43.252" transform="translate(-243.605 9.01)" fill="none" stroke="#0d0000" stroke-miterlimit="10" stroke-width="1"/>
            <path id="Trazado_209523" data-name="Trazado 209523" d="M358.809,155.347a22.04,22.04,0,0,1,14.273-6.636" transform="translate(-255.438 11.831)" fill="none" stroke="#0d0000" stroke-miterlimit="10" stroke-width="1"/>
            <path id="Trazado_209524" data-name="Trazado 209524" d="M345.907,211.948l18.811-8.639,2.526,4.319-19.15,9.454Z" transform="translate(-235.672 16.175)" fill="#dbdbdb"/>
            <path id="Trazado_209525" data-name="Trazado 209525" d="M326.312,211.948,307.5,203.309l-2.526,4.319,19.15,9.454Z" transform="translate(-150.551 16.175)" fill="#dbdbdb"/>
            <line id="Línea_1901" data-name="Línea 1901" x2="70.494" transform="translate(104.826 277.837)" fill="none" stroke="#0d0000" stroke-miterlimit="10" stroke-width="1"/>
            <rect id="Rectángulo_50135" data-name="Rectángulo 50135" width="1.694" height="47.007" transform="translate(263.291 102.799) rotate(-120.732)" fill="#2c1817"/>
            <path id="Trazado_209526" data-name="Trazado 209526" d="M224.126,143.692l12.4,20.875,90.284-53.642a6.672,6.672,0,0,0,3.2-6.664,20.836,20.836,0,0,0-8.219-13.833,6.672,6.672,0,0,0-7.383-.377Z" transform="translate(-67.034 7.09)" fill="#ebeae8"/>
            <path id="Trazado_209527" data-name="Trazado 209527" d="M227.789,90.737c-14.881,8.84-25.927,17.72-24.672,19.831s14.334-3.344,29.215-12.185A117.218,117.218,0,0,0,250.52,84.909a2.2,2.2,0,0,0-2.2-3.7,117.052,117.052,0,0,0-20.532,9.53" transform="translate(34.57 6.45)" fill="#519fd6"/>
            <path id="Trazado_209528" data-name="Trazado 209528" d="M224.127,103.647l12.4,20.875,22.883-13.6a6.67,6.67,0,0,0,3.2-6.664,20.837,20.837,0,0,0-8.219-13.833,6.67,6.67,0,0,0-7.382-.377Z" transform="translate(0.365 7.09)" fill="#7e5ee3"/>
            <rect id="Rectángulo_50136" data-name="Rectángulo 50136" width="24.282" height="7.341" transform="matrix(-0.511, -0.86, 0.86, -0.511, 230.583, 135.362)" fill="#381e1d"/>
            <rect id="Rectángulo_50137" data-name="Rectángulo 50137" width="7.693" height="1.694" transform="matrix(-0.511, -0.86, 0.86, -0.511, 232.909, 114.684)" fill="#2c1817"/>
            <rect id="Rectángulo_50138" data-name="Rectángulo 50138" width="7.693" height="1.694" transform="matrix(-0.511, -0.86, 0.86, -0.511, 224.535, 119.66)" fill="#2c1817"/>
            <rect id="Rectángulo_50139" data-name="Rectángulo 50139" width="7.693" height="1.694" transform="matrix(-0.511, -0.86, 0.86, -0.511, 216.16, 124.635)" fill="#2c1817"/>
            <rect id="Rectángulo_50140" data-name="Rectángulo 50140" width="7.693" height="1.694" transform="matrix(-0.511, -0.86, 0.86, -0.511, 207.786, 129.611)" fill="#2c1817"/>
            <rect id="Rectángulo_50141" data-name="Rectángulo 50141" width="7.693" height="1.694" transform="matrix(-0.511, -0.86, 0.86, -0.511, 199.412, 134.587)" fill="#2c1817"/>
            <rect id="Rectángulo_50142" data-name="Rectángulo 50142" width="7.693" height="1.694" transform="matrix(-0.511, -0.86, 0.86, -0.511, 191.037, 139.562)" fill="#2c1817"/>
            <rect id="Rectángulo_50143" data-name="Rectángulo 50143" width="7.693" height="1.694" transform="matrix(-0.511, -0.86, 0.86, -0.511, 182.663, 144.538)" fill="#2c1817"/>
            <rect id="Rectángulo_50144" data-name="Rectángulo 50144" width="7.693" height="1.694" transform="matrix(-0.511, -0.86, 0.86, -0.511, 174.289, 149.513)" fill="#2c1817"/>
            <rect id="Rectángulo_50145" data-name="Rectángulo 50145" width="7.693" height="1.694" transform="matrix(-0.511, -0.86, 0.86, -0.511, 165.914, 154.489)" fill="#2c1817"/>
            <path id="Trazado_209529" data-name="Trazado 209529" d="M309.2,139.062l15.864,26.7a1.976,1.976,0,1,0,3.4-2.019l-15.863-26.7a1.976,1.976,0,0,0-3.4,2.019" transform="translate(-157.234 10.826)" fill="#ebeae8"/>
            <path id="Trazado_209530" data-name="Trazado 209530" d="M337.976,156.161l15.864,26.7a1.976,1.976,0,1,0,3.4-2.019l-15.864-26.7a1.976,1.976,0,0,0-3.4,2.019" transform="translate(-217.083 12.186)" fill="#ebeae8"/>
            <rect id="Rectángulo_50146" data-name="Rectángulo 50146" width="14.611" height="32.187" transform="matrix(-0.511, -0.86, 0.86, -0.511, 135.955, 185.96)" fill="#d1d0cf"/>
            <path id="Trazado_209531" data-name="Trazado 209531" d="M377.651,159.261s-47.928-6.008-51.943-5.949c-9.8.141-16.4,7.964-15.569,11.343,1.789,7.259,66.934.7,66.934.7Z" transform="translate(-207.388 12.197)" fill="#fe7a63"/>
            <path id="Trazado_209532" data-name="Trazado 209532" d="M300.583,159.4s3.206-4.682,3.6-5.1,4.6-2.994,4.82-2.7c.957,1.275-1.721,3.125-1.721,3.125s3.53.485,3.6.887a5.355,5.355,0,0,1-.5,1.675s1.365,1.48,1,1.833a12.427,12.427,0,0,0-.911,1.085s1.074,1.314.793,1.723S307.2,166.41,300,165.5Z" transform="translate(-130.321 12.059)" fill="#fe7a63"/>
            <path id="Trazado_209533" data-name="Trazado 209533" d="M350.276,69.282S343.3,57.245,338.5,60.218s.121,17.583,10.491,19.241" transform="translate(-208.707 4.753)" fill="none" stroke="#f3ffff" stroke-miterlimit="10" stroke-width="1"/>
            <path id="Trazado_209534" data-name="Trazado 209534" d="M353.638,64.811a4.081,4.081,0,0,1-4.352,4.131,4.674,4.674,0,0,1-4.352-4.622,4.081,4.081,0,0,1,4.352-4.131,4.674,4.674,0,0,1,4.352,4.622" transform="translate(-221.017 4.788)" fill="#fe7a63"/>
            <path id="Trazado_209535" data-name="Trazado 209535" d="M346.918,61.983a5.548,5.548,0,0,1,3.256,3.6,4.458,4.458,0,0,0-3.26-.477" transform="translate(-219.689 4.931)" fill="none" stroke="#2c1817" stroke-miterlimit="10" stroke-width="0.5"/>
            <path id="Trazado_209536" data-name="Trazado 209536" d="M179.893,86.305a7.094,7.094,0,1,0,14.189,0c0-3.918-7.094-13.33-7.094-13.33s-7.095,9.413-7.095,13.33" transform="translate(116.713 5.806)" fill="#15d3ec"/>
            <path id="Trazado_209537" data-name="Trazado 209537" d="M175.473,300.419c0,3.2,3.078,5.786,6.874,5.786s6.874-2.591,6.874-5.786-6.874-10.464-6.874-10.464-6.874,7.269-6.874,10.464" transform="translate(126.346 23.068)" fill="#e27029"/>
            <path id="Trazado_209538" data-name="Trazado 209538" d="M178.577,302a3.574,3.574,0,0,0,7.043,0c0-1.637-3.522-5.361-3.522-5.361s-3.522,3.724-3.522,5.361" transform="translate(126.595 23.6)" fill="#efbc2b"/>
            <path id="Trazado_209539" data-name="Trazado 209539" d="M181.836,307.738h.068a.379.379,0,0,0,.379-.378v-3.3a.378.378,0,0,0-.379-.378h-.068a.378.378,0,0,0-.378.378v3.3a.378.378,0,0,0,.378.378" transform="translate(126.822 24.16)" fill="#383330"/>
            <path id="Trazado_209540" data-name="Trazado 209540" d="M172.2,326.2h20.187v-15.45a4.736,4.736,0,0,0-4.737-4.737H176.941a4.737,4.737,0,0,0-4.737,4.737Z" transform="translate(126.704 24.346)" fill="#366a8f"/>
            <path id="Trazado_209541" data-name="Trazado 209541" d="M164.127,319.238c0-5.525,8.423-10,18.813-10s18.812,4.479,18.812,10-8.423,10-18.812,10-18.813-4.479-18.813-10" transform="translate(126.062 24.602)" fill="#468aba"/>
            <path id="Trazado_209542" data-name="Trazado 209542" d="M184.8,312.135c38.318,0,44.05,38.554,44.05,38.554h-88.1s5.732-38.554,44.05-38.554" transform="translate(124.203 24.833)" fill="#15d3ec"/>
            <g id="Grupo_172806" data-name="Grupo 172806" transform="translate(305.025 336.967)" opacity="0.2">
              <g id="Grupo_172805" data-name="Grupo 172805" transform="translate(0)">
                <g id="Grupo_172804" data-name="Grupo 172804" transform="translate(0)" clip-path="url(#clip-path-4)">
                  <path id="Trazado_209543" data-name="Trazado 209543" d="M140.749,312.292c1.289-.1,2.606-.158,3.977-.158,38.318,0,44.05,38.554,44.05,38.554h-7.954s-5.341-35.832-40.073-38.4" transform="translate(-140.749 -312.135)" fill="#efefef"/>
                </g>
              </g>
            </g>
            <path id="Trazado_209544" data-name="Trazado 209544" d="M190.547,9.647h15.4a2.108,2.108,0,1,0,0-4.216h-15.4a2.108,2.108,0,0,0,0,4.216" transform="translate(93.514 0.432)" fill="#519fd6"/>
            <path id="Trazado_209545" data-name="Trazado 209545" d="M190.549,17.629h5.59a2.108,2.108,0,1,0,0-4.216h-5.59a2.108,2.108,0,1,0,0,4.216" transform="translate(103.319 1.067)" fill="#519fd6"/>
            <rect id="Rectángulo_50148" data-name="Rectángulo 50148" width="4.218" height="4.218" transform="matrix(-0.707, -0.707, 0.707, -0.707, 57.233, 82.912)" fill="#adc9ed"/>
            <rect id="Rectángulo_50149" data-name="Rectángulo 50149" width="6.04" height="6.04" transform="translate(155.58 8.829) rotate(-135)" fill="#d9e9ff"/>
            <rect id="Rectángulo_50150" data-name="Rectángulo 50150" width="6.04" height="6.04" transform="translate(461.021 87.066) rotate(-135)" fill="#d9e9ff"/>
            <rect id="Rectángulo_50151" data-name="Rectángulo 50151" width="6.04" height="6.04" transform="translate(266.769 162.339) rotate(-135)" fill="#d9e9ff"/>
            <rect id="Rectángulo_50152" data-name="Rectángulo 50152" width="6.04" height="6.04" transform="translate(465.292 175.928) rotate(-135)" fill="#d9e9ff"/>
            <rect id="Rectángulo_50153" data-name="Rectángulo 50153" width="5.67" height="5.67" transform="translate(174.038 24.271) rotate(-135)" fill="#cce2ff"/>
            <rect id="Rectángulo_50154" data-name="Rectángulo 50154" width="11.073" height="11.073" transform="translate(50.768 165.899) rotate(-135)" fill="#cce2ff"/>
            <rect id="Rectángulo_50155" data-name="Rectángulo 50155" width="11.073" height="11.073" transform="translate(442.366 54.733) rotate(-135)" fill="#cce2ff"/>
            <path id="Trazado_209546" data-name="Trazado 209546" d="M100.564,184.217a6,6,0,1,0,6-6,6,6,0,0,0-6,6" transform="translate(283.875 14.179)" fill="#cce2ff"/>
            <path id="Trazado_209547" data-name="Trazado 209547" d="M222.311,63.565a3.333,3.333,0,1,0,3.334-3.333,3.333,3.333,0,0,0-3.334,3.333" transform="translate(36.024 4.792)" fill="#2786d1"/>
            <path id="Trazado_209548" data-name="Trazado 209548" d="M97.578,76.542a3.224,3.224,0,1,0,3.224-3.224,3.224,3.224,0,0,0-3.224,3.224" transform="translate(295.633 5.833)" fill="#fffdf7"/>
            <path id="Trazado_209549" data-name="Trazado 209549" d="M396.3,122.132a2.975,2.975,0,1,0,2.975-2.975,2.975,2.975,0,0,0-2.975,2.975" transform="translate(-325.089 9.48)" fill="#adc9ed"/>
            <path id="Trazado_209550" data-name="Trazado 209550" d="M378.154,366.6V311.452a16.155,16.155,0,0,1,1.706-7.225l6.236-12.471c0-3.334,11.013-6.036,24.6-6.036s24.6,2.7,24.6,6.036l6.236,12.471a16.155,16.155,0,0,1,1.706,7.225V366.6c0,4.251-14.569,7.7-32.54,7.7s-32.539-3.445-32.539-7.7" transform="translate(-346.473 22.731)" fill="#636363"/>
            <rect id="Rectángulo_50156" data-name="Rectángulo 50156" width="36.23" height="40.737" transform="translate(31.681 339.05)" fill="#fefefe"/>
            <rect id="Rectángulo_50157" data-name="Rectángulo 50157" width="15.68" height="40.737" transform="translate(81.079 339.05)" fill="#fefefe"/>
            <rect id="Rectángulo_50158" data-name="Rectángulo 50158" width="33.554" height="9.404" transform="translate(31.681 367.589)" fill="#519fd6"/>
            <rect id="Rectángulo_50159" data-name="Rectángulo 50159" width="13.472" height="9.404" transform="translate(83.287 367.589)" fill="#519fd6"/>
            <path id="Trazado_209551" data-name="Trazado 209551" d="M382.256,321.387h3.877a.878.878,0,1,0,0-1.755h-3.877a.878.878,0,0,0,0,1.755" transform="translate(-293.733 25.429)" fill="#4c3b52"/>
            <path id="Trazado_209552" data-name="Trazado 209552" d="M381.74,324.77h8.1a1.022,1.022,0,0,0,0-2.044h-8.1a1.022,1.022,0,0,0,0,2.044" transform="translate(-296.871 25.676)" fill="#4c3b52"/>
            <path id="Trazado_209553" data-name="Trazado 209553" d="M408.846,319.706h3.877a.878.878,0,1,0,0-1.755h-3.877a.878.878,0,0,0,0,1.755" transform="translate(-349.026 25.296)" fill="#4c3b52"/>
            <path id="Trazado_209554" data-name="Trazado 209554" d="M408.329,323.089h29.362a1.022,1.022,0,0,0,0-2.044H408.329a1.022,1.022,0,0,0,0,2.044" transform="translate(-373.426 25.542)" fill="#4c3b52"/>
            <path id="Trazado_209555" data-name="Trazado 209555" d="M408.329,326.85h29.362a1.022,1.022,0,0,0,0-2.044H408.329a1.022,1.022,0,0,0,0,2.044" transform="translate(-373.426 25.841)" fill="#84668f"/>
            <path id="Trazado_209556" data-name="Trazado 209556" d="M381.078,327.508h1.06a.878.878,0,0,0,0-1.756h-1.06a.878.878,0,0,0,0,1.756" transform="translate(-288.464 25.916)" fill="#84668f"/>
            <path id="Trazado_209557" data-name="Trazado 209557" d="M381.077,334.231h3.877a.878.878,0,0,0,0-1.756h-3.877a.878.878,0,0,0,0,1.756" transform="translate(-291.279 26.451)" fill="#84668f"/>
            <path id="Trazado_209558" data-name="Trazado 209558" d="M381.077,337.593h6.961a.878.878,0,0,0,0-1.756h-6.961a.878.878,0,0,0,0,1.756" transform="translate(-294.363 26.719)" fill="#4c3b52"/>
            <path id="Trazado_209559" data-name="Trazado 209559" d="M387.718,290.674h46.035a3.929,3.929,0,0,0,3.918-3.918V275.737H383.8v11.019a3.929,3.929,0,0,0,3.918,3.918" transform="translate(-347.005 21.937)" fill="#e0dfda"/>
            <path id="Trazado_209560" data-name="Trazado 209560" d="M382.364,270.973h56.09a.621.621,0,0,1,.62.62v3.9a.621.621,0,0,1-.62.62h-56.09a.621.621,0,0,1-.62-.62v-3.9a.621.621,0,0,1,.62-.62" transform="translate(-346.189 21.558)" fill="#2786d1"/>
            <rect id="Rectángulo_50160" data-name="Rectángulo 50160" width="6.795" height="14.803" transform="translate(73.56 297.807)" fill="#fefefe"/>
            <rect id="Rectángulo_50161" data-name="Rectángulo 50161" width="14.803" height="14.803" transform="translate(52.814 297.807)" fill="#fefefe"/>
            <path id="Trazado_209561" data-name="Trazado 209561" d="M90.392,322.647c6.786,13.937,18.493,22.215,26.146,18.489s8.356-18.046,1.57-31.984-28.181-42.112-35.835-38.385,1.333,37.943,8.119,51.88" transform="translate(296.575 21.515)" fill="#636363"/>
            <path id="Trazado_209562" data-name="Trazado 209562" d="M103.855,279.22c1.5,3.082,8.693,2.672,16.064-.918s12.129-9,10.628-12.079-8.693-2.672-16.064.918-12.129,9-10.628,12.079" transform="translate(262.356 21.016)" fill="#636363"/>
            <path id="Trazado_209563" data-name="Trazado 209563" d="M54.966,364.6h60.866A10.636,10.636,0,0,0,105.2,353.965H65.6A10.636,10.636,0,0,0,54.966,364.6" transform="translate(329.829 28.161)" fill="#fff"/>
            <path id="Trazado_209564" data-name="Trazado 209564" d="M29.346,302.269V312.33A48.225,48.225,0,0,0,77.57,360.554H98.438a48.039,48.039,0,0,0,22.077-5.344q1.425-.729,2.785-1.555a48.2,48.2,0,0,0,23.362-41.326V302.269Z" transform="translate(326.657 24.048)" fill="#fff"/>
            <rect id="Rectángulo_50162" data-name="Rectángulo 50162" width="14.41" height="30.975" transform="translate(406.141 340.941)" fill="#7e5ee3"/>
            <rect id="Rectángulo_50163" data-name="Rectángulo 50163" width="30.975" height="14.41" transform="translate(397.859 349.223)" fill="#7e5ee3"/>
            <rect id="Rectángulo_50164" data-name="Rectángulo 50164" width="53.609" height="61.062" transform="translate(360.646 35.682)" fill="#a2bcde"/>
            <path id="Trazado_209565" data-name="Trazado 209565" d="M153.292,33.052V64.63a53.564,53.564,0,0,1-15.7,37.893H84.057a53.6,53.6,0,0,0,15.7-37.893V33.052Z" transform="translate(260.963 2.63)" fill="#fff"/>
            <path id="Trazado_209566" data-name="Trazado 209566" d="M107.7,71.331h7.879l3.938-6.822-3.938-6.823H107.7l-3.939,6.823Zm7.722-.27H107.86l-3.784-6.552,3.784-6.553h7.566l3.783,6.553Z" transform="translate(273.46 4.589)" fill="#82c8fa"/>
            <path id="Trazado_209567" data-name="Trazado 209567" d="M100.619,50.078h2.223L103.953,52l-1.111,1.925h-2.223L99.508,52Z" transform="translate(293.621 3.984)" fill="#82c8fa"/>
            <path id="Trazado_209568" data-name="Trazado 209568" d="M119.624,50.078h2.223L122.958,52l-1.111,1.925h-2.223L118.513,52Z" transform="translate(254.099 3.984)" fill="#82c8fa"/>
            <path id="Trazado_209569" data-name="Trazado 209569" d="M100.619,74.4h2.223l1.111,1.925-1.111,1.925h-2.223l-1.111-1.925Z" transform="translate(293.621 5.919)" fill="#82c8fa"/>
            <path id="Trazado_209570" data-name="Trazado 209570" d="M119.624,74.4h2.223l1.111,1.925-1.111,1.925h-2.223l-1.111-1.925Z" transform="translate(254.099 5.919)" fill="#82c8fa"/>
            <path id="Trazado_209571" data-name="Trazado 209571" d="M125.063,62.222h2.223l1.111,1.925-1.111,1.925h-2.223l-1.111-1.925Z" transform="translate(242.788 4.95)" fill="#82c8fa"/>
            <path id="Trazado_209572" data-name="Trazado 209572" d="M95.164,62.222h2.223L98.5,64.147l-1.111,1.925H95.164l-1.111-1.925Z" transform="translate(304.965 4.95)" fill="#82c8fa"/>
            <rect id="Rectángulo_50165" data-name="Rectángulo 50165" width="0.27" height="9.035" transform="translate(389.058 62.505) rotate(-135)" fill="#82c8fa"/>
            <rect id="Rectángulo_50166" data-name="Rectángulo 50166" width="9.084" height="0.27" transform="matrix(-0.707, -0.707, 0.707, -0.707, 381.145, 62.505)" fill="#82c8fa"/>
            <rect id="Rectángulo_50167" data-name="Rectángulo 50167" width="8.416" height="0.27" transform="translate(368.963 68.962)" fill="#82c8fa"/>
            <rect id="Rectángulo_50168" data-name="Rectángulo 50168" width="8.417" height="0.27" transform="translate(392.824 68.962)" fill="#82c8fa"/>
            <rect id="Rectángulo_50169" data-name="Rectángulo 50169" width="0.27" height="9.036" transform="matrix(-0.707, -0.707, 0.707, -0.707, 374.93, 82.308)" fill="#82c8fa"/>
            <rect id="Rectángulo_50170" data-name="Rectángulo 50170" width="9.084" height="0.27" transform="matrix(-0.707, -0.707, 0.707, -0.707, 395.273, 82.343)" fill="#82c8fa"/>
            <path id="Trazado_209573" data-name="Trazado 209573" d="M100.834,87.209h23.735a1.327,1.327,0,1,0,0-2.654H100.834a1.327,1.327,0,0,0,0,2.654" transform="translate(271.678 6.727)" fill="#2786d1"/>
            <path id="Trazado_209574" data-name="Trazado 209574" d="M103.67,93.32h11.187a1.327,1.327,0,0,0,0-2.654H103.67a1.327,1.327,0,1,0,0,2.654" transform="translate(278.33 7.213)" fill="#2786d1"/>
            <rect id="Rectángulo_50171" data-name="Rectángulo 50171" width="53.54" height="12.873" transform="translate(360.715 35.682)" fill="#12263f"/>
          </g>
        </g>
      </g>
    </g>
  </g>
</svg>
