<svg id="Grupo_168468" data-name="Grupo 168468" xmlns="http://www.w3.org/2000/svg" width="105" height="105" viewBox="0 0 105 105">
  <circle id="Elipse_5382" data-name="Elipse 5382" cx="52.5" cy="52.5" r="52.5" fill="#4722bb"/>
  <g id="prueba" transform="translate(-22.425 12.825)">
    <g id="Grupo_172813" data-name="Grupo 172813" transform="translate(80.279 31.051)">
      <g id="Grupo_172812" data-name="Grupo 172812">
        <path id="Trazado_209575" data-name="Trazado 209575" d="M287.338,232a1.338,1.338,0,1,0,1.338,1.338A1.339,1.339,0,0,0,287.338,232Z" transform="translate(-286 -232)" fill="#fff"/>
      </g>
    </g>
    <g id="Grupo_172815" data-name="Grupo 172815" transform="translate(74.925 23.021)">
      <g id="Grupo_172814" data-name="Grupo 172814">
        <path id="Trazado_209576" data-name="Trazado 209576" d="M247.338,172a1.338,1.338,0,1,0,1.338,1.338A1.339,1.339,0,0,0,247.338,172Z" transform="translate(-246 -172)" fill="#fff"/>
      </g>
    </g>
    <g id="Grupo_172817" data-name="Grupo 172817" transform="translate(58.865 57.819)">
      <g id="Grupo_172816" data-name="Grupo 172816">
        <path id="Trazado_209577" data-name="Trazado 209577" d="M127.338,432a1.338,1.338,0,1,0,1.338,1.338A1.339,1.339,0,0,0,127.338,432Z" transform="translate(-126 -432)" fill="#fff"/>
      </g>
    </g>
    <g id="Grupo_172819" data-name="Grupo 172819" transform="translate(47.152 0.803)">
      <g id="Grupo_172818" data-name="Grupo 172818">
        <path id="Trazado_209578" data-name="Trazado 209578" d="M102.82,54.564,85.633,24.008V7.8A4.015,4.015,0,0,0,84.294,0H68.233A4.015,4.015,0,0,0,66.9,7.8V24.008L49.708,54.564a9.369,9.369,0,0,0,8.165,13.963H94.655a9.369,9.369,0,0,0,8.165-13.963ZM69.4,25.015a1.338,1.338,0,0,0,.172-.656V8.03H70.91a1.338,1.338,0,0,0,0-2.677H68.233a1.338,1.338,0,0,1,0-2.677H84.294a1.338,1.338,0,0,1,0,2.677H81.617a1.338,1.338,0,0,0,0,2.677h1.338V24.359a1.338,1.338,0,0,0,.172.656L91.016,39.04a25.807,25.807,0,0,0-14.029,2.868,23,23,0,0,1-17.935,1.5Zm31.031,37.521a6.628,6.628,0,0,1-5.776,3.313H57.873a6.692,6.692,0,0,1-5.832-9.974l5.676-10.091a25.649,25.649,0,0,0,8.49,1.447q.642,0,1.287-.032a25.986,25.986,0,0,0,10.724-2.916,23.106,23.106,0,0,1,14.426-2.353l7.844,13.944A6.63,6.63,0,0,1,100.431,62.536Z" transform="translate(-48.491)" fill="#fff"/>
      </g>
    </g>
    <g id="Grupo_172821" data-name="Grupo 172821" transform="translate(66.895 31.051)">
      <g id="Grupo_172820" data-name="Grupo 172820">
        <path id="Trazado_209579" data-name="Trazado 209579" d="M190.015,232a4.015,4.015,0,1,0,4.015,4.015A4.02,4.02,0,0,0,190.015,232Zm0,5.354a1.338,1.338,0,1,1,1.338-1.338A1.34,1.34,0,0,1,190.015,237.354Z" transform="translate(-186 -232)" fill="#fff"/>
      </g>
    </g>
    <g id="Grupo_172823" data-name="Grupo 172823" transform="translate(64.218 57.819)">
      <g id="Grupo_172822" data-name="Grupo 172822">
        <path id="Trazado_209580" data-name="Trazado 209580" d="M194.107,432H167.338a1.338,1.338,0,1,0,0,2.677h26.768a1.338,1.338,0,1,0,0-2.677Z" transform="translate(-166 -432)" fill="#fff"/>
      </g>
    </g>
  </g>
</svg>
