<svg xmlns="http://www.w3.org/2000/svg" xmlns:xlink="http://www.w3.org/1999/xlink" width="610" height="444.291" viewBox="0 0 610 444.291">
  <defs>
    <clipPath id="clip-path">
      <rect id="Rectángulo_50785" data-name="Rectángulo 50785" width="470.312" height="294.271" fill="none"/>
    </clipPath>
  </defs>
  <g id="Grupo_1033706" data-name="Grupo 1033706" transform="translate(-705.004 -5940.528)">
    <g id="Grupo_160943" data-name="Grupo 160943" transform="translate(525.004 -2570.912)" opacity="0.13">
      <g id="Grupo_154652" data-name="Grupo 154652" transform="translate(180 8511.44)">
        <g id="Grupo_154160" data-name="Grupo 154160" transform="translate(0 0)">
          <g id="Grupo_66834" data-name="Grupo 66834">
            <path id="Trazado_132887" data-name="Trazado 132887" d="M738.348,526.863c-56.821,77.476-60.758,301.127,19.052,359.663s213.167-70.218,269.973-147.691,38.17-187.709-41.638-246.245S795.159,449.4,738.348,526.863Z" transform="translate(-505.222 -457.039)" fill="#15d3ec"/>
            <path id="Trazado_132888" data-name="Trazado 132888" d="M652.737,605.065c0,108.19,226.26,226.357,351.078,226.357s258.922-118.167,258.922-226.357-52.662-181.459-236.98-99.419C914.718,555.061,652.737,496.877,652.737,605.065Z" transform="translate(-652.737 -437.812)" fill="#7e5ee3"/>
          </g>
        </g>
      </g>
    </g>
    <g id="Grupo_173647" data-name="Grupo 173647" transform="translate(800 6008.683)">
      <g id="Grupo_173646" data-name="Grupo 173646" clip-path="url(#clip-path)">
        <path id="Trazado_210938" data-name="Trazado 210938" d="M199.123,231.457a.314.314,0,1,1-.366-.511c.178-.13.354-.246.542-.362a.315.315,0,1,1,.331.535c-.175.108-.34.219-.507.337m-2.2,1.268a.315.315,0,0,1,.5.38c-.123.158-.24.326-.35.5a.314.314,0,1,1-.529-.34c.116-.182.243-.363.376-.535m-1.592,3.545a.314.314,0,1,1,.616.121c-.04.2-.068.4-.094.6a.315.315,0,1,1-.626-.072c.028-.216.059-.432.1-.645m.119,3.885a.315.315,0,0,1,.609-.161c.053.2.109.385.177.577a.315.315,0,0,1-.594.209c-.07-.209-.133-.411-.191-.625m1.819,3.438a.315.315,0,1,1,.475-.414,5.716,5.716,0,0,0,.412.443.314.314,0,1,1-.441.448c-.153-.147-.308-.316-.446-.477m3.142,2.291a.315.315,0,1,1,.244-.58c.185.079.376.15.567.214a.316.316,0,0,1-.2.6c-.207-.072-.409-.148-.61-.232m3.828.678a.316.316,0,1,1-.034-.631c.205-.01.4-.034.6-.053a.312.312,0,0,1,.351.272.315.315,0,0,1-.27.353c-.211.029-.439.047-.651.058m3.737-1.074a.315.315,0,0,1-.308-.551c.177-.1.348-.2.518-.314a.315.315,0,0,1,.348.524c-.182.119-.369.235-.559.34m2.886-2.6a.315.315,0,0,1-.517-.361,5.7,5.7,0,0,0,.327-.508.316.316,0,1,1,.545.319c-.106.177-.231.385-.355.551m1.448-3.611a.315.315,0,0,1-.623-.095c.032-.2.054-.4.072-.6a.315.315,0,1,1,.628.05c-.02.216-.042.43-.077.645m-.28-3.877a.315.315,0,0,1-.6.189c-.059-.195-.127-.385-.2-.572a.316.316,0,0,1,.587-.232c.079.2.151.406.215.615m-1.956-3.359a.315.315,0,1,1-.459.433c-.14-.147-.282-.287-.431-.427a.314.314,0,0,1,.424-.464c.161.145.316.3.466.458m-3.234-2.159a.314.314,0,1,1-.221.588c-.188-.072-.381-.135-.574-.19a.315.315,0,0,1,.174-.606c.209.061.419.129.621.209m-3.852-.522a.315.315,0,1,1,.058.628q-.3.027-.6.079a.315.315,0,0,1-.1-.622c.217-.034.428-.063.648-.084" transform="translate(-87.799 -103.15)" fill="#d0d9ee" fill-rule="evenodd"/>
        <rect id="Rectángulo_50742" data-name="Rectángulo 50742" width="13.041" height="4.504" transform="matrix(0.812, -0.584, 0.584, 0.812, 121.96, 158.282)" fill="#bcc9e7"/>
        <path id="Trazado_210939" data-name="Trazado 210939" d="M199.276,252.823a2.146,2.146,0,0,1-2.264-.915l-.184-.256c-5.276-7.075-13.016-4.558-19.222-12.118a14.784,14.784,0,0,1-1.239-1.75c-3.336-6.719-.525-14.862,5.9-19.478,7.314-5.259,17.48-4.618,22.353,3.152,5.044,8.034.447,14.3,5.325,21.331a2.049,2.049,0,0,1-.369,2.631Z" transform="translate(-78.682 -96.645)" fill="#ff9d00" fill-rule="evenodd"/>
        <path id="Trazado_210940" data-name="Trazado 210940" d="M234.566,276.385a1.974,1.974,0,0,1-.554,2.58l-1.22.875.083,1.12c.049.641-.091.786-.615,1.162l-2.87,2.064c-.523.377-.7.464-1.3.211l-1.033-.435-1.22.881a1.975,1.975,0,0,1-2.6-.27l-.4-.559a.512.512,0,0,1,.174-.606l10.539-7.578a.51.51,0,0,1,.634.034c.015.014.03.056.045.056Zm-13.433,4.093a.7.7,0,0,0-.158.967l.627.873a.7.7,0,0,0,.966.158l10.241-7.363a.694.694,0,0,0,.158-.967l-.627-.87a.7.7,0,0,0-.967-.161Zm-2.041-2.889a.724.724,0,0,0-.165,1.007l.652.909a.724.724,0,0,0,1.007.163l10.2-7.328a.726.726,0,0,0,.165-1.007l-.654-.91a.722.722,0,0,0-1.006-.163Z" transform="translate(-98.399 -121.485)" fill="#aab9de" fill-rule="evenodd"/>
        <path id="Trazado_210941" data-name="Trazado 210941" d="M211.858,259.635,201.345,247.3l-1.571,1.131a3.029,3.029,0,0,1-2.26.527v0a3.034,3.034,0,0,1-1.282-5.456,2.9,2.9,0,0,1,2.186-.509,3.411,3.411,0,0,1,2.013,1.157l1.134,1.318,4.805-3.456-.888-1.495a3.407,3.407,0,0,1-.454-2.275,2.891,2.891,0,0,1,1.179-1.911,3.036,3.036,0,0,1,3.544,4.929l-1.571,1.129,8.344,13.894-1.106.8-8.349-13.889-4.612,3.313,10.507,12.34Zm-11.4-13.372-1.057-1.229a2.01,2.01,0,0,0-1.2-.7,1.547,1.547,0,0,0-1.17.269,1.672,1.672,0,0,0,.7,3.008h0a1.68,1.68,0,0,0,1.247-.29Zm7.027-5.054,1.475-1.06a1.67,1.67,0,0,0-.708-3v0a1.663,1.663,0,0,0-1.243.293,1.55,1.55,0,0,0-.63,1.022,2.042,2.042,0,0,0,.28,1.361Z" transform="translate(-87.685 -106.03)" fill="#fff" fill-rule="evenodd"/>
        <path id="Trazado_210942" data-name="Trazado 210942" d="M202.168,221.573a.85.85,0,1,1-.378-1.658c.374-.084.74-.15,1.094-.2s.734-.077,1.1-.092a.852.852,0,0,1,.066,1.7c-.315.013-.632.04-.949.082s-.637.095-.936.163m4.63.021a.853.853,0,1,1,.39-1.661,11.6,11.6,0,0,1,3.779,1.637,11.386,11.386,0,0,1,2.947,2.842.854.854,0,1,1-1.387,1,9.734,9.734,0,0,0-2.5-2.423,9.933,9.933,0,0,0-3.225-1.392" transform="translate(-90.454 -98.773)" fill="#fff" fill-rule="evenodd"/>
        <path id="Trazado_210943" data-name="Trazado 210943" d="M24.012,291.334a9.06,9.06,0,1,1,9.058-9.061,9.056,9.056,0,0,1-9.058,9.061M46.2,278.272H41.866a1.8,1.8,0,0,1-1.716-1.231,16.69,16.69,0,0,0-1.027-2.478,1.8,1.8,0,0,1,.343-2.085l3.066-3.066a1.815,1.815,0,0,0,0-2.572l-3.084-3.088a1.819,1.819,0,0,0-2.574,0l-3.066,3.066a1.794,1.794,0,0,1-2.086.343,16.615,16.615,0,0,0-2.478-1.026,1.8,1.8,0,0,1-1.231-1.716v-4.336a1.82,1.82,0,0,0-1.82-1.821H21.83a1.82,1.82,0,0,0-1.82,1.821v4.336a1.8,1.8,0,0,1-1.231,1.716,17.012,17.012,0,0,0-2.478,1.026,1.794,1.794,0,0,1-2.085-.343l-3.066-3.066a1.817,1.817,0,0,0-2.572,0l-3.086,3.085a1.82,1.82,0,0,0,0,2.575l3.066,3.066a1.8,1.8,0,0,1,.343,2.085,16.984,16.984,0,0,0-1.026,2.478,1.8,1.8,0,0,1-1.717,1.231H1.821A1.82,1.82,0,0,0,0,280.092v4.365a1.82,1.82,0,0,0,1.821,1.819H6.156a1.8,1.8,0,0,1,1.717,1.231A17.014,17.014,0,0,0,8.9,289.984a1.8,1.8,0,0,1-.343,2.085l-3.066,3.066a1.82,1.82,0,0,0,0,2.575l3.086,3.082a1.815,1.815,0,0,0,2.572,0l3.066-3.068a1.8,1.8,0,0,1,2.085-.341,17.012,17.012,0,0,0,2.478,1.026,1.8,1.8,0,0,1,1.231,1.716v4.337a1.819,1.819,0,0,0,1.82,1.819h4.363a1.819,1.819,0,0,0,1.82-1.819v-4.337a1.8,1.8,0,0,1,1.231-1.716,16.911,16.911,0,0,0,2.478-1.026,1.8,1.8,0,0,1,2.085.341l3.067,3.068a1.818,1.818,0,0,0,2.573,0l3.085-3.088a1.815,1.815,0,0,0,0-2.572l-3.066-3.066a1.8,1.8,0,0,1-.343-2.085,16.838,16.838,0,0,0,1.027-2.478,1.8,1.8,0,0,1,1.717-1.231H46.2a1.819,1.819,0,0,0,1.821-1.819v-4.365a1.82,1.82,0,0,0-1.821-1.819" transform="translate(0 -116.149)" fill="#d0d9ee" fill-rule="evenodd"/>
        <path id="Trazado_210944" data-name="Trazado 210944" d="M102.389,328.375a5.7,5.7,0,1,1,5.7-5.7,5.7,5.7,0,0,1-5.7,5.7m13.971-8.221h-2.73a1.131,1.131,0,0,1-1.081-.775,10.222,10.222,0,0,0-.646-1.561,1.13,1.13,0,0,1,.215-1.31l1.932-1.935a1.143,1.143,0,0,0,0-1.618l-1.942-1.942a1.145,1.145,0,0,0-1.621,0l-1.931,1.93a1.132,1.132,0,0,1-1.312.216,10.735,10.735,0,0,0-1.561-.646,1.131,1.131,0,0,1-.775-1.081V308.7a1.147,1.147,0,0,0-1.147-1.147h-2.747a1.147,1.147,0,0,0-1.147,1.147v2.728a1.131,1.131,0,0,1-.775,1.081,11.06,11.06,0,0,0-1.559.646,1.135,1.135,0,0,1-1.313-.214l-1.931-1.932a1.145,1.145,0,0,0-1.622,0l-1.942,1.942a1.15,1.15,0,0,0,0,1.621l1.932,1.933a1.125,1.125,0,0,1,.215,1.31,10.566,10.566,0,0,0-.646,1.561,1.131,1.131,0,0,1-1.081.775H88.417a1.146,1.146,0,0,0-1.146,1.144v2.75a1.144,1.144,0,0,0,1.146,1.144h2.732a1.134,1.134,0,0,1,1.08.775,10.589,10.589,0,0,0,.646,1.561,1.129,1.129,0,0,1-.216,1.313l-1.931,1.933a1.147,1.147,0,0,0,0,1.621l1.942,1.941a1.146,1.146,0,0,0,1.622,0l1.931-1.93a1.133,1.133,0,0,1,1.313-.216,10.679,10.679,0,0,0,1.559.646,1.133,1.133,0,0,1,.775,1.081v2.731a1.148,1.148,0,0,0,1.147,1.147h2.747a1.147,1.147,0,0,0,1.146-1.147v-2.731a1.132,1.132,0,0,1,.774-1.081,10.333,10.333,0,0,0,1.561-.646,1.132,1.132,0,0,1,1.312.216l1.931,1.93a1.143,1.143,0,0,0,1.621,0l1.942-1.943a1.143,1.143,0,0,0,0-1.618l-1.932-1.933a1.134,1.134,0,0,1-.215-1.313,10.357,10.357,0,0,0,.646-1.561,1.136,1.136,0,0,1,1.081-.775h2.73a1.142,1.142,0,0,0,1.145-1.144V321.3a1.145,1.145,0,0,0-1.145-1.144" transform="translate(-39.249 -138.319)" fill="#d0d9ee" fill-rule="evenodd"/>
        <path id="Trazado_210945" data-name="Trazado 210945" d="M68.731,240.913a3.523,3.523,0,1,1,3.523-3.524,3.521,3.521,0,0,1-3.523,3.524m8.63-5.08H75.675a.7.7,0,0,1-.667-.477,6.435,6.435,0,0,0-.4-.965.7.7,0,0,1,.134-.812l1.194-1.191a.709.709,0,0,0,0-1l-1.2-1.2a.706.706,0,0,0-1,0l-1.192,1.191a.694.694,0,0,1-.812.134,6.484,6.484,0,0,0-.964-.4.7.7,0,0,1-.478-.667v-1.687a.709.709,0,0,0-.709-.709h-1.7a.707.707,0,0,0-.708.709v1.687a.7.7,0,0,1-.479.667,6.558,6.558,0,0,0-.964.4.7.7,0,0,1-.812-.134l-1.191-1.191a.708.708,0,0,0-1,0l-1.2,1.2a.708.708,0,0,0,0,1l1.194,1.191a.705.705,0,0,1,.133.812,6.673,6.673,0,0,0-.4.965.7.7,0,0,1-.666.477H60.1a.709.709,0,0,0-.708.707v1.7a.707.707,0,0,0,.707.709h1.687a.694.694,0,0,1,.666.479,6.778,6.778,0,0,0,.4.962.7.7,0,0,1-.134.812l-1.192,1.191a.708.708,0,0,0,0,1l1.2,1.2a.706.706,0,0,0,1,0l1.191-1.191a.7.7,0,0,1,.812-.132,6.787,6.787,0,0,0,.964.4.7.7,0,0,1,.479.667v1.687a.709.709,0,0,0,.708.709h1.7a.709.709,0,0,0,.707-.709v-1.687a.7.7,0,0,1,.478-.667,6.432,6.432,0,0,0,.964-.4.7.7,0,0,1,.812.132l1.192,1.191a.7.7,0,0,0,1,0l1.2-1.2a.705.705,0,0,0,0-1L74.741,241.2a.7.7,0,0,1-.134-.812,6.357,6.357,0,0,0,.4-.962.7.7,0,0,1,.667-.479h1.687a.707.707,0,0,0,.707-.709v-1.7a.708.708,0,0,0-.707-.707" transform="translate(-26.712 -102.563)" fill="#d0d9ee" fill-rule="evenodd"/>
        <path id="Trazado_210946" data-name="Trazado 210946" d="M322.145,377.211a9.06,9.06,0,1,0-9.061-9.058,9.053,9.053,0,0,0,9.061,9.058M299.954,364.15h4.335a1.8,1.8,0,0,0,1.717-1.231,16.588,16.588,0,0,1,1.025-2.475,1.8,1.8,0,0,0-.342-2.085l-3.066-3.069a1.816,1.816,0,0,1,0-2.572l3.084-3.088a1.824,1.824,0,0,1,2.574,0l3.067,3.066a1.8,1.8,0,0,0,2.086.343,17.253,17.253,0,0,1,2.477-1.026,1.8,1.8,0,0,0,1.232-1.716v-4.336a1.82,1.82,0,0,1,1.819-1.819h4.364a1.82,1.82,0,0,1,1.82,1.819V350.3a1.8,1.8,0,0,0,1.231,1.716,16.91,16.91,0,0,1,2.478,1.026,1.8,1.8,0,0,0,2.086-.341l3.065-3.066a1.819,1.819,0,0,1,2.574,0l3.084,3.085a1.815,1.815,0,0,1,0,2.572l-3.066,3.066a1.8,1.8,0,0,0-.343,2.088,16.719,16.719,0,0,1,1.027,2.475A1.8,1.8,0,0,0,340,364.15h4.336a1.822,1.822,0,0,1,1.821,1.822v4.362a1.821,1.821,0,0,1-1.82,1.819H340a1.8,1.8,0,0,0-1.716,1.231,16.654,16.654,0,0,1-1.027,2.478,1.8,1.8,0,0,0,.343,2.085l3.066,3.066a1.818,1.818,0,0,1,0,2.575l-3.084,3.084a1.818,1.818,0,0,1-2.574,0l-3.065-3.066a1.8,1.8,0,0,0-2.086-.342,17.236,17.236,0,0,1-2.478,1.028,1.793,1.793,0,0,0-1.231,1.713v4.337a1.819,1.819,0,0,1-1.82,1.821h-4.364a1.82,1.82,0,0,1-1.819-1.821v-4.337a1.794,1.794,0,0,0-1.232-1.713,17.272,17.272,0,0,1-2.477-1.028,1.8,1.8,0,0,0-2.086.342l-3.067,3.066a1.817,1.817,0,0,1-2.573,0l-3.085-3.084a1.819,1.819,0,0,1,0-2.575l3.066-3.066a1.8,1.8,0,0,0,.342-2.085,16.525,16.525,0,0,1-1.025-2.478,1.8,1.8,0,0,0-1.717-1.231h-4.335a1.819,1.819,0,0,1-1.82-1.819v-4.362a1.82,1.82,0,0,1,1.82-1.822" transform="translate(-134.081 -154.773)" fill="#d0d9ee" fill-rule="evenodd"/>
        <path id="Trazado_210947" data-name="Trazado 210947" d="M258.3,414.253a5.7,5.7,0,1,0-5.7-5.7,5.7,5.7,0,0,0,5.7,5.7m-13.971-8.224h2.729a1.132,1.132,0,0,0,1.081-.775,10.473,10.473,0,0,1,.645-1.558,1.131,1.131,0,0,0-.215-1.313l-1.933-1.933a1.146,1.146,0,0,1,0-1.621l1.941-1.94a1.145,1.145,0,0,1,1.621,0l1.931,1.93a1.139,1.139,0,0,0,1.314.216,10.331,10.331,0,0,1,1.561-.649,1.129,1.129,0,0,0,.774-1.08v-2.728a1.147,1.147,0,0,1,1.147-1.147h2.746a1.146,1.146,0,0,1,1.146,1.147v2.728a1.13,1.13,0,0,0,.775,1.08,10.8,10.8,0,0,1,1.561.649,1.135,1.135,0,0,0,1.311-.216l1.931-1.93a1.144,1.144,0,0,1,1.621,0l1.943,1.94a1.148,1.148,0,0,1,0,1.621l-1.931,1.933a1.128,1.128,0,0,0-.215,1.313,10.465,10.465,0,0,1,.644,1.558,1.133,1.133,0,0,0,1.081.775h2.731a1.148,1.148,0,0,1,1.147,1.147v2.747a1.147,1.147,0,0,1-1.146,1.147h-2.732a1.133,1.133,0,0,0-1.081.775,10.521,10.521,0,0,1-.644,1.558,1.125,1.125,0,0,0,.216,1.312l1.929,1.933a1.147,1.147,0,0,1,0,1.621l-1.943,1.943a1.149,1.149,0,0,1-1.621,0l-1.931-1.932a1.133,1.133,0,0,0-1.311-.216,10.677,10.677,0,0,1-1.561.648,1.129,1.129,0,0,0-.775,1.079v2.731a1.146,1.146,0,0,1-1.145,1.147H256.93a1.147,1.147,0,0,1-1.146-1.147V419.79a1.129,1.129,0,0,0-.774-1.079,10.217,10.217,0,0,1-1.561-.648,1.137,1.137,0,0,0-1.314.216l-1.931,1.932a1.143,1.143,0,0,1-1.62,0l-1.944-1.943a1.146,1.146,0,0,1,0-1.621l1.931-1.933a1.133,1.133,0,0,0,.215-1.312,10.526,10.526,0,0,1-.645-1.558,1.132,1.132,0,0,0-1.081-.775h-2.729a1.145,1.145,0,0,1-1.145-1.147v-2.75a1.146,1.146,0,0,1,1.145-1.144" transform="translate(-109.37 -176.94)" fill="#d0d9ee" fill-rule="evenodd"/>
        <path id="Trazado_210948" data-name="Trazado 210948" d="M301.408,326.791a3.523,3.523,0,1,0-3.523-3.522,3.52,3.52,0,0,0,3.523,3.522m-8.629-5.079h1.687a.7.7,0,0,0,.667-.477,6.178,6.178,0,0,1,.4-.962.7.7,0,0,0-.133-.812l-1.193-1.194a.705.705,0,0,1,0-1l1.2-1.2a.712.712,0,0,1,1,0l1.191,1.194a.7.7,0,0,0,.812.134,6.461,6.461,0,0,1,.965-.4.7.7,0,0,0,.477-.667v-1.687a.708.708,0,0,1,.709-.707h1.695a.709.709,0,0,1,.709.707v1.687a.7.7,0,0,0,.477.667,6.463,6.463,0,0,1,.965.4.7.7,0,0,0,.811-.134l1.191-1.194a.712.712,0,0,1,1,0l1.2,1.2a.7.7,0,0,1,0,1l-1.193,1.194a.7.7,0,0,0-.132.812,6.567,6.567,0,0,1,.4.962.7.7,0,0,0,.667.477h1.687a.709.709,0,0,1,.708.709v1.695a.707.707,0,0,1-.708.709h-1.687a.7.7,0,0,0-.667.479,6.7,6.7,0,0,1-.4.962.7.7,0,0,0,.132.812l1.193,1.191a.708.708,0,0,1,0,1l-1.2,1.2a.705.705,0,0,1-1,0l-1.193-1.191a.7.7,0,0,0-.811-.134,6.536,6.536,0,0,1-.965.4.7.7,0,0,0-.477.667V331.9a.708.708,0,0,1-.709.709h-1.7a.708.708,0,0,1-.708-.709v-1.685a.7.7,0,0,0-.477-.667,6.62,6.62,0,0,1-.964-.4.7.7,0,0,0-.813.134l-1.192,1.191a.707.707,0,0,1-1,0l-1.2-1.2a.709.709,0,0,1,0-1l1.193-1.191a.7.7,0,0,0,.133-.812,6.291,6.291,0,0,1-.4-.962.7.7,0,0,0-.667-.479h-1.687a.708.708,0,0,1-.708-.707v-1.7a.71.71,0,0,1,.708-.709" transform="translate(-131.354 -141.186)" fill="#d0d9ee" fill-rule="evenodd"/>
        <path id="Trazado_210949" data-name="Trazado 210949" d="M715.952,56.907l.4,1.914Z" transform="translate(-321.988 -25.593)" fill="#48505b" fill-rule="evenodd"/>
        <path id="Trazado_210950" data-name="Trazado 210950" d="M715.952,56.907l1.69.348Z" transform="translate(-321.988 -25.593)" fill="#48505b" fill-rule="evenodd"/>
        <path id="Trazado_210951" data-name="Trazado 210951" d="M790.394,98.382H730.981a5.966,5.966,0,0,1-5.947-5.949V42.661a9.672,9.672,0,0,1,9.644-9.643l52.019,0a9.673,9.673,0,0,1,9.644,9.645V92.433a5.966,5.966,0,0,1-5.947,5.949" transform="translate(-326.073 -14.848)" fill="#d0d9ee" fill-rule="evenodd"/>
        <path id="Trazado_210952" data-name="Trazado 210952" d="M796.274,38.528v1.587a9.815,9.815,0,0,0-9.687-9.767H734.568a9.9,9.9,0,0,0-9.78,9.767V38.528a10.018,10.018,0,0,1,9.909-9.885H786.46a9.937,9.937,0,0,1,9.814,9.885" transform="translate(-325.962 -12.882)" fill="#aab9de" fill-rule="evenodd"/>
        <path id="Trazado_210953" data-name="Trazado 210953" d="M796.274,41.164V89.849a6.24,6.24,0,0,1-6.069,6.208H730.95a6.321,6.321,0,0,1-6.162-6.208V41.164a9.893,9.893,0,0,1,9.78-9.764l52.019,0a9.815,9.815,0,0,1,9.687,9.767" transform="translate(-325.962 -14.12)" fill="#fff" fill-rule="evenodd"/>
        <path id="Trazado_210954" data-name="Trazado 210954" d="M796.274,41.164v7.109H724.788V41.164a9.893,9.893,0,0,1,9.78-9.764l52.019,0a9.815,9.815,0,0,1,9.687,9.767" transform="translate(-325.962 -14.12)" fill="#ff9d00" fill-rule="evenodd"/>
        <path id="Trazado_210955" data-name="Trazado 210955" d="M744.77,67.327a1.68,1.68,0,1,1-1.679-1.75,1.716,1.716,0,0,1,1.679,1.75" transform="translate(-333.439 -29.492)" fill="#aab9de" fill-rule="evenodd"/>
        <path id="Trazado_210956" data-name="Trazado 210956" d="M744.794,47.974a1.81,1.81,0,1,1-1.81-1.885,1.848,1.848,0,0,1,1.81,1.885" transform="translate(-333.333 -20.728)" fill="#aab9de" fill-rule="evenodd"/>
        <path id="Trazado_210957" data-name="Trazado 210957" d="M835.405,67.327a1.68,1.68,0,1,1-1.678-1.75,1.716,1.716,0,0,1,1.678,1.75" transform="translate(-374.201 -29.492)" fill="#aab9de" fill-rule="evenodd"/>
        <path id="Trazado_210958" data-name="Trazado 210958" d="M835.429,47.974a1.811,1.811,0,1,1-1.809-1.885,1.848,1.848,0,0,1,1.809,1.885" transform="translate(-374.094 -20.728)" fill="#aab9de" fill-rule="evenodd"/>
        <path id="Trazado_210959" data-name="Trazado 210959" d="M743.468,60.227h-.074a1.222,1.222,0,0,1-1.219-1.218V49.137a1.222,1.222,0,0,1,1.219-1.218h.074a1.221,1.221,0,0,1,1.218,1.218v9.872a1.222,1.222,0,0,1-1.218,1.218" transform="translate(-333.782 -21.551)" fill="#99a9d4" fill-rule="evenodd"/>
        <path id="Trazado_210960" data-name="Trazado 210960" d="M834.111,60.227h-.076a1.222,1.222,0,0,1-1.218-1.218l0-9.872a1.221,1.221,0,0,1,1.217-1.218h.076a1.22,1.22,0,0,1,1.216,1.218v9.872a1.221,1.221,0,0,1-1.216,1.218" transform="translate(-374.546 -21.551)" fill="#99a9d4" fill-rule="evenodd"/>
        <path id="Trazado_210961" data-name="Trazado 210961" d="M829.9,116.012l-16.865,17.735a33.508,33.508,0,0,0,.642-5.084c0-1.247-.252-2.333-.337-4.123-.242-5.022,2.668-6.3,4.041-7.043,2.1-1.139,5.557-.3,7.638-.43.88-.058,4.226-.206,4.882-1.054" transform="translate(-365.652 -52.175)" fill="#d0d9ee" fill-rule="evenodd"/>
        <path id="Trazado_210962" data-name="Trazado 210962" d="M835.493,113.9l-22.454,18.85a37.848,37.848,0,0,0,1.337-5.881c.139-1.46-.053-2.762.037-4.869.257-5.91,3.933-7.075,5.685-7.79,2.685-1.094,6.793.287,9.341.366,1.077.032,5.164.243,6.055-.677" transform="translate(-365.652 -51.175)" fill="#dee7f5" fill-rule="evenodd"/>
        <rect id="Rectángulo_50743" data-name="Rectángulo 50743" width="9.511" height="6.166" transform="translate(406.321 43.487)" fill="#d0d9ee"/>
        <rect id="Rectángulo_50744" data-name="Rectángulo 50744" width="9.511" height="6.168" transform="translate(406.321 54.461)" fill="#d0d9ee"/>
        <rect id="Rectángulo_50745" data-name="Rectángulo 50745" width="9.514" height="6.168" transform="translate(421.457 54.461)" fill="#ff9d00"/>
        <rect id="Rectángulo_50746" data-name="Rectángulo 50746" width="9.511" height="6.168" transform="translate(436.594 54.461)" fill="#d0d9ee"/>
        <rect id="Rectángulo_50747" data-name="Rectángulo 50747" width="9.511" height="6.168" transform="translate(451.439 54.461)" fill="#d0d9ee"/>
        <rect id="Rectángulo_50748" data-name="Rectángulo 50748" width="9.511" height="6.166" transform="translate(406.321 65.438)" fill="#d0d9ee"/>
        <rect id="Rectángulo_50749" data-name="Rectángulo 50749" width="9.514" height="6.166" transform="translate(421.457 65.438)" fill="#d0d9ee"/>
        <rect id="Rectángulo_50750" data-name="Rectángulo 50750" width="9.511" height="6.166" transform="translate(436.594 65.438)" fill="#d0d9ee"/>
        <rect id="Rectángulo_50751" data-name="Rectángulo 50751" width="9.514" height="6.166" transform="translate(421.457 43.487)" fill="#d0d9ee"/>
        <rect id="Rectángulo_50752" data-name="Rectángulo 50752" width="9.511" height="6.166" transform="translate(436.594 43.487)" fill="#d0d9ee"/>
        <rect id="Rectángulo_50753" data-name="Rectángulo 50753" width="9.511" height="6.166" transform="translate(451.732 43.487)" fill="#d0d9ee"/>
        <path id="Trazado_210963" data-name="Trazado 210963" d="M188.81,178.5c-5.85-2.2-2.926-3.343,0-8.886H171.261c2.924,5.543,5.847,6.687,0,8.886s-21.206,5.243-20.113,7.454v1.94h57.769v-1.94c1.1-2.212-14.26-5.261-20.108-7.454" transform="translate(-67.952 -76.281)" fill="#15d3ec" fill-rule="evenodd"/>
        <path id="Trazado_210964" data-name="Trazado 210964" d="M93.663,97.213a2.216,2.216,0,0,1-2.214-2.22V2.212A2.211,2.211,0,0,1,93.663,0H212.755a2.214,2.214,0,0,1,2.218,2.212V94.993a2.218,2.218,0,0,1-2.218,2.22Z" transform="translate(-41.128)" fill="#15d3ec" fill-rule="evenodd"/>
        <path id="Rectángulo_50754" data-name="Rectángulo 50754" d="M4.024,0h108.64a4.026,4.026,0,0,1,4.026,4.026V71.542a4.029,4.029,0,0,1-4.029,4.029H4.026A4.026,4.026,0,0,1,0,71.545V4.024A4.024,4.024,0,0,1,4.024,0Z" transform="translate(53.738 2.675)" fill="#fff"/>
        <path id="Trazado_210965" data-name="Trazado 210965" d="M196.977,158.546a3.691,3.691,0,1,1,3.692,3.688,3.691,3.691,0,0,1-3.692-3.688" transform="translate(-88.587 -69.643)" fill="#fff" fill-rule="evenodd"/>
        <path id="Trazado_210966" data-name="Trazado 210966" d="M198.23,159.109a3,3,0,1,1,3,3,3.005,3.005,0,0,1-3-3" transform="translate(-89.151 -70.205)" fill="#d0d9ee" fill-rule="evenodd"/>
        <rect id="Rectángulo_50755" data-name="Rectángulo 50755" width="13.295" height="30.586" transform="translate(72.201 43.284)" fill="#d0d9ee"/>
        <rect id="Rectángulo_50756" data-name="Rectángulo 50756" width="13.291" height="13.507" transform="translate(65.556 60.714)" fill="#aab9de"/>
        <rect id="Rectángulo_50757" data-name="Rectángulo 50757" width="11.217" height="4.268" transform="translate(76.771 38.064)" fill="#aab9de"/>
        <rect id="Rectángulo_50758" data-name="Rectángulo 50758" width="13.295" height="59.377" transform="translate(105.435 14.493)" fill="#d0d9ee"/>
        <rect id="Rectángulo_50759" data-name="Rectángulo 50759" width="13.292" height="33.897" transform="translate(98.79 40.323)" fill="#aab9de"/>
        <rect id="Rectángulo_50760" data-name="Rectángulo 50760" width="11.217" height="4.265" transform="translate(110.008 9.276)" fill="#aab9de"/>
        <rect id="Rectángulo_50761" data-name="Rectángulo 50761" width="13.295" height="63.392" transform="translate(138.67 10.478)" fill="#d0d9ee"/>
        <rect id="Rectángulo_50762" data-name="Rectángulo 50762" width="13.293" height="38.323" transform="translate(132.024 35.898)" fill="#aab9de"/>
        <rect id="Rectángulo_50763" data-name="Rectángulo 50763" width="11.218" height="4.265" transform="translate(143.241 5.259)" fill="#aab9de"/>
        <rect id="Rectángulo_50764" data-name="Rectángulo 50764" width="2.43" height="1.954" transform="matrix(0.183, -0.983, 0.983, 0.183, 85.748, 8.578)" fill="#aab9de"/>
        <rect id="Rectángulo_50765" data-name="Rectángulo 50765" width="1.953" height="2.426" transform="matrix(0.652, -0.758, 0.758, 0.652, 80.772, 9.125)" fill="#aab9de"/>
        <rect id="Rectángulo_50766" data-name="Rectángulo 50766" width="2.428" height="1.956" transform="translate(79.956 13.449) rotate(-19.255)" fill="#aab9de"/>
        <rect id="Rectángulo_50767" data-name="Rectángulo 50767" width="2.425" height="1.952" transform="translate(83.943 18.16) rotate(-79.346)" fill="#aab9de"/>
        <rect id="Rectángulo_50768" data-name="Rectángulo 50768" width="1.954" height="2.426" transform="matrix(0.651, -0.759, 0.759, 0.651, 88.172, 15.487)" fill="#aab9de"/>
        <rect id="Rectángulo_50769" data-name="Rectángulo 50769" width="2.427" height="1.955" transform="translate(89.164 10.217) rotate(-19.277)" fill="#aab9de"/>
        <path id="Trazado_210967" data-name="Trazado 210967" d="M152.542,16.008a2.684,2.684,0,0,0-2.213,4.2,2.751,2.751,0,0,0,3.735.7,2.687,2.687,0,0,0-1.523-4.906m.009,7.328a4.641,4.641,0,0,1-2.624-8.472,4.762,4.762,0,0,1,6.454,1.216,4.64,4.64,0,0,1-3.829,7.257" transform="translate(-66.52 -6.339)" fill="#aab9de" fill-rule="evenodd"/>
        <rect id="Rectángulo_50770" data-name="Rectángulo 50770" width="4.36" height="4.477" transform="translate(55.563 17.053) rotate(-79.346)" fill="#aab9de"/>
        <rect id="Rectángulo_50771" data-name="Rectángulo 50771" width="4.361" height="4.474" transform="translate(59.769 7.566) rotate(-34.382)" fill="#aab9de"/>
        <rect id="Rectángulo_50772" data-name="Rectángulo 50772" width="4.474" height="4.36" transform="translate(68.631 8.227) rotate(-79.412)" fill="#aab9de"/>
        <rect id="Rectángulo_50773" data-name="Rectángulo 50773" width="4.47" height="4.361" transform="translate(75.256 10.557) rotate(-34.38)" fill="#aab9de"/>
        <rect id="Rectángulo_50774" data-name="Rectángulo 50774" width="4.362" height="4.474" transform="matrix(0.184, -0.983, 0.983, 0.184, 77.481, 21.178)" fill="#aab9de"/>
        <rect id="Rectángulo_50775" data-name="Rectángulo 50775" width="4.361" height="4.472" transform="translate(72.355 25.98) rotate(-34.413)" fill="#aab9de"/>
        <rect id="Rectángulo_50776" data-name="Rectángulo 50776" width="4.472" height="4.36" transform="translate(64.509 30.141) rotate(-79.338)" fill="#aab9de"/>
        <rect id="Rectángulo_50777" data-name="Rectángulo 50777" width="4.473" height="4.361" transform="matrix(0.826, -0.564, 0.564, 0.826, 56.843, 23.142)" fill="#aab9de"/>
        <path id="Trazado_210968" data-name="Trazado 210968" d="M116.551,15.8a6.733,6.733,0,1,0,5.566,2.934,6.7,6.7,0,0,0-5.566-2.934m.013,17.83a11.1,11.1,0,1,1,6.254-1.938,11.1,11.1,0,0,1-6.254,1.938" transform="translate(-47.432 -5.143)" fill="#aab9de" fill-rule="evenodd"/>
        <path id="Trazado_210969" data-name="Trazado 210969" d="M772.362,201.869,755.25,213.436l-8.634-18.766a20.657,20.657,0,0,1,25.746,7.2" transform="translate(-335.779 -86.7)" fill="#dee7f5" fill-rule="evenodd"/>
        <path id="Trazado_210970" data-name="Trazado 210970" d="M754.279,250.366a20.676,20.676,0,0,1-20.933-6.912l15.936-13.136Z" transform="translate(-329.811 -103.582)" fill="#bcc9e7" fill-rule="evenodd"/>
        <path id="Trazado_210971" data-name="Trazado 210971" d="M745.424,222.941l-15.936,13.136a20.649,20.649,0,0,1-2.645-22.161Z" transform="translate(-325.953 -96.205)" fill="#aab9de" fill-rule="evenodd"/>
        <path id="Trazado_210972" data-name="Trazado 210972" d="M747.12,214.981l-18.581-9.025a20.661,20.661,0,0,1,9.947-9.74Z" transform="translate(-327.649 -88.245)" fill="#99a9d4" fill-rule="evenodd"/>
        <path id="Trazado_210973" data-name="Trazado 210973" d="M782.962,220.865A20.655,20.655,0,0,1,767.3,240.912l-5-20.048L779.419,209.3a20.588,20.588,0,0,1,3.543,11.567" transform="translate(-342.836 -94.129)" fill="#d0d9ee" fill-rule="evenodd"/>
        <path id="Trazado_210974" data-name="Trazado 210974" d="M793.161,282.225l-1.907-3.664a30.684,30.684,0,0,0,5.378-3.556l2.628,3.187a34.6,34.6,0,0,1-6.1,4.033" transform="translate(-355.854 -123.679)" fill="#ff9d00" fill-rule="evenodd"/>
        <path id="Trazado_210975" data-name="Trazado 210975" d="M764.145,291.34c-.519,0-1.039-.013-1.558-.037l.186-4.126a30.8,30.8,0,0,0,7.953-.686l.884,4.036a34.756,34.756,0,0,1-7.465.812" transform="translate(-342.962 -128.845)" fill="#ff9d00" fill-rule="evenodd"/>
        <path id="Trazado_210976" data-name="Trazado 210976" d="M726.511,259.438a34.91,34.91,0,0,1-23.689-40.305l4.045.838A30.766,30.766,0,0,0,727.755,255.5Z" transform="translate(-315.761 -98.552)" fill="#ff9d00" fill-rule="evenodd"/>
        <path id="Trazado_210977" data-name="Trazado 210977" d="M695.733,212.881l9.217-8.23,2.521,12.1Z" transform="translate(-312.895 -92.039)" fill="#ff9d00" fill-rule="evenodd"/>
        <path id="Trazado_210978" data-name="Trazado 210978" d="M518.719,33.538a16.25,16.25,0,0,1,16.474,16.009V272.37a16.248,16.248,0,0,1-16.474,16.012h-160.2a16.249,16.249,0,0,1-16.477-16.012V49.544a16.251,16.251,0,0,1,16.477-16.006Z" transform="translate(-153.828 -15.083)" fill="#81d4fa" fill-rule="evenodd"/>
        <path id="Trazado_210979" data-name="Trazado 210979" d="M521.836,45.979c6.6,0,11.952,4.972,11.952,11.1V265.5c0,6.131-5.351,11.105-11.952,11.105H368c-6.6,0-11.951-4.974-11.951-11.105V57.082c0-6.132,5.352-11.1,11.95-11.1Z" transform="translate(-160.128 -20.678)" fill="#fff" fill-rule="evenodd"/>
        <rect id="Rectángulo_50778" data-name="Rectángulo 50778" width="2.736" height="181.106" transform="translate(219.435 56.955)" fill="#afafaf"/>
        <rect id="Rectángulo_50779" data-name="Rectángulo 50779" width="15.197" height="50.13" transform="translate(231.568 187.157)" fill="#aab9de"/>
        <rect id="Rectángulo_50780" data-name="Rectángulo 50780" width="15.201" height="66.41" transform="translate(261.303 170.877)" fill="#bcc9e7"/>
        <rect id="Rectángulo_50781" data-name="Rectángulo 50781" width="15.196" height="100.51" transform="translate(291.039 136.777)" fill="#d0d9ee"/>
        <rect id="Rectángulo_50782" data-name="Rectángulo 50782" width="15.197" height="128.395" transform="translate(320.772 108.893)" fill="#e9eff8"/>
        <rect id="Rectángulo_50783" data-name="Rectángulo 50783" width="133.602" height="2.723" transform="translate(219.435 235.337)" fill="#afafaf"/>
        <path id="Trazado_210980" data-name="Trazado 210980" d="M394.888,105.608l3.508-8.95,3.511,8.95Z" transform="translate(-177.595 -43.471)" fill="#99a9d4" fill-rule="evenodd"/>
        <path id="Trazado_210981" data-name="Trazado 210981" d="M634.683,423.947l8.95,3.508-8.95,3.506Z" transform="translate(-285.439 -190.664)" fill="#99a9d4" fill-rule="evenodd"/>
        <path id="Trazado_210982" data-name="Trazado 210982" d="M610.558,104.029l21,13.167,1.661-24.048Z" transform="translate(-274.589 -41.891)" fill="#d2e1f1" fill-rule="evenodd"/>
        <path id="Trazado_210983" data-name="Trazado 210983" d="M421.115,229.017l-3.141-5.093,35.152-21.682,31.5-34.759,27.9-24.855,20.059-37.835,12.365,9.052-27.8,32.671-28.427,25.325L456.99,206.884Z" transform="translate(-187.977 -47.129)" fill="#d2e1f1" fill-rule="evenodd"/>
        <path id="Trazado_210984" data-name="Trazado 210984" d="M489.223,280.244a3,3,0,1,1-3-3,3,3,0,0,1,3,3" transform="translate(-217.32 -124.685)" fill="#ff9d00" fill-rule="evenodd"/>
        <path id="Trazado_210985" data-name="Trazado 210985" d="M435.186,316.227a3,3,0,1,1-3-3,3,3,0,0,1,3,3" transform="translate(-193.018 -140.869)" fill="#ff9d00" fill-rule="evenodd"/>
        <path id="Trazado_210986" data-name="Trazado 210986" d="M543.258,220.211a3,3,0,1,1-3-3,3,3,0,0,1,3,3" transform="translate(-241.623 -97.687)" fill="#ff9d00" fill-rule="evenodd"/>
        <path id="Trazado_210987" data-name="Trazado 210987" d="M595.039,174.788a3,3,0,1,1-3-3,3,3,0,0,1,3,3" transform="translate(-264.911 -77.259)" fill="#ff9d00" fill-rule="evenodd"/>
        <path id="Trazado_210988" data-name="Trazado 210988" d="M413.85,72.321h-5.96l-.01-13.2,5.964,0Zm114.724,0h-5.962l-.008-13.2,5.96,0Zm-7.649,0h-5.96l-.012-13.2,5.963,0Zm-7.646,0h-5.964l-.009-13.2,5.963,0Zm-15.3,0h-5.962l-.013-13.2,5.963,0Zm-7.651,0h-5.96l-.008-13.2,5.963,0Zm-7.644,0h-5.963l-.012-13.2,5.963,0Zm-7.649,0h-5.963l-.007-13.2,5.959,0ZM474.231,93.3h-4.089l-.007-9.052h4.091Zm-5.243,0H464.9l-.007-9.052h4.09Zm32.224,0h-4.089l-.005-9.052h4.088Zm-5.243,0h-4.09l-.008-9.052h4.093Zm-5.245,0h-4.089l-.008-9.052h4.088Zm-5.248,0h-4.087l0-9.052h4.088Zm-5.245,0h-4.088l0-9.052h4.085Zm-21.735,0h-4.087l-.007-9.052h4.089Zm-5.243,0h-4.09l-.008-9.052h4.09Zm-5.25,0h-4.085l-.007-9.052H448Zm-5.243,0h-4.09l0-9.052h4.087Zm-5.245,0h-4.088l-.008-9.052h4.088Zm29.876-20.983h-5.963l-.01-13.2,5.963,0Zm-7.648,0H453.78l-.01-13.2,5.962,0Zm-15.3,0h-5.963l-.012-13.2,5.963,0Zm-7.651,0h-5.961l-.007-13.2,5.96,0Zm-7.646,0h-5.961l-.012-13.2,5.962,0Zm-7.648,0H415.54l-.01-13.2,5.96,0Z" transform="translate(-183.438 -26.588)" fill="#d0d9ee" fill-rule="evenodd"/>
        <path id="Trazado_210989" data-name="Trazado 210989" d="M288.174,218.4l-23.8-.285-7.736,41.4,22.676,6.318Z" transform="translate(-115.418 -98.092)" fill="#165396" fill-rule="evenodd"/>
        <path id="Trazado_210990" data-name="Trazado 210990" d="M287.7,221.718l-8.1,43.323-19.13-5.33,7.144-38.236Z" transform="translate(-117.143 -99.605)" fill="#cbd4eb" fill-rule="evenodd"/>
        <path id="Trazado_210991" data-name="Trazado 210991" d="M297.035,307.111h-5.524V294.941l3.485.97L297.035,285Z" transform="translate(-131.102 -128.173)" fill="#0f3d86" fill-rule="evenodd"/>
        <path id="Trazado_210992" data-name="Trazado 210992" d="M185.956,335.559h77.2c.33,0,.6-1.057.6-2.359v-1.181c0-1.3-.267-2.359-.6-2.359h-77.2c-.329,0-.6,1.057-.6,2.359V333.2c0,1.3.267,2.359.6,2.359" transform="translate(-83.363 -148.26)" fill="#9d7558" fill-rule="evenodd"/>
        <path id="Trazado_210993" data-name="Trazado 210993" d="M115.527,177.139c-2.1,7.4,3.031,15.028,8.678,16.631s9.674-3.427,11.778-10.829-.778-14.7-6.424-16.3-11.934,3.1-14.032,10.5" transform="translate(-51.741 -74.803)" fill="#f4ae7c" fill-rule="evenodd"/>
        <path id="Trazado_210994" data-name="Trazado 210994" d="M155.616,446.616s-14.475,22.486-16.429,23.461-6.843,1.223-5.01,4.889,2.568,18.084,4.277,18.82,16.374,2.44,14.175,0-3.553-1.224-4.665-5.623-2.666-12.708-.594-14.416,14.79-17.11,14.79-17.11Z" transform="translate(-60.162 -200.859)" fill="#f4ae7c" fill-rule="evenodd"/>
        <path id="Trazado_210995" data-name="Trazado 210995" d="M299.441,464.163s17.6,29,20.856,31.609,14.013,6.52,5.214,7.17-13.035-2.932-18.575-4.563-12.383-2.608-9.777-6.844,1.525-13.483-4.1-19.348,6.376-8.025,6.376-8.025" transform="translate(-131.127 -208.75)" fill="#f4ae7c" fill-rule="evenodd"/>
        <path id="Trazado_210996" data-name="Trazado 210996" d="M140.2,341.929s43.558-1.141,60.829,13.033c10.1,15.318,34.542,60.508,36.441,65.488-1.3,1.3-8.635,3.657-11.9,3.326-9.613-11.461-22.319-21.371-27.373-30.359-6.226-11.079-8.143-16.621-18.247-17.6s-32.912-4.236-39.754-4.236,0-29.653,0-29.653" transform="translate(-61.686 -153.767)" fill="#7e5ee3" fill-rule="evenodd"/>
        <path id="Trazado_210997" data-name="Trazado 210997" d="M73.652,478.945h2.284L92.31,410.63H87.286Z" transform="translate(-33.124 -184.675)" fill="#9d7558" fill-rule="evenodd"/>
        <path id="Trazado_210998" data-name="Trazado 210998" d="M180.737,476.972h-2.288l-18.787-70.731h5.024Z" transform="translate(-71.805 -182.701)" fill="#9d7558" fill-rule="evenodd"/>
        <path id="Trazado_210999" data-name="Trazado 210999" d="M93.5,336.524l25.326,4.371s33.654.309,49.037,3.177c14,2.607,16.059,18.508,0,40.405-9.122,12.442-16.833,22.364-32.609,33.552-4.014-2.944-5.543-4.06-6.654-11.148,1.142-1.566,4.1-11.361,5.015-13.278,8.722-18.239,20.366-24.871,20.53-26.664-1.954-3.176-51.789,16.56-61.7,4.951C82.986,360.8,93.5,336.524,93.5,336.524" transform="translate(-39.801 -151.346)" fill="#7e5ee3" fill-rule="evenodd"/>
        <path id="Trazado_211000" data-name="Trazado 211000" d="M89.511,232.094a26.492,26.492,0,0,1,19.818,4.929c5.553,5.659,11.833,14.991,11.444,30.386-.488,19.549,3.026,20.806-.638,26.184-15.288,6.313-41.436,33.438-35.28,4.358,4.46-21.057-9.78-36.752,1.7-60.113.937-1.9,2.1-3.746,2.951-5.744" transform="translate(-36.865 -104.251)" fill="#81d4fa" fill-rule="evenodd"/>
        <path id="Trazado_211001" data-name="Trazado 211001" d="M126.446,278.759c.294,10.194,1.734,13.2.632,16.391-6.23.636-17.635,3.132-20.486,7.12-3.255,4.561-6.514,5.214-5,1.845s5.538-8.146-.653-24.547-9.121-27.484-3.041-38.887Z" transform="translate(-42.527 -108.243)" fill="#15d3ec" fill-rule="evenodd"/>
        <path id="Trazado_211002" data-name="Trazado 211002" d="M95.674,215.455a79.535,79.535,0,0,0,5.114-20.648l10.757,3.176s-6.112,13.684-.249,18.574a54.686,54.686,0,0,1,4.2,3.828,26.492,26.492,0,0,0-19.818-4.929" transform="translate(-43.028 -87.611)" fill="#f4ae7c" fill-rule="evenodd"/>
        <path id="Trazado_211003" data-name="Trazado 211003" d="M104.038,197.865c.634-.567,1.43-1.276,2.267-2.014l8.773,2.591.015.048a35.942,35.942,0,0,0-2.736,10.713c-2.618-1.587-5.478-4.173-8.748-8.689.174-1,.314-1.9.428-2.649" transform="translate(-46.597 -88.081)" fill="#ed7d5b" fill-rule="evenodd"/>
        <path id="Trazado_211004" data-name="Trazado 211004" d="M102.993,237.631c11.075,3.875,9.844,15.542,20.038,32.751,5.279,8.9,10.173,8.77,10.173,8.77a235.831,235.831,0,0,0,27.334-1.729c9.371-1.146,9.97,1.645,3.45,3.975-13.144,4.7-26.781,9.756-37.782,8.536s-29.8-29.284-30.775-36.588c-1.34-10.1,1.984-17.665,7.562-15.714" transform="translate(-42.786 -106.733)" fill="#f19651" fill-rule="evenodd"/>
        <path id="Trazado_211005" data-name="Trazado 211005" d="M96.389,355.436q1.033,0,2.114-.026a104.943,104.943,0,0,0,20.058-2.47c5.827-1.183,9.036-1.835,12.82-.026a2.559,2.559,0,0,0,2.2-4.621c-5.328-2.547-9.824-1.632-16.04-.369a100.655,100.655,0,0,1-19.164,2.369c-9.631.238-15.517-1.207-18.527-4.542-2.687-2.981-3.479-7.947-2.492-15.634.338-2.6.672-4.769.966-6.677.828-5.357,1.376-8.9.7-14.356-.628-5.087-2.318-11.873-6.226-25.04a2.561,2.561,0,0,0-4.909,1.458c7.317,24.629,6.943,27.036,5.379,37.156-.3,1.94-.638,4.139-.982,6.806-1.2,9.279,0,15.542,3.763,19.715,3.878,4.3,10.2,6.258,20.341,6.258" transform="translate(-30.484 -126.921)" fill="#9d7558" fill-rule="evenodd"/>
        <path id="Trazado_211006" data-name="Trazado 211006" d="M302.35,508.586c11.677,5.71,17.96,8.984,21.7,8.673.882-.074,1.616-.166,2.229-.261,4.164,2.462,10.812,5.369,3.333,5.923-8.8.654-13.035-2.931-18.575-4.563s-12.383-2.607-9.778-6.844a8.9,8.9,0,0,0,1.086-2.929" transform="translate(-135.232 -228.729)" fill="#152f54" fill-rule="evenodd"/>
        <path id="Trazado_211007" data-name="Trazado 211007" d="M137.91,490.118c.288,9.245,1.559,18.405,7.212,20.137a9.511,9.511,0,0,0,4.073.364c.893,1.1,1.979,1.112,3.434,2.731,2.2,2.44-12.466.73-14.175,0s-2.443-15.155-4.277-18.819c-1.5-3.01,1.526-3.714,3.734-4.413" transform="translate(-60.162 -220.423)" fill="#152f54" fill-rule="evenodd"/>
        <path id="Trazado_211008" data-name="Trazado 211008" d="M204,307.521c7.491-.108,14.928-4.573,18.62-3.922s15.75,9.013,14.229,9.342-11.079-4.629-11.4-4.705-2.39,3.432-7.5,4.718-.034-3.824-15.86.954c-10.287,3.108,1.914-6.387,1.914-6.387" transform="translate(-89.029 -136.51)" fill="#f4ae7c" fill-rule="evenodd"/>
        <path id="Trazado_211009" data-name="Trazado 211009" d="M96.777,216.2l-1.1,8.876s9.7.574,14.525,3.292,11.947,10.56,11.947,10.56l-5.816-10.017-.838-6.411Z" transform="translate(-43.028 -97.233)" fill="#15d3ec" fill-rule="evenodd"/>
        <path id="Trazado_211010" data-name="Trazado 211010" d="M99.528,235.8c7.208-1.349,10.538,5.1,15.208,15.64s12.646,23.334,14.23,24.984,26.722,0,26.722,0,.758,7.278,0,8.146-5.1.762-5.1.762-1.74,1.389-3.37,2.486-15.422,3.163-21.832,2.837-12.276-.871-13.144-1.848S93.881,260.89,92.795,251.221s3.06-14.733,6.734-15.424" transform="translate(-41.654 -105.966)" fill="#81d4fa" fill-rule="evenodd"/>
        <path id="Trazado_211011" data-name="Trazado 211011" d="M119.868,151.386c13.627.654,11.489,21.149,11.489,21.149s-3.539,1.094-10.951-.129c.568-2.2.324-7.821.324-7.821a51.493,51.493,0,0,1-1.953,7.333c-1.571.72-3.34.079-6.356-.648-1.55,6.513-5.922,9.266-8.918,10.207-3.309,1.041-6.807,2.28-10.721.324s-1.759-21.94.314-25.96c3.122-6.034,8.3-11.433,17.262-8.583a67.162,67.162,0,0,1,9.51,4.128" transform="translate(-40.749 -65.875)" fill="#12263f" fill-rule="evenodd"/>
        <path id="Trazado_211012" data-name="Trazado 211012" d="M71.708,194.716l-2.817,3.843s-8.023-.342-8.33,8.96c-.242,7.289-4.9,8.08-10.343,6.738s-7.672,4.645-7.672,4.645,5.146-1.015,8.26,4.887c4.245,8.05,16.491,6.445,19.964-1.9,2.873-6.907-1.6-7.131,1.388-12.174s-2.232-10.745-2.232-10.745l2.722-3.716Z" transform="translate(-19.134 -87.571)" fill="#12263f" fill-rule="evenodd"/>
        <path id="Trazado_211013" data-name="Trazado 211013" d="M100.566,198.941a19.554,19.554,0,0,0,2.885-.232c4.747-.712,11.116-3.412,11.62-18.585a.447.447,0,0,0-.893-.031c-.2,6.282-1.455,10.932-3.7,13.818a10.446,10.446,0,0,1-7.158,3.917c-4.431.665-7.372-.158-8.737-2.443a.446.446,0,0,0-.767.456c1.235,2.061,3.5,3.1,6.753,3.1" transform="translate(-42.163 -80.801)" fill="#0f3970" fill-rule="evenodd"/>
        <rect id="Rectángulo_50784" data-name="Rectángulo 50784" width="22.627" height="2.462" transform="translate(143.306 178.938)" fill="#0f3d86"/>
        <path id="Trazado_211014" data-name="Trazado 211014" d="M148.176,194.928c-.684.19-1.936-.83-2.75-1.115-.41-.143-1.67-.232-1.94-.517-.83-.873,3.457-.654,4.927.944a.456.456,0,0,1-.237.688" transform="translate(-64.483 -86.704)" fill="#0f3970" fill-rule="evenodd"/>
        <path id="Trazado_211015" data-name="Trazado 211015" d="M147.194,199.27c-.552-.277.067-2.578,1.4-1.908.712.356-.5,2.356-1.4,1.908" transform="translate(-66.107 -88.706)" fill="#0f3970" fill-rule="evenodd"/>
      </g>
    </g>
  </g>
</svg>
