<svg xmlns="http://www.w3.org/2000/svg" xmlns:xlink="http://www.w3.org/1999/xlink" width="400" height="310.936" viewBox="0 0 400 310.936">
  <defs>
    <linearGradient id="linear-gradient" x1="0.5" y1="1" x2="0.5" gradientUnits="objectBoundingBox">
      <stop offset="0" stop-color="#5891d1"/>
      <stop offset="1" stop-color="#4e7fdf"/>
    </linearGradient>
    <linearGradient id="linear-gradient-3" x1="0.5" x2="0.5" y2="1" gradientUnits="objectBoundingBox">
      <stop offset="0.005" stop-color="#edf7ff"/>
      <stop offset="1" stop-color="#ddf6ff"/>
    </linearGradient>
    <linearGradient id="linear-gradient-4" x1="1.356" y1="0.682" x2="0.069" y2="0.316" gradientUnits="objectBoundingBox">
      <stop offset="0" stop-color="#ddf6ff"/>
      <stop offset="0.995" stop-color="#fff"/>
    </linearGradient>
    <linearGradient id="linear-gradient-6" x1="0.434" y1="0.564" x2="0.434" y2="1.58" xlink:href="#linear-gradient-3"/>
    <linearGradient id="linear-gradient-7" x1="0.5" x2="0.5" y2="1" gradientUnits="objectBoundingBox">
      <stop offset="0" stop-color="#9da0b5"/>
      <stop offset="0.429" stop-color="#7d8290"/>
      <stop offset="1" stop-color="#565e63"/>
    </linearGradient>
    <linearGradient id="linear-gradient-8" x1="0" y1="0.5" x2="1" y2="0.5" xlink:href="#linear-gradient-3"/>
    <linearGradient id="linear-gradient-10" x1="0.5" x2="0.5" y2="1" gradientUnits="objectBoundingBox">
      <stop offset="0" stop-color="#afaca9"/>
      <stop offset="1" stop-color="#d3d0cb"/>
      <stop offset="1" stop-color="#f1f0e6"/>
      <stop offset="1" stop-color="#fffff3"/>
    </linearGradient>
    <linearGradient id="linear-gradient-11" x1="0.5" x2="0.5" y2="1" gradientUnits="objectBoundingBox">
      <stop offset="0" stop-color="#bddce5"/>
      <stop offset="0.844" stop-color="#6e8f96"/>
      <stop offset="1" stop-color="#5f8188"/>
    </linearGradient>
    <linearGradient id="linear-gradient-12" y1="0.5" x2="1" y2="0.5" gradientUnits="objectBoundingBox">
      <stop offset="0" stop-color="#ece9e7"/>
      <stop offset="0" stop-color="#dedbd8"/>
      <stop offset="0" stop-color="#d3d0cb"/>
      <stop offset="0.095" stop-color="#dbdad7"/>
      <stop offset="0.224" stop-color="#e2e2e1"/>
      <stop offset="0.387" stop-color="#e5e5e5"/>
      <stop offset="0.465" stop-color="#dcdcdb"/>
      <stop offset="0.815" stop-color="#bbb9b7"/>
      <stop offset="1" stop-color="#afaca9"/>
    </linearGradient>
    <linearGradient id="linear-gradient-15" y1="0.5" x2="1" y2="0.5" gradientUnits="objectBoundingBox">
      <stop offset="0" stop-color="#afaca9"/>
      <stop offset="1" stop-color="#d3d0cb"/>
      <stop offset="1" stop-color="#dedbd8"/>
      <stop offset="1" stop-color="#ece9e7"/>
    </linearGradient>
    <linearGradient id="linear-gradient-17" x1="0.5" y1="0" x2="0.5" y2="1" xlink:href="#linear-gradient-12"/>
    <linearGradient id="linear-gradient-18" x1="0.5" x2="0.5" y2="1" gradientUnits="objectBoundingBox">
      <stop offset="0" stop-color="#ece9e7"/>
      <stop offset="0" stop-color="#dedbd8"/>
      <stop offset="0" stop-color="#d3d0cb"/>
      <stop offset="1" stop-color="#afaca9"/>
    </linearGradient>
    <linearGradient id="linear-gradient-26" y1="0.5" x2="1" y2="0.5" gradientUnits="objectBoundingBox">
      <stop offset="0" stop-color="#cfc9c9"/>
      <stop offset="0.995" stop-color="#f0f0f0"/>
      <stop offset="1" stop-color="#d3d0cb"/>
    </linearGradient>
    <linearGradient id="linear-gradient-27" y1="0.5" x2="1" y2="0.5" gradientUnits="objectBoundingBox">
      <stop offset="0" stop-color="#def3ff"/>
      <stop offset="0.392" stop-color="#f1f1f1"/>
      <stop offset="0.746" stop-color="#def3ff"/>
      <stop offset="1" stop-color="#cae4fd"/>
    </linearGradient>
    <linearGradient id="linear-gradient-28" y1="0.5" x2="1" y2="0.5" gradientUnits="objectBoundingBox">
      <stop offset="0.006" stop-color="#e7e8e9"/>
      <stop offset="0.253" stop-color="#fdfce9"/>
      <stop offset="0.419" stop-color="#edeadb"/>
      <stop offset="0.596" stop-color="#d9d4ca"/>
      <stop offset="0.787" stop-color="#f1f1f1"/>
      <stop offset="1" stop-color="#dbd9c4"/>
    </linearGradient>
    <linearGradient id="linear-gradient-29" x1="0.5" x2="0.5" y2="1" gradientUnits="objectBoundingBox">
      <stop offset="0" stop-color="#d2f1fd"/>
      <stop offset="1" stop-color="#b9dafd"/>
    </linearGradient>
    <linearGradient id="linear-gradient-50" x1="0.5" y1="0" x2="0.5" y2="1" xlink:href="#linear-gradient-15"/>
  </defs>
  <g id="Grupo_168580" data-name="Grupo 168580" transform="translate(-701.602 -1014.188)">
    <g id="Grupo_168473" data-name="Grupo 168473" transform="translate(964.464 1046.105)" style="mix-blend-mode: multiply;isolation: isolate">
      <path id="Trazado_204319" data-name="Trazado 204319" d="M1064.13,1060.543l13.042,7.369c-.018.074-.043.143-.061.218l14.887,8.412a11.181,11.181,0,0,0,12.058-.683c-2.311.136-6.692-.229-13.127-3.379-9.98-4.885-27.307-15.341-27.307-15.341a11.27,11.27,0,0,1-5.054-5.915A10.957,10.957,0,0,0,1064.13,1060.543Z" transform="translate(-1058.569 -1051.224)" fill="#dadfe6"/>
    </g>
    <path id="Trazado_204320" data-name="Trazado 204320" d="M1098.128,1059.572c-7.388-4.172-12.663-8.819-11.781-10.381s7.585.555,14.973,4.727,12.662,8.819,11.781,10.38S1105.515,1063.744,1098.128,1059.572Z" transform="translate(-102.656 -4.333)" fill="#e6ebf2" opacity="0.15" style="mix-blend-mode: screen;isolation: isolate"/>
    <path id="Trazado_204321" data-name="Trazado 204321" d="M810.337,1349.064c-8.78-9.085-15.557-18.962-19.8-29.453-11.149-27.558-7.9-60.778,21.742-81.474,40.861-28.532,80.135-29.55,100.153-46.673,24.128-20.639,34.142-46.944,54.117-69.447,41.291-46.516,132.117-76.224,218.081-70.712v297.758Z" transform="translate(-83.027 -23.941)" fill="#81d4fa" opacity="0.22" style="mix-blend-mode: multiply;isolation: isolate"/>
    <g id="Grupo_1036348" data-name="Grupo 1036348" transform="translate(495.258 564.188)">
      <g id="Grupo_1036346" data-name="Grupo 1036346" transform="translate(267.768 450)">
        <circle id="Elipse_5639" data-name="Elipse 5639" cx="7.351" cy="7.351" r="7.351" transform="translate(106.42 44.555) rotate(-45)" fill="#f4faff"/>
        <g id="Grupo_1036318" data-name="Grupo 1036318" transform="translate(86.324 55.179)">
          <path id="Trazado_736443" data-name="Trazado 736443" d="M1421.179,1207.879a15.146,15.146,0,1,1,15.146-15.146A15.164,15.164,0,0,1,1421.179,1207.879Zm0-28.857a13.711,13.711,0,1,0,13.71,13.711A13.726,13.726,0,0,0,1421.179,1179.021Z" transform="translate(-1406.032 -1177.586)" fill="#fbf3e8"/>
        </g>
        <g id="Grupo_1036320" data-name="Grupo 1036320" transform="translate(122.988)">
          <circle id="Elipse_5640" data-name="Elipse 5640" cx="85.001" cy="85.001" r="85.001" transform="translate(8.906 9.33)" fill="#81d4fa"/>
          <g id="Grupo_1036319" data-name="Grupo 1036319">
            <path id="Trazado_736444" data-name="Trazado 736444" d="M2076.28,543.178a92.9,92.9,0,0,0-185.368-7.675l-1.428-.136a94.333,94.333,0,0,1,188.232,7.793Z" transform="translate(-1889.484 -450)" fill="#81d4fa"/>
          </g>
        </g>
        <path id="Trazado_736445" data-name="Trazado 736445" d="M4239.558,2405.736l2.379,35.078,29.188-19.6Z" transform="translate(-3938.345 -2257.417)" fill="#f4faff"/>
        <g id="Grupo_1036321" data-name="Grupo 1036321" transform="translate(318.841 178.665)">
          <path id="Trazado_736446" data-name="Trazado 736446" d="M4491.741,2822.966h-19.734l9.867-17.091Zm-17.248-1.436h14.761l-7.38-12.784Z" transform="translate(-4472.007 -2805.875)" fill="#fbf3e8"/>
        </g>
        <path id="Trazado_736447" data-name="Trazado 736447" d="M3060.046,1338.63s.147-.192.248-.316a6.317,6.317,0,0,1,.655-.74c.018-.017.023,0,.048,0,.057,0,.083.068.091.124a12.751,12.751,0,0,1,.111,2.289,1.887,1.887,0,0,0-.663-.753A1.84,1.84,0,0,1,3060.046,1338.63Z" transform="translate(-2848.285 -1270.256)" fill="#9cc0cb"/>
        <ellipse id="Elipse_5641" data-name="Elipse 5641" cx="40.091" cy="1.914" rx="40.091" ry="1.914" transform="translate(198.645 296.913)" fill="#090909" opacity="0.13"/>
        <path id="Trazado_736448" data-name="Trazado 736448" d="M3041.922,4310.011a6.268,6.268,0,0,1-3.647,2.795,9.707,9.707,0,0,0-2.142.529c-.649.352-1.05,1.327-.5,1.822,3.708.952,6.188-.241,10.006.049a2.1,2.1,0,0,0,1.1-.1,1.382,1.382,0,0,0,.624-1.42c-.033-.276-.1-1.116-.171-2.147C3045.731,4312.493,3043.292,4311.3,3041.922,4310.011Z" transform="translate(-2825.484 -4017.276)" fill="#363b4e"/>
        <path id="Trazado_736449" data-name="Trazado 736449" d="M3122.761,4255.6c-.312.567-.645,1.178-1.04,1.77,1.37,1.291,3.809,2.482,5.268,1.53-.068-1.011-.135-2.206-.167-3.235C3126.734,4252.9,3124.989,4251.545,3122.761,4255.6Z" transform="translate(-2905.284 -3964.631)" fill="#dbe6ed"/>
        <path id="Trazado_736450" data-name="Trazado 736450" d="M3672.332,4269.275a6.7,6.7,0,0,1-.349-.916,5.144,5.144,0,0,0-.948-2.329,3.075,3.075,0,0,0-3.729.059c-.775.828-.344,2.4-.272,3.467C3668.552,4270.431,3670.719,4269.4,3672.332,4269.275Z" transform="translate(-3409.071 -3976.075)" fill="#dbe6ed"/>
        <path id="Trazado_736451" data-name="Trazado 736451" d="M3677.393,4314.431a3.16,3.16,0,0,0-.777-.708,6.844,6.844,0,0,1-2.043-2.58c-1.523-1.354-3.78,1.156-5.3.28,0,.016,0,.033,0,.048a2.292,2.292,0,0,0,.39,1.393c.372.436,1.027.546,1.392.987.377.457.346,1.148.707,1.619a1.971,1.971,0,0,0,2.023.449c.712-.165,3.236.138,3.581-.241A1.284,1.284,0,0,0,3677.393,4314.431Z" transform="translate(-3411.312 -4017.943)" fill="#363b4e"/>
        <path id="Trazado_736452" data-name="Trazado 736452" d="M2903.4,3466.449c-1.334-2.42-1.745-6.117-1.764-10.514a68.848,68.848,0,0,1-14.529.782q.958,3.324,1.91,6.651l1.346,4.7q1.034,3.615,2.066,7.231c4.136,14.514,9.6,29.061,13.51,43.637-.558,1,2.111.618,4.061.065,1.1-12.359,1.815-14.512,1.818-23.366,0-5.742-.764-13.135-2.6-17.575A90.98,90.98,0,0,0,2903.4,3466.449Z" transform="translate(-2688.46 -3227.971)" fill="url(#linear-gradient)"/>
        <path id="Trazado_736453" data-name="Trazado 736453" d="M3279.677,3312.921c-.043-.148-.084-.3-.126-.453a116.65,116.65,0,0,1-17.187,7.427c2.275,3.921,4.58,7.9,6.839,12.007a11.564,11.564,0,0,1,1.87,5.224c.021,1.456.347,13.281,3.513,19.794,3.14,6.459,15.176,23.552,18.359,30.057,2.435.37,5.018.018,4.782-.845a479.276,479.276,0,0,1-11.6-49.7C3284.272,3326.472,3282.478,3322.661,3279.677,3312.921Z" transform="translate(-3035.26 -3095.384)" fill="url(#linear-gradient)"/>
        <path id="Trazado_736454" data-name="Trazado 736454" d="M2887.1,3456.717q.676,2.346,1.348,4.693a65.452,65.452,0,0,0,13.5,0,43.756,43.756,0,0,1-.322-5.471A68.848,68.848,0,0,1,2887.1,3456.717Z" transform="translate(-2688.46 -3227.971)" fill="#090909" opacity="0.1" style="mix-blend-mode: overlay;isolation: isolate"/>
        <path id="Trazado_736455" data-name="Trazado 736455" d="M3279.677,3312.921c-.043-.148-.084-.3-.126-.453a116.65,116.65,0,0,1-17.187,7.427q1.538,2.651,3.088,5.35a82.467,82.467,0,0,0,15.79-7.106C3280.754,3316.569,3280.237,3314.866,3279.677,3312.921Z" transform="translate(-3035.26 -3095.384)" fill="#090909" opacity="0.1" style="mix-blend-mode: overlay;isolation: isolate"/>
        <path id="Trazado_736456" data-name="Trazado 736456" d="M3281.415,2069.6c3.534.866,5.917,1.911,5.934,3.184-.3-22.588-.549-45.523,4.952-67.388C3279.418,2023.4,3283.135,2047.815,3281.415,2069.6Z" transform="translate(-3052.866 -1887.439)" fill="#d2f1fd"/>
        <path id="Trazado_736457" data-name="Trazado 736457" d="M3088.025,1395.236c4.519-10,16.957-12.075,21.782-21.766-1.945-3.149-3.618-14.363-2.157-16.256l-10.2.01a2.812,2.812,0,0,0-1.586.317c-.49.329-2.153.922-2.352,1.478-1.506,4.21-2.781,9.438-4.287,13.648-.349.249-.717.468-1.075.7C3087.32,1380.657,3086.4,1387.947,3088.025,1395.236Z" transform="translate(-2873.315 -1288.413)" fill="#eaba83"/>
        <path id="Trazado_736458" data-name="Trazado 736458" d="M3093.314,1571.763c-5.122,1.281-4.534-4.289-4.347-8.564-.271.18-.544.355-.817.532-.83,7.29-1.746,14.579-.124,21.869,4.519-10,16.958-12.075,21.782-21.766-.072-.116-.142-.264-.213-.4A24.387,24.387,0,0,1,3093.314,1571.763Z" transform="translate(-2873.315 -1478.776)" fill="#d19864" opacity="0.29"/>
        <path id="Trazado_736459" data-name="Trazado 736459" d="M3021.9,1565.9c-.439-5.616,2.25-18.886,2.25-18.886-4.311,1.134-7.833,12.946-7.833,12.946Z" transform="translate(-2807.874 -1463.82)" fill="#f5fcff"/>
        <path id="Trazado_736460" data-name="Trazado 736460" d="M2713.555,1585.218a40.316,40.316,0,0,1-1.686-4.9c-.755-4.385-18.246-12.925-20.254-15.71-.051-.071-.1-.172-.152-.254-4.487,9.012-15.545,11.454-20.708,19.791l-1.475-.281c-.121-.827-.218-1.655-.284-2.486l-4.823-5.974,6.61-11.41-.233-.232c-5.169,3.255-9.614,5.612-18.75,10.276a1.615,1.615,0,0,0-.556.481c-3.335,2.22-5.448,5.763-6.986,10.615-1.912,6.03-6.646,21.448-9.8,28.345l5.348-1.162c0,8.278,9.028,2.422,7.3-4.386-1.31,6.76-5.369,30.267-5.592,35.786h0c-2.044,18.084-2.053,27.49-1.516,43.065,9.361,9.43,20.8,16.122,29.839,8.877-.249-2.69-.459-5.435-.636-8.156.443,2.5.931,4.968,1.538,7.366l.05.013c8.92-9.089,11.729-20.819,12.725-33.426l.009,0c.033-.418.06-.839.089-1.259.016-.231.035-.461.049-.692.058-.885.105-1.775.148-2.667q.023-.471.043-.944.053-1.221.093-2.449.014-.418.026-.837.034-1.17.061-2.344.011-.466.021-.932.029-1.394.053-2.791v-.068h0c.3-17.452.313-35.263,10.3-49.22.273-1.085-.936,13.44,2.373,25.828,0,0-4.711-1.974-31.353.538,0,0-.33,4.972-.383,5.024,0,0,33.351,9.1,40.588,3.828a19.3,19.3,0,0,0,2.123-4.628C2708.561,1625.432,2717.412,1595.177,2713.555,1585.218Z" transform="translate(-2454.969 -1479.293)" fill="url(#linear-gradient-3)"/>
        <path id="Trazado_736461" data-name="Trazado 736461" d="M3038.164,2337.181s-.33,4.972-.383,5.024c0,0,23.082,6.818,37.548,5.024.173-3.536,0-8.613-5.812-10.586C3059.269,2335.028,3047.04,2336.344,3038.164,2337.181Z" transform="translate(-2827.709 -2192.857)" fill="url(#linear-gradient-4)"/>
        <path id="Trazado_736462" data-name="Trazado 736462" d="M3185.8,1490.765c.252-1.267-.891-4.776-1.125-5.665-.207-.787-1.362-1.724-2.051-2.247,2.051,6.728-3,9.722-7.561,13.857a43.923,43.923,0,0,1-6.923,4.8,36.779,36.779,0,0,1,3.716,7.928c2.72-4.709,6.689-8.6,10.6-12.732C3184.076,1494.376,3185.522,1492.179,3185.8,1490.765Z" transform="translate(-2948.186 -1404.524)" fill="#f5fcff"/>
        <path id="Trazado_736463" data-name="Trazado 736463" d="M3103.823,1727.876c-2.055,2.17-4.252,6.942-4.879,9.607,0,0,5-4.913,8.963,0C3107.985,1734.312,3106.309,1725.768,3103.823,1727.876Z" transform="translate(-2884.232 -1630.659)" fill="#9cc0cb"/>
        <path id="Trazado_736464" data-name="Trazado 736464" d="M3214.077,1678.583a4.183,4.183,0,0,1,.232,1.621c3.145-5.733,10.032-13.82,10.6-14.638C3221,1669.695,3216.8,1673.874,3214.077,1678.583Z" transform="translate(-2990.635 -1573.381)" fill="#9cc0cb"/>
        <path id="Trazado_736465" data-name="Trazado 736465" d="M3009.514,1724.3a8.724,8.724,0,0,0-3.057-5.408,10.567,10.567,0,0,0-2.712-1.176c-.392,1.881-.64,3.5-1.031,5.383a4.259,4.259,0,0,1,2.979-1.209,3.788,3.788,0,0,1,1.822.646A6.767,6.767,0,0,1,3009.514,1724.3Z" transform="translate(-2795.301 -1621.576)" fill="#9cc0cb"/>
        <g id="Grupo_1036322" data-name="Grupo 1036322" transform="translate(205.387 109.617)">
          <path id="Trazado_736466" data-name="Trazado 736466" d="M2977.747,1980.6c-2.183-27.9-2.8-58,5.622-84.987.066-.212-.266-.3-.332-.092-8.438,27.033-7.82,57.154-5.634,85.078.017.219.362.221.344,0Z" transform="translate(-2976 -1895.404)" fill="#9cc0cb"/>
        </g>
        <ellipse id="Elipse_5642" data-name="Elipse 5642" cx="0.824" cy="0.903" rx="0.824" ry="0.903" transform="translate(209.248 158.444)" fill="#fafdff"/>
        <ellipse id="Elipse_5643" data-name="Elipse 5643" cx="0.824" cy="0.903" rx="0.824" ry="0.903" transform="translate(215.453 109.783)" fill="#fafdff"/>
        <ellipse id="Elipse_5644" data-name="Elipse 5644" cx="0.824" cy="0.903" rx="0.824" ry="0.903" transform="translate(210.712 134.182)" fill="#fafdff"/>
        <ellipse id="Elipse_5645" data-name="Elipse 5645" cx="0.824" cy="0.903" rx="0.824" ry="0.903" transform="translate(210.455 182.162)" fill="#fafdff"/>
        <g id="Grupo_1036323" data-name="Grupo 1036323" transform="translate(232.611 221.954)">
          <path id="Trazado_736467" data-name="Trazado 736467" d="M3355.021,3433.729l-.055-.1c-5.923-10.483-10.2-18.058-11.058-28.388l-.136-1.677a95.1,95.1,0,0,0-1.087-9.806c-.805-3.634-3.044-7.913-5.415-12.442-.768-1.468-1.563-2.987-2.3-4.472l.321-.16c.735,1.482,1.528,3,2.3,4.466,2.382,4.551,4.631,8.85,5.447,12.531a95.313,95.313,0,0,1,1.094,9.854l.136,1.677c.85,10.252,5.112,17.8,11.012,28.241l.056.1Z" transform="translate(-3334.971 -3376.685)" fill="#3f6fb7"/>
        </g>
        <g id="Grupo_1036324" data-name="Grupo 1036324" transform="translate(207.22 225.001)">
          <path id="Trazado_736468" data-name="Trazado 736468" d="M3013.549,3474.66l-.359-.018c.455-9.238.391-22.836-5.394-34.208a53.241,53.241,0,0,0-2.853-4.809,52.784,52.784,0,0,1-2.9-4.9,22.337,22.337,0,0,1-1.315-13.865l.346.1a21.922,21.922,0,0,0,1.288,13.608,52.473,52.473,0,0,0,2.881,4.865,53.659,53.659,0,0,1,2.87,4.841C3013.939,3451.719,3014,3465.38,3013.549,3474.66Z" transform="translate(-3000.169 -3416.861)" fill="#3f6fb7"/>
        </g>
        <path id="Trazado_736469" data-name="Trazado 736469" d="M2707.493,3185.9c.084,2.448.181,5.034.287,7.845.014.377,1.125,11.6,1.229,11.963,5.948,2.471,22.216,2.471,29.6.114-.488-3.379-.917-7.151-1.277-11.044C2728.293,3202.017,2716.854,3195.325,2707.493,3185.9Z" transform="translate(-2522.469 -2978.41)" fill="#d2f1fd"/>
        <path id="Trazado_736470" data-name="Trazado 736470" d="M3126.211,2654.411c-.306,17.852-.92,35.328-12.843,47.913-.174.174-.352.319-.528.482a70.66,70.66,0,0,0,3.758,11.182c6.46-1.256,19.245-6.767,24.769-9.67-3.5-12.326-6.245-28.181-8.756-40.672C3131.444,2657.841,3130.966,2655.977,3126.211,2654.411Z" transform="translate(-2897.075 -2487.233)" fill="#d2f1fd"/>
        <path id="Trazado_736471" data-name="Trazado 736471" d="M3147.26,1359.641l-10.2.01a2.811,2.811,0,0,0-1.586.317c-.49.329-2.153.922-2.352,1.478-1.089,3.045-2.143,6.856-3.166,10.2,3.514,3.124,12.845-.7,16.989-5.252C3146.581,1363.3,3146.6,1360.5,3147.26,1359.641Z" transform="translate(-2912.892 -1290.656)" fill="#d19864"/>
        <g id="Grupo_1036325" data-name="Grupo 1036325" transform="translate(210.133 40.731)">
          <path id="Trazado_736472" data-name="Trazado 736472" d="M3054.162,1138.77c.082.1.194.221.331.2a.352.352,0,0,0,.181-.118,5.581,5.581,0,0,0,1.385-3.592,2.988,2.988,0,0,0-.151-1.364,2.667,2.667,0,0,0-1.774-1.391,7.27,7.27,0,0,0-2.4-.167C3050.892,1132.384,3052.877,1137.16,3054.162,1138.77Z" transform="translate(-3050.55 -1121.297)" fill="#3b2616"/>
          <path id="Trazado_736473" data-name="Trazado 736473" d="M3064.542,1048.084a23.173,23.173,0,0,0-.447,15.514,14.55,14.55,0,0,0,4.618,6.707c2.576,2.093,5.648,1.047,8.458-.752s5.89-5.646,7.449-8.506c2.391-4.384,3.842-8.232,3.344-13.149-.634-6.259-5.444-10.631-11.1-10.384C3071.179,1037.763,3066.21,1043.386,3064.542,1048.084Z" transform="translate(-3061.115 -1033.681)" fill="#eaba83"/>
          <path id="Trazado_736474" data-name="Trazado 736474" d="M3346.534,1139.1a63.1,63.1,0,0,1,1.883-7.507c.879-2.648,1.577-5.887-.652-7.757l-2.908,1.525a4.268,4.268,0,0,0-1.506,1.095,2.147,2.147,0,0,0-.558,1.6c.849,4.1,1.324,6.692-.656,12.419C3343.325,1138.592,3345.315,1138.3,3346.534,1139.1Z" transform="translate(-3319.116 -1113.465)" fill="#4e321b"/>
          <path id="Trazado_736475" data-name="Trazado 736475" d="M3047.94,1001.049a8.32,8.32,0,0,1-6.079-.471c-1.4-.224-4.7-4.392-2.6-5.423,1.085-.533,1.973-3.048,2.66-3.983a16.47,16.47,0,0,1,1.759-2.446c1.4-1.317,2.314-1.859,4.3-1.564a5.582,5.582,0,0,1,3.5,2.36l-.008-.058a1.785,1.785,0,0,1,2.44-1.793l.02.008c1.815.7,3.277,2.236,5.239,2.41,1.907.169,3.694-1.017,5.61-.982a4.251,4.251,0,0,1,3.4,1.79,5.68,5.68,0,0,1,.732,3.466,7.741,7.741,0,0,1-1.677,4.839.856.856,0,0,1-.558.348c-.209.012-1,2.69-1.735,1.878C3061.357,997.454,3060.213,996.943,3047.94,1001.049Z" transform="translate(-3038.577 -987.083)" fill="#4e321b"/>
          <path id="Trazado_736476" data-name="Trazado 736476" d="M3321.535,1317.941a3.639,3.639,0,0,1,1.708-.375,1.7,1.7,0,0,1,1.427.894,1.725,1.725,0,0,1-.009,1.317,4.36,4.36,0,0,1-.714,1.142,9.482,9.482,0,0,1-2.5,2.319,2.249,2.249,0,0,1-1.447.392,2.114,2.114,0,0,1-1.466-1.364C3317.523,1319.929,3319.717,1318.735,3321.535,1317.941Z" transform="translate(-3297.065 -1292.497)" fill="#eaba83"/>
        </g>
        <path id="Trazado_736477" data-name="Trazado 736477" d="M3112.584,1349.939a2.889,2.889,0,0,0,1.421-.451,1.025,1.025,0,0,1,1.04-.187c.045.025.1.055.139.013a.145.145,0,0,0,.024-.047.621.621,0,0,0-.159-.658c-.215-.162-.483-.026-.715.087a3.768,3.768,0,0,1-1.213.358,1.8,1.8,0,0,1-.477,0c-.407-.061-.831-.371-1.243-.239A1.737,1.737,0,0,0,3112.584,1349.939Z" transform="translate(-2895.747 -1280.392)" fill="#d19864"/>
        <path id="Trazado_736478" data-name="Trazado 736478" d="M3109.787,1381.988c.115-.118.319-.242.419-.111a8.249,8.249,0,0,1-2.278,2.931,2.988,2.988,0,0,1-3.488.132,3.292,3.292,0,0,1-1.035-1.691C3104.634,1383.475,3107.872,1383.948,3109.787,1381.988Z" transform="translate(-2888.357 -1311.154)" fill="#fff"/>
        <path id="Trazado_736479" data-name="Trazado 736479" d="M3174.351,1209.35a1.48,1.48,0,0,1,1.4-.857l-.3.857a1.439,1.439,0,0,1,.728-.718c.335-.1.775.21.652.536.358-.3.9-.124,1.309.09a9.448,9.448,0,0,1,3.264,2.807,2.264,2.264,0,0,0-.866.883,15.085,15.085,0,0,0-3.895-1.92,1.431,1.431,0,0,1,.5-.957c-.286.086-.449.378-.662.589-.348.345-1.786.868-2.242.524S3174.086,1209.853,3174.351,1209.35Z" transform="translate(-2953.596 -1150.963)" fill="#4e321b"/>
        <path id="Trazado_736480" data-name="Trazado 736480" d="M3072.37,1258.805a2.376,2.376,0,0,1-.059-1.622.594.594,0,0,0-.759.088.96.96,0,0,0-.228.776l-.311-.916-1.515.769c-.661.336-1.564,1.634-.216,1.509C3069.649,1259.375,3072.067,1258.067,3072.37,1258.805Z" transform="translate(-2856.175 -1195.876)" fill="#4e321b"/>
        <path id="Trazado_736481" data-name="Trazado 736481" d="M3339.863,1354.408c.2-.093.383-.24.593-.32a.555.555,0,0,1,.622.1.606.606,0,0,1,.054.553,1.605,1.605,0,0,1-1.156,1.087.553.553,0,0,1-.24.013.575.575,0,0,1-.257-.156,2.024,2.024,0,0,1-.431-.573C3338.69,1354.4,3339.474,1354.585,3339.863,1354.408Z" transform="translate(-3106.044 -1285.478)" fill="#d19864"/>
        <g id="Grupo_1036326" data-name="Grupo 1036326" transform="translate(213.288 172.475)">
          <path id="Trazado_736482" data-name="Trazado 736482" d="M3094.535,2730.516c-3.809.295-11.146.263-11.994.629-3.583,1.541-2.054,6.345-1.9,9.78a15.591,15.591,0,0,0,.52,3.907,12.956,12.956,0,0,0,6.7,1.83C3095.4,2745.463,3094.622,2737.08,3094.535,2730.516Z" transform="translate(-3080.185 -2730.042)" fill="url(#linear-gradient-3)"/>
          <path id="Trazado_736483" data-name="Trazado 736483" d="M3190.392,2734.992c0-.288,0-.576,0-.863q-.053-4.935-.106-9.87c0,.223-.919.369-2.281.475.087,6.564.862,14.947-6.679,16.146C3185.152,2740.77,3188.295,2738.5,3190.392,2734.992Z" transform="translate(-3173.652 -2724.259)" fill="#d2f1fd"/>
          <path id="Trazado_736484" data-name="Trazado 736484" d="M3092.986,2869.846a6.347,6.347,0,0,0,.581,1.359c1.408,2.391,4.456,3.4,7.223,3.2,3.23-.239,6.51-2.145,7.534-5.218a10.8,10.8,0,0,0,.43-3.4C3105.534,2871.177,3099.856,2873.679,3092.986,2869.846Z" transform="translate(-3092.015 -2855.056)" fill="#d2f1fd"/>
        </g>
        <g id="Grupo_1036327" data-name="Grupo 1036327" transform="translate(181.742 174.268)">
          <path id="Trazado_736485" data-name="Trazado 736485" d="M2678.35,2757.135c.017-.248.033-.5.046-.743q.231-4.249.464-8.5c-.04.727-11.325-.215-12.344.147-3.169,1.125-2.124,5.344-2.188,8.308a13.435,13.435,0,0,0,.227,3.39C2670.25,2763.423,2675.276,2761.59,2678.35,2757.135Z" transform="translate(-2664.212 -2747.894)" fill="url(#linear-gradient-6)"/>
          <path id="Trazado_736486" data-name="Trazado 736486" d="M2668.731,2872.349a5.49,5.49,0,0,0,.424,1.2c1.077,2.136,3.643,3.178,6.035,3.157,2.793-.024,5.722-1.48,6.776-4.066a9.306,9.306,0,0,0,.561-2.9C2679.452,2874.2,2674.426,2876.033,2668.731,2872.349Z" transform="translate(-2668.388 -2860.504)" fill="#d2f1fd"/>
        </g>
        <g id="Grupo_1036328" data-name="Grupo 1036328" transform="translate(220.385 63.837)">
          <path id="Trazado_736487" data-name="Trazado 736487" d="M3175.625,1292.739a.407.407,0,0,1-.407-.407.384.384,0,0,1,.261-.347,1.062,1.062,0,0,0-.629-.224,1.09,1.09,0,1,0,1.09,1.091,1.024,1.024,0,0,0-.045-.224A.4.4,0,0,1,3175.625,1292.739Z" transform="translate(-3173.759 -1291.76)" fill="#3b2616"/>
        </g>
        <g id="Grupo_1036329" data-name="Grupo 1036329" transform="translate(214.234 64.211)">
          <path id="Trazado_736488" data-name="Trazado 736488" d="M3093.89,1297.329a.268.268,0,0,1-.268-.268.252.252,0,0,1,.172-.228.7.7,0,0,0-.414-.147.717.717,0,1,0,.717.717.677.677,0,0,0-.03-.147A.264.264,0,0,1,3093.89,1297.329Z" transform="translate(-3092.663 -1296.686)" fill="#3b2616"/>
        </g>
        <path id="Trazado_736489" data-name="Trazado 736489" d="M3490.989,1769.475a11.33,11.33,0,0,1,3.486-5.625,11.619,11.619,0,0,1,8.114-2.711,2.91,2.91,0,0,1,1,1.479,12.909,12.909,0,0,0-12.6,6.856Z" transform="translate(-3246.546 -1661.69)" fill="#d2f1fd"/>
        <g id="Grupo_1036330" data-name="Grupo 1036330" transform="translate(169.028 102.214)">
          <path id="Trazado_736490" data-name="Trazado 736490" d="M2538.674,2008.4c-1-.607-1.633-1.693-2.633-2.3-.319-.193-.789-.307-1.021-.014a.79.79,0,0,0-.135.38,3.736,3.736,0,0,0,1.381,3.489,3.305,3.305,0,0,0,1.3.58,21.748,21.748,0,0,0,1.383-2C2538.854,2008.49,2538.761,2008.448,2538.674,2008.4Z" transform="translate(-2531.942 -1990.122)" fill="#d19864"/>
          <path id="Trazado_736491" data-name="Trazado 736491" d="M2535.17,2039.162a6.634,6.634,0,0,1,0,1.578,30.062,30.062,0,0,1-.8,3.919.465.465,0,0,1-.15.311.385.385,0,0,1-.215.057c-.53.012-3.883-4.051-4.042-4.2a11.664,11.664,0,0,0-1.137-1.065c-.438-.3-1.028-.531-1.222-1.029a3.217,3.217,0,0,1-.13-1.344.98.98,0,0,1,.235-.709,1,1,0,0,1,.808-.117,12.333,12.333,0,0,1,4.393,1.195,10.445,10.445,0,0,0,1.359.67C2534.71,2038.6,2535.057,2038.693,2535.17,2039.162Z" transform="translate(-2525.117 -2018.431)" fill="#eaba83"/>
          <path id="Trazado_736492" data-name="Trazado 736492" d="M2546.589,1815.976c1.691-5.408,4.423-12.967,6.171-17.488a2.028,2.028,0,0,1,.283-.557c.313-.374,1.021.08,1.3.335a.651.651,0,0,1,.227.34,1.7,1.7,0,0,1-.153.879c-1.722,4.7-4.968,12.614-6.69,17.317-.418,1.142-1.172,2.07-1.591,3.212a.821.821,0,0,1-.248.417c-.2.111-.306-.245-.3-.554A29.092,29.092,0,0,1,2546.589,1815.976Z" transform="translate(-2541.87 -1797.789)" fill="#9cc0cb"/>
          <path id="Trazado_736493" data-name="Trazado 736493" d="M2499.184,1999.182a1.306,1.306,0,0,0-.483.364,2.692,2.692,0,0,0-.584,1.068,1.44,1.44,0,0,1-.212.544,2.552,2.552,0,0,1-.509.364,1.82,1.82,0,0,0-.424.5,2.219,2.219,0,0,0-.395.959,1.659,1.659,0,0,0,.507,1.272c.328.338,2.814,1.944,3.189,1.855.483-.115,1.482-3.578,1.454-4.083a5.5,5.5,0,0,0-.767-1.945C2500.62,1999.52,2499.9,1998.906,2499.184,1999.182Z" transform="translate(-2496.572 -1983.845)" fill="#eaba83"/>
          <path id="Trazado_736494" data-name="Trazado 736494" d="M2562.5,2033.884a1.711,1.711,0,0,0,.083.383c.122.285.471.493.427.8a.47.47,0,0,1-.318.348,1.382,1.382,0,0,1-.488.057l-2.56-.008a1.1,1.1,0,0,1-.763-.194.788.788,0,0,1-.218-.433,1.414,1.414,0,0,1,.391-1.263,2.783,2.783,0,0,1,.591-.406c.531-.3,1.161-.922,1.776-.644A1.892,1.892,0,0,1,2562.5,2033.884Z" transform="translate(-2553.93 -2014.659)" fill="#eaba83"/>
        </g>
        <path id="Trazado_736495" data-name="Trazado 736495" d="M2982.611,2339.366a2.409,2.409,0,0,0-.961-.393,2.923,2.923,0,0,0-2.061.92.289.289,0,0,0-.116.444l.742,1.384a1.289,1.289,0,0,0,.446.553,1.2,1.2,0,0,0,.878.022c.552-.138,2.388-.6,2.617-1.177C2984.419,2340.458,2983.173,2339.716,2982.611,2339.366Z" transform="translate(-2773.766 -2195.707)" fill="#eaba83"/>
        <path id="Trazado_736496" data-name="Trazado 736496" d="M2414.808,2095.425l-23.078-7.2-28.8-24.941,27.2,6.012Z" transform="translate(-2204.036 -1940.939)" fill="url(#linear-gradient-7)"/>
        <path id="Trazado_736497" data-name="Trazado 736497" d="M2746.287,2120.8l1.952-2.739-24.687-27.316-1.943,3.929Z" transform="translate(-2535.515 -1966.317)" fill="#3e4344"/>
        <path id="Trazado_736498" data-name="Trazado 736498" d="M2362.929,2035.74l1.371-2.261,27.773,4.343-1.943,3.929Z" transform="translate(-2204.036 -1913.391)" fill="#888c96"/>
        <path id="Trazado_736499" data-name="Trazado 736499" d="M2397.336,2069.969l-26.109-4.85,26.572,5.873.424-.858,1.5-3.038Z" transform="translate(-2211.705 -1942.631)" fill="#f5fcff" opacity="0.59"/>
        <path id="Trazado_736500" data-name="Trazado 736500" d="M2922.849,2351.995c-.015.919-.015,1.823-.015,2.741-.56.259-.928.542-1.474.8l-.923.535c-1.168.778-1.29,1.312-2.854,1.125a6.366,6.366,0,0,1-4.365-2.863,1.083,1.083,0,0,1-.057-1.134,1.045,1.045,0,0,1,.574-.287c1.421-.273,2.023.345,3.473.417C2919.174,2353.416,2920.954,2351.464,2922.849,2351.995Z" transform="translate(-2712.41 -2207.667)" fill="#eaba83"/>
        <path id="Trazado_736501" data-name="Trazado 736501" d="M3017.4,940.375a3.851,3.851,0,0,1-.765-1.8c-.81-2.8-3.727-4.518-6.566-5.18a17.877,17.877,0,0,0-8.419.213,9.806,9.806,0,0,0-3.836,1.788,8.43,8.43,0,0,0-2.884,4.455c-1.256.385-.321-2.4-1.189-4.594-.667-1.684-2.328-3.128-3.362-4.615s-1.636-3.6-.542-5.046c.654-.862,1.783-1.288,2.369-2.2a8.46,8.46,0,0,0,.728-2.267,7.275,7.275,0,0,1,2.823-3.719,16.977,16.977,0,0,1,4.263-2.069,33.157,33.157,0,0,1,10.673-2.143,19.215,19.215,0,0,1,10.442,2.706,7.444,7.444,0,0,1,3.654,4.58c.172.9.082,1.845.276,2.744.411,1.905,1.993,3.294,3.081,4.911a10.39,10.39,0,0,1,1.512,3.506,4.271,4.271,0,0,1,.1,1.715c-.327,1.751-2.2,2.684-3.823,3.415a8.346,8.346,0,0,0-2.631,1.692c-.531.55-.854,1.3-1.4,1.821A3.814,3.814,0,0,1,3017.4,940.375Z" transform="translate(-2782.863 -878.074)" opacity="0.63" fill="url(#linear-gradient-8)"/>
        <path id="Trazado_736502" data-name="Trazado 736502" d="M3060.906,1165.6a8.856,8.856,0,0,0-6.8,5.444c0,.857-.155,1.707.748,1.43a8.429,8.429,0,0,1,2.884-4.455,9.809,9.809,0,0,1,3.836-1.788,17.875,17.875,0,0,1,8.419-.213c2.839.662,5.757,2.379,6.567,5.18a2.986,2.986,0,0,0,5.264,1.716,13.36,13.36,0,0,0,1.156-1.522c-.9.508-3.7,2.843-5.065.508C3076.278,1166.556,3071.829,1163.446,3060.906,1165.6Z" transform="translate(-2842.784 -1110.692)" fill="#fff" opacity="0.68"/>
        <path id="Trazado_736503" data-name="Trazado 736503" d="M3062.829,1325.577a28.508,28.508,0,0,0,11.555-1.741c.394-.137,6.261-2.417,6.411-2.479.04.155-5.966,3.076-6.061,3.281-.187.405-.792,1.443-1.023,1.865-1.595,2.917-1.973,3.605-3.569,6.487-.043.078,6.03-4.608,8.109-6.232,0,0,.121.073.1.086-.107.087-8.391,7.778-10.005,8.475a3.116,3.116,0,0,1-.719.178,24.434,24.434,0,0,1-5.388,0,3.637,3.637,0,0,1-1.909-1.718c-1.853-2.717-3.339-6.823-2.607-10.129A8.742,8.742,0,0,0,3062.829,1325.577Z" transform="translate(-2845.966 -1255.275)" fill="url(#linear-gradient-3)"/>
        <path id="Trazado_736504" data-name="Trazado 736504" d="M3042.479,991.013a7.335,7.335,0,0,0-.781.808,14.973,14.973,0,0,0-2.273,3.8,15.23,15.23,0,0,0-.842,5.062,6.125,6.125,0,0,0,1.949,4.762.849.849,0,0,0,.7.263,17.693,17.693,0,0,1,2.665-1.355A27.093,27.093,0,0,1,3042.479,991.013Z" transform="translate(-2828.45 -949.984)" fill="#fff" opacity="0.35"/>
        <path id="Trazado_736505" data-name="Trazado 736505" d="M3118.458,960.449c.339-5.024,1.417-7.1.7-7.612-.777-.558-1.979-.279-3.191.321-2.321,4.453-1.438,10.245.215,14.943a22.982,22.982,0,0,1,2.349-.522c.488-.081.151-.968.1-1.459A33.7,33.7,0,0,1,3118.458,960.449Z" transform="translate(-2898.66 -914.424)" fill="#fff" opacity="0.35"/>
        <path id="Trazado_736506" data-name="Trazado 736506" d="M3077.046,1387.04c.45.471,1.091.938,1.7.7.658-.254.815-1.125.753-1.828a23.513,23.513,0,0,0-.525-3.942,4.527,4.527,0,0,0-.989-2.182,5.524,5.524,0,0,0-3.153-1.257c-1.314-.184-1.057,1.206-.913,2.14A11.915,11.915,0,0,0,3077.046,1387.04Z" transform="translate(-2860.994 -1308.101)" fill="#fafdff" opacity="0.45"/>
        <path id="Trazado_736507" data-name="Trazado 736507" d="M3159.457,1396.917a.487.487,0,0,0,.026.215.337.337,0,0,0,.491.083.949.949,0,0,0,.3-.477,20.686,20.686,0,0,0,1.234-7.017c0-.761-.761-1.068-1.455-.865-.731.214-.748.991-.734,1.645C3159.359,1392.645,3159.521,1394.768,3159.457,1396.917Z" transform="translate(-2940.022 -1317.598)" fill="#fafdff" opacity="0.45"/>
        <g id="Grupo_1036345" data-name="Grupo 1036345" transform="translate(0 92.569)">
          <ellipse id="Elipse_5646" data-name="Elipse 5646" cx="159.636" cy="2.568" rx="159.636" ry="2.568" transform="translate(0 213.231)" fill="#090909" opacity="0.13"/>
          <rect id="Rectángulo_353024" data-name="Rectángulo 353024" width="5.742" height="83.386" transform="translate(162.92 132.413)" fill="url(#linear-gradient-10)"/>
          <g id="Grupo_1036332" data-name="Grupo 1036332" transform="translate(38.821)">
            <rect id="Rectángulo_353025" data-name="Rectángulo 353025" width="57.419" height="13.729" transform="translate(12.919 62.351)" fill="#1f2223"/>
            <path id="Trazado_736508" data-name="Trazado 736508" d="M861.571,1787.718H784.1a2.251,2.251,0,0,1-2.245-2.411l4.134-57.914h73.688l4.134,57.914A2.251,2.251,0,0,1,861.571,1787.718Z" transform="translate(-781.688 -1723.087)" fill="#424a52"/>
            <path id="Trazado_736509" data-name="Trazado 736509" d="M908.068,1827.154H838.511a2.065,2.065,0,0,1-2.065-2.065l4.306-49.144a2.065,2.065,0,0,1,2.065-2.065h60.944a2.065,2.065,0,0,1,2.065,2.065l4.306,49.144A2.065,2.065,0,0,1,908.068,1827.154Z" transform="translate(-832.14 -1766.048)" fill="url(#linear-gradient-11)"/>
            <path id="Trazado_736510" data-name="Trazado 736510" d="M1005.391,2180.7H952.057a2.049,2.049,0,0,1-2.042-2.042l1.436-13.876a2.048,2.048,0,0,1,2.042-2.042h50.463a2.049,2.049,0,0,1,2.042,2.042l1.435,13.876A2.049,2.049,0,0,1,1005.391,2180.7Z" transform="translate(-937.096 -2125.417)" fill="#d3dce6"/>
            <path id="Trazado_736511" data-name="Trazado 736511" d="M999.577,2200.589l-.517,4.995h10.349l.312-4.995Z" transform="translate(-982.422 -2160.397)" fill="#c3e0fd"/>
            <path id="Trazado_736512" data-name="Trazado 736512" d="M1183.284,2200.589h-10.162l-.208,4.995h10.37Z" transform="translate(-1143.09 -2160.397)" fill="#c3e0fd"/>
            <path id="Trazado_736513" data-name="Trazado 736513" d="M1340.407,2200.589v4.995h10.77l-.245-4.995Z" transform="translate(-1297.881 -2160.397)" fill="#c3e0fd"/>
            <path id="Trazado_736514" data-name="Trazado 736514" d="M1526.466,2200.589h-10.242l.331,4.995h10.428Z" transform="translate(-1460.364 -2160.397)" fill="#c3e0fd"/>
            <path id="Trazado_736515" data-name="Trazado 736515" d="M989.792,2286.561l-.59,5.7h10.645l.356-5.7Z" transform="translate(-973.311 -2239.848)" fill="#c3e0fd"/>
            <path id="Trazado_736516" data-name="Trazado 736516" d="M1179.615,2286.561h-10.433l-.237,5.7h10.671Z" transform="translate(-1139.422 -2239.848)" fill="#c3e0fd"/>
            <path id="Trazado_736517" data-name="Trazado 736517" d="M1340.407,2286.561v5.7h11.125l-.28-5.7Z" transform="translate(-1297.881 -2239.848)" fill="#c3e0fd"/>
            <path id="Trazado_736518" data-name="Trazado 736518" d="M1532.406,2286.561h-10.485l.378,5.7H1533Z" transform="translate(-1465.629 -2239.848)" fill="#c3e0fd"/>
            <path id="Trazado_736519" data-name="Trazado 736519" d="M836.446,1674.915l5.78-1.445a95.837,95.837,0,0,1,23.243-2.861h16.259a95.831,95.831,0,0,1,28.405,4.306H836.446Z" transform="translate(-832.14 -1670.608)" fill="#565e63"/>
            <rect id="Rectángulo_353026" data-name="Rectángulo 353026" width="5.38" height="5.38" transform="translate(55.859 21.235)" fill="#c3e0fd"/>
            <rect id="Rectángulo_353027" data-name="Rectángulo 353027" width="5.38" height="5.38" transform="translate(61.239 26.614)" fill="#c3e0fd"/>
            <rect id="Rectángulo_353028" data-name="Rectángulo 353028" width="2.821" height="2.821" transform="translate(65.956 12.642)" fill="#d3dce6"/>
            <rect id="Rectángulo_353029" data-name="Rectángulo 353029" width="2.821" height="2.821" transform="translate(59.829 12.642)" fill="#d3dce6"/>
            <rect id="Rectángulo_353030" data-name="Rectángulo 353030" width="5.38" height="5.38" transform="translate(15.125 27.691)" fill="#c3e0fd"/>
            <rect id="Rectángulo_353031" data-name="Rectángulo 353031" width="5.38" height="5.38" transform="translate(20.504 27.691)" fill="#c3e0fd"/>
            <rect id="Rectángulo_353032" data-name="Rectángulo 353032" width="5.38" height="5.38" transform="translate(20.504 22.82)" fill="#c3e0fd"/>
            <rect id="Rectángulo_353033" data-name="Rectángulo 353033" width="5.38" height="5.38" transform="translate(25.884 17.44)" fill="#c3e0fd"/>
            <rect id="Rectángulo_353034" data-name="Rectángulo 353034" width="5.38" height="5.38" transform="translate(25.884 27.691)" fill="#c3e0fd"/>
            <path id="Trazado_736520" data-name="Trazado 736520" d="M861.962,2712.913v-37.44a1.68,1.68,0,0,0-1.675-1.675H781.336a1.68,1.68,0,0,0-1.675,1.675v82.135C816.528,2765.72,848.83,2744.874,861.962,2712.913Z" transform="translate(-779.661 -2597.717)" fill="url(#linear-gradient-12)"/>
            <path id="Trazado_736521" data-name="Trazado 736521" d="M779.661,3234.266V3288.5a1.68,1.68,0,0,0,1.675,1.675h78.951a1.68,1.68,0,0,0,1.675-1.675v-98.929C848.83,3221.533,816.528,3242.379,779.661,3234.266Z" transform="translate(-779.661 -3074.377)" fill="url(#linear-gradient-12)"/>
            <path id="Trazado_736522" data-name="Trazado 736522" d="M779.661,3234.266V3288.5a1.68,1.68,0,0,0,1.675,1.675h78.951a1.68,1.68,0,0,0,1.675-1.675v-98.929C848.83,3221.533,816.528,3242.379,779.661,3234.266Z" transform="translate(-779.661 -3074.377)" opacity="0.26" style="mix-blend-mode: overlay;isolation: isolate"/>
            <circle id="Elipse_5647" data-name="Elipse 5647" cx="4.615" cy="4.615" r="4.615" transform="translate(37.014 86.019)" fill="#424a52"/>
            <path id="Trazado_736523" data-name="Trazado 736523" d="M905.826,1775.945a2.065,2.065,0,0,0-2.065-2.065H877.4l-40.03,40.641-.926,10.568a2.065,2.065,0,0,0,2.065,2.065H847.3l58.779-48.33Z" transform="translate(-832.139 -1766.048)" fill="#fff" opacity="0.35" style="mix-blend-mode: overlay;isolation: isolate"/>
            <g id="Grupo_1036331" data-name="Grupo 1036331" transform="translate(5.204 81.283)">
              <path id="Trazado_736524" data-name="Trazado 736524" d="M920.174,2871.722H848.281V2742.409h71.893Zm-70.817-1.077H919.1v-127.16h-69.74Z" transform="translate(-848.281 -2742.409)" fill="url(#linear-gradient-12)"/>
            </g>
          </g>
          <rect id="Rectángulo_353035" data-name="Rectángulo 353035" width="274.893" height="2.153" transform="translate(22.603 130.26)" fill="url(#linear-gradient-15)"/>
          <rect id="Rectángulo_353036" data-name="Rectángulo 353036" width="274.893" height="17.226" transform="translate(22.603 113.034)" fill="url(#linear-gradient-12)"/>
          <path id="Trazado_736525" data-name="Trazado 736525" d="M1292.155,3161.075l-27.426,17.226h106.4l25.184-17.226Z" transform="translate(-1189.121 -3048.041)" fill="#fff" opacity="0.39" style="mix-blend-mode: overlay;isolation: isolate"/>
          <path id="Trazado_736526" data-name="Trazado 736526" d="M3097.534,3161.075l-22.909,17.226h26.229l22.5-17.226Z" transform="translate(-2861.758 -3048.041)" fill="#fff" opacity="0.49" style="mix-blend-mode: overlay;isolation: isolate"/>
          <rect id="Rectángulo_353037" data-name="Rectángulo 353037" width="11.484" height="16.421" transform="translate(265.198 118.863)" fill="url(#linear-gradient-17)"/>
          <circle id="Elipse_5648" data-name="Elipse 5648" cx="0.987" cy="0.987" r="0.987" transform="translate(266.971 123.009) rotate(-76.717)" fill="url(#linear-gradient-18)"/>
          <circle id="Elipse_5649" data-name="Elipse 5649" cx="0.987" cy="0.987" r="0.987" transform="translate(272.858 123.091) rotate(-80.783)" fill="url(#linear-gradient-18)"/>
          <rect id="Rectángulo_353038" data-name="Rectángulo 353038" width="11.484" height="16.421" transform="translate(160.049 118.863)" fill="url(#linear-gradient-17)"/>
          <circle id="Elipse_5650" data-name="Elipse 5650" cx="0.987" cy="0.987" r="0.987" transform="translate(161.878 123.091) rotate(-80.783)" fill="url(#linear-gradient-18)"/>
          <circle id="Elipse_5651" data-name="Elipse 5651" cx="0.987" cy="0.987" r="0.987" transform="translate(167.71 123.091) rotate(-80.783)" fill="url(#linear-gradient-18)"/>
          <rect id="Rectángulo_353039" data-name="Rectángulo 353039" width="11.484" height="16.421" transform="translate(54.901 118.863)" fill="url(#linear-gradient-17)"/>
          <circle id="Elipse_5652" data-name="Elipse 5652" cx="0.987" cy="0.987" r="0.987" transform="translate(56.73 123.091) rotate(-80.783)" fill="url(#linear-gradient-18)"/>
          <circle id="Elipse_5653" data-name="Elipse 5653" cx="0.987" cy="0.987" r="0.987" transform="translate(62.298 122.275) rotate(-45)" fill="url(#linear-gradient-18)"/>
          <path id="Trazado_736527" data-name="Trazado 736527" d="M565.813,3094.02l16.218-5.5H828.026l12.68,5.5Z" transform="translate(-543.21 -2980.986)" fill="url(#linear-gradient-26)"/>
          <rect id="Rectángulo_353040" data-name="Rectángulo 353040" width="274.893" height="2.161" transform="translate(22.603 113.034)" fill="#bbecfd"/>
          <g id="Grupo_1036334" data-name="Grupo 1036334" transform="translate(255.322 79.726)">
            <path id="Trazado_736528" data-name="Trazado 736528" d="M3672.537,2743.668v2.967a.236.236,0,0,0,.235.235h2.956a.236.236,0,0,0,.235-.235v-3.394A10.67,10.67,0,0,0,3672.537,2743.668Z" transform="translate(-3669.649 -2741.62)" fill="url(#linear-gradient-27)"/>
            <path id="Trazado_736529" data-name="Trazado 736529" d="M3675.728,2727.315h-2.956a.236.236,0,0,0-.235.235v1.4a10.677,10.677,0,0,1,3.426-.427v-.973A.236.236,0,0,0,3675.728,2727.315Z" transform="translate(-3669.649 -2726.902)" fill="#d1f0fd"/>
            <g id="Grupo_1036333" data-name="Grupo 1036333" transform="translate(0.001)">
              <path id="Trazado_736530" data-name="Trazado 736530" d="M3634.465,2726.806c0-.018,0-.038,0-.051C3634.466,2726.764,3634.465,2726.782,3634.465,2726.806Z" transform="translate(-3634.465 -2726.385)" fill="#def3ff"/>
              <path id="Trazado_736531" data-name="Trazado 736531" d="M3634.476,2726.6c0-.018,0-.015,0,0Z" transform="translate(-3634.474 -2726.232)" fill="#def3ff"/>
              <path id="Trazado_736532" data-name="Trazado 736532" d="M3634.607,2723.342a.505.505,0,0,0-.15.342c0,.24.089.366.44.527,1.828.838,4.042.217,6.034.1.38-.023.485-.175.48-.474C3639.2,2723.465,3636.494,2724.837,3634.607,2723.342Z" transform="translate(-3634.457 -2723.23)" fill="#eaf8ff"/>
              <path id="Trazado_736533" data-name="Trazado 736533" d="M3642.7,2722.017c-1.953.053-3.971.539-5.835-.117a.393.393,0,0,0-.428.083c1.888,1.495,4.594.123,6.8.492,0,0,0,0,0-.007C3643.236,2722.162,3643.079,2722.006,3642.7,2722.017Z" transform="translate(-3636.289 -2721.871)" fill="#def3ff"/>
              <path id="Trazado_736534" data-name="Trazado 736534" d="M3634.458,2727.432c0,.011,0,.017,0,.031S3634.458,2727.457,3634.458,2727.432Z" transform="translate(-3634.458 -2727.01)" fill="#def3ff"/>
              <path id="Trazado_736535" data-name="Trazado 736535" d="M3726.16,2729.736Z" transform="translate(-3719.205 -2729.14)" fill="#def3ff"/>
              <path id="Trazado_736536" data-name="Trazado 736536" d="M3726.156,2729.546h0C3726.155,2729.519,3726.156,2729.532,3726.156,2729.546Z" transform="translate(-3719.201 -2728.949)" fill="#def3ff"/>
              <path id="Trazado_736537" data-name="Trazado 736537" d="M3726.16,2729.736h0C3726.16,2729.75,3726.161,2729.763,3726.16,2729.736Z" transform="translate(-3719.206 -2729.14)" fill="#def3ff"/>
            </g>
            <rect id="Rectángulo_353041" data-name="Rectángulo 353041" width="5.24" height="6.488" rx="2.62" transform="translate(1.881 3.969)" fill="url(#linear-gradient-28)"/>
            <path id="Rectángulo_353042" data-name="Rectángulo 353042" d="M4.5,0h0A4.5,4.5,0,0,1,9,4.5V22.974a1.075,1.075,0,0,1-1.075,1.075H1.075A1.075,1.075,0,0,1,0,22.974V4.5A4.5,4.5,0,0,1,4.5,0Z" transform="translate(0 6.996)" fill="url(#linear-gradient-29)"/>
            <rect id="Rectángulo_353043" data-name="Rectángulo 353043" width="8.999" height="9.942" transform="translate(0.002 13.983)" fill="url(#linear-gradient-27)"/>
            <path id="Trazado_736538" data-name="Trazado 736538" d="M3660.258,2860.154h0a1.011,1.011,0,0,1-1.007-1.008v-19.213a1.011,1.011,0,0,1,1.007-1.007h0a1.01,1.01,0,0,1,1.008,1.007v19.213A1.011,1.011,0,0,1,3660.258,2860.154Z" transform="translate(-3657.369 -2830.049)" fill="#fff" opacity="0.33"/>
          </g>
          <g id="Grupo_1036336" data-name="Grupo 1036336" transform="translate(157.403 79.726)">
            <path id="Trazado_736539" data-name="Trazado 736539" d="M2381.366,2743.668v2.967a.236.236,0,0,0,.235.235h2.956a.236.236,0,0,0,.235-.235v-3.394A10.67,10.67,0,0,0,2381.366,2743.668Z" transform="translate(-2378.478 -2741.62)" fill="url(#linear-gradient-27)"/>
            <path id="Trazado_736540" data-name="Trazado 736540" d="M2384.557,2727.315H2381.6a.236.236,0,0,0-.235.235v1.4a10.677,10.677,0,0,1,3.426-.427v-.973A.236.236,0,0,0,2384.557,2727.315Z" transform="translate(-2378.478 -2726.902)" fill="#d1f0fd"/>
            <g id="Grupo_1036335" data-name="Grupo 1036335" transform="translate(0.001)">
              <path id="Trazado_736541" data-name="Trazado 736541" d="M2343.294,2726.806c0-.018,0-.038,0-.051C2343.295,2726.764,2343.295,2726.782,2343.294,2726.806Z" transform="translate(-2343.293 -2726.385)" fill="#def3ff"/>
              <path id="Trazado_736542" data-name="Trazado 736542" d="M2343.3,2726.6c0-.018,0-.015,0,0Z" transform="translate(-2343.303 -2726.232)" fill="#def3ff"/>
              <path id="Trazado_736543" data-name="Trazado 736543" d="M2343.437,2723.342a.506.506,0,0,0-.15.342c0,.24.089.366.44.527,1.828.838,4.042.217,6.034.1.38-.023.485-.175.48-.474C2348.031,2723.465,2345.324,2724.837,2343.437,2723.342Z" transform="translate(-2343.287 -2723.23)" fill="#eaf8ff"/>
              <path id="Trazado_736544" data-name="Trazado 736544" d="M2351.532,2722.017c-1.953.053-3.971.539-5.836-.117a.393.393,0,0,0-.428.083c1.888,1.495,4.594.123,6.8.492,0,0,0,0,0-.007C2352.065,2722.162,2351.908,2722.006,2351.532,2722.017Z" transform="translate(-2345.118 -2721.871)" fill="#def3ff"/>
              <path id="Trazado_736545" data-name="Trazado 736545" d="M2343.288,2727.432c0,.011,0,.017,0,.031S2343.287,2727.457,2343.288,2727.432Z" transform="translate(-2343.287 -2727.01)" fill="#def3ff"/>
              <path id="Trazado_736546" data-name="Trazado 736546" d="M2434.99,2729.736Z" transform="translate(-2428.035 -2729.14)" fill="#def3ff"/>
              <path id="Trazado_736547" data-name="Trazado 736547" d="M2434.986,2729.546h0C2434.985,2729.519,2434.986,2729.532,2434.986,2729.546Z" transform="translate(-2428.031 -2728.949)" fill="#def3ff"/>
              <path id="Trazado_736548" data-name="Trazado 736548" d="M2434.989,2729.736h0C2434.99,2729.75,2434.99,2729.763,2434.989,2729.736Z" transform="translate(-2428.035 -2729.14)" fill="#def3ff"/>
            </g>
            <rect id="Rectángulo_353044" data-name="Rectángulo 353044" width="5.24" height="6.488" rx="2.62" transform="translate(1.881 3.969)" fill="url(#linear-gradient-28)"/>
            <path id="Rectángulo_353045" data-name="Rectángulo 353045" d="M4.5,0h0A4.5,4.5,0,0,1,9,4.5V22.974a1.075,1.075,0,0,1-1.075,1.075H1.075A1.075,1.075,0,0,1,0,22.974V4.5A4.5,4.5,0,0,1,4.5,0Z" transform="translate(0 6.996)" fill="url(#linear-gradient-29)"/>
            <rect id="Rectángulo_353046" data-name="Rectángulo 353046" width="8.999" height="9.942" transform="translate(0.002 13.983)" fill="url(#linear-gradient-27)"/>
            <path id="Trazado_736549" data-name="Trazado 736549" d="M2369.088,2860.154h0a1.011,1.011,0,0,1-1.008-1.008v-19.213a1.01,1.01,0,0,1,1.008-1.007h0a1.01,1.01,0,0,1,1.008,1.007v19.213A1.011,1.011,0,0,1,2369.088,2860.154Z" transform="translate(-2366.199 -2830.049)" fill="#fff" opacity="0.33"/>
          </g>
          <g id="Grupo_1036338" data-name="Grupo 1036338" transform="translate(124.763 79.726)">
            <path id="Trazado_736550" data-name="Trazado 736550" d="M1950.976,2743.668v2.967a.236.236,0,0,0,.235.235h2.956a.236.236,0,0,0,.235-.235v-3.394A10.668,10.668,0,0,0,1950.976,2743.668Z" transform="translate(-1948.088 -2741.62)" fill="url(#linear-gradient-27)"/>
            <path id="Trazado_736551" data-name="Trazado 736551" d="M1954.167,2727.315h-2.956a.236.236,0,0,0-.235.235v1.4a10.675,10.675,0,0,1,3.426-.427v-.973A.236.236,0,0,0,1954.167,2727.315Z" transform="translate(-1948.088 -2726.902)" fill="#d1f0fd"/>
            <g id="Grupo_1036337" data-name="Grupo 1036337" transform="translate(0.001)">
              <path id="Trazado_736552" data-name="Trazado 736552" d="M1912.9,2726.806c0-.018,0-.038,0-.051C1912.9,2726.764,1912.9,2726.782,1912.9,2726.806Z" transform="translate(-1912.903 -2726.385)" fill="#def3ff"/>
              <path id="Trazado_736553" data-name="Trazado 736553" d="M1912.915,2726.6c0-.018,0-.015,0,0Z" transform="translate(-1912.914 -2726.232)" fill="#def3ff"/>
              <path id="Trazado_736554" data-name="Trazado 736554" d="M1913.046,2723.342a.505.505,0,0,0-.15.342c0,.24.089.366.441.527,1.828.838,4.042.217,6.033.1.38-.023.485-.175.48-.474C1917.64,2723.465,1914.934,2724.837,1913.046,2723.342Z" transform="translate(-1912.895 -2723.23)" fill="#eaf8ff"/>
              <path id="Trazado_736555" data-name="Trazado 736555" d="M1921.142,2722.017c-1.953.053-3.971.539-5.836-.117a.393.393,0,0,0-.428.083c1.888,1.495,4.594.123,6.8.492,0,0,0,0,0-.007C1921.675,2722.162,1921.518,2722.006,1921.142,2722.017Z" transform="translate(-1914.728 -2721.871)" fill="#def3ff"/>
              <path id="Trazado_736556" data-name="Trazado 736556" d="M1912.9,2727.432c0,.011,0,.017,0,.031S1912.9,2727.457,1912.9,2727.432Z" transform="translate(-1912.896 -2727.01)" fill="#def3ff"/>
              <path id="Trazado_736557" data-name="Trazado 736557" d="M2004.6,2729.736Z" transform="translate(-1997.645 -2729.14)" fill="#def3ff"/>
              <path id="Trazado_736558" data-name="Trazado 736558" d="M2004.6,2729.546Z" transform="translate(-1997.641 -2728.949)" fill="#def3ff"/>
              <path id="Trazado_736559" data-name="Trazado 736559" d="M2004.6,2729.736Z" transform="translate(-1997.645 -2729.14)" fill="#def3ff"/>
            </g>
            <rect id="Rectángulo_353047" data-name="Rectángulo 353047" width="5.24" height="6.488" rx="2.62" transform="translate(1.881 3.969)" fill="url(#linear-gradient-28)"/>
            <path id="Rectángulo_353048" data-name="Rectángulo 353048" d="M4.5,0h0A4.5,4.5,0,0,1,9,4.5V22.974a1.075,1.075,0,0,1-1.075,1.075H1.075A1.075,1.075,0,0,1,0,22.974V4.5A4.5,4.5,0,0,1,4.5,0Z" transform="translate(0 6.996)" fill="url(#linear-gradient-29)"/>
            <rect id="Rectángulo_353049" data-name="Rectángulo 353049" width="8.999" height="9.942" transform="translate(0.002 13.983)" fill="url(#linear-gradient-27)"/>
            <path id="Trazado_736560" data-name="Trazado 736560" d="M1938.7,2860.154h0a1.011,1.011,0,0,1-1.008-1.008v-19.213a1.011,1.011,0,0,1,1.008-1.007h0a1.01,1.01,0,0,1,1.008,1.007v19.213A1.011,1.011,0,0,1,1938.7,2860.154Z" transform="translate(-1935.808 -2830.049)" fill="#fff" opacity="0.33"/>
          </g>
          <g id="Grupo_1036340" data-name="Grupo 1036340" transform="translate(92.123 79.726)">
            <path id="Trazado_736561" data-name="Trazado 736561" d="M1520.586,2743.668v2.967a.236.236,0,0,0,.235.235h2.956a.236.236,0,0,0,.235-.235v-3.394A10.67,10.67,0,0,0,1520.586,2743.668Z" transform="translate(-1517.698 -2741.62)" fill="url(#linear-gradient-27)"/>
            <path id="Trazado_736562" data-name="Trazado 736562" d="M1523.777,2727.315h-2.956a.236.236,0,0,0-.235.235v1.4a10.676,10.676,0,0,1,3.426-.427v-.973A.236.236,0,0,0,1523.777,2727.315Z" transform="translate(-1517.698 -2726.902)" fill="#d1f0fd"/>
            <g id="Grupo_1036339" data-name="Grupo 1036339" transform="translate(0.001)">
              <path id="Trazado_736563" data-name="Trazado 736563" d="M1482.514,2726.806c0-.018,0-.038,0-.051C1482.515,2726.764,1482.515,2726.782,1482.514,2726.806Z" transform="translate(-1482.513 -2726.385)" fill="#def3ff"/>
              <path id="Trazado_736564" data-name="Trazado 736564" d="M1482.525,2726.6c0-.018,0-.015,0,0Z" transform="translate(-1482.523 -2726.232)" fill="#def3ff"/>
              <path id="Trazado_736565" data-name="Trazado 736565" d="M1482.656,2723.342a.506.506,0,0,0-.15.342c0,.24.089.366.441.527,1.828.838,4.042.217,6.033.1.38-.023.485-.175.48-.474C1487.25,2723.465,1484.543,2724.837,1482.656,2723.342Z" transform="translate(-1482.505 -2723.23)" fill="#eaf8ff"/>
              <path id="Trazado_736566" data-name="Trazado 736566" d="M1490.752,2722.017c-1.953.053-3.971.539-5.836-.117a.393.393,0,0,0-.428.083c1.888,1.495,4.594.123,6.8.492,0,0,0,0,0-.007C1491.285,2722.162,1491.128,2722.006,1490.752,2722.017Z" transform="translate(-1484.338 -2721.871)" fill="#def3ff"/>
              <path id="Trazado_736567" data-name="Trazado 736567" d="M1482.507,2727.432c0,.011,0,.017,0,.031S1482.507,2727.457,1482.507,2727.432Z" transform="translate(-1482.506 -2727.01)" fill="#def3ff"/>
              <path id="Trazado_736568" data-name="Trazado 736568" d="M1574.209,2729.736Z" transform="translate(-1567.254 -2729.14)" fill="#def3ff"/>
              <path id="Trazado_736569" data-name="Trazado 736569" d="M1574.2,2729.546h0C1574.2,2729.519,1574.2,2729.532,1574.2,2729.546Z" transform="translate(-1567.25 -2728.949)" fill="#def3ff"/>
              <path id="Trazado_736570" data-name="Trazado 736570" d="M1574.209,2729.736h0C1574.209,2729.75,1574.21,2729.763,1574.209,2729.736Z" transform="translate(-1567.254 -2729.14)" fill="#def3ff"/>
            </g>
            <rect id="Rectángulo_353050" data-name="Rectángulo 353050" width="5.24" height="6.488" rx="2.62" transform="translate(1.881 3.969)" fill="url(#linear-gradient-28)"/>
            <path id="Rectángulo_353051" data-name="Rectángulo 353051" d="M4.5,0h0A4.5,4.5,0,0,1,9,4.5V22.974a1.075,1.075,0,0,1-1.075,1.075H1.075A1.075,1.075,0,0,1,0,22.974V4.5A4.5,4.5,0,0,1,4.5,0Z" transform="translate(0 6.996)" fill="url(#linear-gradient-29)"/>
            <rect id="Rectángulo_353052" data-name="Rectángulo 353052" width="8.999" height="9.942" transform="translate(0.002 13.983)" fill="url(#linear-gradient-27)"/>
            <path id="Trazado_736571" data-name="Trazado 736571" d="M1508.307,2860.154h0a1.011,1.011,0,0,1-1.008-1.008v-19.213a1.011,1.011,0,0,1,1.008-1.007h0a1.011,1.011,0,0,1,1.008,1.007v19.213A1.011,1.011,0,0,1,1508.307,2860.154Z" transform="translate(-1505.418 -2830.049)" fill="#fff" opacity="0.33"/>
          </g>
          <g id="Grupo_1036342" data-name="Grupo 1036342" transform="translate(59.483 79.726)">
            <path id="Trazado_736572" data-name="Trazado 736572" d="M1090.2,2743.668v2.967a.236.236,0,0,0,.235.235h2.956a.236.236,0,0,0,.235-.235v-3.394A10.67,10.67,0,0,0,1090.2,2743.668Z" transform="translate(-1087.307 -2741.62)" fill="url(#linear-gradient-27)"/>
            <path id="Trazado_736573" data-name="Trazado 736573" d="M1093.387,2727.315h-2.956a.236.236,0,0,0-.235.235v1.4a10.677,10.677,0,0,1,3.426-.427v-.973A.236.236,0,0,0,1093.387,2727.315Z" transform="translate(-1087.307 -2726.902)" fill="#d1f0fd"/>
            <g id="Grupo_1036341" data-name="Grupo 1036341" transform="translate(0.001)">
              <path id="Trazado_736574" data-name="Trazado 736574" d="M1052.123,2726.806c0-.018,0-.038,0-.051C1052.124,2726.764,1052.123,2726.782,1052.123,2726.806Z" transform="translate(-1052.122 -2726.385)" fill="#def3ff"/>
              <path id="Trazado_736575" data-name="Trazado 736575" d="M1052.134,2726.6c0-.018,0-.015,0,0Z" transform="translate(-1052.133 -2726.232)" fill="#def3ff"/>
              <path id="Trazado_736576" data-name="Trazado 736576" d="M1052.266,2723.342a.506.506,0,0,0-.15.342c0,.24.089.366.441.527,1.828.838,4.042.217,6.033.1.38-.023.485-.175.48-.474C1056.86,2723.465,1054.153,2724.837,1052.266,2723.342Z" transform="translate(-1052.115 -2723.23)" fill="#eaf8ff"/>
              <path id="Trazado_736577" data-name="Trazado 736577" d="M1060.362,2722.017c-1.953.053-3.971.539-5.836-.117a.393.393,0,0,0-.428.083c1.888,1.495,4.594.123,6.8.492,0,0,0,0,0-.007C1060.9,2722.162,1060.738,2722.006,1060.362,2722.017Z" transform="translate(-1053.948 -2721.871)" fill="#def3ff"/>
              <path id="Trazado_736578" data-name="Trazado 736578" d="M1052.116,2727.432c0,.011,0,.017,0,.031S1052.116,2727.457,1052.116,2727.432Z" transform="translate(-1052.116 -2727.01)" fill="#def3ff"/>
              <path id="Trazado_736579" data-name="Trazado 736579" d="M1143.819,2729.736Z" transform="translate(-1136.864 -2729.14)" fill="#def3ff"/>
              <path id="Trazado_736580" data-name="Trazado 736580" d="M1143.815,2729.546h0C1143.814,2729.519,1143.814,2729.532,1143.815,2729.546Z" transform="translate(-1136.86 -2728.949)" fill="#def3ff"/>
              <path id="Trazado_736581" data-name="Trazado 736581" d="M1143.819,2729.736Z" transform="translate(-1136.864 -2729.14)" fill="#def3ff"/>
            </g>
            <rect id="Rectángulo_353053" data-name="Rectángulo 353053" width="5.24" height="6.488" rx="2.62" transform="translate(1.881 3.969)" fill="url(#linear-gradient-28)"/>
            <path id="Rectángulo_353054" data-name="Rectángulo 353054" d="M4.5,0h0A4.5,4.5,0,0,1,9,4.5V22.974a1.075,1.075,0,0,1-1.075,1.075H1.075A1.075,1.075,0,0,1,0,22.974V4.5A4.5,4.5,0,0,1,4.5,0Z" transform="translate(0 6.996)" fill="url(#linear-gradient-29)"/>
            <rect id="Rectángulo_353055" data-name="Rectángulo 353055" width="8.999" height="9.942" transform="translate(0.002 13.983)" fill="url(#linear-gradient-27)"/>
            <path id="Trazado_736582" data-name="Trazado 736582" d="M1077.917,2860.154h0a1.011,1.011,0,0,1-1.008-1.008v-19.213a1.011,1.011,0,0,1,1.008-1.007h0a1.01,1.01,0,0,1,1.008,1.007v19.213A1.011,1.011,0,0,1,1077.917,2860.154Z" transform="translate(-1075.028 -2830.049)" fill="#fff" opacity="0.33"/>
          </g>
          <rect id="Rectángulo_353056" data-name="Rectángulo 353056" width="274.893" height="2.871" transform="translate(22.603 100.833)" fill="url(#linear-gradient-17)"/>
          <path id="Trazado_736583" data-name="Trazado 736583" d="M3052.836,3144.286h0a1.53,1.53,0,0,1-1.525-1.525v-22.4a1.53,1.53,0,0,1,1.525-1.525h0a1.529,1.529,0,0,1,1.525,1.525v22.4A1.529,1.529,0,0,1,3052.836,3144.286Z" transform="translate(-2840.212 -3009.003)" fill="url(#linear-gradient-12)"/>
          <g id="Grupo_1036343" data-name="Grupo 1036343" transform="translate(207.195 99.935)">
            <rect id="Rectángulo_353057" data-name="Rectángulo 353057" width="10.453" height="4.486" fill="#424a52"/>
            <path id="Trazado_736584" data-name="Trazado 736584" d="M3038.623,3039.122h0a2.7,2.7,0,0,1-2.691-2.692v-14.624a2.7,2.7,0,0,1,2.691-2.691h0a2.7,2.7,0,0,1,2.692,2.691v14.624A2.7,2.7,0,0,1,3038.623,3039.122Z" transform="translate(-3033.195 -3016.782)" fill="#424a52"/>
          </g>
          <path id="Trazado_736585" data-name="Trazado 736585" d="M1738.714,3144.286h0a1.53,1.53,0,0,1-1.525-1.525v-22.4a1.53,1.53,0,0,1,1.525-1.525h0a1.53,1.53,0,0,1,1.525,1.525v22.4A1.53,1.53,0,0,1,1738.714,3144.286Z" transform="translate(-1625.751 -3009.003)" fill="url(#linear-gradient-12)"/>
          <g id="Grupo_1036344" data-name="Grupo 1036344" transform="translate(107.535 99.935)">
            <rect id="Rectángulo_353058" data-name="Rectángulo 353058" width="10.453" height="4.486" fill="#424a52"/>
            <path id="Trazado_736586" data-name="Trazado 736586" d="M1724.5,3039.122h0a2.7,2.7,0,0,1-2.692-2.692v-14.624a2.7,2.7,0,0,1,2.692-2.691h0a2.7,2.7,0,0,1,2.691,2.691v14.624A2.7,2.7,0,0,1,1724.5,3039.122Z" transform="translate(-1719.073 -3016.782)" fill="#424a52"/>
          </g>
          <rect id="Rectángulo_353059" data-name="Rectángulo 353059" width="5.742" height="83.386" transform="translate(22.603 132.413)" fill="url(#linear-gradient-50)"/>
          <rect id="Rectángulo_353060" data-name="Rectángulo 353060" width="5.742" height="83.386" transform="translate(291.754 132.413)" fill="url(#linear-gradient-50)"/>
          <path id="Trazado_736587" data-name="Trazado 736587" d="M2416.036,4062.011v33.708h5.742v-34.5Z" transform="translate(-2253.115 -3879.921)" fill="#fff" opacity="0.58"/>
          <path id="Trazado_736588" data-name="Trazado 736588" d="M2421.778,3416.606h-5.742v49.677l5.742-.791Z" transform="translate(-2253.115 -3284.193)" fill="url(#linear-gradient-10)"/>
          <path id="Trazado_736589" data-name="Trazado 736589" d="M571.555,3416.606h-5.742v69l5.742-.791Z" transform="translate(-543.21 -3284.193)" fill="url(#linear-gradient-50)"/>
          <path id="Trazado_736590" data-name="Trazado 736590" d="M565.813,4316.833v14.384h5.742v-15.175Z" transform="translate(-543.21 -4115.418)" fill="#fff" opacity="0.58"/>
          <path id="Trazado_736591" data-name="Trazado 736591" d="M4120.577,3416.606h-5.742v31.934l5.742-.791Z" transform="translate(-3823.081 -3284.193)" fill="url(#linear-gradient-50)"/>
          <path id="Trazado_736592" data-name="Trazado 736592" d="M4114.835,3828.049V3879.5h5.742v-52.243Z" transform="translate(-3823.081 -3663.701)" fill="#fff" opacity="0.58"/>
        </g>
      </g>
      <circle id="Elipse_5654" data-name="Elipse 5654" cx="2.475" cy="2.475" r="2.475" transform="translate(431.698 544.829)" fill="#fff"/>
      <g id="Grupo_1036347" data-name="Grupo 1036347" transform="translate(414.015 510.459)">
        <path id="Trazado_736593" data-name="Trazado 736593" d="M2202.169,1259.209a6,6,0,1,1,6-6A6.008,6.008,0,0,1,2202.169,1259.209Zm0-10.312a4.311,4.311,0,1,0,4.311,4.312A4.316,4.316,0,0,0,2202.169,1248.9Z" transform="translate(-2196.169 -1247.208)" fill="#fff"/>
      </g>
      <circle id="Elipse_5655" data-name="Elipse 5655" cx="23.873" cy="23.873" r="23.873" transform="translate(541.391 520.434)" fill="#81d4fa"/>
    </g>
  </g>
</svg>
