<svg id="Grupo_173635" data-name="Grupo 173635" xmlns="http://www.w3.org/2000/svg" xmlns:xlink="http://www.w3.org/1999/xlink" width="287.509" height="351.204" viewBox="0 0 287.509 351.204">
  <defs>
    <clipPath id="clip-path">
      <rect id="Rectángulo_50737" data-name="Rectángulo 50737" width="287.509" height="351.204" fill="none"/>
    </clipPath>
    <clipPath id="clip-path-2">
      <rect id="Rectángulo_50736" data-name="Rectángulo 50736" width="287.51" height="351.204" fill="none"/>
    </clipPath>
    <clipPath id="clip-path-3">
      <rect id="Rectángulo_50708" data-name="Rectángulo 50708" width="51.603" height="51.603" fill="none"/>
    </clipPath>
    <clipPath id="clip-path-5">
      <rect id="Rectángulo_50707" data-name="Rectángulo 50707" width="33.847" height="33.847" fill="none"/>
    </clipPath>
    <clipPath id="clip-path-6">
      <rect id="Rectángulo_50709" data-name="Rectángulo 50709" width="22.018" height="19.017" fill="#d2e1f1"/>
    </clipPath>
    <clipPath id="clip-path-7">
      <rect id="Rectángulo_50712" data-name="Rectángulo 50712" width="22.672" height="17.97" fill="#d2e1f1"/>
    </clipPath>
    <clipPath id="clip-path-8">
      <rect id="Rectángulo_50715" data-name="Rectángulo 50715" width="16.452" height="23.384" fill="#d2e1f1"/>
    </clipPath>
    <clipPath id="clip-path-9">
      <rect id="Rectángulo_50718" data-name="Rectángulo 50718" width="16.741" height="23.268" fill="#d2e1f1"/>
    </clipPath>
    <clipPath id="clip-path-10">
      <rect id="Rectángulo_50721" data-name="Rectángulo 50721" width="21.296" height="19.948" fill="#d2e1f1"/>
    </clipPath>
    <clipPath id="clip-path-11">
      <rect id="Rectángulo_50724" data-name="Rectángulo 50724" width="23.73" height="15.417" fill="#d2e1f1"/>
    </clipPath>
    <clipPath id="clip-path-12">
      <rect id="Rectángulo_50727" data-name="Rectángulo 50727" width="12.197" height="24.191" fill="#d2e1f1"/>
    </clipPath>
    <clipPath id="clip-path-13">
      <rect id="Rectángulo_50730" data-name="Rectángulo 50730" width="16.607" height="23.323" fill="#d2e1f1"/>
    </clipPath>
  </defs>
  <g id="Grupo_173634" data-name="Grupo 173634" clip-path="url(#clip-path)">
    <g id="Grupo_173633" data-name="Grupo 173633" transform="translate(0 0)">
      <g id="Grupo_173632" data-name="Grupo 173632" clip-path="url(#clip-path-2)">
        <path id="Trazado_210769" data-name="Trazado 210769" d="M231.96,381.136a7.04,7.04,0,0,1-7.005,7.073l-216.3.388a7.039,7.039,0,0,1-7.029-7.048L1.109,94.044a7.036,7.036,0,0,1,7-7.071l216.3-.391a7.037,7.037,0,0,1,7.029,7.047Z" transform="translate(-0.875 -68.314)" fill="#12263f"/>
        <path id="Trazado_210770" data-name="Trazado 210770" d="M72.6,422.289V152.75H273.336V373.611l-47.063,48.678Z" transform="translate(-57.283 -120.519)" fill="#fff"/>
        <path id="Trazado_210771" data-name="Trazado 210771" d="M428,0a32.163,32.163,0,0,0-32.164,32.163c0,.022,0,.045,0,.067h64.326c0-.022,0-.045,0-.067A32.163,32.163,0,0,0,428,0m0,24.156a5.692,5.692,0,1,1,5.692-5.692A5.692,5.692,0,0,1,428,24.155" transform="translate(-312.316 0.001)" fill="#7e5ee3"/>
        <path id="Trazado_210772" data-name="Trazado 210772" d="M186.41,355.207H147.5V316.3H186.41Zm-36.1-2.809H183.6V319.107H150.31Z" transform="translate(-116.378 -249.559)" fill="#b1e8fc"/>
        <path id="Trazado_210773" data-name="Trazado 210773" d="M186.41,608.313H147.5V569.4H186.41Zm-36.1-2.809H183.6V572.213H150.31Z" transform="translate(-116.378 -449.259)" fill="#b1e8fc"/>
        <path id="Trazado_210774" data-name="Trazado 210774" d="M186.41,861.42H147.5V822.511H186.41Zm-36.1-2.809H183.6V825.32H150.31Z" transform="translate(-116.378 -648.961)" fill="#b1e8fc"/>
        <rect id="Rectángulo_50698" data-name="Rectángulo 50698" width="119.119" height="3.995" transform="translate(79.834 73.138)" fill="#81d4fa"/>
        <rect id="Rectángulo_50699" data-name="Rectángulo 50699" width="119.119" height="3.995" transform="translate(79.834 90.784)" fill="#81d4fa"/>
        <rect id="Rectángulo_50700" data-name="Rectángulo 50700" width="119.119" height="3.995" transform="translate(79.834 128.779)" fill="#81d4fa"/>
        <rect id="Rectángulo_50701" data-name="Rectángulo 50701" width="119.119" height="3.995" transform="translate(79.834 146.425)" fill="#81d4fa"/>
        <rect id="Rectángulo_50702" data-name="Rectángulo 50702" width="119.119" height="3.995" transform="translate(79.834 184.42)" fill="#81d4fa"/>
        <rect id="Rectángulo_50703" data-name="Rectángulo 50703" width="119.119" height="3.995" transform="translate(79.834 202.066)" fill="#81d4fa"/>
        <rect id="Rectángulo_50704" data-name="Rectángulo 50704" width="119.119" height="3.995" transform="translate(79.834 240.061)" fill="#81d4fa"/>
        <rect id="Rectángulo_50705" data-name="Rectángulo 50705" width="119.119" height="3.995" transform="translate(79.834 257.707)" fill="#81d4fa"/>
        <path id="Trazado_210775" data-name="Trazado 210775" d="M193.027,335.574l-11.692-17.857a.909.909,0,0,1,.238-1.242.859.859,0,0,1,1.211.244l9.833,15.018,12.494-32.785a.865.865,0,0,1,1.13-.508.9.9,0,0,1,.495,1.159Z" transform="translate(-142.956 -235.424)" fill="#ff9d00"/>
        <path id="Trazado_210776" data-name="Trazado 210776" d="M188.677,547.178,174.47,525.854a1.127,1.127,0,0,1,.295-1.539,1.065,1.065,0,0,1,1.5.3l11.9,17.8,15.488-40.641a1.073,1.073,0,0,1,1.4-.629,1.119,1.119,0,0,1,.613,1.437Z" transform="translate(-137.512 -395.347)" fill="#ff9d00"/>
        <path id="Trazado_210777" data-name="Trazado 210777" d="M188.677,798.038,174.47,776.714a1.127,1.127,0,0,1,.295-1.539,1.065,1.065,0,0,1,1.5.3l11.9,17.8,15.488-40.641a1.073,1.073,0,0,1,1.4-.629,1.119,1.119,0,0,1,.613,1.437Z" transform="translate(-137.512 -593.276)" fill="#ff9d00"/>
        <path id="Trazado_210778" data-name="Trazado 210778" d="M129.438,1087.134a22.737,22.737,0,1,0,22.737-22.737,22.737,22.737,0,0,0-22.737,22.737" transform="translate(-102.127 -839.809)" fill="#ff9d00"/>
        <path id="Trazado_210779" data-name="Trazado 210779" d="M177.908,1100.073l4.575-.047.133,12.937,12.938.03-.011,4.576-12.88-.03.133,12.879-4.575.047-.133-12.937-12.938-.03.011-4.576,12.88.03Z" transform="translate(-130.303 -867.919)" fill="#fff"/>
        <g id="Grupo_173607" data-name="Grupo 173607" transform="translate(95.086 232.776)" opacity="0.2">
          <g id="Grupo_173606" data-name="Grupo 173606">
            <g id="Grupo_173605" data-name="Grupo 173605" clip-path="url(#clip-path-3)">
              <g id="Grupo_173601" data-name="Grupo 173601" opacity="0.5" style="mix-blend-mode: multiply;isolation: isolate">
                <g id="Grupo_173600" data-name="Grupo 173600">
                  <g id="Grupo_173599" data-name="Grupo 173599" clip-path="url(#clip-path-3)">
                    <path id="Trazado_210780" data-name="Trazado 210780" d="M476.447,1154.805a25.8,25.8,0,1,1,25.8-25.8,25.831,25.831,0,0,1-25.8,25.8m0-48.829A23.027,23.027,0,1,0,499.474,1129a23.053,23.053,0,0,0-23.027-23.027" transform="translate(-450.645 -1103.202)" fill="#4cb7d8"/>
                  </g>
                </g>
              </g>
              <g id="Grupo_173604" data-name="Grupo 173604" transform="translate(8.878 8.878)" opacity="0.5" style="mix-blend-mode: multiply;isolation: isolate">
                <g id="Grupo_173603" data-name="Grupo 173603">
                  <g id="Grupo_173602" data-name="Grupo 173602" clip-path="url(#clip-path-5)">
                    <path id="Trazado_210781" data-name="Trazado 210781" d="M526.566,1162.2a16.924,16.924,0,1,1-16.924-16.924,16.924,16.924,0,0,1,16.924,16.924" transform="translate(-492.719 -1145.278)" fill="#4cb7d8"/>
                  </g>
                </g>
              </g>
            </g>
          </g>
        </g>
        <path id="Trazado_210782" data-name="Trazado 210782" d="M847.958,1199.484l-47.063,48.678v-48.678Z" transform="translate(-631.906 -946.393)" fill="#dcf4ff"/>
        <path id="Trazado_210783" data-name="Trazado 210783" d="M.468,192.851H0V94.157c0-.076.166-7.292,7.236-7.3l69.986-.126v.468L7.238,87.32C.632,87.332.471,93.881.468,94.16Z" transform="translate(0 -68.427)"/>
        <path id="Trazado_210784" data-name="Trazado 210784" d="M557.322,997.4l44.778,54.8a12.046,12.046,0,0,0,16.95,1.706l101.617-83.032a12.046,12.046,0,0,0,1.706-16.95l-44.777-54.8a12.046,12.046,0,0,0-16.95-1.706L559.028,980.454a12.046,12.046,0,0,0-1.706,16.95" transform="translate(-437.582 -705.92)" fill="#f3f9ff"/>
        <path id="Trazado_210785" data-name="Trazado 210785" d="M677.048,898.6,698.8,925.226,578.527,1023.5l-21.753-26.621a11.866,11.866,0,0,1,1.923-16.667l101.635-83.046a11.866,11.866,0,0,1,16.716,1.437" transform="translate(-437.26 -705.673)" fill="#f3f9ff"/>
        <path id="Trazado_210786" data-name="Trazado 210786" d="M1177.191,1173.339a12.1,12.1,0,0,0,16.229-2.2c.213-.257.417-.523.612-.8s.374-.562.542-.851A12.095,12.095,0,0,0,1174.8,1155.7c-.213.257-.417.523-.612.8s-.374.563-.542.851a12.094,12.094,0,0,0,3.542,15.989" transform="translate(-924.72 -908.393)" fill="#dcf4ff"/>
        <g id="Grupo_173610" data-name="Grupo 173610" transform="translate(247.295 248.106)" style="mix-blend-mode: multiply;isolation: isolate">
          <g id="Grupo_173609" data-name="Grupo 173609">
            <g id="Grupo_173608" data-name="Grupo 173608" clip-path="url(#clip-path-6)">
              <path id="Trazado_210787" data-name="Trazado 210787" d="M1174.189,1175.855l19.841,13.84a12.1,12.1,0,0,1-19.841-13.84" transform="translate(-1172.012 -1175.855)" fill="#d2e1f1"/>
            </g>
          </g>
        </g>
        <path id="Trazado_210788" data-name="Trazado 210788" d="M1179.76,1173.706l19.771,13.791c.213-.257.417-.523.612-.8s.374-.563.542-.851l-19.771-13.791c-.213.257-.417.523-.612.8s-.374.563-.541.851" transform="translate(-930.83 -924.749)" fill="#83d0e5"/>
        <path id="Trazado_210789" data-name="Trazado 210789" d="M1181.836,1156.036l.207.144c.185-.266.389-.533.605-.794a11.969,11.969,0,0,1,19.565,13.647c-.17.292-.35.576-.536.842s-.389.533-.605.794l.194.161c.221-.266.429-.539.619-.81s.374-.562.547-.86a12.221,12.221,0,0,0-19.977-13.935c-.221.266-.428.539-.618.81" transform="translate(-932.468 -908.002)"/>
        <rect id="Rectángulo_50710" data-name="Rectángulo 50710" width="0.252" height="12.867" transform="translate(252.494 251.598) rotate(-55.101)"/>
        <rect id="Rectángulo_50711" data-name="Rectángulo 50711" width="0.252" height="19.559" transform="translate(251.537 248.472) rotate(-55.102)"/>
        <path id="Trazado_210790" data-name="Trazado 210790" d="M1174.829,1224.017a12.8,12.8,0,0,0,4.763,3.587l.1-.23a11.983,11.983,0,0,1-7.177-8.991l-.251.025a11.757,11.757,0,0,0,2.561,5.609" transform="translate(-924.919 -961.304)"/>
        <path id="Trazado_210791" data-name="Trazado 210791" d="M1030.834,993.691a12.1,12.1,0,0,0,15.92-3.842c.186-.277.362-.563.527-.86s.315-.6.452-.9a12.095,12.095,0,0,0-21.074-11.7c-.186.277-.361.563-.527.86s-.315.6-.452.9a12.1,12.1,0,0,0,5.154,15.545" transform="translate(-808.417 -766.134)" fill="#dcf4ff"/>
        <g id="Grupo_173613" data-name="Grupo 173613" transform="translate(216.193 211.111)" style="mix-blend-mode: multiply;isolation: isolate">
          <g id="Grupo_173612" data-name="Grupo 173612">
            <g id="Grupo_173611" data-name="Grupo 173611" clip-path="url(#clip-path-7)">
              <path id="Trazado_210792" data-name="Trazado 210792" d="M1026.129,1000.524l21.149,11.745a12.1,12.1,0,0,1-21.149-11.745" transform="translate(-1024.607 -1000.524)" fill="#d2e1f1"/>
            </g>
          </g>
        </g>
        <path id="Trazado_210793" data-name="Trazado 210793" d="M1029.683,998.208l21.074,11.7c.186-.277.361-.563.527-.86s.315-.6.452-.9l-21.074-11.7c-.186.277-.362.563-.527.86s-.315.6-.452.9" transform="translate(-812.419 -786.195)" fill="#83d0e5"/>
        <path id="Trazado_210794" data-name="Trazado 210794" d="M1031.3,976.783l.22.123c.159-.287.33-.566.521-.852a11.969,11.969,0,0,1,20.854,11.581c-.139.309-.289.609-.447.893s-.33.566-.521.851l.209.14c.192-.288.372-.58.532-.869s.314-.6.457-.911a12.221,12.221,0,0,0-21.294-11.825c-.192.287-.371.58-.532.869" transform="translate(-813.698 -765.733)"/>
        <rect id="Rectángulo_50713" data-name="Rectángulo 50713" width="0.252" height="12.868" transform="matrix(0.485, -0.874, 0.874, 0.485, 221.079, 214.276)"/>
        <rect id="Rectángulo_50714" data-name="Rectángulo 50714" width="0.252" height="19.559" transform="translate(219.808 211.264) rotate(-60.956)"/>
        <path id="Trazado_210795" data-name="Trazado 210795" d="M1028.451,1048.178a12.622,12.622,0,0,0,5.943,4.008l.079-.239a12,12,0,0,1-8.056-8.213l-.247.05a11.456,11.456,0,0,0,2.281,4.393" transform="translate(-809.648 -823.506)"/>
        <path id="Trazado_210796" data-name="Trazado 210796" d="M1047.995,1269.814a12.1,12.1,0,0,0,14.682,7.255c.32-.094.639-.2.956-.323s.625-.257.925-.4a12.095,12.095,0,0,0-8.676-22.49c-.32.094-.639.2-.956.323s-.625.257-.925.4a12.1,12.1,0,0,0-6.007,15.236" transform="translate(-826.226 -988.902)" fill="#dcf4ff"/>
        <g id="Grupo_173616" data-name="Grupo 173616" transform="translate(220.955 265.273)" style="mix-blend-mode: multiply;isolation: isolate">
          <g id="Grupo_173615" data-name="Grupo 173615">
            <g id="Grupo_173614" data-name="Grupo 173614" clip-path="url(#clip-path-8)">
              <path id="Trazado_210797" data-name="Trazado 210797" d="M1054.926,1257.215l8.707,22.57a12.1,12.1,0,0,1-8.707-22.57" transform="translate(-1047.181 -1257.215)" fill="#d2e1f1"/>
            </g>
          </g>
        </g>
        <path id="Trazado_210798" data-name="Trazado 210798" d="M1079.505,1256.411l8.676,22.49c.32-.094.638-.2.956-.323s.624-.257.925-.4l-8.676-22.49c-.32.094-.638.2-.956.323s-.625.257-.925.4" transform="translate(-851.729 -990.735)" fill="#83d0e5"/>
        <path id="Trazado_210799" data-name="Trazado 210799" d="M1091.505,1276.743c.331-.1.656-.207.966-.326s.624-.257.934-.407a12.221,12.221,0,0,0-8.766-22.724c-.331.1-.656.207-.965.326l.09.235c.3-.117.622-.224.946-.319a11.969,11.969,0,0,1,8.586,22.256c-.3.148-.612.282-.915.4s-.621.224-.946.319Z" transform="translate(-855.018 -988.456)"/>
        <rect id="Rectángulo_50716" data-name="Rectángulo 50716" width="0.252" height="12.868" transform="translate(229.256 269.857) rotate(-21.08)"/>
        <rect id="Rectángulo_50717" data-name="Rectángulo 50717" width="0.252" height="19.559" transform="translate(230.211 266.73) rotate(-21.08)"/>
        <path id="Trazado_210800" data-name="Trazado 210800" d="M1048.644,1298.663l.214-.133a11.985,11.985,0,0,1-.92-11.467l-.222-.12a12.252,12.252,0,0,0,.928,11.72" transform="translate(-825.807 -1015.397)"/>
        <path id="Trazado_210801" data-name="Trazado 210801" d="M900.71,1089.806a12.1,12.1,0,0,0,14.865,6.874c.318-.1.633-.217.947-.347s.618-.273.914-.426a12.095,12.095,0,0,0-9.252-22.259c-.318.1-.633.217-.947.347s-.618.273-.914.426a12.1,12.1,0,0,0-5.613,15.385" transform="translate(-709.926 -846.648)" fill="#dcf4ff"/>
        <g id="Grupo_173619" data-name="Grupo 173619" transform="translate(189.854 227.346)" style="mix-blend-mode: multiply;isolation: isolate">
          <g id="Grupo_173618" data-name="Grupo 173618">
            <g id="Grupo_173617" data-name="Grupo 173617" clip-path="url(#clip-path-9)">
              <path id="Trazado_210802" data-name="Trazado 210802" d="M907.237,1077.466l9.284,22.339a12.1,12.1,0,1,1-9.284-22.339" transform="translate(-899.78 -1077.466)" fill="#d2e1f1"/>
            </g>
          </g>
        </g>
        <path id="Trazado_210803" data-name="Trazado 210803" d="M930.785,1076.594l9.252,22.26c.318-.1.633-.217.947-.347s.618-.273.914-.427l-9.252-22.26c-.318.1-.633.217-.947.347s-.618.273-.914.427" transform="translate(-734.389 -848.821)" fill="#83d0e5"/>
        <path id="Trazado_210804" data-name="Trazado 210804" d="M943.313,1096.357c.328-.1.65-.223.957-.351s.617-.272.924-.431a12.221,12.221,0,0,0-9.348-22.491c-.328.1-.65.223-.957.351l.1.233c.3-.125.616-.24.938-.344a11.969,11.969,0,0,1,9.155,22.027c-.3.156-.605.3-.9.422s-.616.24-.937.344Z" transform="translate(-737.627 -846.206)"/>
        <rect id="Rectángulo_50719" data-name="Rectángulo 50719" width="0.252" height="12.868" transform="matrix(0.923, -0.384, 0.384, 0.923, 197.982, 231.915)"/>
        <rect id="Rectángulo_50720" data-name="Rectángulo 50720" width="0.252" height="19.559" transform="matrix(0.923, -0.384, 0.384, 0.923, 198.856, 228.765)"/>
        <path id="Trazado_210805" data-name="Trazado 210805" d="M901.414,1119.7l.21-.139a11.985,11.985,0,0,1-1.215-11.44l-.225-.114a12.251,12.251,0,0,0,1.23,11.693" transform="translate(-709.502 -874.221)"/>
        <path id="Trazado_210806" data-name="Trazado 210806" d="M926.619,1376.717a12.1,12.1,0,0,0,16.366-.609c.237-.235.466-.48.687-.739s.427-.523.622-.794a12.095,12.095,0,0,0-18.335-15.649c-.237.235-.466.48-.687.739s-.427.523-.622.795a12.1,12.1,0,0,0,1.97,16.258" transform="translate(-727.754 -1069.426)" fill="#dcf4ff"/>
        <g id="Grupo_173622" data-name="Grupo 173622" transform="translate(194.621 290.238)" style="mix-blend-mode: multiply;isolation: isolate">
          <g id="Grupo_173621" data-name="Grupo 173621">
            <g id="Grupo_173620" data-name="Grupo 173620" clip-path="url(#clip-path-10)">
              <path id="Trazado_210807" data-name="Trazado 210807" d="M925.269,1375.531l18.4,15.7a12.1,12.1,0,1,1-18.4-15.7" transform="translate(-922.373 -1375.531)" fill="#d2e1f1"/>
            </g>
          </g>
        </g>
        <path id="Trazado_210808" data-name="Trazado 210808" d="M933.149,1373.563l18.336,15.649c.237-.235.466-.48.687-.739s.427-.523.622-.794l-18.335-15.649c-.237.235-.466.48-.687.739s-.427.524-.622.795" transform="translate(-736.254 -1082.531)" fill="#83d0e5"/>
        <path id="Trazado_210809" data-name="Trazado 210809" d="M935.643,1359.194l.192.164c.21-.247.439-.493.68-.731a11.969,11.969,0,0,1,18.145,15.486c-.2.28-.4.537-.616.787s-.439.492-.68.731l.177.179c.246-.244.479-.495.694-.746s.423-.517.628-.8a12.221,12.221,0,0,0-18.526-15.812c-.246.244-.479.5-.694.747" transform="translate(-738.222 -1069.038)"/>
        <rect id="Rectángulo_50722" data-name="Rectángulo 50722" width="0.252" height="12.868" transform="translate(200.186 294.007) rotate(-49.52)"/>
        <rect id="Rectángulo_50723" data-name="Rectángulo 50723" width="0.252" height="19.559" transform="translate(199.537 290.803) rotate(-49.52)"/>
        <path id="Trazado_210810" data-name="Trazado 210810" d="M924.648,1423.783a13.04,13.04,0,0,0,3.685,3.078l.125-.219A12,12,0,0,1,922.19,1417h-.252a11.914,11.914,0,0,0,2.71,6.788" transform="translate(-727.409 -1118.008)"/>
        <path id="Trazado_210811" data-name="Trazado 210811" d="M783.743,1198.838a12.1,12.1,0,0,0,14.632-7.355c.118-.312.224-.63.318-.958s.171-.654.235-.981a12.095,12.095,0,0,0-23.181-6.613c-.118.312-.224.63-.318.958s-.171.653-.236.981a12.1,12.1,0,0,0,8.549,13.969" transform="translate(-611.446 -927.16)" fill="#dcf4ff"/>
        <g id="Grupo_173625" data-name="Grupo 173625" transform="translate(163.517 256.729)" style="mix-blend-mode: multiply;isolation: isolate">
          <g id="Grupo_173624" data-name="Grupo 173624">
            <g id="Grupo_173623" data-name="Grupo 173623" clip-path="url(#clip-path-11)">
              <path id="Trazado_210812" data-name="Trazado 210812" d="M775.426,1216.721l23.263,6.637a12.1,12.1,0,0,1-23.263-6.637" transform="translate(-774.959 -1216.721)" fill="#d2e1f1"/>
            </g>
          </g>
        </g>
        <path id="Trazado_210813" data-name="Trazado 210813" d="M776.057,1214.121l23.181,6.613c.118-.312.224-.63.318-.958s.171-.654.236-.981l-23.181-6.613c-.118.313-.224.63-.318.958s-.171.654-.235.981" transform="translate(-612.309 -956.411)" fill="#83d0e5"/>
        <path id="Trazado_210814" data-name="Trazado 210814" d="M776.6,1183.415l.242.069c.089-.312.195-.631.314-.948a11.969,11.969,0,0,1,22.939,6.544c-.067.338-.143.656-.233.971s-.195.631-.314.948l.235.089c.122-.324.23-.649.321-.967s.171-.651.238-.991a12.221,12.221,0,0,0-23.422-6.682c-.122.323-.23.649-.321.967" transform="translate(-612.736 -926.721)"/>
        <rect id="Rectángulo_50725" data-name="Rectángulo 50725" width="0.252" height="12.868" transform="translate(167.978 259.047) rotate(-74.077)"/>
        <rect id="Rectángulo_50726" data-name="Rectángulo 50726" width="0.252" height="19.559" transform="translate(166.056 256.403) rotate(-74.077)"/>
        <path id="Trazado_210815" data-name="Trazado 210815" d="M782.721,1261.719a12.449,12.449,0,0,0,8.725,4.524l.022-.251a12,12,0,0,1-9.71-6.17l-.229.105a9.578,9.578,0,0,0,1.192,1.792" transform="translate(-616.626 -993.999)"/>
        <path id="Trazado_210816" data-name="Trazado 210816" d="M797.553,1469.666a12.1,12.1,0,0,0,11.189,11.959c.333.025.668.037,1.008.034s.675-.021,1.008-.051a12.095,12.095,0,0,0-.2-24.1c-.333-.025-.668-.037-1.008-.034s-.675.021-1.008.051a12.1,12.1,0,0,0-10.986,12.146" transform="translate(-629.269 -1149.942)" fill="#dcf4ff"/>
        <g id="Grupo_173628" data-name="Grupo 173628" transform="translate(168.284 307.527)" style="mix-blend-mode: multiply;isolation: isolate">
          <g id="Grupo_173627" data-name="Grupo 173627">
            <g id="Grupo_173626" data-name="Grupo 173626" clip-path="url(#clip-path-12)">
              <path id="Trazado_210817" data-name="Trazado 210817" d="M809.547,1457.47l.2,24.19a12.1,12.1,0,1,1-.2-24.19" transform="translate(-797.553 -1457.47)" fill="#d2e1f1"/>
            </g>
          </g>
        </g>
        <path id="Trazado_210818" data-name="Trazado 210818" d="M849.62,1457.52l.2,24.1c.333.025.668.037,1.008.034s.675-.021,1.008-.051l-.2-24.1c-.333-.025-.668-.037-1.008-.034s-.675.021-1.008.051" transform="translate(-670.35 -1149.942)" fill="#83d0e5"/>
        <path id="Trazado_210819" data-name="Trazado 210819" d="M850.537,1481.278c.345.026.688.037,1.019.035s.667-.02,1.018-.052a12.221,12.221,0,0,0-.205-24.356c-.345-.026-.688-.038-1.019-.035l0,.252c.324,0,.66.009,1,.034a11.969,11.969,0,0,1,.2,23.854c-.344.032-.67.048-1,.051s-.66-.009-1-.034Z" transform="translate(-671.073 -1149.469)"/>
        <rect id="Rectángulo_50728" data-name="Rectángulo 50728" width="0.252" height="12.868" transform="translate(179.182 312.013) rotate(-0.48)"/>
        <rect id="Rectángulo_50729" data-name="Rectángulo 50729" width="0.252" height="19.559" transform="translate(181.176 309.423) rotate(-0.48)"/>
        <path id="Trazado_210820" data-name="Trazado 210820" d="M797.35,1485.258l.247-.049a11.984,11.984,0,0,1,3.176-11.057l-.165-.19a12.251,12.251,0,0,0-3.257,11.3" transform="translate(-628.895 -1162.954)" fill="#d2e1f1"/>
        <path id="Trazado_210821" data-name="Trazado 210821" d="M651.011,1293.765a12.1,12.1,0,0,0,14.781,7.052c.319-.1.636-.209.951-.336s.621-.266.919-.416a12.095,12.095,0,0,0-8.984-22.369c-.319.1-.636.209-.951.336s-.621.266-.92.416a12.1,12.1,0,0,0-5.8,15.316" transform="translate(-512.958 -1007.678)" fill="#dcf4ff"/>
        <g id="Grupo_173631" data-name="Grupo 173631" transform="translate(137.179 270.355)" style="mix-blend-mode: multiply;isolation: isolate">
          <g id="Grupo_173630" data-name="Grupo 173630">
            <g id="Grupo_173629" data-name="Grupo 173629" clip-path="url(#clip-path-13)">
              <path id="Trazado_210822" data-name="Trazado 210822" d="M657.727,1281.3l9.015,22.449a12.1,12.1,0,1,1-9.015-22.449" transform="translate(-650.136 -1281.299)" fill="#d2e1f1"/>
            </g>
          </g>
        </g>
        <path id="Trazado_210823" data-name="Trazado 210823" d="M681.756,1280.458l8.984,22.369c.319-.1.636-.209.951-.336s.621-.266.919-.416l-8.984-22.369c-.319.1-.636.209-.951.336s-.621.266-.92.416" transform="translate(-537.905 -1009.688)" fill="#83d0e5"/>
        <path id="Trazado_210824" data-name="Trazado 210824" d="M694.04,1300.493c.33-.1.654-.215.961-.339s.615-.262.929-.42a12.221,12.221,0,0,0-9.077-22.6c-.33.1-.653.216-.961.339l.094.234c.3-.121.617-.233.941-.332a11.969,11.969,0,0,1,8.89,22.136c-.308.154-.606.289-.91.411s-.618.233-.941.332Z" transform="translate(-541.168 -1007.234)"/>
        <rect id="Rectángulo_50731" data-name="Rectángulo 50731" width="0.252" height="12.868" transform="translate(145.383 274.933) rotate(-21.908)"/>
        <rect id="Rectángulo_50732" data-name="Rectángulo 50732" width="0.252" height="19.559" transform="translate(146.293 271.794) rotate(-21.908)"/>
        <path id="Trazado_210825" data-name="Trazado 210825" d="M651.69,1323.172l.212-.136a11.983,11.983,0,0,1-1.078-11.454l-.223-.116a12.251,12.251,0,0,0,1.089,11.706" transform="translate(-512.536 -1034.746)"/>
        <path id="Trazado_210826" data-name="Trazado 210826" d="M635.63,1320.582c4.839,5.92,9.366,11.442,12.206,14.872,2.913,3.519,6.124,5.42,9.546,5.65a12.3,12.3,0,0,0,8.5-2.969l101.476-83.193-.164-.284-101.643,83.1a12.016,12.016,0,0,1-8.147,2.846c-3.275-.222-6.366-2.062-9.185-5.468-8.8-10.634-33.832-41.39-34.084-41.7l-.391.318c.171.209,11.716,14.4,21.882,26.83" transform="translate(-484.247 -989.924)"/>
        <rect id="Rectángulo_50733" data-name="Rectángulo 50733" width="76" height="0.504" transform="matrix(0.774, -0.633, 0.633, 0.774, 163.985, 239.29)"/>
        <rect id="Rectángulo_50734" data-name="Rectángulo 50734" width="2.52" height="0.504" transform="matrix(0.774, -0.633, 0.633, 0.774, 255.091, 224.498)"/>
        <path id="Trazado_210827" data-name="Trazado 210827" d="M732.143,1155.628l.319.39-3.9,3.189-.319-.39Zm7.8-6.379.319.39-3.9,3.189-.319-.39Zm7.8-6.379.319.39-3.9,3.189-.319-.39Zm7.8-6.379.319.39-3.9,3.189-.319-.39Zm7.8-6.379.319.39-3.9,3.189-.319-.39Zm7.8-6.379.319.39-3.9,3.189-.319-.39Zm7.8-6.379.319.39-3.9,3.189-.319-.39Zm7.8-6.379.319.39-3.9,3.189-.319-.39Zm7.8-6.379.319.391-3.9,3.189-.319-.39Zm7.8-6.379.319.391-3.9,3.189-.319-.39Zm7.8-6.379.319.39-3.9,3.189-.319-.39Zm7.8-6.379.319.39-3.9,3.189-.319-.39Zm7.8-6.379.319.39-3.9,3.189-.319-.39Z" transform="translate(-574.583 -851.395)"/>
        <rect id="Rectángulo_50735" data-name="Rectángulo 50735" width="2.52" height="0.504" transform="translate(147.807 312.207) rotate(-39.273)"/>
      </g>
    </g>
  </g>
</svg>
