<svg id="Grupo_168468" data-name="Grupo 168468" xmlns="http://www.w3.org/2000/svg" width="105" height="105" viewBox="0 0 105 105">
  <circle id="Elipse_5382" data-name="Elipse 5382" cx="52.5" cy="52.5" r="52.5" fill="#4722bb"/>
  <g id="Scale" transform="translate(17.418 9.871)">
    <path id="Trazado_209582" data-name="Trazado 209582" d="M68.159,59.384a1.12,1.12,0,0,0-.076-.374.718.718,0,0,0-.043-.082.951.951,0,0,0-.082-.155L56.932,43.336a1.1,1.1,0,0,0-.9-.462h-1.1V40.669h7.719a1.1,1.1,0,0,0,1.1-1.1V35.156a1.1,1.1,0,0,0-1.1-1.1H44.8a3.271,3.271,0,0,0,.2-1.1V18.616a2.205,2.205,0,0,0,2.205-2.205V14.205A2.205,2.205,0,0,0,45,12H25.155a2.205,2.205,0,0,0-2.205,2.205v2.205a2.205,2.205,0,0,0,2.205,2.205V32.95a3.27,3.27,0,0,0,.2,1.1H7.513a1.1,1.1,0,0,0-1.1,1.1v4.411a1.1,1.1,0,0,0,1.1,1.1h7.719v2.205h-1.1a1.1,1.1,0,0,0-.9.462L2.206,58.774a.951.951,0,0,0-.082.155.717.717,0,0,0-.043.082,1.119,1.119,0,0,0-.076.374c0,.01,0,.019,0,.03V66.03a1.1,1.1,0,0,0,1.1,1.1H67.056a1.1,1.1,0,0,0,1.1-1.1V59.384Zm-43-45.179H45v2.205H25.155ZM42.8,18.616v2.259a9.2,9.2,0,0,0-8.195.054A6.306,6.306,0,0,1,31.4,21.7a6.276,6.276,0,0,1-3.2-.772c-.265-.127-.54-.254-.836-.376V18.616ZM27.361,32.95V22.975a8.313,8.313,0,0,0,4.036.934,8.428,8.428,0,0,0,4.16-.992,7.024,7.024,0,0,1,6.406,0c.265.127.54.254.835.375v1.941H40.592v2.205H42.8v2.205H40.592v2.205H42.8v1.1a1.1,1.1,0,0,1-1.1,1.1H28.463A1.1,1.1,0,0,1,27.361,32.95ZM8.615,36.258H61.543v2.205H8.615Zm8.821,4.411H52.722v2.205H17.437ZM14.7,45.08H55.462l9.452,13.232H5.245ZM65.954,64.928H4.2V60.517H65.954Z" fill="#fff"/>
    <rect id="Rectángulo_50174" data-name="Rectángulo 50174" width="2.205" height="2.205" transform="translate(30.669 29.642)" fill="#fff"/>
    <rect id="Rectángulo_50175" data-name="Rectángulo 50175" width="2.205" height="2.205" transform="translate(35.079 26.335)" fill="#fff"/>
    <path id="Trazado_209583" data-name="Trazado 209583" d="M48.977,44H18.1A1.1,1.1,0,0,0,17,45.1v6.616a1.1,1.1,0,0,0,1.1,1.1H48.977a1.1,1.1,0,0,0,1.1-1.1V45.1A1.1,1.1,0,0,0,48.977,44Zm-1.1,6.616H19.205V46.205H47.874Z" transform="translate(1.539 3.285)" fill="#fff"/>
    <rect id="Rectángulo_50176" data-name="Rectángulo 50176" width="2.205" height="2.205" transform="translate(33.977 50.593)" fill="#fff"/>
    <rect id="Rectángulo_50177" data-name="Rectángulo 50177" width="2.205" height="2.205" transform="translate(38.387 50.593)" fill="#fff"/>
    <rect id="Rectángulo_50178" data-name="Rectángulo 50178" width="2.205" height="2.205" transform="translate(29.566 50.593)" fill="#fff"/>
  </g>
</svg>
