<svg xmlns="http://www.w3.org/2000/svg" xmlns:xlink="http://www.w3.org/1999/xlink" width="400.574" height="383.547" viewBox="0 0 400.574 383.547">
  <defs>
    <clipPath id="clip-path">
      <circle id="Elipse_5637" data-name="Elipse 5637" cx="142.17" cy="142.17" r="142.17" transform="translate(0 282.311) rotate(-83.152)" fill="#7e5ee3"/>
    </clipPath>
    <radialGradient id="radial-gradient" cx="0.5" cy="0.5" r="0.805" gradientTransform="matrix(0.619, 0.12, -0.046, 0.609, -6.007, -19.128)" gradientUnits="objectBoundingBox">
      <stop offset="0" stop-color="#e8a680"/>
      <stop offset="1" stop-color="#fff"/>
    </radialGradient>
    <radialGradient id="radial-gradient-2" cx="0.5" cy="0.5" r="0.624" gradientTransform="matrix(0.748, -0.462, 0.287, 0.655, 35.619, -24.692)" xlink:href="#radial-gradient"/>
    <radialGradient id="radial-gradient-3" cx="0.5" cy="0.5" r="0.962" gradientTransform="matrix(0.519, -0.12, 0.032, 0.505, 10.692, -91.732)" xlink:href="#radial-gradient"/>
    <radialGradient id="radial-gradient-4" cx="0.5" cy="0.5" r="0.962" gradientTransform="matrix(-0.519, -0.12, -0.032, 0.505, 261.981, -34.998)" xlink:href="#radial-gradient"/>
    <linearGradient id="linear-gradient" x1="0.5" y1="0.778" x2="0.5" y2="-0.222" gradientUnits="objectBoundingBox">
      <stop offset="0" stop-color="#f2bb99"/>
      <stop offset="1" stop-color="#e8a680"/>
    </linearGradient>
  </defs>
  <g id="Grupo_1033692" data-name="Grupo 1033692" transform="translate(-564 -3454.298)">
    <g id="Grupo_1033686" data-name="Grupo 1033686" transform="translate(613.445 3469.789)">
      <g id="Grupo_1033685" data-name="Grupo 1033685" transform="translate(0 0)" clip-path="url(#clip-path)">
        <circle id="Elipse_5633" data-name="Elipse 5633" cx="142.169" cy="142.169" r="142.169" transform="translate(15.937 16.437)" fill="#7e5ee3" opacity="0.3"/>
        <g id="Grupo_1033684" data-name="Grupo 1033684" transform="translate(-61.071 84.144)">
          <g id="Grupo_1033677" data-name="Grupo 1033677" transform="translate(143.992)">
            <path id="Trazado_734761" data-name="Trazado 734761" d="M220.691,222.864c-39.679-18.684-62.938-15.2-103.851,2.186l-17.5-22.981,16.454-63.937,105.326-13.626,10.153,9.721Z" transform="translate(-94.056 -49.476)" fill="#4d2f0e"/>
            <g id="Grupo_1033653" data-name="Grupo 1033653" transform="translate(16.886 83.875)">
              <path id="Trazado_734762" data-name="Trazado 734762" d="M113.725,134.1c-1.243-4.494-3.5-7.237-6.439-6.708s-5.49,7.917-3.586,13.153,4.362,5.881,3.8,9.567,5.593,10.075,7.237,4.344S113.725,134.1,113.725,134.1Z" transform="translate(-103.042 -127.33)" fill="#f2bb99"/>
              <path id="Trazado_734763" data-name="Trazado 734763" d="M113.725,134.1c-1.243-4.494-3.5-7.237-6.439-6.708s-5.49,7.917-3.586,13.153,4.362,5.881,3.8,9.567,5.593,10.075,7.237,4.344S113.725,134.1,113.725,134.1Z" transform="translate(-103.042 -127.33)" fill="#e8a680" opacity="0.5"/>
              <path id="Trazado_734764" data-name="Trazado 734764" d="M106.887,127.4c2.53-.454,4.547,1.506,5.853,4.914l-1.037,9.746c.144-4.168-2.762-17.19-8.471-9.693l0,.006C103.987,129.722,105.384,127.668,106.887,127.4Z" transform="translate(-102.643 -127.33)" fill="#f2bb99"/>
            </g>
            <g id="Grupo_1033654" data-name="Grupo 1033654" transform="translate(119.4 81.979)">
              <path id="Trazado_734765" data-name="Trazado 734765" d="M135.908,134.191c.67-4.613,2.559-7.619,5.546-7.46s6.439,7.165,5.208,12.6-3.592,6.386-2.571,9.971-4.29,10.7-6.639,5.217S135.908,134.191,135.908,134.191Z" transform="translate(-135.776 -126.725)" fill="#f2bb99"/>
              <path id="Trazado_734766" data-name="Trazado 734766" d="M135.908,134.191c.67-4.613,2.559-7.619,5.546-7.46s6.439,7.165,5.208,12.6-3.592,6.386-2.571,9.971-4.29,10.7-6.639,5.217S135.908,134.191,135.908,134.191Z" transform="translate(-135.776 -126.725)" fill="#e8a680" opacity="0.5"/>
              <path id="Trazado_734767" data-name="Trazado 734767" d="M141.121,126.731c-2.568-.138-4.322,2.061-5.189,5.606l2.252,9.542c-.67-4.121.582-17.4,7.184-10.679l.006,0C144.294,128.676,142.65,126.809,141.121,126.731Z" transform="translate(-135.443 -126.725)" fill="#f2bb99"/>
            </g>
            <path id="Trazado_734768" data-name="Trazado 734768" d="M167.863,107.07c17.293,3.132,32.273,17.055,37.161,30.763s3.627,24.835,2.424,35.461,4.325,25.254-.961,36.41c-6.946,14.66-30.622,34.759-34.59,37.731s-10.582,5.462-23.569-.36-32.285-22.736-36.143-36.425c-2.966-10.526.611-21.509-2.6-32.279s-11.7-34.217.066-50.061S141.713,102.338,167.863,107.07Z" transform="translate(-84.941 -89.141)" fill="#f2bb99"/>
            <path id="Trazado_734769" data-name="Trazado 734769" d="M200.4,136.658c-1.873,15.465-23.817,25.527-49.008,22.476s-44.1-18.064-42.231-33.528,23.817-25.527,49.012-22.476S202.27,121.191,200.4,136.658Z" transform="translate(-73.39 -96.206)" opacity="0.3" fill="url(#radial-gradient)" style="mix-blend-mode: multiply;isolation: isolate"/>
            <path id="Trazado_734770" data-name="Trazado 734770" d="M159.158,117.262c5.725,10.989-1.7,26.181-16.589,33.932s-31.59,5.127-37.315-5.863,1.7-26.184,16.592-33.932S153.436,106.273,159.158,117.262Z" transform="translate(-85.556 -86.913)" opacity="0.3" fill="url(#radial-gradient-2)" style="mix-blend-mode: multiply;isolation: isolate"/>
            <path id="Trazado_734771" data-name="Trazado 734771" d="M167.92,138.489c.739,6.094-8.368,12.211-20.344,13.664s-22.279-2.317-23.018-8.412,8.371-12.211,20.344-13.661S167.184,132.395,167.92,138.489Z" transform="translate(-40.38 -38.255)" opacity="0.3" fill="url(#radial-gradient-3)" style="mix-blend-mode: multiply;isolation: isolate"/>
            <path id="Trazado_734772" data-name="Trazado 734772" d="M103.925,138.489c-.736,6.094,8.371,12.211,20.347,13.664s22.279-2.317,23.018-8.412-8.371-12.211-20.347-13.661S104.664,132.395,103.925,138.489Z" transform="translate(-84.361 -38.255)" opacity="0.3" fill="url(#radial-gradient-4)" style="mix-blend-mode: multiply;isolation: isolate"/>
            <path id="Trazado_734773" data-name="Trazado 734773" d="M125.406,136.124c.842,7.685,30.293,22.862,41.185,27.017,0,0,6.361-14.916,2.045-27.6-6.718-19.742-29.942-46.5-43.929-26.864Z" transform="translate(-39.97 -97.845)" fill="#593515"/>
            <path id="Trazado_734774" data-name="Trazado 734774" d="M178.433,138.827c-2.521,13.636-62.666,7.488-63.7,50.377,0,0-17.672,3.172-14.522-24.572s19.674-50.48,45.122-60.756c18.192-7.344,36.006-1.347,38.317,6.486S178.433,138.827,178.433,138.827Z" transform="translate(-92.997 -100.548)" fill="#593515"/>
            <path id="Trazado_734775" data-name="Trazado 734775" d="M104.862,121.011c-1.522,8.575-4.964,76.417-7.212,106.745,0,0,11.309,12.984,30.055,6.2,0,0-9.94-78.647-5.03-103.053Z" transform="translate(-97.65 -56.927)" fill="#593515"/>
            <path id="Trazado_734776" data-name="Trazado 734776" d="M134.305,105.2c26.375,26.685,29.131,88.537,36.453,156.571,0,0-13.492,7.6-27.522,5.155,0,0,4.917-61.47-3.836-121.4Z" transform="translate(-19.511 -90.629)" fill="#593515"/>
            <g id="Grupo_1033655" data-name="Grupo 1033655" transform="translate(11.355 63.924)">
              <path id="Trazado_734777" data-name="Trazado 734777" d="M112.807,128.47c-1.084-.871-1.66-.157-2.747-1.03s-.51-1.591-1.594-2.462-1.66-.163-2.74-1.027h0l-1.556-1.25-1.885-1.528-.191-.153a.273.273,0,0,0-.382.041l-.376.467a.273.273,0,0,0,.041.382l.194.157,1.882,1.525,1.556,1.25h0l.013.009c1.084.874,1.66.157,2.747,1.03s.51,1.591,1.594,2.465,1.663.157,2.747,1.03c1.068.858.536,1.563,1.55,2.418l.009-.013c.012.016.012.038.028.05l.658.529c.2.323,1.45,2.267,2.346,1.152s-1.271-1.92-1.628-2.042l-.658-.529c-.016-.013-.038-.006-.056-.016l.013-.019C113.293,130.186,113.869,129.325,112.807,128.47Z" transform="translate(-101.276 -120.96)" fill="#47acd1"/>
              <path id="Trazado_734778" data-name="Trazado 734778" d="M116.853,132.837c-.9,1.115-2.148-.83-2.343-1.153l-.658-.529c-.016-.013-.016-.034-.028-.05l-.013.013c-1.012-.852-.482-1.56-1.547-2.418-1.087-.874-1.663-.157-2.747-1.03s-.51-1.588-1.6-2.465-1.66-.157-2.747-1.03l-.009-.009h0l-1.556-1.25-1.885-1.528-.191-.154a.272.272,0,0,1-.091-.135l-.106.132a.273.273,0,0,0,.041.382l.194.157,1.882,1.522,1.556,1.253h0l.009.009c1.084.874,1.66.157,2.747,1.03s.51,1.591,1.594,2.465,1.663.157,2.747,1.03c1.068.858.536,1.563,1.55,2.418l.009-.013c.012.016.012.038.028.05l.658.529c.2.323,1.45,2.267,2.346,1.152a.915.915,0,0,0,.21-.451Z" transform="translate(-101.276 -120.663)" fill="#47acd1" opacity="0.5" style="mix-blend-mode: multiply;isolation: isolate"/>
            </g>
            <g id="Grupo_1033656" data-name="Grupo 1033656" transform="translate(11.356 66.544)">
              <path id="Trazado_734779" data-name="Trazado 734779" d="M112.1,130.326c-1-.977-1.638-.319-2.634-1.293s-.354-1.632-1.353-2.606-1.635-.323-2.624-1.287l0,0-1.428-1.4-1.729-1.7-.175-.172a.275.275,0,0,0-.385,0l-.417.429a.272.272,0,0,0,0,.385l.175.172,1.729,1.7,1.428,1.4,0,0,.006.009c1,.977,1.641.319,2.634,1.293s.357,1.629,1.353,2.606,1.638.316,2.634,1.29c.977.958.382,1.61,1.309,2.555l.013-.013c.009.016.006.041.022.053l.6.592c.166.338,1.224,2.4,2.224,1.375s-1.077-2.036-1.422-2.192l-.6-.589c-.016-.016-.038-.013-.053-.022l.016-.019C112.419,132.077,113.076,131.278,112.1,130.326Z" transform="translate(-101.276 -121.796)" fill="#47acd1"/>
              <path id="Trazado_734780" data-name="Trazado 734780" d="M115.679,135.092c-1,1.024-2.058-1.037-2.22-1.375l-.6-.589c-.016-.016-.012-.038-.022-.056l-.013.013c-.927-.946-.329-1.6-1.309-2.555-1-.974-1.638-.316-2.634-1.29s-.354-1.632-1.353-2.606-1.638-.316-2.634-1.29l-.006-.012,0,0-1.428-1.4-1.729-1.7-.175-.172a.3.3,0,0,1-.078-.144l-.116.122a.272.272,0,0,0,0,.385l.175.172,1.729,1.7,1.428,1.4,0,0,.006.009c1,.977,1.641.319,2.634,1.293s.357,1.629,1.353,2.606,1.638.316,2.634,1.29c.977.958.382,1.61,1.309,2.555l.013-.013c.009.016.006.041.022.053l.6.592c.166.338,1.224,2.4,2.224,1.375a.924.924,0,0,0,.251-.429Z" transform="translate(-101.276 -121.533)" fill="#47acd1" opacity="0.5" style="mix-blend-mode: multiply;isolation: isolate"/>
            </g>
            <g id="Grupo_1033657" data-name="Grupo 1033657" transform="translate(118.235 53.059)">
              <path id="Trazado_734781" data-name="Trazado 734781" d="M139.51,125c1.084-.874,1.663-.16,2.747-1.03s.51-1.591,1.6-2.465,1.657-.163,2.74-1.027v0l1.556-1.253,1.882-1.525.194-.153a.27.27,0,0,1,.382.041l.373.463a.271.271,0,0,1-.041.385l-.191.153-1.885,1.525-1.556,1.253h0l-.009.006c-1.087.874-1.663.16-2.747,1.033s-.51,1.588-1.6,2.462-1.66.16-2.747,1.033c-1.065.858-.532,1.563-1.547,2.418l-.013-.016c-.013.016-.013.041-.028.053l-.658.526c-.194.323-1.447,2.271-2.342,1.156s1.271-1.92,1.628-2.045l.658-.526c.016-.016.038-.009.056-.019l-.016-.016C139.024,126.715,138.448,125.857,139.51,125Z" transform="translate(-135.404 -117.491)" fill="#47acd1"/>
              <path id="Trazado_734782" data-name="Trazado 734782" d="M135.459,129.37c.9,1.112,2.148-.833,2.346-1.156l.658-.526c.016-.016.016-.038.028-.053l.009.016c1.015-.855.482-1.56,1.55-2.418,1.084-.877,1.66-.16,2.746-1.033s.51-1.588,1.594-2.462,1.663-.16,2.747-1.033l.009-.009v0l1.556-1.253,1.885-1.525.191-.153a.273.273,0,0,0,.094-.138l.1.132a.271.271,0,0,1-.041.385l-.191.153-1.885,1.525-1.556,1.253h0l-.009.006c-1.087.874-1.663.16-2.747,1.033s-.51,1.588-1.6,2.462-1.66.16-2.747,1.033c-1.065.858-.532,1.563-1.547,2.418l-.013-.016c-.013.016-.013.041-.028.053l-.658.526c-.194.323-1.447,2.271-2.342,1.156a.926.926,0,0,1-.21-.451Z" transform="translate(-135.4 -117.195)" fill="#47acd1" opacity="0.5" style="mix-blend-mode: multiply;isolation: isolate"/>
            </g>
            <g id="Grupo_1033658" data-name="Grupo 1033658" transform="translate(119.391 55.678)">
              <path id="Trazado_734783" data-name="Trazado 734783" d="M139.428,126.856c1-.974,1.638-.319,2.637-1.293s.354-1.629,1.35-2.6,1.635-.323,2.628-1.287h0l1.428-1.4,1.729-1.7.179-.172a.269.269,0,0,1,.385,0l.416.426a.275.275,0,0,1,0,.385l-.178.172-1.729,1.7-1.428,1.4h0l-.009.009c-1,.974-1.638.316-2.634,1.29s-.354,1.632-1.35,2.606-1.638.316-2.637,1.29c-.977.958-.382,1.61-1.309,2.559l-.009-.013c-.013.016-.006.038-.022.053l-.6.589c-.166.338-1.221,2.4-2.224,1.375s1.08-2.033,1.425-2.192l.6-.589c.016-.016.038-.012.056-.022l-.016-.016C139.111,128.606,138.454,127.808,139.428,126.856Z" transform="translate(-135.773 -118.327)" fill="#47acd1"/>
              <path id="Trazado_734784" data-name="Trazado 734784" d="M135.839,131.62c1,1.024,2.058-1.033,2.224-1.372l.6-.592c.016-.016.012-.034.022-.053l.013.013c.927-.949.332-1.6,1.309-2.556,1-.974,1.638-.316,2.637-1.29s.354-1.632,1.35-2.606,1.638-.319,2.634-1.293l.009-.009h0l1.428-1.4,1.729-1.7.175-.172a.275.275,0,0,0,.078-.144l.119.119a.275.275,0,0,1,0,.385l-.179.172-1.729,1.7-1.428,1.4h0l-.009.009c-1,.974-1.638.316-2.634,1.29s-.354,1.632-1.35,2.606-1.638.316-2.637,1.29c-.977.958-.379,1.61-1.309,2.559l-.009-.013c-.009.016-.006.038-.022.053l-.6.589c-.166.338-1.221,2.4-2.224,1.375a.9.9,0,0,1-.25-.429Z" transform="translate(-135.76 -118.062)" fill="#47acd1" opacity="0.5" style="mix-blend-mode: multiply;isolation: isolate"/>
            </g>
            <g id="Grupo_1033662" data-name="Grupo 1033662" transform="translate(25.683 63.949)">
              <g id="Grupo_1033659" data-name="Grupo 1033659" transform="translate(40.649 51.455)">
                <path id="Trazado_734785" data-name="Trazado 734785" d="M119.176,138.115l-.025.282a5.77,5.77,0,0,0-.019.783,2.789,2.789,0,0,0,.3,1.1,2.159,2.159,0,0,0,1.018.911,3.374,3.374,0,0,0,1.616.263,3.577,3.577,0,0,0,.445-.05,3.388,3.388,0,0,1,.611-.034,3,3,0,0,1,1.3.417c.723.417,1.312.908,1.888,1.259a1.587,1.587,0,0,0,1.578.191,12.176,12.176,0,0,0,1.917-1.1,6.129,6.129,0,0,1,2.3-.961,9.7,9.7,0,0,1,2.208-.094,2.628,2.628,0,0,0,.817-.094,1.278,1.278,0,0,0,.608-.323,1.657,1.657,0,0,0,.438-1.209,3.186,3.186,0,0,0-.216-1.14,2.73,2.73,0,0,0-.52-.921l.225.175a2.687,2.687,0,0,1,.539.617,3.471,3.471,0,0,1,.5,1.212,2.148,2.148,0,0,1-.341,1.794,2.726,2.726,0,0,1-1.989.946,12.419,12.419,0,0,0-2,.263,5.368,5.368,0,0,0-1.8.877,13.058,13.058,0,0,1-2.108,1.256,2.98,2.98,0,0,1-1.531.207,3.765,3.765,0,0,1-1.331-.529c-.733-.463-1.265-1.015-1.8-1.353a2.464,2.464,0,0,0-.714-.326,2.029,2.029,0,0,0-.429-.028,4.431,4.431,0,0,1-.576,0,3.9,3.9,0,0,1-2.023-.617,2.557,2.557,0,0,1-1.1-1.412,3.176,3.176,0,0,1-.091-1.315A4.959,4.959,0,0,1,119.176,138.115Z" transform="translate(-118.831 -137.398)" fill="#e8a680"/>
              </g>
              <path id="Trazado_734786" data-name="Trazado 734786" d="M107.342,136.825s.075-.138.219-.388.36-.623.655-1.074a35.492,35.492,0,0,1,2.59-3.583c.592-.7,1.256-1.441,1.995-2.183a26.382,26.382,0,0,1,2.518-2.164c.473-.335.977-.648,1.469-.977.532-.279,1.068-.567,1.616-.83a12.35,12.35,0,0,1,3.586-.943l.936-.053a2.839,2.839,0,0,1,.5-.009l.442.047a8.65,8.65,0,0,1,1.782.288l.9.235.827.351a9.4,9.4,0,0,1,1.544.814,14.066,14.066,0,0,1,2.527,2.076,19.85,19.85,0,0,1,1.823,2.264,22.874,22.874,0,0,1,2.067,3.789,16.164,16.164,0,0,1,.582,1.525s-.2-.557-.664-1.488a22.621,22.621,0,0,0-2.258-3.63,19.888,19.888,0,0,0-1.9-2.111,13.821,13.821,0,0,0-2.527-1.848,8.771,8.771,0,0,0-1.488-.68l-.783-.282-.8-.16a7.932,7.932,0,0,0-1.7-.185l-.445-.019a3.505,3.505,0,0,0-.385.038l-.839.094a11.25,11.25,0,0,0-3.179,1.03c-.489.269-.961.561-1.431.836q-.658.493-1.3.974a24.732,24.732,0,0,0-2.227,2.148c-.661.736-1.243,1.466-1.763,2.158a34.8,34.8,0,0,0-2.258,3.52c-.247.435-.426.789-.542,1.018l-.179.363Z" transform="translate(-102.673 -113.202)" fill="#e8a680"/>
              <path id="Trazado_734787" data-name="Trazado 734787" d="M152.547,137.316s-.219-.489-.7-1.362a30.863,30.863,0,0,0-2.227-3.451,22.249,22.249,0,0,0-3.977-4.178,12.065,12.065,0,0,0-5.9-2.64,10.608,10.608,0,0,0-1.682-.069,10,10,0,0,0-1.629.21,10.623,10.623,0,0,0-3.032,1.181,15.1,15.1,0,0,0-4.325,3.949,22.553,22.553,0,0,0-2.214,3.589,15.911,15.911,0,0,0-.654,1.466s.169-.561.573-1.506a22.425,22.425,0,0,1,2.029-3.739,15.484,15.484,0,0,1,4.244-4.325,11.351,11.351,0,0,1,3.172-1.447,11.816,11.816,0,0,1,1.8-.332,11.669,11.669,0,0,1,1.816-.025,13.353,13.353,0,0,1,6.658,2.521,23.888,23.888,0,0,1,4.525,4.228,33.556,33.556,0,0,1,2.574,3.529c.564.889.855,1.456.855,1.456Z" transform="translate(-62.453 -113.201)" fill="#e8a680"/>
              <path id="Trazado_734788" data-name="Trazado 734788" d="M125.842,137.1l.373-.144a5.329,5.329,0,0,1,1.106-.269,16.281,16.281,0,0,1,1.763-.128c.68-.022,1.444-.022,2.274-.013,1.657.038,3.576.088,5.6.066,1.005-.019,2.045-.031,3.072-.122a14.647,14.647,0,0,0,1.535-.172,10.835,10.835,0,0,0,1.484-.3,9.149,9.149,0,0,0,2.568-1.124c.946-.62,1.638-1.118,2.468-1.719,1.578-1.168,3.107-2.349,4.55-3.273a20.949,20.949,0,0,1,2.048-1.156,11.2,11.2,0,0,1,1.726-.611,7.019,7.019,0,0,1,1.152-.185l.4-.025-.348.207a8.8,8.8,0,0,0-.94.6,18.042,18.042,0,0,0-2.834,2.624,42.967,42.967,0,0,1-3.974,4.071,16.47,16.47,0,0,1-2.734,1.91,11.382,11.382,0,0,1-3.536,1.174,13.222,13.222,0,0,1-1.76.229,15.939,15.939,0,0,1-1.719.069,25.691,25.691,0,0,1-3.27-.188c-2.092-.241-3.993-.645-5.612-.94-1.616-.329-2.956-.554-3.905-.651a4.861,4.861,0,0,0-1.1.016Z" transform="translate(-63.236 -106.148)" fill="#4d2f0e"/>
              <path id="Trazado_734789" data-name="Trazado 734789" d="M128.779,139.441s.316.279.786.7,1.08.943,1.719,1.428a14.947,14.947,0,0,0,1.841,1.218c.272.138.5.276.67.341s.263.135.263.135-.11.006-.294,0a3.142,3.142,0,0,1-.78-.1,5.119,5.119,0,0,1-1.049-.363,6.458,6.458,0,0,1-1.084-.664,6.939,6.939,0,0,1-1.591-1.735A4.437,4.437,0,0,1,128.779,139.441Z" transform="translate(-56.975 -81.588)" fill="#e8a680"/>
              <path id="Trazado_734790" data-name="Trazado 734790" d="M117.787,139.685a4.572,4.572,0,0,1-.263,1.037,6.912,6.912,0,0,1-1.174,2.039,6.406,6.406,0,0,1-.918.883,5.246,5.246,0,0,1-.943.586,3.47,3.47,0,0,1-.736.266c-.182.047-.288.066-.288.066a2.942,2.942,0,0,1,.229-.191c.153-.1.341-.285.576-.479A15.069,15.069,0,0,0,115.8,142.3c.52-.611,1-1.265,1.369-1.766Z" transform="translate(-89.62 -81.068)" fill="#e8a680"/>
              <path id="Trazado_734791" data-name="Trazado 734791" d="M114.868,141.622c1.842,2.39,7.641,3.492,14.506,3.335,3.27-.072,5.434.435,7.375.435s4.46-.908,7.05-.99c7.98-.247,13.57-2.036,15.9-3.742,0,0-11.359,9.821-24.437,9.993A26.921,26.921,0,0,1,114.868,141.622Z" transform="translate(-86.629 -78.987)" fill="#e49084"/>
              <path id="Trazado_734792" data-name="Trazado 734792" d="M114.868,141.622c0,1.419,7.967,12.734,16.075,15.383,7.951,2.6,12.69-.247,15.978-2.327,4.469-2.831,12.774-14.018,12.774-14.018s-15.941,9.652-24.061,8.7S119.688,146.267,114.868,141.622Z" transform="translate(-86.629 -78.987)" fill="#e49084"/>
              <path id="Trazado_734793" data-name="Trazado 734793" d="M138.4,137.1l-.395-.056a4.856,4.856,0,0,0-1.1-.016c-.949.1-2.286.323-3.905.651-1.622.294-3.517.7-5.609.94a25.741,25.741,0,0,1-3.273.188,15.971,15.971,0,0,1-1.719-.069,13.178,13.178,0,0,1-1.757-.229,11.3,11.3,0,0,1-3.536-1.174,16.492,16.492,0,0,1-2.737-1.91,43.348,43.348,0,0,1-3.974-4.071,17.77,17.77,0,0,0-2.837-2.624,9.568,9.568,0,0,0-.93-.6l-.354-.207.407.025a6.992,6.992,0,0,1,1.149.185,10.975,10.975,0,0,1,1.726.611,20.974,20.974,0,0,1,2.051,1.156c1.444.924,2.972,2.1,4.547,3.273.833.6,1.522,1.1,2.468,1.719a9.109,9.109,0,0,0,2.568,1.124,10.878,10.878,0,0,0,1.488.3,14.554,14.554,0,0,0,1.535.172c1.027.091,2.061.1,3.072.122,2.02.022,3.943-.028,5.6-.066.827-.009,1.591-.009,2.274.013a16.033,16.033,0,0,1,1.757.128,5.41,5.41,0,0,1,1.112.269Z" transform="translate(-104.939 -106.148)" fill="#4d2f0e"/>
              <path id="Trazado_734794" data-name="Trazado 734794" d="M114.868,141.622a13.811,13.811,0,0,0,1.466,1.569,22.451,22.451,0,0,0,4.538,3.273,26.465,26.465,0,0,0,7.363,2.7,32.739,32.739,0,0,0,4.388.623,36.287,36.287,0,0,0,4.557.056l2.336-.179q1.118-.169,2.224-.335c.739-.166,1.469-.326,2.192-.489l2.108-.608c.683-.241,1.35-.479,2-.708.645-.263,1.278-.52,1.892-.774.6-.282,1.184-.557,1.751-.827q.827-.446,1.6-.855c1-.592,1.92-1.14,2.718-1.654s1.469-1.005,2.011-1.416c1.1-.82,1.685-1.344,1.685-1.344a18.254,18.254,0,0,1-1.5,1.556c-.507.47-1.134,1.021-1.879,1.632a32.024,32.024,0,0,1-2.612,1.91l-1.578.977q-.846.465-1.738.961-.925.446-1.895.914-1,.4-2.045.814-1.066.343-2.17.7l-2.271.551-2.377.385-2.339.2a37.309,37.309,0,0,1-4.785-.107,29.552,29.552,0,0,1-4.55-.777,25.4,25.4,0,0,1-7.488-3.235,19.921,19.921,0,0,1-4.331-3.764A10.986,10.986,0,0,1,114.868,141.622Z" transform="translate(-86.629 -78.987)" fill="#d97f73"/>
              <g id="Grupo_1033661" data-name="Grupo 1033661" transform="translate(52.958 23.557)">
                <g id="Grupo_1033660" data-name="Grupo 1033660">
                  <path id="Trazado_734795" data-name="Trazado 734795" d="M124.877,128.49s-.072.307-.2.849-.247,1.312-.37,2.249-.235,2.029-.338,3.2-.2,2.427-.257,3.686c-.085,1.256-.11,2.508-.157,3.689-.019,1.178-.038,2.28-.022,3.226s.025,1.732.063,2.283.053.874.053.874-.088-.307-.219-.849c-.075-.269-.125-.6-.2-.983s-.141-.817-.2-1.29a39.837,39.837,0,0,1-.194-7c.075-1.271.194-2.54.363-3.724a31.593,31.593,0,0,1,.617-3.21,18.35,18.35,0,0,1,.7-2.211C124.736,128.775,124.877,128.49,124.877,128.49Z" transform="translate(-122.761 -128.49)" fill="#e8a680"/>
                </g>
              </g>
              <path id="Trazado_734796" data-name="Trazado 734796" d="M126.131,123.236c-.476.194-1.578.395-1.744,1.66-.282,2.148-.138,4.554,1.569,4.19,1.434-.31,15.148-4.081,20.237-2.637,5.668,1.6,15.574,6.3,15.574,6.3s-8.675-9.207-16.723-11.177C138.219,119.9,128.981,122.09,126.131,123.236Z" transform="translate(-66.581 -120.968)" fill="#4d2f0e"/>
              <path id="Trazado_734797" data-name="Trazado 734797" d="M141.484,123.236c.476.194,1.578.395,1.744,1.66.282,2.148.138,4.554-1.569,4.19-1.434-.31-15.148-4.081-20.237-2.637-5.672,1.6-15.571,6.3-15.571,6.3s8.672-9.207,16.72-11.177C129.4,119.9,138.634,122.09,141.484,123.236Z" transform="translate(-105.851 -120.968)" fill="#4d2f0e"/>
            </g>
            <g id="Grupo_1033676" data-name="Grupo 1033676" transform="translate(38.251 68.794)">
              <g id="Grupo_1033663" data-name="Grupo 1033663" transform="translate(24.863 5.086)">
                <path id="Trazado_734798" data-name="Trazado 734798" d="M124.279,127.377a3.238,3.238,0,1,1-3.241-3.238A3.239,3.239,0,0,1,124.279,127.377Z" transform="translate(-117.803 -124.139)" fill="#e69381" opacity="0.3"/>
                <path id="Trazado_734799" data-name="Trazado 734799" d="M121.279,126.162a1.453,1.453,0,1,1-1.456-1.453A1.455,1.455,0,0,1,121.279,126.162Z" transform="translate(-116.588 -122.924)" fill="#e69381" opacity="0.7"/>
              </g>
              <g id="Grupo_1033664" data-name="Grupo 1033664" transform="translate(57.251 44.978)">
                <path id="Trazado_734800" data-name="Trazado 734800" d="M133.5,139.555a2.679,2.679,0,1,1-2.678-2.678A2.677,2.677,0,0,1,133.5,139.555Z" transform="translate(-128.145 -136.877)" fill="#e69381" opacity="0.3"/>
                <path id="Trazado_734801" data-name="Trazado 734801" d="M131.022,138.551a1.2,1.2,0,1,1-1.2-1.2A1.2,1.2,0,0,1,131.022,138.551Z" transform="translate(-127.139 -135.873)" fill="#e69381" opacity="0.7"/>
              </g>
              <g id="Grupo_1033665" data-name="Grupo 1033665" transform="translate(39.905 79.418)">
                <path id="Trazado_734802" data-name="Trazado 734802" d="M127.964,150.555a2.679,2.679,0,1,1-2.678-2.681A2.677,2.677,0,0,1,127.964,150.555Z" transform="translate(-122.606 -147.874)" fill="#e69381" opacity="0.3"/>
                <path id="Trazado_734803" data-name="Trazado 734803" d="M125.483,149.549a1.2,1.2,0,1,1-1.2-1.2A1.2,1.2,0,0,1,125.483,149.549Z" transform="translate(-121.6 -146.868)" fill="#e69381" opacity="0.7"/>
              </g>
              <g id="Grupo_1033666" data-name="Grupo 1033666" transform="translate(51.401 48.185)">
                <path id="Trazado_734804" data-name="Trazado 734804" d="M130.583,140.052a2.153,2.153,0,1,1-2.155-2.151A2.154,2.154,0,0,1,130.583,140.052Z" transform="translate(-126.277 -137.901)" fill="#e69381" opacity="0.3"/>
                <path id="Trazado_734805" data-name="Trazado 734805" d="M128.588,139.247a.966.966,0,1,1-.968-.968A.966.966,0,0,1,128.588,139.247Z" transform="translate(-125.469 -137.095)" fill="#e69381" opacity="0.7"/>
              </g>
              <g id="Grupo_1033667" data-name="Grupo 1033667" transform="translate(78.318 8.324)">
                <path id="Trazado_734806" data-name="Trazado 734806" d="M138.326,126.9a1.727,1.727,0,1,1-1.729-1.729A1.728,1.728,0,0,1,138.326,126.9Z" transform="translate(-134.872 -125.173)" fill="#e69381" opacity="0.3"/>
                <path id="Trazado_734807" data-name="Trazado 734807" d="M136.726,126.254a.775.775,0,1,1-.777-.777A.776.776,0,0,1,136.726,126.254Z" transform="translate(-134.224 -124.525)" fill="#e69381" opacity="0.7"/>
              </g>
              <g id="Grupo_1033668" data-name="Grupo 1033668" transform="translate(70.639 37.496)">
                <path id="Trazado_734808" data-name="Trazado 734808" d="M135.874,136.217a1.727,1.727,0,1,1-1.729-1.729A1.728,1.728,0,0,1,135.874,136.217Z" transform="translate(-132.42 -134.488)" fill="#e69381" opacity="0.3"/>
                <path id="Trazado_734809" data-name="Trazado 734809" d="M134.274,135.569a.775.775,0,1,1-.777-.777A.776.776,0,0,1,134.274,135.569Z" transform="translate(-131.772 -133.84)" fill="#e69381" opacity="0.7"/>
              </g>
              <g id="Grupo_1033669" data-name="Grupo 1033669" transform="translate(36.56)">
                <path id="Trazado_734810" data-name="Trazado 734810" d="M124.992,124.241a1.727,1.727,0,1,1-1.729-1.726A1.728,1.728,0,0,1,124.992,124.241Z" transform="translate(-121.538 -122.515)" fill="#e69381" opacity="0.3"/>
                <path id="Trazado_734811" data-name="Trazado 734811" d="M123.394,123.593a.777.777,0,1,1-.777-.774A.777.777,0,0,1,123.394,123.593Z" transform="translate(-120.892 -121.867)" fill="#e69381" opacity="0.7"/>
              </g>
              <g id="Grupo_1033670" data-name="Grupo 1033670" transform="translate(28.903 77.964)">
                <path id="Trazado_734812" data-name="Trazado 734812" d="M122.547,149.139a1.727,1.727,0,1,1-1.726-1.729A1.726,1.726,0,0,1,122.547,149.139Z" transform="translate(-119.093 -147.41)" fill="#e69381" opacity="0.3"/>
                <path id="Trazado_734813" data-name="Trazado 734813" d="M120.95,148.491a.777.777,0,1,1-.777-.777A.776.776,0,0,1,120.95,148.491Z" transform="translate(-118.445 -146.762)" fill="#e69381" opacity="0.7"/>
              </g>
              <g id="Grupo_1033671" data-name="Grupo 1033671" transform="translate(41.633 13.645)">
                <path id="Trazado_734814" data-name="Trazado 734814" d="M126.612,128.6a1.727,1.727,0,1,1-1.729-1.729A1.728,1.728,0,0,1,126.612,128.6Z" transform="translate(-123.158 -126.872)" fill="#e69381" opacity="0.3"/>
                <path id="Trazado_734815" data-name="Trazado 734815" d="M125.012,127.953a.775.775,0,1,1-.777-.777A.776.776,0,0,1,125.012,127.953Z" transform="translate(-122.51 -126.224)" fill="#e69381" opacity="0.7"/>
              </g>
              <g id="Grupo_1033672" data-name="Grupo 1033672" transform="translate(36.184 39.419)">
                <path id="Trazado_734816" data-name="Trazado 734816" d="M127.171,137.98A2.876,2.876,0,1,1,124.3,135.1,2.878,2.878,0,0,1,127.171,137.98Z" transform="translate(-121.418 -135.102)" fill="#e69381" opacity="0.3"/>
                <path id="Trazado_734817" data-name="Trazado 734817" d="M124.508,136.9a1.292,1.292,0,1,1-1.29-1.293A1.292,1.292,0,0,1,124.508,136.9Z" transform="translate(-120.339 -134.023)" fill="#e69381" opacity="0.7"/>
              </g>
              <g id="Grupo_1033673" data-name="Grupo 1033673" transform="translate(30.631 21.354)">
                <circle id="Elipse_5634" data-name="Elipse 5634" cx="1.59" cy="1.59" r="1.59" fill="#e69381" opacity="0.3"/>
                <path id="Trazado_734818" data-name="Trazado 734818" d="M121.353,130.327a.714.714,0,1,1-.714-.714A.714.714,0,0,1,121.353,130.327Z" transform="translate(-119.048 -128.738)" fill="#e69381" opacity="0.7"/>
              </g>
              <g id="Grupo_1033674" data-name="Grupo 1033674" transform="translate(0 37.675)">
                <path id="Trazado_734819" data-name="Trazado 734819" d="M113.046,136.136a1.591,1.591,0,1,1-1.591-1.591A1.593,1.593,0,0,1,113.046,136.136Z" transform="translate(-109.864 -134.545)" fill="#e69381" opacity="0.3"/>
                <path id="Trazado_734820" data-name="Trazado 734820" d="M111.572,135.539a.714.714,0,1,1-.714-.714A.714.714,0,0,1,111.572,135.539Z" transform="translate(-109.267 -133.948)" fill="#e69381" opacity="0.7"/>
              </g>
              <g id="Grupo_1033675" data-name="Grupo 1033675" transform="translate(31.345 45.363)">
                <path id="Trazado_734821" data-name="Trazado 734821" d="M123.055,138.591A1.591,1.591,0,1,1,121.464,137,1.593,1.593,0,0,1,123.055,138.591Z" transform="translate(-119.873 -137)" fill="#e69381" opacity="0.3"/>
                <path id="Trazado_734822" data-name="Trazado 734822" d="M121.581,137.994a.714.714,0,1,1-.714-.714A.714.714,0,0,1,121.581,137.994Z" transform="translate(-119.276 -136.403)" fill="#e69381" opacity="0.7"/>
              </g>
            </g>
          </g>
          <path id="Trazado_734823" data-name="Trazado 734823" d="M145.2,174.483s-.132-.745-.4-2.017c-.254-1.265-.626-3.1-.993-5.289-.385-2.192-.783-4.757-1.149-7.51-.169-1.375-.388-2.8-.536-4.243s-.316-2.922-.479-4.391c-.128-1.475-.257-2.95-.385-4.4s-.2-2.884-.3-4.269c-.175-2.772-.279-5.368-.316-7.594-.1-4.453.085-7.45.085-7.45s.789,2.9,1.578,7.284c.41,2.189.824,4.751,1.2,7.507.172,1.378.4,2.8.545,4.247.16,1.45.323,2.922.482,4.394.128,1.478.254,2.953.379,4.406s.194,2.887.285,4.272c.16,2.778.251,5.374.263,7.6.028,2.23-.022,4.087-.088,5.405S145.2,174.483,145.2,174.483Z" transform="translate(137.93 -43.486)" fill="#6e431e"/>
          <path id="Trazado_734824" data-name="Trazado 734824" d="M144.815,194.07s-.144-.955-.438-2.584c-.273-1.619-.67-3.968-1.074-6.771-.42-2.809-.855-6.091-1.265-9.611-.191-1.763-.435-3.58-.6-5.434-.182-1.854-.363-3.736-.548-5.621-.153-1.885-.3-3.771-.454-5.628s-.244-3.689-.366-5.459c-.216-3.545-.36-6.859-.429-9.705-.172-5.693-.031-9.517-.031-9.517s.833,3.711,1.691,9.326c.442,2.806.9,6.088,1.318,9.611.194,1.763.445,3.58.614,5.437s.366,3.736.548,5.618c.15,1.888.3,3.777.448,5.634s.238,3.692.351,5.465c.207,3.548.335,6.865.379,9.718.066,2.85.044,5.224,0,6.905S144.815,194.07,144.815,194.07Z" transform="translate(135.667 -29.792)" fill="#6e431e"/>
          <g id="Grupo_1033678" data-name="Grupo 1033678" transform="translate(167.069 92.069)">
            <path id="Trazado_734825" data-name="Trazado 734825" d="M117.42,142.269a3.118,3.118,0,1,1-3.116-3.119A3.117,3.117,0,0,1,117.42,142.269Z" transform="translate(-91.875 -110.328)" fill="#faf1e3"/>
            <path id="Trazado_734826" data-name="Trazado 734826" d="M116.679,140.533a2.036,2.036,0,1,1-2.036-2.032A2.036,2.036,0,0,1,116.679,140.533Z" transform="translate(-88.841 -111.711)" fill="#faf1e3"/>
            <path id="Trazado_734827" data-name="Trazado 734827" d="M118.99,138.7a1.942,1.942,0,0,1,.094.608,2.035,2.035,0,0,1-2.032,2.036,1.93,1.93,0,0,1-.47-.056,3.119,3.119,0,0,1-5.324,3.107,3.119,3.119,0,0,0,5.794-2.311,1.929,1.929,0,0,0,.47.056,2.036,2.036,0,0,0,2.036-2.036A2.014,2.014,0,0,0,118.99,138.7Z" transform="translate(-91.719 -111.283)" fill="#f2e9d8"/>
            <path id="Trazado_734828" data-name="Trazado 734828" d="M113.084,143.454a2.978,2.978,0,1,1-2.978-2.978A2.98,2.98,0,0,1,113.084,143.454Z" transform="translate(-100.525 -107.501)" fill="#faf1e3"/>
            <path id="Trazado_734829" data-name="Trazado 734829" d="M116.452,143.462a4.187,4.187,0,1,1-4.187-4.187A4.189,4.189,0,0,1,116.452,143.462Z" transform="translate(-98.498 -110.062)" fill="#faf1e3"/>
            <path id="Trazado_734830" data-name="Trazado 734830" d="M116.627,143.635a3.244,3.244,0,1,1-3.244-3.244A3.245,3.245,0,0,1,116.627,143.635Z" transform="translate(-94.107 -107.683)" fill="#faf1e3"/>
            <path id="Trazado_734831" data-name="Trazado 734831" d="M119.8,144.006a3.245,3.245,0,0,1-3.122-2.358,4.186,4.186,0,0,1-3.915.46,2.979,2.979,0,0,1-5.593-.842,2.694,2.694,0,0,0-.044.5,2.979,2.979,0,0,0,5.637,1.347,4.185,4.185,0,0,0,3.915-.46,3.245,3.245,0,0,0,6.367-.886,3.012,3.012,0,0,0-.041-.5A3.243,3.243,0,0,1,119.8,144.006Z" transform="translate(-100.525 -105.817)" fill="#f2e9d8"/>
            <path id="Trazado_734832" data-name="Trazado 734832" d="M135.85,142.469a2.15,2.15,0,1,1-2.148-2.148A2.148,2.148,0,0,1,135.85,142.469Z" transform="translate(-48.462 -107.832)" fill="#faf1e3"/>
            <path id="Trazado_734833" data-name="Trazado 734833" d="M133.7,142.588a2.151,2.151,0,0,1-2.108-1.719,2.174,2.174,0,0,0-.044.432,2.15,2.15,0,0,0,4.3,0,2.175,2.175,0,0,0-.044-.432A2.15,2.15,0,0,1,133.7,142.588Z" transform="translate(-48.462 -106.664)" fill="#f2e9d8"/>
            <path id="Trazado_734834" data-name="Trazado 734834" d="M143.279,142.4a3.459,3.459,0,1,1-3.461-3.457A3.458,3.458,0,0,1,143.279,142.4Z" transform="translate(-38.206 -110.776)" fill="#faf1e3"/>
            <circle id="Elipse_5635" data-name="Elipse 5635" cx="6.473" cy="6.473" r="6.473" transform="translate(80.521 21.691)" fill="#faf1e3"/>
            <path id="Trazado_734835" data-name="Trazado 734835" d="M140.14,139.519a5.1,5.1,0,1,1-5.1-5.1A5.1,5.1,0,0,1,140.14,139.519Z" transform="translate(-51.888 -120.417)" fill="#faf1e3"/>
            <path id="Trazado_734836" data-name="Trazado 734836" d="M135.558,137.308a4.679,4.679,0,1,1-4.679-4.682A4.679,4.679,0,0,1,135.558,137.308Z" transform="translate(-59.867 -124.235)" fill="#faf1e3"/>
            <circle id="Elipse_5636" data-name="Elipse 5636" cx="6.416" cy="6.416" r="6.416" transform="translate(70.449 5.679)" fill="#faf1e3"/>
            <path id="Trazado_734837" data-name="Trazado 734837" d="M122.074,142.206a4.2,4.2,0,1,1,.288-5.938A4.2,4.2,0,0,1,122.074,142.206Z" transform="translate(-83.651 -119.413)" fill="#faf1e3"/>
            <path id="Trazado_734838" data-name="Trazado 734838" d="M118.865,141.976a2.444,2.444,0,1,1,.169-3.451A2.449,2.449,0,0,1,118.865,141.976Z" transform="translate(-84.215 -113.376)" fill="#faf1e3"/>
            <path id="Trazado_734839" data-name="Trazado 734839" d="M115.338,144.674a3.524,3.524,0,1,1,.244-4.976A3.523,3.523,0,0,1,115.338,144.674Z" transform="translate(-95.58 -111.63)" fill="#faf1e3"/>
            <path id="Trazado_734840" data-name="Trazado 734840" d="M142.845,142.079a4.352,4.352,0,1,0-4.353,4.353A4.351,4.351,0,0,0,142.845,142.079Z" transform="translate(-42.937 -113.357)" fill="#faf1e3"/>
            <path id="Trazado_734841" data-name="Trazado 734841" d="M114.854,140.574a4.816,4.816,0,1,1,.332-6.8A4.814,4.814,0,0,1,114.854,140.574Z" transform="translate(-101.215 -125.165)" fill="#faf1e3"/>
            <path id="Trazado_734842" data-name="Trazado 734842" d="M118.97,145.34a5.372,5.372,0,1,1,.373-7.588A5.373,5.373,0,0,1,118.97,145.34Z" transform="translate(-94.421 -117.069)" fill="#faf1e3"/>
            <path id="Trazado_734843" data-name="Trazado 734843" d="M116.76,139.412a4.585,4.585,0,1,1,.316-6.476A4.588,4.588,0,0,1,116.76,139.412Z" transform="translate(-96.329 -126.784)" fill="#faf1e3"/>
            <path id="Trazado_734844" data-name="Trazado 734844" d="M110.6,135.045a3.607,3.607,0,1,0,5.1.247A3.6,3.6,0,0,0,110.6,135.045Z" transform="translate(-95.637 -121.074)" fill="#faf1e3"/>
            <path id="Trazado_734845" data-name="Trazado 734845" d="M120.619,142.309a6.021,6.021,0,1,1,.413-8.5A6.022,6.022,0,0,1,120.619,142.309Z" transform="translate(-93.223 -125.933)" fill="#faf1e3"/>
            <path id="Trazado_734846" data-name="Trazado 734846" d="M112.418,135.767a5.179,5.179,0,1,0,7.316.357A5.18,5.18,0,0,0,112.418,135.767Z" transform="translate(-92.873 -120.399)" fill="#faf1e3"/>
            <path id="Trazado_734847" data-name="Trazado 734847" d="M119.649,141.4a3.959,3.959,0,1,1,.269-5.59A3.961,3.961,0,0,1,119.649,141.4Z" transform="translate(-87.94 -120.228)" fill="#faf1e3"/>
            <path id="Trazado_734848" data-name="Trazado 734848" d="M116.138,136.111a2.871,2.871,0,1,1,.2-4.059A2.875,2.875,0,0,1,116.138,136.111Z" transform="translate(-91.548 -127.467)" fill="#faf1e3"/>
            <path id="Trazado_734849" data-name="Trazado 734849" d="M117.215,144.823a6.344,6.344,0,1,1,.435-8.963A6.344,6.344,0,0,1,117.215,144.823Z" transform="translate(-101.634 -121.776)" fill="#faf1e3"/>
            <path id="Trazado_734850" data-name="Trazado 734850" d="M141.1,139.173a4.212,4.212,0,1,1-4.212-4.215A4.211,4.211,0,0,1,141.1,139.173Z" transform="translate(-46.057 -119.264)" fill="#faf1e3"/>
            <path id="Trazado_734851" data-name="Trazado 734851" d="M134.424,138.2a4.743,4.743,0,1,0,4.741-4.741A4.743,4.743,0,0,0,134.424,138.2Z" transform="translate(-42.335 -122.453)" fill="#faf1e3"/>
            <path id="Trazado_734852" data-name="Trazado 734852" d="M135.223,139.6a4.951,4.951,0,1,1,4.951,4.954A4.952,4.952,0,0,1,135.223,139.6Z" transform="translate(-40.632 -119.929)" fill="#faf1e3"/>
            <path id="Trazado_734853" data-name="Trazado 734853" d="M136.439,140.988a5.159,5.159,0,1,1,3.742-6.263A5.157,5.157,0,0,1,136.439,140.988Z" transform="translate(-51.729 -128.075)" fill="#faf1e3"/>
            <path id="Trazado_734854" data-name="Trazado 734854" d="M131.545,132.175a2.764,2.764,0,1,0,.639,3.861A2.763,2.763,0,0,0,131.545,132.175Z" transform="translate(-57.802 -126.302)" fill="#faf1e3"/>
            <path id="Trazado_734855" data-name="Trazado 734855" d="M130.662,135.311a2.765,2.765,0,1,0,.639,3.858A2.763,2.763,0,0,0,130.662,135.311Z" transform="translate(-59.684 -119.62)" fill="#faf1e3"/>
            <path id="Trazado_734856" data-name="Trazado 734856" d="M128.783,141.125a3.3,3.3,0,1,1,4.6-.758A3.3,3.3,0,0,1,128.783,141.125Z" transform="translate(-57.295 -118.855)" fill="#faf1e3"/>
            <path id="Trazado_734857" data-name="Trazado 734857" d="M135.8,144.911a5.465,5.465,0,1,1,7.626-1.253A5.464,5.464,0,0,1,135.8,144.911Z" transform="translate(-44.265 -119.165)" fill="#faf1e3"/>
            <path id="Trazado_734858" data-name="Trazado 734858" d="M132.687,133.93a3.095,3.095,0,1,1-4.319.711A3.1,3.1,0,0,1,132.687,133.93Z" transform="translate(-56.48 -122.692)" fill="#faf1e3"/>
            <path id="Trazado_734859" data-name="Trazado 734859" d="M140.454,136.958a3.094,3.094,0,1,1-4.319.708A3.092,3.092,0,0,1,140.454,136.958Z" transform="translate(-39.923 -116.238)" fill="#faf1e3"/>
            <path id="Trazado_734860" data-name="Trazado 734860" d="M140.82,132.712a3.094,3.094,0,1,1-4.316.711A3.091,3.091,0,0,1,140.82,132.712Z" transform="translate(-39.136 -125.289)" fill="#faf1e3"/>
            <path id="Trazado_734861" data-name="Trazado 734861" d="M138.169,139.576a4.663,4.663,0,1,1,3.385-5.662A4.663,4.663,0,0,1,138.169,139.576Z" transform="translate(-46.726 -129.003)" fill="#faf1e3"/>
            <path id="Trazado_734862" data-name="Trazado 734862" d="M134.335,132.948a3.67,3.67,0,1,0,4.456,2.665A3.675,3.675,0,0,0,134.335,132.948Z" transform="translate(-48.438 -123.784)" fill="#faf1e3"/>
            <path id="Trazado_734863" data-name="Trazado 734863" d="M140.831,143.677a6.127,6.127,0,1,1,4.444-7.438A6.122,6.122,0,0,1,140.831,143.677Z" transform="translate(-44.928 -126.402)" fill="#faf1e3"/>
            <path id="Trazado_734864" data-name="Trazado 734864" d="M136.941,133.722a5.271,5.271,0,1,0,1.212,7.353A5.269,5.269,0,0,0,136.941,133.722Z" transform="translate(-54.754 -124.004)" fill="#faf1e3"/>
            <path id="Trazado_734865" data-name="Trazado 734865" d="M133.69,142.791a4.853,4.853,0,1,1,6.774-1.118A4.856,4.856,0,0,1,133.69,142.791Z" transform="translate(-48.216 -121.325)" fill="#faf1e3"/>
            <path id="Trazado_734866" data-name="Trazado 734866" d="M133.27,142.3a2.582,2.582,0,1,1,3.6-.592A2.582,2.582,0,0,1,133.27,142.3Z" transform="translate(-47.095 -113.602)" fill="#faf1e3"/>
            <path id="Trazado_734867" data-name="Trazado 734867" d="M138.244,135.7a2.921,2.921,0,1,1,2.12-3.545A2.921,2.921,0,0,1,138.244,135.7Z" transform="translate(-41.94 -129.947)" fill="#faf1e3"/>
            <path id="Trazado_734868" data-name="Trazado 734868" d="M136.973,144.885a6.454,6.454,0,1,1,9.01-1.481A6.451,6.451,0,0,1,136.973,144.885Z" transform="translate(-42.643 -123.043)" fill="#faf1e3"/>
            <path id="Trazado_734869" data-name="Trazado 734869" d="M132.56,143.736a4.052,4.052,0,1,1,4.053,4.049A4.053,4.053,0,0,1,132.56,143.736Z" transform="translate(-46.309 -109.19)" fill="#faf1e3"/>
            <path id="Trazado_734870" data-name="Trazado 734870" d="M140.02,142.051a6.39,6.39,0,1,1-6.392-6.389A6.39,6.39,0,0,1,140.02,142.051Z" transform="translate(-57.652 -117.764)" fill="#faf1e3"/>
            <path id="Trazado_734871" data-name="Trazado 734871" d="M133.744,139.685a3.915,3.915,0,1,1-3.915-3.915A3.916,3.916,0,0,1,133.744,139.685Z" transform="translate(-60.474 -117.533)" fill="#faf1e3"/>
            <path id="Trazado_734872" data-name="Trazado 734872" d="M137.707,142.715a4.018,4.018,0,1,0-4.018,4.021A4.018,4.018,0,0,0,137.707,142.715Z" transform="translate(-52.468 -111.287)" fill="#faf1e3"/>
            <path id="Trazado_734873" data-name="Trazado 734873" d="M122.293,141.218a5.071,5.071,0,1,1,.351-7.162A5.074,5.074,0,0,1,122.293,141.218Z" transform="translate(-86.268 -124.738)" fill="#faf1e3"/>
            <path id="Trazado_734874" data-name="Trazado 734874" d="M121.763,136.595a2.656,2.656,0,1,1-2.656-2.656A2.655,2.655,0,0,1,121.763,136.595Z" transform="translate(-80.647 -121.436)" fill="#faf1e3"/>
            <path id="Trazado_734875" data-name="Trazado 734875" d="M118.079,134.494a2.267,2.267,0,1,1-2.264-2.267A2.266,2.266,0,0,1,118.079,134.494Z" transform="translate(-86.846 -125.086)" fill="#faf1e3"/>
            <path id="Trazado_734876" data-name="Trazado 734876" d="M121.012,144.748a5.094,5.094,0,1,1,.354-7.2A5.1,5.1,0,0,1,121.012,144.748Z" transform="translate(-89.078 -117.298)" fill="#faf1e3"/>
            <path id="Trazado_734877" data-name="Trazado 734877" d="M117.826,142.4a4.118,4.118,0,1,1,.282-5.816A4.117,4.117,0,0,1,117.826,142.4Z" transform="translate(-92.397 -118.685)" fill="#faf1e3"/>
            <path id="Trazado_734878" data-name="Trazado 734878" d="M113.946,140.251a2.59,2.59,0,1,0-3.658-.178A2.59,2.59,0,0,0,113.946,140.251Z" transform="translate(-95.218 -117.59)" fill="#faf1e3"/>
            <path id="Trazado_734879" data-name="Trazado 734879" d="M113.618,142.092a3.889,3.889,0,1,0-5.493-.269A3.888,3.888,0,0,0,113.618,142.092Z" transform="translate(-100.546 -118.484)" fill="#faf1e3"/>
            <path id="Trazado_734880" data-name="Trazado 734880" d="M115.325,144.439a4.609,4.609,0,1,0-6.511-.319A4.613,4.613,0,0,0,115.325,144.439Z" transform="translate(-99.475 -116.156)" fill="#faf1e3"/>
            <path id="Trazado_734881" data-name="Trazado 734881" d="M110.71,141.079a2.441,2.441,0,1,0-2.443,2.443A2.441,2.441,0,0,0,110.71,141.079Z" transform="translate(-103.294 -111.417)" fill="#faf1e3"/>
            <path id="Trazado_734882" data-name="Trazado 734882" d="M110.532,139.131c.006.081.013.166.013.247a2.442,2.442,0,0,1-4.713.9,2.443,2.443,0,1,0,4.7-1.146Z" transform="translate(-103.288 -110.369)" fill="#f2e9d8"/>
            <path id="Trazado_734883" data-name="Trazado 734883" d="M121.195,134.015a1.818,1.818,0,1,0-1.816,1.816A1.818,1.818,0,0,0,121.195,134.015Z" transform="translate(-78.287 -125.154)" fill="#faf1e3"/>
            <path id="Trazado_734884" data-name="Trazado 734884" d="M121.063,132.561q.009.094.009.188a1.819,1.819,0,0,1-3.511.667,1.818,1.818,0,0,0,3.627-.182A1.851,1.851,0,0,0,121.063,132.561Z" transform="translate(-78.281 -124.374)" fill="#f2e9d8"/>
            <path id="Trazado_734886" data-name="Trazado 734886" d="M117.75,143.162c.009.094.013.191.013.285a2.814,2.814,0,0,1-5.43,1.037,2.815,2.815,0,1,0,5.418-1.322Z" transform="translate(-89.43 -101.776)" fill="#f2e9d8"/>
            <path id="Trazado_734887" data-name="Trazado 734887" d="M112.83,135.235a3.905,3.905,0,1,0-3.905,3.905A3.9,3.9,0,0,0,112.83,135.235Z" transform="translate(-105.019 -126.998)" fill="#faf1e3"/>
            <path id="Trazado_734888" data-name="Trazado 734888" d="M113.375,134.678a3.334,3.334,0,1,0-3.335,3.335A3.333,3.333,0,0,0,113.375,134.678Z" transform="translate(-101.418 -126.964)" fill="#faf1e3"/>
            <path id="Trazado_734890" data-name="Trazado 734890" d="M120.242,137.221a3.238,3.238,0,1,1-4.579,0A3.242,3.242,0,0,1,120.242,137.221Z" transform="translate(-84.346 -116.457)" fill="#faf1e3"/>
            <path id="Trazado_734891" data-name="Trazado 734891" d="M135.351,144.939a3.236,3.236,0,0,1-4.579,0,3.191,3.191,0,0,1-.921-1.895,3.235,3.235,0,1,0,6.292.592A3.212,3.212,0,0,1,135.351,144.939Z" transform="translate(-52.41 -102.027)" fill="#f2e9d8"/>
          </g>
          <g id="Grupo_1033680" data-name="Grupo 1033680" transform="translate(217.938 88.904)">
            <path id="Trazado_734892" data-name="Trazado 734892" d="M135.834,196.381s5.634,11.951,11.212,15.981c4.729,3.42,13.9-2.706,26.069-4.181s43.732,14.75,58.485,19.764,41.887,11.506,41.887,11.506-53.659-59.641-62.394-61.019c-3.789-.6-7.075.229-10.3-.62-8.691-2.289-18.687-7.795-21.452-8.18-1.948-.273-5.778-1.679-9.157-1.97s-10.685-1.428-15.655-2.151-6.392-1.9-5.762-4.491c.557-2.289,4.854-1.359,6.68-1.055s10.184.354,13.269.626,8.816.752,8.816.752c-3.41-1.613-12.063-1.892-13.961-2.2s-13.529-.009-17.926-.532-6.207-1.863-5.9-3.761a4.236,4.236,0,0,1,1.87-2.8,3.967,3.967,0,0,1-2.928-5.578c.924-2.142,6.054-1.553,6.054-1.553-1.491-1.61-.589-5.233,1.25-5.966s16.332-.526,21.352-.395,12.333,1.2,12.333,1.2c-6.166-4.077-7.306-9.8-6.079-10.291s6.242,3.2,8.969,4.175,6.057,3.623,7.585,4.792a93.143,93.143,0,0,0,9.968,6.329c5.224,2.966,6.664,5.161,11.9,7.977s12.326,8.161,15.167,9.586c0,0,12.489,10.178,25.856,20.319,26.776,20.316,65.056,48.648,69.412,51.8,11.86,8.572,19.3,34.853,15.931,41C333.75,283.9,263.273,274,244.4,270.167c-4.525-.921-17.184-4.121-28.749-6.2-18.628-3.348-21.725,5.29-23.278,10.664,0,0-8.54,6.667-11.071,6.667s-60.035-6.063-60.035-6.063V201.119Z" transform="translate(-121.262 -127.902)" fill="#f2bb99"/>
            <g id="Grupo_1033679" data-name="Grupo 1033679" transform="translate(22.539 15.749)">
              <path id="Trazado_734893" data-name="Trazado 734893" d="M128.554,133.965l.229.009c1,.034,2.424.081,4.137.138l12.633.163c2.3.053,4.591.019,6.771.128,2.173.135,4.168.432,5.875.7,3.41.554,5.656,1.062,5.656,1.062s-2.267-.4-5.693-.786c-1.71-.185-3.72-.385-5.853-.413-2.136-.009-4.45.147-6.746.207-4.6.166-9.2.222-12.665.157-1.472-.016-2.731-.05-3.7-.1A2.785,2.785,0,0,1,128.554,133.965Z" transform="translate(-128.256 -133.965)" fill="#e8a680" opacity="0.5"/>
              <path id="Trazado_734894" data-name="Trazado 734894" d="M129.361,134.406c-.16-.009-.313-.019-.457-.031-.16-.006-.31-.019-.445-.028C128.919,134.363,129.254,134.394,129.361,134.406Z" transform="translate(-128.459 -133.151)" fill="#e8a680"/>
            </g>
            <path id="Trazado_734895" data-name="Trazado 734895" d="M126.992,136.2c1.062-.006,2.405.016,3.949.081,3.861.113,9,.476,14.1.451a130.135,130.135,0,0,1,14.174.808c3.843.445,6.376.921,6.376.921s-2.562-.291-6.414-.476a128.071,128.071,0,0,0-14.1-.125c-5.2.238-10.344-.047-14.193-.166-.557-.019-1.087-.034-1.582-.05l.091-.06A3.934,3.934,0,0,1,126.992,136.2Z" transform="translate(-109.047 -113.446)" fill="#e8a680" opacity="0.5"/>
            <path id="Trazado_734896" data-name="Trazado 734896" d="M139.146,132.118c.191.044.395.094.6.144,1.628.395,3.777.974,5.9,1.625a55.513,55.513,0,0,1,5.75,2.073,14.568,14.568,0,0,1,1.791.927c.4.276.617.451.617.451s-.232-.157-.651-.391a14.523,14.523,0,0,0-1.851-.742,53.858,53.858,0,0,0-5.866-1.506c-1.362-.282-2.731-.536-3.965-.739A18.022,18.022,0,0,1,139.146,132.118Z" transform="translate(-83.138 -122.153)" fill="#e8a680" opacity="0.5"/>
            <path id="Trazado_734897" data-name="Trazado 734897" d="M130.2,139.912c-.182.586-.341,1.879.219,2.2a13.83,13.83,0,0,0,4.049.557c1.381.028,1.628-.839,1.666-1.932.031-.9-.567-1.315-2.834-1.491C131.292,139.089,130.534,138.851,130.2,139.912Z" transform="translate(-102.571 -107.255)" fill="#f6d9c5"/>
            <path id="Trazado_734898" data-name="Trazado 734898" d="M126.624,136.035c-.11.811-.069,2.562.626,2.894s3.129.282,4.707.1,1.71-1.381,1.566-2.844c-.122-1.2-.874-1.66-3.486-1.535C127.724,134.76,126.822,134.566,126.624,136.035Z" transform="translate(-109.929 -116.803)" fill="#f6d9c5"/>
            <path id="Trazado_734899" data-name="Trazado 734899" d="M128.491,133.984c-.106.811-.066,2.562.633,2.894s3.129.282,4.7.1,1.71-1.378,1.566-2.844c-.122-1.2-.874-1.66-3.486-1.535C129.594,132.712,128.688,132.515,128.491,133.984Z" transform="translate(-105.946 -121.176)" fill="#f6d9c5"/>
            <path id="Trazado_734900" data-name="Trazado 734900" d="M127.172,137.967c-.147.72-.207,2.286.448,2.615a14.328,14.328,0,0,0,4.547.3c1.535-.094,1.729-1.159,1.669-2.474-.047-1.071-.752-1.522-3.285-1.522C128.309,136.88,127.445,136.664,127.172,137.967Z" transform="translate(-108.867 -112.027)" fill="#f6d9c5"/>
            <path id="Trazado_734901" data-name="Trazado 734901" d="M138.264,129.042c-.363.216-.438,1.152-.119,1.647a12.444,12.444,0,0,0,2.292,1.785c1.074.8,2.139.893,2.421.573.391-.448.047-1.043-1.663-2.427C139.68,129.393,138.925,128.648,138.264,129.042Z" transform="translate(-85.701 -128.936)" fill="#f6d9c5"/>
            <path id="Trazado_734902" data-name="Trazado 734902" d="M145.228,156.318c12.727,4.8,26.789,11.4,35.282,14.29,14.75,5.014,41.887,11.506,41.887,11.506,11.506,12.095,26.454,21.239,26.454,21.239s-87.867-31.233-103.623-47.032Z" transform="translate(-70.173 -70.565)" fill="#e8a680" opacity="0.5"/>
          </g>
          <path id="Trazado_734903" data-name="Trazado 734903" d="M102.081,137.883s.063.755.216,2.048c.138,1.281.338,3.141.5,5.355.185,2.22.345,4.81.457,7.582.041,1.387.132,2.822.144,4.281s.05,2.934.078,4.416c-.009,1.478-.016,2.959-.022,4.416.009,1.459-.066,2.894-.094,4.281-.078,2.775-.213,5.368-.382,7.591-.307,4.444-.767,7.41-.767,7.41s-.517-2.956-.9-7.4c-.21-2.22-.385-4.807-.51-7.582-.047-1.391-.144-2.825-.157-4.284s-.05-2.938-.078-4.419c.009-1.481.019-2.963.028-4.419s.072-2.894.106-4.284c.094-2.778.244-5.371.435-7.594.175-2.224.395-4.068.582-5.374S102.081,137.883,102.081,137.883Z" transform="translate(52.562 -20.96)" fill="#6e431e"/>
          <path id="Trazado_734904" data-name="Trazado 734904" d="M103.743,131.586s.063.755.216,2.045c.138,1.284.341,3.141.507,5.358.182,2.217.341,4.807.454,7.582.041,1.387.132,2.819.144,4.278s.05,2.938.078,4.416c-.009,1.481-.016,2.959-.022,4.419.009,1.456-.066,2.891-.094,4.281-.078,2.775-.213,5.368-.382,7.591-.307,4.444-.767,7.41-.767,7.41s-.517-2.959-.9-7.4c-.207-2.217-.385-4.81-.507-7.585-.05-1.387-.147-2.822-.157-4.281-.028-1.456-.053-2.938-.078-4.419.009-1.481.016-2.963.025-4.422s.072-2.894.106-4.281c.094-2.778.244-5.371.435-7.594.175-2.227.395-4.071.586-5.377A20.427,20.427,0,0,1,103.743,131.586Z" transform="translate(56.113 -34.384)" fill="#6e431e"/>
          <g id="Grupo_1033682" data-name="Grupo 1033682" transform="translate(0 88.904)">
            <path id="Trazado_734905" data-name="Trazado 734905" d="M253.682,200.84s-6.47,9.477-8.628,11.136c-4.936,3.805-11.093-2.264-27.3-3.8-12.2-1.156-43.732,14.75-58.482,19.764s-41.89,11.506-41.89,11.506,53.662-59.641,62.393-61.019c3.789-.6,7.075.229,10.3-.62,8.691-2.289,18.687-7.795,21.452-8.18,1.948-.273,5.778-1.679,9.16-1.97s10.682-1.428,15.652-2.151,6.392-1.9,5.759-4.491c-.554-2.289-4.851-1.359-6.677-1.055s-10.184.354-13.269.626-8.819.752-8.819.752c3.417-1.613,12.067-1.892,13.964-2.2s13.532-.009,17.926-.532,6.207-1.863,5.9-3.761a4.237,4.237,0,0,0-1.867-2.8,3.969,3.969,0,0,0,2.928-5.578c-.927-2.142-6.057-1.553-6.057-1.553,1.491-1.61.589-5.233-1.25-5.966s-16.329-.526-21.349-.395-12.336,1.2-12.336,1.2c6.166-4.077,7.306-9.8,6.079-10.291s-6.238,3.2-8.969,4.175-6.057,3.623-7.585,4.792a93.146,93.146,0,0,1-9.968,6.329c-5.224,2.966-6.664,5.161-11.9,7.977s-12.33,8.161-15.167,9.586c0,0-12.492,10.178-25.856,20.319-26.779,20.316-65.059,48.648-69.415,51.8-11.86,8.572-19.3,34.853-15.928,41,4.638,8.462,75.111-1.437,93.993-5.271,4.525-.921,17.184-4.121,28.746-6.2,18.631-3.348,21.725,5.29,23.278,10.664,0,0,8.54,6.667,11.074,6.667s60.032-6.063,60.032-6.063V198.1Z" transform="translate(-51.672 -127.902)" fill="#f2bb99"/>
            <g id="Grupo_1033681" data-name="Grupo 1033681" transform="translate(159.801 15.749)">
              <path id="Trazado_734906" data-name="Trazado 734906" d="M138,133.965l-.229.009c-1,.034-2.424.081-4.134.138l-12.64.163c-2.3.053-4.585.019-6.768.128-2.173.135-4.165.432-5.875.7-3.41.554-5.656,1.062-5.656,1.062s2.267-.4,5.694-.786c1.71-.185,3.72-.385,5.856-.413,2.13-.009,4.447.147,6.743.207,4.6.166,9.2.222,12.665.157,1.472-.016,2.731-.05,3.7-.1A2.785,2.785,0,0,0,138,133.965Z" transform="translate(-102.698 -133.965)" fill="#e8a680" opacity="0.5"/>
              <path id="Trazado_734907" data-name="Trazado 734907" d="M113.777,134.406c.16-.009.313-.019.457-.031.163-.006.307-.019.445-.028C114.219,134.363,113.883,134.394,113.777,134.406Z" transform="translate(-79.081 -133.151)" fill="#e8a680"/>
            </g>
            <path id="Trazado_734908" data-name="Trazado 734908" d="M141.808,136.2c-1.062-.006-2.405.016-3.946.081-3.861.113-9,.476-14.1.451a130.2,130.2,0,0,0-14.177.808c-3.843.445-6.376.921-6.376.921s2.559-.291,6.414-.476a128.119,128.119,0,0,1,14.1-.125c5.2.238,10.341-.047,14.193-.166.554-.019,1.084-.034,1.578-.05l-.088-.06A3.935,3.935,0,0,0,141.808,136.2Z" transform="translate(58.185 -113.446)" fill="#e8a680" opacity="0.5"/>
            <path id="Trazado_734909" data-name="Trazado 734909" d="M113.359,132.118c-.191.044-.395.094-.6.144-1.629.395-3.777.974-5.9,1.625a55.51,55.51,0,0,0-5.75,2.073,14.566,14.566,0,0,0-1.791.927c-.4.276-.614.451-.614.451s.232-.157.648-.391a14.6,14.6,0,0,1,1.854-.742,53.788,53.788,0,0,1,5.863-1.506c1.362-.282,2.731-.536,3.965-.739A18.023,18.023,0,0,0,113.359,132.118Z" transform="translate(48.571 -122.153)" fill="#e8a680" opacity="0.5"/>
            <path id="Trazado_734910" data-name="Trazado 734910" d="M116.477,139.912c.185.586.345,1.879-.216,2.2a13.83,13.83,0,0,1-4.049.557c-1.381.028-1.629-.839-1.666-1.932-.031-.9.567-1.315,2.834-1.491C115.387,139.089,116.145,138.851,116.477,139.912Z" transform="translate(73.829 -107.255)" fill="#f6d9c5"/>
            <path id="Trazado_734911" data-name="Trazado 734911" d="M120.659,136.035c.106.811.066,2.562-.629,2.894s-3.132.282-4.707.1-1.71-1.381-1.563-2.844c.119-1.2.871-1.66,3.482-1.535C119.557,134.76,120.462,134.566,120.659,136.035Z" transform="translate(80.587 -116.803)" fill="#f6d9c5"/>
            <path id="Trazado_734912" data-name="Trazado 734912" d="M118.788,133.984c.11.811.066,2.562-.626,2.894s-3.129.282-4.707.1-1.71-1.378-1.566-2.844c.119-1.2.874-1.66,3.486-1.535C117.689,132.712,118.594,132.515,118.788,133.984Z" transform="translate(76.601 -121.176)" fill="#f6d9c5"/>
            <path id="Trazado_734913" data-name="Trazado 734913" d="M119.958,137.967c.15.72.2,2.286-.448,2.615a14.336,14.336,0,0,1-4.547.3c-1.535-.094-1.729-1.159-1.666-2.474.047-1.071.748-1.522,3.282-1.522C118.821,136.88,119.686,136.664,119.958,137.967Z" transform="translate(79.675 -112.027)" fill="#f6d9c5"/>
            <path id="Trazado_734914" data-name="Trazado 734914" d="M107.7,129.042c.366.216.442,1.152.122,1.647a12.335,12.335,0,0,1-2.292,1.785c-1.074.8-2.139.893-2.418.573-.395-.448-.05-1.043,1.66-2.427C106.285,129.393,107.043,128.648,107.7,129.042Z" transform="translate(57.671 -128.936)" fill="#f6d9c5"/>
            <path id="Trazado_734915" data-name="Trazado 734915" d="M167.831,156.318c-12.727,4.8-26.789,11.4-35.279,14.29-14.75,5.014-41.89,11.506-41.89,11.506-11.506,12.095-26.454,21.239-26.454,21.239s87.867-31.233,103.623-47.032Z" transform="translate(-24.948 -70.565)" fill="#e8a680" opacity="0.5"/>
          </g>
          <path id="Trazado_734916" data-name="Trazado 734916" d="M242.018,181.242s-9.43-11.825-37.293-6.743c-22.389,4.087-25.693,7.347-33.816,7.347s-14.365-4.121-33.816-7.347c-27.944-4.632-37.29,6.743-37.29,6.743-5.944,27.359,3.952,46.863,10.247,66.415s7.288,33.228,5.214,46.719H226.557c-2.114-11.6-1.084-27.171,5.211-46.719S247.959,208.6,242.018,181.242Z" transform="translate(47.029 54.39)" fill="#faf1e3"/>
          <path id="Trazado_734917" data-name="Trazado 734917" d="M242.018,181.242s-9.43-11.825-37.293-6.743c-22.389,4.087-25.693,5.891-33.816,5.891s-14.365-2.665-33.816-5.891c-27.944-4.632-37.29,6.743-37.29,6.743-5.944,27.359,3.952,46.863,10.247,66.415s7.288,33.228,5.214,46.719H226.557c-2.114-11.6-1.084-27.171,5.211-46.719S247.959,208.6,242.018,181.242Z" transform="translate(47.029 54.39)" fill="#faf1e3"/>
          <path id="Trazado_734918" data-name="Trazado 734918" d="M103.494,211.913s6.511,12.659,49.187,14.112,62.105-14.112,62.105-14.112H103.494Z" transform="translate(58.799 136.852)" fill="#faf1e3"/>
          <path id="Trazado_734919" data-name="Trazado 734919" d="M159.648,247.981s30.065-1.159,32.006,10.46-1.948,41.574-80.5,41.871h-.006a151.653,151.653,0,0,0,25.229,2.721c42.673,1.456,62.105-14.112,62.105-14.112-2.114-11.6-1.084-27.171,5.211-46.719s16.191-39.056,10.25-66.415C215.759,192,215.9,243.847,159.648,247.981Z" transform="translate(75.107 59.843)" fill="#f2e9d8"/>
          <path id="Trazado_734920" data-name="Trazado 734920" d="M211.819,175.34c-1,.639-2.405,1.685-4.146,3.044-.864.686-1.8,1.481-2.815,2.333-.98.9-2.064,1.841-3.172,2.9-2.23,2.1-4.651,4.566-7.137,7.394q-.94,1.048-1.92,2.139c-.636.739-1.256,1.525-1.9,2.3s-1.293,1.578-1.954,2.386q-.94,1.259-1.91,2.546t-1.992,2.587q-.954,1.358-1.926,2.74t-1.967,2.8q-.935,1.452-1.885,2.934c-1.262,1.976-2.59,3.949-3.786,6.051-1.212,2.1-2.54,4.137-3.689,6.32q-1.78,3.251-3.583,6.539-1.79,3.364-3.589,6.739c-2.446,4.478-4.954,8.941-7.576,13.272s-5.324,8.543-8.215,12.48a88.849,88.849,0,0,1-9.135,10.82,63.87,63.87,0,0,1-9.805,8.171,61.966,61.966,0,0,1-9.348,5.211,68.036,68.036,0,0,1-7.6,2.966c-2.13.723-3.836,1.181-5,1.491-1.162.294-1.785.454-1.785.454s.564-.307,1.616-.883c1.059-.557,2.593-1.415,4.525-2.508,1.923-1.109,4.231-2.477,6.771-4.162a82.6,82.6,0,0,0,8.083-6.138,77.1,77.1,0,0,0,8.283-8.5,123.544,123.544,0,0,0,7.864-10.761c2.552-3.893,5.051-8.049,7.544-12.323s4.989-8.672,7.479-13.084q1.879-3.312,3.752-6.611c1.268-2.2,2.621-4.406,3.915-6.586,1.256-2.211,2.734-4.272,4.1-6.357s2.8-4.093,4.269-6.025q1.09-1.451,2.164-2.884c.752-.924,1.5-1.835,2.236-2.74s1.469-1.8,2.192-2.681l2.245-2.524q1.132-1.231,2.224-2.424,1.146-1.146,2.261-2.255c.742-.736,1.456-1.472,2.189-2.167s1.475-1.35,2.192-2a98.15,98.15,0,0,1,8.227-6.639,75.728,75.728,0,0,1,6.852-4.378,39.015,39.015,0,0,1,6.4-2.963s-.561.31-1.55.977Z" transform="translate(64.11 56.805)" fill="#f2e9d8"/>
          <path id="Trazado_734921" data-name="Trazado 734921" d="M191.519,176.755l-1.112.8c-.723.52-1.813,1.271-3.088,2.321-1.315.99-2.812,2.339-4.538,3.846q-1.245,1.188-2.646,2.521-1.353,1.376-2.844,2.887c-1.926,2.064-3.968,4.337-6.091,6.786-2.1,2.465-4.265,5.114-6.514,7.857s-4.475,5.656-6.818,8.559c-2.314,2.934-4.666,5.91-7.021,8.891l-7.122,8.831c-1.181,1.466-2.333,2.878-3.561,4.309-1.2,1.39-2.346,2.775-3.558,4.118-2.4,2.718-4.81,5.217-7.169,7.529-2.33,2.33-4.654,4.416-6.843,6.285-2.17,1.888-4.259,3.5-6.135,4.895s-3.564,2.534-4.983,3.426a43.364,43.364,0,0,1-4.569,2.6s.388-.272,1.09-.827,1.7-1.39,2.966-2.465c2.512-2.17,5.991-5.377,9.924-9.448.983-1.018,2.007-2.076,3.025-3.213,1.037-1.115,2.1-2.274,3.176-3.489,2.161-2.411,4.334-5.055,6.577-7.748,1.121-1.347,2.23-2.806,3.37-4.234l3.4-4.366c2.308-2.941,4.657-5.931,7-8.922,2.4-2.953,4.795-5.91,7.156-8.822s4.807-5.693,7.165-8.393,4.745-5.221,7.046-7.579c1.156-1.174,2.311-2.3,3.426-3.373q1.729-1.569,3.332-3.019,1.663-1.391,3.179-2.656,1.583-1.184,2.991-2.239a60.156,60.156,0,0,1,5.114-3.276,35.413,35.413,0,0,1,3.439-1.8C191.09,176.965,191.519,176.755,191.519,176.755Z" transform="translate(66.079 61.905)" fill="#f2e9d8"/>
          <path id="Trazado_734922" data-name="Trazado 734922" d="M125.224,211.935s-13.385-.329-24.875-19.238h0c1.575,4.547,3.2,9,4.635,13.46q.747,2.321,1.4,4.532C115.425,214.353,125.224,211.935,125.224,211.935Z" transform="translate(52.095 95.889)" fill="#f2e9d8"/>
          <path id="Trazado_734923" data-name="Trazado 734923" d="M165.947,109.052l-.263.8a12.706,12.706,0,0,1-1.068,2.167,24.033,24.033,0,0,1-5.881,6.342,54.17,54.17,0,0,1-10.344,6.282,104.262,104.262,0,0,1-12.727,5.02c-2.208.7-4.422,1.378-6.62,1.964-1.055.3-2.108.592-3.144.883-.532.15-1.062.3-1.585.454-.47.166-.936.332-1.4.492s-.93.319-1.39.476c-.457.188-.908.379-1.356.564l-1.337.551c-.42.21-.839.42-1.253.623a34.768,34.768,0,0,0-4.5,2.631,28.922,28.922,0,0,0-3.4,2.856,22.75,22.75,0,0,0-2.274,2.649,18.231,18.231,0,0,0-1.218,1.951,8.009,8.009,0,0,0-.357.752,9.871,9.871,0,0,1,.536-3.21,16.67,16.67,0,0,1,1.538-3.476c.341-.667.814-1.287,1.272-1.995.5-.664,1.065-1.337,1.682-2.017a27.36,27.36,0,0,1,4.453-3.883q.648-.446,1.312-.908.7-.4,1.406-.821c.473-.272.952-.554,1.45-.817.52-.244,1.043-.485,1.566-.733s1.065-.485,1.607-.733l1.544-.57c.517-.194,1.037-.385,1.563-.579q.836-.277,1.679-.548c2.123-.689,4.278-1.39,6.433-2.086,8.606-2.775,17.1-5.656,23.071-8.578a33.441,33.441,0,0,0,6.793-4.275,19.263,19.263,0,0,0,1.663-1.591Z" transform="translate(63.772 -82.42)" fill="#6e431e"/>
          <path id="Trazado_734924" data-name="Trazado 734924" d="M158.468,109.024s-.059.207-.172.595a6.476,6.476,0,0,1-.836,1.556,10.517,10.517,0,0,1-1.926,1.979,17.1,17.1,0,0,1-3.032,1.9c-.586.291-1.2.592-1.86.846-.648.282-1.325.545-2.036.78-.7.257-1.434.5-2.189.708-.748.235-1.522.445-2.314.623-1.578.395-3.229.711-4.9,1.021-1.688.251-3.395.539-5.114.723l-5.089.6c-1.654.272-3.27.482-4.823.852-.78.157-1.544.338-2.277.545s-1.475.37-2.161.611a30.265,30.265,0,0,0-3.833,1.459c-.576.263-1.127.526-1.629.814a15.072,15.072,0,0,0-1.428.821,16.615,16.615,0,0,0-2.151,1.6,8.968,8.968,0,0,0-1.572,1.738,7.622,7.622,0,0,1,1.372-1.942,17.031,17.031,0,0,1,2.036-1.842,18.426,18.426,0,0,1,3-1.926,31.246,31.246,0,0,1,3.849-1.735,34.052,34.052,0,0,1,4.5-1.394c1.572-.423,3.257-.72,4.942-1,1.679-.213,3.389-.426,5.1-.642,1.7-.166,3.389-.435,5.055-.664,1.654-.291,3.291-.532,4.851-.88.786-.15,1.544-.344,2.292-.52s1.475-.357,2.17-.57c.708-.188,1.384-.407,2.026-.642.655-.213,1.265-.467,1.848-.717a13.852,13.852,0,0,0,5.08-3.32,7.146,7.146,0,0,0,.983-1.409C158.383,109.221,158.468,109.024,158.468,109.024Z" transform="translate(70.795 -82.48)" fill="#6e431e"/>
          <path id="Trazado_734925" data-name="Trazado 734925" d="M126.767,111.56s.066.132.188.373a5.155,5.155,0,0,0,.6.99,16.03,16.03,0,0,0,1.077,1.359c.451.5.98,1.055,1.569,1.638s1.259,1.187,1.976,1.813c.7.645,1.516,1.234,2.3,1.91,1.641,1.268,3.42,2.574,5.264,3.793.908.633,1.867,1.184,2.775,1.785.955.523,1.841,1.143,2.762,1.625.93.46,1.776,1.03,2.64,1.434s1.654.886,2.415,1.237,1.459.7,2.079,1.012l1.632.745c.908.423,1.428.7,1.428.7s-.576-.031-1.582-.138a26.753,26.753,0,0,1-4.134-.745c-.855-.191-1.744-.5-2.693-.808a29.656,29.656,0,0,1-2.931-1.143c-1-.432-2.007-.943-3.028-1.469-.993-.576-2.007-1.156-2.975-1.81s-1.923-1.322-2.806-2.064c-.918-.689-1.719-1.5-2.534-2.23a28.688,28.688,0,0,1-2.155-2.317,20.823,20.823,0,0,1-1.713-2.267,17.1,17.1,0,0,1-1.212-2.089,10.247,10.247,0,0,1-.686-1.751,3.977,3.977,0,0,1-.216-1.165C126.78,111.7,126.767,111.56,126.767,111.56Z" transform="translate(108.411 -77.074)" fill="#6e431e"/>
          <path id="Trazado_734926" data-name="Trazado 734926" d="M175.954,106.122l-1.008-.288a20.812,20.812,0,0,0-2.862-.576,33.912,33.912,0,0,0-4.488-.323,54.223,54.223,0,0,0-5.809.269c-2.12.219-4.394.583-6.783,1.04-2.383.5-4.876,1.118-7.41,1.888-2.543.748-5.111,1.707-7.679,2.753a68.721,68.721,0,0,0-7.588,3.6,71.405,71.405,0,0,0-7.169,4.347,75.919,75.919,0,0,0-6.4,5,73.152,73.152,0,0,0-5.434,5.321c-.811.9-1.538,1.829-2.3,2.69q-1.052,1.362-2.026,2.628c-1.2,1.754-2.321,3.37-3.191,4.885-.943,1.478-1.572,2.869-2.211,3.968-1.105,2.292-1.741,3.6-1.741,3.6s.085-.354.235-1.018c.166-.664.341-1.663.7-2.9a45.549,45.549,0,0,1,1.516-4.391c.354-.824.676-1.735,1.124-2.64s.93-1.863,1.45-2.847c.567-.961,1.162-1.96,1.776-3,.68-.99,1.381-2.023,2.148-3.05a52.161,52.161,0,0,1,5.33-6.063,58.182,58.182,0,0,1,6.574-5.615,74.558,74.558,0,0,1,7.544-4.757,73.287,73.287,0,0,1,8.108-3.677,63.116,63.116,0,0,1,8.224-2.537,59.371,59.371,0,0,1,7.914-1.4,52.82,52.82,0,0,1,7.19-.326,39.359,39.359,0,0,1,6.054.567,26.622,26.622,0,0,1,4.541,1.14,13.882,13.882,0,0,1,1.613.636,8.891,8.891,0,0,1,1.134.561C175.634,105.947,175.954,106.122,175.954,106.122Z" transform="translate(55.316 -95.963)" fill="#6e431e"/>
          <path id="Trazado_734927" data-name="Trazado 734927" d="M127.284,105.2s.8.216,2.164.667a24.05,24.05,0,0,1,2.427.886c.921.4,1.973.858,3.1,1.406,1.087.592,2.277,1.231,3.495,1.973,1.171.808,2.474,1.585,3.7,2.559a44.128,44.128,0,0,1,3.674,3.116c1.234,1.087,2.343,2.339,3.486,3.561,1.055,1.29,2.161,2.546,3.078,3.912.98,1.318,1.816,2.7,2.618,4.04.758,1.365,1.469,2.693,2.039,4a37.112,37.112,0,0,1,1.516,3.717,40.022,40.022,0,0,1,1.6,5.762c.257,1.425.354,2.242.354,2.242s-.46-.7-1.165-1.935c-.363-.611-.836-1.337-1.315-2.192-.517-.827-1.1-1.763-1.732-2.784-.651-1-1.359-2.079-2.1-3.223-.73-1.143-1.616-2.274-2.446-3.486-.886-1.178-1.779-2.4-2.75-3.6-.933-1.225-1.976-2.39-2.978-3.583-1.052-1.152-2.073-2.336-3.163-3.42-1.049-1.127-2.158-2.161-3.21-3.188s-2.139-1.954-3.129-2.891c-1.052-.852-2.026-1.7-2.928-2.493-.943-.714-1.785-1.416-2.543-2.042s-1.478-1.134-2.029-1.582C127.907,105.749,127.284,105.2,127.284,105.2Z" transform="translate(109.513 -90.629)" fill="#6e431e"/>
          <path id="Trazado_734928" data-name="Trazado 734928" d="M131.349,105.2s.5.285,1.353.811c.429.257.93.6,1.5,1.012a19.215,19.215,0,0,1,1.876,1.437c.673.545,1.369,1.171,2.089,1.854.745.664,1.45,1.434,2.2,2.224.7.83,1.472,1.644,2.139,2.562.708.9,1.372,1.838,2.033,2.784.629.968,1.259,1.935,1.829,2.919.586.974,1.1,1.967,1.591,2.928a55.929,55.929,0,0,1,2.355,5.405c.633,1.6,1.008,2.994,1.3,3.952.266.971.4,1.525.4,1.525s-.254-.517-.664-1.425-1.037-2.2-1.779-3.727-1.7-3.279-2.737-5.127c-.517-.924-1.09-1.857-1.666-2.809s-1.2-1.892-1.829-2.828c-1.24-1.885-2.624-3.667-3.937-5.327-.7-.786-1.312-1.616-1.982-2.317-.642-.73-1.271-1.4-1.882-1.989-1.2-1.2-2.211-2.186-2.994-2.825C131.772,105.589,131.349,105.2,131.349,105.2Z" transform="translate(118.179 -90.629)" fill="#6e431e"/>
          <path id="Trazado_734929" data-name="Trazado 734929" d="M151.133,107.813s-1.049.257-2.894.664c-.924.182-2.033.473-3.295.786s-2.684.67-4.218,1.124c-1.547.4-3.188.949-4.92,1.513-.877.26-1.754.576-2.64.936-.893.332-1.8.676-2.731,1.024-1.8.808-3.7,1.569-5.515,2.549A59.63,59.63,0,0,0,119.5,119.5a48.471,48.471,0,0,0-9.232,7.917,42.771,42.771,0,0,0-3.295,4.532c-.457.767-.952,1.491-1.343,2.239-.363.761-.711,1.5-1.049,2.211a30.155,30.155,0,0,0-1.55,4.024c-.2.614-.429,1.181-.57,1.722-.122.548-.238,1.052-.341,1.506-.438,1.835-.692,2.881-.692,2.881s.025-1.071.119-2.969c.028-.476.056-1.005.088-1.578s.207-1.174.316-1.832a23.653,23.653,0,0,1,1.074-4.356q.4-1.174.842-2.443c.329-.83.8-1.628,1.225-2.483a33.357,33.357,0,0,1,3.2-5.077,38.5,38.5,0,0,1,4.409-4.663,49.059,49.059,0,0,1,5.214-4.068,62.5,62.5,0,0,1,5.766-3.169,59.1,59.1,0,0,1,5.856-2.424c1.957-.608,3.83-1.259,5.665-1.647l2.653-.62c.861-.179,1.7-.294,2.505-.438.808-.128,1.572-.276,2.308-.37.736-.078,1.441-.15,2.1-.219,1.312-.153,2.455-.241,3.4-.266C150.052,107.829,151.133,107.813,151.133,107.813Z" transform="translate(54.397 -85.061)" fill="#6e431e"/>
          <g id="Grupo_1033683" data-name="Grupo 1033683" transform="translate(186.499 151.688)">
            <path id="Trazado_734930" data-name="Trazado 734930" d="M163.482,148.984c-3.708,3.32-6.633,5.719-7.811,6.6-3.968,2.972-10.582,5.462-23.569-.36a62.765,62.765,0,0,1-9.614-5.543c.983,9.464-2.355,22.489-11.265,27.5l31.806.025,31.809.025C166.476,172.516,163.044,159.024,163.482,148.984Z" transform="translate(-111.223 -148.984)" fill="url(#linear-gradient)"/>
          </g>
          <rect id="Rectngulo_353061" data-name="Rectngulo 353061" width="173" height="69" transform="translate(133.625 187.323)" fill="#ff9d00"/>
          <rect id="Rectngulo_353062" data-name="Rectngulo 353062" width="8" height="30" transform="translate(161.625 165.323)" fill="#ff9d00"/>
          <rect id="Rectngulo_353063" data-name="Rectngulo 353063" width="8" height="30" transform="translate(266.625 165.323)" fill="#ff9d00"/>
        </g>
      </g>
    </g>
    <g id="Elipse_5638" data-name="Elipse 5638" transform="translate(604.661 3463.082)" fill="none" stroke="#707070" stroke-width="3" stroke-dasharray="2" opacity="0.3">
      <circle cx="166.906" cy="166.906" r="166.906" stroke="none"/>
      <circle cx="166.906" cy="166.906" r="165.406" fill="none"/>
    </g>
    <g id="Grupo_1033687" data-name="Grupo 1033687" transform="translate(564 3654.585)">
      <g id="Grupo_20664" data-name="Grupo 20664">
        <path id="Trazado_99075" data-name="Trazado 99075" d="M29.867,0A29.867,29.867,0,1,1,0,29.867,29.867,29.867,0,0,1,29.867,0Z" fill="#15d3ec"/>
        <text id="_5" data-name="5" transform="translate(22.609 19.546)" fill="#12263f" font-size="20" font-family="Roboto-Black, Roboto" font-weight="800"><tspan x="0" y="19">5</tspan></text>
      </g>
    </g>
    <g id="Grupo_1033688" data-name="Grupo 1033688" transform="translate(743.006 3778.11)">
      <g id="Grupo_20664-2" data-name="Grupo 20664">
        <path id="Trazado_99075-2" data-name="Trazado 99075" d="M29.867,0A29.867,29.867,0,1,1,0,29.867,29.867,29.867,0,0,1,29.867,0Z" fill="#15d3ec"/>
        <text id="_4" data-name="4" transform="translate(23.609 18.546)" fill="#12263f" font-size="20" font-family="Roboto-Black, Roboto" font-weight="800"><tspan x="0" y="19">4</tspan></text>
      </g>
    </g>
    <g id="Grupo_1033689" data-name="Grupo 1033689" transform="translate(904.839 3654.585)">
      <g id="Grupo_20664-3" data-name="Grupo 20664">
        <path id="Trazado_99075-3" data-name="Trazado 99075" d="M29.867,0A29.867,29.867,0,1,1,0,29.867,29.867,29.867,0,0,1,29.867,0Z" fill="#15d3ec"/>
        <text id="_3" data-name="3" transform="translate(24.609 20.546)" fill="#12263f" font-size="20" font-family="Roboto-Black, Roboto" font-weight="800"><tspan x="0" y="19">3</tspan></text>
      </g>
    </g>
    <g id="Grupo_1033690" data-name="Grupo 1033690" transform="translate(854.768 3454.298)">
      <g id="Grupo_20664-4" data-name="Grupo 20664">
        <path id="Trazado_99075-4" data-name="Trazado 99075" d="M29.867,0A29.867,29.867,0,1,1,0,29.867,29.867,29.867,0,0,1,29.867,0Z" fill="#15d3ec"/>
        <text id="_2" data-name="2" transform="translate(23.609 18.546)" fill="#12263f" font-size="20" font-family="Roboto-Black, Roboto" font-weight="800"><tspan x="0" y="19">2</tspan></text>
      </g>
    </g>
    <g id="Grupo_1033691" data-name="Grupo 1033691" transform="translate(628.127 3454.298)">
      <g id="Grupo_20664-5" data-name="Grupo 20664">
        <path id="Trazado_99075-5" data-name="Trazado 99075" d="M29.867,0A29.867,29.867,0,1,1,0,29.867,29.867,29.867,0,0,1,29.867,0Z" fill="#15d3ec"/>
        <text id="_1" data-name="1" transform="translate(24.609 17.546)" fill="#12263f" font-size="20" font-family="Roboto-Black, Roboto" font-weight="800"><tspan x="0" y="19">1</tspan></text>
      </g>
    </g>
  </g>
</svg>
