<svg xmlns="http://www.w3.org/2000/svg" xmlns:xlink="http://www.w3.org/1999/xlink" width="610" height="444.291" viewBox="0 0 610 444.291">
  <defs>
    <clipPath id="clip-path">
      <rect id="Rectángulo_50741" data-name="Rectángulo 50741" width="508.378" height="307.255" fill="none"/>
    </clipPath>
    <clipPath id="clip-path-2">
      <rect id="Rectángulo_50740" data-name="Rectángulo 50740" width="508.377" height="307.255" fill="none"/>
    </clipPath>
    <clipPath id="clip-path-3">
      <rect id="Rectángulo_50738" data-name="Rectángulo 50738" width="4.267" height="5.221" fill="none"/>
    </clipPath>
    <clipPath id="clip-path-4">
      <rect id="Rectángulo_50739" data-name="Rectángulo 50739" width="4.263" height="5.221" fill="none"/>
    </clipPath>
  </defs>
  <g id="Grupo_1033707" data-name="Grupo 1033707" transform="translate(-3890.713 5302.11)">
    <g id="Grupo_160943" data-name="Grupo 160943" transform="translate(3710.713 -13813.551)" opacity="0.13">
      <g id="Grupo_154652" data-name="Grupo 154652" transform="translate(180 8511.44)">
        <g id="Grupo_154160" data-name="Grupo 154160" transform="translate(0 0)">
          <g id="Grupo_66834" data-name="Grupo 66834">
            <path id="Trazado_132887" data-name="Trazado 132887" d="M738.348,526.863c-56.821,77.476-60.758,301.127,19.052,359.663s213.167-70.218,269.973-147.691,38.17-187.709-41.638-246.245S795.159,449.4,738.348,526.863Z" transform="translate(-505.222 -457.039)" fill="#15d3ec"/>
            <path id="Trazado_132888" data-name="Trazado 132888" d="M652.737,605.065c0,108.19,226.26,226.357,351.078,226.357s258.922-118.167,258.922-226.357-52.662-181.459-236.98-99.419C914.718,555.061,652.737,496.877,652.737,605.065Z" transform="translate(-652.737 -437.812)" fill="#7e5ee3"/>
          </g>
        </g>
      </g>
    </g>
    <g id="Grupo_173645" data-name="Grupo 173645" transform="translate(3966.886 -5253.817)">
      <g id="Grupo_173644" data-name="Grupo 173644" clip-path="url(#clip-path)">
        <g id="Grupo_173643" data-name="Grupo 173643" transform="translate(0 0)">
          <g id="Grupo_173642" data-name="Grupo 173642" clip-path="url(#clip-path-2)">
            <path id="Trazado_210829" data-name="Trazado 210829" d="M803.136,18.378c-.908,12.487-2.75,14.208-14.658,15.17,11.908.962,13.749,2.682,14.658,15.169.914-12.488,2.749-14.207,14.657-15.169-11.908-.962-13.743-2.683-14.657-15.17m48.389,32.93c-.483,6.664-1.463,7.587-7.823,8.1,6.36.511,7.34,1.435,7.823,8.1.489-6.664,1.474-7.587,7.829-8.1-6.355-.513-7.34-1.436-7.829-8.1M830.333,0c-.489,6.756-1.484,7.684-7.921,8.206,6.438.522,7.433,1.45,7.921,8.2.493-6.752,1.493-7.68,7.925-8.2-6.432-.522-7.432-1.45-7.925-8.206" transform="translate(-567.404 0.001)" fill="#fff" fill-rule="evenodd"/>
            <path id="Trazado_210830" data-name="Trazado 210830" d="M661.284,757.484c.737,10.115,2.227,11.512,11.872,12.29-9.646.777-11.136,2.174-11.872,12.29-.735-10.116-2.234-11.513-11.874-12.29,9.64-.779,11.139-2.176,11.874-12.29m-39.2,26.677c.391,5.4,1.189,6.148,6.342,6.562-5.153.417-5.95,1.16-6.342,6.563-.395-5.4-1.188-6.146-6.34-6.563,5.151-.414,5.945-1.159,6.34-6.562M639.246,742.6c.4,5.469,1.208,6.225,6.422,6.644-5.215.419-6.022,1.176-6.422,6.644-.4-5.469-1.2-6.225-6.419-6.644,5.215-.419,6.022-1.175,6.419-6.644" transform="translate(-443.098 -534.39)" fill="#fff" fill-rule="evenodd"/>
            <path id="Trazado_210831" data-name="Trazado 210831" d="M1304.346,677.489c-.568,7.746-1.708,8.815-9.091,9.409,7.383.6,8.523,1.662,9.091,9.409.564-7.747,1.7-8.811,9.089-9.409-7.385-.594-8.525-1.662-9.089-9.409m30.015,20.427c-.3,4.136-.91,4.708-4.852,5.02,3.942.319,4.551.891,4.852,5.027.3-4.136.906-4.708,4.852-5.027-3.946-.312-4.548-.884-4.852-5.02m-13.146-31.828c-.3,4.19-.922,4.77-4.916,5.089,3.994.323,4.611.9,4.916,5.093.308-4.19.923-4.769,4.916-5.093-3.992-.32-4.607-.9-4.916-5.089" transform="translate(-932.091 -479.33)" fill="#fff" fill-rule="evenodd"/>
            <path id="Trazado_210832" data-name="Trazado 210832" d="M581.472,373.071l-311.842.465a11.286,11.286,0,0,1-11.3-11.265l-.308-210.327a11.283,11.283,0,0,1,11.265-11.3l311.836-.464a11.278,11.278,0,0,1,11.3,11.265l.318,210.326a11.285,11.285,0,0,1-11.269,11.3" transform="translate(-185.678 -100.877)" fill="#15d3ec" fill-rule="evenodd"/>
            <path id="Trazado_210833" data-name="Trazado 210833" d="M600.559,392.453l-290.737.429a10.287,10.287,0,0,1-10.308-10.274l-.28-187.628a10.293,10.293,0,0,1,10.28-10.309l290.741-.434a10.289,10.289,0,0,1,10.3,10.279l.28,187.627a10.3,10.3,0,0,1-10.28,10.31" transform="translate(-215.335 -132.58)" fill="#eff9fc" fill-rule="evenodd"/>
            <path id="Trazado_210834" data-name="Trazado 210834" d="M609.593,194.732l.01,5.325-311.7.459-.008-5.32c-.011-6.234,4.284-11.294,11.645-11.3l288.379-.43c7.763-.015,11.667,3.88,11.677,11.27" transform="translate(-214.369 -132.022)" fill="#bbdbfa" fill-rule="evenodd"/>
            <path id="Trazado_210835" data-name="Trazado 210835" d="M1262.518,205.074a3.144,3.144,0,1,1-3.146-3.136,3.149,3.149,0,0,1,3.146,3.136m22.57-.034a3.145,3.145,0,1,1-3.148-3.136,3.144,3.144,0,0,1,3.148,3.136m-11.284.02a3.144,3.144,0,1,1-3.152-3.142,3.143,3.143,0,0,1,3.152,3.142" transform="translate(-904.008 -145.294)" fill="#fff" fill-rule="evenodd"/>
            <path id="Trazado_210836" data-name="Trazado 210836" d="M183.852,954.772H339.276a2.46,2.46,0,0,0,2.509,2.355h60.44a2.463,2.463,0,0,0,2.509-2.355H560.159v9.947a10.156,10.156,0,0,1-10.31,9.945H190.81a6.85,6.85,0,0,1-6.958-6.712Z" transform="translate(-132.303 -687.072)" fill="#81d4fa" fill-rule="evenodd"/>
            <path id="Trazado_210837" data-name="Trazado 210837" d="M526.112,232.09q58.447-7.259,107.131-5.969c-6.394-19.292-11.724-42.04-16.572-63.487C601.8,96.809,591.225,26.59,574.123,26.947q-65.537-8.278-149.773,3.162c17.05-.092,27.61,69.986,42.45,135.685,12.487,55.263,28.2,119.18,57.016,110.321,16.606-4.523-23.689-39.125,1.508-43.922q.4-.068.788-.1" transform="translate(-305.37 -16.891)" fill="#dfedfa" fill-rule="evenodd"/>
            <path id="Trazado_210838" data-name="Trazado 210838" d="M894.421,745.735q-48.679-1.292-107.131,5.969c12.629-1.136,18.147,19.692,19.711,37.442,1.7,19.181,2.249,38.86,27.875,40.112q52.707-8.288,149.485-3.18h-.015c-25.236-1.441-25.787-21.009-27.473-40.092-1.6-18.113-7.317-39.435-20.5-37.342q-19.978-2.327-41.944-2.909Z" transform="translate(-566.549 -536.505)" fill="#d2e5f7" fill-rule="evenodd"/>
            <path id="Trazado_210839" data-name="Trazado 210839" d="M758.365,812.058q10.714-1.055,25.035-3.6c-.1-1.2-.209-2.4-.316-3.605-1.565-17.75-7.083-38.578-19.711-37.442l-.788.1c-25.2,4.8,15.1,39.4-1.508,43.922a18.355,18.355,0,0,1-2.712.623" transform="translate(-542.633 -552.212)" fill="#99c5f2" fill-rule="evenodd"/>
            <path id="Trazado_210840" data-name="Trazado 210840" d="M417.886,73.687c-5.224-16.339-10.8-26.585-17.326-26.545-1.933.009-3.944.918-6.061,2.841-5.044,5.7-3.363,14.533-.26,23.7Z" transform="translate(-281.58 -33.924)" fill="#99c5f2" fill-rule="evenodd"/>
            <path id="Trazado_210841" data-name="Trazado 210841" d="M537.685,102.331a1.525,1.525,0,1,1-.391-3.025c19.2-2.546,39.3-4.06,58.324-4.808,22.85-.9,44.131-.7,60.4.135a1.526,1.526,0,0,1-.16,3.049c-16.185-.826-37.376-1.029-60.119-.13-18.938.744-38.952,2.246-58.05,4.779m47.24,177.718a1.525,1.525,0,0,1-.538-3c18.4-3.321,37.7-5.674,55.943-7.244,21.912-1.884,42.422-2.644,58.152-2.565a1.524,1.524,0,1,1-.015,3.049c-15.579-.073-35.984.686-57.886,2.565-18.224,1.571-37.423,3.915-55.656,7.2M578.1,260.785a1.529,1.529,0,1,1-.446-3.026c18.709-2.768,38.354-4.542,56.953-5.552,22.308-1.215,43.123-1.324,59.041-.748a1.525,1.525,0,0,1-.105,3.049c-15.827-.57-36.545-.455-58.781.754-18.479,1-38.019,2.768-56.662,5.523m-4.982-17.853a1.528,1.528,0,0,1-.4-3.029c18.921-2.507,38.734-4,57.48-4.73,22.521-.891,43.5-.692,59.519.13a1.526,1.526,0,1,1-.158,3.049c-15.948-.816-36.831-1.014-59.24-.13-18.664.735-38.384,2.213-57.2,4.711m-5.378-16.354a1.527,1.527,0,0,1-.4-3.028c19.2-2.548,39.3-4.055,58.323-4.805,22.854-.9,44.141-.7,60.4.136a1.526,1.526,0,1,1-.162,3.048c-16.185-.825-37.376-1.029-60.113-.135-18.944.75-38.956,2.253-58.048,4.784m-2.892-17.75a1.525,1.525,0,1,1-.395-3.024c19.19-2.546,39.3-4.06,58.32-4.809,22.848-.9,44.141-.7,60.393.133a1.53,1.53,0,0,1-.154,3.056c-16.185-.831-37.376-1.029-60.119-.135-18.94.739-38.95,2.247-58.046,4.779m-2.588-17.749a1.526,1.526,0,1,1-.391-3.026c19.19-2.546,39.3-4.06,58.319-4.809,22.854-.9,44.137-.7,60.4.135a1.527,1.527,0,1,1-.156,3.051c-16.183-.827-37.374-1.031-60.119-.132-18.938.745-38.95,2.248-58.048,4.781m-4.115-17.751a1.525,1.525,0,0,1-.4-3.025c19.19-2.542,39.3-4.055,58.321-4.8,22.854-.9,44.137-.7,60.393.131a1.527,1.527,0,1,1-.154,3.049c-16.185-.827-37.376-1.025-60.119-.135-18.934.749-38.95,2.252-58.046,4.784m-3.812-17.746a1.525,1.525,0,0,1-.4-3.025c19.2-2.552,39.305-4.064,58.327-4.813,22.85-.894,44.135-.7,60.393.135a1.529,1.529,0,1,1-.154,3.054c-16.19-.827-37.376-1.03-60.119-.135-18.944.744-38.952,2.252-58.05,4.784m-3.808-17.75a1.528,1.528,0,1,1-.395-3.03c19.194-2.548,39.3-4.059,58.319-4.8,22.854-.9,44.143-.7,60.4.135a1.527,1.527,0,0,1-.158,3.049c-16.185-.827-37.376-1.03-60.121-.135-18.938.749-38.95,2.252-58.044,4.784m-5.036-17.751a1.525,1.525,0,1,1-.4-3.025c19.194-2.546,39.3-4.059,58.321-4.809,22.854-.9,44.137-.7,60.4.135a1.529,1.529,0,0,1-.158,3.054c-16.185-.831-37.38-1.033-60.119-.135-18.94.74-38.956,2.248-58.046,4.78" transform="translate(-385.689 -67.58)" fill="#99c5f2" fill-rule="evenodd"/>
            <path id="Trazado_210842" data-name="Trazado 210842" d="M900.413,794.293a1.526,1.526,0,1,1-.395-3.026c18.5-2.469,37.876-3.944,56.207-4.677,22.028-.884,42.539-.707,58.2.081a1.53,1.53,0,1,1-.139,3.056c-15.6-.79-36.022-.967-57.943-.083-18.25.729-37.53,2.193-55.934,4.649m9.437,31.382a1.527,1.527,0,0,1-.487-3.015c18.427-3.032,37.748-5.085,56.045-6.376,21.954-1.546,42.469-1.986,58.183-1.666a1.524,1.524,0,1,1-.062,3.048c-15.589-.314-36,.126-57.915,1.668-18.223,1.284-37.459,3.329-55.765,6.34m-3.711-17.108a1.526,1.526,0,1,1-.406-3.024c18.49-2.512,37.863-4.03,56.2-4.809,22.019-.938,42.533-.807,58.206-.053a1.526,1.526,0,1,1-.147,3.049c-15.6-.748-36.022-.88-57.943.053-18.239.778-37.515,2.287-55.914,4.784" transform="translate(-646.713 -565.62)" fill="#99c5f2" fill-rule="evenodd"/>
            <path id="Trazado_210843" data-name="Trazado 210843" d="M642.871,356.164V331.057h5.582v25.107a5.648,5.648,0,0,0,5.623,5.623h22v5.578h-22a11.231,11.231,0,0,1-11.205-11.2m0-90.957V240.1a11.237,11.237,0,0,1,11.205-11.207h22v5.582h-22a5.649,5.649,0,0,0-5.623,5.625v25.106Zm79.568-36.312h22.893a11.227,11.227,0,0,1,11.2,11.207v25.106h-5.576V240.1a5.658,5.658,0,0,0-5.625-5.625H722.439Zm34.094,102.162v25.107a11.221,11.221,0,0,1-11.2,11.2H722.439v-5.578h22.893a5.658,5.658,0,0,0,5.625-5.623V331.057Z" transform="translate(-462.622 -164.717)" fill="#ff9d00" fill-rule="evenodd"/>
            <path id="Trazado_210844" data-name="Trazado 210844" d="M713.5,299.314a42.73,42.73,0,0,1,40.945,40.947h7.69a1.755,1.755,0,0,1,0,3.509h-7.69A42.717,42.717,0,0,1,713.5,384.716V392.4a1.757,1.757,0,0,1-1.749,1.755h-.006a1.758,1.758,0,0,1-1.751-1.755v-7.684a42.728,42.728,0,0,1-40.951-40.945h-7.682a1.755,1.755,0,1,1,0-3.509h7.682a42.741,42.741,0,0,1,40.951-40.947v-7.683a1.758,1.758,0,0,1,1.751-1.755h.006a1.757,1.757,0,0,1,1.749,1.755Zm0,14.972a27.787,27.787,0,0,1,25.976,25.976h10.554a38.315,38.315,0,0,0-36.53-36.525Zm25.976,29.485A27.791,27.791,0,0,1,713.5,369.746V380.3a38.327,38.327,0,0,0,36.53-36.53ZM709.99,369.746a27.8,27.8,0,0,1-25.979-25.976H673.457A38.334,38.334,0,0,0,709.99,380.3Zm-25.979-29.485a27.794,27.794,0,0,1,25.979-25.976v-10.55a38.323,38.323,0,0,0-36.534,36.525Zm44.252-14.769a23.271,23.271,0,0,0-14.767-6.78v14.271a9.207,9.207,0,0,1,7.282,7.278h14.267a23.271,23.271,0,0,0-6.781-14.769m-18.272-6.78a23.366,23.366,0,0,0-21.548,21.549H702.7a9.217,9.217,0,0,1,7.286-7.278Zm-21.548,25.058a23.369,23.369,0,0,0,21.548,21.549v-14.27a9.228,9.228,0,0,1-7.286-7.278ZM713.5,365.319a23.382,23.382,0,0,0,21.548-21.549H720.778a9.225,9.225,0,0,1-7.282,7.278Z" transform="translate(-474.661 -208.6)" fill="#ff9d00" fill-rule="evenodd"/>
            <path id="Trazado_210845" data-name="Trazado 210845" d="M1603.433,365.331s1.982,12.933,2.343,18c.18,2.548.436,4.6-1.17,6.311,0,0,3.995.391,5.347-.714a3.491,3.491,0,0,1-.508.776s4.461.166,6.3-1.232c2.8-1.89.948-39.507-12.473-36.408,0,0-12.382-1.054-11.4,11.09-.208,14.426-1.369,26.87-2.336,29.382,1.392.8,4.756-1.821,5.172-2.975.368-1.015.57-2.2.677-2.5a29.156,29.156,0,0,1-.64,3.7s5-.564,7.143-2.178,2.152-20.744,1.542-23.251" transform="translate(-1143.862 -253.222)" fill="#12263f" fill-rule="evenodd"/>
            <path id="Trazado_210846" data-name="Trazado 210846" d="M1656.892,419.856c-.038-.151-.079-.292-.111-.427a10.429,10.429,0,0,0,.333-4.276c1.208-1.063,3.829-.155,6.041.523.963,8.911.957,17.93.421,18.6-1.117,1.392-3.814,1.232-3.814,1.232a4.3,4.3,0,0,0,.309-.782c-.816,1.106-3.228.715-3.228.715.967-1.715.813-3.759.708-6.312-.1-2.185-.373-5.834-.659-9.273" transform="translate(-1192.252 -298.401)" fill="#12263f" fill-rule="evenodd"/>
            <path id="Trazado_210847" data-name="Trazado 210847" d="M1512,896.063l1.478-.25h-.006Z" transform="translate(-1088.065 -644.644)" fill="#636466" fill-rule="evenodd"/>
            <path id="Trazado_210848" data-name="Trazado 210848" d="M1593.4,438.778h26.637c-1.9-4.775-4.634-8.23-6.706-8.651-1.1-.295-2.979-4.833-2.953-11.269l-.5.65-8.365,1.653s.194,2.635.194,5.114c.009,2.069-.1,4.171-.57,4.416-.6.055-1.151.166-1.151.166a21.506,21.506,0,0,0-6.582,7.921" transform="translate(-1146.644 -301.418)" fill="#ffb27d" fill-rule="evenodd"/>
            <path id="Trazado_210849" data-name="Trazado 210849" d="M1622.325,422.822s.194,2.635.194,5.114c4.689-.132,7.156-4.4,8.172-6.77Z" transform="translate(-1167.457 -303.078)" fill="#f08261" fill-rule="evenodd"/>
            <path id="Trazado_210850" data-name="Trazado 210850" d="M1618.156,380.762c.011-6.9,1.444-11.521-5.625-11.932s-8.446,2.228-9.014,4.529a30.381,30.381,0,0,0,.649,10.623c2.45,8.92,13.986,1.271,13.99-3.22" transform="translate(-1153.767 -265.387)" fill="#ffb27d" fill-rule="evenodd"/>
            <path id="Trazado_210851" data-name="Trazado 210851" d="M1476.835,553.5s-3.692-3.015-5.021-3.035-3.846-.675-3.75-.244,2.223.995,1.862,1.2-3.445-.634-4.31-.135-2.885,2.552-1.264,3.451,6.5,2.319,7.763,2.155,4.111-.369,4.111-.369Z" transform="translate(-1053.336 -395.845)" fill="#ffb27d" fill-rule="evenodd"/>
            <path id="Trazado_210852" data-name="Trazado 210852" d="M1658.363,962.566l-3.1,13.048-4.638-.03-.169-13.018Z" transform="translate(-1187.701 -692.681)" fill="#ffb27d" fill-rule="evenodd"/>
            <path id="Trazado_210853" data-name="Trazado 210853" d="M1508.046,960.148l-8.815,12.488-3.436-4.412,5.307-9.8Z" transform="translate(-1076.404 -689.702)" fill="#ffb27d" fill-rule="evenodd"/>
            <path id="Trazado_210854" data-name="Trazado 210854" d="M1500.772,729.125l4.544.141,4.91.151a97.044,97.044,0,0,0,17.712-32.887c.148-.468.3-.948.468-1.429,3.485-10.155,10.7-22.909,14.513-34.442.6-1.843,1.145-3.568,1.634-5.206.158-.527.308-1.038.453-1.546a122.439,122.439,0,0,0,4.369-22.98l-27.484.222a512.213,512.213,0,0,1-21.12,97.976" transform="translate(-1079.984 -454.027)" fill="#7e5ee3" fill-rule="evenodd"/>
            <path id="Trazado_210855" data-name="Trazado 210855" d="M1579.6,484.009c.068,13.073-1.918,18.683-1.918,18.683a36.873,36.873,0,0,0,25.742,1.58c.169-.057,11.581-2.658,11.581-2.658-.233-.532-2.317-9.341-2.542-9.83-2.953-6.334-5.194-9.117-5.544-11.065a41.535,41.535,0,0,1-.342-10.951,87.954,87.954,0,0,1,3.393-17.2,89.992,89.992,0,0,1-11.342-3.88c-.912,1.136-3.7,2.324-6.118,2.27-2.789-.062-3.694-1.256-3.547-2.556-2.968,1.651-5.337,3.212-5.337,3.212-2.521,4.386-7.636,8.636-8.012,15.36-.086,1.653,3.983,16.672,3.987,17.04" transform="translate(-1133.838 -322.676)" fill="#dfedfa" fill-rule="evenodd"/>
            <path id="Trazado_210856" data-name="Trazado 210856" d="M1630.572,449.126a20.282,20.282,0,0,1-4.209,1.933,8.326,8.326,0,0,1-4.079.367,3.964,3.964,0,0,1-2.76-1.888,4.837,4.837,0,0,1-.438-1.007l1.111-.338a3.568,3.568,0,0,0,.333.751,2.842,2.842,0,0,0,1.976,1.346,7.229,7.229,0,0,0,3.513-.346,18.838,18.838,0,0,0,3.959-1.822Z" transform="translate(-1165.125 -322.477)" fill="#4f8ecc" fill-rule="evenodd"/>
            <path id="Trazado_210857" data-name="Trazado 210857" d="M1652.768,1006.5a12.51,12.51,0,0,0,.589,5.349s.758,3.457-2.65,3.524-4.243-.261-3.855-2.377,1.117-5.8,1.117-5.8Z" transform="translate(-1185.043 -724.296)" fill="#ffb27d" fill-rule="evenodd"/>
            <path id="Trazado_210858" data-name="Trazado 210858" d="M1645.453,1030.922c2.17,4.088,5.258,3.793,7.466,0,.3-1.536-.37-4.809-.482-5.437-.005-.047-.015-.081-.019-.107a.152.152,0,0,1-.006-.034c-3.857,3.534-6.272-.09-6.272-.09s-.005.01-.011.019a23.235,23.235,0,0,0-.677,5.649" transform="translate(-1184.099 -737.792)" fill="#284191" fill-rule="evenodd"/>
            <path id="Trazado_210859" data-name="Trazado 210859" d="M1466.51,1003.887s6.281-6.973,8.211-10.52l4.674,2.4-10.44,9.8-2.445-.32Z" transform="translate(-1055.329 -714.846)" fill="#ffb27d" fill-rule="evenodd"/>
            <path id="Trazado_210860" data-name="Trazado 210860" d="M1452.291,1014.124h7.9c1.158,0,2.091-1.928,3.344-4.436a4.231,4.231,0,0,1,2.847-1.905l-.034,6.341h1.824l1.683-6.7c1.111-2.044.087-3.9-.7-5.511-.908,0-3.365.621-8,5.849a6.083,6.083,0,0,1-4.882,2.275.32.32,0,0,1-.068.038c-3.856,1.735-3.919,4.051-3.919,4.051" transform="translate(-1045.097 -720.994)" fill="#284191" fill-rule="evenodd"/>
            <path id="Trazado_210861" data-name="Trazado 210861" d="M1516.977,780.368l4.911.151a97.046,97.046,0,0,0,17.712-32.887c.149-.468.3-.948.468-1.429,3.485-10.155,10.7-22.909,14.513-34.442.6-1.843,1.146-3.568,1.635-5.206.158-.527.308-1.038.453-1.546l-4.045-3.069s-12.149,19.673-15.91,38.188c-3.265,16.078-16.347,35.428-19.736,40.24" transform="translate(-1091.646 -505.129)" fill="#3b5bb3" fill-rule="evenodd"/>
            <path id="Trazado_210862" data-name="Trazado 210862" d="M1635.678,728.438c-.072,9,.384,29.7,1.557,38.271h4.348c2.407,0,3.607-.034,3.607-.034,2.941-14.9,5.029-27.228,6.556-37.85,1.252-8.719,2.364-16.195,3.216-22.623.86-6.48,1.459-11.9,1.676-16.48.028-.724.055-1.425.068-2.106s.021-1.348.009-2l-23.737-2.315c.3,15.779,2.734,39.9,2.7,45.132" transform="translate(-1175.122 -491.72)" fill="#7e5ee3" fill-rule="evenodd"/>
            <path id="Trazado_210863" data-name="Trazado 210863" d="M1663.67,783.179c2.407,0,3.607-.034,3.607-.034,2.942-14.9,5.029-27.228,6.556-37.85,1.253-8.719,2.364-16.195,3.216-22.623.859-6.48,1.46-11.9,1.676-16.48l-8.713,5.123s5.557,1.963,3.436,16.813-6.825,52.948-9.777,55.05" transform="translate(-1197.209 -508.19)" fill="#3b5bb3" fill-rule="evenodd"/>
            <path id="Trazado_210864" data-name="Trazado 210864" d="M1638.861,521.383s1.672,6.046,7.457,5.272,14.011-4.243,14.011-4.243-2.471-7.814-5.544-18.073c-3.726-12.431-4.649-29.895-6.819-40-.609-2.827-4.711-3.75-4.867-5.441l-4.8-9.313s-7.156,16.059-7.543,20.113,8.1,51.686,8.1,51.686" transform="translate(-1173.516 -323.529)" fill="#15d3ec" fill-rule="evenodd"/>
            <path id="Trazado_210865" data-name="Trazado 210865" d="M1674.092,533.511c.256,6.561,2.546,17.746,11.767,22.66.039.024.073.037.11.058-3.725-12.431-3.678-24.347-5.847-34.457-4.954-1.031-6.176,8.132-6.031,11.739" transform="translate(-1204.701 -375.419)" fill="#4f8ecc" fill-rule="evenodd"/>
            <path id="Trazado_210866" data-name="Trazado 210866" d="M1693.907,614.944s-4.132-.895-5.2.289-1.662,3.055-.6,3.713,4.138-1.151,5.243-.417c.786.523,1.038,1.853,1.836,1.385s1.634-3.51,1.634-3.51Z" transform="translate(-1214.397 -442.292)" fill="#ffb27d" fill-rule="evenodd"/>
            <path id="Trazado_210867" data-name="Trazado 210867" d="M1657.694,449.584s11.154.487,13.836,2.977,18.735,21.729,19,26.773-14.063,19.371-14.063,19.371-3.979-.963-5.7-3.466c0,0,8.886-15.852,8.36-16.542s-15.591-13.029-16.822-10.293c-1.069,2.358-4.606-18.82-4.606-18.82" transform="translate(-1192.909 -323.529)" fill="#15d3ec" fill-rule="evenodd"/>
            <path id="Trazado_210868" data-name="Trazado 210868" d="M1502.536,478.7s12.736,4.247,14.331,3.889,3.867-17.61,5.093-23.525c1.586-7.615,7.621-9.134,7.621-9.134l5.729-1.531s-6.56,16.2-6.752,19.479-.769,53.62-.769,53.62.387,2.314-4.055,1.348-5.591-1.93-5.591-1.93,1.924-14.071,2.829-26.564c-4.521-.769-19.051-8.134-19.051-8.134-2.257-3.543.617-7.519.617-7.519" transform="translate(-1080.188 -322.676)" fill="#15d3ec" fill-rule="evenodd"/>
            <path id="Trazado_210869" data-name="Trazado 210869" d="M1600.305,367.391c-5.881,3.45-4.03,5.8-5.552,8.936,0,0-1.764-6.06,1-9.405,2.928-3.547,4.557.469,4.557.469" transform="translate(-1147.216 -262.991)" fill="#12263f" fill-rule="evenodd"/>
            <path id="Trazado_210870" data-name="Trazado 210870" d="M1605.214,367.112q1.173-.55,1.629.228a3.781,3.781,0,0,1-1.736,2.74,4.848,4.848,0,0,0,.108-2.968" transform="translate(-1155.066 -264.017)" fill="#12263f" fill-rule="evenodd"/>
            <path id="Trazado_210871" data-name="Trazado 210871" d="M1633.179,352.18c-1.034-.29-1.478-.8-1.339-1.532a4.67,4.67,0,0,1,3.844-1.165q-1.095.37-2.505,2.7" transform="translate(-1174.286 -251.452)" fill="#12263f" fill-rule="evenodd"/>
            <path id="Trazado_210872" data-name="Trazado 210872" d="M1651.816,391.914q-3.4-2.03-5.016.2a11.513,11.513,0,0,0,4.452,8.863q-1.2-2.6.564-9.066" transform="translate(-1185.069 -281.333)" fill="#12263f" fill-rule="evenodd"/>
            <path id="Trazado_210873" data-name="Trazado 210873" d="M1597.961,376.534q-.956-3.566-1.986-2.1a30.487,30.487,0,0,0,.135,10.806,29.776,29.776,0,0,1,1.851-8.709" transform="translate(-1148.196 -269.143)" fill="#12263f" fill-rule="evenodd"/>
            <path id="Trazado_210874" data-name="Trazado 210874" d="M1601.328,369.282c.831-2.32-1.583-2.18-2.712-1.769a30.577,30.577,0,0,0-6.059,8.955c2.065-1.793,8.989-5.137,8.771-7.186" transform="translate(-1146.035 -264.297)" fill="#12263f" fill-rule="evenodd"/>
            <path id="Trazado_210875" data-name="Trazado 210875" d="M1633.464,351.346a1.594,1.594,0,0,0,.523-1.532c-.459-.991-.963-1.378-1.493-1.161a6.773,6.773,0,0,1,.97,2.692" transform="translate(-1174.774 -250.856)" fill="#284191" fill-rule="evenodd"/>
            <path id="Trazado_210876" data-name="Trazado 210876" d="M1628.315,459.173c-.639-.107-1.286.555-1.446,1.48s.231,1.762.865,1.873,1.285-.549,1.45-1.478-.233-1.764-.869-1.875" transform="translate(-1170.701 -330.421)" fill="#4f8ecc" fill-rule="evenodd"/>
            <path id="Trazado_210877" data-name="Trazado 210877" d="M1627.207,469.306c-.391-.068-.792.342-.888.912s.139,1.087.53,1.155.793-.337.891-.912-.141-1.083-.534-1.155" transform="translate(-1170.315 -337.716)" fill="#4f8ecc" fill-rule="evenodd"/>
            <path id="Trazado_210878" data-name="Trazado 210878" d="M1626.128,475.645c-.35-.062-.7.3-.782.8s.124.957.472,1.014.69-.3.779-.8-.122-.955-.469-1.014" transform="translate(-1169.616 -342.278)" fill="#4f8ecc" fill-rule="evenodd"/>
            <path id="Trazado_210879" data-name="Trazado 210879" d="M1624.995,393.01c2.654-.908,2.31-.793,4.525.3a2.981,2.981,0,0,0-3.553-1.257c-.656.184-.773.169-.972.957" transform="translate(-1169.378 -282.018)" fill="#125aa3" fill-rule="evenodd"/>
            <path id="Trazado_210880" data-name="Trazado 210880" d="M1629.675,396.69c.291,0,.521-.319.521-.711s-.229-.705-.521-.705-.521.319-.521.705.231.711.521.711" transform="translate(-1172.371 -284.447)" fill="#125aa3" fill-rule="evenodd"/>
            <path id="Trazado_210881" data-name="Trazado 210881" d="M1604.687,393.448c-2.539-.908-2.2-.787-4.322.3a2.8,2.8,0,0,1,3.393-1.256c.628.188.741.169.929.956" transform="translate(-1151.654 -282.336)" fill="#125aa3" fill-rule="evenodd"/>
            <path id="Trazado_210882" data-name="Trazado 210882" d="M1608.391,397.581c-.289.039-.564-.242-.617-.628a.637.637,0,0,1,.429-.773c.29-.038.566.242.621.628a.64.64,0,0,1-.433.773" transform="translate(-1156.979 -285.096)" fill="#125aa3" fill-rule="evenodd"/>
            <path id="Trazado_210883" data-name="Trazado 210883" d="M1619.812,405.6h-.623a1.2,1.2,0,0,1-.88-.218,1.091,1.091,0,0,1-.194-.807,5.138,5.138,0,0,1,.141-.856,11.132,11.132,0,0,0,.279-2.092.213.213,0,0,1,.208-.2h.006a.212.212,0,0,1,.2.213,11.555,11.555,0,0,1-.3,2.169,4.538,4.538,0,0,0-.126.779.845.845,0,0,0,.071.508c.079.077.29.09.587.09h.623a.209.209,0,0,1,0,.418" transform="translate(-1164.426 -288.875)" fill="#fc9774"/>
            <path id="Trazado_210884" data-name="Trazado 210884" d="M1615.725,360.054s3.257,8.7,8.26,9.984,7.171-.054,7.171-.054a14.149,14.149,0,0,1-4.63-8.365s-8.352-5.708-10.8-1.566" transform="translate(-1162.707 -258.017)" fill="#12263f" fill-rule="evenodd"/>
            <path id="Trazado_210885" data-name="Trazado 210885" d="M1624.953,368.923h0a16.981,16.981,0,0,1-4.262-.6c-5.48-1.4-8.854-10.268-8.993-10.641l-.179-.483.261-.44a4.186,4.186,0,0,1,3.859-2.03c3.651,0,8.271,3.128,8.463,3.257l.387.266.068.459a13.212,13.212,0,0,0,4.239,7.689l1.177.947-1.285.8a7.326,7.326,0,0,1-3.737.774m-11.042-11.459c1.066,2.576,3.914,7.921,7.31,8.8a15.159,15.159,0,0,0,3.731.527,9.363,9.363,0,0,0,1.126-.068,15.229,15.229,0,0,1-3.556-7.2c-1.1-.7-4.412-2.648-6.884-2.648a2.282,2.282,0,0,0-1.728.594" transform="translate(-1159.68 -255.273)" fill="#12263f"/>
            <path id="Trazado_210886" data-name="Trazado 210886" d="M1615.188,360.044s.822,6.263,4.794,8.714c0,0-3.76-4.239-3.634-8.293s-1.16-.421-1.16-.421" transform="translate(-1162.321 -258.017)" fill="#12263f" fill-rule="evenodd"/>
            <path id="Trazado_210887" data-name="Trazado 210887" d="M1609.423,396.189c.049,0,.1.121.1.265s-.047.266-.1.266-.1-.121-.1-.266.04-.265.1-.265" transform="translate(-1158.101 -285.105)" fill="#a4d0fc" fill-rule="evenodd"/>
            <path id="Trazado_210888" data-name="Trazado 210888" d="M1630.1,395.636c.053,0,.1.117.1.266s-.049.265-.1.265-.092-.12-.092-.265.037-.266.092-.266" transform="translate(-1172.988 -284.707)" fill="#a4d0fc" fill-rule="evenodd"/>
            <path id="Trazado_210889" data-name="Trazado 210889" d="M1636.736,377.831h-.006c-2.933-.082-5.548-2.054-7.765-5.862a.145.145,0,0,1,.25-.145c2.163,3.721,4.694,5.645,7.526,5.717a.149.149,0,0,1,.139.149.147.147,0,0,1-.145.14" transform="translate(-1172.221 -267.521)" fill="#3b5bb3"/>
            <path id="Trazado_210890" data-name="Trazado 210890" d="M1671.073,398.163h0a.149.149,0,0,1-.145-.147,47.673,47.673,0,0,0-4.011-19.006.137.137,0,0,1,.073-.188.133.133,0,0,1,.188.072,47.949,47.949,0,0,1,4.04,19.121.149.149,0,0,1-.145.147" transform="translate(-1199.536 -272.595)" fill="#3b5bb3"/>
            <path id="Trazado_210891" data-name="Trazado 210891" d="M1599.636,377.066a.141.141,0,0,1-.09-.034.146.146,0,0,1-.021-.2,36.563,36.563,0,0,1,4.076-4.025.138.138,0,0,1,.2.015.148.148,0,0,1-.021.2,35.752,35.752,0,0,0-4.034,3.992.156.156,0,0,1-.113.052" transform="translate(-1151.026 -268.249)" fill="#3b5bb3"/>
            <path id="Trazado_210892" data-name="Trazado 210892" d="M1612.855,356.936a.154.154,0,0,1-.1-.038.145.145,0,0,1-.011-.2c.852-.923,3.088-1.73,5.575-2.005,0,0,.007,0,.013,0a.144.144,0,0,1,.141.131.136.136,0,0,1-.126.154c-2.379.271-4.6,1.059-5.388,1.918a.158.158,0,0,1-.107.049" transform="translate(-1160.538 -255.237)" fill="#12263f"/>
            <path id="Trazado_210893" data-name="Trazado 210893" d="M1658.941,426.129a.149.149,0,0,1-.141-.111,68.09,68.09,0,0,1-1.091-7.035.137.137,0,0,1,.12-.16.033.033,0,0,1,.019-.006.137.137,0,0,1,.139.126,67.836,67.836,0,0,0,1.094,7.007.145.145,0,0,1-.107.175c-.009,0-.024,0-.034,0" transform="translate(-1192.919 -301.389)" fill="#3b5bb3"/>
            <path id="Trazado_210894" data-name="Trazado 210894" d="M1367.617,385.856l-2.735,1.59a1.948,1.948,0,0,0-.7,2.655l.605,1.042c.715,1.222.4,1.779.177,1.978-.609.54-1.174,1.136-1.738,1.725-.169.175-.7.769-2.088-.043l-.959-.557a1.946,1.946,0,0,0-2.652.7l-1.591,2.74a1.944,1.944,0,0,0,.7,2.651l.946.553c1.305.758,1.271,1.143,1.1,1.7-.222.76-.462,1.524-.632,2.306-.15.7-.082,1.2-1.856,1.2h-1.087a1.94,1.94,0,0,0-1.942,1.937v3.171a1.94,1.94,0,0,0,1.942,1.937h1.087c1.774,0,1.706.5,1.856,1.2.17.783.41,1.546.632,2.306.169.549.2.942-1.1,1.7l-.946.551a1.946,1.946,0,0,0-.7,2.654l1.591,2.734a1.948,1.948,0,0,0,2.652.707l.959-.557c1.392-.813,1.918-.218,2.088-.043.564.589,1.128,1.179,1.738,1.725.222.2.538.754-.177,1.982l-.605,1.038a1.946,1.946,0,0,0,.7,2.654l2.735,1.589a1.948,1.948,0,0,0,2.657-.7l.6-1.034c.724-1.247,1.441-1.2,1.74-1.1.871.28,1.681.459,2.58.692.329.086.891.324.891,1.805v1.113a1.945,1.945,0,0,0,1.941,1.941h3.171a1.942,1.942,0,0,0,1.937-1.941v-1.113c0-1.482.566-1.719.9-1.805.9-.233,1.706-.412,2.58-.692.3-.1,1.016-.145,1.734,1.1l.605,1.034a1.942,1.942,0,0,0,2.652.7l2.736-1.589a1.946,1.946,0,0,0,.705-2.654l-.6-1.038c-.717-1.228-.4-1.783-.183-1.982.607-.545,1.174-1.136,1.738-1.725.169-.174.7-.769,2.087.043l.959.557a1.946,1.946,0,0,0,2.652-.707l1.595-2.734a1.948,1.948,0,0,0-.7-2.654l-.948-.551c-1.305-.758-1.275-1.151-1.113-1.7.233-.76.474-1.523.64-2.306.15-.7.083-1.2,1.862-1.2h1.087a1.942,1.942,0,0,0,1.941-1.937v-3.171a1.942,1.942,0,0,0-1.941-1.937h-1.087c-1.779,0-1.711-.5-1.862-1.2-.166-.783-.406-1.546-.64-2.306-.162-.556-.192-.942,1.113-1.7l.948-.553a1.946,1.946,0,0,0,.7-2.651l-1.595-2.74a1.945,1.945,0,0,0-2.652-.7l-.959.557c-1.391.812-1.918.218-2.087.043-.564-.589-1.13-1.185-1.738-1.725-.218-.2-.534-.756.183-1.978l.6-1.042a1.948,1.948,0,0,0-.705-2.655l-2.736-1.59a1.94,1.94,0,0,0-2.652.7l-.605,1.033c-.719,1.246-1.433,1.2-1.734,1.1-.875-.281-1.682-.46-2.58-.692-.329-.086-.9-.323-.9-1.807v-1.112a1.941,1.941,0,0,0-1.937-1.943h-3.171a1.944,1.944,0,0,0-1.941,1.943v1.112c0,1.484-.562,1.721-.891,1.807-.9.232-1.71.411-2.58.692-.3.1-1.016.143-1.74-1.1l-.6-1.033a1.947,1.947,0,0,0-2.657-.7m11.995,8.235a15.532,15.532,0,1,1-15.532,15.532,15.533,15.533,0,0,1,15.532-15.532" transform="translate(-973.766 -275.715)" fill="#ed5d1f" fill-rule="evenodd"/>
            <path id="Trazado_210895" data-name="Trazado 210895" d="M1371.271,385.856l-2.734,1.59a1.951,1.951,0,0,0-.705,2.655l.6,1.042c.715,1.222.406,1.779.184,1.978-.609.54-1.173,1.136-1.741,1.725-.167.175-.7.769-2.088-.043l-.956-.557a1.946,1.946,0,0,0-2.653.7l-1.589,2.74a1.943,1.943,0,0,0,.7,2.651l.944.553c1.309.758,1.275,1.143,1.11,1.7-.231.76-.474,1.524-.638,2.306-.148.7-.081,1.2-1.856,1.2h-1.091a1.946,1.946,0,0,0-1.944,1.937v3.171a1.946,1.946,0,0,0,1.944,1.937h1.091c1.775,0,1.708.5,1.856,1.2.164.783.406,1.546.638,2.306.165.549.2.942-1.11,1.7l-.944.551a1.945,1.945,0,0,0-.7,2.654l1.589,2.734a1.948,1.948,0,0,0,2.653.707l.956-.557c1.392-.813,1.92-.218,2.088-.043.568.589,1.132,1.179,1.741,1.725.222.2.531.754-.184,1.982l-.6,1.038a1.949,1.949,0,0,0,.705,2.654l2.734,1.589a1.946,1.946,0,0,0,2.656-.7l.6-1.034c.726-1.247,1.437-1.2,1.736-1.1.875.28,1.683.459,2.582.692.328.086.892.324.892,1.805v1.113a1.948,1.948,0,0,0,1.939,1.941h3.171a1.948,1.948,0,0,0,1.943-1.941v-1.113c0-1.482.561-1.719.888-1.805.9-.233,1.712-.412,2.582-.692.3-.1,1.014-.145,1.74,1.1l.6,1.034a1.951,1.951,0,0,0,2.659.7l2.734-1.589a1.948,1.948,0,0,0,.707-2.654l-.609-1.038c-.711-1.228-.4-1.783-.181-1.982.609-.545,1.176-1.136,1.741-1.725.169-.174.7-.769,2.088.043l.955.557a1.951,1.951,0,0,0,2.655-.707l1.589-2.734a1.946,1.946,0,0,0-.7-2.654l-.948-.551c-1.305-.758-1.271-1.151-1.1-1.7.224-.76.47-1.523.639-2.306.145-.7.077-1.2,1.851-1.2h1.087a1.941,1.941,0,0,0,1.942-1.937v-3.171a1.941,1.941,0,0,0-1.942-1.937h-1.087c-1.773,0-1.706-.5-1.851-1.2-.169-.783-.416-1.546-.639-2.306-.169-.556-.2-.942,1.1-1.7l.948-.553a1.944,1.944,0,0,0,.7-2.651l-1.589-2.74a1.949,1.949,0,0,0-2.655-.7l-.955.557c-1.392.812-1.918.218-2.088.043-.566-.589-1.132-1.185-1.741-1.725-.222-.2-.53-.756.181-1.978l.609-1.042a1.95,1.95,0,0,0-.707-2.655l-2.734-1.59a1.95,1.95,0,0,0-2.659.7l-.6,1.033c-.726,1.246-1.441,1.2-1.74,1.1-.87-.281-1.677-.46-2.582-.692-.327-.086-.888-.323-.888-1.807v-1.112a1.947,1.947,0,0,0-1.943-1.943h-3.171a1.946,1.946,0,0,0-1.939,1.943v1.112c0,1.484-.564,1.721-.892,1.807-.9.232-1.708.411-2.582.692-.3.1-1.01.143-1.736-1.1l-.6-1.033a1.944,1.944,0,0,0-2.656-.7m11.991,8.235a15.532,15.532,0,1,1-15.532,15.532,15.533,15.533,0,0,1,15.532-15.532" transform="translate(-976.391 -275.715)" fill="#ff9d00" fill-rule="evenodd"/>
            <path id="Trazado_210896" data-name="Trazado 210896" d="M1370.664,385.335l-2.74,1.595a1.643,1.643,0,0,0-.76,1,1.623,1.623,0,0,0,.169,1.241l.6,1.038a3.224,3.224,0,0,1,.48,1.305,1.2,1.2,0,0,1-.354,1.049c-.572.508-1.106,1.072-1.647,1.629l-.083.083-.005.008c-.217.227-.875.918-2.451,0l-.955-.555a1.643,1.643,0,0,0-1.243-.164,1.659,1.659,0,0,0-.995.758l-1.58,2.721c-.011.01-.011.023-.019.034a1.628,1.628,0,0,0-.162,1.226,1.645,1.645,0,0,0,.741.986.068.068,0,0,1,.038.027l.929.53a3.06,3.06,0,0,1,1.223,1.053,1.224,1.224,0,0,1,.022,1l-.115.369v0c-.194.634-.385,1.275-.517,1.909-.015.068-.024.117-.034.164-.145.756-.241,1.277-2.118,1.277H1358a1.653,1.653,0,0,0-1.64,1.638v3.171a1.654,1.654,0,0,0,1.64,1.638h1.091c1.877,0,1.973.521,2.118,1.275.009.049.019.1.034.163l0,.012a19.512,19.512,0,0,0,.519,1.9v.015l.109.357a1.224,1.224,0,0,1-.022,1,3.029,3.029,0,0,1-1.223,1.047l-.948.551a1.664,1.664,0,0,0-.76,1,1.643,1.643,0,0,0,.169,1.241l1.591,2.74a1.645,1.645,0,0,0,.995.758,1.625,1.625,0,0,0,1.243-.164l.955-.555c1.576-.919,2.234-.229,2.451,0l.005,0,.087.09c.538.557,1.078,1.117,1.643,1.621a1.211,1.211,0,0,1,.354,1.053,3.223,3.223,0,0,1-.48,1.306l-.6,1.038a1.623,1.623,0,0,0-.169,1.242,1.664,1.664,0,0,0,.76,1l2.74,1.591a1.641,1.641,0,0,0,2.236-.594l.606-1.035a2.921,2.921,0,0,1,.932-1.053,1.375,1.375,0,0,1,1.159-.184c.61.2,1.209.348,1.832.5.209.055.422.107.73.184a1.235,1.235,0,0,1,.741.5,2.736,2.736,0,0,1,.38,1.6v1.113a1.653,1.653,0,0,0,1.634,1.638h3.171a1.65,1.65,0,0,0,1.638-1.638v-1.113a2.743,2.743,0,0,1,.376-1.6,1.245,1.245,0,0,1,.745-.5c.3-.077.523-.13.73-.184.624-.154,1.222-.3,1.835-.5a1.36,1.36,0,0,1,1.151.184,2.907,2.907,0,0,1,.937,1.053l.594,1.019a.309.309,0,0,1,.02.034,1.647,1.647,0,0,0,2.214.585.154.154,0,0,1,.034-.02l2.7-1.569a.232.232,0,0,1,.038-.02,1.616,1.616,0,0,0,.741-.991,1.646,1.646,0,0,0-.154-1.226.159.159,0,0,1-.021-.034l-.594-1.019a3.226,3.226,0,0,1-.474-1.306,1.216,1.216,0,0,1,.352-1.053c.568-.5,1.1-1.059,1.64-1.616l.087-.1.009,0,.015-.015c.231-.243.893-.88,2.432.015l.936.54a.357.357,0,0,0,.038.02,1.6,1.6,0,0,0,1.222.158,1.656,1.656,0,0,0,.993-.739.084.084,0,0,1,.019-.039l1.58-2.72a1.635,1.635,0,0,0,.169-1.241,1.655,1.655,0,0,0-.76-1l-.946-.551a3.008,3.008,0,0,1-1.224-1.047,1.232,1.232,0,0,1-.023-1l.111-.372c.194-.634.386-1.277.521-1.911.015-.067.021-.114.034-.163.141-.754.243-1.275,2.118-1.275H1407a1.65,1.65,0,0,0,1.644-1.638v-3.171a1.649,1.649,0,0,0-.483-1.159v0a1.641,1.641,0,0,0-1.161-.483h-1.087c-1.875,0-1.977-.521-2.118-1.277-.013-.047-.019-.1-.034-.164v-.009c-.135-.632-.327-1.266-.521-1.9v-.013l-.111-.363a1.231,1.231,0,0,1,.023-1,3.039,3.039,0,0,1,1.224-1.053l.946-.545a1.637,1.637,0,0,0,.591-2.242l-1.591-2.737v-.006a1.655,1.655,0,0,0-2.242-.589l-.009.006-.946.549c-1.573.918-2.234.227-2.447,0l-.009-.008-.083-.088c-.542-.555-1.076-1.115-1.644-1.623a1.2,1.2,0,0,1-.352-1.049,3.227,3.227,0,0,1,.474-1.305l.6-1.038h0a1.635,1.635,0,0,0,.162-1.241,1.611,1.611,0,0,0-.76-1v0l-2.735-1.59a1.645,1.645,0,0,0-2.238.589l-.605,1.039a2.906,2.906,0,0,1-.937,1.053,1.367,1.367,0,0,1-1.151.184c-.613-.194-1.211-.348-1.835-.5-.207-.054-.425-.106-.73-.188a1.225,1.225,0,0,1-.745-.493,2.767,2.767,0,0,1-.376-1.6V384.3a1.642,1.642,0,0,0-1.638-1.638h-3.171a1.645,1.645,0,0,0-1.634,1.638v1.112a2.76,2.76,0,0,1-.38,1.6,1.214,1.214,0,0,1-.741.493c-.308.082-.521.135-.73.188-.622.155-1.222.309-1.832.5a1.383,1.383,0,0,1-1.159-.184,2.921,2.921,0,0,1-.932-1.053l-.606-1.039a1.644,1.644,0,0,0-2.236-.589m-3.041,1.068,2.737-1.594a2.238,2.238,0,0,1,3.063.816l.61,1.034a2.33,2.33,0,0,0,.73.846.776.776,0,0,0,.652.12c.653-.212,1.247-.363,1.871-.517l.719-.183a.65.65,0,0,0,.4-.261,2.194,2.194,0,0,0,.265-1.252V384.3a2.25,2.25,0,0,1,2.241-2.247h3.171a2.25,2.25,0,0,1,2.242,2.247v1.112a2.141,2.141,0,0,0,.271,1.252.65.65,0,0,0,.4.261l.724.183c.619.154,1.217.3,1.871.517a.773.773,0,0,0,.651-.12,2.371,2.371,0,0,0,.736-.846l.6-1.034a2.249,2.249,0,0,1,1.367-1.044,2.22,2.22,0,0,1,1.691.228h.011l2.72,1.584a.114.114,0,0,1,.039.024,2.261,2.261,0,0,1,.8,3.036c-.011.013-.015.022-.026.038l-.589,1.019a2.72,2.72,0,0,0-.4,1.053.592.592,0,0,0,.158.545c.59.534,1.136,1.095,1.674,1.655l.083.086.008.015c.135.139.547.568,1.711-.107l.936-.547a.4.4,0,0,1,.04-.023,2.251,2.251,0,0,1,3.035.807c.01.009.01.024.021.04l1.58,2.719a2.25,2.25,0,0,1-.809,3.064l-.946.551a2.5,2.5,0,0,0-.987.8.737.737,0,0,0,.015.551l.113.358,0,.015c.188.632.381,1.272.526,1.947v.009c.015.052.024.117.037.18.089.463.147.783,1.524.783H1407a2.25,2.25,0,0,1,2.247,2.242v3.171a2.253,2.253,0,0,1-2.247,2.242h-1.087c-1.377,0-1.435.32-1.524.782-.013.064-.022.126-.037.181-.139.681-.335,1.318-.526,1.956l-.117.373a.737.737,0,0,0-.015.551,2.524,2.524,0,0,0,.987.8l.946.549a2.252,2.252,0,0,1,.809,3.065l-1.591,2.734v0a2.254,2.254,0,0,1-3.063.818v-.006l-.958-.555c-1.121-.652-1.546-.277-1.7-.122l-.015.015-.008.011-.089.1c-.54.56-1.078,1.115-1.668,1.647a.6.6,0,0,0-.158.547,2.73,2.73,0,0,0,.4,1.053l.6,1.038a2.23,2.23,0,0,1,.222,1.7,2.2,2.2,0,0,1-1.034,1.366v0l-2.719,1.58-.019.011a2.252,2.252,0,0,1-3.054-.79l-.006,0-.006-.015,0,0-.6-1.035a2.338,2.338,0,0,0-.736-.846.748.748,0,0,0-.651-.117c-.655.209-1.252.357-1.871.512-.265.064-.532.132-.724.184a.65.65,0,0,0-.4.261,2.139,2.139,0,0,0-.271,1.251v1.113a2.25,2.25,0,0,1-2.242,2.246h-3.171a2.25,2.25,0,0,1-2.241-2.246v-1.113a2.193,2.193,0,0,0-.265-1.251.65.65,0,0,0-.4-.261c-.184-.049-.455-.117-.719-.184-.624-.154-1.219-.3-1.871-.512a.751.751,0,0,0-.652.117,2.3,2.3,0,0,0-.73.846l-.61,1.035a2.207,2.207,0,0,1-1.361,1.038,2.23,2.23,0,0,1-1.7-.226l-2.737-1.591a2.2,2.2,0,0,1-1.042-1.369,2.247,2.247,0,0,1,.226-1.7l.606-1.038a2.64,2.64,0,0,0,.4-1.053.618.618,0,0,0-.154-.547c-.591-.532-1.132-1.093-1.672-1.657l-.088-.087,0-.006,0-.005c-.135-.139-.542-.57-1.708.107l-.951.555a2.248,2.248,0,0,1-3.069-.812l-1.589-2.738a2.241,2.241,0,0,1,.807-3.065l.948-.549a2.544,2.544,0,0,0,.986-.8.714.714,0,0,0-.019-.551l-.107-.354-.006-.015c-.192-.635-.385-1.275-.526-1.946l0-.013c-.011-.055-.019-.117-.034-.181-.087-.463-.151-.782-1.523-.782H1358a2.244,2.244,0,0,1-2.242-2.242v-3.171a2.241,2.241,0,0,1,2.242-2.242h1.091c1.373,0,1.437-.32,1.523-.783.015-.064.023-.128.034-.18.145-.681.338-1.318.53-1.956l.113-.372a.714.714,0,0,0,.019-.551,2.524,2.524,0,0,0-.986-.8l-.939-.545-.009-.006a2.245,2.245,0,0,1-.816-3.054l.01-.01,1.589-2.74a2.24,2.24,0,0,1,1.363-1.04,2.27,2.27,0,0,1,1.706.229l.951.555c1.166.675,1.572.246,1.711.107l0-.015.082-.079c.542-.564,1.087-1.129,1.678-1.663a.6.6,0,0,0,.154-.545,2.631,2.631,0,0,0-.4-1.053l-.606-1.038a2.252,2.252,0,0,1-.226-1.7,2.211,2.211,0,0,1,1.042-1.367m24.488,45.369a.3.3,0,0,1-.1.388ZM1382.5,393a15.831,15.831,0,1,1-11.2,4.639A15.8,15.8,0,0,1,1382.5,393m10.772,5.065a15.233,15.233,0,1,1-10.772-4.461,15.207,15.207,0,0,1,10.772,4.461" transform="translate(-975.628 -274.932)" fill="#fff" fill-rule="evenodd"/>
            <path id="Trazado_210897" data-name="Trazado 210897" d="M1114.976,256.934l-3.537,2.058a2.516,2.516,0,0,0-.908,3.432l.777,1.344c.925,1.59.523,2.3.237,2.56-.786.706-1.516,1.475-2.251,2.238-.217.222-.9.991-2.7-.058l-1.238-.719a2.516,2.516,0,0,0-3.43.913l-2.057,3.538a2.521,2.521,0,0,0,.907,3.436l1.224.711c1.691.981,1.642,1.483,1.431,2.2-.291.981-.609,1.967-.827,2.982-.188.908-.1,1.556-2.4,1.556h-1.4a2.513,2.513,0,0,0-2.512,2.512v4.1a2.512,2.512,0,0,0,2.512,2.509h1.4c2.3,0,2.214.647,2.4,1.556.218,1.015.536,2,.827,2.982.211.715.26,1.222-1.431,2.2l-1.224.711a2.517,2.517,0,0,0-.907,3.432l2.057,3.541a2.515,2.515,0,0,0,3.43.91l1.238-.722c1.8-1.042,2.486-.278,2.7-.052.735.763,1.465,1.527,2.251,2.234.286.256.688.974-.237,2.562l-.777,1.343a2.52,2.52,0,0,0,.908,3.436l3.537,2.06a2.526,2.526,0,0,0,3.436-.91l.782-1.343c.933-1.61,1.856-1.546,2.248-1.422,1.126.358,2.17.591,3.334.9.425.111,1.155.421,1.155,2.339v1.435a2.516,2.516,0,0,0,2.508,2.513h4.1a2.518,2.518,0,0,0,2.509-2.513v-1.435c0-1.918.73-2.228,1.155-2.339,1.164-.3,2.208-.538,3.338-.9.386-.124,1.315-.188,2.248,1.422l.778,1.343a2.527,2.527,0,0,0,3.436.91l3.541-2.06a2.521,2.521,0,0,0,.91-3.436l-.784-1.343c-.923-1.587-.521-2.306-.235-2.562.786-.707,1.521-1.471,2.257-2.234.211-.226.9-.989,2.695.052l1.238.722a2.516,2.516,0,0,0,3.432-.91l2.057-3.541a2.512,2.512,0,0,0-.909-3.432l-1.217-.711c-1.693-.98-1.647-1.487-1.437-2.2.3-.982.609-1.967.827-2.982.192-.909.106-1.556,2.4-1.556h1.405a2.512,2.512,0,0,0,2.508-2.509v-4.1a2.512,2.512,0,0,0-2.508-2.512h-1.405c-2.3,0-2.21-.648-2.4-1.556-.218-1.015-.532-2-.827-2.982-.211-.716-.256-1.218,1.437-2.2l1.217-.711a2.517,2.517,0,0,0,.909-3.436l-2.057-3.538a2.517,2.517,0,0,0-3.432-.913l-1.238.719c-1.8,1.049-2.484.28-2.695.058-.735-.763-1.471-1.532-2.257-2.238-.286-.256-.688-.97.235-2.56l.784-1.344a2.517,2.517,0,0,0-.91-3.432l-3.541-2.058a2.517,2.517,0,0,0-3.436.908l-.778,1.338c-.933,1.615-1.862,1.547-2.248,1.427-1.13-.363-2.174-.6-3.338-.894-.425-.117-1.155-.426-1.155-2.344v-1.435a2.519,2.519,0,0,0-2.509-2.514h-4.1a2.517,2.517,0,0,0-2.508,2.514v1.435c0,1.918-.73,2.228-1.155,2.344-1.164.3-2.208.531-3.334.894-.391.12-1.315.188-2.248-1.427l-.782-1.338a2.516,2.516,0,0,0-3.436-.908m15.517,10.656a20.095,20.095,0,1,1-20.1,20.094,20.094,20.094,0,0,1,20.1-20.094" transform="translate(-788.907 -182.366)" fill="#1e77d1" fill-rule="evenodd"/>
            <path id="Trazado_210898" data-name="Trazado 210898" d="M1119.708,256.934l-3.547,2.058a2.527,2.527,0,0,0-.908,3.432l.782,1.344c.923,1.59.521,2.3.237,2.56-.788.706-1.518,1.475-2.251,2.238-.218.222-.9.991-2.7-.058l-1.236-.719a2.517,2.517,0,0,0-3.432.913l-2.059,3.538a2.516,2.516,0,0,0,.91,3.436l1.222.711c1.685.981,1.642,1.483,1.429,2.2-.293.981-.609,1.967-.827,2.982-.188.908-.1,1.556-2.4,1.556h-1.411a2.516,2.516,0,0,0-2.512,2.512v4.1a2.516,2.516,0,0,0,2.512,2.509h1.411c2.294,0,2.208.647,2.4,1.556.218,1.015.534,2,.827,2.982.213.715.256,1.222-1.429,2.2l-1.222.711a2.512,2.512,0,0,0-.91,3.432l2.059,3.541a2.516,2.516,0,0,0,3.432.91l1.236-.722c1.8-1.042,2.484-.278,2.7-.052.733.763,1.463,1.527,2.251,2.234.284.256.686.974-.237,2.562l-.782,1.343a2.531,2.531,0,0,0,.908,3.436l3.547,2.06a2.521,2.521,0,0,0,3.43-.91l.784-1.343c.933-1.61,1.856-1.546,2.244-1.422,1.128.358,2.174.591,3.338.9.425.111,1.155.421,1.155,2.339v1.435a2.52,2.52,0,0,0,2.514,2.513h4.1a2.519,2.519,0,0,0,2.513-2.513v-1.435c0-1.918.726-2.228,1.151-2.339,1.17-.3,2.214-.538,3.34-.9.391-.124,1.309-.188,2.245,1.422l.778,1.343a2.528,2.528,0,0,0,3.438.91l3.535-2.06a2.517,2.517,0,0,0,.914-3.436l-.782-1.343c-.923-1.587-.523-2.306-.237-2.562.793-.707,1.518-1.471,2.257-2.234.212-.226.9-.989,2.7.052l1.238.722a2.514,2.514,0,0,0,3.43-.91l2.065-3.541a2.527,2.527,0,0,0-.91-3.432l-1.222-.711c-1.691-.98-1.648-1.487-1.435-2.2.3-.982.609-1.967.822-2.982.192-.909.111-1.556,2.407-1.556h1.407a2.513,2.513,0,0,0,2.507-2.509v-4.1a2.513,2.513,0,0,0-2.507-2.512h-1.407c-2.3,0-2.215-.648-2.407-1.556-.213-1.015-.527-2-.822-2.982-.212-.716-.256-1.218,1.435-2.2l1.222-.711a2.531,2.531,0,0,0,.91-3.436l-2.065-3.538a2.515,2.515,0,0,0-3.43-.913l-1.238.719c-1.8,1.049-2.484.28-2.7.058-.739-.763-1.463-1.532-2.257-2.238-.286-.256-.687-.97.237-2.56l.782-1.344a2.513,2.513,0,0,0-.914-3.432l-3.535-2.058a2.518,2.518,0,0,0-3.438.908l-.778,1.338c-.937,1.615-1.854,1.547-2.245,1.427-1.126-.363-2.17-.6-3.34-.894-.425-.117-1.151-.426-1.151-2.344v-1.435a2.519,2.519,0,0,0-2.513-2.514h-4.1a2.521,2.521,0,0,0-2.514,2.514v1.435c0,1.918-.73,2.228-1.155,2.344-1.164.3-2.21.531-3.338.894-.388.12-1.311.188-2.244-1.427l-.784-1.338a2.511,2.511,0,0,0-3.43-.908m15.513,10.656a20.095,20.095,0,1,1-20.095,20.094,20.093,20.093,0,0,1,20.095-20.094" transform="translate(-792.306 -182.366)" fill="#7e5ee3" fill-rule="evenodd"/>
            <path id="Trazado_210899" data-name="Trazado 210899" d="M1118.9,256.269l-3.541,2.059a2.122,2.122,0,0,0-.764,2.9l.783,1.344a4.2,4.2,0,0,1,.613,1.687,1.538,1.538,0,0,1-.459,1.358c-.734.657-1.429,1.387-2.133,2.107l-.1.111,0,.01c-.286.3-1.135,1.184-3.174,0l-1.234-.715a2.13,2.13,0,0,0-2.9.763l-2.044,3.518c-.011.014-.015.034-.025.043a2.159,2.159,0,0,0-.208,1.59,2.132,2.132,0,0,0,.963,1.276.357.357,0,0,0,.044.024l1.2.7a3.831,3.831,0,0,1,1.574,1.358,1.556,1.556,0,0,1,.034,1.29l-.143.483c-.249.822-.5,1.648-.673,2.469-.019.087-.028.155-.043.213-.183.982-.314,1.653-2.74,1.653h-1.41a2.131,2.131,0,0,0-2.118,2.122v4.1a2.133,2.133,0,0,0,2.118,2.118h1.41c2.426,0,2.557.676,2.74,1.652.015.063.024.126.043.213v.015c.173.821.425,1.643.673,2.461l0,.019.139.459a1.556,1.556,0,0,1-.034,1.29,3.833,3.833,0,0,1-1.574,1.362l-1.228.711a2.112,2.112,0,0,0-.982,1.29,2.136,2.136,0,0,0,.218,1.61l2.059,3.538a2.132,2.132,0,0,0,2.9.769l1.234-.717c2.039-1.183,2.888-.3,3.174,0l0,.006.113.117c.7.724,1.392,1.448,2.121,2.1a1.538,1.538,0,0,1,.459,1.361,4.211,4.211,0,0,1-.613,1.687l-.783,1.343a2.118,2.118,0,0,0,.764,2.894l3.541,2.065a2.136,2.136,0,0,0,2.9-.769l.782-1.345a3.828,3.828,0,0,1,1.209-1.362,1.761,1.761,0,0,1,1.493-.233c.786.252,1.561.445,2.371.649.271.068.541.135.942.243a1.6,1.6,0,0,1,.963.643,3.536,3.536,0,0,1,.493,2.072v1.435a2.115,2.115,0,0,0,2.117,2.121h4.1a2.127,2.127,0,0,0,2.117-2.121v-1.435a3.491,3.491,0,0,1,.493-2.072,1.579,1.579,0,0,1,.957-.643l.943-.243c.812-.2,1.591-.4,2.377-.649a1.761,1.761,0,0,1,1.493.233,3.866,3.866,0,0,1,1.208,1.362l.769,1.326a.163.163,0,0,1,.024.039,2.1,2.1,0,0,0,1.275.959,2.144,2.144,0,0,0,1.591-.2c.015-.009.03-.021.043-.028l3.494-2.031a.266.266,0,0,0,.043-.03,2.093,2.093,0,0,0,.963-1.275,2.117,2.117,0,0,0-.2-1.584.157.157,0,0,1-.026-.049l-.767-1.314a4.12,4.12,0,0,1-.613-1.687,1.553,1.553,0,0,1,.453-1.361c.736-.655,1.428-1.373,2.116-2.1l.117-.12.011-.011.019-.019c.3-.308,1.164-1.13,3.15.025l1.213.7a.272.272,0,0,1,.045.028,2.13,2.13,0,0,0,2.859-.758.338.338,0,0,1,.031-.045l2.049-3.517a2.123,2.123,0,0,0,.21-1.61,2.1,2.1,0,0,0-.979-1.29l-1.223-.711a3.9,3.9,0,0,1-1.585-1.362,1.587,1.587,0,0,1-.024-1.29l.141-.478,0-.006h0c.252-.822.5-1.649.677-2.47.013-.082.028-.149.037-.213.188-.976.32-1.652,2.746-1.652h1.407a2.122,2.122,0,0,0,2.116-2.118v-4.1a2.121,2.121,0,0,0-2.116-2.122h-1.407c-2.426,0-2.558-.671-2.746-1.653-.009-.057-.024-.125-.037-.213l-.006-.014c-.175-.817-.419-1.633-.667-2.45l0-.019-.141-.469a1.586,1.586,0,0,1,.024-1.29,3.9,3.9,0,0,1,1.585-1.358l1.223-.711a2.134,2.134,0,0,0,.769-2.9l-2.059-3.542-.006-.006a2.115,2.115,0,0,0-1.29-.971,2.069,2.069,0,0,0-1.6.213l-.009,0-1.228.71c-2.033,1.184-2.891.3-3.169,0l-.011-.01-.106-.111c-.7-.725-1.391-1.45-2.127-2.107a1.553,1.553,0,0,1-.453-1.358,4.114,4.114,0,0,1,.613-1.687l.779-1.344h0a2.127,2.127,0,0,0-.767-2.9h-.006l-3.537-2.059a2.126,2.126,0,0,0-2.894.763l-.784,1.344a3.819,3.819,0,0,1-1.208,1.363,1.732,1.732,0,0,1-1.493.237c-.786-.251-1.565-.445-2.377-.652-.267-.067-.546-.135-.943-.236a1.6,1.6,0,0,1-.957-.648,3.485,3.485,0,0,1-.493-2.073V254.93a2.119,2.119,0,0,0-2.117-2.117h-4.1a2.108,2.108,0,0,0-2.117,2.117v1.435a3.529,3.529,0,0,1-.493,2.073,1.617,1.617,0,0,1-.963.648c-.4.1-.671.174-.942.236-.811.208-1.585.4-2.371.652a1.733,1.733,0,0,1-1.493-.237,3.782,3.782,0,0,1-1.209-1.363l-.782-1.344a2.136,2.136,0,0,0-2.9-.763m-3.934,1.382,3.543-2.063a2.913,2.913,0,0,1,3.966,1.053l.779,1.344a3.085,3.085,0,0,0,.951,1.092.967.967,0,0,0,.843.15c.847-.266,1.617-.46,2.421-.663.348-.086.7-.173.938-.236a.885.885,0,0,0,.516-.338,2.822,2.822,0,0,0,.344-1.624V254.93a2.913,2.913,0,0,1,2.905-2.9h4.1a2.911,2.911,0,0,1,2.9,2.9v1.435a2.84,2.84,0,0,0,.344,1.624.877.877,0,0,0,.513.338l.937.236c.807.2,1.576.4,2.426.663a.966.966,0,0,0,.841-.15,3.162,3.162,0,0,0,.948-1.092l.776-1.339v0a2.917,2.917,0,0,1,3.965-1.053h0l3.519,2.049a.171.171,0,0,1,.055.034,2.9,2.9,0,0,1,1.038,3.924c-.011.014-.019.034-.03.048l-.767,1.319a3.452,3.452,0,0,0-.512,1.363.806.806,0,0,0,.2.71c.771.686,1.471,1.416,2.167,2.141l.111.111.01.014c.181.184.707.74,2.208-.134l1.215-.706c.019-.009.034-.019.053-.029a2.907,2.907,0,0,1,3.923,1.045.167.167,0,0,1,.031.048l2.05,3.518a2.916,2.916,0,0,1-1.055,3.968l-1.223.71a3.32,3.32,0,0,0-1.281,1.039.941.941,0,0,0,.03.711l.139.464,0,.02c.252.816.5,1.643.688,2.517v.015c.013.063.028.149.047.231.111.6.19,1.011,1.973,1.011h1.407a2.9,2.9,0,0,1,2.9,2.9v4.1a2.91,2.91,0,0,1-2.9,2.9h-1.407c-1.783,0-1.862.411-1.973,1.01-.019.083-.034.165-.047.232-.184.874-.436,1.706-.688,2.533l-.143.478a.951.951,0,0,0-.03.715,3.339,3.339,0,0,0,1.281,1.038l1.223.707a2.922,2.922,0,0,1,1.055,3.972l-2.061,3.532,0,.006a2.9,2.9,0,0,1-3.957,1.059l-.011,0-1.237-.717c-1.448-.844-1.99-.363-2.183-.16l-.025.025-.01.009-.115.121c-.7.726-1.4,1.452-2.162,2.133a.806.806,0,0,0-.2.711,3.426,3.426,0,0,0,.512,1.362l.779,1.343h0a2.913,2.913,0,0,1-1.043,3.968h-.01l-3.518,2.05h-.006l-.019.01v.005a2.923,2.923,0,0,1-3.953-1.027v0l-.01-.019-.006-.006-.776-1.337a3.145,3.145,0,0,0-.948-1.1.982.982,0,0,0-.841-.151c-.85.271-1.619.465-2.426.668-.343.088-.687.175-.937.231a.9.9,0,0,0-.513.344,2.812,2.812,0,0,0-.344,1.619v1.435a2.909,2.909,0,0,1-2.9,2.9h-4.1a2.912,2.912,0,0,1-2.905-2.9v-1.435a2.794,2.794,0,0,0-.344-1.619.9.9,0,0,0-.516-.344c-.242-.056-.59-.143-.938-.231-.8-.2-1.574-.4-2.421-.668a.983.983,0,0,0-.843.151,3.111,3.111,0,0,0-.951,1.1l-.779,1.337a2.913,2.913,0,0,1-3.966,1.055l-3.543-2.065a2.908,2.908,0,0,1-1.047-3.968l.778-1.343a3.471,3.471,0,0,0,.515-1.362.816.816,0,0,0-.2-.711c-.764-.681-1.463-1.41-2.159-2.137l-.116-.117,0-.009-.006-.006c-.175-.183-.705-.737-2.214.141l-1.234.717a2.906,2.906,0,0,1-3.966-1.055l-2.06-3.538a2.918,2.918,0,0,1,1.05-3.972l1.222-.707a3.228,3.228,0,0,0,1.275-1.038.928.928,0,0,0-.019-.715l-.139-.455-.006-.019c-.25-.822-.5-1.647-.687-2.523v-.014c-.019-.068-.033-.149-.049-.232-.115-.6-.192-1.01-1.971-1.01h-1.41a2.917,2.917,0,0,1-2.9-2.9v-4.1a2.909,2.909,0,0,1,2.9-2.9h1.41c1.779,0,1.856-.416,1.971-1.011.015-.082.03-.168.049-.231.184-.88.437-1.711.687-2.538l.145-.478a.918.918,0,0,0,.019-.711,3.21,3.21,0,0,0-1.275-1.039l-1.213-.705-.009,0a2.916,2.916,0,0,1-1.059-3.958l.009-.01,2.06-3.542a2.914,2.914,0,0,1,3.966-1.053l1.234.721c1.509.874,2.039.319,2.214.134l.01-.014.1-.106c.7-.73,1.4-1.459,2.171-2.146a.816.816,0,0,0,.2-.71,3.5,3.5,0,0,0-.515-1.363l-.778-1.343a2.909,2.909,0,0,1,1.047-3.968m31.683,58.694a.4.4,0,0,1-.135.506Zm-12.429-50.155a20.492,20.492,0,1,1-14.489,6,20.422,20.422,0,0,1,14.489-6m13.926,6.558a19.7,19.7,0,1,1-13.926-5.77,19.64,19.64,0,0,1,13.926,5.77" transform="translate(-791.301 -181.363)" fill="#fff" fill-rule="evenodd"/>
            <path id="Trazado_210900" data-name="Trazado 210900" d="M332.161,799c-3.445,5.326-5.01,10.191-4.871,14.4a13.82,13.82,0,0,0,6.9,11.859c3.378,2.088,7.919,3.171,13.447,3.116,12.988-.136,33.652-6.725,59.114-21.939l-7.365-12.245c-23.125,13.817-41.117,19.8-51.878,19.9-2.78.034-4.728-.309-5.8-.971a.259.259,0,0,1-.135-.218,4.614,4.614,0,0,1,.15-1.256Z" transform="translate(-235.518 -571.513)" fill="#ff9d00" fill-rule="evenodd"/>
            <path id="Trazado_210901" data-name="Trazado 210901" d="M581.666,756.318l-9.181,16.988-9.864,18.252c-1.333,2.465-1.091,1.4-2.678-1.174L549.824,773.94l-10.878-17.671c-1.471-2.387-.67-1.648,2.351-1.728l19.3-.548,20.742-.579c2.8-.077,1.758.24.323,2.9" transform="translate(-387.321 -542.164)" fill="#ff9d00" fill-rule="evenodd"/>
            <path id="Trazado_210902" data-name="Trazado 210902" d="M352.034,1034.286c-3.763-1.392-4.062-3.427-6.093-4.423s-2.276-2.784-.278-4.717c1.473,1.237,3.3,2.755,4.271,1.952.649-.539,2.842-.5,3.276.282,1.914,4.662,4.572,3.184,5.095,5.305.062,2.823-4.544,2.233-6.27,1.6" transform="translate(-247.752 -737.715)" fill="#284191" fill-rule="evenodd"/>
            <path id="Trazado_210903" data-name="Trazado 210903" d="M448.173,1025.6c-6.626-.111-11.579-.2-13.864-.957-2.469-.816-1.958-2.4-.541-4.923,6.249,3.015,4.581-.621,7.505-.156q3.072,2.6,9.114,3.485c1.7,1.32,1.01,2.494-2.214,2.552" transform="translate(-311.293 -733.665)" fill="#284191" fill-rule="evenodd"/>
            <path id="Trazado_210904" data-name="Trazado 210904" d="M359.557,455.419a42.908,42.908,0,0,0-8.907-1.832q-.719,11.439-11.372-.16c-6.842.606-8.181.7-11.974,1.986-8.216,8.236-8.969,17.742-13.266,28.6a28.076,28.076,0,0,1,10.12,2.035q1.038-3.91,1.739-6.283-.195,21.479-.149,29.435c15.718,6.539,28.673,4.3,33.957-.8q.118-19.087.3-30.227a35.48,35.48,0,0,0,5.236,5.407c3.855-4.639,6.466-6.505,8.649-9.239-4.837-8.337-11.771-16.1-14.338-18.925" transform="translate(-225.988 -326.295)" fill="#15d3ec" fill-rule="evenodd"/>
            <path id="Trazado_210905" data-name="Trazado 210905" d="M528.712,491.638q-12.387,5.4-17.349,8.925l-1.469-2.281c-1.362,1.435-2.923,2.846-4.828,4.891a26.6,26.6,0,0,0,5.843,4.86q8.609-.964,19.03-13.68a8.348,8.348,0,0,0,4.775-2.466,4.424,4.424,0,0,0-1.576-3.286q4.321-2.956,3.441-4.233-6.77,4.393-7.869,7.269" transform="translate(-363.456 -348.561)" fill="#ffb27d" fill-rule="evenodd"/>
            <path id="Trazado_210906" data-name="Trazado 210906" d="M377.919,649.507c-.31,1.241.972,8.514,1.19,12.309,2.087,13.537.3,31.166-.828,53.832-2.016,7.987-4.987,18.63-4.794,33.611-3.509,1.121-4.779,1.238-7.946.4-2.212-15.632-.705-28.153,1.3-33.934-1.283-8.94-3.2-18.944-5.979-33.374-3.131,15.726-7.333,27.4-9.144,35.007-.363,8.493-2,19.95-2.851,34.374a14.02,14.02,0,0,1-6.93.716c-3.5-13.26-2.919-27.69-1.429-43.286,1.58-18.747-1.027-39.917,1.584-47.257A56.743,56.743,0,0,0,343.96,650.3q19.673,6.872,33.959-.8" transform="translate(-244.195 -467.398)" fill="#4f8ecc" fill-rule="evenodd"/>
            <path id="Trazado_210907" data-name="Trazado 210907" d="M358.208,536.369c-.846.132-1.644.246-2.386.354q-.059,9.473-.034,14.193a10.062,10.062,0,0,0,2.6.856c0-.412-.124-1.345-.13-1.745q-.079-7.242-.053-13.657m38.439-12.657q-3.481-3.035-6.611-9.859a40.76,40.76,0,0,1,.28,6.36,34.425,34.425,0,0,0,4.969,5.083c.474-.566.927-1.1,1.361-1.585M358.86,511.394q-1.529,5.168-2.924,10.086-.037,4.146-.068,7.795c.677-.064,1.469-.113,2.4-.135q.147-10.082.59-17.746" transform="translate(-256.027 -368.009)" fill="#4f8ecc" fill-rule="evenodd"/>
            <path id="Trazado_210908" data-name="Trazado 210908" d="M375.2,1006.757a16.613,16.613,0,0,1,.068,3.663c5.228,2.387,4.339-.368,6.426-.436a9.884,9.884,0,0,1-1.019-3.712,10.191,10.191,0,0,1-5.474.485m-24.341,2.507a11.2,11.2,0,0,1-.276,2.62c1.392,1.16,3,2.368,3.885,1.632a3.245,3.245,0,0,1,2.343-.271,28.7,28.7,0,0,1-.8-4.5,12.941,12.941,0,0,1-5.149.517" transform="translate(-252.284 -724.132)" fill="#ffb27d" fill-rule="evenodd"/>
            <path id="Trazado_210909" data-name="Trazado 210909" d="M379.109,693.408q-13.84,13.536-37.015.083c-2.61,7.34,0,28.51-1.584,47.257-1.489,15.6-2.074,30.026,1.429,43.287.29.034.561.068.827.086a12.941,12.941,0,0,0,5.149-.517c.3-.086.621-.185.954-.286.85-14.425,2.488-25.882,2.851-34.375,1.811-7.611,6.012-19.28,9.144-35.006,2.783,14.43,4.7,24.434,5.978,33.374-2.006,5.781-3.513,18.3-1.3,33.934.575.151,1.093.271,1.566.369a10.245,10.245,0,0,0,5.475-.485c.286-.086.585-.177.9-.278-.194-14.981,2.778-25.624,4.794-33.611,1.125-22.666,2.915-40.295.828-53.832" transform="translate(-244.195 -498.99)" fill="#7e5ee3" fill-rule="evenodd"/>
            <path id="Trazado_210910" data-name="Trazado 210910" d="M365.594,963.074a22.525,22.525,0,0,0,9.243.869c.06-.779.128-1.537.2-2.285a24.386,24.386,0,0,1-9.514-.649c.013.677.034,1.369.068,2.065M341,965.76a21.469,21.469,0,0,0,9.723-.758c.071-.81.139-1.6.218-2.387a24.1,24.1,0,0,1-10.148,1.117c.056.675.128,1.358.207,2.027m9.249,5.082c.064-.8.12-1.591.184-2.37a24.208,24.208,0,0,1-8.974.779c.105.692.222,1.373.348,2.057a22.293,22.293,0,0,0,8.442-.466m24.426-4.423a24.253,24.253,0,0,1-8.9-.16c.049.683.107,1.379.175,2.078a22.32,22.32,0,0,0,8.626.372q.037-1.159.1-2.291" transform="translate(-245.242 -691.56)" fill="#3b5bb3" fill-rule="evenodd"/>
            <path id="Trazado_210911" data-name="Trazado 210911" d="M434.26,475.919a.638.638,0,0,1,.579.681.6.6,0,0,1-.638.585.642.642,0,0,1-.579-.683.6.6,0,0,1,.638-.583" transform="translate(-312.042 -342.479)" fill="#4f8ecc" fill-rule="evenodd"/>
            <path id="Trazado_210912" data-name="Trazado 210912" d="M426.563,523.628h18.22a1.266,1.266,0,0,1,1.275,1.52l-4.089,25.81a1.85,1.85,0,0,1-1.753,1.518H422a1.27,1.27,0,0,1-1.282-1.518l4.088-25.81a1.863,1.863,0,0,1,1.76-1.52" transform="translate(-302.741 -376.812)" fill="#ff9d00" fill-rule="evenodd"/>
            <path id="Trazado_210913" data-name="Trazado 210913" d="M403.347,461.087a31.54,31.54,0,0,1-6.639-10.11,7.83,7.83,0,0,1,2.554-3.009c3.712,3.87,6.071,6.035,8.339,7.354.008.011.019.015.038.026.03-.107.052-.209.086-.316a55.963,55.963,0,0,0,1.836-6.77,7.31,7.31,0,0,1,2.035,3.06,21.243,21.243,0,0,1,.993,9.1,26.881,26.881,0,0,0-2.108-2.6,14.966,14.966,0,0,0-2.841-2.473,14.938,14.938,0,0,0-2.417,2.663,24.736,24.736,0,0,0-1.875,3.077" transform="translate(-285.479 -322.366)" fill="#4f8ecc" fill-rule="evenodd"/>
            <path id="Trazado_210914" data-name="Trazado 210914" d="M399.089,397.2a9.3,9.3,0,0,0,1.459-2.866c-.215-.634-.427-1.439-.649-2.405q-6.091-4.336-1.552-6.249a8.061,8.061,0,0,1,2.174,3.174c.717-.01.039-1.875.425-2.571-.786-2.962-.068-3.856-.284-5.7,2.1-2.977,7.177-3.774,13.445-2.828.53,5.78,2.313,19.414-4.668,18.968l-.053.763a54.517,54.517,0,0,1-1.837,6.773l-.126.29c-2.266-1.32-4.624-3.485-8.335-7.352" transform="translate(-285.265 -271.571)" fill="#ffb27d" fill-rule="evenodd"/>
            <path id="Trazado_210915" data-name="Trazado 210915" d="M405.649,360.856c-6.268-.952-11.024-.624-13.121,2.354.216,1.841-.3,2.967.493,5.93-.382.7.082,2.328-.634,2.338a8.06,8.06,0,0,0-2.174-3.174q-4.536,1.921,1.552,6.249c.222.966.434,1.771.649,2.405-7.135-4.188-10.257-14.333-3.761-19.093,1.32-8.414,13.411-.7,19.642-4.63,2.366,3.422-.741,7.587-2.644,7.621" transform="translate(-277.129 -254.194)" fill="#12263f" fill-rule="evenodd"/>
            <path id="Trazado_210916" data-name="Trazado 210916" d="M425.965,444.292a20.261,20.261,0,0,0,4.743.585l-.052.763c-.068.461-.166.914-.267,1.373-.015-.005-.03-.015-.043-.02a9.49,9.49,0,0,1-4.38-2.7" transform="translate(-306.533 -319.721)" fill="#f08261" fill-rule="evenodd"/>
            <path id="Trazado_210917" data-name="Trazado 210917" d="M386.825,374.1a1.729,1.729,0,0,0,.135-2.223,3.42,3.42,0,0,0-3.46,1.015q1.013-.254,3.325,1.208" transform="translate(-275.974 -267.531)" fill="#12263f" fill-rule="evenodd"/>
            <path id="Trazado_210918" data-name="Trazado 210918" d="M396.087,363.436c-.587.653-1.121.8-1.61.435a3.839,3.839,0,0,1,.531-3.257,4.961,4.961,0,0,0,1.08,2.822" transform="translate(-283.771 -259.505)" fill="#12263f" fill-rule="evenodd"/>
            <path id="Trazado_210919" data-name="Trazado 210919" d="M442.64,370.417c.047-1.822.758-2.909,2.125-3.271a5.976,5.976,0,0,1,3.814,5.036q-1.162-1.406-5.939-1.764" transform="translate(-318.532 -264.205)" fill="#12263f" fill-rule="evenodd"/>
            <path id="Trazado_210920" data-name="Trazado 210920" d="M427.7,354.949c.274.773-.087,1.789,1.008,2.025.726,3.334,3.359-1.165,3.306-2.412q-.694.521-4.314.386" transform="translate(-307.778 -255.15)" fill="#12263f" fill-rule="evenodd"/>
            <path id="Trazado_210921" data-name="Trazado 210921" d="M435.293,491.689a.644.644,0,0,1,.576.681.6.6,0,0,1-.638.589.645.645,0,0,1-.576-.684.6.6,0,0,1,.638-.585" transform="translate(-312.786 -353.827)" fill="#4f8ecc" fill-rule="evenodd"/>
            <path id="Trazado_210922" data-name="Trazado 210922" d="M436.312,507.459a.65.65,0,0,1,.581.681.6.6,0,0,1-.643.587.644.644,0,0,1-.574-.677.6.6,0,0,1,.636-.59" transform="translate(-313.521 -365.176)" fill="#4f8ecc" fill-rule="evenodd"/>
            <path id="Trazado_210923" data-name="Trazado 210923" d="M317.747,562.851a24.007,24.007,0,0,0-.444,9.96c1.864,2.846,9.405,1.256,28.812-2.151a5.144,5.144,0,0,0,4.32,1.038c2.031-.534,2.127-1.091,4.408-3.344q.827-2.629-.342-4.015c-2.567,1.582-3.912,2.42-6.8,2.522q1.151-3.109.348-4.021a6.092,6.092,0,0,0-1.924,3.743c-15.3-.7-19.341-.606-21.376.515.224-1,.412-1.894.587-2.657a25.925,25.925,0,0,0-7.588-1.589" transform="translate(-228.102 -405.03)" fill="#ffb27d" fill-rule="evenodd"/>
            <path id="Trazado_210924" data-name="Trazado 210924" d="M431.648,397.332c-.382-.048-.72.31-.758.8a.858.858,0,0,0,.617.98c.378.049.722-.3.76-.8a.868.868,0,0,0-.619-.981" transform="translate(-310.073 -285.924)" fill="#bbdbfa" fill-rule="evenodd"/>
            <path id="Trazado_210925" data-name="Trazado 210925" d="M431.507,399.112a.858.858,0,0,1-.617-.98c.038-.493.376-.855.758-.8a.632.632,0,0,1,.412.246l-.054-.02c-.126-.014-.235.1-.25.261a.288.288,0,0,0,.2.319.241.241,0,0,0,.244-.256l.006-.034a1.021,1.021,0,0,1,.058.464c-.038.5-.382.85-.76.8" transform="translate(-310.073 -285.923)" fill="#125aa3" fill-rule="evenodd"/>
            <path id="Trazado_210926" data-name="Trazado 210926" d="M425,392.921a.226.226,0,0,1,.053.048,1.661,1.661,0,0,0-.154-.256.454.454,0,0,1,.1.1.615.615,0,0,1,.077.149.865.865,0,0,0-.024-.16.322.322,0,0,1,.054.174.6.6,0,0,0-.073-.338.517.517,0,0,1,.141.3.327.327,0,0,0,.019-.14.221.221,0,0,1,.028.155l.049-.068c-.009.043-.021.053-.024.086a.631.631,0,0,0,.226-.42.392.392,0,0,1-.075.174,1.426,1.426,0,0,0,.028-.276,1.519,1.519,0,0,0-.04.218.59.59,0,0,1-.075.188.892.892,0,0,0,.028-.425l-.01.043a1.143,1.143,0,0,1-.011.227c-.023-.135-.008-.261-.12-.363a1.432,1.432,0,0,1,.073.16c-.062-.063-.088-.179-.184-.193a1.568,1.568,0,0,1,.126.16.3.3,0,0,1,.068.227.544.544,0,0,0-.373-.425c.043.024.188.131.2.194v0c-.011.068-.006-.058,0,.019a.351.351,0,0,1,.087.121.323.323,0,0,1,.038.086c0,.015.011.04.011.054s0,.014,0,.024v.014a.649.649,0,0,0-.214-.348.937.937,0,0,0-.324-.169s0,0,.011,0l.072.039a.7.7,0,0,1,.421.449c-.006-.014,0,0-.015-.019a.018.018,0,0,0-.006-.015.884.884,0,0,0-.141-.2,1.139,1.139,0,0,0-.192-.164,1.2,1.2,0,0,0-.493-.131,1.788,1.788,0,0,1,.339.092.615.615,0,0,1,.284.188.955.955,0,0,1-.115-.058,2.467,2.467,0,0,0-.895-.251,1.939,1.939,0,0,1,.483.165l-.1-.019a.52.52,0,0,1,.077.043.506.506,0,0,1,.077.034,1.065,1.065,0,0,1,.391.343c-.034-.034-.083-.068-.117-.1a.962.962,0,0,0-.124-.092,2.1,2.1,0,0,0-.256-.165,2.52,2.52,0,0,0-.587-.212.151.151,0,0,1,.083.049,6.524,6.524,0,0,0-.884-.169c.09.034.246.048.353.077l.1.039a3.022,3.022,0,0,1-.318-.063,4.261,4.261,0,0,0-1-.116,1.817,1.817,0,0,0-.76.111,1.7,1.7,0,0,0-.459.266,1.264,1.264,0,0,0-.113.106,2.171,2.171,0,0,1,.562-.329,3.72,3.72,0,0,0-.875.657,2.454,2.454,0,0,0,.231-.188c.088-.058.169-.121.256-.174a2.163,2.163,0,0,1,.6-.3c-.041.034-.169.1-.226.131a8.292,8.292,0,0,0-1.234.846,2.212,2.212,0,0,1-.169.154,2.13,2.13,0,0,0,.256-.179,2.967,2.967,0,0,1,.892-.469,7.125,7.125,0,0,0-.9.5l.532-.271a2.78,2.78,0,0,1,.613-.217,5.2,5.2,0,0,0-1.155.531,2.039,2.039,0,0,0,.293-.135c.113-.043.214-.087.324-.131a3.533,3.533,0,0,1,.692-.179,3.95,3.95,0,0,1,.924-.01,2.069,2.069,0,0,0,.295.034,1.168,1.168,0,0,0-.256-.048,3.993,3.993,0,0,0-.541-.044,2.522,2.522,0,0,1-.277,0,3.524,3.524,0,0,1,.566-.053c-.015,0-.009,0-.019,0s-.015,0-.025-.01a1.672,1.672,0,0,1,.438.058c.128.024.372.126.388.126a.43.43,0,0,1-.083-.063l.3.073-.376-.135c.077.009.173.049.252.068s.271.068.352.1a1.276,1.276,0,0,0,.378.068,1.4,1.4,0,0,0-.209-.078l-.2-.067c-.04-.02-.068-.024-.1-.044-.092-.048-.194-.087-.29-.125a2.227,2.227,0,0,0-.875-.169,1.814,1.814,0,0,1,.908.149l.406.165c.039.014.068.029.1.043a2.884,2.884,0,0,0,.3.111l-.008-.019v-.015a.575.575,0,0,0,.188.072c-.1-.091-.342-.169-.431-.29a1.229,1.229,0,0,1,.261.149c.03.02.056.029.083.049a1.111,1.111,0,0,0-.3-.3l-.12-.068a.592.592,0,0,1,.293.169,1.423,1.423,0,0,1,.2.223.025.025,0,0,0,.015.014c.011.014.006.009.019.009l-.09-.154a1.768,1.768,0,0,1,.151.2.728.728,0,0,0-.107-.212l.058.038a1.446,1.446,0,0,0-.455-.368.931.931,0,0,1,.478.334c.045.057.073.14.117.188l-.043-.126a.005.005,0,0,0,.006.006l.062.082a.827.827,0,0,0-.216-.343.253.253,0,0,1,.105.068.72.72,0,0,1,.083.1,1.744,1.744,0,0,1,.135.251.451.451,0,0,0-.04-.149c.028,0,.006,0,.028.014a.359.359,0,0,1,.1.131l-.015-.1.064.1a1.368,1.368,0,0,0-.058-.208.419.419,0,0,1,.1.169.221.221,0,0,0-.02-.111l.073.072c.021.024.04.057.058.082a.863.863,0,0,0-.092-.188c.077.048.1.125.16.208a.684.684,0,0,0-.139-.3c.087.015.139.237.177.285v-.1a.229.229,0,0,1,.019.02l.049.1-.009-.126c.039.034.043.077.068.126a.632.632,0,0,0-.019-.16c.019,0,.006,0,.025.015.037.038.052.091.086.125l-.038-.1a.051.051,0,0,1,.019.01Z" transform="translate(-302.218 -282.103)" fill="#125aa3" fill-rule="evenodd"/>
            <path id="Trazado_210927" data-name="Trazado 210927" d="M453.587,396.625a.871.871,0,0,1,.576.982c-.04.493-.354.85-.707.8a.876.876,0,0,1-.576-.987c.04-.493.354-.845.707-.8" transform="translate(-325.898 -285.415)" fill="#bbdbfa" fill-rule="evenodd"/>
            <path id="Trazado_210928" data-name="Trazado 210928" d="M453.455,398.405c.354.047.668-.306.707-.8s-.218-.933-.576-.982a.493.493,0,0,0-.406.131h.049c.115.014.2.154.188.314s-.117.28-.233.26-.2-.159-.184-.319l.008-.034a1.121,1.121,0,0,0-.128.445.876.876,0,0,0,.576.987" transform="translate(-325.898 -285.411)" fill="#125aa3" fill-rule="evenodd"/>
            <path id="Trazado_210929" data-name="Trazado 210929" d="M449.241,393.324a.3.3,0,0,0-.038.054,1.328,1.328,0,0,1,.117-.257.34.34,0,0,0-.073.092.836.836,0,0,0-.062.149c0-.063.019-.1.019-.16a.559.559,0,0,0-.039.175.905.905,0,0,1,.058-.338.65.65,0,0,0-.105.309.557.557,0,0,1-.011-.146.385.385,0,0,0-.022.155l-.034-.068a.539.539,0,0,0,.019.087.743.743,0,0,1-.16-.416,1.179,1.179,0,0,0,.052.173,1.479,1.479,0,0,1-.013-.28c.013.063.013.151.022.218a.758.758,0,0,0,.053.193,1.28,1.28,0,0,1-.013-.425l.006.039a1.935,1.935,0,0,0,0,.232.635.635,0,0,1,.1-.363.6.6,0,0,0-.06.155c.045-.058.064-.174.136-.189a1.2,1.2,0,0,0-.1.16.382.382,0,0,0-.047.222.519.519,0,0,1,.271-.421.469.469,0,0,0-.147.189v.01c.011.068.011-.058,0,.02a.6.6,0,0,0-.068.116.477.477,0,0,0-.022.087.18.18,0,0,0-.012.058v.039a.769.769,0,0,1,.16-.348.7.7,0,0,1,.232-.169c0,.005,0,.005,0,.005l-.053.038a.656.656,0,0,0-.31.445c.006-.009,0,0,.01-.019s.006-.01.011-.015a1.122,1.122,0,0,1,.1-.2.871.871,0,0,1,.145-.16.688.688,0,0,1,.354-.131,1.281,1.281,0,0,0-.243.087.555.555,0,0,0-.209.188.659.659,0,0,0,.088-.053,1.379,1.379,0,0,1,.638-.251,1.44,1.44,0,0,0-.348.163l.068-.019a.569.569,0,0,1-.055.043.308.308,0,0,0-.053.034.985.985,0,0,0-.29.343c.03-.034.058-.068.087-.1a1,1,0,0,1,.094-.092,1.362,1.362,0,0,1,.188-.164,1.632,1.632,0,0,1,.414-.213c-.019.015-.038.019-.056.053a3.4,3.4,0,0,1,.637-.165c-.068.029-.175.039-.252.073l-.068.039a2.078,2.078,0,0,0,.227-.062,2.528,2.528,0,0,1,.721-.116,1.058,1.058,0,0,1,.532.111,1.274,1.274,0,0,1,.327.271c.034.039.053.072.079.106-.073-.048-.233-.275-.4-.323a2.749,2.749,0,0,1,.62.657,2.162,2.162,0,0,1-.165-.184,1.935,1.935,0,0,0-.184-.184,1.339,1.339,0,0,0-.425-.294c.034.034.12.1.161.13a6.826,6.826,0,0,1,.869.851,1.726,1.726,0,0,0,.116.155c-.03-.015-.141-.146-.181-.179a1.99,1.99,0,0,0-.628-.469,4.689,4.689,0,0,1,.64.5l-.378-.276a1.421,1.421,0,0,0-.434-.213,3.223,3.223,0,0,1,.816.537c-.056-.029-.145-.1-.207-.14-.079-.049-.154-.087-.233-.131a1.856,1.856,0,0,0-.489-.183,2,2,0,0,0-.662-.01,1.445,1.445,0,0,1-.207.029.6.6,0,0,1,.184-.048,2,2,0,0,1,.388-.039,1.419,1.419,0,0,0,.2,0,1.854,1.854,0,0,0-.406-.053c.01,0,.006,0,.013-.01s.011,0,.021-.009a.991.991,0,0,0-.314.057,2.129,2.129,0,0,0-.28.13c.019-.024.039-.038.058-.063l-.218.068.271-.135a1.491,1.491,0,0,0-.179.068c-.068.024-.2.068-.258.1a.679.679,0,0,1-.275.063c.03-.02.117-.054.154-.072l.147-.073a.673.673,0,0,0,.075-.038,1.634,1.634,0,0,1,.209-.121,1.164,1.164,0,0,1,.628-.169c-.167-.077-.526.072-.653.14l-.293.169a.36.36,0,0,0-.074.043,1.752,1.752,0,0,1-.216.112l0-.024v-.009a.457.457,0,0,1-.135.068c.068-.092.246-.169.308-.285a1.043,1.043,0,0,0-.188.149c-.019.019-.038.029-.056.048a.95.95,0,0,1,.216-.294l.088-.068c-.068,0-.156.1-.215.165a2.294,2.294,0,0,0-.145.222l-.013.014c-.011.02-.006.01-.015.015l.068-.16a1.848,1.848,0,0,0-.107.2.972.972,0,0,1,.077-.212l-.044.043a1.327,1.327,0,0,1,.333-.372c-.1.015-.278.208-.346.339-.034.058-.06.135-.088.183l.034-.125s-.006,0-.006.01l-.047.077a.961.961,0,0,1,.164-.343.232.232,0,0,0-.077.073.384.384,0,0,0-.058.1,1.244,1.244,0,0,0-.1.246.625.625,0,0,1,.025-.149c-.019.009,0,0-.019.014a.49.49,0,0,0-.068.131l.01-.1-.049.1c.015-.086.034-.135.049-.208a.372.372,0,0,0-.072.169.328.328,0,0,1,.013-.116l-.058.077c-.008.024-.028.058-.038.082a.8.8,0,0,1,.068-.188.574.574,0,0,0-.12.2.874.874,0,0,1,.105-.3c-.064.015-.1.242-.132.286v-.1a.084.084,0,0,1-.008.019l-.04.092.006-.121a.455.455,0,0,0-.045.121,1.084,1.084,0,0,1,.011-.16c-.011.01,0,0-.015.02-.03.034-.038.086-.064.126l.03-.1c-.009,0,0,0-.015.009Z" transform="translate(-323.042 -282.4)" fill="#125aa3" fill-rule="evenodd"/>
            <path id="Trazado_210930" data-name="Trazado 210930" d="M445.913,406.763a.154.154,0,0,1-.126-.068.151.151,0,0,1,.038-.213.761.761,0,0,1,.412-.082c.483-.025.852-.083.912-.658a19.82,19.82,0,0,0-1.3-3.792.157.157,0,0,1-.006-.219.151.151,0,0,1,.218,0,17.8,17.8,0,0,1,1.4,4.045c-.1.884-.816.918-1.207.937a1.368,1.368,0,0,0-.252.026.158.158,0,0,1-.087.028" transform="translate(-320.776 -289.058)" fill="#fc9774"/>
            <g id="Grupo_173638" data-name="Grupo 173638" transform="translate(119.545 109.929)" opacity="0.52">
              <g id="Grupo_173637" data-name="Grupo 173637">
                <g id="Grupo_173636" data-name="Grupo 173636" clip-path="url(#clip-path-3)">
                  <path id="Trazado_210931" data-name="Trazado 210931" d="M428.5,392.068a2.664,2.664,0,1,1-2.131,2.61,2.41,2.41,0,0,1,2.131-2.61" transform="translate(-426.367 -392.068)" fill="#fff" fill-rule="evenodd"/>
                </g>
              </g>
            </g>
            <path id="Trazado_210932" data-name="Trazado 210932" d="M427.668,390.9a2.285,2.285,0,0,1,1.758.884v0a3.346,3.346,0,0,1,0,4.1v0a2.2,2.2,0,0,1-3.517,0v0a3.368,3.368,0,0,1,0-4.1v0a2.292,2.292,0,0,1,1.759-.884m1.256,1.3h0a1.538,1.538,0,0,0-2.507,0,2.705,2.705,0,0,0,0,3.277,1.538,1.538,0,0,0,2.507,0,2.712,2.712,0,0,0,0-3.277" transform="translate(-305.992 -281.297)" fill="#125aa3" fill-rule="evenodd"/>
            <g id="Grupo_173641" data-name="Grupo 173641" transform="translate(125.697 109.929)" opacity="0.52">
              <g id="Grupo_173640" data-name="Grupo 173640">
                <g id="Grupo_173639" data-name="Grupo 173639" clip-path="url(#clip-path-4)">
                  <path id="Trazado_210933" data-name="Trazado 210933" d="M450.439,392.068a2.664,2.664,0,1,1-2.131,2.61,2.412,2.412,0,0,1,2.131-2.61" transform="translate(-448.308 -392.068)" fill="#fff" fill-rule="evenodd"/>
                </g>
              </g>
            </g>
            <path id="Trazado_210934" data-name="Trazado 210934" d="M449.594,390.9a2.3,2.3,0,0,1,1.76.884v0a3.367,3.367,0,0,1,0,4.1v0a2.2,2.2,0,0,1-3.519,0v0a3.346,3.346,0,0,1,0-4.1v0a2.283,2.283,0,0,1,1.759-.884m1.252,1.3h0a1.54,1.54,0,0,0-2.509,0,2.712,2.712,0,0,0,0,3.277,1.54,1.54,0,0,0,2.509,0,2.72,2.72,0,0,0,0-3.277" transform="translate(-321.766 -281.297)" fill="#125aa3" fill-rule="evenodd"/>
            <path id="Trazado_210935" data-name="Trazado 210935" d="M405.311,402.685a.331.331,0,0,1-.31-.226.324.324,0,0,1,.209-.412l5.668-1.846a.3.3,0,0,1,.41.208.321.321,0,0,1-.207.41l-5.668,1.847a.245.245,0,0,1-.1.019" transform="translate(-291.434 -287.972)" fill="#125aa3"/>
            <path id="Trazado_210936" data-name="Trazado 210936" d="M100.67,278.868h70.088a2.015,2.015,0,1,0,0-4.03H100.67a2.015,2.015,0,1,0,0,4.03M200.8,262.181h8.352a2.017,2.017,0,0,0-.006-4.035H200.8a2.017,2.017,0,0,0,0,4.035m-13.347,16.687h6.678a2.015,2.015,0,0,0-.006-4.03h-6.673a2.015,2.015,0,1,0,0,4.03m-73.428-16.687h73.428a2.017,2.017,0,0,0,0-4.035H114.023a2.017,2.017,0,0,0,0,4.035" transform="translate(-70.993 -185.767)" fill="#a4d0fc" fill-rule="evenodd"/>
            <path id="Trazado_210937" data-name="Trazado 210937" d="M1348.463,266.508h70.088a2.015,2.015,0,1,0,0-4.03h-70.088a2.015,2.015,0,1,0,0,4.03m100.125-16.687h8.352a2.018,2.018,0,0,0-.006-4.036h-8.347a2.018,2.018,0,0,0,0,4.036m-13.347,16.687h6.678a2.015,2.015,0,0,0,0-4.03h-6.674a2.015,2.015,0,0,0,0,4.03m-73.426-16.687h73.426a2.018,2.018,0,0,0,0-4.036h-73.426a2.018,2.018,0,1,0,0,4.036" transform="translate(-968.929 -176.871)" fill="#a4d0fc" fill-rule="evenodd"/>
          </g>
        </g>
      </g>
    </g>
  </g>
</svg>
