<svg xmlns="http://www.w3.org/2000/svg" xmlns:xlink="http://www.w3.org/1999/xlink" width="610" height="444.291" viewBox="0 0 610 444.291">
  <defs>
    <clipPath id="clip-path">
      <rect id="Rectángulo_50812" data-name="Rectángulo 50812" width="478.228" height="378.464" fill="none"/>
    </clipPath>
    <clipPath id="clip-path-2">
      <rect id="Rectángulo_50811" data-name="Rectángulo 50811" width="478.227" height="378.466" fill="none"/>
    </clipPath>
    <clipPath id="clip-path-3">
      <rect id="Rectángulo_50809" data-name="Rectángulo 50809" width="79.618" height="79.637" fill="none"/>
    </clipPath>
    <clipPath id="clip-path-4">
      <rect id="Rectángulo_50810" data-name="Rectángulo 50810" width="29.546" height="77.056" fill="none"/>
    </clipPath>
  </defs>
  <g id="Grupo_1033708" data-name="Grupo 1033708" transform="translate(-3890.713 4521.11)">
    <g id="Grupo_160943" data-name="Grupo 160943" transform="translate(3710.713 -13032.551)" opacity="0.13">
      <g id="Grupo_154652" data-name="Grupo 154652" transform="translate(180 8511.44)">
        <g id="Grupo_154160" data-name="Grupo 154160" transform="translate(0 0)">
          <g id="Grupo_66834" data-name="Grupo 66834">
            <path id="Trazado_132887" data-name="Trazado 132887" d="M738.348,526.863c-56.821,77.476-60.758,301.127,19.052,359.663s213.167-70.218,269.973-147.691,38.17-187.709-41.638-246.245S795.159,449.4,738.348,526.863Z" transform="translate(-505.222 -457.039)" fill="#15d3ec"/>
            <path id="Trazado_132888" data-name="Trazado 132888" d="M652.737,605.065c0,108.19,226.26,226.357,351.078,226.357s258.922-118.167,258.922-226.357-52.662-181.459-236.98-99.419C914.718,555.061,652.737,496.877,652.737,605.065Z" transform="translate(-652.737 -437.812)" fill="#7e5ee3"/>
          </g>
        </g>
      </g>
    </g>
    <g id="Grupo_173669" data-name="Grupo 173669" transform="translate(4013.679 -4495.41)">
      <g id="Grupo_173668" data-name="Grupo 173668" clip-path="url(#clip-path)">
        <g id="Grupo_173667" data-name="Grupo 173667" transform="translate(0 -0.001)">
          <g id="Grupo_173666" data-name="Grupo 173666" clip-path="url(#clip-path-2)">
            <path id="Trazado_211225" data-name="Trazado 211225" d="M1267.46,527.448v93.931a39.666,39.666,0,0,1-39.549,39.549h0a39.664,39.664,0,0,1-39.549-39.549V527.448A39.662,39.662,0,0,0,1227.909,567h0a39.664,39.664,0,0,0,39.549-39.548" transform="translate(-851.346 -377.865)" fill="#fff" fill-rule="evenodd"/>
            <path id="Trazado_211226" data-name="Trazado 211226" d="M1227.909,161.366h0a39.665,39.665,0,0,1,39.549,39.549v64.27a39.664,39.664,0,0,1-39.549,39.548h0a39.662,39.662,0,0,1-39.549-39.548v-64.27a39.664,39.664,0,0,1,39.549-39.549" transform="translate(-851.346 -115.602)" fill="#ff9d00" fill-rule="evenodd"/>
            <path id="Trazado_211227" data-name="Trazado 211227" d="M1226.174,158.946h0a40.354,40.354,0,0,1,40.235,40.235v158.2a40.352,40.352,0,0,1-40.235,40.235h0a40.348,40.348,0,0,1-40.235-40.235v-158.2a40.35,40.35,0,0,1,40.235-40.235m38.863,114.914-.084.311-.007.022-.086.311-.1.32-.024.087-.071.233-.073.24-.027.08-.1.315-.024.075-.08.242-.075.224-.031.091-.109.313-.022.062-.091.253-.029.078-.085.233-.116.311-.02.049-.1.26-.078.2-.009.022-.16.4-.016.038-.158.375-.029.075-.053.122-.131.3-.011.022-.124.28-.076.169-.06.131-.138.3-.007.013,0,0-.182.387-.024.049-.069.14-.144.3,0,0v0c-.129.26-.262.52-.4.778l-.047.089,0,.009-.155.289-.071.131-.087.158-.149.267-.011.022c-.153.275-.313.547-.473.82v0l-.02.031-.169.28-.062.1-.107.176-.149.24-.026.038-.174.278-.151.231-.027.045-.147.224-.033.051-.182.271-.055.08-.129.191-.144.209-.04.06q-.377.536-.766,1.06l-.044.06-.153.2-.14.182-.057.075c-.169.222-.342.438-.516.653l-.024.033-.069.085-.207.251-.031.04-.176.213-.133.155-.08.094-.211.249-.024.026-.284.324-.036.04-.089.1-.218.244-.016.018-.009.009-.3.324-.02.022-.1.106-.224.236-.009.009-.04.04-.3.307-.109.113-.231.233a40.114,40.114,0,0,1-28.415,11.817h0a40.115,40.115,0,0,1-28.418-11.817l-.231-.233-.109-.113-.3-.307-.04-.04-.009-.009-.224-.236-.1-.106-.022-.022-.3-.324-.009-.009-.016-.018-.218-.244-.089-.1-.036-.04-.284-.324-.023-.026-.213-.249-.08-.094-.131-.155-.177-.213-.031-.04-.207-.251-.069-.085-.025-.033c-.175-.215-.346-.431-.515-.653l-.058-.075-.14-.182-.153-.2-.044-.06q-.39-.524-.764-1.06l-.042-.06-.144-.209-.129-.191-.056-.08-.182-.271-.031-.051-.146-.224-.029-.045-.149-.231-.177-.278-.025-.038-.147-.24-.107-.176-.064-.1-.169-.28-.018-.031,0,0c-.16-.273-.318-.544-.473-.82l-.011-.022-.149-.267-.087-.158-.071-.131-.153-.289-.007-.009-.044-.089c-.138-.258-.269-.518-.4-.778v0l-.147-.3-.069-.14-.025-.049-.182-.387,0,0,0-.013-.14-.3-.06-.131-.075-.169-.125-.28-.009-.022-.133-.3-.051-.122-.031-.075-.158-.375-.016-.038-.158-.4-.011-.022-.078-.2-.1-.26-.02-.049-.115-.311-.084-.233-.029-.078-.091-.253-.022-.062-.109-.313-.029-.091-.075-.224-.082-.242-.024-.075-.1-.315-.025-.08-.075-.24-.071-.233-.024-.087-.093-.32-.087-.311-.009-.022-.084-.311v83.522a38.98,38.98,0,0,0,38.863,38.863h0a38.98,38.98,0,0,0,38.86-38.863Zm-38.86-113.541h0a38.977,38.977,0,0,0-38.863,38.863v64.27a38.98,38.98,0,0,0,38.863,38.864h0a38.98,38.98,0,0,0,38.86-38.864v-64.27a38.978,38.978,0,0,0-38.86-38.863" transform="translate(-849.612 -113.868)" fill="#5e9bd3" fill-rule="evenodd"/>
            <path id="Trazado_211228" data-name="Trazado 211228" d="M605.7,479.051H405.581a5.654,5.654,0,0,1-5.638-5.638V169.429a5.654,5.654,0,0,1,5.638-5.638H605.7a5.654,5.654,0,0,1,5.638,5.638V473.414a5.654,5.654,0,0,1-5.638,5.638M405.581,455.616H605.7a1.681,1.681,0,0,0,1.675-1.675V169.429a1.68,1.68,0,0,0-1.675-1.676H405.581a1.682,1.682,0,0,0-1.677,1.676V453.941a1.682,1.682,0,0,0,1.677,1.675" transform="translate(-286.521 -117.339)" fill="#81d4fa" fill-rule="evenodd"/>
            <path id="Trazado_211229" data-name="Trazado 211229" d="M615.7,465.624H415.585a1.682,1.682,0,0,1-1.677-1.675V179.437a1.682,1.682,0,0,1,1.677-1.676H615.7a1.68,1.68,0,0,1,1.675,1.676V463.95a1.68,1.68,0,0,1-1.675,1.675" transform="translate(-296.525 -127.347)" fill="#fff" fill-rule="evenodd"/>
            <path id="Trazado_211230" data-name="Trazado 211230" d="M615.7,465.624H415.585a1.682,1.682,0,0,1-1.677-1.675V179.437a1.682,1.682,0,0,1,1.677-1.676H615.7a1.68,1.68,0,0,1,1.675,1.676V463.95a1.68,1.68,0,0,1-1.675,1.675" transform="translate(-296.525 -127.347)" fill="#a4ccec" fill-rule="evenodd"/>
            <rect id="Rectángulo_50806" data-name="Rectángulo 50806" width="199.99" height="284.388" transform="translate(119.122 52.152)" fill="#eef8fd"/>
            <rect id="Rectángulo_50807" data-name="Rectángulo 50807" width="199.99" height="15.158" transform="translate(119.122 52.152)" fill="#15d3ec"/>
            <path id="Trazado_211231" data-name="Trazado 211231" d="M473.069,202.97a2.8,2.8,0,1,0,2.8,2.795,2.795,2.795,0,0,0-2.8-2.795m-25.85,0a2.8,2.8,0,1,0,2.794,2.795,2.795,2.795,0,0,0-2.794-2.795m12.924,0a2.8,2.8,0,1,0,2.8,2.795,2.794,2.794,0,0,0-2.8-2.795" transform="translate(-318.388 -145.407)" fill="#fff" fill-rule="evenodd"/>
            <path id="Trazado_211232" data-name="Trazado 211232" d="M741.014,1208.166a9.232,9.232,0,1,0,9.232-9.232,9.233,9.233,0,0,0-9.232,9.232" transform="translate(-530.866 -858.92)" fill="#929497" fill-rule="evenodd"/>
            <path id="Trazado_211233" data-name="Trazado 211233" d="M740.614,1208.542a9.083,9.083,0,1,0,9.081-9.083,9.082,9.082,0,0,0-9.081,9.083" transform="translate(-530.579 -859.296)" fill="#fff" fill-rule="evenodd"/>
            <path id="Trazado_211234" data-name="Trazado 211234" d="M394.624,256.806v45.947a1.062,1.062,0,1,0,2.124,0V256.806a1.062,1.062,0,0,0-2.124,0" transform="translate(-282.71 -183.215)" fill="#97c1e7" fill-rule="evenodd"/>
            <path id="Trazado_211235" data-name="Trazado 211235" d="M394.624,431.974v45.948a1.062,1.062,0,0,0,2.124,0V431.974a1.062,1.062,0,1,0-2.124,0" transform="translate(-282.71 -308.706)" fill="#97c1e7" fill-rule="evenodd"/>
            <path id="Trazado_211236" data-name="Trazado 211236" d="M1144.441,398.81v45.946a1.062,1.062,0,0,0,2.124,0V398.81a1.062,1.062,0,0,0-2.124,0" transform="translate(-819.882 -284.947)" fill="#97c1e7" fill-rule="evenodd"/>
            <rect id="Rectángulo_50808" data-name="Rectángulo 50808" width="113.551" height="80.153" transform="translate(129.756 80.059)" fill="#fff"/>
            <path id="Trazado_211237" data-name="Trazado 211237" d="M456.342,280.625H570.368v81.1h-114.5v-81.1Zm113.078.946h-112.6v79.207h112.6Z" transform="translate(-326.586 -201.039)" fill="#5e9bd3" fill-rule="evenodd"/>
            <path id="Trazado_211238" data-name="Trazado 211238" d="M522.482,411.91V435.77a10.047,10.047,0,0,1-20.094,0V411.91a10.047,10.047,0,0,0,20.094,0" transform="translate(-359.913 -295.093)" fill="#67a1d7" fill-rule="evenodd"/>
            <path id="Trazado_211239" data-name="Trazado 211239" d="M512.434,318.919h0a10.077,10.077,0,0,1,10.047,10.046v16.326a10.047,10.047,0,0,1-20.094,0V328.965a10.077,10.077,0,0,1,10.047-10.046" transform="translate(-359.912 -228.473)" fill="#67a1d7" fill-rule="evenodd"/>
            <path id="Trazado_211240" data-name="Trazado 211240" d="M512,318.3h0a10.248,10.248,0,0,1,10.221,10.22v40.185a10.221,10.221,0,0,1-20.441,0V328.525A10.252,10.252,0,0,1,512,318.3m9.872,29.189-.022.08,0,.006-.022.078-.022.081-.007.022-.018.06-.02.061,0,.02-.027.081-.007.018-.02.062-.02.056-.007.023-.026.08-.007.015-.024.063,0,.021-.022.059-.031.079,0,.012-.026.066-.018.051,0,.006-.04.1,0,.009-.042.1-.007.019-.013.031-.033.077,0,.007-.031.07-.02.043-.016.033-.033.077,0,0h0l-.044.1-.009.012-.016.036-.038.075h0c-.033.065-.067.132-.1.2l-.011.022,0,0-.038.075-.018.032-.022.041-.038.067,0,.006c-.038.07-.078.139-.12.209l0,.008-.042.071-.016.027-.029.045-.038.061,0,.01-.044.07-.038.06-.009.01-.035.056-.009.014-.047.069-.013.021-.033.048-.038.054-.009.014c-.064.091-.129.18-.2.27l-.011.014-.038.051-.036.047-.016.019c-.042.056-.086.111-.131.166l-.007.008-.018.021-.051.064-.009.01-.045.054-.033.04-.02.023-.053.063-.009.008-.071.082-.009.009-.022.026-.055.062,0,0,0,0-.076.082,0,.006-.024.028-.058.059,0,0-.009.01-.076.077-.029.029-.058.059a10.179,10.179,0,0,1-14.436,0l-.06-.059-.026-.029-.076-.077-.011-.01,0,0-.056-.059-.026-.028,0-.006-.076-.082,0,0,0,0-.056-.062-.022-.026-.009-.009-.071-.082-.007-.008-.055-.063-.018-.023-.035-.04-.045-.054-.009-.01-.051-.064-.018-.021-.007-.008-.131-.166-.016-.019-.035-.047-.038-.051-.011-.014c-.066-.09-.131-.179-.2-.27l-.009-.014-.035-.054-.036-.048-.013-.021-.044-.069-.009-.014-.038-.056-.007-.01-.038-.06-.047-.07,0-.01-.038-.061-.027-.045-.016-.027-.044-.071,0-.008c-.042-.07-.08-.139-.12-.209l0-.006-.038-.067-.02-.041-.02-.032-.038-.075,0,0-.011-.022c-.035-.065-.069-.132-.1-.2h0l-.035-.075-.018-.036-.007-.012-.047-.1h0l0,0-.035-.077-.016-.033-.02-.043-.029-.07,0-.007-.033-.077-.014-.031-.007-.019-.04-.1,0-.009-.04-.1,0-.006-.02-.051-.027-.066,0-.012-.029-.079-.022-.059-.007-.021-.022-.063-.007-.015-.029-.08-.007-.023-.02-.056-.02-.062-.007-.018-.027-.081,0-.02-.02-.061-.018-.06-.007-.022-.022-.081-.022-.078,0-.006-.022-.08v21.216a9.872,9.872,0,0,0,19.743,0ZM512,318.654h0a9.9,9.9,0,0,0-9.872,9.872v16.326a9.872,9.872,0,0,0,19.743,0V328.525A9.9,9.9,0,0,0,512,318.654" transform="translate(-359.474 -228.034)" fill="#a6a8ab" fill-rule="evenodd"/>
            <path id="Trazado_211241" data-name="Trazado 211241" d="M511.374,378.556a10.5,10.5,0,0,1-10.467-10.466V327.9a10.467,10.467,0,0,1,20.934,0V368.09a10.5,10.5,0,0,1-10.467,10.466m-9.625-30.228V368.09a9.625,9.625,0,0,0,19.25,0V348.326l-.067.158-.26-.023.225.1-.149.315c-.036.069-.069.138-.107.205l-.131.243c-.042.074-.082.147-.127.22l-.047.078-.255-.054.209.129-.229.359-.251-.069.2.14-.038.054c-.076.109-.142.2-.209.291l-1,1.153a10.425,10.425,0,0,1-14.786,0l-.991-1.139c-.078-.107-.144-.2-.209-.289l-.327-.5.167-.2-.209.13Zm9.625-30.049a9.651,9.651,0,0,0-9.625,9.626v16.326a9.625,9.625,0,0,0,19.25,0V327.9a9.651,9.651,0,0,0-9.625-9.626m9.781,28.55.193.027v-.925q-.077.455-.193.9m-19.754-.9v.925l.193-.027q-.117-.443-.193-.9" transform="translate(-358.852 -227.413)" fill="#67a1d7"/>
            <path id="Trazado_211242" data-name="Trazado 211242" d="M632.42,411.91V435.77a10.076,10.076,0,0,1-10.045,10.046h0a10.076,10.076,0,0,1-10.045-10.046V411.91a10.076,10.076,0,0,0,10.045,10.046h0A10.076,10.076,0,0,0,632.42,411.91" transform="translate(-438.674 -295.093)" fill="#67a1d7" fill-rule="evenodd"/>
            <path id="Trazado_211243" data-name="Trazado 211243" d="M622.373,318.919h0a10.075,10.075,0,0,1,10.045,10.046v16.326a10.076,10.076,0,0,1-10.045,10.046h0a10.076,10.076,0,0,1-10.045-10.046V328.965a10.075,10.075,0,0,1,10.045-10.046" transform="translate(-438.674 -228.473)" fill="#67a1d7" fill-rule="evenodd"/>
            <path id="Trazado_211244" data-name="Trazado 211244" d="M621.935,318.3h0a10.252,10.252,0,0,1,10.22,10.22v40.185a10.252,10.252,0,0,1-10.22,10.22h0a10.248,10.248,0,0,1-10.218-10.22V328.525a10.248,10.248,0,0,1,10.218-10.22m9.874,29.189-.022.08,0,.006-.022.078-.022.081-.007.022-.02.06-.018.061-.007.02-.024.081-.007.018-.02.062-.02.056-.007.023-.029.08,0,.015-.024.063-.007.021-.022.059-.029.079,0,.012-.027.066-.018.051,0,.006-.04.1,0,.009-.04.1-.007.019-.013.031-.033.077,0,.007-.033.07-.018.043-.016.033-.035.077,0,0h0l-.047.1-.007.012-.016.036-.038.075h0c-.033.065-.067.132-.1.2l-.011.022,0,0-.04.075-.018.032-.022.041-.035.067,0,.006-.12.209,0,.008-.044.071-.014.027-.029.045-.038.061-.007.01-.044.07-.038.06-.007.01-.037.056-.009.014-.044.069-.016.021-.031.048-.038.054-.011.014c-.062.091-.127.18-.193.27l-.013.014-.038.051-.036.047-.015.019c-.042.056-.085.111-.129.166l-.007.008-.018.021-.051.064-.009.01-.045.054-.035.04-.018.023-.055.063-.007.008-.071.082-.009.009-.022.026-.056.062,0,0,0,0-.075.082,0,.006-.027.028-.058.059v0l-.011.01-.076.077-.027.029-.06.059a10.189,10.189,0,0,1-7.217,3h0a10.193,10.193,0,0,1-7.217-3l-.058-.059-.029-.029-.075-.077-.009-.01,0,0-.055-.059-.027-.028,0-.006-.075-.082,0,0-.007,0-.054-.062-.022-.026-.009-.009-.074-.082-.006-.008-.053-.063-.02-.023-.033-.04-.044-.054-.009-.01-.053-.064-.018-.021,0-.008c-.044-.056-.089-.111-.131-.166l-.016-.019-.036-.047-.038-.051-.011-.014c-.067-.09-.131-.179-.2-.27l-.009-.014-.038-.054-.034-.048-.013-.021-.047-.069-.007-.014-.04-.056,0-.01-.04-.06-.045-.07-.006-.01-.038-.061-.027-.045-.016-.027-.042-.071,0-.008c-.042-.07-.082-.139-.122-.209l0-.006-.038-.067-.022-.041-.018-.032-.04-.075v0l-.011-.022c-.036-.065-.069-.132-.1-.2h0l-.038-.075-.018-.036,0-.012-.047-.1h0l0,0-.036-.077-.013-.033L612.6,349l-.031-.07,0-.007-.033-.077-.013-.031-.009-.019-.04-.1,0-.009-.042-.1,0-.006-.02-.051-.024-.066,0-.012-.031-.079-.02-.059-.009-.021-.022-.063-.007-.015-.027-.08-.009-.023-.018-.056-.02-.062-.007-.018-.027-.081,0-.02-.02-.061-.018-.06-.007-.022-.024-.081-.022-.078,0-.006-.02-.08v21.216a9.9,9.9,0,0,0,9.869,9.872h0a9.9,9.9,0,0,0,9.872-9.872Zm-9.872-28.841h0a9.9,9.9,0,0,0-9.869,9.872v16.326a9.9,9.9,0,0,0,9.869,9.872h0a9.9,9.9,0,0,0,9.872-9.872V328.525a9.9,9.9,0,0,0-9.872-9.872" transform="translate(-438.237 -228.034)" fill="#67a1d7" fill-rule="evenodd"/>
            <path id="Trazado_211245" data-name="Trazado 211245" d="M515.712,407.293v23.86a10.046,10.046,0,1,1-20.092,0v-23.86a10.046,10.046,0,1,0,20.092,0" transform="translate(-355.064 -291.785)" fill="#fff" fill-rule="evenodd"/>
            <path id="Trazado_211246" data-name="Trazado 211246" d="M505.665,314.306h0a10.075,10.075,0,0,1,10.047,10.045v16.326a10.046,10.046,0,1,1-20.092,0V324.351a10.075,10.075,0,0,1,10.045-10.045" transform="translate(-355.064 -225.169)" fill="#a4ccec" fill-rule="evenodd"/>
            <path id="Trazado_211247" data-name="Trazado 211247" d="M505.221,313.687h0a10.248,10.248,0,0,1,10.221,10.221v40.185a10.221,10.221,0,0,1-20.441,0V323.908a10.248,10.248,0,0,1,10.22-10.221m9.872,29.19-.022.079v.007l-.022.078-.024.082-.007.022L515,343.2l-.018.061-.009.02-.024.08-.007.019-.02.062-.02.057-.007.023-.029.08,0,.016-.022.063-.009.02-.022.06-.029.078,0,.013-.024.067-.02.05,0,.005-.04.1,0,.009-.04.1-.009.019-.013.031-.033.077,0,.007-.031.071-.02.042-.016.033-.035.077v0l0,0-.047.1,0,.013-.018.034-.038.076h0c-.033.067-.067.132-.1.2l-.011.022v0l-.04.073-.018.033-.022.041-.038.067,0,.005-.12.209h0l0,.008-.042.072-.016.026-.029.045-.035.06-.009.01-.044.071-.035.059-.009.01-.035.058-.009.012-.047.069-.016.021-.031.048-.038.053-.009.016c-.064.091-.129.18-.2.269l-.011.015-.04.051-.033.047-.016.02-.131.165-.007.008-.018.021-.051.064-.009.01-.044.053-.033.04-.02.025-.056.062,0,.007-.071.083-.011.01-.022.024-.055.062,0,0,0,0-.075.082,0,.006-.024.028-.058.06,0,0-.011.01-.073.079-.029.028-.058.059a10.182,10.182,0,0,1-14.439,0l-.058-.059-.027-.028-.076-.079-.011-.01,0,0-.056-.06-.024-.028-.007-.006-.076-.082,0,0,0,0-.056-.062-.022-.024-.009-.01-.073-.083,0-.007-.053-.062-.022-.025-.033-.04-.045-.053-.007-.01-.053-.064-.018-.021-.007-.008-.131-.165-.013-.02-.035-.047-.04-.051-.011-.015c-.064-.089-.131-.178-.193-.269l-.011-.016-.038-.053-.031-.048-.016-.021-.047-.069-.007-.012-.038-.058-.007-.01-.038-.059-.044-.071-.007-.01-.038-.06-.027-.045-.018-.026-.042-.072,0-.008c-.042-.069-.082-.139-.12-.209l0-.005-.04-.067-.022-.041-.018-.033-.038-.073,0,0-.011-.022c-.035-.065-.069-.131-.1-.2h0l-.038-.076-.016-.034-.007-.013-.047-.1,0,0v0l-.035-.077-.016-.033-.02-.042-.031-.071,0-.007-.033-.077-.013-.031-.009-.019-.04-.1,0-.009-.042-.1v-.005l-.02-.05-.027-.067,0-.013-.029-.078-.022-.06-.009-.02-.022-.063,0-.016-.029-.08-.007-.023-.02-.057-.02-.062-.007-.019-.024-.08-.007-.02-.02-.061-.018-.059-.007-.022-.024-.082-.02-.078,0-.007-.022-.079v21.216a9.872,9.872,0,0,0,19.743,0Zm-9.872-28.841h0a9.9,9.9,0,0,0-9.872,9.872v16.326a9.872,9.872,0,0,0,19.743,0V323.908a9.9,9.9,0,0,0-9.872-9.872" transform="translate(-354.621 -224.725)" fill="#5e9bd3" fill-rule="evenodd"/>
            <path id="Trazado_211248" data-name="Trazado 211248" d="M625.645,407.293v23.86a10.046,10.046,0,0,1-20.092,0v-23.86a10.046,10.046,0,1,0,20.092,0" transform="translate(-433.821 -291.785)" fill="#fff" fill-rule="evenodd"/>
            <path id="Trazado_211249" data-name="Trazado 211249" d="M615.6,314.306h0a10.075,10.075,0,0,1,10.045,10.045v16.326a10.046,10.046,0,0,1-20.092,0V324.351A10.075,10.075,0,0,1,615.6,314.306" transform="translate(-433.821 -225.169)" fill="#a4ccec" fill-rule="evenodd"/>
            <path id="Trazado_211250" data-name="Trazado 211250" d="M615.158,313.687h0a10.252,10.252,0,0,1,10.221,10.221v40.185a10.222,10.222,0,0,1-20.443,0V323.908a10.252,10.252,0,0,1,10.223-10.221m9.872,29.19-.022.079,0,.007-.022.078-.024.082,0,.022-.018.059-.02.061-.007.02-.027.08,0,.019-.02.062-.02.057-.009.023-.027.08,0,.016-.024.063-.006.02-.022.06-.029.078,0,.013-.027.067-.02.05,0,.005-.04.1,0,.009-.04.1-.007.019-.013.031-.033.077,0,.007-.031.071-.02.042-.016.033-.035.077,0,0v0l-.047.1-.007.013-.016.034-.038.076h0c-.033.067-.069.132-.1.2l-.011.022,0,0-.04.073-.015.033-.022.041-.04.067,0,.005c-.038.07-.08.14-.12.209l0,.008-.042.072-.018.026-.026.045-.038.06-.007.01-.044.071-.038.059-.007.01-.038.058-.007.012-.049.069-.013.021-.031.048-.038.053-.011.016c-.062.091-.129.18-.193.269l-.011.015-.04.051-.035.047-.014.02c-.044.056-.086.11-.133.165l0,.008-.018.021-.054.064-.007.01-.047.053-.031.04-.022.025-.053.062,0,.007-.073.083-.009.01-.022.024-.056.062,0,0,0,0-.075.082,0,.006-.027.028-.056.06,0,0-.009.01-.076.079-.027.028-.06.059a10.18,10.18,0,0,1-14.437,0l-.058-.059-.027-.028-.076-.079-.011-.01,0,0-.058-.06-.024-.028-.007-.006-.075-.082v0l0,0-.056-.062-.024-.024-.007-.01-.073-.083-.007-.007-.053-.062-.02-.025-.033-.04-.044-.053-.009-.01-.051-.064-.018-.021-.007-.008c-.044-.056-.089-.11-.131-.165l-.016-.02-.035-.047-.038-.051-.011-.015c-.067-.089-.131-.178-.2-.269l-.011-.016-.035-.053-.033-.048-.013-.021-.047-.069-.009-.012-.036-.058-.009-.01-.038-.059-.045-.071-.006-.01-.036-.06-.029-.045-.016-.026-.044-.072,0-.008-.12-.209,0-.005-.038-.067-.022-.041-.018-.033-.04-.073v0l-.013-.022c-.034-.065-.067-.131-.1-.2h0l-.035-.076-.018-.034,0-.013-.049-.1v0l-.035-.077-.018-.033-.018-.042-.031-.071,0-.007-.033-.077-.013-.031-.009-.019-.04-.1,0-.009-.04-.1,0-.005-.02-.05-.024-.067,0-.013-.031-.078-.02-.06-.009-.02-.022-.063,0-.016-.029-.08-.007-.023-.02-.057-.02-.062-.007-.019-.027-.08-.006-.02-.018-.061-.018-.059-.007-.022-.024-.082-.022-.078v-.007l-.022-.079v21.216a9.872,9.872,0,0,0,19.743,0Zm-9.872-28.841h0a9.9,9.9,0,0,0-9.872,9.872v16.326a9.872,9.872,0,0,0,19.743,0V323.908a9.9,9.9,0,0,0-9.872-9.872" transform="translate(-433.378 -224.725)" fill="#5e9bd3" fill-rule="evenodd"/>
            <path id="Trazado_211251" data-name="Trazado 211251" d="M740.215,411.91V435.77a10.076,10.076,0,0,1-10.045,10.046h0a10.076,10.076,0,0,1-10.045-10.046V411.91a10.076,10.076,0,0,0,10.045,10.046h0a10.076,10.076,0,0,0,10.045-10.046" transform="translate(-515.899 -295.093)" fill="#67a1d7" fill-rule="evenodd"/>
            <path id="Trazado_211252" data-name="Trazado 211252" d="M730.168,318.919h0a10.075,10.075,0,0,1,10.045,10.046v16.326a10.076,10.076,0,0,1-10.045,10.046h0a10.076,10.076,0,0,1-10.045-10.046V328.965a10.075,10.075,0,0,1,10.045-10.046" transform="translate(-515.899 -228.473)" fill="#67a1d7" fill-rule="evenodd"/>
            <path id="Trazado_211253" data-name="Trazado 211253" d="M729.725,318.3h0a10.252,10.252,0,0,1,10.221,10.22v40.185a10.252,10.252,0,0,1-10.221,10.22h0a10.252,10.252,0,0,1-10.22-10.22V328.525a10.251,10.251,0,0,1,10.22-10.22m9.874,29.189-.022.08,0,.006-.022.078-.024.081-.007.022-.018.06-.018.061-.007.02-.024.081-.007.018-.02.062-.02.056-.009.023-.027.08-.007.015-.022.063-.007.021-.022.059-.029.079,0,.012-.027.066-.02.051,0,.006-.04.1,0,.009-.04.1-.007.019-.015.031-.031.077,0,.007-.031.07-.018.043-.016.033-.035.077,0,0h0l-.047.1-.007.012-.018.036-.035.075h0c-.035.065-.067.132-.1.2l-.013.022v0l-.04.075-.018.032-.022.041-.038.067,0,.006-.12.209,0,.008-.044.071-.016.027-.026.045-.038.061-.007.01-.045.07-.038.06-.007.01-.037.056-.009.014-.044.069-.016.021-.033.048-.035.054-.011.014c-.062.091-.129.18-.193.27l-.013.014-.038.051-.035.047-.016.019c-.042.056-.087.111-.129.166l-.007.008-.018.021-.054.064-.007.01-.044.054-.035.04-.018.023-.055.063-.007.008-.071.082-.009.009-.022.026-.056.062,0,0,0,0-.075.082-.007.006-.025.028-.058.059v0l-.011.01-.076.077-.029.029-.058.059a10.189,10.189,0,0,1-7.217,3h0a10.189,10.189,0,0,1-7.217-3l-.058-.059-.029-.029-.075-.077-.009-.01,0,0-.058-.059-.024-.028-.007-.006-.073-.082,0,0,0,0-.054-.062-.024-.026-.009-.009-.071-.082-.007-.008-.054-.063-.02-.023-.034-.04-.044-.054-.009-.01-.053-.064-.018-.021,0-.008c-.044-.056-.089-.111-.131-.166l-.016-.019-.035-.047-.038-.051-.011-.014c-.067-.09-.133-.179-.2-.27l-.009-.014-.038-.054-.034-.048-.013-.021-.047-.069-.009-.014-.038-.056-.007-.01-.038-.06-.044-.07-.007-.01-.038-.061-.027-.045-.016-.027-.042-.071,0-.008c-.042-.07-.082-.139-.122-.209l0-.006-.038-.067-.022-.041-.018-.032-.04-.075v0l-.011-.022c-.035-.065-.071-.132-.1-.2h0l-.038-.075-.018-.036-.007-.012-.047-.1h0l0,0-.036-.077-.013-.033-.02-.043-.031-.07,0-.007-.033-.077-.016-.031-.007-.019-.04-.1,0-.009-.04-.1,0-.006-.02-.051-.024-.066,0-.012-.031-.079-.022-.059-.006-.021-.025-.063,0-.015-.027-.08-.009-.023-.018-.056L720,348l0-.018-.027-.081-.007-.02-.018-.061-.018-.06-.007-.022-.024-.081-.022-.078,0-.006-.022-.08v21.216a9.9,9.9,0,0,0,9.872,9.872h0a9.9,9.9,0,0,0,9.872-9.872Zm-9.872-28.841h0a9.9,9.9,0,0,0-9.872,9.872v16.326a9.9,9.9,0,0,0,9.872,9.872h0a9.9,9.9,0,0,0,9.872-9.872V328.525a9.9,9.9,0,0,0-9.872-9.872" transform="translate(-515.456 -228.034)" fill="#a6a8ab" fill-rule="evenodd"/>
            <path id="Trazado_211254" data-name="Trazado 211254" d="M729.1,378.556h0a10.5,10.5,0,0,1-10.467-10.466V327.9a10.468,10.468,0,0,1,20.936,0V368.09A10.5,10.5,0,0,1,729.1,378.556m-9.627-30.233V368.09a9.626,9.626,0,0,0,19.252,0V348.322l-.666,1.3-.251-.059.209.129-.227.354-.255-.064.206.135-.035.054c-.058.081-.1.143-.147.2l-1.066,1.245a10.424,10.424,0,0,1-14.785,0l-.988-1.141c-.1-.128-.156-.209-.211-.291l-.7-1.146c-.034-.063-.062-.12-.089-.176Zm9.625-30.045a9.655,9.655,0,0,0-9.625,9.626v16.326a9.626,9.626,0,0,0,19.252,0V327.9a9.655,9.655,0,0,0-9.625-9.626Zm-9.974,27.651v.925l.193-.027c-.078-.3-.142-.6-.193-.9m19.754.9.2.028v-.927c-.051.3-.115.6-.2.9" transform="translate(-514.833 -227.413)" fill="#67a1d7"/>
            <path id="Trazado_211255" data-name="Trazado 211255" d="M733.44,407.293v23.86a10.046,10.046,0,1,1-20.092,0v-23.86a10.046,10.046,0,1,0,20.092,0" transform="translate(-511.045 -291.785)" fill="#fff" fill-rule="evenodd"/>
            <path id="Trazado_211256" data-name="Trazado 211256" d="M723.4,314.306h0a10.075,10.075,0,0,1,10.045,10.045v16.326a10.046,10.046,0,1,1-20.092,0V324.351A10.075,10.075,0,0,1,723.4,314.306" transform="translate(-511.045 -225.169)" fill="#a4ccec" fill-rule="evenodd"/>
            <path id="Trazado_211257" data-name="Trazado 211257" d="M722.953,313.687h0a10.252,10.252,0,0,1,10.221,10.221v40.185a10.222,10.222,0,0,1-20.443,0V323.908a10.252,10.252,0,0,1,10.223-10.221m9.872,29.19-.022.079,0,.007-.022.078-.024.082,0,.022-.02.059-.018.061-.007.02-.027.08,0,.019-.022.062-.018.057-.009.023-.027.08,0,.016-.024.063-.007.02-.022.06-.029.078,0,.013-.027.067-.02.05,0,.005-.04.1,0,.009-.04.1-.007.019-.013.031-.033.077,0,.007-.031.071-.02.042-.013.033-.036.077,0,0v0l-.046.1-.007.013-.018.034-.035.076h0c-.031.067-.067.132-.1.2l-.011.022,0,0-.04.073-.018.033-.022.041-.038.067,0,.005-.12.209,0,.008-.045.072-.016.026-.026.045-.038.06-.007.01-.045.071-.038.059-.007.01-.038.058-.009.012-.046.069-.013.021-.033.048-.035.053-.011.016c-.062.091-.129.18-.2.269l-.009.015-.04.051-.035.047-.014.02-.133.165,0,.008-.018.021-.054.064-.007.01-.047.053-.033.04-.02.025-.053.062-.007.007L730.6,347l-.009.01-.022.024-.056.062,0,0,0,0-.075.082-.006.006-.025.028-.058.06,0,0-.009.01-.075.079-.027.028-.06.059a10.18,10.18,0,0,1-14.437,0l-.057-.059-.029-.028-.073-.079-.011-.01,0,0-.058-.06-.024-.028-.007-.006-.075-.082,0,0,0,0-.058-.062-.022-.024L715.3,347l-.071-.083-.007-.007-.053-.062-.02-.025-.034-.04-.047-.053-.007-.01-.053-.064L715,346.63l-.009-.008c-.042-.056-.087-.11-.129-.165l-.016-.02-.035-.047-.038-.051-.013-.015c-.064-.089-.129-.178-.193-.269l-.011-.016-.035-.053-.033-.048-.013-.021-.047-.069-.009-.012-.036-.058-.009-.01-.038-.059-.044-.071-.006-.01-.038-.06-.027-.045-.016-.026-.044-.072,0-.008-.12-.209,0-.005-.038-.067-.022-.041-.018-.033-.04-.073v0l-.013-.022c-.033-.065-.067-.131-.1-.2h0l-.035-.076-.018-.034-.007-.013-.047-.1v0l0,0-.033-.077-.018-.033-.018-.042-.031-.071,0-.007-.031-.077-.013-.031-.009-.019-.04-.1,0-.009-.04-.1,0-.005-.02-.05-.027-.067,0-.013-.029-.078-.022-.06-.007-.02-.022-.063-.007-.016-.027-.08-.007-.023-.02-.057-.022-.062,0-.019-.027-.08-.007-.02-.018-.061-.018-.059-.007-.022-.024-.082-.022-.078,0-.007-.02-.079v21.216a9.872,9.872,0,0,0,19.743,0Zm-9.872-28.841h0a9.9,9.9,0,0,0-9.872,9.872v16.326a9.872,9.872,0,0,0,19.743,0V323.908a9.9,9.9,0,0,0-9.872-9.872" transform="translate(-510.603 -224.725)" fill="#5e9bd3" fill-rule="evenodd"/>
            <path id="Trazado_211258" data-name="Trazado 211258" d="M539.909,746.855l-66.232-8.814-14.605-1.473,3.492-12.881L498.5,604.378l81.077,10.791Z" transform="translate(-328.881 -432.977)" fill="#fff" fill-rule="evenodd"/>
            <path id="Trazado_211259" data-name="Trazado 211259" d="M593.478,988.558a.7.7,0,0,1,.524.96,1.028,1.028,0,0,1-1.042.755l-43.887-5.842a.7.7,0,0,1-.524-.962,1.029,1.029,0,0,1,1.042-.753Z" transform="translate(-392.952 -704.016)" fill="#c1ddf3" fill-rule="evenodd"/>
            <path id="Trazado_211260" data-name="Trazado 211260" d="M601.215,938.656a.7.7,0,0,1,.524.962,1.031,1.031,0,0,1-1.042.753l-53.079-7.066a.7.7,0,0,1-.524-.96,1.028,1.028,0,0,1,1.042-.753Z" transform="translate(-391.911 -667.391)" fill="#c1ddf3" fill-rule="evenodd"/>
            <path id="Trazado_211261" data-name="Trazado 211261" d="M610.386,908.213a.7.7,0,0,1,.524.962,1.026,1.026,0,0,1-1.042.751l-53.079-7.064a.7.7,0,0,1-.524-.96,1.029,1.029,0,0,1,1.04-.755Z" transform="translate(-398.481 -645.58)" fill="#c1ddf3" fill-rule="evenodd"/>
            <path id="Trazado_211262" data-name="Trazado 211262" d="M619.551,877.773a.7.7,0,0,1,.524.964,1.03,1.03,0,0,1-1.04.753l-53.082-7.066a.7.7,0,0,1-.524-.96,1.03,1.03,0,0,1,1.042-.755Z" transform="translate(-405.047 -623.774)" fill="#c1ddf3" fill-rule="evenodd"/>
            <path id="Trazado_211263" data-name="Trazado 211263" d="M628.718,847.334a.7.7,0,0,1,.524.964,1.029,1.029,0,0,1-1.042.751l-53.081-7.064a.7.7,0,0,1-.524-.96,1.029,1.029,0,0,1,1.042-.755Z" transform="translate(-411.613 -601.967)" fill="#c1ddf3" fill-rule="evenodd"/>
            <path id="Trazado_211264" data-name="Trazado 211264" d="M637.888,816.9a.7.7,0,0,1,.526.964,1.033,1.033,0,0,1-1.044.751l-53.079-7.064a.7.7,0,0,1-.524-.96,1.027,1.027,0,0,1,1.042-.755Z" transform="translate(-418.183 -580.161)" fill="#c1ddf3" fill-rule="evenodd"/>
            <path id="Trazado_211265" data-name="Trazado 211265" d="M647.055,786.459a.7.7,0,0,1,.524.962,1.029,1.029,0,0,1-1.042.751l-53.079-7.064a.7.7,0,0,1-.526-.96,1.031,1.031,0,0,1,1.042-.755Z" transform="translate(-424.749 -558.354)" fill="#c1ddf3" fill-rule="evenodd"/>
            <path id="Trazado_211266" data-name="Trazado 211266" d="M656.225,756.019a.7.7,0,0,1,.524.964,1.028,1.028,0,0,1-1.04.751l-53.081-7.064a.7.7,0,0,1-.524-.96,1.028,1.028,0,0,1,1.042-.755Z" transform="translate(-431.32 -536.548)" fill="#c1ddf3" fill-rule="evenodd"/>
            <path id="Trazado_211267" data-name="Trazado 211267" d="M665.389,725.581a.7.7,0,0,1,.527.962,1.03,1.03,0,0,1-1.042.753l-53.081-7.064a.7.7,0,0,1-.524-.96,1.028,1.028,0,0,1,1.042-.755Z" transform="translate(-437.886 -514.742)" fill="#c1ddf3" fill-rule="evenodd"/>
            <path id="Trazado_211268" data-name="Trazado 211268" d="M674.559,695.143a.7.7,0,0,1,.524.962,1.028,1.028,0,0,1-1.04.753l-53.081-7.064a.7.7,0,0,1-.524-.962,1.028,1.028,0,0,1,1.042-.753Z" transform="translate(-444.454 -492.936)" fill="#c1ddf3" fill-rule="evenodd"/>
            <path id="Trazado_211269" data-name="Trazado 211269" d="M789.492,436.865H916.975a18.148,18.148,0,0,1,18.1,18.1V630.2a18.149,18.149,0,0,1-18.1,18.095H789.492A18.147,18.147,0,0,1,771.4,630.2V454.96a18.147,18.147,0,0,1,18.1-18.1" transform="translate(-552.632 -312.97)" fill="#81d4fa" fill-rule="evenodd"/>
            <path id="Trazado_211270" data-name="Trazado 211270" d="M802.41,454.9H929.893a13.02,13.02,0,0,1,12.982,12.982V643.116A13.018,13.018,0,0,1,929.893,656.1H802.41a13.018,13.018,0,0,1-12.982-12.979V467.879A13.02,13.02,0,0,1,802.41,454.9" transform="translate(-565.549 -325.889)" fill="#d1e4f5" fill-rule="evenodd"/>
            <path id="Trazado_211271" data-name="Trazado 211271" d="M823.176,466.1l132.255,1.047-1.558,180.773-132.252-1.047Z" transform="translate(-588.613 -333.913)" fill="#fff" fill-rule="evenodd"/>
            <path id="Trazado_211272" data-name="Trazado 211272" d="M934.189,373.421h22.42V368.7a9.247,9.247,0,1,1,18.495,0v4.724h22.418a5.6,5.6,0,0,1,5.589,5.588v10.645a5.6,5.6,0,0,1-5.589,5.588H934.189a5.6,5.6,0,0,1-5.587-5.588V379.009a5.6,5.6,0,0,1,5.587-5.588m31.667-8.449a4.091,4.091,0,1,0,4.092,4.091,4.092,4.092,0,0,0-4.092-4.091" transform="translate(-665.254 -257.51)" fill="#15d3ec" fill-rule="evenodd"/>
            <path id="Trazado_211273" data-name="Trazado 211273" d="M899.794,577.413c-1.342,19.752-6.1,41.641-27.86,47.3l-.54.14-.542-.14c-21.765-5.662-26.518-27.552-27.86-47.3l-.129-1.9,1.875-.351c9.076-1.7,17.4-5.1,25.761-8.943l.9-.409.893.409c8.361,3.838,16.685,7.242,25.761,8.943l1.875.351Z" transform="translate(-603.831 -405.346)" fill="#d1e4f5" fill-rule="evenodd"/>
            <path id="Trazado_211274" data-name="Trazado 211274" d="M903.388,582.976c-8.97-1.68-16.969-4.834-26.259-9.1-9.29,4.265-17.291,7.419-26.261,9.1,1.831,26.978,9.832,41.1,26.261,45.373,16.427-4.274,24.428-18.395,26.259-45.373" transform="translate(-609.566 -411.126)" fill="#88b9e3" fill-rule="evenodd"/>
            <path id="Trazado_211275" data-name="Trazado 211275" d="M909.755,596.96a119.945,119.945,0,0,1-22.087-7.919,119.947,119.947,0,0,1-22.089,7.919c1.08,12,4,26.834,13.861,34.173a25.941,25.941,0,0,0,8.228,4.018,25.953,25.953,0,0,0,8.226-4.018c9.858-7.339,12.784-22.174,13.861-34.173" transform="translate(-620.104 -421.99)" fill="#c1ddf3" fill-rule="evenodd"/>
            <path id="Trazado_211276" data-name="Trazado 211276" d="M965.555,596.96a119.946,119.946,0,0,1-22.087-7.919v46.111a25.951,25.951,0,0,0,8.226-4.018c9.858-7.339,12.784-22.174,13.861-34.173" transform="translate(-675.904 -421.99)" fill="#a4ccec" fill-rule="evenodd"/>
            <path id="Trazado_211277" data-name="Trazado 211277" d="M914.333,639.491A11.533,11.533,0,1,0,902.8,627.957a11.556,11.556,0,0,0,11.533,11.533" transform="translate(-646.77 -441.607)" fill="#a4ccec" fill-rule="evenodd"/>
            <path id="Trazado_211278" data-name="Trazado 211278" d="M918.148,625.878h5.9v5.9h5.9v5.9h-5.9v5.9h-5.9v-5.9h-5.9v-5.9h5.9Z" transform="translate(-653.536 -448.38)" fill="#fff" fill-rule="evenodd"/>
            <path id="Trazado_211279" data-name="Trazado 211279" d="M892.9,619.821a13.285,13.285,0,1,1,13.286,13.288A13.285,13.285,0,0,1,892.9,619.821m13.286,14.759a14.756,14.756,0,1,0-14.759-14.759,14.758,14.758,0,0,0,14.759,14.759" transform="translate(-638.622 -433.471)" fill="#a4ccec" fill-rule="evenodd"/>
            <path id="Trazado_211280" data-name="Trazado 211280" d="M916.509,628.441H910.92v5.278h5.9v5.9H922.1v-5.9H928v-5.278h-5.9v-5.9h-5.278v5.9Zm-5.9-.624H916.2v-5.9h6.526v5.9h5.9v6.526h-5.9v5.9H916.2v-5.9h-5.9v-6.526Z" transform="translate(-652.14 -445.541)" fill="#5e9bd3" fill-rule="evenodd"/>
            <path id="Trazado_211281" data-name="Trazado 211281" d="M1077.084,587.631h47.326c.469,0,.851,1.4.851,3.105v0c0,1.708-.382,3.105-.851,3.105h-47.326c-.469,0-.851-1.4-.851-3.105v0c0-1.708.382-3.105.851-3.105" transform="translate(-771.018 -420.98)" fill="#88b9e3" fill-rule="evenodd"/>
            <path id="Trazado_211282" data-name="Trazado 211282" d="M1077.084,630.775h47.326a.853.853,0,0,1,0,1.706h-47.326a.853.853,0,0,1,0-1.706" transform="translate(-771.018 -451.888)" fill="#88b9e3" fill-rule="evenodd"/>
            <path id="Trazado_211283" data-name="Trazado 211283" d="M1077.084,658.017h47.326a.853.853,0,0,1,0,1.706h-47.326a.853.853,0,0,1,0-1.706" transform="translate(-771.018 -471.405)" fill="#88b9e3" fill-rule="evenodd"/>
            <path id="Trazado_211284" data-name="Trazado 211284" d="M1077.084,685.259h47.326a.854.854,0,0,1,.851.853v0a.853.853,0,0,1-.851.851h-47.326a.853.853,0,0,1-.851-.851v0a.854.854,0,0,1,.851-.853" transform="translate(-771.018 -490.921)" fill="#88b9e3" fill-rule="evenodd"/>
            <path id="Trazado_211285" data-name="Trazado 211285" d="M1077.084,712.509h47.326a.854.854,0,0,1,.851.851v0a.852.852,0,0,1-.851.851h-47.326a.852.852,0,0,1-.851-.851v0a.854.854,0,0,1,.851-.851" transform="translate(-771.018 -510.443)" fill="#88b9e3" fill-rule="evenodd"/>
            <path id="Trazado_211286" data-name="Trazado 211286" d="M1077.084,739.752h47.326a.854.854,0,0,1,.851.851v0a.855.855,0,0,1-.851.853h-47.326a.854.854,0,0,1-.851-.853v0a.854.854,0,0,1,.851-.851" transform="translate(-771.018 -529.96)" fill="#88b9e3" fill-rule="evenodd"/>
            <path id="Trazado_211287" data-name="Trazado 211287" d="M894.419,858.083c-.642-2.157.02-4.682,1.482-5.631a2.038,2.038,0,0,1,1.977-.191c.727-1.782,1.886-5.12,3.112-8.655,1.322-3.816,2.717-7.837,4.067-10.936,1.893-4.352,3.327-7.786,4.549-10.718,4.769-11.427,7.31-17.537,10.971-13.355,2.352,2.69,2.555,12.606,2.97,33.842l.151,7.652c.267,13.1-1.968,18.47-.942,18.426.715-.027.573-3.912,2.608-10.127a339.994,339.994,0,0,1,14.359-37.872c7.191-15.536,11.194-20.992,14.294-17.873,2.637,2.661,2.29,11.042,1.735,24.479-.284,6.79-.626,15.058-.769,24.577,2.221-5.252,5.4-12.948,7.393-17.753.662-1.606,1.186-2.863,1.662-3.968l-.009-.006c.991-2.306,4.016-9.77,7.2-17.629l4.4-10.842c-.708.424-1.435.877-2.17,1.377-1.448.986-3.165.049-3.834-2.09s-.031-4.673,1.417-5.66c1.486-1.013,2.866-1.808,4.181-2.572a26.513,26.513,0,0,0,6.877-5.082c1.284-1.393,3.094-.979,4.036.919a6.012,6.012,0,0,1,.133,4.754,30.318,30.318,0,0,0-.32,4.563c-.107,3.741.024,8.135.22,10.507a6.458,6.458,0,0,1,0,.971l-.007.34c-.042,2.35-1.371,4.2-2.963,4.141s-2.848-2.026-2.805-4.374l.007-.286c-.053-.671-.1-1.475-.14-2.361l-4.085,10.078c-3.35,8.27-6.546,16.154-7.266,17.824l-.009-.006,0,.006c-.242.564-.857,2.048-1.6,3.839-3.819,9.232-11.393,27.543-14.837,27.543-2.139,0-3.341-1.74-3.341-5.614,0-13.155.48-24.688.853-33.693.436-10.474.849-16.865.78-16.931-.5-.5-1.377,5.071-6.264,15.634A330.973,330.973,0,0,0,930.569,862.1c-2.97,9.07-4.856,14.826-7.655,14.941-3.461.153-4.594-7.517-4.982-26.714l-.153-7.651c-.362-18.473-.531-27.1-.733-27.327-1.422-1.626.044,4.914-2.526,11.082-1.371,3.281-2.968,7.1-4.6,10.854-1.289,2.959-2.577,6.673-3.8,10.2-2.248,6.484-4.318,12.449-6.591,13.932-2.2,1.442-3.943.58-5.113-3.327" transform="translate(-640.589 -563.559)" fill="#a4ccec" fill-rule="evenodd"/>
            <path id="Trazado_211288" data-name="Trazado 211288" d="M229.087,468.638q3.632-1.689,5.022.725a11.647,11.647,0,0,1-5.4,8.451q1.479-2.484.378-9.176" transform="translate(-163.848 -335.234)" fill="#12263f" fill-rule="evenodd"/>
            <path id="Trazado_211289" data-name="Trazado 211289" d="M445.819,450.846s4.783-6.646,5.655-7.045,5.156-.178,6.111.558,1.344,3.94.917,4.724-2.328.129-3.119.644a9.161,9.161,0,0,0-1.713,1.631,31.489,31.489,0,0,1-2.9,2.434Z" transform="translate(-319.387 -317.799)" fill="#f9af79" fill-rule="evenodd"/>
            <path id="Trazado_211290" data-name="Trazado 211290" d="M295.727,490.015s21.347-2.621,25.51-5.6,17.055-15.283,17.055-15.283l5.842,3.181s-8.014,15.3-14.31,21.627S307.913,513,307.913,513Z" transform="translate(-211.86 -336.09)" fill="#15d3ec" fill-rule="evenodd"/>
            <path id="Trazado_211291" data-name="Trazado 211291" d="M266.707,518.749l10.456,19.846,2.5.178,1.126,3.167,10.481,31.588s5.807-40.135-24.561-54.779" transform="translate(-191.07 -371.633)" fill="#15d3ec" fill-rule="evenodd"/>
            <path id="Trazado_211292" data-name="Trazado 211292" d="M286.331,580.613s11.569,42.641,12.68,83.327c0,0-9.588,3.343-24.664.7-15.145-2.661,11.984-84.022,11.984-84.022" transform="translate(-193.25 -415.952)" fill="#6bcfc6" fill-rule="evenodd"/>
            <path id="Trazado_211293" data-name="Trazado 211293" d="M239.842,488.617c-8.685,2.74-23.709-4.656-23.709-4.656a12.088,12.088,0,0,0,3.215-3.391,28.106,28.106,0,0,0,4.371-15.114l6.718,5.411L235,474.543a55.565,55.565,0,0,1-.52,5.964c-.089.693-.2,1.441-.32,2.239a1.6,1.6,0,0,0,.729,1.619,20.624,20.624,0,0,1,4.954,4.251" transform="translate(-154.838 -333.453)" fill="#f9af79" fill-rule="evenodd"/>
            <path id="Trazado_211294" data-name="Trazado 211294" d="M232.34,610.675a27.4,27.4,0,0,1-4.234.031c-3.263-.047-9.825-1.122-17.871-1.948-6.788-.651-12.793-2.659-19.241-5.549-.857-.384-2.823-1.435-2.781-2.395.027-1.048.133-2.568.264-4.483a240.743,240.743,0,0,0,.478-31.31c-.138-2.459-.213-4.9-.223-7.3-.071-17.9,3.483-33.642,10.614-38.971a59.024,59.024,0,0,0,8.414,3.891c3.372,1.078,5.111.861,6.862-.3a21.271,21.271,0,0,1,4.858,3.28c3.372,3.671,6,8.551,7.744,15.55a133.553,133.553,0,0,1,3.345,25.779c.211,5.045,1.986,43.552,1.771,43.725" transform="translate(-134.836 -371.633)" fill="#bcdbf3" fill-rule="evenodd"/>
            <path id="Trazado_211295" data-name="Trazado 211295" d="M254.1,487.882a55.538,55.538,0,0,1-.52,5.965c-5.051-.868-10.787-9.036-10.787-9.036a16.109,16.109,0,0,1,6.744-.6Z" transform="translate(-173.938 -346.793)" fill="#ed7d57" fill-rule="evenodd"/>
            <path id="Trazado_211296" data-name="Trazado 211296" d="M247.328,434.04s-16.933.945-18.579-9.989-5.014-17.925,6.1-20.245,13.919,1.526,15.354,5.042,1.639,24.153-2.877,25.192" transform="translate(-162.593 -288.781)" fill="#f9af79" fill-rule="evenodd"/>
            <path id="Trazado_211297" data-name="Trazado 211297" d="M221.578,408.618c-.54.505-.111-5.631-.4-8.107s-.284-5.712,1.728-5.109,2.115,2.215,2.941,1.273.839-4.9,6.83-5.181,9.574.977,12.36-.247,5.6-5.8,5.6-5.8-3.454,1.866-4.656,2.345c0,0,2.095-5.36-3.285-9.72-5.48-4.442-11.622-2.067-17.3.453-1.773.786-3.572,2.867-4.967,4.037-1.87,1.568-4.547,1.935-5.427,3.705a9.976,9.976,0,0,0-.684,4.476c.162,6.1,3.165,15.139,7.266,17.875" transform="translate(-153.529 -269.07)" fill="#12263f" fill-rule="evenodd"/>
            <path id="Trazado_211298" data-name="Trazado 211298" d="M408.7,1283.18s4.96,4.7,9.854,5.569,10.407,2.71,10.545,5.487-15.88,4.376-21.54,1.742c-8.445-3.934-9.243-2.65-10.24-4.711s.829-7.708.744-8.37c-.1-.82,10.638.284,10.638.284" transform="translate(-284.427 -918.853)" fill="#263c84" fill-rule="evenodd"/>
            <path id="Trazado_211299" data-name="Trazado 211299" d="M410.7,1273.819l.622,2.3c-.091.051-10.9,1.544-10.638-.284.211-1.481.535-3.1.535-3.1Z" transform="translate(-287.047 -911.791)" fill="#f9af79" fill-rule="evenodd"/>
            <path id="Trazado_211300" data-name="Trazado 211300" d="M50.969,1244.443s2.388,5.989,6.393,8.525,5.742,6.242,4.652,8.779-13.657,1.161-17.662-6.251c-2.744-5.074-5.893-6.98-5.884-9.183s2.879-5.323,3.094-5.949c.264-.769,9.407,4.078,9.407,4.078" transform="translate(-27.558 -888.541)" fill="#263c84" fill-rule="evenodd"/>
            <path id="Trazado_211301" data-name="Trazado 211301" d="M59.624,1235.807l-.986,2.173c-.107.011-10.327-2.47-9.407-4.078a15,15,0,0,1,2.13-2.641Z" transform="translate(-35.227 -882.078)" fill="#f9af79" fill-rule="evenodd"/>
            <path id="Trazado_211302" data-name="Trazado 211302" d="M133.714,835.324s24.595,39.7,29.157,49.314c4.225,8.91.871,18.048.578,24.941-.338,7.89-5.018,41.668-4.5,43.969s-13.608,1.031-13.608,1.031,2.875-53.7-1.306-61.431c-2.79-5.158-29.291-39.8-31.143-37.67S90.873,889.42,88.2,895.672c-2.5,5.855-29.644,50.918-29.644,50.918s-7.679-.582-12.855-4.931c0,0,24.559-49.589,26.7-58.031,1.086-4.3,11.491-34.46,19.21-53.914,4.078-10.283,42.1,5.611,42.1,5.611" transform="translate(-32.743 -591.928)" fill="#7e5ee3" fill-rule="evenodd"/>
            <path id="Trazado_211303" data-name="Trazado 211303" d="M243.332,831.852s1.006.98,1.517,5.329c0,0-39.309-2.026-43.527-3.428,0,0-.42-4.8.451-4.932.957-.146,41.559,3.03,41.559,3.03" transform="translate(-144.155 -593.766)" fill="#4189c9" fill-rule="evenodd"/>
            <path id="Trazado_211304" data-name="Trazado 211304" d="M233.992,824.074s-.831,4.751-.9,5.991l-1.761-.322s.486-5.022.773-5.866Z" transform="translate(-165.723 -590.227)" fill="#556066" fill-rule="evenodd"/>
            <path id="Trazado_211305" data-name="Trazado 211305" d="M333.468,837.8s.924,4.394,1.03,6.064l-1.924-.122s-.693-5.511-.942-6.078Z" transform="translate(-237.583 -600.102)" fill="#5e9bd3" fill-rule="evenodd"/>
            <path id="Trazado_211306" data-name="Trazado 211306" d="M283.664,829.814s5.6.606,7.455,1.024l-.242,5.689-7.337-.708Z" transform="translate(-203.129 -594.481)" fill="#545b9c" fill-rule="evenodd"/>
            <path id="Trazado_211307" data-name="Trazado 211307" d="M186.429,616.3c21.92,13.748,33.531,6.244,33.531,6.244,3.21-25.079,1.433-55.347,1.015-62.729-1.062-32.407-24.013-41.066-24.013-41.066l-2.279,2.044-1.9,2.464-3.172,5.109-4.729,19.341,1.1,13.777-.36,23.742Z" transform="translate(-132.452 -371.633)" fill="#81d4fa" fill-rule="evenodd"/>
            <path id="Trazado_211308" data-name="Trazado 211308" d="M227.472,518.749l10.46,19.846,5.365-1.951-1.744,5.3,10.487,31.588s5.8-40.135-24.568-54.779" transform="translate(-162.962 -371.633)" fill="#15d3ec" fill-rule="evenodd"/>
            <path id="Trazado_211309" data-name="Trazado 211309" d="M269.565,380.592c5.927,3,10.534,3.247,15.581-.481-2.328-4.4-3.179-9.043-15.581-9.221q7.108,3.442,0,9.7" transform="translate(-193.117 -265.706)" fill="#12263f" fill-rule="evenodd"/>
            <path id="Trazado_211310" data-name="Trazado 211310" d="M218.5,443.591q3.632-1.689,5.022.724a11.639,11.639,0,0,1-5.4,8.451q1.48-2.484.378-9.175" transform="translate(-156.261 -317.291)" fill="#12263f" fill-rule="evenodd"/>
            <path id="Trazado_211311" data-name="Trazado 211311" d="M237.06,390.813q-1.662,1.7-2.945.652a6.919,6.919,0,0,1,1.228-5.834q-.3,1.693,1.717,5.182" transform="translate(-167.596 -276.266)" fill="#12263f" fill-rule="evenodd"/>
            <path id="Trazado_211312" data-name="Trazado 211312" d="M226.832,403.082q2.352-.374,2.237-2.025a6.917,6.917,0,0,0-5.467-2.376q1.553.733,3.23,4.4" transform="translate(-160.189 -285.611)" fill="#12263f" fill-rule="evenodd"/>
            <path id="Trazado_211313" data-name="Trazado 211313" d="M214.054,738.692l56.313-51.184q-.863-.846-1.688-1.75t-1.582-1.846L210.786,735.1a2.449,2.449,0,0,0-.184,3.448l0,0a2.448,2.448,0,0,0,3.45.147" transform="translate(-150.43 -489.955)" fill="#ff9d00" fill-rule="evenodd"/>
            <path id="Trazado_211314" data-name="Trazado 211314" d="M447.021,515.156a42.626,42.626,0,0,1-58.526-1.124q-.867-.846-1.688-1.75c-.549-.6-1.075-1.217-1.582-1.846a42.625,42.625,0,1,1,61.8,4.72m-57.715-5.145a39.25,39.25,0,1,0,2.646-55.445,39.247,39.247,0,0,0-2.646,55.445" transform="translate(-269.171 -315.922)" fill="#ff9d00" fill-rule="evenodd"/>
            <g id="Grupo_173662" data-name="Grupo 173662" transform="translate(109.381 127.87)" opacity="0.46">
              <g id="Grupo_173661" data-name="Grupo 173661">
                <g id="Grupo_173660" data-name="Grupo 173660" clip-path="url(#clip-path-3)">
                  <path id="Trazado_211315" data-name="Trazado 211315" d="M453.279,521.182a39.248,39.248,0,1,1,2.646-55.444,39.247,39.247,0,0,1-2.646,55.444" transform="translate(-387.082 -452.319)" fill="#e4e5e5" fill-rule="evenodd"/>
                  <path id="Trazado_211316" data-name="Trazado 211316" d="M425.5,530.519a39.819,39.819,0,1,1,26.769-10.352A39.9,39.9,0,0,1,425.5,530.519m-.022-78.5a38.683,38.683,0,1,0,28.635,12.664A38.585,38.585,0,0,0,425.48,452.02" transform="translate(-385.692 -450.882)" fill="#f6d7bf"/>
                </g>
              </g>
            </g>
            <g id="Grupo_173665" data-name="Grupo 173665" transform="translate(139.354 128.439)" opacity="0.35">
              <g id="Grupo_173664" data-name="Grupo 173664">
                <g id="Grupo_173663" data-name="Grupo 173663" clip-path="url(#clip-path-4)">
                  <path id="Trazado_211317" data-name="Trazado 211317" d="M508.689,512.308l4.623,17.18c-.507.164-1.018.315-1.528.46l-4.172-15.5-14.4-53.524-1.826-6.788q.773-.2,1.555-.366l.682,2.535Zm9.39,15.283q1.446-.686,2.85-1.5l-7.6-28.244-12.1-44.951q-1.609,0-3.219.129L511.727,504ZM511.727,504c.187-.62.369-1.259.551-1.917Z" transform="translate(-491.382 -452.891)" fill="#fff" fill-rule="evenodd"/>
                </g>
              </g>
            </g>
            <path id="Trazado_211318" data-name="Trazado 211318" d="M187.441,716.642l2.768,3.045a1.829,1.829,0,0,1-.327,2.533l-70.774,65.247a1.821,1.821,0,0,1-2.552.082L113.79,784.5a1.826,1.826,0,0,1,.324-2.53l70.777-65.248a1.814,1.814,0,0,1,2.55-.082" transform="translate(-81.249 -513.057)" fill="#ff9d00" fill-rule="evenodd"/>
            <path id="Trazado_211319" data-name="Trazado 211319" d="M236.16,816.16s-.191,2.786.24,3.57c2.908,5.327,5.682,4.525,1.5,11.238,0,0-1.93,2.639-3.263.677s.469-3.177-1.67-5.749c-2.468-2.965-2.448-3.023-1.422-6.068l-.1-3.214Z" transform="translate(-165.412 -584.699)" fill="#f9af79" fill-rule="evenodd"/>
            <path id="Trazado_211320" data-name="Trazado 211320" d="M199.5,618.135a25.475,25.475,0,0,0,5.189-2.07S201,591.8,200.93,589.453c-.044-1.51-2.914-21.472.347-30.508,3.2-8.888.206-22.381-5.476-24.075,0,0-11.116,2.337-9.774,18.548-.984,13.262-1.124,24.69.837,36.4,2.377,11.5,8.615,28.518,8.615,28.518a10.955,10.955,0,0,0,4.021-.2" transform="translate(-132.768 -383.182)" fill="#15d3ec" fill-rule="evenodd"/>
            <path id="Trazado_211321" data-name="Trazado 211321" d="M2.2,677.411a12.744,12.744,0,1,1,12.744,12.746A12.744,12.744,0,0,1,2.2,677.411m12.744,14.945A14.945,14.945,0,1,0,0,677.411a14.944,14.944,0,0,0,14.945,14.945" transform="translate(0 -474.592)" fill="#fff" fill-rule="evenodd"/>
            <path id="Trazado_211322" data-name="Trazado 211322" d="M35.3,690.875a6.89,6.89,0,1,0,6.891,6.888,6.889,6.889,0,0,0-6.891-6.888" transform="translate(-20.352 -494.944)" fill="#fff" fill-rule="evenodd"/>
            <path id="Trazado_211323" data-name="Trazado 211323" d="M1583.109,513.5a12.744,12.744,0,1,1,12.744,12.744,12.743,12.743,0,0,1-12.744-12.744m12.744,14.945a14.945,14.945,0,1,0-14.945-14.945,14.945,14.945,0,0,0,14.945,14.945" transform="translate(-1132.569 -357.166)" fill="#fff" fill-rule="evenodd"/>
            <path id="Trazado_211324" data-name="Trazado 211324" d="M1616.206,526.958a6.891,6.891,0,1,0,6.888,6.891,6.889,6.889,0,0,0-6.888-6.891" transform="translate(-1152.922 -377.513)" fill="#fff" fill-rule="evenodd"/>
            <path id="Trazado_211325" data-name="Trazado 211325" d="M1494.567,696.072a10.878,10.878,0,1,1,10.878,10.878,10.878,10.878,0,0,1-10.878-10.878m10.878,12.755a12.755,12.755,0,1,0-12.757-12.755,12.754,12.754,0,0,0,12.757,12.755" transform="translate(-1069.368 -489.53)" fill="#fff" fill-rule="evenodd"/>
            <path id="Trazado_211326" data-name="Trazado 211326" d="M1522.819,707.559a5.881,5.881,0,1,0,5.88,5.88,5.879,5.879,0,0,0-5.88-5.88" transform="translate(-1086.741 -506.897)" fill="#fff" fill-rule="evenodd"/>
            <path id="Trazado_211327" data-name="Trazado 211327" d="M686.941,12.751a10.878,10.878,0,1,1,10.878,10.878,10.877,10.877,0,0,1-10.878-10.878m10.878,12.755a12.756,12.756,0,1,0-12.755-12.755,12.753,12.753,0,0,0,12.755,12.755" transform="translate(-490.783 0.005)" fill="#fff" fill-rule="evenodd"/>
            <path id="Trazado_211328" data-name="Trazado 211328" d="M715.187,24.238a5.881,5.881,0,1,0,5.88,5.881,5.88,5.88,0,0,0-5.88-5.881" transform="translate(-508.15 -17.363)" fill="#fff" fill-rule="evenodd"/>
          </g>
        </g>
      </g>
    </g>
  </g>
</svg>
