<svg xmlns="http://www.w3.org/2000/svg" xmlns:xlink="http://www.w3.org/1999/xlink" width="610" height="444.292" viewBox="0 0 610 444.292">
  <defs>
    <clipPath id="clip-path">
      <rect id="Rectángulo_50805" data-name="Rectángulo 50805" width="371.286" height="327.914" transform="translate(0 0)" fill="none"/>
    </clipPath>
  </defs>
  <g id="Grupo_1033709" data-name="Grupo 1033709" transform="translate(-3890.713 3807.113)">
    <g id="Grupo_160943" data-name="Grupo 160943" transform="translate(3710.713 -12318.553)" opacity="0.13">
      <g id="Grupo_154652" data-name="Grupo 154652" transform="translate(180 8511.44)">
        <g id="Grupo_154160" data-name="Grupo 154160" transform="translate(0 0)">
          <g id="Grupo_66834" data-name="Grupo 66834">
            <path id="Trazado_132887" data-name="Trazado 132887" d="M738.348,526.863c-56.821,77.476-60.758,301.127,19.052,359.663s213.167-70.218,269.973-147.691,38.17-187.709-41.638-246.245S795.159,449.4,738.348,526.863Z" transform="translate(-505.222 -457.039)" fill="#15d3ec"/>
            <path id="Trazado_132888" data-name="Trazado 132888" d="M652.737,605.065c0,108.19,226.26,226.357,351.078,226.357s258.922-118.167,258.922-226.357-52.662-181.459-236.98-99.419C914.718,555.061,652.737,496.877,652.737,605.065Z" transform="translate(-652.737 -437.812)" fill="#7e5ee3"/>
          </g>
        </g>
      </g>
    </g>
    <g id="Grupo_173659" data-name="Grupo 173659" transform="translate(4038.254 -3762.146)">
      <g id="Grupo_173658" data-name="Grupo 173658" transform="translate(0 -0.002)" clip-path="url(#clip-path)">
        <path id="Trazado_211185" data-name="Trazado 211185" d="M772.463,92.7l.206.616-.464.156-.016.04-.052-.017-51.957,17.371-40.675-1H626.848V87.95h92.741l35.3-11.8,11.3-33.665-14.162-4.753c-2.608-.874-2.373-.462-.262-2.327L771,18.411,790.415,1.265c2.063-1.82,1.587-1.824,2.147.934l5.1,25.157,5.14,25.386c.547,2.7.788,2.288-1.883,1.392l-13.939-4.678Z" transform="translate(-476.065 0.002)" fill="#6bcfc6" fill-rule="evenodd"/>
        <path id="Trazado_211186" data-name="Trazado 211186" d="M22.543,217.831H181.359A22.609,22.609,0,0,1,203.9,240.375V458.683a22.608,22.608,0,0,1-22.543,22.542H22.543A22.608,22.608,0,0,1,0,458.683V240.375a22.61,22.61,0,0,1,22.543-22.544" transform="translate(0 -165.433)" fill="#15d3ec" fill-rule="evenodd"/>
        <path id="Trazado_211187" data-name="Trazado 211187" d="M42.659,244.323H201.476a16.217,16.217,0,0,1,16.171,16.171V478.8a16.217,16.217,0,0,1-16.171,16.171H42.659A16.218,16.218,0,0,1,26.488,478.8V260.494a16.218,16.218,0,0,1,16.171-16.171" transform="translate(-20.117 -185.553)" fill="#f6f6f6" fill-rule="evenodd"/>
        <rect id="Rectángulo_50800" data-name="Rectángulo 50800" width="158.049" height="225.212" transform="translate(10.079 69.923) rotate(-4.501)" fill="#fff"/>
        <rect id="Rectángulo_50801" data-name="Rectángulo 50801" width="141.758" height="18.293" transform="matrix(0.997, -0.078, 0.078, 0.997, 19.32, 83.531)" fill="#e8e8e8"/>
        <path id="Trazado_211188" data-name="Trazado 211188" d="M109.528,479.187l17.951-1.411,1.413,17.95-17.951,1.412ZM121,624.918l17.95-1.414,1.412,17.953-17.949,1.409ZM118.7,595.773l17.949-1.414,1.414,17.95-17.949,1.414Zm-2.295-29.145,17.951-1.414,1.413,17.949-17.952,1.413Zm-2.294-29.147,17.951-1.411,1.412,17.948-17.95,1.414Zm-2.295-29.147,17.951-1.41,1.413,17.949-17.951,1.413Z" transform="translate(-83.182 -362.85)" fill="#c4d1eb" fill-rule="evenodd"/>
        <path id="Trazado_211189" data-name="Trazado 211189" d="M234.27,451.631l97.441-7.671a3.013,3.013,0,0,1,3.228,2.756v0a3.008,3.008,0,0,1-2.758,3.226l-97.442,7.671a3,3,0,1,1-.47-5.983m11.469,145.73,97.442-7.671a3,3,0,1,1,.472,5.984l-97.443,7.669a3,3,0,1,1-.472-5.982m.84,10.658a3,3,0,0,0,.47,5.983l58.526-4.607a3,3,0,1,0-.47-5.984Zm-3.133-39.8,97.442-7.671a3,3,0,0,1,.472,5.985L243.916,574.2a3.007,3.007,0,0,1-3.227-2.756v0a3.008,3.008,0,0,1,2.756-3.226m.839,10.659a3,3,0,0,0,.471,5.983l58.525-4.607a3.007,3.007,0,0,0,2.756-3.226v0a3.007,3.007,0,0,0-3.228-2.756Zm-3.132-39.8,97.443-7.671a3,3,0,1,1,.47,5.984l-97.441,7.67a3,3,0,0,1-.471-5.984m.838,10.659a3.008,3.008,0,0,0-2.755,3.226v0a3.006,3.006,0,0,0,3.227,2.754l58.526-4.607a3,3,0,1,0-.471-5.982Zm-3.132-39.807,97.442-7.669a3.005,3.005,0,0,1,3.228,2.756v0a3.006,3.006,0,0,1-2.754,3.226l-97.444,7.671a3,3,0,0,1-.471-5.985m.839,10.661a3,3,0,0,0,.472,5.982l58.526-4.607a3,3,0,0,0-.472-5.983Zm-3.132-39.807,97.444-7.671a3,3,0,0,1,.47,5.984l-97.444,7.673a3,3,0,0,1-.47-5.986m.839,10.66a3.009,3.009,0,0,0-2.757,3.226v0a3.01,3.01,0,0,0,3.229,2.756l58.525-4.607a3,3,0,0,0-.471-5.983Zm-2.294-29.145a3,3,0,0,0,.47,5.983l58.526-4.606a3,3,0,0,0-.47-5.986Z" transform="translate(-175.817 -337.162)" fill="#e8e8e8" fill-rule="evenodd"/>
        <path id="Trazado_211190" data-name="Trazado 211190" d="M237.855,121.538h27.93v-5.883a11.52,11.52,0,1,1,23.04,0v5.883h27.929a6.983,6.983,0,0,1,6.962,6.962v13.261a6.981,6.981,0,0,1-6.962,6.96h-78.9a6.98,6.98,0,0,1-6.961-6.96V128.5a6.982,6.982,0,0,1,6.961-6.962m39.45-10.524a5.1,5.1,0,1,0,5.1,5.1,5.1,5.1,0,0,0-5.1-5.1" transform="translate(-175.354 -79.086)" fill="#15d3ec" fill-rule="evenodd"/>
        <path id="Trazado_211191" data-name="Trazado 211191" d="M118.333,467.95a1.714,1.714,0,0,1,2.776-2.011l4.541,6.246,8.349-13.7a1.711,1.711,0,0,1,2.921,1.783l-9.644,15.823a1.69,1.69,0,0,1-.5.564,1.714,1.714,0,0,1-2.393-.383Zm2.295,29.147a1.713,1.713,0,0,1,2.775-2.01l4.541,6.243,8.349-13.7a1.712,1.712,0,1,1,2.922,1.783l-9.643,15.821a1.683,1.683,0,0,1-.5.564,1.715,1.715,0,0,1-2.394-.382ZM129.8,613.683a1.713,1.713,0,0,1,2.774-2.011l4.541,6.243,8.35-13.7A1.712,1.712,0,1,1,148.391,606l-9.645,15.821a1.669,1.669,0,0,1-.5.564,1.712,1.712,0,0,1-2.393-.382Zm-2.295-29.145a1.714,1.714,0,0,1,2.775-2.013l4.541,6.245,8.349-13.7a1.712,1.712,0,0,1,2.923,1.783l-9.645,15.822a1.681,1.681,0,0,1-.5.564,1.715,1.715,0,0,1-2.394-.383Zm-2.294-29.147a1.714,1.714,0,0,1,2.775-2.012l4.541,6.245,8.348-13.7a1.712,1.712,0,1,1,2.922,1.783l-9.644,15.821a1.654,1.654,0,0,1-.5.564,1.712,1.712,0,0,1-2.393-.381Zm-2.294-29.147a1.713,1.713,0,0,1,2.774-2.01l4.542,6.244,8.348-13.7a1.712,1.712,0,0,1,2.924,1.783l-9.645,15.823a1.713,1.713,0,0,1-2.891.181Z" transform="translate(-89.622 -347.579)" fill="#ff9d00" fill-rule="evenodd"/>
        <path id="Trazado_211192" data-name="Trazado 211192" d="M435.517,311.687A108.681,108.681,0,1,1,326.836,420.369,108.68,108.68,0,0,1,435.517,311.687" transform="translate(-248.218 -236.713)" fill="#f4eeeb" fill-rule="evenodd"/>
        <path id="Trazado_211193" data-name="Trazado 211193" d="M345.148,420.369a90.369,90.369,0,1,1,90.368,90.367,90.368,90.368,0,0,1-90.368-90.367M435.517,393.7a26.673,26.673,0,1,0,26.673,26.673A26.672,26.672,0,0,0,435.517,393.7m0-47.265a73.937,73.937,0,1,0,73.938,73.938,73.938,73.938,0,0,0-73.938-73.938m-54.541,73.938a54.541,54.541,0,1,0,54.541-54.541,54.54,54.54,0,0,0-54.541,54.541m54.541-108.682A108.681,108.681,0,1,0,544.2,420.369a108.681,108.681,0,0,0-108.68-108.682" transform="translate(-248.218 -236.713)" fill="#ff9d00" fill-rule="evenodd"/>
        <path id="Trazado_211194" data-name="Trazado 211194" d="M1045.538,484.693l2.594,4.454,65.281-42.325-.724-1.244-.724-1.244-69.021,35.9Z" transform="translate(-792.073 -337.452)" fill="#7e5ee3" fill-rule="evenodd"/>
        <path id="Trazado_211195" data-name="Trazado 211195" d="M950.352,593.6l-26.769,15.592a5.156,5.156,0,1,0,5.19,8.91l26.767-15.593Z" transform="translate(-699.48 -450.814)" fill="#c4d1eb" fill-rule="evenodd"/>
        <path id="Trazado_211196" data-name="Trazado 211196" d="M820.762,683.814l-28.547,16.627-3.563,3.276,4.641-1.517L821.8,685.593a4.958,4.958,0,0,1-.608-.838,5.21,5.21,0,0,1-.429-.942" transform="translate(-598.949 -519.328)" fill="#8fa3cf" fill-rule="evenodd"/>
        <path id="Trazado_211197" data-name="Trazado 211197" d="M1212.075,411.52c.867-41.887,32.08-32.548,28.338-14.74Z" transform="translate(-920.521 -289.899)" fill="#7e5ee3" fill-rule="evenodd"/>
        <path id="Trazado_211198" data-name="Trazado 211198" d="M1224.484,472.056c36.862,19.909,44.138-11.85,26.8-17.378Z" transform="translate(-929.945 -345.309)" fill="#7e5ee3" fill-rule="evenodd"/>
        <rect id="Rectángulo_50802" data-name="Rectángulo 50802" width="13.213" height="61.307" transform="translate(252 12.836)" fill="#ff9d00"/>
        <rect id="Rectángulo_50803" data-name="Rectángulo 50803" width="13.213" height="40.958" transform="translate(228.746 33.184)" fill="#c4d2ec"/>
        <rect id="Rectángulo_50804" data-name="Rectángulo 50804" width="13.213" height="22.725" transform="translate(205.492 51.418)" fill="#c4d2ec"/>
        <path id="Trazado_211199" data-name="Trazado 211199" d="M1413.732,557.511c2.853-4.176-3.316-5.248-3.255-9.819.041-3.152-1.932-6.435-1.34-9.578,1.21-6.43-1.3-8.38-1.315-8.87-.149-4.872-3.065-5-5.967-6.64-5.149-2.914-9.626.65-11.086.746-7.442.489-3.321,3.686-6.652,6.568-2.744,2.376-1.447,4.176-1.164,5.6.127.641.724,3.288-1.175,4.628-2.785,1.963.069,7.2-1.575,7.7-6.324,1.917-3.778,2.7-3.608,7.124.055,1.412,1.418,2.485,2.308,3.523,10.889-3.409,18.381,10.141,34.829-.988" transform="translate(-1044.974 -396.027)" fill="#12263f" fill-rule="evenodd"/>
        <path id="Trazado_211200" data-name="Trazado 211200" d="M1456.543,642.361a4.148,4.148,0,0,0-1.472-1.451,21.316,21.316,0,0,1-10,2.784,57.114,57.114,0,0,0,.823,6.36q8.687-6.757,10.646-7.693" transform="translate(-1097.474 -486.744)" fill="#fff" fill-rule="evenodd"/>
        <path id="Trazado_211201" data-name="Trazado 211201" d="M1429.26,642.836a21.362,21.362,0,0,0-1.732,5.043,6.743,6.743,0,0,1,4.221-3.457c-.725-.762-.667-1.757-.96-2.554q-1.228.753-1.528.968" transform="translate(-1084.148 -487.471)" fill="#fff" fill-rule="evenodd"/>
        <path id="Trazado_211202" data-name="Trazado 211202" d="M1389.035,645.956c-8.75,22.24-1.374,20.515,17.58.482a19.305,19.305,0,0,1,3.051.977q-3.692,3.413-2.759,11.415.558,6.2,1.227,12.044a20.2,20.2,0,0,0-1.725,7.613,31.754,31.754,0,0,0,.755,7.583,105.093,105.093,0,0,0,4.739,15.038q-19.9,6.781-34.077.153c5.48-12.044,4.75-15.78,4.127-23.837-.62-13.083-8.592-8.973,4.662-30.971a11.631,11.631,0,0,1,2.42-.5" transform="translate(-1046.402 -490.576)" fill="#15d3ec" fill-rule="evenodd"/>
        <path id="Trazado_211203" data-name="Trazado 211203" d="M1417.846,647.357a57.109,57.109,0,0,0,.823,6.36q8.688-6.757,10.647-7.693c.391.075.774.155,1.144.244-18.954,20.034-26.331,21.759-17.58-.482a17.044,17.044,0,0,1,2.478-.016,21.336,21.336,0,0,0-1.732,5.043,6.742,6.742,0,0,1,4.221-3.457" transform="translate(-1070.245 -490.407)" fill="#81d4fa" fill-rule="evenodd"/>
        <path id="Trazado_211204" data-name="Trazado 211204" d="M1464.716,683.3q5.406.017,10.088-.406-1.222-9.26-2.14-19.459-.932-8,2.759-11.414a10.136,10.136,0,0,1,6.253,6.472c1.938,6.25,1.7,29.529-.406,31.633q-3.99,1.749-16.861-.712a12.487,12.487,0,0,0,.307-6.113" transform="translate(-1112.158 -495.181)" fill="#81d4fa" fill-rule="evenodd"/>
        <path id="Trazado_211205" data-name="Trazado 211205" d="M1415.317,771.519c.488.055,1.259.105,2.315.146a12.539,12.539,0,0,1-.193,4.2q-1.378-.257-3.5-.732a20.5,20.5,0,0,1-9.068-.1q-3.686-1.414-2.242-5.2,5.766.674,6.9-.431-2.016-1.027-1.427-2.369,5.667,2.074,7.208,4.482" transform="translate(-1064.932 -582.532)" fill="#f4ae7c" fill-rule="evenodd"/>
        <path id="Trazado_211206" data-name="Trazado 211206" d="M1317.524,743.9l-26.9-4.073,5.807,11.613,26.946,4.228-.429-.863q-1.357-.14-2.832-.438-3.686-1.414-2.242-5.2,1.308.154,2.377.215Z" transform="translate(-980.179 -561.869)" fill="#d0d9ee" fill-rule="evenodd"/>
        <path id="Trazado_211207" data-name="Trazado 211207" d="M1331.267,766.367l1.181,2.357c-.378-.034-.772-.076-1.187-.126q-1.253,3.283,1.359,4.783l-22.111-3.459-2.259-4.516a39.548,39.548,0,0,0,9.443,2.033,3.662,3.662,0,0,0,2.5,1.312.916.916,0,0,0,1.019-1.157,43.175,43.175,0,0,0,10.059-1.227" transform="translate(-993.561 -581.294)" fill="#aab9de" fill-rule="evenodd"/>
        <path id="Trazado_211208" data-name="Trazado 211208" d="M1428.422,802.192l-2.984.771-.429-.863a21.218,21.218,0,0,0,3.413.091" transform="translate(-1082.235 -609.162)" fill="#8d9fca" fill-rule="evenodd"/>
        <path id="Trazado_211209" data-name="Trazado 211209" d="M1341.56,792.336l2.984-.771a14.828,14.828,0,0,0,2.823-.426c.947.214,1.782.392,2.507.541l-7.446,2.439-7.348-1.248-20.515-3.489.05-1.273,19.7,3.092v0Z" transform="translate(-998.357 -598.535)" fill="#8d9fca" fill-rule="evenodd"/>
        <path id="Trazado_211210" data-name="Trazado 211210" d="M1375.166,741.75a13.8,13.8,0,0,0,2.647-3.448c.425,1.187.939,2.444,1.359,4.055Z" transform="translate(-1044.381 -560.709)" fill="#6998d0" fill-rule="evenodd"/>
        <path id="Trazado_211211" data-name="Trazado 211211" d="M1393.749,648.015a86.624,86.624,0,0,0-6.194,11.734c-1.124-8.829.487-10.817,6.194-11.734" transform="translate(-1053.535 -492.14)" fill="#81d4fa" fill-rule="evenodd"/>
        <path id="Trazado_211212" data-name="Trazado 211212" d="M1401.719,878.072q4.7,9.694,2.644,42.144-25.8,3.492-37.186-.714.926-29.63,4.179-41.251,12.908,5.227,30.363-.178" transform="translate(-1038.314 -666.859)" fill="#12263f" fill-rule="evenodd"/>
        <path id="Trazado_211213" data-name="Trazado 211213" d="M1437.925,581.289a21.316,21.316,0,0,1-10,2.784,4.57,4.57,0,0,1-.868-2.259c-.01-.041-.023-.084-.034-.123a2.554,2.554,0,0,0,.574-2.561c0-.021-.01-.039-.015-.059-3.794-1.273-6.15-7.654-4.61-11.407q-.114-1.883-.36-3.9c5.619,1.632,9.151,1.543,13.266-1.353.722,1.874,1.082,2.942.652,4.918-.094.685-.444,2.143.471,2.277.421-2.373,1.285-3.685,2.888-3.12,1.427,2.287.576,5.164-2.853,5.76q-1.513,3.118-1.3,4.267c-.109,1.3,1.027,3.042,1.88,4.317.108.164.213.319.309.463" transform="translate(-1080.327 -427.123)" fill="#f4ae7c" fill-rule="evenodd"/>
        <path id="Trazado_211214" data-name="Trazado 211214" d="M1443.566,629.473a9.211,9.211,0,0,0,5.464-.6,7.915,7.915,0,0,1-5.412,2.275,3.512,3.512,0,0,0-.052-1.673" transform="translate(-1096.328 -477.601)" fill="#ed7d5b" fill-rule="evenodd"/>
        <path id="Trazado_211215" data-name="Trazado 211215" d="M1374.588,1072.165q-.664-9.143-.787-19.393a53.6,53.6,0,0,0,14.341,1.7c-1.387,5.856-3.491,12.256-4.588,18.575,5.826,15.8-2.194,28.854-1.058,39.186-1.587,2.531-4.222,8.256-8.2,10.356-1.325-.345-.332-1.552-.775-2.239q3.076-3.2,3.85-10.018.709-16.211-2.786-38.171" transform="translate(-1043.134 -799.536)" fill="#f4ae7c" fill-rule="evenodd"/>
        <path id="Trazado_211216" data-name="Trazado 211216" d="M1452.324,1071.786c-1.2-5-3.379-10.034-4.963-15.46q6.363-.158,14.16-1.077-.127,7.691-.2,16.049c8.157,14.424,2.694,31.277,4.874,38.527-1.59,3.77-2.013,8.491-5.548,11.268-1.3-.1-.627-1.374-1.117-1.971a25.139,25.139,0,0,0,1.821-9.479q-1.879-16.317-9.031-37.856" transform="translate(-1099.21 -801.417)" fill="#f4ae7c" fill-rule="evenodd"/>
        <path id="Trazado_211217" data-name="Trazado 211217" d="M1340.735,1306.1c2.794.146.244,2.246,2.063,2.718,3.978-2.1,6.179-7.829,7.766-10.36.836-1.331,1.441.363,1.853,2.257.657,3.02-.171,1.965-.543,4.377-.093.6.685,3.833.811,5.632a1.376,1.376,0,0,1-.41,1.107c-.727-1.223-1.352-4.993-2.015-7.3-3.9,3.355-3.049,7.052-5.365,8.311-5.551.6-8.553.741-12.769.831-.925-3.462,6.405-2.293,8.609-7.576" transform="translate(-1011.634 -985.767)" fill="#142d4d" fill-rule="evenodd"/>
        <path id="Trazado_211218" data-name="Trazado 211218" d="M1470.114,1289.556c2.695-.338.642,2.1,2.466,2.243,3.416-2.683,4.474-8.53,5.527-11.218.556-1.415,1.442.1,2.181,1.842,1.179,2.77.2,1.906.281,4.27.021.591,1.353,3.548,1.8,5.242a1.325,1.325,0,0,1-.189,1.127c-.918-1.045-2.2-4.539-3.257-6.625-3.115,3.868-1.625,7.257-3.607,8.854-5.194,1.513-8.034,2.166-12.043,2.971-1.516-3.151,5.7-3.284,6.838-8.706" transform="translate(-1111.139 -972.123)" fill="#142d4d" fill-rule="evenodd"/>
        <path id="Trazado_211219" data-name="Trazado 211219" d="M1348.608,766.943c-.645,0-.866.522-.493,1.168a2.428,2.428,0,0,0,1.843,1.168c.646,0,.866-.525.494-1.168a2.424,2.424,0,0,0-1.844-1.168" transform="translate(-1023.7 -582.461)" fill="#aab9de" fill-rule="evenodd"/>
        <path id="Trazado_211220" data-name="Trazado 211220" d="M1455.069,585.468c.521.066,1.167-1.94-.1-2.095-.677-.082-.753,1.988.1,2.095" transform="translate(-1104.592 -443.046)" fill="#0f3970" fill-rule="evenodd"/>
        <path id="Trazado_211221" data-name="Trazado 211221" d="M1428.457,582.88c-.522-.064-.693-2.166.573-2.01.675.082.284,2.118-.573,2.01" transform="translate(-1084.556 -441.139)" fill="#0f3970" fill-rule="evenodd"/>
        <path id="Trazado_211222" data-name="Trazado 211222" d="M1453.462,575.575c-.842-.073-.9.625-.308.885.171.08,3.5,1.169,3.373.94a4.32,4.32,0,0,0-3.064-1.826" transform="translate(-1103.313 -437.121)" fill="#0f3970" fill-rule="evenodd"/>
        <path id="Trazado_211223" data-name="Trazado 211223" d="M1425.812,572.807c.843.1.771.792.142.931-.3.064-3.688.477-3.451.21a4.341,4.341,0,0,1,3.31-1.141" transform="translate(-1080.322 -435.005)" fill="#0f3970" fill-rule="evenodd"/>
        <path id="Trazado_211224" data-name="Trazado 211224" d="M1435.359,591.011c1.879.534,1.656-.331,1.126-.228-1.756.344-.074-.671-.366-3.719-.034-.317-.391-.279-.4-.011,0,.185.056.856.034,1.054-.228,2.433-1,2.734-.395,2.905" transform="translate(-1089.924 -445.679)" fill="#ed7d5b" fill-rule="evenodd"/>
      </g>
    </g>
  </g>
</svg>
