<svg xmlns="http://www.w3.org/2000/svg" xmlns:xlink="http://www.w3.org/1999/xlink" width="610" height="444.292" viewBox="0 0 610 444.292">
  <defs>
    <clipPath id="clip-path">
      <rect id="Rectángulo_50799" data-name="Rectángulo 50799" width="436.785" height="321.204" fill="none"/>
    </clipPath>
    <clipPath id="clip-path-3">
      <rect id="Rectángulo_50788" data-name="Rectángulo 50788" width="72.848" height="76.49" fill="none"/>
    </clipPath>
    <clipPath id="clip-path-4">
      <rect id="Rectángulo_50789" data-name="Rectángulo 50789" width="88.987" height="89.455" fill="none"/>
    </clipPath>
  </defs>
  <g id="Grupo_1033710" data-name="Grupo 1033710" transform="translate(-3890.713 3079.112)">
    <g id="Grupo_160943" data-name="Grupo 160943" transform="translate(3710.713 -11590.553)" opacity="0.13">
      <g id="Grupo_154652" data-name="Grupo 154652" transform="translate(180 8511.44)">
        <g id="Grupo_154160" data-name="Grupo 154160" transform="translate(0 0)">
          <g id="Grupo_66834" data-name="Grupo 66834">
            <path id="Trazado_132887" data-name="Trazado 132887" d="M738.348,526.863c-56.821,77.476-60.758,301.127,19.052,359.663s213.167-70.218,269.973-147.691,38.17-187.709-41.638-246.245S795.159,449.4,738.348,526.863Z" transform="translate(-505.222 -457.039)" fill="#15d3ec"/>
            <path id="Trazado_132888" data-name="Trazado 132888" d="M652.737,605.065c0,108.19,226.26,226.357,351.078,226.357s258.922-118.167,258.922-226.357-52.662-181.459-236.98-99.419C914.718,555.061,652.737,496.877,652.737,605.065Z" transform="translate(-652.737 -437.812)" fill="#7e5ee3"/>
          </g>
        </g>
      </g>
    </g>
    <g id="Grupo_173657" data-name="Grupo 173657" transform="translate(4004.855 -3012.918)">
      <g id="Grupo_173656" data-name="Grupo 173656" clip-path="url(#clip-path)">
        <g id="Grupo_173655" data-name="Grupo 173655" transform="translate(0 -0.001)">
          <g id="Grupo_173654" data-name="Grupo 173654" clip-path="url(#clip-path)">
            <path id="Trazado_211016" data-name="Trazado 211016" d="M453.535,19.767c-.979,13.434-2.961,15.286-15.767,16.322,12.806,1.033,14.788,2.887,15.767,16.319.977-13.432,2.959-15.286,15.765-16.319-12.806-1.036-14.788-2.888-15.765-16.322m52.059,35.427c-.52,7.173-1.578,8.162-8.418,8.715,6.839.552,7.9,1.54,8.418,8.713.524-7.173,1.581-8.162,8.418-8.713-6.837-.553-7.894-1.542-8.418-8.715M482.794,0c-.529,7.264-1.6,8.266-8.524,8.826,6.924.558,7.995,1.562,8.524,8.825.529-7.263,1.6-8.266,8.526-8.825-6.923-.56-8-1.562-8.526-8.826" transform="translate(-299.873 0.002)" fill="#fff" fill-rule="evenodd"/>
            <path id="Trazado_211017" data-name="Trazado 211017" d="M321.339,727.111c.795,10.88,2.4,12.383,12.773,13.221-10.376.838-11.979,2.34-12.773,13.221-.792-10.88-2.4-12.382-12.773-13.221,10.376-.838,11.981-2.34,12.773-13.221m-42.176,28.7c.423,5.809,1.28,6.612,6.821,7.059-5.541.447-6.4,1.247-6.821,7.059-.423-5.812-1.28-6.612-6.818-7.059,5.538-.448,6.395-1.25,6.818-7.059m18.471-44.717c.428,5.885,1.3,6.7,6.907,7.149-5.611.456-6.479,1.267-6.907,7.149-.428-5.882-1.3-6.693-6.907-7.149,5.611-.453,6.479-1.264,6.907-7.149" transform="translate(-186.558 -487.102)" fill="#fff" fill-rule="evenodd"/>
            <path id="Trazado_211018" data-name="Trazado 211018" d="M932.824,650.108c-.607,8.331-1.839,9.481-9.782,10.121,7.943.643,9.174,1.792,9.782,10.124.6-8.331,1.833-9.481,9.779-10.124-7.946-.64-9.175-1.79-9.779-10.121m32.289,21.972c-.323,4.45-.979,5.063-5.221,5.408,4.242.341,4.9.954,5.221,5.4.325-4.447.982-5.06,5.223-5.4-4.241-.345-4.9-.958-5.223-5.408m-14.14-34.236c-.328,4.507-.993,5.125-5.288,5.473,4.3.347,4.96.971,5.288,5.475.328-4.5.993-5.128,5.288-5.475-4.3-.347-4.96-.965-5.288-5.473" transform="translate(-632.288 -436.926)" fill="#fff" fill-rule="evenodd"/>
            <path id="Trazado_211019" data-name="Trazado 211019" d="M818.2,486.4c6.088,3.206,25.7,7.707,29.012,8.621,2.343.648,5.557,1.237,8.076.515,7.735-2.211.957-6.541-1.486-7.084-4.255-.944-35.359-6.221-35.426-5.828,0,0-.442,3.634-.176,3.775" transform="translate(-560.413 -330.583)" fill="#f8a781" fill-rule="evenodd"/>
            <path id="Trazado_211020" data-name="Trazado 211020" d="M784.851,440.538c5.568-18.184,9.429-38.987,17.454-55.966,2.015-4.26,26.3,24.378,27.99,27.348,23.8,41.631,13.6,98.451-26.438,124.3-1.4-2.028-14.75-24.654-12.66-25.555,15.616-6.734,28.7-21.292,27.738-40.394-.938-18.507-15.073-37.224-34.084-29.729" transform="translate(-537.627 -263.137)" fill="#81d4fa" fill-rule="evenodd"/>
            <path id="Trazado_211021" data-name="Trazado 211021" d="M756.861,449.389c5.568-17.3,9.43-37.08,17.454-53.231,2.015-4.052,26.292,23.186,27.99,26.009,23.794,39.6,13.6,93.638-26.442,118.219-1.394-1.931-14.75-23.448-12.659-24.3,15.618-6.405,28.706-20.248,27.738-38.42-.935-17.6-15.073-35.4-34.081-28.272" transform="translate(-518.453 -271.089)" fill="#15d3ec" fill-rule="evenodd"/>
            <path id="Trazado_211022" data-name="Trazado 211022" d="M687.923,521.276c.738-1.847-7.165-6.737-17.652-10.924s-19.586-6.08-20.323-4.236,7.168,6.74,17.652,10.924,19.586,6.083,20.323,4.236" transform="translate(-445.185 -346.208)" fill="#2c55a1" fill-rule="evenodd"/>
            <path id="Trazado_211023" data-name="Trazado 211023" d="M651.141,523.076l-37.976-15.157L596.251,546.73l38.068,14.921Z" transform="translate(-408.435 -347.926)" fill="#61a0e0" fill-rule="evenodd"/>
            <path id="Trazado_211024" data-name="Trazado 211024" d="M634.415,643.991c.738-1.849-7.165-6.739-17.652-10.924s-19.586-6.085-20.323-4.236,7.168,6.737,17.655,10.924,19.583,6.08,20.321,4.236" transform="translate(-408.532 -430.267)" fill="#4f8ecc" fill-rule="evenodd"/>
            <path id="Trazado_211025" data-name="Trazado 211025" d="M607.207,502.375c-1.274,3.111,12.016,11.5,29.685,18.734s33.026,10.579,34.3,7.466-12.019-11.5-29.685-18.734-33.029-10.577-34.3-7.466" transform="translate(-415.882 -343.332)" fill="#81d4fa" fill-rule="evenodd"/>
            <path id="Trazado_211026" data-name="Trazado 211026" d="M607.564,454.007l63.988,26.2,9.5-23.2-63.986-26.2Z" transform="translate(-416.185 -295.102)" fill="#81d4fa" fill-rule="evenodd"/>
            <path id="Trazado_211027" data-name="Trazado 211027" d="M637.022,429.549c-1.275,3.113,12.017,11.5,29.688,18.737s33.026,10.577,34.3,7.466-12.02-11.5-29.688-18.734-33.026-10.579-34.3-7.469" transform="translate(-436.305 -293.446)" fill="#4f8ecc" fill-rule="evenodd"/>
            <rect id="Rectángulo_50786" data-name="Rectángulo 50786" width="75.168" height="41.733" transform="translate(214.234 139.763) rotate(-67.73)" fill="#81d4fa"/>
            <path id="Trazado_211028" data-name="Trazado 211028" d="M769.344,219.632c-1.185,2.889,6.6,8.81,17.375,13.225s20.475,5.65,21.661,2.761-6.6-8.811-17.376-13.224-20.478-5.649-21.66-2.761" transform="translate(-526.923 -149.38)" fill="#4f8ecc" fill-rule="evenodd"/>
            <path id="Trazado_211029" data-name="Trazado 211029" d="M680.779,436.438c-1.182,2.888,6.6,8.809,17.375,13.223s20.478,5.649,21.661,2.758-6.6-8.808-17.375-13.223-20.478-5.649-21.661-2.758" transform="translate(-466.255 -297.891)" fill="#81d4fa" fill-rule="evenodd"/>
            <path id="Trazado_211030" data-name="Trazado 211030" d="M778.206,223.73c-1.014,2.477,5.657,7.554,14.9,11.34s17.563,4.846,18.577,2.368-5.657-7.554-14.9-11.341-17.56-4.845-18.574-2.366" transform="translate(-533.005 -152.338)" fill="#71afed" fill-rule="evenodd"/>
            <path id="Trazado_211031" data-name="Trazado 211031" d="M779.976,220.495l.6.247-.022.118a1.277,1.277,0,0,0,.2.572,7.4,7.4,0,0,0,1.619,1.766c2.4,2.05,6.942,4.638,12.361,6.855a66.644,66.644,0,0,0,8.38,2.833,26.347,26.347,0,0,0,6.156.987,5.185,5.185,0,0,0,1.592-.2,1.28,1.28,0,0,0,.377-.186.387.387,0,0,0,.119-.144l.021-.119a1.211,1.211,0,0,0-.2-.572,7.479,7.479,0,0,0-1.619-1.767c-2.4-2.05-6.943-4.637-12.361-6.853a66.311,66.311,0,0,0-8.38-2.834,26.316,26.316,0,0,0-6.156-.986,5.148,5.148,0,0,0-1.592.194,1.205,1.205,0,0,0-.374.186.364.364,0,0,0-.122.145l-.6-.247-.6-.247a1.67,1.67,0,0,1,.523-.679,2.947,2.947,0,0,1,1.2-.514,7.615,7.615,0,0,1,1.567-.144,27.621,27.621,0,0,1,6.484,1.029,67.8,67.8,0,0,1,8.545,2.89,60.589,60.589,0,0,1,10.533,5.436,19.532,19.532,0,0,1,3.17,2.557,6.414,6.414,0,0,1,.917,1.187,2.488,2.488,0,0,1,.372,1.219,1.606,1.606,0,0,1-.119.613,1.649,1.649,0,0,1-.523.678,2.952,2.952,0,0,1-1.2.515,7.55,7.55,0,0,1-1.57.142,27.624,27.624,0,0,1-6.484-1.028,68.025,68.025,0,0,1-8.545-2.89,60.6,60.6,0,0,1-10.533-5.436,19.537,19.537,0,0,1-3.17-2.559,6.339,6.339,0,0,1-.916-1.185,2.461,2.461,0,0,1-.369-1.22,1.593,1.593,0,0,1,.117-.612Z" transform="translate(-533.793 -149.954)" fill="#4f8ecc" fill-rule="evenodd"/>
            <rect id="Rectángulo_50787" data-name="Rectángulo 50787" width="59.141" height="26.961" transform="matrix(0.379, -0.925, 0.925, 0.379, 250.229, 73.321)" fill="#81d4fa"/>
            <path id="Trazado_211032" data-name="Trazado 211032" d="M865.421,57.44c-.637,1.555,4.431,5.1,11.322,7.926s12.993,3.847,13.628,2.29-4.431-5.1-11.32-7.924-12.993-3.847-13.63-2.292" transform="translate(-592.781 -38.849)" fill="#61a0e0" fill-rule="evenodd"/>
            <path id="Trazado_211033" data-name="Trazado 211033" d="M882.272,67.116c-.347.85,2.419,2.788,6.18,4.327s7.095,2.1,7.442,1.252-2.419-2.787-6.181-4.327-7.094-2.1-7.441-1.251" transform="translate(-604.34 -45.703)" fill="#4f8ecc" fill-rule="evenodd"/>
            <path id="Trazado_211034" data-name="Trazado 211034" d="M746.982,342.167A24.176,24.176,0,1,0,773.6,320.715a24.174,24.174,0,0,0-26.621,21.453" transform="translate(-511.59 -219.594)" fill="#71afed" fill-rule="evenodd"/>
            <path id="Trazado_211035" data-name="Trazado 211035" d="M812.248,473.478c.68,0,1.356-.033,2.025-.092-.672-.016-1.348-.06-2.025-.136q-.659-.069-1.3-.173l-.146.352q.729.049,1.449.049" transform="translate(-555.401 -324.059)" fill="#4f8ecc" fill-rule="evenodd"/>
            <path id="Trazado_211036" data-name="Trazado 211036" d="M765.7,411.551l.146-.352a24.176,24.176,0,0,1-20.153-26.444q.111-1.019.3-2.01a22.442,22.442,0,0,0-.906,4.328A22.136,22.136,0,0,0,753,406.515a52.142,52.142,0,0,1,5.614,3.39,22.235,22.235,0,0,0,6.14,1.565c.32.035.635.062.949.081" transform="translate(-510.3 -262.182)" fill="#4f8ecc" fill-rule="evenodd"/>
            <path id="Trazado_211037" data-name="Trazado 211037" d="M776.087,461.6a52.15,52.15,0,0,0-5.614-3.39,22,22,0,0,0,5.614,3.39" transform="translate(-527.778 -313.873)" fill="#4f8ecc" fill-rule="evenodd"/>
            <path id="Trazado_211038" data-name="Trazado 211038" d="M770.459,377.883a22.16,22.16,0,1,0-23.176-28.763q-.191.991-.3,2.01a24.178,24.178,0,0,0,20.153,26.444q.643.105,1.3.173c.678.076,1.353.119,2.025.136Zm-2.6-31.395a9.578,9.578,0,0,1,1,.053,9.27,9.27,0,0,1-.979,18.487,8.913,8.913,0,0,1-1-.054c-.136-.014-.272-.033-.407-.054-.13-.006-.258-.016-.388-.03a8.47,8.47,0,0,1-7.515-9.326q.02-.2.049-.391c.008-.135.021-.268.035-.407a9.271,9.271,0,0,1,9.207-8.278" transform="translate(-511.59 -228.557)" fill="#61a0e0" fill-rule="evenodd"/>
            <path id="Trazado_211039" data-name="Trazado 211039" d="M784.209,382.666a9.27,9.27,0,1,0,10.208-8.225,9.27,9.27,0,0,0-10.208,8.225" transform="translate(-537.15 -256.456)" fill="#bbdbfa" fill-rule="evenodd"/>
            <path id="Trazado_211040" data-name="Trazado 211040" d="M791.853,411.709A9.27,9.27,0,0,1,784,401.962q-.028.2-.049.39a8.47,8.47,0,0,0,7.515,9.326c.13.014.258.024.388.03" transform="translate(-536.976 -275.345)" fill="#4f8ecc" fill-rule="evenodd"/>
            <path id="Trazado_211041" data-name="Trazado 211041" d="M792.552,396.126a8.469,8.469,0,0,0,.895-16.89,8.3,8.3,0,0,0-.914-.05,8.471,8.471,0,0,0-8.361,7.174,9.269,9.269,0,0,0,7.854,9.747c.179.014.352.019.526.019" transform="translate(-537.149 -259.744)" fill="#4f8ecc" fill-rule="evenodd"/>
            <path id="Trazado_211042" data-name="Trazado 211042" d="M782.378,858.124a11.1,11.1,0,1,0,12.223-9.85,11.1,11.1,0,0,0-12.223,9.85" transform="translate(-535.889 -581.027)" fill="#5a7abb" fill-rule="evenodd"/>
            <path id="Trazado_211043" data-name="Trazado 211043" d="M791.641,890.005q.468,0,.927-.041c-.306-.008-.618-.027-.927-.062a11.1,11.1,0,0,1-9.852-12.223c.035-.312.082-.619.138-.922a10.185,10.185,0,0,0,8.613,13.191,10.792,10.792,0,0,0,1.1.057" transform="translate(-535.299 -600.582)" fill="#4362ac" fill-rule="evenodd"/>
            <path id="Trazado_211044" data-name="Trazado 211044" d="M793.157,874.525a10.175,10.175,0,0,0,.146-20.248,10.064,10.064,0,0,0-1.1-.06,10.18,10.18,0,0,0-9.687,7.1c-.06.3-.1.61-.139.922a11.1,11.1,0,0,0,9.852,12.222c.309.035.621.054.928.062m-1.2-14.417a4.363,4.363,0,0,1,.461.024,4.256,4.256,0,1,1-.909,8.464c-.065-.005-.124-.014-.19-.021l-.179-.016a3.889,3.889,0,0,1-3.45-4.282c.006-.06.014-.117.022-.176l.016-.19a4.26,4.26,0,0,1,4.228-3.8" transform="translate(-535.888 -585.143)" fill="#305da8" fill-rule="evenodd"/>
            <path id="Trazado_211045" data-name="Trazado 211045" d="M799.468,876.719a4.258,4.258,0,1,0,4.689-3.778,4.258,4.258,0,0,0-4.689,3.778" transform="translate(-547.623 -597.951)" fill="#5a7abb" fill-rule="evenodd"/>
            <path id="Trazado_211046" data-name="Trazado 211046" d="M802.98,890.066a4.265,4.265,0,0,1-3.607-4.475c-.008.06-.016.117-.022.176a3.889,3.889,0,0,0,3.45,4.282l.179.016" transform="translate(-547.544 -606.634)" fill="#384985" fill-rule="evenodd"/>
            <path id="Trazado_211047" data-name="Trazado 211047" d="M803.3,882.9a3.889,3.889,0,0,0,.412-7.756c-.141-.014-.282-.022-.42-.022a3.892,3.892,0,0,0-3.84,3.3,4.263,4.263,0,0,0,3.607,4.475c.082.006.163.006.242.006" transform="translate(-547.622 -599.463)" fill="#3258a5" fill-rule="evenodd"/>
            <path id="Trazado_211048" data-name="Trazado 211048" d="M774.845,836.67c-2.52.841-21.834-37.788-21.834-37.788s-4.2-14.276-18.474-11.759-20.155,52.067-20.155,52.067Z" transform="translate(-489.355 -538.979)" fill="#81d4fa" fill-rule="evenodd"/>
            <path id="Trazado_211049" data-name="Trazado 211049" d="M602.26,802.734a13.112,13.112,0,1,0-13.112-13.115,13.113,13.113,0,0,0,13.112,13.115" transform="translate(-403.569 -531.912)" fill="#61a0e0" fill-rule="evenodd"/>
            <path id="Trazado_211050" data-name="Trazado 211050" d="M582.149,720.833l39.372,15.157,6.064-15.745-39.372-15.16Z" transform="translate(-398.775 -482.986)" fill="#61a0e0" fill-rule="evenodd"/>
            <path id="Trazado_211051" data-name="Trazado 211051" d="M581.572,771.138l30.995,11.935,4.776-12.4-31-11.935Z" transform="translate(-398.38 -519.74)" fill="#4f8ecc" fill-rule="evenodd"/>
            <path id="Trazado_211052" data-name="Trazado 211052" d="M508.529,945.065H328.569a8.768,8.768,0,0,0-8.743,8.743v14.769h197.34V953.705a8.663,8.663,0,0,0-8.638-8.64" transform="translate(-219.082 -647.374)" fill="#15d3ec" fill-rule="evenodd"/>
            <path id="Trazado_211053" data-name="Trazado 211053" d="M496.591,915.673H424.572a3.507,3.507,0,0,0-3.5,3.5v5.912h78.974v-5.955a3.468,3.468,0,0,0-3.458-3.455" transform="translate(-288.438 -627.24)" fill="#61a0e0" fill-rule="evenodd"/>
            <path id="Trazado_211054" data-name="Trazado 211054" d="M519.747,680.183l75.194,28.1-13.107,31.876,11.174,4.594L610.047,703.3c-26.721-10.981-54.87-20.757-82.356-31.024-2.186-.816-4.1-2.289-6.072,2.934Z" transform="translate(-356.029 -459.944)" fill="#15d3ec" fill-rule="evenodd"/>
            <path id="Trazado_211055" data-name="Trazado 211055" d="M842.4,152.675l-28.581-11.622a3.87,3.87,0,0,0-5.025,2.12h0a3.865,3.865,0,0,0,2.121,5.024L839.5,159.82a3.868,3.868,0,0,0,5.025-2.119v0a3.865,3.865,0,0,0-2.121-5.024" transform="translate(-553.836 -96.428)" fill="#61a0e0" fill-rule="evenodd"/>
            <path id="Trazado_211056" data-name="Trazado 211056" d="M296.469,113.944a56.9,56.9,0,1,1,56.9,56.9,56.906,56.906,0,0,1-56.9-56.9" transform="translate(-203.083 -39.071)" fill="#ed5d1f" fill-rule="evenodd"/>
            <path id="Trazado_211057" data-name="Trazado 211057" d="M304.751,107.823a56.9,56.9,0,1,1,56.9,56.9,56.9,56.9,0,0,1-56.9-56.9" transform="translate(-208.756 -34.878)" fill="#ff9d00" fill-rule="evenodd"/>
            <path id="Trazado_211058" data-name="Trazado 211058" d="M329.633,130.15a48.293,48.293,0,1,1,48.294,48.293,48.295,48.295,0,0,1-48.294-48.293" transform="translate(-225.8 -56.071)" fill="#ed5d1f" fill-rule="evenodd"/>
            <path id="Trazado_211059" data-name="Trazado 211059" d="M332.086,126.547A48.293,48.293,0,1,1,380.38,174.84a48.295,48.295,0,0,1-48.294-48.293" transform="translate(-227.481 -53.603)" fill="#fff" fill-rule="evenodd"/>
            <g id="Grupo_173650" data-name="Grupo 173650" transform="translate(109.224 29.481)" opacity="0.29">
              <g id="Grupo_173649" data-name="Grupo 173649">
                <g id="Grupo_173648" data-name="Grupo 173648" clip-path="url(#clip-path-3)">
                  <path id="Trazado_211060" data-name="Trazado 211060" d="M352.5,151.022A42.63,42.63,0,0,1,419.6,106.14a42.633,42.633,0,1,0-56.121,63.94A42.409,42.409,0,0,1,352.5,151.022" transform="translate(-346.748 -93.59)" fill="#ffe2dc" fill-rule="evenodd"/>
                </g>
              </g>
            </g>
            <path id="Trazado_211061" data-name="Trazado 211061" d="M402.407,167.353l-8.941,6.4a7.236,7.236,0,1,0,8.426,11.766l8.941-6.4Z" transform="translate(-267.454 -114.637)" fill="#61a0e0" fill-rule="evenodd"/>
            <path id="Trazado_211062" data-name="Trazado 211062" d="M446.385,154.506a7.237,7.237,0,0,0-8.426-11.767l-9.533,6.826,8.426,11.766Z" transform="translate(-293.474 -96.849)" fill="#dfedfa" fill-rule="evenodd"/>
            <path id="Trazado_211063" data-name="Trazado 211063" d="M408.846,183.837a4.682,4.682,0,0,1,.2-1.744l7.992-5.722,2.644,3.692c-5.533,4.058-8.155,5.912-9.248,6.956a4.712,4.712,0,0,1-.724-.8,4.654,4.654,0,0,1-.865-2.382" transform="translate(-280.053 -120.814)" fill="#61a0e0" fill-rule="evenodd"/>
            <path id="Trazado_211064" data-name="Trazado 211064" d="M434.884,163.005l.659-.473,7.927-5.673a4.717,4.717,0,0,1,4.006,2.458c-4.062,3.052-7.331,5.463-9.948,7.381Z" transform="translate(-297.898 -107.449)" fill="#dfedfa" fill-rule="evenodd"/>
            <path id="Trazado_211065" data-name="Trazado 211065" d="M421.005,200.139l8.337-6.2.947,1.322-5.7,4.074a4.671,4.671,0,0,1-3.588.8" transform="translate(-288.39 -132.852)" fill="#61a0e0" fill-rule="evenodd"/>
            <path id="Trazado_211066" data-name="Trazado 211066" d="M447.471,179.1l9.185-6.826a4.675,4.675,0,0,1-1.955,3.646l-6.183,4.426-.1.076Z" transform="translate(-306.52 -118.007)" fill="#dfedfa" fill-rule="evenodd"/>
            <path id="Trazado_211067" data-name="Trazado 211067" d="M390.46,162.432a7.24,7.24,0,0,1,3-6.422l8.941-6.4,9.532-6.826a7.208,7.208,0,0,1,3.661-1.333,7.208,7.208,0,0,0-3.661,1.333l-9.532,6.826-8.941,6.4a7.235,7.235,0,0,0-1.67,10.1.18.18,0,0,1,.022.03.18.18,0,0,0-.022-.03,7.215,7.215,0,0,1-1.334-3.678m1.367,3.721c0,.005.008.011.011.015s-.008-.009-.011-.015" transform="translate(-267.453 -96.894)" fill="#a97f19" fill-rule="evenodd"/>
            <path id="Trazado_211068" data-name="Trazado 211068" d="M390.46,180.175a7.239,7.239,0,0,1,3-6.422l8.941-6.4,1.48,2.069L398.2,173.5a4.66,4.66,0,0,0-1.749,2.418l-.29.208a7.232,7.232,0,0,0-1.755,9.964,7.191,7.191,0,0,1-2.566-2.176s-.008-.009-.011-.015a.032.032,0,0,0-.011-.014.146.146,0,0,0-.022-.03,7.22,7.22,0,0,1-1.334-3.678" transform="translate(-267.453 -114.637)" fill="#4f8ecc" fill-rule="evenodd"/>
            <path id="Trazado_211069" data-name="Trazado 211069" d="M428.427,149.565l9.532-6.826a7.233,7.233,0,0,1,10.1,1.67l.084.133a7.226,7.226,0,0,0-7.485.564l-1.608,1.153a4.676,4.676,0,0,0-2.856.875l-6.178,4.426-.106.074Z" transform="translate(-293.475 -96.849)" fill="#99c5f2" fill-rule="evenodd"/>
            <path id="Trazado_211070" data-name="Trazado 211070" d="M409.512,180.417A4.672,4.672,0,0,1,411.258,178l5.692-4.076.553.772Z" transform="translate(-280.518 -119.137)" fill="#4f8ecc" fill-rule="evenodd"/>
            <path id="Trazado_211071" data-name="Trazado 211071" d="M433.127,162.229l.106-.074,6.178-4.426a4.676,4.676,0,0,1,2.856-.875l-7.927,5.673-.659.473Z" transform="translate(-296.694 -107.444)" fill="#99c5f2" fill-rule="evenodd"/>
            <path id="Trazado_211072" data-name="Trazado 211072" d="M411.8,211.251c-.019-.275.154-.586.667-1.075a4.683,4.683,0,0,0,2.232,1.082l-1.047.777a1.139,1.139,0,0,1-1.592-.236,1.077,1.077,0,0,1-.26-.548" transform="translate(-282.083 -143.971)" fill="#d5e0f2" fill-rule="evenodd"/>
            <path id="Trazado_211073" data-name="Trazado 211073" d="M474.857,160.282q1.135-.852,2.357-1.773a1.144,1.144,0,0,1,1.825.869,1.08,1.08,0,0,1-.466.959l-3.157,2.343a4.1,4.1,0,0,0-.008-.517,4.643,4.643,0,0,0-.551-1.881" transform="translate(-325.279 -108.413)" fill="#fff" fill-rule="evenodd"/>
            <path id="Trazado_211074" data-name="Trazado 211074" d="M413.919,195.05c1.093-1.044,3.715-2.9,9.248-6.956l1.321,1.843-8.337,6.2a4.687,4.687,0,0,1-2.232-1.082" transform="translate(-283.537 -128.845)" fill="#d5e0f2" fill-rule="evenodd"/>
            <path id="Trazado_211075" data-name="Trazado 211075" d="M443.278,172.043c2.617-1.917,5.885-4.328,9.948-7.381a4.622,4.622,0,0,1,.558,2.4l-9.185,6.826Z" transform="translate(-303.648 -112.794)" fill="#fff" fill-rule="evenodd"/>
            <path id="Trazado_211076" data-name="Trazado 211076" d="M476.345,270.25l-11,.012a7.236,7.236,0,0,0,.016,14.472l11-.012Z" transform="translate(-313.815 -185.122)" fill="#61a0e0" fill-rule="evenodd"/>
            <path id="Trazado_211077" data-name="Trazado 211077" d="M527.716,284.683a7.236,7.236,0,0,0-.016-14.472l-11.724.012.016,14.472Z" transform="translate(-353.446 -185.095)" fill="#dfedfa" fill-rule="evenodd"/>
            <path id="Trazado_211078" data-name="Trazado 211078" d="M479.568,282.656a4.721,4.721,0,0,1,1.174-1.3l9.833-.011,0,4.543c-6.858.085-10.072.069-11.566.283a4.7,4.7,0,0,1,.556-3.513" transform="translate(-328.04 -192.721)" fill="#61a0e0" fill-rule="evenodd"/>
            <path id="Trazado_211079" data-name="Trazado 211079" d="M515.993,281.319h.811l9.747-.01a4.679,4.679,0,0,1,1.863,3.74,4.732,4.732,0,0,1-.035.59c-5.08.121-9.139.183-12.383.224Z" transform="translate(-353.458 -192.697)" fill="#dfedfa" fill-rule="evenodd"/>
            <path id="Trazado_211080" data-name="Trazado 211080" d="M483.045,303.151l10.384-.194,0,1.624-7,.007a4.668,4.668,0,0,1-3.385-1.437" transform="translate(-330.888 -207.526)" fill="#61a0e0" fill-rule="evenodd"/>
            <path id="Trazado_211081" data-name="Trazado 211081" d="M516.011,302.491l11.444-.214a4.683,4.683,0,0,1-3.713,1.829l-7.6.009h-.127Z" transform="translate(-353.47 -207.061)" fill="#dfedfa" fill-rule="evenodd"/>
            <path id="Trazado_211082" data-name="Trazado 211082" d="M459.171,273.712a7.241,7.241,0,0,1,6.178-3.478l11-.011,11.724-.012a7.186,7.186,0,0,1,3.753,1.044,7.174,7.174,0,0,0-3.753-1.044l-11.724.012-11,.012a7.228,7.228,0,0,0-7.227,7.245v0a7.209,7.209,0,0,1,1.05-3.768m-1.05,3.821v0Z" transform="translate(-313.815 -185.095)" fill="#a97f19" fill-rule="evenodd"/>
            <path id="Trazado_211083" data-name="Trazado 211083" d="M459.171,273.739a7.241,7.241,0,0,1,6.178-3.478l11-.011,0,2.545-7,.008a4.671,4.671,0,0,0-2.831.952h-.355a7.226,7.226,0,0,0-7.219,7.088,7.177,7.177,0,0,1-.822-3.262v-.073a7.21,7.21,0,0,1,1.05-3.768" transform="translate(-313.815 -185.122)" fill="#4f8ecc" fill-rule="evenodd"/>
            <path id="Trazado_211084" data-name="Trazado 211084" d="M515.977,270.223l11.724-.012a7.234,7.234,0,0,1,7.244,7.227l-.006.159a7.229,7.229,0,0,0-6.422-3.893l-1.977,0a4.688,4.688,0,0,0-2.831-.948l-7.6.009h-.127Z" transform="translate(-353.447 -185.095)" fill="#99c5f2" fill-rule="evenodd"/>
            <path id="Trazado_211085" data-name="Trazado 211085" d="M484.775,279.29a4.671,4.671,0,0,1,2.831-.952l7-.008,0,.949Z" transform="translate(-332.073 -190.657)" fill="#4f8ecc" fill-rule="evenodd"/>
            <path id="Trazado_211086" data-name="Trazado 211086" d="M515.985,278.309h.127l7.6-.009a4.683,4.683,0,0,1,2.831.948l-9.747.01h-.811Z" transform="translate(-353.452 -190.636)" fill="#99c5f2" fill-rule="evenodd"/>
            <path id="Trazado_211087" data-name="Trazado 211087" d="M475.335,297.151c.144-.237.466-.388,1.169-.488a4.685,4.685,0,0,0,1.185,2.176l-1.3.025a1.14,1.14,0,0,1-1.158-1.116,1.086,1.086,0,0,1,.109-.6" transform="translate(-325.532 -203.215)" fill="#d5e0f2" fill-rule="evenodd"/>
            <path id="Trazado_211088" data-name="Trazado 211088" d="M553.278,294.89q1.419-.033,2.951-.075a1.144,1.144,0,0,1,.979,1.77,1.069,1.069,0,0,1-.936.507l-3.93.073a4.921,4.921,0,0,0,.29-.426,4.664,4.664,0,0,0,.646-1.85" transform="translate(-378.357 -201.949)" fill="#fff" fill-rule="evenodd"/>
            <path id="Trazado_211089" data-name="Trazado 211089" d="M479.283,296.047c1.494-.214,4.708-.2,11.566-.283l0,2.266-10.384.194a4.68,4.68,0,0,1-1.185-2.176" transform="translate(-328.311 -202.599)" fill="#d5e0f2" fill-rule="evenodd"/>
            <path id="Trazado_211090" data-name="Trazado 211090" d="M516,295.277c3.243-.041,7.3-.1,12.383-.224a4.665,4.665,0,0,1-.646,1.85,4.9,4.9,0,0,1-.29.426L516,297.543Z" transform="translate(-353.464 -202.112)" fill="#fff" fill-rule="evenodd"/>
            <path id="Trazado_211091" data-name="Trazado 211091" d="M497.042,189.273l-11,.012a7.236,7.236,0,0,0,.016,14.472l11-.012Z" transform="translate(-327.993 -129.652)" fill="#61a0e0" fill-rule="evenodd"/>
            <path id="Trazado_211092" data-name="Trazado 211092" d="M548.416,203.707a7.236,7.236,0,0,0-.016-14.472l-11.726.012.016,14.472Z" transform="translate(-367.624 -129.626)" fill="#dfedfa" fill-rule="evenodd"/>
            <path id="Trazado_211093" data-name="Trazado 211093" d="M500.265,201.681a4.692,4.692,0,0,1,1.177-1.3l9.831-.009.006,4.541c-6.861.085-10.075.069-11.569.283a4.641,4.641,0,0,1-.125-1.071,4.7,4.7,0,0,1,.681-2.442" transform="translate(-342.217 -137.254)" fill="#61a0e0" fill-rule="evenodd"/>
            <path id="Trazado_211094" data-name="Trazado 211094" d="M536.69,200.344l.811,0,9.747-.009a4.676,4.676,0,0,1,1.828,4.33c-5.077.121-9.136.183-12.38.224Z" transform="translate(-367.635 -137.228)" fill="#dfedfa" fill-rule="evenodd"/>
            <path id="Trazado_211095" data-name="Trazado 211095" d="M503.751,222.175l10.381-.2,0,1.626-7,.007a4.669,4.669,0,0,1-3.382-1.437" transform="translate(-345.072 -152.057)" fill="#61a0e0" fill-rule="evenodd"/>
            <path id="Trazado_211096" data-name="Trazado 211096" d="M536.708,221.518l11.444-.213a4.682,4.682,0,0,1-3.713,1.828l-7.6.009h-.127Z" transform="translate(-367.648 -151.594)" fill="#dfedfa" fill-rule="evenodd"/>
            <path id="Trazado_211097" data-name="Trazado 211097" d="M479.87,192.735a7.233,7.233,0,0,1,6.175-3.478l11-.011,11.726-.012a7.217,7.217,0,0,1,3.753,1.043,7.217,7.217,0,0,0-3.753-1.043l-11.726.012-11,.012a7.233,7.233,0,0,0-7.227,7.245v0a7.215,7.215,0,0,1,1.052-3.768m-1.052,3.822v0Z" transform="translate(-327.993 -129.626)" fill="#a97f19" fill-rule="evenodd"/>
            <path id="Trazado_211098" data-name="Trazado 211098" d="M479.87,192.762a7.233,7.233,0,0,1,6.175-3.478l11-.011,0,2.545-7,.008a4.657,4.657,0,0,0-2.829.952h-.355a7.227,7.227,0,0,0-7.219,7.088,7.18,7.18,0,0,1-.824-3.262v-.073a7.215,7.215,0,0,1,1.052-3.768" transform="translate(-327.993 -129.652)" fill="#4f8ecc" fill-rule="evenodd"/>
            <path id="Trazado_211099" data-name="Trazado 211099" d="M536.674,189.246l11.727-.012a7.231,7.231,0,0,1,7.244,7.227l-.009.159a7.226,7.226,0,0,0-6.422-3.893l-1.977,0a4.676,4.676,0,0,0-2.831-.948l-7.6.009h-.127Z" transform="translate(-367.624 -129.626)" fill="#99c5f2" fill-rule="evenodd"/>
            <path id="Trazado_211100" data-name="Trazado 211100" d="M505.482,198.314a4.648,4.648,0,0,1,2.828-.953l7-.008,0,.951Z" transform="translate(-346.258 -135.187)" fill="#4f8ecc" fill-rule="evenodd"/>
            <path id="Trazado_211101" data-name="Trazado 211101" d="M536.683,197.332h.127l7.6-.009a4.674,4.674,0,0,1,2.829.948l-9.747.009-.811,0Z" transform="translate(-367.63 -135.167)" fill="#99c5f2" fill-rule="evenodd"/>
            <path id="Trazado_211102" data-name="Trazado 211102" d="M496.037,216.174c.143-.236.466-.388,1.168-.488a4.664,4.664,0,0,0,1.188,2.176l-1.3.025a1.135,1.135,0,0,1-1.158-1.116,1.081,1.081,0,0,1,.106-.6" transform="translate(-339.714 -147.745)" fill="#d5e0f2" fill-rule="evenodd"/>
            <path id="Trazado_211103" data-name="Trazado 211103" d="M573.976,213.914q1.423-.033,2.95-.075a1.145,1.145,0,0,1,.979,1.77,1.07,1.07,0,0,1-.935.509l-3.93.073c.106-.137.2-.279.293-.427a4.619,4.619,0,0,0,.643-1.85" transform="translate(-392.535 -146.48)" fill="#fff" fill-rule="evenodd"/>
            <path id="Trazado_211104" data-name="Trazado 211104" d="M499.98,215.071c1.494-.214,4.708-.2,11.569-.283v2.266l-10.381.2a4.68,4.68,0,0,1-1.188-2.178" transform="translate(-342.489 -147.13)" fill="#d5e0f2" fill-rule="evenodd"/>
            <path id="Trazado_211105" data-name="Trazado 211105" d="M536.708,214.3c3.243-.039,7.3-.1,12.38-.224a4.615,4.615,0,0,1-.643,1.849,4.673,4.673,0,0,1-.293.426l-11.444.214Z" transform="translate(-367.648 -146.643)" fill="#fff" fill-rule="evenodd"/>
            <path id="Trazado_211106" data-name="Trazado 211106" d="M386.066,228.231l-11,.012a7.236,7.236,0,0,0,.016,14.472l11-.012Z" transform="translate(-251.974 -156.339)" fill="#61a0e0" fill-rule="evenodd"/>
            <path id="Trazado_211107" data-name="Trazado 211107" d="M437.437,242.664a7.236,7.236,0,0,0-.016-14.472L425.7,228.2l.016,14.472Z" transform="translate(-291.604 -156.312)" fill="#dfedfa" fill-rule="evenodd"/>
            <path id="Trazado_211108" data-name="Trazado 211108" d="M389.283,240.637a4.7,4.7,0,0,1,1.174-1.3l9.831-.011.005,4.543c-6.862.085-10.075.069-11.569.283a4.777,4.777,0,0,1-.125-1.07,4.678,4.678,0,0,1,.683-2.443" transform="translate(-266.193 -163.938)" fill="#61a0e0" fill-rule="evenodd"/>
            <path id="Trazado_211109" data-name="Trazado 211109" d="M425.706,239.3h.811l9.747-.01a4.675,4.675,0,0,1,1.866,3.74,4.741,4.741,0,0,1-.035.59c-5.08.122-9.139.184-12.383.224Z" transform="translate(-291.611 -163.913)" fill="#dfedfa" fill-rule="evenodd"/>
            <path id="Trazado_211110" data-name="Trazado 211110" d="M392.766,261.133l10.384-.2v1.626l-7,.007a4.67,4.67,0,0,1-3.385-1.437" transform="translate(-269.047 -178.743)" fill="#61a0e0" fill-rule="evenodd"/>
            <path id="Trazado_211111" data-name="Trazado 211111" d="M425.732,260.476l11.444-.213a4.687,4.687,0,0,1-3.713,1.828l-7.6.009h-.128Z" transform="translate(-291.629 -178.281)" fill="#dfedfa" fill-rule="evenodd"/>
            <path id="Trazado_211112" data-name="Trazado 211112" d="M368.885,231.694a7.23,7.23,0,0,1,6.178-3.478l11-.012,11.724-.012a7.208,7.208,0,0,1,3.753,1.043,7.208,7.208,0,0,0-3.753-1.043l-11.724.012-11,.012a7.228,7.228,0,0,0-7.227,7.245c0,.012,0,.024,0,.038,0-.014,0-.026,0-.038a7.183,7.183,0,0,1,1.05-3.768Zm-1.05,3.821v0Z" transform="translate(-251.967 -156.312)" fill="#a97f19" fill-rule="evenodd"/>
            <path id="Trazado_211113" data-name="Trazado 211113" d="M368.885,231.721a7.232,7.232,0,0,1,6.178-3.478l11-.012v2.545l-7,.008a4.669,4.669,0,0,0-2.829.952h-.355a7.23,7.23,0,0,0-7.219,7.088,7.146,7.146,0,0,1-.822-3.262v-.02a.035.035,0,0,0,0-.015c0-.014,0-.026,0-.038a7.181,7.181,0,0,1,1.05-3.767" transform="translate(-251.967 -156.339)" fill="#4f8ecc" fill-rule="evenodd"/>
            <path id="Trazado_211114" data-name="Trazado 211114" d="M425.7,228.2l11.724-.012a7.231,7.231,0,0,1,7.244,7.229l-.008.157a7.231,7.231,0,0,0-6.419-3.893l-1.98,0a4.674,4.674,0,0,0-2.828-.948l-7.6.009h-.13Z" transform="translate(-291.604 -156.312)" fill="#99c5f2" fill-rule="evenodd"/>
            <path id="Trazado_211115" data-name="Trazado 211115" d="M394.5,237.272a4.679,4.679,0,0,1,2.829-.954l7-.007,0,.949Z" transform="translate(-270.232 -161.874)" fill="#4f8ecc" fill-rule="evenodd"/>
            <path id="Trazado_211116" data-name="Trazado 211116" d="M425.7,236.294h.13l7.6-.008a4.662,4.662,0,0,1,2.828.946l-9.747.009-.811,0Z" transform="translate(-291.604 -161.856)" fill="#99c5f2" fill-rule="evenodd"/>
            <path id="Trazado_211117" data-name="Trazado 211117" d="M385.052,255.132c.146-.237.467-.388,1.169-.488a4.7,4.7,0,0,0,1.185,2.178l-1.3.024a1.138,1.138,0,0,1-1.158-1.117,1.087,1.087,0,0,1,.106-.6" transform="translate(-263.69 -174.432)" fill="#d5e0f2" fill-rule="evenodd"/>
            <path id="Trazado_211118" data-name="Trazado 211118" d="M463,252.872q1.419-.033,2.948-.075a1.146,1.146,0,0,1,.982,1.77,1.081,1.081,0,0,1-.938.508l-3.927.073a5.1,5.1,0,0,0,.29-.426,4.667,4.667,0,0,0,.645-1.851" transform="translate(-316.515 -173.167)" fill="#fff" fill-rule="evenodd"/>
            <path id="Trazado_211119" data-name="Trazado 211119" d="M388.995,254.029c1.494-.214,4.708-.2,11.569-.283l0,2.266-10.384.2a4.679,4.679,0,0,1-1.188-2.178" transform="translate(-266.463 -173.817)" fill="#d5e0f2" fill-rule="evenodd"/>
            <path id="Trazado_211120" data-name="Trazado 211120" d="M425.723,253.259c3.243-.039,7.3-.1,12.383-.224a4.673,4.673,0,0,1-.645,1.851,4.918,4.918,0,0,1-.29.424l-11.444.214Z" transform="translate(-291.622 -173.33)" fill="#fff" fill-rule="evenodd"/>
            <g id="Grupo_173653" data-name="Grupo 173653" transform="translate(112.204 31.726)" opacity="0.42">
              <g id="Grupo_173652" data-name="Grupo 173652">
                <g id="Grupo_173651" data-name="Grupo 173651" clip-path="url(#clip-path-4)">
                  <path id="Trazado_211121" data-name="Trazado 211121" d="M422.172,100.716A48.3,48.3,0,0,1,356.21,167.89a48.3,48.3,0,1,0,65.962-67.174" transform="translate(-356.21 -100.716)" fill="#fbbfa8" fill-rule="evenodd"/>
                </g>
              </g>
            </g>
            <path id="Trazado_211122" data-name="Trazado 211122" d="M143.654,647.125H120.2a2.019,2.019,0,1,0,0,4.038h23.45a2.019,2.019,0,1,0,0-4.038" transform="translate(-80.957 -443.283)" fill="#ff9d00" fill-rule="evenodd"/>
            <path id="Trazado_211123" data-name="Trazado 211123" d="M101.218,764.3l-40.08-75.186V659.945H40.807v29.173L.725,764.3a6.1,6.1,0,0,0,5.38,8.966H95.838a6.1,6.1,0,0,0,5.38-8.966" transform="translate(0 -452.065)" fill="#fbbfa8" fill-rule="evenodd"/>
            <path id="Trazado_211124" data-name="Trazado 211124" d="M115.234,875.194l-24.421-45.8H62.24l-24.416,45.8a4.351,4.351,0,0,0,3.838,6.4h69.73a4.352,4.352,0,0,0,3.843-6.4" transform="translate(-25.555 -568.135)" fill="#ff9d00" fill-rule="evenodd"/>
            <path id="Trazado_211125" data-name="Trazado 211125" d="M71.189,938.652a3.1,3.1,0,1,1,1.375,4.155,3.1,3.1,0,0,1-1.375-4.155" transform="translate(-48.538 -641.812)" fill="#fefefe" fill-rule="evenodd"/>
            <path id="Trazado_211126" data-name="Trazado 211126" d="M83.509,914.152a3.1,3.1,0,1,1,1.375,4.16,3.1,3.1,0,0,1-1.375-4.16" transform="translate(-56.978 -625.031)" fill="#fefefe" fill-rule="evenodd"/>
            <path id="Trazado_211127" data-name="Trazado 211127" d="M95.835,889.66a3.095,3.095,0,1,1,1.372,4.154,3.094,3.094,0,0,1-1.372-4.154" transform="translate(-65.42 -608.251)" fill="#fefefe" fill-rule="evenodd"/>
            <rect id="Rectángulo_50790" data-name="Rectángulo 50790" width="20.331" height="4.841" transform="translate(40.807 207.88)" fill="#ff9d00"/>
            <path id="Trazado_211128" data-name="Trazado 211128" d="M267.611,796.759h-17.5a1.787,1.787,0,1,0,0,3.574h17.5a1.787,1.787,0,1,0,0-3.574" transform="translate(-170.103 -545.783)" fill="#ff9d00" fill-rule="evenodd"/>
            <path id="Trazado_211129" data-name="Trazado 211129" d="M259.2,808.106v59.543a7.114,7.114,0,0,0,14.227,0V808.106Z" transform="translate(-177.552 -553.556)" fill="#ffe2dc" fill-rule="evenodd"/>
            <rect id="Rectángulo_50791" data-name="Rectángulo 50791" width="14.227" height="2.777" transform="translate(81.646 254.55)" fill="#ff9d00"/>
            <path id="Trazado_211130" data-name="Trazado 211130" d="M268.764,873.969V911.5a4.1,4.1,0,1,0,8.2,0v-37.53Z" transform="translate(-184.105 -598.672)" fill="#ff9d00" fill-rule="evenodd"/>
            <path id="Trazado_211131" data-name="Trazado 211131" d="M344.2,796.759H326.7a1.787,1.787,0,1,0,0,3.574h17.5a1.787,1.787,0,1,0,0-3.574" transform="translate(-222.568 -545.783)" fill="#ff9d00" fill-rule="evenodd"/>
            <path id="Trazado_211132" data-name="Trazado 211132" d="M335.788,808.106v59.543a7.112,7.112,0,0,0,14.224,0V808.106Z" transform="translate(-230.016 -553.556)" fill="#ffe2dc" fill-rule="evenodd"/>
            <rect id="Rectángulo_50792" data-name="Rectángulo 50792" width="14.224" height="2.777" transform="translate(105.772 254.55)" fill="#ff9d00"/>
            <path id="Trazado_211133" data-name="Trazado 211133" d="M345.345,914.846V939.5a4.1,4.1,0,1,0,8.2,0V914.846Z" transform="translate(-236.563 -626.673)" fill="#ff9d00" fill-rule="evenodd"/>
            <path id="Trazado_211134" data-name="Trazado 211134" d="M420.792,796.759h-17.5a1.787,1.787,0,1,0,0,3.574h17.5a1.787,1.787,0,1,0,0-3.574" transform="translate(-275.033 -545.783)" fill="#ff9d00" fill-rule="evenodd"/>
            <path id="Trazado_211135" data-name="Trazado 211135" d="M412.378,808.106v59.543a7.112,7.112,0,0,0,14.224,0l0-59.543Z" transform="translate(-282.481 -553.556)" fill="#ffe2dc" fill-rule="evenodd"/>
            <rect id="Rectángulo_50793" data-name="Rectángulo 50793" width="14.227" height="2.777" transform="translate(129.897 254.55)" fill="#ff9d00"/>
            <path id="Trazado_211136" data-name="Trazado 211136" d="M421.943,858.764v42.32a4.1,4.1,0,1,0,8.2,0v-42.32Z" transform="translate(-289.033 -588.257)" fill="#ff9d00" fill-rule="evenodd"/>
            <rect id="Rectángulo_50794" data-name="Rectángulo 50794" width="14.227" height="4.247" transform="translate(81.646 264.934)" fill="#f57a44"/>
            <rect id="Rectángulo_50795" data-name="Rectángulo 50795" width="14.224" height="4.247" transform="translate(105.772 264.934)" fill="#f57a44"/>
            <rect id="Rectángulo_50796" data-name="Rectángulo 50796" width="14.227" height="4.247" transform="translate(129.897 264.934)" fill="#f57a44"/>
            <path id="Trazado_211137" data-name="Trazado 211137" d="M962.787,384.17q-1.228-3.287-3-3.8a49.883,49.883,0,0,1-7.908-4.37c-.824,1.011.686,2.442,2.826,3.528a5.376,5.376,0,0,0,1.936,1.462c-2.649.739-3.742,2.053-3.238,3.97q.472,1.847,1.2,2.124a1,1,0,0,0,1.22-.282c1.207,2.411,2.769,2.508,4,2.05.347.076.458.106.765.187a11.026,11.026,0,0,1,2.2-4.873" transform="translate(-651.883 -257.564)" fill="#ffb27d" fill-rule="evenodd"/>
            <path id="Trazado_211138" data-name="Trazado 211138" d="M1333.843,930.591s2.666,2.6,2.734,3.553.23,11.167-.854,12.123-4.29,1.643-3.263,2.712c.776.8,6.758.629,10.726.42,1.152-.076,2.606-9.28,3.067-10.634.662-1.969,3.059-6.265,2.457-7.62-.3-.667-2.489-2.194-4.475-3.474a18.345,18.345,0,0,1-4.095-4.353Z" transform="translate(-912.604 -632.477)" fill="#ffb27d" fill-rule="evenodd"/>
            <path id="Trazado_211139" data-name="Trazado 211139" d="M1202.115,966.363l2.395,6.758c.176,1.068.876,3.7.876,4.678,0,3.647-16.462-3.095-12.773-4.716a3.905,3.905,0,0,0,1.492-2.56c.173-1.909-1.383-4.3-1.383-4.3Z" transform="translate(-816.577 -661.87)" fill="#ffb27d" fill-rule="evenodd"/>
            <path id="Trazado_211140" data-name="Trazado 211140" d="M1133.814,560.807l-5.961,15.2s-3.889,36.275-1.63,57.981c.952,9.088,21.446,57.7,21.446,57.7l10.186-1.432-13.638-57.561,5.017-22.016,7.105-43.529Z" transform="translate(-770.985 -384.155)" fill="#7e5ee3" fill-rule="evenodd"/>
            <path id="Trazado_211141" data-name="Trazado 211141" d="M1183.2,563.286l5.115,16.917,7.77,51.09,26.3,47.787s-3.951,6-8.2,6.932l-37.327-48.305-20.231-60.466.71-13.44Z" transform="translate(-792.294 -385.853)" fill="#7e5ee3" fill-rule="evenodd"/>
            <path id="Trazado_211142" data-name="Trazado 211142" d="M1341.79,936.9s-5.619,16.952-8.024,17.793c-.646.212-4.236,1.107-4.814,2.463l-.043.135a1.416,1.416,0,0,0,1.437,1.644h11.42s1.622-7.621,2.267-10.962c0,0,3.387-8.19,3.013-8.917-.377-.743-5.256-2.156-5.256-2.156" transform="translate(-910.289 -641.778)" fill="#284191" fill-rule="evenodd"/>
            <path id="Trazado_211143" data-name="Trazado 211143" d="M1178.584,993.827l-1.885-5.955s-3.957,1.681-5.934,1.394a56.92,56.92,0,0,1-5.847-1.394c-7.9,2.6-14.373,3.856-13.2,5.955Z" transform="translate(-788.839 -676.697)" fill="#284191" fill-rule="evenodd"/>
            <path id="Trazado_211144" data-name="Trazado 211144" d="M1212.311,535.822c-5.913,3.162-11.58,5.9-16.239,7.843-.011.366-.016.73-.027,1.09-.011.512-.021.352-.029.86,4.683-1.573,12.6-6.723,16.3-9.793" transform="translate(-819.276 -367.04)" fill="#6b809b" fill-rule="evenodd"/>
            <path id="Trazado_211145" data-name="Trazado 211145" d="M1038.245,391.195c-6.685,1.329-16.38,5.545-28.79,10.941a272.385,272.385,0,0,0-28.59-7.791l-.035.03c-.288-.233-2.435,4.556-2.547,4.966l-.184.529c9.182,5.793,18.113,9.188,30.835,12.662,8.076-.065,16.239.252,24.462-2.636.114,23.089,1.665,33.338,4.7,36.674Z" transform="translate(-670.003 -267.97)" fill="#fff" fill-rule="evenodd"/>
            <path id="Trazado_211146" data-name="Trazado 211146" d="M1172.965,383.9c-.119,3.766,3.761,45.836,4.44,54.664.515,6.647,1.969,16.494,1.969,16.494s-25.888,1.619-35.618-2.169c0,0,3.254-15.084,3.254-19.024,0-3.96,1.727-43.475,2.953-45.539s3.7-3.237,8.4-4.254c3.6-.777,10.251-.464,13.169-.274.89.057,1.432.1,1.432.1" transform="translate(-783.478 -262.75)" fill="#81d4fa" fill-rule="evenodd"/>
            <path id="Trazado_211147" data-name="Trazado 211147" d="M1132.83,385.819c7.287-3.492,11.756-5.855,13.468-6.3-.225,1.161-2.134,2.781-2.349,3.93-8.179,44.053-6.031,76.062-4.128,101.66-9.942-.158-15.748-.055-15.748-.055-.011-8.011,1.21-15.7,1.3-22.78.537-40.755,3.417-66.337,7.453-76.452" transform="translate(-769.995 -259.97)" fill="#fff" fill-rule="evenodd"/>
            <path id="Trazado_211148" data-name="Trazado 211148" d="M1140.511,414.5a46.964,46.964,0,0,0,.228,16.12v.005c.67,4.464,1.218,8.12-.773,12.28-1.514,3.154-4.03,4.949-6.368,6.617-3.851,2.744-7.254,5.169-5.793,12.326l1.278-.263c-1.288-6.321,1.789-8.515,5.272-11,2.468-1.76,5.128-3.658,6.788-7.119,2.17-4.529,1.595-8.364.892-13.039a45.822,45.822,0,0,1-.236-15.716Z" transform="translate(-772.315 -283.932)" fill="#a4d0fc" fill-rule="evenodd"/>
            <path id="Trazado_211149" data-name="Trazado 211149" d="M1169.723,388.985a22.515,22.515,0,0,1,1.825-7.151,8.791,8.791,0,0,1,4.215-4.723,3.273,3.273,0,0,1,.434-.231c.084-.043.4-.042.445-.121a2.829,2.829,0,0,0,.165-1.265,5.253,5.253,0,0,0-1.621.359,10.111,10.111,0,0,0-4.9,5.416,21.6,21.6,0,0,0-1.906,7.336c-.016.144.005.119.1.241l1.06.366c.176-.082.174-.038.19-.228" transform="translate(-800.339 -257.213)" fill="#4f8ecc" fill-rule="evenodd"/>
            <path id="Trazado_211150" data-name="Trazado 211150" d="M1197.786,349.3l2.4,10.8s-5.215,13.413-8.931,12.535c-3.111-.746-2.007-12.364-2.007-12.364s1.248-6.3.545-9.36c-.713-3.043,7.995-1.614,7.995-1.614" transform="translate(-814.509 -239.039)" fill="#ffb27d" fill-rule="evenodd"/>
            <path id="Trazado_211151" data-name="Trazado 211151" d="M1191.3,350.91c-.714-3.043,7.995-1.614,7.995-1.614l.2.892a4.878,4.878,0,0,1-.83,1.593,11.306,11.306,0,0,1-7.257,3.867,17.122,17.122,0,0,0-.1-4.739" transform="translate(-816.018 -239.039)" fill="#f08261" fill-rule="evenodd"/>
            <path id="Trazado_211152" data-name="Trazado 211152" d="M1186.16,294.267c.236-.1,2.774,12.295-.214,15.962s-9.193,5.214-11.629,2.644a9.837,9.837,0,0,1-2.4-9.226c1.3-4.407,1.063-8.807,3.7-10.959,4.768-3.874,10.542,1.578,10.542,1.578" transform="translate(-802.522 -199.54)" fill="#ffb27d" fill-rule="evenodd"/>
            <path id="Trazado_211153" data-name="Trazado 211153" d="M1208.415,325.307c.076,1.532.862,2.743,1.747,2.683.89-.042,1.552-1.317,1.47-2.848s-.857-2.727-1.749-2.683-1.546,1.317-1.467,2.848" transform="translate(-827.766 -220.885)" fill="#ffb27d" fill-rule="evenodd"/>
            <path id="Trazado_211154" data-name="Trazado 211154" d="M1165.04,300.855q12.664,3.647,15.919-.2,3.5-1.065,4.212-6.617c2.08-5.73-.615-14.478-3.772-9.844-3.344-7.109-14.509-2.1-21.24-5.72-3.745,2.825-1.831,9.054,1.131,11.005.377,7.288,1.041,11.151,3.751,11.379" transform="translate(-793.294 -190.753)" fill="#12263f" fill-rule="evenodd"/>
            <path id="Trazado_211155" data-name="Trazado 211155" d="M1235.8,292.38a1.861,1.861,0,0,1-1.012-2.2,3.7,3.7,0,0,1,3.894-.335q-1.118.14-2.882,2.53" transform="translate(-845.773 -198.27)" fill="#12263f" fill-rule="evenodd"/>
            <path id="Trazado_211156" data-name="Trazado 211156" d="M1232.372,286.22q1.025,1,1.779.353a4.174,4.174,0,0,0-.814-3.486,5.343,5.343,0,0,1-.965,3.134" transform="translate(-844.181 -193.915)" fill="#12263f" fill-rule="evenodd"/>
            <path id="Trazado_211157" data-name="Trazado 211157" d="M1219.19,302.655q2.27-1.076,3.566.38c.095,2.331-.8,7.094-2.582,8.244-.339-.2-.594-5.136-.985-8.624" transform="translate(-835.151 -207.006)" fill="#284191" fill-rule="evenodd"/>
            <path id="Trazado_211158" data-name="Trazado 211158" d="M1198.086,296.633q4.068,1.648,2.831,3.273a21.777,21.777,0,0,1-11.463-.518q3.295.087,8.632-2.755" transform="translate(-814.782 -203.194)" fill="#284191" fill-rule="evenodd"/>
            <path id="Trazado_211159" data-name="Trazado 211159" d="M1162,282.207c2.772-3.2,8.356-3.94,16.272-1.638,4.808-1.542,5.755-3.873,3.444-7.412-3.271-5-9.307-.467-17.373-4.833.551,3.778-10.745,7.8-2.343,13.882" transform="translate(-793.839 -183.803)" fill="#12263f" fill-rule="evenodd"/>
            <path id="Trazado_211160" data-name="Trazado 211160" d="M1224.9,316.5c-2.08-.3-1.6,3.9-1.307,5.973.58,4.084,4.583-5.505,1.307-5.973" transform="translate(-837.986 -216.793)" fill="#ffb27d" fill-rule="evenodd"/>
            <path id="Trazado_211161" data-name="Trazado 211161" d="M1186.441,327.341c.383-1.241-.2-6.54-.181-8.322q.284-1.031.569-2.593,6.261-4.9,1.35-6.718-.927.606-2.164,3.481a1.962,1.962,0,0,1-1.8-1.048,57.413,57.413,0,0,0,1.25-7.741c-2.37-3.058-7.445-3.177-14.062-1.863q-.285,2.7-.382,5.7c-.778.822-2.335,13.79,5.9,13.758a10.2,10.2,0,0,1,.057,2.224c-.081.208,1.247,2.3.789,2.5.336-1.116,1.893,22.69,8.675.627" transform="translate(-801.708 -206.695)" fill="#ffb27d" fill-rule="evenodd"/>
            <path id="Trazado_211162" data-name="Trazado 211162" d="M1165.027,286.56c6.62-1.314,11.692-1.194,14.062,1.863a57.417,57.417,0,0,1-1.25,7.741,1.962,1.962,0,0,0,1.8,1.048q1.237-2.878,2.164-3.481,4.914,1.818-1.351,6.717-.285,1.564-.569,2.593c3.875-1.146,6.935-4.89,7.3-6.442,3.981-9.359-1.4-12.837-4.231-14.047-1.812-8.88-14.292-.084-21.1-3.965-2.351,3.755,1.155,8.027,3.181,7.972" transform="translate(-795.334 -190.717)" fill="#12263f" fill-rule="evenodd"/>
            <path id="Trazado_211163" data-name="Trazado 211163" d="M1195.492,362.169a11.262,11.262,0,0,1-4.326,1.216,13.6,13.6,0,0,1,.092,1.8,6.922,6.922,0,0,0,4.233-3.02" transform="translate(-815.955 -248.087)" fill="#f08261" fill-rule="evenodd"/>
            <path id="Trazado_211164" data-name="Trazado 211164" d="M1174.036,297.055a2.107,2.107,0,0,0-.8,2.61,4.182,4.182,0,0,0,4.412-.213q-1.274.01-3.612-2.4" transform="translate(-803.541 -203.484)" fill="#12263f" fill-rule="evenodd"/>
            <path id="Trazado_211165" data-name="Trazado 211165" d="M1217.357,382.713c-1.234-2.17-4.375-2.356-8.952-3.3-.206,1.619-1.421,1.533-1.915,1.939a3.06,3.06,0,0,0-1.247,2.333c-6.3,51.192-4.73,85.935-.64,102.833q21.2-.468,21.2-.466-13.681-68.614-8.445-103.335" transform="translate(-822.703 -259.897)" fill="#fff" fill-rule="evenodd"/>
            <path id="Trazado_211166" data-name="Trazado 211166" d="M1215.928,537.544c-5.332,2.85-10.441,5.318-14.644,7.073-.009.331-.016.656-.025.982-.008.461-.019.32-.027.776,4.225-1.416,11.36-6.064,14.7-8.83" transform="translate(-822.85 -368.22)" fill="#e6e7e8" fill-rule="evenodd"/>
            <path id="Trazado_211167" data-name="Trazado 211167" d="M1138.674,452.907c-.119.846-.236,1.72-.352,2.614q1.761-1.88,3.327-3.4c-.993.3-1.982.564-2.975.787" transform="translate(-779.756 -309.704)" fill="#e6e7e8" fill-rule="evenodd"/>
            <path id="Trazado_211168" data-name="Trazado 211168" d="M1100.336,481.014l-24.554,14.021,20,35.011,24.554-14.026Z" transform="translate(-736.916 -329.496)" fill="#fc9774" fill-rule="evenodd"/>
            <rect id="Rectángulo_50797" data-name="Rectángulo 50797" width="28.277" height="40.317" transform="translate(339.279 165.929) rotate(-32.745)" fill="#ff9d00"/>
            <path id="Trazado_211169" data-name="Trazado 211169" d="M1121.9,513.583c3.827.217,3.623.827,4.122.835.583.016,7.284-3.878,7.284-3.878s19.857-11.371,20.909-12.022l4.472,8.084c-8.307,3.824-25.942,11.472-27.876,12.38,0,0-2.459,2.441-4.048,3.924a19.12,19.12,0,0,1-4.271,2.565,20.024,20.024,0,0,1-4.413,1.914c-2.194.662-.407-.933-.407-.933s3.843-1.936,3.643-2.194c-.155-.209-2.207.971-4.624,1.736-.613.193-1.242.383-1.8.553-1.5.458-2.182-.29-.7-1a16.229,16.229,0,0,1,2.078-.843,13.233,13.233,0,0,0,1.893-.9,15.808,15.808,0,0,0,1.942-.941c-.059-.041.095-.3-.572-.112-.811.228-2.41,1.074-3.606,1.313-.681.141-2.1.521-2.1.521a13.936,13.936,0,0,1-2.289.06c-.3-.657,1.212-1.2,2.162-1.275a10.6,10.6,0,0,1,2.083-.694s2.864-1.361,2.685-1.763a37.54,37.54,0,0,0-3.867.83c-1.788.323-3.642.374-3.748.038-.2-.551,1.752-1.117,1.752-1.117s1.372-.32,1.828-.464c.526-.166,2.077-.778,2.077-.778s5.286-2.376,5.071-2.731a2.726,2.726,0,0,0-1.515-1c-.377.035-1.041.456-1.418.494a.939.939,0,0,1-.976-.664c-.082-.445,1.687-1.3,1.687-1.3a6.66,6.66,0,0,1,2.552-.635" transform="translate(-760.923 -341.487)" fill="#ffb27d" fill-rule="evenodd"/>
            <path id="Trazado_211170" data-name="Trazado 211170" d="M1190.535,410.091q-.7-19.095,2.408-22.534,7.717,2.152,11.8,12.632,3.933,22.028.775,27.345c-14.72,9.079-31.9,17.213-36.562,17.131-.282-2.528-1.131-4.268-1.4-8.773,12.638-6.015,26.916-16.32,26.7-20.1q-3.682-5.024-3.726-5.706" transform="translate(-799.784 -265.479)" fill="#fff" fill-rule="evenodd"/>
            <path id="Trazado_211171" data-name="Trazado 211171" d="M1210.531,390.316a28.578,28.578,0,0,0-.252-9.169,8.746,8.746,0,0,0-3.29-5.4c-.009-.014-.521-1.654-.334-1.618a3.951,3.951,0,0,1,1.21.452,10.116,10.116,0,0,1,3.764,6.261,30.383,30.383,0,0,1,.247,9.945q3.832,2.307,3.1,7.021-.716,4.58-5.915,11.477a1.2,1.2,0,0,1,.052.355,1.189,1.189,0,1,1-1.188-1.19h.032q4.991-6.615,5.649-10.853a5.115,5.115,0,0,0-2.72-5.782,9.15,9.15,0,0,0-2.232-.288h0a5.336,5.336,0,0,0-3.921,1.578,10.549,10.549,0,0,0-2.468,4.985,36.314,36.314,0,0,0-.873,8.661,1.19,1.19,0,1,1-1.383,0,38.087,38.087,0,0,1,.909-9,11.926,11.926,0,0,1,2.831-5.627,6.679,6.679,0,0,1,4.906-1.983,9.765,9.765,0,0,1,1.88.176" transform="translate(-821.67 -256.277)" fill="#4f8ecc" fill-rule="evenodd"/>
            <path id="Trazado_211172" data-name="Trazado 211172" d="M1197.445,320.933a.922.922,0,1,1-.889.954.922.922,0,0,1,.889-.954" transform="translate(-819.646 -219.839)" fill="#bbdbfa" fill-rule="evenodd"/>
            <path id="Trazado_211173" data-name="Trazado 211173" d="M1197.51,322.773a.923.923,0,1,0-.624-1.631l.071-.011a.3.3,0,1,1-.29.31l0-.035a.922.922,0,0,0,.841,1.367" transform="translate(-819.646 -219.836)" fill="#125aa3" fill-rule="evenodd"/>
            <path id="Trazado_211174" data-name="Trazado 211174" d="M1195.29,317.17a.5.5,0,0,0-.057.048,1.5,1.5,0,0,1,.179-.254.493.493,0,0,0-.111.091.757.757,0,0,0-.092.148.963.963,0,0,1,.035-.162.438.438,0,0,0-.068.176.653.653,0,0,1,.1-.344.54.54,0,0,0-.166.306.369.369,0,0,1-.011-.146.28.28,0,0,0-.041.156l-.046-.072c.005.043.019.054.021.089a.692.692,0,0,1-.208-.446.638.638,0,0,0,.071.186,1.017,1.017,0,0,1-.009-.289,1.912,1.912,0,0,1,.022.226.641.641,0,0,0,.068.2.92.92,0,0,1,0-.438l0,.041a1.2,1.2,0,0,0,0,.24c.03-.138.025-.268.147-.366a1.431,1.431,0,0,0-.084.158c.068-.061.1-.176.2-.182a1.285,1.285,0,0,0-.144.153.321.321,0,0,0-.081.226.55.55,0,0,1,.41-.409c-.049.023-.2.121-.217.182v.011c.005.068.011-.061,0,.015a.453.453,0,0,0-.1.117.829.829,0,0,0-.043.088c0,.014-.014.041-.016.054a.091.091,0,0,0,0,.026l0,.018a.623.623,0,0,1,.244-.345.892.892,0,0,1,.339-.151l-.005,0-.081.032a.715.715,0,0,0-.464.431c.011-.01,0,0,.016-.019l.011-.012a1.089,1.089,0,0,1,.152-.2,1.011,1.011,0,0,1,.214-.151,1.189,1.189,0,0,1,.513-.106,2.227,2.227,0,0,0-.353.073.7.7,0,0,0-.307.173.955.955,0,0,0,.125-.049,2.516,2.516,0,0,1,.933-.2,1.988,1.988,0,0,0-.507.138l.1-.015c-.027.011-.051.026-.081.038s-.049.019-.079.032a1.108,1.108,0,0,0-.426.324c.038-.032.087-.064.127-.1s.084-.06.133-.088a2.1,2.1,0,0,1,.28-.151,2.533,2.533,0,0,1,.61-.18.223.223,0,0,0-.089.048,6.929,6.929,0,0,1,.924-.111c-.1.026-.257.029-.366.054l-.1.031c.06,0,.252-.032.331-.042a4.6,4.6,0,0,1,1.039-.052,1.889,1.889,0,0,1,.767.165,1.836,1.836,0,0,1,.453.306,1.276,1.276,0,0,1,.108.118,2.138,2.138,0,0,0-.553-.374,3.549,3.549,0,0,1,.854.736c-.065-.049-.155-.146-.228-.209s-.163-.137-.249-.2a2.361,2.361,0,0,0-.6-.345,2.106,2.106,0,0,0,.225.152,8.666,8.666,0,0,1,1.207.953c.043.043.13.146.163.172-.043-.02-.2-.162-.25-.2a3.115,3.115,0,0,0-.882-.541,7.848,7.848,0,0,1,.9.575l-.529-.313a2.721,2.721,0,0,0-.616-.264,5.224,5.224,0,0,1,1.148.628c-.084-.035-.2-.115-.293-.163-.108-.054-.211-.1-.323-.154a3.537,3.537,0,0,0-.7-.233,3.958,3.958,0,0,0-.949-.071c-.092,0-.217.018-.3.011a1.081,1.081,0,0,1,.271-.033,4.214,4.214,0,0,1,.553-.007c.073,0,.222.033.284.027a4.135,4.135,0,0,0-.58-.1.05.05,0,0,0,.024,0,.069.069,0,0,0,.024-.01,1.818,1.818,0,0,0-.455.027c-.13.023-.393.106-.407.108a.9.9,0,0,0,.089-.058l-.317.053.393-.115a2.25,2.25,0,0,0-.261.051c-.092.018-.284.05-.371.077a1.422,1.422,0,0,1-.393.041,1.676,1.676,0,0,1,.222-.062l.212-.06c.04-.014.076-.019.108-.034.1-.045.2-.075.307-.109a2.218,2.218,0,0,1,.912-.114,1.888,1.888,0,0,0-.947.087l-.429.144c-.038.009-.068.026-.106.038a3.043,3.043,0,0,1-.32.1l.008-.023s0,0,0,0v0s0,0,0,0a.7.7,0,0,1-.2.057c.106-.088.364-.149.458-.266a1.531,1.531,0,0,0-.279.138c-.027.016-.057.026-.087.041a1.126,1.126,0,0,1,.331-.279l.127-.065a.638.638,0,0,0-.312.153,1.847,1.847,0,0,0-.222.216.17.17,0,0,0-.017.016c-.016.014-.008.007-.021.011l.106-.156c-.019.03-.157.152-.166.2a.708.708,0,0,1,.119-.212l-.065.038a1.576,1.576,0,0,1,.494-.35.989.989,0,0,0-.512.313c-.049.06-.084.135-.13.183l.052-.125s-.005,0-.005.005l-.073.076a.851.851,0,0,1,.25-.332.228.228,0,0,0-.111.063.688.688,0,0,0-.1.095,1.147,1.147,0,0,0-.151.247.449.449,0,0,1,.046-.153c-.03.007-.005,0-.032.012a.473.473,0,0,0-.109.129l.025-.1-.073.092c.021-.087.054-.134.078-.207a.356.356,0,0,0-.117.167.269.269,0,0,1,.024-.117l-.081.073c-.019.024-.041.055-.059.078a.69.69,0,0,1,.105-.188.667.667,0,0,0-.179.2.7.7,0,0,1,.163-.293c-.089.008-.158.236-.206.281l.011-.1c-.008.007-.005,0-.016.015l-.06.1.014-.127a.405.405,0,0,0-.073.123.719.719,0,0,1,.03-.164c-.019.008-.005,0-.027.016-.041.034-.06.088-.1.123l.046-.1c-.014.005-.005,0-.019.011Z" transform="translate(-818.462 -216.753)" fill="#125aa3" fill-rule="evenodd"/>
            <path id="Trazado_211175" data-name="Trazado 211175" d="M1177.359,318.927a.923.923,0,1,0,.955.89.922.922,0,0,0-.955-.89" transform="translate(-805.887 -218.465)" fill="#bbdbfa" fill-rule="evenodd"/>
            <path id="Trazado_211176" data-name="Trazado 211176" d="M1177.424,320.769a.924.924,0,0,1-.065-1.847.914.914,0,0,1,.572.175l-.07-.007a.3.3,0,1,0,.309.29l0-.035a.921.921,0,0,1-.743,1.424" transform="translate(-805.887 -218.462)" fill="#125aa3" fill-rule="evenodd"/>
            <path id="Trazado_211177" data-name="Trazado 211177" d="M1174.728,315.972a.388.388,0,0,1,.046.054,1.634,1.634,0,0,0-.133-.274.465.465,0,0,1,.089.1.837.837,0,0,1,.068.158,1.034,1.034,0,0,0-.016-.165.456.456,0,0,1,.043.183.722.722,0,0,0-.057-.354.565.565,0,0,1,.117.325.453.453,0,0,0,.027-.145.3.3,0,0,1,.016.16l.049-.065c-.008.041-.021.053-.027.086a.69.69,0,0,0,.23-.416.642.642,0,0,1-.081.176,1.179,1.179,0,0,0,.038-.286c-.024.062-.024.15-.043.221a.622.622,0,0,1-.081.191,1.034,1.034,0,0,0,.046-.434l-.008.039a1.132,1.132,0,0,1-.024.237c-.011-.14.008-.267-.092-.38a1.261,1.261,0,0,1,.06.165c-.054-.068-.071-.186-.163-.2a1.124,1.124,0,0,1,.114.169.344.344,0,0,1,.049.236.542.542,0,0,0-.323-.457c.041.027.168.144.176.206v.011c-.013.068-.008-.062-.006.015a.426.426,0,0,1,.079.129.822.822,0,0,1,.03.092.4.4,0,0,1,.008.055.086.086,0,0,1,0,.026l0,.016a.671.671,0,0,0-.182-.372.835.835,0,0,0-.287-.191s.005,0,.005.005l.071.043a.724.724,0,0,1,.369.484c-.011-.009,0,0-.016-.02l-.005-.015a1.161,1.161,0,0,0-.119-.213.761.761,0,0,0-.173-.175.972.972,0,0,0-.445-.168,1.986,1.986,0,0,1,.309.114.654.654,0,0,1,.252.212.733.733,0,0,1-.106-.065,2.127,2.127,0,0,0-.808-.312,1.711,1.711,0,0,1,.434.2l-.084-.026c.024.014.043.031.068.046s.043.026.068.042a1.062,1.062,0,0,1,.344.375,1.136,1.136,0,0,0-.1-.109c-.038-.039-.071-.071-.109-.1a1.7,1.7,0,0,0-.233-.183,2.163,2.163,0,0,0-.526-.255.185.185,0,0,1,.076.057,6.4,6.4,0,0,0-.811-.225c.084.039.225.061.32.1l.087.043a2.891,2.891,0,0,1-.291-.083,3.68,3.68,0,0,0-.917-.179,1.551,1.551,0,0,0-.7.069,1.664,1.664,0,0,0-.437.249,1.412,1.412,0,0,0-.109.1,1.851,1.851,0,0,1,.532-.3,3.191,3.191,0,0,0-.835.624,2.611,2.611,0,0,0,.225-.179c.079-.06.158-.114.242-.169a1.985,1.985,0,0,1,.569-.266,1.783,1.783,0,0,1-.217.122,7.6,7.6,0,0,0-1.172.8c-.044.037-.13.129-.163.151.038-.015.193-.135.244-.171a2.622,2.622,0,0,1,.841-.427,6.653,6.653,0,0,0-.857.46l.5-.245a2.241,2.241,0,0,1,.575-.187,4.422,4.422,0,0,0-1.087.483c.078-.026.192-.089.279-.125s.2-.078.3-.114a2.91,2.91,0,0,1,.645-.146,3.269,3.269,0,0,1,.854.047,2.473,2.473,0,0,0,.266.049.9.9,0,0,0-.236-.066,3.5,3.5,0,0,0-.491-.074c-.065,0-.2,0-.258-.008a3.264,3.264,0,0,1,.526-.025c-.016,0-.008,0-.022-.007s-.008,0-.019-.012a1.5,1.5,0,0,1,.4.083c.114.039.342.155.353.159a.54.54,0,0,1-.073-.069l.277.092-.339-.164c.068.014.157.061.225.083s.25.087.323.123a1.215,1.215,0,0,0,.347.089,1.43,1.43,0,0,0-.193-.089l-.182-.085a.761.761,0,0,1-.092-.048c-.084-.055-.173-.1-.26-.145a1.873,1.873,0,0,0-.8-.226,1.549,1.549,0,0,1,.833.2l.366.195c.032.015.057.034.089.05a2.588,2.588,0,0,0,.276.134l-.005-.023v0s0,0,0,0v0a.571.571,0,0,0,.171.081c-.084-.1-.307-.192-.38-.321a1.252,1.252,0,0,1,.233.171c.025.021.049.034.073.053a1,1,0,0,0-.266-.317l-.106-.081a.559.559,0,0,1,.26.19,1.77,1.77,0,0,1,.179.243l.011.016c.014.016.005.008.019.013l-.079-.167a1.21,1.21,0,0,1,.127.216.814.814,0,0,0-.084-.225l.051.048c-.075-.171-.279-.3-.4-.409a.936.936,0,0,1,.426.374c.038.065.06.145.1.2l-.035-.132s0,0,.005.005l.057.085a.891.891,0,0,0-.189-.362.232.232,0,0,1,.095.077.836.836,0,0,1,.073.1,1.314,1.314,0,0,1,.108.264.474.474,0,0,0-.021-.157c.024.009,0,0,.027.016a.446.446,0,0,1,.082.141l-.011-.1.055.1a1.566,1.566,0,0,0-.049-.217.336.336,0,0,1,.087.181.257.257,0,0,0-.008-.118l.063.081c.016.027.032.061.049.086a.865.865,0,0,0-.076-.2.69.69,0,0,1,.138.222.767.767,0,0,0-.114-.311c.078.019.117.254.152.3l0-.1c.006.008.006,0,.013.018l.044.1V315.9a.445.445,0,0,1,.052.133.831.831,0,0,0-.008-.168c.016.011,0,0,.022.02.032.038.043.095.073.134l-.03-.1a.067.067,0,0,1,.016.012Z" transform="translate(-801.506 -215.683)" fill="#125aa3" fill-rule="evenodd"/>
            <path id="Trazado_211178" data-name="Trazado 211178" d="M1183.817,329.372a.158.158,0,0,1-.1-.034,1.112,1.112,0,0,0-.257-.045c-.4-.043-1.145-.125-1.18-1.044a18.4,18.4,0,0,1,1.719-4.062.156.156,0,0,1,.225.018.158.158,0,0,1-.019.224,20.408,20.408,0,0,0-1.605,3.813c.022.594.4.682.895.736a.848.848,0,0,1,.418.109.159.159,0,0,1-.1.286" transform="translate(-809.869 -222.042)" fill="#fc9774"/>
            <path id="Trazado_211179" data-name="Trazado 211179" d="M180.813,392.5A16.009,16.009,0,1,1,164.8,408.508,16.009,16.009,0,0,1,180.813,392.5" transform="translate(-112.892 -268.864)" fill="#f6f6f6" fill-rule="evenodd"/>
            <path id="Trazado_211180" data-name="Trazado 211180" d="M194.664,424.361a16.01,16.01,0,1,1-21.777-22.872,16.01,16.01,0,0,0,21.777,22.872" transform="translate(-113.611 -275.021)" fill="#fff" fill-rule="evenodd"/>
            <path id="Trazado_211181" data-name="Trazado 211181" d="M179.315,390.313a16.656,16.656,0,0,1,11.8,4.89l0,0,0,0a16.7,16.7,0,0,1,0,23.61l0,0a16.695,16.695,0,1,1-23.61-23.61l0,0a16.66,16.66,0,0,1,11.808-4.89m10.831,5.86a15.317,15.317,0,0,0-21.666.006h0a15.322,15.322,0,0,0,21.669,21.669v-.006a15.314,15.314,0,0,0,.005-21.663Z" transform="translate(-111.393 -267.366)" fill="#c4def4" fill-rule="evenodd"/>
            <path id="Trazado_211182" data-name="Trazado 211182" d="M987.461,190.978a16.009,16.009,0,1,1-16.008,16.009,16.007,16.007,0,0,1,16.008-16.009" transform="translate(-665.45 -130.82)" fill="#f6f6f6" fill-rule="evenodd"/>
            <path id="Trazado_211183" data-name="Trazado 211183" d="M1001.312,222.843a16.01,16.01,0,1,1-21.777-22.872,16.01,16.01,0,0,0,21.777,22.872" transform="translate(-666.169 -136.98)" fill="#fff" fill-rule="evenodd"/>
            <path id="Trazado_211184" data-name="Trazado 211184" d="M985.963,188.794a16.655,16.655,0,0,1,11.805,4.89v0h0a16.7,16.7,0,0,1,0,23.612l0,0a16.695,16.695,0,1,1-23.61-23.61v0a16.644,16.644,0,0,1,11.8-4.89m10.835,5.861a15.32,15.32,0,0,0-21.666,0h0A15.322,15.322,0,0,0,996.8,216.326h0a15.322,15.322,0,0,0,0-21.667Z" transform="translate(-663.952 -129.324)" fill="#c4def4" fill-rule="evenodd"/>
          </g>
        </g>
      </g>
    </g>
  </g>
</svg>
