<svg xmlns="http://www.w3.org/2000/svg" xmlns:xlink="http://www.w3.org/1999/xlink" width="438" height="298" viewBox="0 0 438 298">
  <defs>
    <clipPath id="clip-path">
      <rect id="Rectángulo_32275" data-name="Rectángulo 32275" width="298" height="438" transform="translate(0.333)" fill="#fff" stroke="#707070" stroke-width="1" opacity="0.325"/>
    </clipPath>
    <clipPath id="clip-path-2">
      <rect id="Rectángulo_50307" data-name="Rectángulo 50307" width="343.763" height="199.549" fill="none"/>
    </clipPath>
  </defs>
  <g id="Grupo_1036428" data-name="Grupo 1036428" transform="translate(-982.287 -4451)">
    <g id="Grupo_67" data-name="Grupo 67" transform="translate(1420.287 4450.667) rotate(90)" clip-path="url(#clip-path)">
      <path id="Trazado_108698" data-name="Trazado 108698" d="M0,63.365a334.489,334.489,0,0,0,69.788,113.2C163.669,276.943,314.071,313.8,453.707,302.882c72.008-5.631,143.938-22.473,215.71-14.5s146.642,49.374,162.772,117.356c8.159,34.387.325,70.873,8.285,105.3s43.926,68.313,77.561,54.514c27.342-11.219,38.437-48.324,67.6-53.793,26.087-4.891,49.182,21.019,51.808,46.546s-8.428,50.226-16.6,74.639C999.541,696.62,997.441,767.318,1022,829.891s77.267,115.8,143.379,135.9c22.241,6.764,46.379,9.776,68.881,3.872,42.434-11.132,70.458-52.055,79.254-93.646s2.27-84.555-2.045-126.8a1202.7,1202.7,0,0,1,15.5-349.323c11.916-61.833,28.6-126.338,9.335-186.419-25.592-79.834-107.793-129.689-188.933-158.825C975.6-7.031,786.814-6.914,604.263,8.816S239.855,55.1,0,63.365Z" transform="translate(-998.968 -575.738)" fill="#81d4fa" opacity="0.418"/>
    </g>
    <g id="Grupo_173124" data-name="Grupo 173124" transform="translate(1036.164 4493.727)">
      <g id="Grupo_173111" data-name="Grupo 173111" transform="translate(0 -0.001)">
        <g id="Grupo_173110" data-name="Grupo 173110" clip-path="url(#clip-path-2)">
          <path id="Trazado_209794" data-name="Trazado 209794" d="M1507.709,869.789v40h-18.255A23.525,23.525,0,0,1,1466,886.331V869.789Z" transform="translate(-1241.782 -736.76)" fill="#bfd2dd"/>
          <path id="Trazado_209795" data-name="Trazado 209795" d="M1558.49,869.789v40H1549.4a23.525,23.525,0,0,1-23.457-23.456V869.789Z" transform="translate(-1292.563 -736.76)" fill="#b6ccd8"/>
          <path id="Trazado_209796" data-name="Trazado 209796" d="M1780.439,869.789v16.542a23.525,23.525,0,0,1-23.457,23.456h-18.255v-40Z" transform="translate(-1472.799 -736.76)" fill="#8899a2"/>
          <path id="Trazado_209797" data-name="Trazado 209797" d="M1780.439,170.676v32.831h-41.712V147.219h18.3a23.527,23.527,0,0,1,23.417,23.457" transform="translate(-1472.799 -124.703)" fill="#82929a"/>
          <path id="Trazado_209798" data-name="Trazado 209798" d="M1637.159,138.025v-1.66H1618.82v1.661h18.339Z" transform="translate(-1371.232 -115.509)" fill="#8999a2"/>
          <path id="Trazado_209799" data-name="Trazado 209799" d="M1738.729,138.025h18.339v-1.661h-18.339Z" transform="translate(-1472.801 -115.509)" fill="#728087"/>
          <path id="Trazado_209800" data-name="Trazado 209800" d="M1637.4,147.219h0Z" transform="translate(-1371.476 -124.703)" fill="#9fb3bd"/>
          <path id="Trazado_209801" data-name="Trazado 209801" d="M1738.729,147.219h0Z" transform="translate(-1472.801 -124.703)" fill="#9fb3bd"/>
          <path id="Trazado_209802" data-name="Trazado 209802" d="M1775.92,4.494V16.359a4.5,4.5,0,0,1-4.5,4.5h-14.358v-.437h-18.339V0h32.7a4.494,4.494,0,0,1,4.5,4.5" transform="translate(-1472.799 0.001)" fill="#7e5ee3"/>
          <path id="Trazado_209803" data-name="Trazado 209803" d="M1769.831,0V20.856h-18.855v-.437h-12.249V0Z" transform="translate(-1472.799 0.001)" fill="#6548be"/>
          <rect id="Rectángulo_50301" data-name="Rectángulo 50301" width="18.339" height="0.437" transform="translate(265.928 20.419)" fill="#c85880"/>
          <rect id="Rectángulo_50302" data-name="Rectángulo 50302" width="18.339" height="0.437" transform="translate(247.589 20.419)" fill="#c85880"/>
          <rect id="Rectángulo_50303" data-name="Rectángulo 50303" width="41.712" height="54.225" transform="translate(265.928 78.804)" fill="#7e5ee3"/>
          <path id="Trazado_209804" data-name="Trazado 209804" d="M1774.553,869.789v16.542a23.525,23.525,0,0,1-23.457,23.456h-12.369v-40Z" transform="translate(-1472.799 -736.76)" fill="#9fb3bd"/>
          <path id="Trazado_209805" data-name="Trazado 209805" d="M1774.553,170.676v32.831h-35.826V147.219h12.408a23.526,23.526,0,0,1,23.417,23.457" transform="translate(-1472.799 -124.703)" fill="#9cafb9"/>
          <rect id="Rectángulo_50304" data-name="Rectángulo 50304" width="35.826" height="54.225" transform="translate(265.928 78.804)" fill="#6548be"/>
          <path id="Trazado_209806" data-name="Trazado 209806" d="M1507.709,147.219v56.288H1466V170.676a23.527,23.527,0,0,1,23.417-23.457Z" transform="translate(-1241.782 -124.703)" fill="#bfd2dd"/>
          <path id="Trazado_209807" data-name="Trazado 209807" d="M1558.49,147.219v56.288h-32.543V170.676a23.526,23.526,0,0,1,23.419-23.457Z" transform="translate(-1292.563 -124.703)" fill="#b6ccd8"/>
          <rect id="Rectángulo_50305" data-name="Rectángulo 50305" width="41.712" height="54.225" transform="translate(224.215 78.804)" fill="#7e5ee3"/>
          <rect id="Rectángulo_50306" data-name="Rectángulo 50306" width="32.543" height="54.225" transform="translate(233.384 78.804)" fill="#7e5ee3"/>
          <path id="Trazado_209808" data-name="Trazado 209808" d="M1532.74,0v20.42H1514.4v.437h-14.358a4.5,4.5,0,0,1-4.495-4.5V4.494a4.5,4.5,0,0,1,4.495-4.5Z" transform="translate(-1266.812 0.001)" fill="#7e5ee3"/>
          <path id="Trazado_209809" data-name="Trazado 209809" d="M1569.468,0v20.42h-11.706v.437h-18.855V0Z" transform="translate(-1303.541 0.001)" fill="#7e5ee3"/>
          <path id="Trazado_209810" data-name="Trazado 209810" d="M1498.863,352.759h0a3.326,3.326,0,0,1-3.316-3.316V304.618a3.316,3.316,0,0,1,6.632,0v44.825a3.326,3.326,0,0,1-3.316,3.316" transform="translate(-1266.812 -255.22)" fill="#f6f9fa"/>
          <path id="Trazado_209811" data-name="Trazado 209811" d="M1541.873,40.511h0a2.974,2.974,0,0,1-2.966-2.966V30.537a2.966,2.966,0,1,1,5.932,0v7.008a2.974,2.974,0,0,1-2.966,2.966" transform="translate(-1303.541 -23.354)" fill="#f6f9fa"/>
        </g>
      </g>
      <g id="Grupo_173113" data-name="Grupo 173113" transform="translate(0 -0.001)">
        <g id="Grupo_173112" data-name="Grupo 173112" clip-path="url(#clip-path-2)">
          <path id="Trazado_209812" data-name="Trazado 209812" d="M1627.424,790.7v60.907a8.69,8.69,0,0,1-8.69,8.69h-94a8.69,8.69,0,0,1-8.69-8.69V790.7a8.69,8.69,0,0,1,8.69-8.69h94a8.69,8.69,0,0,1,8.69,8.69" transform="translate(-1284.172 -662.406)" fill="#82929a"/>
          <line id="Línea_1902" data-name="Línea 1902" y2="78.286" transform="translate(250.433 119.604)" fill="#b6ccd8"/>
          <line id="Línea_1903" data-name="Línea 1903" y2="78.286" transform="translate(268.997 119.604)" fill="#b6ccd8"/>
          <line id="Línea_1904" data-name="Línea 1904" y2="78.286" transform="translate(287.561 119.604)" fill="#b6ccd8"/>
          <line id="Línea_1905" data-name="Línea 1905" y2="78.286" transform="translate(306.125 119.604)" fill="#b6ccd8"/>
          <line id="Línea_1906" data-name="Línea 1906" y2="78.286" transform="translate(324.688 119.604)" fill="#b6ccd8"/>
          <line id="Línea_1907" data-name="Línea 1907" x1="111.383" transform="translate(231.869 158.747)" fill="#b6ccd8"/>
          <path id="Trazado_209813" data-name="Trazado 209813" d="M1630.762,783.279v60.907a8.69,8.69,0,0,1-8.69,8.69h-94a8.69,8.69,0,0,1-8.69-8.69V783.279a8.69,8.69,0,0,1,8.69-8.69h94a8.69,8.69,0,0,1,8.69,8.69" transform="translate(-1286.999 -656.12)" fill="#c8d9e2"/>
          <line id="Línea_1908" data-name="Línea 1908" y2="78.286" transform="translate(250.944 118.469)" fill="#b6ccd8"/>
          <rect id="Rectángulo_50308" data-name="Rectángulo 50308" width="0.153" height="0.765" transform="translate(250.867 118.469)" fill="#9aaab2"/>
          <path id="Trazado_209814" data-name="Trazado 209814" d="M1640.408,863.176h-.153v-1.5h.153Zm0-3.01h-.153v-1.5h.153Zm0-3.01h-.153v-1.505h.153Zm0-3.01h-.153v-1.505h.153Zm0-3.01h-.153v-1.505h.153Zm0-3.01h-.153v-1.505h.153Zm0-3.01h-.153v-1.505h.153Zm0-3.01h-.153V840.6h.153Zm0-3.01h-.153v-1.5h.153Zm0-3.01h-.153v-1.505h.153Zm0-3.01h-.153v-1.505h.153Zm0-3.01h-.153v-1.505h.153Zm0-3.01h-.153v-1.505h.153Zm0-3.01h-.153V822.54h.153Zm0-3.01h-.153v-1.505h.153Zm0-3.01h-.153V816.52h.153Zm0-3.01h-.153V813.51h.153Zm0-3.01h-.153V810.5h.153Zm0-3.01h-.153V807.49h.153Zm0-3.01h-.153V804.48h.153Zm0-3.01h-.153V801.47h.153Zm0-3.01h-.153V798.46h.153Zm0-3.01h-.153V795.45h.153Zm0-3.01h-.153V792.44h.153Zm0-3.01h-.153V789.43h.153Z" transform="translate(-1389.388 -668.691)" fill="#9aaab2"/>
          <rect id="Rectángulo_50309" data-name="Rectángulo 50309" width="0.153" height="0.765" transform="translate(250.867 195.99)" fill="#9aaab2"/>
          <line id="Línea_1909" data-name="Línea 1909" y2="78.286" transform="translate(269.507 118.469)" fill="#b6ccd8"/>
          <rect id="Rectángulo_50310" data-name="Rectángulo 50310" width="0.153" height="0.765" transform="translate(269.431 118.469)" fill="#9aaab2"/>
          <path id="Trazado_209815" data-name="Trazado 209815" d="M1761.785,863.176h-.153v-1.5h.153Zm0-3.01h-.153v-1.5h.153Zm0-3.01h-.153v-1.505h.153Zm0-3.01h-.153v-1.505h.153Zm0-3.01h-.153v-1.505h.153Zm0-3.01h-.153v-1.505h.153Zm0-3.01h-.153v-1.505h.153Zm0-3.01h-.153V840.6h.153Zm0-3.01h-.153v-1.5h.153Zm0-3.01h-.153v-1.505h.153Zm0-3.01h-.153v-1.505h.153Zm0-3.01h-.153v-1.505h.153Zm0-3.01h-.153v-1.505h.153Zm0-3.01h-.153V822.54h.153Zm0-3.01h-.153v-1.505h.153Zm0-3.01h-.153V816.52h.153Zm0-3.01h-.153V813.51h.153Zm0-3.01h-.153V810.5h.153Zm0-3.01h-.153V807.49h.153Zm0-3.01h-.153V804.48h.153Zm0-3.01h-.153V801.47h.153Zm0-3.01h-.153V798.46h.153Zm0-3.01h-.153V795.45h.153Zm0-3.01h-.153V792.44h.153Zm0-3.01h-.153V789.43h.153Z" transform="translate(-1492.201 -668.691)" fill="#9aaab2"/>
          <rect id="Rectángulo_50311" data-name="Rectángulo 50311" width="0.153" height="0.765" transform="translate(269.431 195.99)" fill="#9aaab2"/>
          <line id="Línea_1910" data-name="Línea 1910" y2="78.286" transform="translate(288.071 118.469)" fill="#b6ccd8"/>
          <rect id="Rectángulo_50312" data-name="Rectángulo 50312" width="0.153" height="0.765" transform="translate(287.995 118.469)" fill="#9aaab2"/>
          <path id="Trazado_209816" data-name="Trazado 209816" d="M1883.162,863.176h-.153v-1.5h.153Zm0-3.01h-.153v-1.5h.153Zm0-3.01h-.153v-1.505h.153Zm0-3.01h-.153v-1.505h.153Zm0-3.01h-.153v-1.505h.153Zm0-3.01h-.153v-1.505h.153Zm0-3.01h-.153v-1.505h.153Zm0-3.01h-.153V840.6h.153Zm0-3.01h-.153v-1.5h.153Zm0-3.01h-.153v-1.505h.153Zm0-3.01h-.153v-1.505h.153Zm0-3.01h-.153v-1.505h.153Zm0-3.01h-.153v-1.505h.153Zm0-3.01h-.153V822.54h.153Zm0-3.01h-.153v-1.505h.153Zm0-3.01h-.153V816.52h.153Zm0-3.01h-.153V813.51h.153Zm0-3.01h-.153V810.5h.153Zm0-3.01h-.153V807.49h.153Zm0-3.01h-.153V804.48h.153Zm0-3.01h-.153V801.47h.153Zm0-3.01h-.153V798.46h.153Zm0-3.01h-.153V795.45h.153Zm0-3.01h-.153V792.44h.153Zm0-3.01h-.153V789.43h.153Z" transform="translate(-1595.014 -668.691)" fill="#9aaab2"/>
          <rect id="Rectángulo_50313" data-name="Rectángulo 50313" width="0.153" height="0.765" transform="translate(287.995 195.99)" fill="#9aaab2"/>
          <line id="Línea_1911" data-name="Línea 1911" y2="78.286" transform="translate(306.635 118.469)" fill="#b6ccd8"/>
          <rect id="Rectángulo_50314" data-name="Rectángulo 50314" width="0.153" height="0.765" transform="translate(306.559 118.469)" fill="#9aaab2"/>
          <path id="Trazado_209817" data-name="Trazado 209817" d="M2004.539,863.176h-.153v-1.5h.153Zm0-3.01h-.153v-1.5h.153Zm0-3.01h-.153v-1.505h.153Zm0-3.01h-.153v-1.505h.153Zm0-3.01h-.153v-1.505h.153Zm0-3.01h-.153v-1.505h.153Zm0-3.01h-.153v-1.505h.153Zm0-3.01h-.153V840.6h.153Zm0-3.01h-.153v-1.5h.153Zm0-3.01h-.153v-1.505h.153Zm0-3.01h-.153v-1.505h.153Zm0-3.01h-.153v-1.505h.153Zm0-3.01h-.153v-1.505h.153Zm0-3.01h-.153V822.54h.153Zm0-3.01h-.153v-1.505h.153Zm0-3.01h-.153V816.52h.153Zm0-3.01h-.153V813.51h.153Zm0-3.01h-.153V810.5h.153Zm0-3.01h-.153V807.49h.153Zm0-3.01h-.153V804.48h.153Zm0-3.01h-.153V801.47h.153Zm0-3.01h-.153V798.46h.153Zm0-3.01h-.153V795.45h.153Zm0-3.01h-.153V792.44h.153Zm0-3.01h-.153V789.43h.153Z" transform="translate(-1697.827 -668.691)" fill="#9aaab2"/>
          <rect id="Rectángulo_50315" data-name="Rectángulo 50315" width="0.153" height="0.765" transform="translate(306.559 195.99)" fill="#9aaab2"/>
          <line id="Línea_1912" data-name="Línea 1912" y2="78.286" transform="translate(325.199 118.469)" fill="#b6ccd8"/>
          <rect id="Rectángulo_50316" data-name="Rectángulo 50316" width="0.153" height="0.765" transform="translate(325.122 118.469)" fill="#9aaab2"/>
          <path id="Trazado_209818" data-name="Trazado 209818" d="M2125.916,863.176h-.153v-1.5h.153Zm0-3.01h-.153v-1.5h.153Zm0-3.01h-.153v-1.505h.153Zm0-3.01h-.153v-1.505h.153Zm0-3.01h-.153v-1.505h.153Zm0-3.01h-.153v-1.505h.153Zm0-3.01h-.153v-1.505h.153Zm0-3.01h-.153V840.6h.153Zm0-3.01h-.153v-1.5h.153Zm0-3.01h-.153v-1.505h.153Zm0-3.01h-.153v-1.505h.153Zm0-3.01h-.153v-1.505h.153Zm0-3.01h-.153v-1.505h.153Zm0-3.01h-.153V822.54h.153Zm0-3.01h-.153v-1.505h.153Zm0-3.01h-.153V816.52h.153Zm0-3.01h-.153V813.51h.153Zm0-3.01h-.153V810.5h.153Zm0-3.01h-.153V807.49h.153Zm0-3.01h-.153V804.48h.153Zm0-3.01h-.153V801.47h.153Zm0-3.01h-.153V798.46h.153Zm0-3.01h-.153V795.45h.153Zm0-3.01h-.153V792.44h.153Zm0-3.01h-.153V789.43h.153Z" transform="translate(-1800.641 -668.691)" fill="#9aaab2"/>
          <rect id="Rectángulo_50317" data-name="Rectángulo 50317" width="0.153" height="0.765" transform="translate(325.122 195.99)" fill="#9aaab2"/>
          <line id="Línea_1913" data-name="Línea 1913" x1="111.383" transform="translate(232.38 157.612)" fill="#b6ccd8"/>
          <rect id="Rectángulo_50318" data-name="Rectángulo 50318" width="0.765" height="0.153" transform="translate(342.998 157.535)" fill="#9aaab2"/>
          <path id="Trazado_209819" data-name="Trazado 209819" d="M1641.254,1030.172h-1.547v-.153h1.547Zm-3.094,0h-1.547v-.153h1.547Zm-3.095,0h-1.547v-.153h1.547Zm-3.094,0h-1.547v-.153h1.547Zm-3.094,0h-1.547v-.153h1.547Zm-3.095,0h-1.547v-.153h1.547Zm-3.094,0h-1.547v-.153h1.547Zm-3.094,0h-1.547v-.153h1.547Zm-3.094,0h-1.547v-.153h1.547Zm-3.095,0h-1.547v-.153h1.547Zm-3.094,0h-1.547v-.153h1.547Zm-3.094,0h-1.547v-.153h1.547Zm-3.095,0h-1.547v-.153h1.547Zm-3.094,0h-1.547v-.153h1.547Zm-3.094,0h-1.547v-.153h1.547Zm-3.094,0h-1.547v-.153h1.547Zm-3.095,0H1590.2v-.153h1.547Zm-3.094,0H1587.1v-.153h1.547Zm-3.094,0h-1.547v-.153h1.547Zm-3.095,0h-1.547v-.153h1.547Zm-3.094,0h-1.547v-.153h1.547Zm-3.095,0h-1.547v-.153h1.547Zm-3.094,0h-1.547v-.153h1.547Zm-3.094,0h-1.547v-.153h1.547Zm-3.095,0h-1.547v-.153h1.547Zm-3.094,0h-1.547v-.153h1.547Zm-3.095,0h-1.547v-.153h1.547Zm-3.094,0h-1.547v-.153h1.547Zm-3.095,0h-1.547v-.153h1.547Zm-3.094,0h-1.547v-.153h1.547Zm-3.094,0h-1.547v-.153h1.547Zm-3.095,0h-1.547v-.153h1.547Zm-3.094,0h-1.547v-.153h1.547Zm-3.095,0h-1.547v-.153h1.547Zm-3.094,0H1534.5v-.153h1.547Z" transform="translate(-1299.804 -872.484)" fill="#9aaab2"/>
          <rect id="Rectángulo_50319" data-name="Rectángulo 50319" width="0.765" height="0.153" transform="translate(232.38 157.535)" fill="#9aaab2"/>
          <path id="Trazado_209820" data-name="Trazado 209820" d="M2162.212,850.977a3.681,3.681,0,0,1-3.669-3.669V832.37a3.669,3.669,0,0,1,7.338,0v14.938a3.682,3.682,0,0,1-3.669,3.669" transform="translate(-1828.407 -701.956)" fill="#20354d"/>
          <path id="Trazado_209821" data-name="Trazado 209821" d="M2189.016,838.811v-7.469a3.68,3.68,0,0,0-3.669-3.669v11.138Z" transform="translate(-1851.111 -701.085)" fill="#395f88"/>
          <path id="Trazado_209822" data-name="Trazado 209822" d="M2165.024,827.673a3.68,3.68,0,0,0-3.669,3.669v7.469h3.669Z" transform="translate(-1830.789 -701.085)" fill="#2b4766"/>
          <path id="Trazado_209823" data-name="Trazado 209823" d="M2161.355,900.5v7.469a3.68,3.68,0,0,0,3.669,3.669V900.5Z" transform="translate(-1830.789 -762.773)" fill="#b3b7b9"/>
          <path id="Trazado_209824" data-name="Trazado 209824" d="M2189.016,907.968V900.5h-3.669v11.138a3.68,3.68,0,0,0,3.669-3.669" transform="translate(-1851.111 -762.773)" fill="#eff4f6"/>
          <path id="Trazado_209825" data-name="Trazado 209825" d="M2195.324,851.6V847.2a.537.537,0,1,1,1.073,0V851.6a.537.537,0,0,1-1.073,0" transform="translate(-1859.563 -717.167)" fill="#eff4f6"/>
          <path id="Trazado_209826" data-name="Trazado 209826" d="M2163.618,1107.846a3.681,3.681,0,0,1-3.669-3.669v-14.938a3.669,3.669,0,0,1,7.338,0v14.938a3.681,3.681,0,0,1-3.669,3.669" transform="translate(-1829.598 -919.539)" fill="#20354d"/>
          <path id="Trazado_209827" data-name="Trazado 209827" d="M2190.422,1095.68v-7.469a3.68,3.68,0,0,0-3.669-3.669v11.138Z" transform="translate(-1852.302 -918.668)" fill="#395f88"/>
          <path id="Trazado_209828" data-name="Trazado 209828" d="M2166.43,1084.542a3.68,3.68,0,0,0-3.669,3.669v7.469h3.669Z" transform="translate(-1831.98 -918.668)" fill="#2b4766"/>
          <path id="Trazado_209829" data-name="Trazado 209829" d="M2162.761,1157.368v7.469a3.68,3.68,0,0,0,3.669,3.669v-11.138Z" transform="translate(-1831.98 -980.356)" fill="#b3b7b9"/>
          <path id="Trazado_209830" data-name="Trazado 209830" d="M2190.422,1164.838v-7.469h-3.669v11.138a3.68,3.68,0,0,0,3.669-3.669" transform="translate(-1852.302 -980.356)" fill="#eff4f6"/>
          <path id="Trazado_209831" data-name="Trazado 209831" d="M2196.73,1108.471v-4.407a.537.537,0,1,1,1.073,0v4.407a.537.537,0,0,1-1.073,0" transform="translate(-1860.754 -934.749)" fill="#eff4f6"/>
          <path id="Trazado_209832" data-name="Trazado 209832" d="M2041.77,852a3.681,3.681,0,0,1-3.669-3.669V833.4a3.669,3.669,0,0,1,7.338,0v14.938A3.682,3.682,0,0,1,2041.77,852" transform="translate(-1726.386 -702.826)" fill="#20354d"/>
          <path id="Trazado_209833" data-name="Trazado 209833" d="M2068.574,839.839V832.37a3.68,3.68,0,0,0-3.669-3.669v11.138Z" transform="translate(-1749.09 -701.956)" fill="#395f88"/>
          <path id="Trazado_209834" data-name="Trazado 209834" d="M2044.582,828.7a3.68,3.68,0,0,0-3.669,3.669v7.469h3.669Z" transform="translate(-1728.768 -701.956)" fill="#2b4766"/>
          <path id="Trazado_209835" data-name="Trazado 209835" d="M2040.913,901.527V909a3.68,3.68,0,0,0,3.669,3.669V901.527Z" transform="translate(-1728.768 -763.644)" fill="#b3b7b9"/>
          <path id="Trazado_209836" data-name="Trazado 209836" d="M2068.574,909v-7.469h-3.669v11.138a3.68,3.68,0,0,0,3.669-3.669" transform="translate(-1749.09 -763.644)" fill="#eff4f6"/>
          <path id="Trazado_209837" data-name="Trazado 209837" d="M2074.882,852.631v-4.407a.537.537,0,0,1,1.073,0v4.407a.537.537,0,1,1-1.073,0" transform="translate(-1757.542 -718.038)" fill="#eff4f6"/>
          <path id="Trazado_209838" data-name="Trazado 209838" d="M2043.176,1108.874a3.681,3.681,0,0,1-3.669-3.669v-14.938a3.669,3.669,0,1,1,7.338,0v14.938a3.682,3.682,0,0,1-3.669,3.669" transform="translate(-1727.577 -920.409)" fill="#20354d"/>
          <path id="Trazado_209839" data-name="Trazado 209839" d="M2069.98,1096.708v-7.469a3.68,3.68,0,0,0-3.669-3.669v11.138Z" transform="translate(-1750.281 -919.539)" fill="#395f88"/>
          <path id="Trazado_209840" data-name="Trazado 209840" d="M2045.988,1085.57a3.68,3.68,0,0,0-3.669,3.669v7.469h3.669Z" transform="translate(-1729.959 -919.539)" fill="#2b4766"/>
          <path id="Trazado_209841" data-name="Trazado 209841" d="M2042.319,1158.4v7.469a3.68,3.68,0,0,0,3.669,3.669V1158.4Z" transform="translate(-1729.959 -981.226)" fill="#b3b7b9"/>
          <path id="Trazado_209842" data-name="Trazado 209842" d="M2069.98,1165.866V1158.4h-3.669v11.138a3.68,3.68,0,0,0,3.669-3.669" transform="translate(-1750.281 -981.227)" fill="#eff4f6"/>
          <path id="Trazado_209843" data-name="Trazado 209843" d="M2076.288,1109.5v-4.407a.537.537,0,0,1,1.073,0v4.407a.537.537,0,1,1-1.073,0" transform="translate(-1758.733 -935.621)" fill="#eff4f6"/>
          <path id="Trazado_209844" data-name="Trazado 209844" d="M1921.327,853.032a3.681,3.681,0,0,1-3.669-3.669V834.425a3.669,3.669,0,1,1,7.338,0v14.938a3.681,3.681,0,0,1-3.669,3.669" transform="translate(-1624.364 -703.697)" fill="#20354d"/>
          <path id="Trazado_209845" data-name="Trazado 209845" d="M1948.132,840.866V833.4a3.68,3.68,0,0,0-3.669-3.669v11.138Z" transform="translate(-1647.069 -702.826)" fill="#395f88"/>
          <path id="Trazado_209846" data-name="Trazado 209846" d="M1924.14,829.728a3.68,3.68,0,0,0-3.669,3.669v7.469h3.669Z" transform="translate(-1626.747 -702.826)" fill="#2b4766"/>
          <path id="Trazado_209847" data-name="Trazado 209847" d="M1920.471,902.554v7.469a3.68,3.68,0,0,0,3.669,3.669V902.554Z" transform="translate(-1626.747 -764.514)" fill="#b3b7b9"/>
          <path id="Trazado_209848" data-name="Trazado 209848" d="M1948.132,910.024v-7.469h-3.669v11.138a3.68,3.68,0,0,0,3.669-3.669" transform="translate(-1647.069 -764.515)" fill="#eff4f6"/>
          <path id="Trazado_209849" data-name="Trazado 209849" d="M1954.44,853.658v-4.407a.537.537,0,1,1,1.073,0v4.407a.537.537,0,0,1-1.073,0" transform="translate(-1655.52 -718.908)" fill="#eff4f6"/>
          <path id="Trazado_209850" data-name="Trazado 209850" d="M1922.734,1109.9a3.681,3.681,0,0,1-3.669-3.669V1091.3a3.669,3.669,0,1,1,7.338,0v14.938a3.681,3.681,0,0,1-3.669,3.669" transform="translate(-1625.556 -921.28)" fill="#20354d"/>
          <path id="Trazado_209851" data-name="Trazado 209851" d="M1949.538,1097.736v-7.469a3.68,3.68,0,0,0-3.669-3.669v11.138Z" transform="translate(-1648.26 -920.409)" fill="#395f88"/>
          <path id="Trazado_209852" data-name="Trazado 209852" d="M1925.546,1086.6a3.68,3.68,0,0,0-3.669,3.669v7.469h3.669Z" transform="translate(-1627.938 -920.409)" fill="#2b4766"/>
          <path id="Trazado_209853" data-name="Trazado 209853" d="M1921.877,1159.424v7.469a3.68,3.68,0,0,0,3.669,3.669v-11.138Z" transform="translate(-1627.938 -982.097)" fill="#b3b7b9"/>
          <path id="Trazado_209854" data-name="Trazado 209854" d="M1949.538,1166.893v-7.469h-3.669v11.138a3.68,3.68,0,0,0,3.669-3.669" transform="translate(-1648.26 -982.097)" fill="#eff4f6"/>
          <path id="Trazado_209855" data-name="Trazado 209855" d="M1955.846,1110.528v-4.407a.537.537,0,0,1,1.073,0v4.407a.537.537,0,1,1-1.073,0" transform="translate(-1656.711 -936.492)" fill="#eff4f6"/>
          <path id="Trazado_209856" data-name="Trazado 209856" d="M1800.885,854.06a3.681,3.681,0,0,1-3.669-3.669V835.453a3.669,3.669,0,0,1,7.339,0v14.938a3.682,3.682,0,0,1-3.669,3.669" transform="translate(-1522.343 -704.568)" fill="#20354d"/>
          <path id="Trazado_209857" data-name="Trazado 209857" d="M1827.689,841.894v-7.469a3.68,3.68,0,0,0-3.669-3.669v11.138Z" transform="translate(-1545.047 -703.697)" fill="#395f88"/>
          <path id="Trazado_209858" data-name="Trazado 209858" d="M1803.7,830.756a3.68,3.68,0,0,0-3.669,3.669v7.469h3.669Z" transform="translate(-1524.726 -703.697)" fill="#2b4766"/>
          <path id="Trazado_209859" data-name="Trazado 209859" d="M1800.029,903.582v7.469a3.68,3.68,0,0,0,3.669,3.669V903.582Z" transform="translate(-1524.726 -765.385)" fill="#b3b7b9"/>
          <path id="Trazado_209860" data-name="Trazado 209860" d="M1827.689,911.052v-7.469h-3.669v11.138a3.68,3.68,0,0,0,3.669-3.669" transform="translate(-1545.047 -765.385)" fill="#eff4f6"/>
          <path id="Trazado_209861" data-name="Trazado 209861" d="M1834,854.686v-4.407a.537.537,0,1,1,1.073,0v4.407a.537.537,0,1,1-1.073,0" transform="translate(-1553.499 -719.779)" fill="#eff4f6"/>
          <path id="Trazado_209862" data-name="Trazado 209862" d="M1802.291,1110.93a3.681,3.681,0,0,1-3.669-3.669v-14.938a3.669,3.669,0,1,1,7.338,0v14.938a3.682,3.682,0,0,1-3.669,3.669" transform="translate(-1523.534 -922.151)" fill="#20354d"/>
          <path id="Trazado_209863" data-name="Trazado 209863" d="M1829.1,1098.764V1091.3a3.68,3.68,0,0,0-3.669-3.669v11.138Z" transform="translate(-1546.239 -921.28)" fill="#395f88"/>
          <path id="Trazado_209864" data-name="Trazado 209864" d="M1805.1,1087.626a3.68,3.68,0,0,0-3.669,3.669v7.469h3.669Z" transform="translate(-1525.917 -921.28)" fill="#2b4766"/>
          <path id="Trazado_209865" data-name="Trazado 209865" d="M1801.435,1160.452v7.469a3.68,3.68,0,0,0,3.669,3.669v-11.138Z" transform="translate(-1525.917 -982.968)" fill="#b3b7b9"/>
          <path id="Trazado_209866" data-name="Trazado 209866" d="M1829.1,1167.921v-7.469h-3.669v11.138a3.68,3.68,0,0,0,3.669-3.669" transform="translate(-1546.239 -982.968)" fill="#eff4f6"/>
          <path id="Trazado_209867" data-name="Trazado 209867" d="M1835.4,1111.555v-4.407a.537.537,0,1,1,1.073,0v4.407a.537.537,0,0,1-1.073,0" transform="translate(-1554.69 -937.361)" fill="#eff4f6"/>
          <path id="Trazado_209868" data-name="Trazado 209868" d="M1680.443,855.088a3.681,3.681,0,0,1-3.669-3.669V836.481a3.669,3.669,0,0,1,7.338,0v14.938a3.682,3.682,0,0,1-3.669,3.669" transform="translate(-1420.322 -705.438)" fill="#20354d"/>
          <path id="Trazado_209869" data-name="Trazado 209869" d="M1707.247,842.922v-7.469a3.68,3.68,0,0,0-3.669-3.669v11.138Z" transform="translate(-1443.026 -704.568)" fill="#395f88"/>
          <path id="Trazado_209870" data-name="Trazado 209870" d="M1683.255,831.784a3.68,3.68,0,0,0-3.669,3.669v7.469h3.669Z" transform="translate(-1422.704 -704.568)" fill="#2b4766"/>
          <path id="Trazado_209871" data-name="Trazado 209871" d="M1679.587,904.61v7.469a3.68,3.68,0,0,0,3.669,3.669V904.61Z" transform="translate(-1422.704 -766.255)" fill="#b3b7b9"/>
          <path id="Trazado_209872" data-name="Trazado 209872" d="M1707.247,912.08v-7.469h-3.669v11.138a3.68,3.68,0,0,0,3.669-3.669" transform="translate(-1443.026 -766.256)" fill="#eff4f6"/>
          <path id="Trazado_209873" data-name="Trazado 209873" d="M1713.555,855.714v-4.407a.537.537,0,0,1,1.073,0v4.407a.537.537,0,0,1-1.073,0" transform="translate(-1451.477 -720.65)" fill="#eff4f6"/>
          <path id="Trazado_209874" data-name="Trazado 209874" d="M1681.849,1111.958a3.681,3.681,0,0,1-3.669-3.669v-14.938a3.669,3.669,0,1,1,7.338,0v14.938a3.681,3.681,0,0,1-3.669,3.669" transform="translate(-1421.513 -923.022)" fill="#20354d"/>
          <path id="Trazado_209875" data-name="Trazado 209875" d="M1708.653,1099.792v-7.469a3.68,3.68,0,0,0-3.669-3.669v11.138Z" transform="translate(-1444.217 -922.151)" fill="#395f88"/>
          <path id="Trazado_209876" data-name="Trazado 209876" d="M1684.661,1088.654a3.68,3.68,0,0,0-3.669,3.669v7.469h3.669Z" transform="translate(-1423.895 -922.151)" fill="#2b4766"/>
          <path id="Trazado_209877" data-name="Trazado 209877" d="M1680.993,1161.48v7.469a3.68,3.68,0,0,0,3.669,3.669V1161.48Z" transform="translate(-1423.896 -983.839)" fill="#b3b7b9"/>
          <path id="Trazado_209878" data-name="Trazado 209878" d="M1708.653,1168.949v-7.469h-3.669v11.138a3.68,3.68,0,0,0,3.669-3.669" transform="translate(-1444.217 -983.839)" fill="#eff4f6"/>
          <path id="Trazado_209879" data-name="Trazado 209879" d="M1714.961,1112.584v-4.407a.537.537,0,0,1,1.073,0v4.407a.537.537,0,1,1-1.073,0" transform="translate(-1452.668 -938.233)" fill="#eff4f6"/>
          <path id="Trazado_209880" data-name="Trazado 209880" d="M1560,856.116a3.681,3.681,0,0,1-3.669-3.669V837.509a3.669,3.669,0,1,1,7.338,0v14.938a3.681,3.681,0,0,1-3.669,3.669" transform="translate(-1318.301 -706.309)" fill="#20354d"/>
          <path id="Trazado_209881" data-name="Trazado 209881" d="M1586.805,843.95v-7.469a3.68,3.68,0,0,0-3.669-3.669V843.95Z" transform="translate(-1341.005 -705.438)" fill="#395f88"/>
          <path id="Trazado_209882" data-name="Trazado 209882" d="M1562.813,832.812a3.68,3.68,0,0,0-3.669,3.669v7.469h3.669Z" transform="translate(-1320.682 -705.438)" fill="#2b4766"/>
          <path id="Trazado_209883" data-name="Trazado 209883" d="M1559.144,905.638v7.469a3.68,3.68,0,0,0,3.669,3.669V905.638Z" transform="translate(-1320.682 -767.126)" fill="#b3b7b9"/>
          <path id="Trazado_209884" data-name="Trazado 209884" d="M1586.805,913.107v-7.469h-3.669v11.138a3.68,3.68,0,0,0,3.669-3.669" transform="translate(-1341.005 -767.126)" fill="#eff4f6"/>
          <path id="Trazado_209885" data-name="Trazado 209885" d="M1593.113,856.742v-4.407a.537.537,0,0,1,1.073,0v4.407a.537.537,0,1,1-1.073,0" transform="translate(-1349.456 -721.521)" fill="#eff4f6"/>
          <path id="Trazado_209886" data-name="Trazado 209886" d="M1561.407,1112.986a3.681,3.681,0,0,1-3.669-3.669v-14.938a3.669,3.669,0,1,1,7.338,0v14.938a3.681,3.681,0,0,1-3.669,3.669" transform="translate(-1319.492 -923.892)" fill="#20354d"/>
          <path id="Trazado_209887" data-name="Trazado 209887" d="M1588.211,1100.82v-7.469a3.68,3.68,0,0,0-3.669-3.669v11.138Z" transform="translate(-1342.196 -923.022)" fill="#395f88"/>
          <path id="Trazado_209888" data-name="Trazado 209888" d="M1564.219,1089.682a3.68,3.68,0,0,0-3.669,3.669v7.469h3.669Z" transform="translate(-1321.874 -923.022)" fill="#2b4766"/>
          <path id="Trazado_209889" data-name="Trazado 209889" d="M1560.55,1162.508v7.469a3.68,3.68,0,0,0,3.669,3.669v-11.138Z" transform="translate(-1321.874 -984.709)" fill="#b3b7b9"/>
          <path id="Trazado_209890" data-name="Trazado 209890" d="M1588.211,1169.977v-7.469h-3.669v11.138a3.68,3.68,0,0,0,3.669-3.669" transform="translate(-1342.196 -984.709)" fill="#eff4f6"/>
          <path id="Trazado_209891" data-name="Trazado 209891" d="M1594.519,1113.611V1109.2a.537.537,0,1,1,1.073,0v4.407a.537.537,0,1,1-1.073,0" transform="translate(-1350.647 -939.103)" fill="#eff4f6"/>
        </g>
      </g>
      <g id="Grupo_173115" data-name="Grupo 173115" transform="translate(0 -0.001)">
        <g id="Grupo_173114" data-name="Grupo 173114" clip-path="url(#clip-path-2)">
          <path id="Trazado_209892" data-name="Trazado 209892" d="M1337.036,565.654h60.907a8.69,8.69,0,0,1,8.69,8.69v94a8.69,8.69,0,0,1-8.69,8.69h-60.907a8.69,8.69,0,0,1-8.69-8.69v-94a8.69,8.69,0,0,1,8.69-8.69" transform="translate(-1125.184 -479.141)" fill="#82929a"/>
          <line id="Línea_1914" data-name="Línea 1914" x2="78.286" transform="translate(203.162 179.333)" fill="#b6ccd8"/>
          <line id="Línea_1915" data-name="Línea 1915" x2="78.286" transform="translate(203.162 160.769)" fill="#b6ccd8"/>
          <line id="Línea_1916" data-name="Línea 1916" x2="78.286" transform="translate(203.162 142.205)" fill="#b6ccd8"/>
          <line id="Línea_1917" data-name="Línea 1917" x2="78.286" transform="translate(203.162 123.641)" fill="#b6ccd8"/>
          <line id="Línea_1918" data-name="Línea 1918" x2="78.286" transform="translate(203.162 105.077)" fill="#b6ccd8"/>
          <line id="Línea_1919" data-name="Línea 1919" y2="111.383" transform="translate(242.305 86.513)" fill="#b6ccd8"/>
          <path id="Trazado_209893" data-name="Trazado 209893" d="M1325.524,559.148h60.906a8.69,8.69,0,0,1,8.69,8.69v94a8.69,8.69,0,0,1-8.69,8.69h-60.906a8.69,8.69,0,0,1-8.69-8.69v-94a8.69,8.69,0,0,1,8.69-8.69" transform="translate(-1115.432 -473.63)" fill="#c8d9e2"/>
          <line id="Línea_1920" data-name="Línea 1920" x2="78.286" transform="translate(201.402 178.338)" fill="#b6ccd8"/>
          <rect id="Rectángulo_50321" data-name="Rectángulo 50321" width="0.765" height="0.153" transform="translate(201.402 178.261)" fill="#9aaab2"/>
          <path id="Trazado_209894" data-name="Trazado 209894" d="M1405.421,1165.685h-1.5v-.153h1.5Zm-3.01,0h-1.505v-.153h1.505Zm-3.01,0H1397.9v-.153h1.505Zm-3.01,0h-1.505v-.153h1.505Zm-3.01,0h-1.505v-.153h1.505Zm-3.01,0h-1.505v-.153h1.505Zm-3.01,0h-1.505v-.153h1.505Zm-3.01,0h-1.505v-.153h1.505Zm-3.01,0h-1.5v-.153h1.5Zm-3.01,0h-1.505v-.153h1.505Zm-3.01,0h-1.5v-.153h1.5Zm-3.01,0h-1.505v-.153h1.505Zm-3.01,0H1367.8v-.153h1.505Zm-3.01,0h-1.505v-.153h1.505Zm-3.01,0h-1.505v-.153h1.505Zm-3.01,0h-1.505v-.153h1.505Zm-3.01,0h-1.5v-.153h1.5Zm-3.01,0h-1.5v-.153h1.5Zm-3.01,0h-1.505v-.153h1.505Zm-3.01,0h-1.505v-.153h1.505Zm-3.01,0h-1.505v-.153h1.505Zm-3.01,0h-1.505v-.153h1.505Zm-3.01,0H1337.7v-.153h1.505Zm-3.01,0h-1.505v-.153h1.505Zm-3.01,0h-1.505v-.153h1.505Z" transform="translate(-1128.004 -987.271)" fill="#9aaab2"/>
          <rect id="Rectángulo_50322" data-name="Rectángulo 50322" width="0.765" height="0.153" transform="translate(278.923 178.261)" fill="#9aaab2"/>
          <line id="Línea_1921" data-name="Línea 1921" x2="78.286" transform="translate(201.402 159.774)" fill="#b6ccd8"/>
          <rect id="Rectángulo_50323" data-name="Rectángulo 50323" width="0.765" height="0.153" transform="translate(201.402 159.697)" fill="#9aaab2"/>
          <path id="Trazado_209895" data-name="Trazado 209895" d="M1405.421,1044.309h-1.5v-.153h1.5Zm-3.01,0h-1.505v-.153h1.505Zm-3.01,0H1397.9v-.153h1.505Zm-3.01,0h-1.505v-.153h1.505Zm-3.01,0h-1.505v-.153h1.505Zm-3.01,0h-1.505v-.153h1.505Zm-3.01,0h-1.505v-.153h1.505Zm-3.01,0h-1.505v-.153h1.505Zm-3.01,0h-1.5v-.153h1.5Zm-3.01,0h-1.505v-.153h1.505Zm-3.01,0h-1.5v-.153h1.5Zm-3.01,0h-1.505v-.153h1.505Zm-3.01,0H1367.8v-.153h1.505Zm-3.01,0h-1.505v-.153h1.505Zm-3.01,0h-1.505v-.153h1.505Zm-3.01,0h-1.505v-.153h1.505Zm-3.01,0h-1.5v-.153h1.5Zm-3.01,0h-1.5v-.153h1.5Zm-3.01,0h-1.505v-.153h1.505Zm-3.01,0h-1.505v-.153h1.505Zm-3.01,0h-1.505v-.153h1.505Zm-3.01,0h-1.505v-.153h1.505Zm-3.01,0H1337.7v-.153h1.505Zm-3.01,0h-1.505v-.153h1.505Zm-3.01,0h-1.505v-.153h1.505Z" transform="translate(-1128.004 -884.459)" fill="#9aaab2"/>
          <rect id="Rectángulo_50324" data-name="Rectángulo 50324" width="0.765" height="0.153" transform="translate(278.923 159.697)" fill="#9aaab2"/>
          <line id="Línea_1922" data-name="Línea 1922" x2="78.286" transform="translate(201.402 141.21)" fill="#b6ccd8"/>
          <rect id="Rectángulo_50325" data-name="Rectángulo 50325" width="0.765" height="0.153" transform="translate(201.402 141.134)" fill="#9aaab2"/>
          <path id="Trazado_209896" data-name="Trazado 209896" d="M1405.421,922.932h-1.5v-.153h1.5Zm-3.01,0h-1.505v-.153h1.505Zm-3.01,0H1397.9v-.153h1.505Zm-3.01,0h-1.505v-.153h1.505Zm-3.01,0h-1.505v-.153h1.505Zm-3.01,0h-1.505v-.153h1.505Zm-3.01,0h-1.505v-.153h1.505Zm-3.01,0h-1.505v-.153h1.505Zm-3.01,0h-1.5v-.153h1.5Zm-3.01,0h-1.505v-.153h1.505Zm-3.01,0h-1.5v-.153h1.5Zm-3.01,0h-1.505v-.153h1.505Zm-3.01,0H1367.8v-.153h1.505Zm-3.01,0h-1.505v-.153h1.505Zm-3.01,0h-1.505v-.153h1.505Zm-3.01,0h-1.505v-.153h1.505Zm-3.01,0h-1.5v-.153h1.5Zm-3.01,0h-1.5v-.153h1.5Zm-3.01,0h-1.505v-.153h1.505Zm-3.01,0h-1.505v-.153h1.505Zm-3.01,0h-1.505v-.153h1.505Zm-3.01,0h-1.505v-.153h1.505Zm-3.01,0H1337.7v-.153h1.505Zm-3.01,0h-1.505v-.153h1.505Zm-3.01,0h-1.505v-.153h1.505Z" transform="translate(-1128.004 -781.646)" fill="#9aaab2"/>
          <rect id="Rectángulo_50326" data-name="Rectángulo 50326" width="0.765" height="0.153" transform="translate(278.923 141.134)" fill="#9aaab2"/>
          <line id="Línea_1923" data-name="Línea 1923" x2="78.286" transform="translate(201.402 122.646)" fill="#b6ccd8"/>
          <rect id="Rectángulo_50327" data-name="Rectángulo 50327" width="0.765" height="0.153" transform="translate(201.402 122.57)" fill="#9aaab2"/>
          <path id="Trazado_209897" data-name="Trazado 209897" d="M1405.421,801.555h-1.5V801.4h1.5Zm-3.01,0h-1.505V801.4h1.505Zm-3.01,0H1397.9V801.4h1.505Zm-3.01,0h-1.505V801.4h1.505Zm-3.01,0h-1.505V801.4h1.505Zm-3.01,0h-1.505V801.4h1.505Zm-3.01,0h-1.505V801.4h1.505Zm-3.01,0h-1.505V801.4h1.505Zm-3.01,0h-1.5V801.4h1.5Zm-3.01,0h-1.505V801.4h1.505Zm-3.01,0h-1.5V801.4h1.5Zm-3.01,0h-1.505V801.4h1.505Zm-3.01,0H1367.8V801.4h1.505Zm-3.01,0h-1.505V801.4h1.505Zm-3.01,0h-1.505V801.4h1.505Zm-3.01,0h-1.505V801.4h1.505Zm-3.01,0h-1.5V801.4h1.5Zm-3.01,0h-1.5V801.4h1.5Zm-3.01,0h-1.505V801.4h1.505Zm-3.01,0h-1.505V801.4h1.505Zm-3.01,0h-1.505V801.4h1.505Zm-3.01,0h-1.505V801.4h1.505Zm-3.01,0H1337.7V801.4h1.505Zm-3.01,0h-1.505V801.4h1.505Zm-3.01,0h-1.505V801.4h1.505Z" transform="translate(-1128.004 -678.832)" fill="#9aaab2"/>
          <rect id="Rectángulo_50328" data-name="Rectángulo 50328" width="0.765" height="0.153" transform="translate(278.923 122.57)" fill="#9aaab2"/>
          <line id="Línea_1924" data-name="Línea 1924" x2="78.286" transform="translate(201.402 104.082)" fill="#b6ccd8"/>
          <rect id="Rectángulo_50329" data-name="Rectángulo 50329" width="0.765" height="0.153" transform="translate(201.402 104.006)" fill="#9aaab2"/>
          <path id="Trazado_209898" data-name="Trazado 209898" d="M1405.421,680.178h-1.5v-.153h1.5Zm-3.01,0h-1.505v-.153h1.505Zm-3.01,0H1397.9v-.153h1.505Zm-3.01,0h-1.505v-.153h1.505Zm-3.01,0h-1.505v-.153h1.505Zm-3.01,0h-1.505v-.153h1.505Zm-3.01,0h-1.505v-.153h1.505Zm-3.01,0h-1.505v-.153h1.505Zm-3.01,0h-1.5v-.153h1.5Zm-3.01,0h-1.505v-.153h1.505Zm-3.01,0h-1.5v-.153h1.5Zm-3.01,0h-1.505v-.153h1.505Zm-3.01,0H1367.8v-.153h1.505Zm-3.01,0h-1.505v-.153h1.505Zm-3.01,0h-1.505v-.153h1.505Zm-3.01,0h-1.505v-.153h1.505Zm-3.01,0h-1.5v-.153h1.5Zm-3.01,0h-1.5v-.153h1.5Zm-3.01,0h-1.505v-.153h1.505Zm-3.01,0h-1.505v-.153h1.505Zm-3.01,0h-1.505v-.153h1.505Zm-3.01,0h-1.505v-.153h1.505Zm-3.01,0H1337.7v-.153h1.505Zm-3.01,0h-1.505v-.153h1.505Zm-3.01,0h-1.505v-.153h1.505Z" transform="translate(-1128.004 -576.019)" fill="#9aaab2"/>
          <rect id="Rectángulo_50330" data-name="Rectángulo 50330" width="0.765" height="0.153" transform="translate(278.923 104.006)" fill="#9aaab2"/>
          <line id="Línea_1925" data-name="Línea 1925" y2="111.383" transform="translate(240.545 85.518)" fill="#b6ccd8"/>
          <rect id="Rectángulo_50331" data-name="Rectángulo 50331" width="0.153" height="0.765" transform="translate(240.468 85.518)" fill="#9aaab2"/>
          <path id="Trazado_209899" data-name="Trazado 209899" d="M1572.417,681.024h-.153v-1.547h.153Zm0-3.094h-.153v-1.547h.153Zm0-3.095h-.153v-1.547h.153Zm0-3.094h-.153v-1.547h.153Zm0-3.094h-.153V667.1h.153Zm0-3.095h-.153V664h.153Zm0-3.094h-.153V660.91h.153Zm0-3.094h-.153v-1.547h.153Zm0-3.095h-.153v-1.547h.153Zm0-3.094h-.153v-1.547h.153Zm0-3.095h-.153v-1.547h.153Zm0-3.094h-.153v-1.547h.153Zm0-3.095h-.153v-1.547h.153Zm0-3.094h-.153v-1.547h.153Zm0-3.094h-.153v-1.547h.153Zm0-3.095h-.153V633.06h.153Zm0-3.094h-.153v-1.547h.153Zm0-3.094h-.153v-1.547h.153Zm0-3.095h-.153v-1.547h.153Zm0-3.094h-.153v-1.547h.153Zm0-3.094h-.153v-1.547h.153Zm0-3.094h-.153v-1.547h.153Zm0-3.095h-.153V611.4h.153Zm0-3.094h-.153V608.3h.153Zm0-3.094h-.153V605.21h.153Zm0-3.095h-.153v-1.547h.153Zm0-3.094h-.153v-1.547h.153Zm0-3.094h-.153v-1.547h.153Zm0-3.095h-.153v-1.547h.153Zm0-3.094h-.153v-1.547h.153Zm0-3.094h-.153v-1.547h.153Zm0-3.095h-.153v-1.547h.153Zm0-3.095h-.153v-1.547h.153Zm0-3.094h-.153V577.36h.153Zm0-3.095h-.153v-1.547h.153Z" transform="translate(-1331.796 -486.435)" fill="#9aaab2"/>
          <rect id="Rectángulo_50332" data-name="Rectángulo 50332" width="0.153" height="0.765" transform="translate(240.468 196.137)" fill="#9aaab2"/>
          <path id="Trazado_209900" data-name="Trazado 209900" d="M1399.875,600.431a3.681,3.681,0,0,1-3.669,3.669h-14.938a3.669,3.669,0,1,1,0-7.338h14.938a3.681,3.681,0,0,1,3.669,3.669" transform="translate(-1166.904 -505.491)" fill="#20354d"/>
          <path id="Trazado_209901" data-name="Trazado 209901" d="M1387.709,593.946h-7.469a3.68,3.68,0,0,0-3.669,3.669h11.138Z" transform="translate(-1166.033 -503.105)" fill="#15d3ec"/>
          <path id="Trazado_209902" data-name="Trazado 209902" d="M1376.571,617.938a3.68,3.68,0,0,0,3.669,3.669h7.469v-3.669Z" transform="translate(-1166.033 -523.428)" fill="#6bcfc6"/>
          <path id="Trazado_209903" data-name="Trazado 209903" d="M1449.4,621.607h7.469a3.68,3.68,0,0,0,3.67-3.669H1449.4Z" transform="translate(-1227.721 -523.428)" fill="#b3b7b9"/>
          <path id="Trazado_209904" data-name="Trazado 209904" d="M1456.866,593.946H1449.4v3.669h11.138a3.68,3.68,0,0,0-3.67-3.669" transform="translate(-1227.721 -503.105)" fill="#eff4f6"/>
          <path id="Trazado_209905" data-name="Trazado 209905" d="M1400.5,602.016h-4.407a.537.537,0,0,1,0-1.073h4.407a.537.537,0,1,1,0,1.073" transform="translate(-1182.115 -509.031)" fill="#eff4f6"/>
          <path id="Trazado_209906" data-name="Trazado 209906" d="M1656.745,599.025a3.681,3.681,0,0,1-3.669,3.669h-14.938a3.669,3.669,0,1,1,0-7.338h14.938a3.682,3.682,0,0,1,3.669,3.669" transform="translate(-1384.487 -504.3)" fill="#20354d"/>
          <path id="Trazado_209907" data-name="Trazado 209907" d="M1644.579,592.54h-7.469a3.68,3.68,0,0,0-3.669,3.669h11.138Z" transform="translate(-1383.616 -501.914)" fill="#15d3ec"/>
          <path id="Trazado_209908" data-name="Trazado 209908" d="M1633.441,616.532a3.68,3.68,0,0,0,3.669,3.669h7.469v-3.669Z" transform="translate(-1383.616 -522.237)" fill="#6bcfc6"/>
          <path id="Trazado_209909" data-name="Trazado 209909" d="M1706.267,620.2h7.469a3.68,3.68,0,0,0,3.669-3.669h-11.138Z" transform="translate(-1445.304 -522.237)" fill="#b3b7b9"/>
          <path id="Trazado_209910" data-name="Trazado 209910" d="M1713.736,592.54h-7.469v3.669h11.138a3.68,3.68,0,0,0-3.669-3.669" transform="translate(-1445.304 -501.914)" fill="#eff4f6"/>
          <path id="Trazado_209911" data-name="Trazado 209911" d="M1657.37,600.61h-4.407a.537.537,0,0,1,0-1.074h4.407a.537.537,0,0,1,0,1.074" transform="translate(-1399.698 -507.841)" fill="#eff4f6"/>
          <path id="Trazado_209912" data-name="Trazado 209912" d="M1400.9,720.873a3.681,3.681,0,0,1-3.669,3.669H1382.3a3.669,3.669,0,1,1,0-7.338h14.938a3.681,3.681,0,0,1,3.669,3.669" transform="translate(-1167.774 -607.512)" fill="#20354d"/>
          <path id="Trazado_209913" data-name="Trazado 209913" d="M1388.737,714.388h-7.469a3.68,3.68,0,0,0-3.669,3.669h11.138Z" transform="translate(-1166.904 -605.127)" fill="#15d3ec"/>
          <path id="Trazado_209914" data-name="Trazado 209914" d="M1377.6,738.38a3.68,3.68,0,0,0,3.669,3.669h7.469V738.38Z" transform="translate(-1166.904 -625.449)" fill="#6bcfc6"/>
          <path id="Trazado_209915" data-name="Trazado 209915" d="M1450.425,742.049h7.469a3.68,3.68,0,0,0,3.669-3.669h-11.138Z" transform="translate(-1228.591 -625.449)" fill="#b3b7b9"/>
          <path id="Trazado_209916" data-name="Trazado 209916" d="M1457.894,714.388h-7.469v3.669h11.138a3.68,3.68,0,0,0-3.669-3.669" transform="translate(-1228.591 -605.127)" fill="#eff4f6"/>
          <path id="Trazado_209917" data-name="Trazado 209917" d="M1401.528,722.458h-4.407a.537.537,0,1,1,0-1.073h4.407a.537.537,0,1,1,0,1.073" transform="translate(-1182.985 -611.053)" fill="#eff4f6"/>
          <path id="Trazado_209918" data-name="Trazado 209918" d="M1657.773,719.467a3.681,3.681,0,0,1-3.669,3.669h-14.938a3.669,3.669,0,0,1,0-7.338H1654.1a3.682,3.682,0,0,1,3.669,3.669" transform="translate(-1385.358 -606.321)" fill="#20354d"/>
          <path id="Trazado_209919" data-name="Trazado 209919" d="M1645.607,712.982h-7.469a3.68,3.68,0,0,0-3.669,3.669h11.138Z" transform="translate(-1384.487 -603.936)" fill="#15d3ec"/>
          <path id="Trazado_209920" data-name="Trazado 209920" d="M1634.469,736.974a3.68,3.68,0,0,0,3.669,3.669h7.469v-3.669Z" transform="translate(-1384.487 -624.258)" fill="#6bcfc6"/>
          <path id="Trazado_209921" data-name="Trazado 209921" d="M1707.3,740.643h7.469a3.68,3.68,0,0,0,3.669-3.669H1707.3Z" transform="translate(-1446.175 -624.258)" fill="#b3b7b9"/>
          <path id="Trazado_209922" data-name="Trazado 209922" d="M1714.764,712.982H1707.3v3.669h11.138a3.68,3.68,0,0,0-3.669-3.669" transform="translate(-1446.175 -603.936)" fill="#eff4f6"/>
          <path id="Trazado_209923" data-name="Trazado 209923" d="M1658.4,721.052h-4.407a.537.537,0,1,1,0-1.073h4.407a.537.537,0,1,1,0,1.073" transform="translate(-1400.569 -609.862)" fill="#eff4f6"/>
          <path id="Trazado_209924" data-name="Trazado 209924" d="M1401.931,841.315a3.681,3.681,0,0,1-3.669,3.669h-14.938a3.669,3.669,0,0,1,0-7.338h14.938a3.681,3.681,0,0,1,3.669,3.669" transform="translate(-1168.645 -709.533)" fill="#20354d"/>
          <path id="Trazado_209925" data-name="Trazado 209925" d="M1389.765,834.83H1382.3a3.68,3.68,0,0,0-3.669,3.669h11.138Z" transform="translate(-1167.774 -707.148)" fill="#15d3ec"/>
          <path id="Trazado_209926" data-name="Trazado 209926" d="M1378.627,858.822a3.68,3.68,0,0,0,3.669,3.669h7.469v-3.669Z" transform="translate(-1167.774 -727.47)" fill="#6bcfc6"/>
          <path id="Trazado_209927" data-name="Trazado 209927" d="M1451.453,862.491h7.469a3.68,3.68,0,0,0,3.67-3.669h-11.138Z" transform="translate(-1229.462 -727.47)" fill="#b3b7b9"/>
          <path id="Trazado_209928" data-name="Trazado 209928" d="M1458.922,834.83h-7.469V838.5h11.138a3.68,3.68,0,0,0-3.67-3.669" transform="translate(-1229.462 -707.148)" fill="#eff4f6"/>
          <path id="Trazado_209929" data-name="Trazado 209929" d="M1402.557,842.9h-4.407a.537.537,0,0,1,0-1.074h4.407a.537.537,0,0,1,0,1.074" transform="translate(-1183.857 -713.074)" fill="#eff4f6"/>
          <path id="Trazado_209930" data-name="Trazado 209930" d="M1658.8,839.909a3.681,3.681,0,0,1-3.669,3.669h-14.938a3.669,3.669,0,0,1,0-7.338h14.938a3.682,3.682,0,0,1,3.669,3.669" transform="translate(-1386.229 -708.342)" fill="#20354d"/>
          <path id="Trazado_209931" data-name="Trazado 209931" d="M1646.635,833.424h-7.469a3.68,3.68,0,0,0-3.669,3.669h11.138Z" transform="translate(-1385.358 -705.957)" fill="#15d3ec"/>
          <path id="Trazado_209932" data-name="Trazado 209932" d="M1635.5,857.416a3.68,3.68,0,0,0,3.669,3.669h7.469v-3.669Z" transform="translate(-1385.358 -726.279)" fill="#6bcfc6"/>
          <path id="Trazado_209933" data-name="Trazado 209933" d="M1708.323,861.085h7.469a3.68,3.68,0,0,0,3.669-3.669h-11.138Z" transform="translate(-1447.045 -726.279)" fill="#b3b7b9"/>
          <path id="Trazado_209934" data-name="Trazado 209934" d="M1715.792,833.424h-7.469v3.669h11.138a3.68,3.68,0,0,0-3.669-3.669" transform="translate(-1447.045 -705.957)" fill="#eff4f6"/>
          <path id="Trazado_209935" data-name="Trazado 209935" d="M1659.426,841.493h-4.407a.537.537,0,0,1,0-1.074h4.407a.537.537,0,1,1,0,1.074" transform="translate(-1401.439 -711.883)" fill="#eff4f6"/>
          <path id="Trazado_209936" data-name="Trazado 209936" d="M1402.959,961.757a3.681,3.681,0,0,1-3.669,3.669h-14.938a3.669,3.669,0,0,1,0-7.338h14.938a3.681,3.681,0,0,1,3.669,3.669" transform="translate(-1169.516 -811.554)" fill="#20354d"/>
          <path id="Trazado_209937" data-name="Trazado 209937" d="M1390.793,955.272h-7.469a3.68,3.68,0,0,0-3.669,3.669h11.138Z" transform="translate(-1168.645 -809.169)" fill="#15d3ec"/>
          <path id="Trazado_209938" data-name="Trazado 209938" d="M1379.655,979.264a3.68,3.68,0,0,0,3.669,3.669h7.469v-3.669Z" transform="translate(-1168.645 -829.491)" fill="#6bcfc6"/>
          <path id="Trazado_209939" data-name="Trazado 209939" d="M1452.481,982.933h7.469a3.68,3.68,0,0,0,3.669-3.669h-11.138Z" transform="translate(-1230.333 -829.491)" fill="#b3b7b9"/>
          <path id="Trazado_209940" data-name="Trazado 209940" d="M1459.95,955.272h-7.469v3.669h11.138a3.68,3.68,0,0,0-3.669-3.669" transform="translate(-1230.333 -809.169)" fill="#eff4f6"/>
          <path id="Trazado_209941" data-name="Trazado 209941" d="M1403.585,963.341h-4.407a.538.538,0,0,1-.537-.536h0a.538.538,0,0,1,.537-.537h4.407a.539.539,0,0,1,.537.537h0a.538.538,0,0,1-.537.536" transform="translate(-1184.727 -815.095)" fill="#eff4f6"/>
          <path id="Trazado_209942" data-name="Trazado 209942" d="M1659.828,960.351a3.681,3.681,0,0,1-3.669,3.669h-14.938a3.669,3.669,0,0,1,0-7.338h14.938a3.681,3.681,0,0,1,3.669,3.669" transform="translate(-1387.098 -810.363)" fill="#20354d"/>
          <path id="Trazado_209943" data-name="Trazado 209943" d="M1647.662,953.866h-7.469a3.68,3.68,0,0,0-3.669,3.669h11.138Z" transform="translate(-1386.228 -807.978)" fill="#15d3ec"/>
          <path id="Trazado_209944" data-name="Trazado 209944" d="M1636.525,977.858a3.68,3.68,0,0,0,3.669,3.669h7.469v-3.669Z" transform="translate(-1386.229 -828.3)" fill="#6bcfc6"/>
          <path id="Trazado_209945" data-name="Trazado 209945" d="M1709.35,981.527h7.469a3.68,3.68,0,0,0,3.67-3.669H1709.35Z" transform="translate(-1447.915 -828.3)" fill="#b3b7b9"/>
          <path id="Trazado_209946" data-name="Trazado 209946" d="M1716.82,953.866h-7.469v3.669h11.138a3.68,3.68,0,0,0-3.669-3.669" transform="translate(-1447.916 -807.978)" fill="#eff4f6"/>
          <path id="Trazado_209947" data-name="Trazado 209947" d="M1660.454,961.936h-4.407a.537.537,0,0,1,0-1.074h4.407a.537.537,0,0,1,0,1.074" transform="translate(-1402.31 -813.904)" fill="#eff4f6"/>
          <path id="Trazado_209948" data-name="Trazado 209948" d="M1403.986,1082.2a3.681,3.681,0,0,1-3.669,3.669h-14.938a3.669,3.669,0,1,1,0-7.338h14.938a3.681,3.681,0,0,1,3.669,3.669" transform="translate(-1170.386 -913.576)" fill="#20354d"/>
          <path id="Trazado_209949" data-name="Trazado 209949" d="M1391.821,1075.715h-7.469a3.68,3.68,0,0,0-3.669,3.669h11.138Z" transform="translate(-1169.516 -911.191)" fill="#15d3ec"/>
          <path id="Trazado_209950" data-name="Trazado 209950" d="M1380.683,1099.707a3.68,3.68,0,0,0,3.669,3.669h7.469v-3.669Z" transform="translate(-1169.516 -931.513)" fill="#6bcfc6"/>
          <path id="Trazado_209951" data-name="Trazado 209951" d="M1453.509,1103.375h7.469a3.68,3.68,0,0,0,3.669-3.669h-11.138Z" transform="translate(-1231.204 -931.513)" fill="#b3b7b9"/>
          <path id="Trazado_209952" data-name="Trazado 209952" d="M1460.978,1075.715h-7.469v3.669h11.138a3.68,3.68,0,0,0-3.669-3.669" transform="translate(-1231.204 -911.191)" fill="#eff4f6"/>
          <path id="Trazado_209953" data-name="Trazado 209953" d="M1404.612,1083.785H1400.2a.537.537,0,0,1,0-1.073h4.407a.537.537,0,0,1,0,1.073" transform="translate(-1185.597 -917.117)" fill="#eff4f6"/>
          <path id="Trazado_209954" data-name="Trazado 209954" d="M1660.856,1080.794a3.681,3.681,0,0,1-3.669,3.669h-14.938a3.669,3.669,0,1,1,0-7.338h14.938a3.681,3.681,0,0,1,3.669,3.669" transform="translate(-1387.969 -912.385)" fill="#20354d"/>
          <path id="Trazado_209955" data-name="Trazado 209955" d="M1648.69,1074.309h-7.469a3.68,3.68,0,0,0-3.669,3.669h11.138Z" transform="translate(-1387.098 -910)" fill="#15d3ec"/>
          <path id="Trazado_209956" data-name="Trazado 209956" d="M1637.552,1098.3a3.68,3.68,0,0,0,3.669,3.669h7.469V1098.3Z" transform="translate(-1387.098 -930.322)" fill="#6bcfc6"/>
          <path id="Trazado_209957" data-name="Trazado 209957" d="M1710.378,1101.969h7.469a3.68,3.68,0,0,0,3.669-3.669h-11.138Z" transform="translate(-1448.786 -930.322)" fill="#b3b7b9"/>
          <path id="Trazado_209958" data-name="Trazado 209958" d="M1717.848,1074.309h-7.469v3.669h11.138a3.68,3.68,0,0,0-3.669-3.669" transform="translate(-1448.787 -910)" fill="#eff4f6"/>
          <path id="Trazado_209959" data-name="Trazado 209959" d="M1661.482,1082.377h-4.407a.537.537,0,0,1,0-1.073h4.407a.537.537,0,1,1,0,1.073" transform="translate(-1403.181 -915.925)" fill="#eff4f6"/>
          <path id="Trazado_209960" data-name="Trazado 209960" d="M1405.014,1202.642a3.681,3.681,0,0,1-3.669,3.669h-14.938a3.669,3.669,0,1,1,0-7.338h14.938a3.681,3.681,0,0,1,3.669,3.669" transform="translate(-1171.257 -1015.597)" fill="#20354d"/>
          <path id="Trazado_209961" data-name="Trazado 209961" d="M1392.848,1196.157h-7.469a3.68,3.68,0,0,0-3.669,3.669h11.138Z" transform="translate(-1170.386 -1013.212)" fill="#15d3ec"/>
          <path id="Trazado_209962" data-name="Trazado 209962" d="M1381.71,1220.149a3.68,3.68,0,0,0,3.669,3.669h7.469v-3.669Z" transform="translate(-1170.386 -1033.535)" fill="#6bcfc6"/>
          <path id="Trazado_209963" data-name="Trazado 209963" d="M1454.536,1223.819H1462a3.68,3.68,0,0,0,3.669-3.669h-11.138Z" transform="translate(-1232.073 -1033.535)" fill="#b3b7b9"/>
          <path id="Trazado_209964" data-name="Trazado 209964" d="M1462.006,1196.157h-7.469v3.669h11.138a3.68,3.68,0,0,0-3.67-3.669" transform="translate(-1232.074 -1013.212)" fill="#eff4f6"/>
          <path id="Trazado_209965" data-name="Trazado 209965" d="M1405.64,1204.227h-4.407a.537.537,0,0,1,0-1.074h4.407a.537.537,0,0,1,0,1.074" transform="translate(-1186.468 -1019.138)" fill="#eff4f6"/>
          <path id="Trazado_209966" data-name="Trazado 209966" d="M1661.884,1201.236a3.681,3.681,0,0,1-3.669,3.669h-14.938a3.669,3.669,0,0,1,0-7.338h14.938a3.681,3.681,0,0,1,3.669,3.669" transform="translate(-1388.84 -1014.406)" fill="#20354d"/>
          <path id="Trazado_209967" data-name="Trazado 209967" d="M1649.718,1194.751h-7.469a3.68,3.68,0,0,0-3.669,3.669h11.138Z" transform="translate(-1387.969 -1012.021)" fill="#15d3ec"/>
          <path id="Trazado_209968" data-name="Trazado 209968" d="M1638.58,1218.743a3.68,3.68,0,0,0,3.669,3.669h7.469v-3.669Z" transform="translate(-1387.969 -1032.344)" fill="#6bcfc6"/>
          <path id="Trazado_209969" data-name="Trazado 209969" d="M1711.406,1222.412h7.469a3.68,3.68,0,0,0,3.669-3.669h-11.138Z" transform="translate(-1449.657 -1032.344)" fill="#b3b7b9"/>
          <path id="Trazado_209970" data-name="Trazado 209970" d="M1718.875,1194.751h-7.469v3.669h11.138a3.68,3.68,0,0,0-3.669-3.669" transform="translate(-1449.657 -1012.021)" fill="#eff4f6"/>
          <path id="Trazado_209971" data-name="Trazado 209971" d="M1662.51,1202.821H1658.1a.537.537,0,0,1,0-1.074h4.407a.537.537,0,1,1,0,1.074" transform="translate(-1404.052 -1017.947)" fill="#eff4f6"/>
        </g>
      </g>
      <g id="Grupo_173117" data-name="Grupo 173117" transform="translate(0 -0.001)">
        <g id="Grupo_173116" data-name="Grupo 173116" clip-path="url(#clip-path-2)">
          <path id="Trazado_209972" data-name="Trazado 209972" d="M732.754,106.331v21.542a1.142,1.142,0,1,0,2.284,0V106.331Z" transform="translate(-620.684 -90.068)" fill="#9c4464"/>
          <path id="Trazado_209973" data-name="Trazado 209973" d="M766.535,106.331v21.542a1.142,1.142,0,1,0,2.284,0V106.331Z" transform="translate(-649.298 -90.068)" fill="#9c4464"/>
          <path id="Trazado_209974" data-name="Trazado 209974" d="M800.316,106.331v21.542a1.142,1.142,0,1,0,2.284,0V106.331Z" transform="translate(-677.912 -90.068)" fill="#9c4464"/>
          <path id="Trazado_209975" data-name="Trazado 209975" d="M346.646,297.577H322.708v15.076H309.564c-5.2,0-9.447,4.549-9.447,10.108v12.208h46.529Z" transform="translate(-254.216 -252.064)" fill="#ff9d00"/>
          <path id="Trazado_209976" data-name="Trazado 209976" d="M604.342,1144.6h37.083c5.2,0,9.446-4.549,9.446-10.106v-12.2H604.342Z" transform="translate(-511.912 -950.648)" fill="#ff9d00"/>
          <path id="Trazado_209977" data-name="Trazado 209977" d="M300.117,1122.3v12.2c0,5.558,4.252,10.106,9.447,10.106h37.082V1122.3Z" transform="translate(-254.216 -950.648)" fill="#e0738f"/>
          <rect id="Rectángulo_50334" data-name="Rectángulo 50334" width="23.939" height="0.017" transform="translate(92.431 45.513)" fill="#c7667f"/>
          <path id="Trazado_209978" data-name="Trazado 209978" d="M637.863,106.331H604.347v29.25h38.4V112a5.728,5.728,0,0,0-4.887-5.664" transform="translate(-511.916 -90.068)" fill="#ff9d00"/>
          <path id="Trazado_209979" data-name="Trazado 209979" d="M358.14,106.331a5.727,5.727,0,0,0-4.881,5.664v23.586h14.464V130.1h23.938v-23.77Z" transform="translate(-299.23 -90.068)" fill="#ff9d00"/>
          <path id="Trazado_209980" data-name="Trazado 209980" d="M604.347,297.577h0Z" transform="translate(-511.916 -252.064)" fill="#b24e72"/>
          <rect id="Rectángulo_50335" data-name="Rectángulo 50335" width="23.938" height="5.48" transform="translate(68.492 40.033)" fill="#ff9d00"/>
          <path id="Trazado_209981" data-name="Trazado 209981" d="M346.646,578.868H314.951a2.686,2.686,0,0,1,0-5.371h31.695V564.23H325.365a7.113,7.113,0,1,1,0-14.226h21.281v-7.947H300.117V630.8h46.529Z" transform="translate(-254.216 -459.153)" fill="#d6ebf1"/>
          <path id="Trazado_209982" data-name="Trazado 209982" d="M604.342,542.057V550h21.283a7.113,7.113,0,1,1,0,14.226H604.342V573.5h31.695a2.686,2.686,0,0,1,0,5.371H604.342V630.8h46.529V542.057Z" transform="translate(-511.912 -459.153)" fill="#a9babe"/>
          <path id="Trazado_209983" data-name="Trazado 209983" d="M418.691,601.13h0a7.134,7.134,0,0,0,7.113,7.113h21.281V594.017H425.8a7.134,7.134,0,0,0-7.113,7.113" transform="translate(-354.655 -503.166)" fill="#fefefe"/>
          <path id="Trazado_209984" data-name="Trazado 209984" d="M625.625,608.243a7.113,7.113,0,1,0,0-14.226H604.342v14.226Z" transform="translate(-511.912 -503.166)" fill="#d4d9db"/>
          <path id="Trazado_209985" data-name="Trazado 209985" d="M379.551,750.31h0A2.693,2.693,0,0,0,382.237,753h31.695v-5.371H382.237a2.694,2.694,0,0,0-2.686,2.685" transform="translate(-321.501 -633.28)" fill="#eff4f6"/>
          <path id="Trazado_209986" data-name="Trazado 209986" d="M636.037,753a2.686,2.686,0,1,0,0-5.371H604.342V753Z" transform="translate(-511.912 -633.28)" fill="#d4d9db"/>
          <path id="Trazado_209987" data-name="Trazado 209987" d="M428.725,106.331v21.542a1.142,1.142,0,1,0,2.284,0V106.331Z" transform="translate(-363.154 -90.068)" fill="#9c4464"/>
          <path id="Trazado_209988" data-name="Trazado 209988" d="M462.506,106.331v21.542a1.142,1.142,0,1,0,2.284,0V106.331Z" transform="translate(-391.769 -90.068)" fill="#9c4464"/>
          <path id="Trazado_209989" data-name="Trazado 209989" d="M496.287,106.331v21.542a1.142,1.142,0,1,0,2.284,0V106.331Z" transform="translate(-420.383 -90.068)" fill="#9c4464"/>
          <path id="Trazado_209990" data-name="Trazado 209990" d="M530.068,106.331v21.542a1.142,1.142,0,1,0,2.284,0V106.331Z" transform="translate(-448.997 -90.068)" fill="#9c4464"/>
          <path id="Trazado_209991" data-name="Trazado 209991" d="M563.849,106.331v21.542a1.142,1.142,0,1,0,2.284,0V106.331Z" transform="translate(-477.612 -90.068)" fill="#9c4464"/>
          <path id="Trazado_209992" data-name="Trazado 209992" d="M597.63,106.331v21.542a1.142,1.142,0,1,0,2.284,0V106.331Z" transform="translate(-506.226 -90.068)" fill="#9c4464"/>
          <path id="Trazado_209993" data-name="Trazado 209993" d="M631.411,106.331v21.542a1.142,1.142,0,1,0,2.284,0V106.331Z" transform="translate(-534.841 -90.068)" fill="#9c4464"/>
          <path id="Trazado_209994" data-name="Trazado 209994" d="M665.192,106.331v21.542a1.142,1.142,0,1,0,2.284,0V106.331Z" transform="translate(-563.455 -90.068)" fill="#9c4464"/>
          <path id="Trazado_209995" data-name="Trazado 209995" d="M698.973,106.331v21.542a1.142,1.142,0,1,0,2.284,0V106.331Z" transform="translate(-592.069 -90.068)" fill="#9c4464"/>
          <path id="Trazado_209996" data-name="Trazado 209996" d="M732.754,106.331v21.542a1.142,1.142,0,1,0,2.284,0V106.331Z" transform="translate(-620.684 -90.068)" fill="#9c4464"/>
          <path id="Trazado_209997" data-name="Trazado 209997" d="M766.535,106.331v21.542a1.142,1.142,0,1,0,2.284,0V106.331Z" transform="translate(-649.298 -90.068)" fill="#9c4464"/>
          <path id="Trazado_209998" data-name="Trazado 209998" d="M800.316,106.331v21.542a1.142,1.142,0,1,0,2.284,0V106.331Z" transform="translate(-677.912 -90.068)" fill="#9c4464"/>
          <path id="Trazado_209999" data-name="Trazado 209999" d="M396.386,106.331v21.542a1.142,1.142,0,1,0,2.284,0V106.331Z" transform="translate(-335.761 -90.068)" fill="#9c4464"/>
          <path id="Trazado_210000" data-name="Trazado 210000" d="M518.294,322.854v12.208H471.766V305.576H447.827v-7.889H495.7v15.059h13.144c5.2,0,9.446,4.549,9.446,10.108" transform="translate(-379.335 -252.157)" fill="#d28407"/>
          <rect id="Rectángulo_50336" data-name="Rectángulo 50336" width="47.878" height="2.551" transform="translate(68.492 45.53)" fill="#b15b71"/>
        </g>
      </g>
      <g id="Grupo_173119" data-name="Grupo 173119" transform="translate(0 -0.001)">
        <g id="Grupo_173118" data-name="Grupo 173118" clip-path="url(#clip-path-2)">
          <path id="Trazado_210001" data-name="Trazado 210001" d="M827.122,272.51v18.951H810.456a3.172,3.172,0,0,0-3.157,3.483l10.356,104.932a2.924,2.924,0,0,0,2.909,2.637h6.558v11.5H814.483a2.762,2.762,0,0,1-2.748-2.49L798.74,279.851a6.684,6.684,0,0,1,6.653-7.341Z" transform="translate(-676.55 -230.831)" fill="#ccdbe4"/>
          <path id="Trazado_210002" data-name="Trazado 210002" d="M835.912,295.477l10.356,104.932a2.924,2.924,0,0,0,2.909,2.637H853.6a2.914,2.914,0,0,0,.743.1h1.392v11.4h-8.2a2.759,2.759,0,0,1-2.025-2.394L832.52,280.481a6.684,6.684,0,0,1,6.651-7.341h16.564v18.855H839.069a3.172,3.172,0,0,0-3.157,3.483" transform="translate(-705.163 -231.365)" fill="#f6f6f6"/>
          <path id="Trazado_210003" data-name="Trazado 210003" d="M1012.873,279.851,999.879,411.521a2.762,2.762,0,0,1-2.748,2.49H984.493v-11.5h6.557a2.924,2.924,0,0,0,2.909-2.637l10.356-104.932a3.172,3.172,0,0,0-3.157-3.483H984.493V272.51h21.727a6.684,6.684,0,0,1,6.653,7.341" transform="translate(-833.921 -230.831)" fill="#90a1ab"/>
          <path id="Trazado_210004" data-name="Trazado 210004" d="M1008.12,279.732,995.126,411.4a2.76,2.76,0,0,1-2.747,2.49h-7.828a.058.058,0,0,1-.058-.058V402.57a.058.058,0,0,1,.058-.058h6.5a2.924,2.924,0,0,0,2.909-2.637l10.356-104.932a3.172,3.172,0,0,0-3.157-3.483h-3.884l-.014,0a3.14,3.14,0,0,0-.856-.117H984.551a.058.058,0,0,1-.058-.058V272.568a.058.058,0,0,1,.058-.058h17.99a1.745,1.745,0,0,1,.375.038,6.686,6.686,0,0,1,5.2,7.184" transform="translate(-833.921 -230.831)" fill="#e8e8e8"/>
          <path id="Trazado_210005" data-name="Trazado 210005" d="M907.929,1206.789h6.914v-2.971h4.8v-6.128H907.929Z" transform="translate(-769.067 -1014.51)" fill="#d6ebf1"/>
          <path id="Trazado_210006" data-name="Trazado 210006" d="M989.284,1203.818v2.971H996.2v-9.1H984.489v6.128Z" transform="translate(-833.917 -1014.51)" fill="#bed1d6"/>
          <path id="Trazado_210007" data-name="Trazado 210007" d="M984.489,1257.18v3.787H996.2v-3.787H984.489Z" transform="translate(-833.917 -1064.902)" fill="#a6b7bb"/>
          <path id="Trazado_210008" data-name="Trazado 210008" d="M914.843,1257.18h-6.914v3.787h11.709v-3.787Z" transform="translate(-769.067 -1064.902)" fill="#bed1d6"/>
          <rect id="Rectángulo_50338" data-name="Rectángulo 50338" width="4.796" height="2.971" transform="translate(150.572 189.307)" fill="#96a5a9"/>
          <rect id="Rectángulo_50339" data-name="Rectángulo 50339" width="4.796" height="2.971" transform="translate(145.776 189.307)" fill="#96a5a9"/>
          <rect id="Rectángulo_50340" data-name="Rectángulo 50340" width="56.717" height="7.306" transform="translate(122.157 39.836)" fill="#808f98"/>
          <path id="Trazado_210009" data-name="Trazado 210009" d="M855.424,284.344V288H798.707" transform="translate(-676.55 -240.856)" fill="#727f87"/>
          <path id="Trazado_210010" data-name="Trazado 210010" d="M865.506,417.439a.913.913,0,0,1,0-1.827h9.117v-7.155H866.03a3.349,3.349,0,0,1,0-6.7h8.593v-5.34H857.957A3.172,3.172,0,0,0,854.8,399.9l10.355,104.931a2.924,2.924,0,0,0,2.909,2.636h6.557v-90.03Z" transform="translate(-724.051 -335.788)" fill="#727997"/>
          <path id="Trazado_210011" data-name="Trazado 210011" d="M1001.155,396.418H984.489v5.34h8.481a3.349,3.349,0,0,1,0,6.7h-8.481v7.155h9.005a.913.913,0,0,1,0,1.827h-9.005v90.03h6.557a2.924,2.924,0,0,0,2.91-2.636L1004.311,399.9a3.171,3.171,0,0,0-3.156-3.483" transform="translate(-833.917 -335.788)" fill="#727997"/>
          <path id="Trazado_210012" data-name="Trazado 210012" d="M906.409,434.683a3.359,3.359,0,0,0,3.349,3.349h8.593v-6.7h-8.593a3.359,3.359,0,0,0-3.349,3.349" transform="translate(-767.779 -365.364)" fill="#ccd2d6"/>
          <path id="Trazado_210013" data-name="Trazado 210013" d="M992.97,438.033a3.349,3.349,0,0,0,0-6.7h-8.481v6.7Z" transform="translate(-833.917 -365.364)" fill="#b5bbbe"/>
          <path id="Trazado_210014" data-name="Trazado 210014" d="M918.909,522.827a.916.916,0,0,0,.913.914h9.117v-1.827h-9.117a.916.916,0,0,0-.913.913" transform="translate(-778.367 -442.09)" fill="#ccd2d6"/>
          <path id="Trazado_210015" data-name="Trazado 210015" d="M993.494,523.741a.913.913,0,0,0,0-1.827h-9.005v1.827Z" transform="translate(-833.917 -442.09)" fill="#b5bbbe"/>
        </g>
      </g>
      <g id="Grupo_173121" data-name="Grupo 173121" transform="translate(0 -0.001)">
        <g id="Grupo_173120" data-name="Grupo 173120" clip-path="url(#clip-path-2)">
          <path id="Trazado_210016" data-name="Trazado 210016" d="M1027.262,1202.107v12.6H1005.9a5.423,5.423,0,0,1-5.407-5.407v-7.194Z" transform="translate(-847.477 -1018.252)" fill="#7e5ee3"/>
          <path id="Trazado_210017" data-name="Trazado 210017" d="M1053.3,1202.107v12.6h-16.657a5.423,5.423,0,0,1-5.407-5.407v-7.194Z" transform="translate(-873.516 -1018.252)" fill="#7e5ee3"/>
          <path id="Trazado_210018" data-name="Trazado 210018" d="M1202.262,1202.107v7.194a5.423,5.423,0,0,1-5.406,5.407H1175.5v-12.6Z" transform="translate(-995.712 -1018.252)" fill="#7e5ee3"/>
          <path id="Trazado_210019" data-name="Trazado 210019" d="M1197.752,1202.107v7.17a5.423,5.423,0,0,1-5.406,5.407H1175.5v-12.577Z" transform="translate(-995.712 -1018.252)" fill="#6241c9"/>
          <path id="Trazado_210020" data-name="Trazado 210020" d="M1202.262,835.554v10.7H1175.5V830.147h21.359a5.423,5.423,0,0,1,5.406,5.407" transform="translate(-995.712 -703.181)" fill="#7e5ee3"/>
          <path id="Trazado_210021" data-name="Trazado 210021" d="M1197.562,835.554v10.7H1175.5V830.147h16.659a5.423,5.423,0,0,1,5.407,5.407" transform="translate(-995.712 -703.181)" fill="#6241c9"/>
          <path id="Trazado_210022" data-name="Trazado 210022" d="M1027.262,830.147v16.108H1000.5v-10.7a5.423,5.423,0,0,1,5.407-5.407Z" transform="translate(-847.477 -703.181)" fill="#7e5ee3"/>
          <path id="Trazado_210023" data-name="Trazado 210023" d="M1053.3,830.147v16.108h-22.064v-10.7a5.423,5.423,0,0,1,5.407-5.407Z" transform="translate(-873.516 -703.181)" fill="#7e5ee3"/>
          <path id="Trazado_210024" data-name="Trazado 210024" d="M1202.262,935.467v40.781H1175.5V959.06h16.613a.752.752,0,1,0,0-1.5H1175.5V950.8h7.563a1.31,1.31,0,0,0,0-2.62H1175.5V944h12.286a1.962,1.962,0,0,0,1.958-1.956v-1.4a1.963,1.963,0,0,0-1.958-1.956H1175.5v-3.216Z" transform="translate(-995.712 -792.393)" fill="#2a4564"/>
          <path id="Trazado_210025" data-name="Trazado 210025" d="M1197.562,935.467v40.781H1175.5V959.06h11.913a.752.752,0,0,0,0-1.5H1175.5V950.8h2.863a1.31,1.31,0,0,0,0-2.62H1175.5V944h7.586a1.961,1.961,0,0,0,1.956-1.956v-1.4a1.962,1.962,0,0,0-1.956-1.956H1175.5v-3.216Z" transform="translate(-995.712 -792.393)" fill="#315175"/>
          <path id="Trazado_210026" data-name="Trazado 210026" d="M1013.02,940.64v1.4a1.962,1.962,0,0,0,1.956,1.956h12.286v4.177H1019.7a1.31,1.31,0,1,0,0,2.62h7.562v6.76h-16.611a.752.752,0,1,0,0,1.5h16.611v17.188H1000.5V935.467h26.765v3.216h-12.286a1.963,1.963,0,0,0-1.956,1.956" transform="translate(-847.477 -792.393)" fill="#527397"/>
          <path id="Trazado_210027" data-name="Trazado 210027" d="M1043.76,940.64v1.4a1.961,1.961,0,0,0,1.956,1.956h7.584v4.177h-2.861a1.31,1.31,0,0,0,0,2.62h2.861v6.76H1041.39a.752.752,0,0,0,0,1.5H1053.3v17.188h-22.064V935.467H1053.3v3.216h-7.584a1.962,1.962,0,0,0-1.956,1.956" transform="translate(-873.516 -792.393)" fill="#395f88"/>
          <path id="Trazado_210028" data-name="Trazado 210028" d="M1186.759,765.037v.307h3.7v-8.572a1.649,1.649,0,0,0-1.649-1.649h-.3v7.76a.688.688,0,0,1-1.377,0v-7.76h-1.352v7.76a.688.688,0,1,1-1.376,0v-7.76h-1.352v7.76a.688.688,0,1,1-1.376,0v-7.76h-1.352v7.76a.688.688,0,0,1-1.376,0v-7.76H1177.6v7.76a.688.688,0,0,1-1.376,0v-7.76h-.72v9.914Z" transform="translate(-995.715 -639.631)" fill="#315175"/>
          <path id="Trazado_210029" data-name="Trazado 210029" d="M1092.638,765.037v-9.914h-.632v7.76a.688.688,0,0,1-1.376,0v-7.76h-1.352v7.76a.688.688,0,1,1-1.376,0v-7.76h-1.352v7.76a.688.688,0,0,1-1.376,0v-7.76h-1.352v7.76a.688.688,0,0,1-1.376,0v-7.76h-1.351v7.76a.688.688,0,1,1-1.376,0v-7.76h-.391a1.649,1.649,0,0,0-1.649,1.649v8.572h3.7v-.307Z" transform="translate(-912.852 -639.631)" fill="#395f88"/>
          <path id="Trazado_210030" data-name="Trazado 210030" d="M1092.394,755.095h-1.376s0,0,0,0h1.376s0,0,0,0" transform="translate(-924.153 -639.608)" fill="#1d3044"/>
          <path id="Trazado_210031" data-name="Trazado 210031" d="M1091.017,762.883a.688.688,0,1,0,1.376,0v-7.76h-1.376Z" transform="translate(-924.153 -639.631)" fill="#1d3044"/>
          <path id="Trazado_210032" data-name="Trazado 210032" d="M1110.224,755.095h-1.376s0,0,0,0h1.376s0,0,0,0" transform="translate(-939.256 -639.608)" fill="#1d3044"/>
          <path id="Trazado_210033" data-name="Trazado 210033" d="M1108.848,762.883a.688.688,0,1,0,1.376,0v-7.76h-1.376Z" transform="translate(-939.256 -639.631)" fill="#1d3044"/>
          <path id="Trazado_210034" data-name="Trazado 210034" d="M1128.064,755.095h-1.376s0,0,0,0h1.376s0,0,0,0" transform="translate(-954.368 -639.608)" fill="#1d3044"/>
          <path id="Trazado_210035" data-name="Trazado 210035" d="M1126.687,762.883a.688.688,0,0,0,1.376,0v-7.76h-1.376Z" transform="translate(-954.367 -639.631)" fill="#1d3044"/>
          <path id="Trazado_210036" data-name="Trazado 210036" d="M1145.9,755.095h-1.376s0,0,0,0h1.376s0,0,0,0" transform="translate(-969.479 -639.608)" fill="#1d3044"/>
          <path id="Trazado_210037" data-name="Trazado 210037" d="M1144.527,762.883a.688.688,0,1,0,1.376,0v-7.76h-1.376Z" transform="translate(-969.479 -639.631)" fill="#1d3044"/>
          <path id="Trazado_210038" data-name="Trazado 210038" d="M1163.743,755.095h-1.376s0,0,0,0h1.376s0,0,0,0" transform="translate(-984.59 -639.608)" fill="#1d3044"/>
          <path id="Trazado_210039" data-name="Trazado 210039" d="M1162.367,762.883a.688.688,0,1,0,1.376,0v-7.76h-1.376Z" transform="translate(-984.59 -639.631)" fill="#1d3044"/>
          <path id="Trazado_210040" data-name="Trazado 210040" d="M1181.583,755.095h-1.375s0,0,0,0h1.376s0,0,0,0" transform="translate(-999.702 -639.608)" fill="#1d3044"/>
          <path id="Trazado_210041" data-name="Trazado 210041" d="M1180.207,762.883a.688.688,0,0,0,1.376,0v-7.76h-1.376Z" transform="translate(-999.702 -639.631)" fill="#1d3044"/>
          <path id="Trazado_210042" data-name="Trazado 210042" d="M1199.413,755.095h-1.376s0,0,0,0h1.376s0,0,0,0" transform="translate(-1014.805 -639.608)" fill="#1d3044"/>
          <path id="Trazado_210043" data-name="Trazado 210043" d="M1198.037,762.883a.688.688,0,1,0,1.376,0v-7.76h-1.376Z" transform="translate(-1014.805 -639.631)" fill="#1d3044"/>
          <path id="Trazado_210044" data-name="Trazado 210044" d="M1217.253,755.095h-1.376s0,0,0,0h1.376s0,0,0,0" transform="translate(-1029.916 -639.608)" fill="#1d3044"/>
          <path id="Trazado_210045" data-name="Trazado 210045" d="M1215.877,762.883a.688.688,0,0,0,1.376,0v-7.76h-1.376Z" transform="translate(-1029.916 -639.631)" fill="#1d3044"/>
          <path id="Trazado_210046" data-name="Trazado 210046" d="M1235.093,755.095h-1.375s0,0,0,0h1.377s0,0,0,0" transform="translate(-1045.028 -639.608)" fill="#1d3044"/>
          <path id="Trazado_210047" data-name="Trazado 210047" d="M1233.717,762.883a.688.688,0,0,0,1.377,0v-7.76h-1.377Z" transform="translate(-1045.028 -639.631)" fill="#1d3044"/>
          <path id="Trazado_210048" data-name="Trazado 210048" d="M1252.933,755.095h-1.376s0,0,0,0h1.376s0,0,0,0" transform="translate(-1060.139 -639.608)" fill="#1d3044"/>
          <path id="Trazado_210049" data-name="Trazado 210049" d="M1251.558,762.883a.688.688,0,1,0,1.376,0v-7.76h-1.376Z" transform="translate(-1060.14 -639.631)" fill="#1d3044"/>
          <path id="Trazado_210050" data-name="Trazado 210050" d="M1187.788,961.813a1.962,1.962,0,0,0,1.956-1.956v-1.4a1.962,1.962,0,0,0-1.956-1.956H1175.5v5.317Z" transform="translate(-995.716 -810.206)" fill="#cbcfd2"/>
          <path id="Trazado_210051" data-name="Trazado 210051" d="M1082.381,958.452v1.4a1.962,1.962,0,0,0,1.956,1.956h12.286V956.5h-12.286a1.962,1.962,0,0,0-1.956,1.956" transform="translate(-916.837 -810.206)" fill="#edf2f5"/>
          <path id="Trazado_210052" data-name="Trazado 210052" d="M1183.064,1021.184a1.31,1.31,0,0,0,0-2.62H1175.5v2.62Z" transform="translate(-995.716 -862.781)" fill="#cbcfd2"/>
          <path id="Trazado_210053" data-name="Trazado 210053" d="M1117.492,1019.874h0a1.314,1.314,0,0,0,1.31,1.31h7.562v-2.62H1118.8a1.314,1.314,0,0,0-1.31,1.31" transform="translate(-946.578 -862.781)" fill="#edf2f5"/>
          <path id="Trazado_210054" data-name="Trazado 210054" d="M1192.114,1081.4a.752.752,0,1,0,0-1.5H1175.5v1.5Z" transform="translate(-995.716 -914.735)" fill="#cbcfd2"/>
          <path id="Trazado_210055" data-name="Trazado 210055" d="M1061.969,1080.65a.754.754,0,0,0,.752.752h16.613v-1.5h-16.613a.754.754,0,0,0-.752.752" transform="translate(-899.547 -914.734)" fill="#edf2f5"/>
          <rect id="Rectángulo_50342" data-name="Rectángulo 50342" width="11.257" height="1.253" transform="translate(179.786 125.713)" fill="#233a53"/>
          <rect id="Rectángulo_50343" data-name="Rectángulo 50343" width="11.257" height="1.253" transform="translate(168.528 125.713)" fill="#233a53"/>
          <rect id="Rectángulo_50344" data-name="Rectángulo 50344" width="11.257" height="0.307" transform="translate(179.786 125.406)" fill="#294461"/>
          <rect id="Rectángulo_50345" data-name="Rectángulo 50345" width="11.257" height="0.307" transform="translate(168.528 125.406)" fill="#294461"/>
        </g>
      </g>
      <g id="Grupo_173123" data-name="Grupo 173123" transform="translate(0 -0.001)">
        <g id="Grupo_173122" data-name="Grupo 173122" clip-path="url(#clip-path-2)">
          <path id="Trazado_210056" data-name="Trazado 210056" d="M734.706,990.45H724.154v5.619h10.552a4.511,4.511,0,0,1,4.51,4.51V994.96a4.511,4.511,0,0,0-4.51-4.51" transform="translate(-613.399 -838.967)" fill="#636363"/>
          <path id="Trazado_210057" data-name="Trazado 210057" d="M734.706,1027.19H724.154v18.18l15.062.047V1031.7a4.511,4.511,0,0,0-4.51-4.51" transform="translate(-613.399 -870.087)" fill="#afafaf"/>
          <path id="Trazado_210058" data-name="Trazado 210058" d="M88.292,996.069H102.71V990.45H88.292l-11.316,3.886v5.619Z" transform="translate(-65.203 -838.967)" fill="#636363"/>
          <path id="Trazado_210059" data-name="Trazado 210059" d="M76.977,1031.077v13.984l25.734.081V1027.19H88.293Z" transform="translate(-65.204 -870.088)" fill="#afafaf"/>
          <path id="Trazado_210060" data-name="Trazado 210060" d="M739.216,1146.108v19.708a4.51,4.51,0,0,1-4.51,4.51H724.154V1146.06Z" transform="translate(-613.399 -970.777)" fill="#636363"/>
          <path id="Trazado_210061" data-name="Trazado 210061" d="M739.216,1146.108v14.1a4.51,4.51,0,0,1-4.51,4.51H724.154V1146.06Z" transform="translate(-613.399 -970.777)" fill="#afafaf"/>
          <path id="Trazado_210062" data-name="Trazado 210062" d="M102.709,1144.111v24.5H88.291l-11.316-3.885V1144.03Z" transform="translate(-65.202 -969.057)" fill="#636363"/>
          <path id="Trazado_210063" data-name="Trazado 210063" d="M102.709,1144.111v18.74H88.291l-11.316-3.883V1144.03Z" transform="translate(-65.202 -969.057)" fill="#afafaf"/>
          <rect id="Rectángulo_50347" data-name="Rectángulo 50347" height="25.734" transform="translate(11.773 174.973) rotate(-89.82)" fill="#335479"/>
          <path id="Trazado_210064" data-name="Trazado 210064" d="M57.865,1021.472v-5.619h-3.45v19.593l3.45.011Z" transform="translate(-46.092 -860.483)" fill="#636363"/>
          <path id="Trazado_210065" data-name="Trazado 210065" d="M57.865,1143.969h0l-3.45-.011v20.7h3.45Z" transform="translate(-46.092 -968.997)" fill="#636363"/>
          <path id="Trazado_210066" data-name="Trazado 210066" d="M76.975,1015.859Z" transform="translate(-65.202 -860.49)" fill="#335479"/>
          <rect id="Rectángulo_50348" data-name="Rectángulo 50348" height="5.619" transform="translate(10.524 155.663) rotate(-26.39)" fill="#335479"/>
          <rect id="Rectángulo_50349" data-name="Rectángulo 50349" height="13.984" transform="translate(8.637 161.732) rotate(-26.652)" fill="#335479"/>
          <rect id="Rectángulo_50350" data-name="Rectángulo 50350" height="20.692" transform="translate(11.773 174.973)" fill="#335479"/>
          <rect id="Rectángulo_50351" data-name="Rectángulo 50351" transform="translate(11.773 174.972)" fill="#335479"/>
          <path id="Trazado_210067" data-name="Trazado 210067" d="M8.326,1143.816V1164.5a2.23,2.23,0,0,1-2.23,2.23H2.234A2.229,2.229,0,0,1,0,1164.5V1143.79Z" transform="translate(-0.003 -968.854)" fill="#a2b5c0"/>
          <rect id="Rectángulo_50352" data-name="Rectángulo 50352" width="73.248" height="5.619" transform="translate(37.507 151.483)" fill="#bdd1dc"/>
          <path id="Trazado_210068" data-name="Trazado 210068" d="M245.234,1027.19v17.951l7.024.022v-11.507a4.669,4.669,0,1,1,9.337,0v11.536l6.982.022V1033.66a1.218,1.218,0,0,1,2.436,0v11.562l11.738.037,35.731.112v-18.18Z" transform="translate(-207.727 -870.087)" fill="#b6ccd8"/>
          <path id="Trazado_210069" data-name="Trazado 210069" d="M318.482,1144.79v24.266H245.234v-24.5l7.025.021v11.6a4.669,4.669,0,1,0,9.337,0v-11.566l6.982.021v11.541a1.217,1.217,0,1,0,2.435,0v-11.533l11.738.037Z" transform="translate(-207.727 -969.506)" fill="#90a1ab"/>
          <path id="Trazado_210070" data-name="Trazado 210070" d="M318.482,1144.79v18.471H245.234v-18.7l7.025.021v11.6a4.669,4.669,0,1,0,9.337,0v-11.566l6.982.021v11.541a1.217,1.217,0,1,0,2.435,0v-11.533l11.738.037Z" transform="translate(-207.727 -969.506)" fill="#a2b5c0"/>
          <path id="Trazado_210071" data-name="Trazado 210071" d="M413.787,1145.087l11.738.037-11.738-.037Z" transform="translate(-350.501 -969.953)" fill="#a2b5c0"/>
          <rect id="Rectángulo_50353" data-name="Rectángulo 50353" width="6.982" transform="translate(53.868 175.116)" fill="#a2b5c0"/>
          <rect id="Rectángulo_50354" data-name="Rectángulo 50354" width="7.024" transform="translate(37.507 175.064)" fill="#a2b5c0"/>
          <path id="Trazado_210072" data-name="Trazado 210072" d="M300.5,1043.611a4.669,4.669,0,1,0-9.337,0v11.507l9.337.029Z" transform="translate(-246.629 -880.042)" fill="#12263f"/>
          <path id="Trazado_210073" data-name="Trazado 210073" d="M291.16,1156.3a4.669,4.669,0,0,0,9.337,0v-11.567l-9.337-.029Z" transform="translate(-246.629 -969.628)" fill="#12263f"/>
          <rect id="Rectángulo_50355" data-name="Rectángulo 50355" width="9.337" transform="translate(44.531 175.09)" fill="#12263f"/>
          <path id="Trazado_210074" data-name="Trazado 210074" d="M400.3,1062.745a1.218,1.218,0,0,0-2.436,0V1074.3l2.436.008Z" transform="translate(-337.011 -899.173)" fill="#415c79"/>
          <path id="Trazado_210075" data-name="Trazado 210075" d="M397.861,1156.579a1.218,1.218,0,1,0,2.436,0v-11.534l-2.436-.008Z" transform="translate(-337.011 -969.911)" fill="#2c4a6a"/>
          <rect id="Rectángulo_50356" data-name="Rectángulo 50356" width="2.436" transform="translate(60.85 175.13)" fill="#2c4a6a"/>
          <path id="Trazado_210076" data-name="Trazado 210076" d="M0,1066.049l8.322.026v-14.062H0Z" transform="translate(0 -891.114)" fill="#b6ccd8"/>
          <path id="Trazado_210077" data-name="Trazado 210077" d="M6.092,1002.365H2.23a2.23,2.23,0,0,0-2.23,2.23v5.363H8.322v-5.363a2.23,2.23,0,0,0-2.23-2.23" transform="translate(0 -849.059)" fill="#bdd1dc"/>
          <path id="Trazado_210078" data-name="Trazado 210078" d="M165.1,1043.563h-8.5a1.61,1.61,0,1,1,0-3.22h8.5a1.61,1.61,0,0,1,0,3.22" transform="translate(-131.281 -881.229)" fill="#f6f9fa"/>
          <path id="Trazado_210079" data-name="Trazado 210079" d="M8.326,1239.58v6.058a2.23,2.23,0,0,1-2.23,2.23H2.234a2.229,2.229,0,0,1-2.23-2.23v-6.058Z" transform="translate(-0.003 -1049.994)" fill="#90a1ab"/>
        </g>
      </g>
    </g>
  </g>
</svg>
