<svg xmlns="http://www.w3.org/2000/svg" xmlns:xlink="http://www.w3.org/1999/xlink" width="295" height="448.296" viewBox="0 0 295 448.296">
  <defs>
    <clipPath id="clip-path">
      <rect id="Rectángulo_50126" data-name="Rectángulo 50126" width="294.287" height="443.378" transform="translate(0 -147.793)" fill="none"/>
    </clipPath>
    <clipPath id="clip-path-2">
      <rect id="Rectángulo_50098" data-name="Rectángulo 50098" width="294.287" height="295.585" fill="none"/>
    </clipPath>
    <clipPath id="clip-path-5">
      <rect id="Rectángulo_50101" data-name="Rectángulo 50101" width="88.624" height="7.252" fill="none"/>
    </clipPath>
    <clipPath id="clip-path-6">
      <rect id="Rectángulo_50103" data-name="Rectángulo 50103" width="101.947" height="100.427" fill="none"/>
    </clipPath>
    <clipPath id="clip-path-7">
      <rect id="Rectángulo_50104" data-name="Rectángulo 50104" width="22.514" height="100.427" fill="none"/>
    </clipPath>
    <clipPath id="clip-path-9">
      <rect id="Rectángulo_50107" data-name="Rectángulo 50107" width="34.271" height="199.556" fill="none"/>
    </clipPath>
    <clipPath id="clip-path-10">
      <rect id="Rectángulo_50109" data-name="Rectángulo 50109" width="7.041" height="21.249" fill="none"/>
    </clipPath>
    <clipPath id="clip-path-11">
      <rect id="Rectángulo_50111" data-name="Rectángulo 50111" width="13.577" height="2.66" fill="none"/>
    </clipPath>
    <clipPath id="clip-path-12">
      <rect id="Rectángulo_50112" data-name="Rectángulo 50112" width="10.161" height="1.173" fill="none"/>
    </clipPath>
    <clipPath id="clip-path-14">
      <rect id="Rectángulo_50114" data-name="Rectángulo 50114" width="64.586" height="224.228" fill="none"/>
    </clipPath>
    <clipPath id="clip-path-15">
      <rect id="Rectángulo_50125" data-name="Rectángulo 50125" width="294.287" height="295.585" fill="#81d4fa"/>
    </clipPath>
    <clipPath id="clip-path-16">
      <rect id="Rectángulo_50116" data-name="Rectángulo 50116" width="10.288" height="7.505" fill="none"/>
    </clipPath>
    <clipPath id="clip-path-17">
      <rect id="Rectángulo_50117" data-name="Rectángulo 50117" width="12.389" height="10.567" fill="none"/>
    </clipPath>
    <clipPath id="clip-path-18">
      <rect id="Rectángulo_50118" data-name="Rectángulo 50118" width="23.131" height="14.096" fill="none"/>
    </clipPath>
    <clipPath id="clip-path-19">
      <rect id="Rectángulo_50119" data-name="Rectángulo 50119" width="24.93" height="14.285" fill="none"/>
    </clipPath>
    <clipPath id="clip-path-20">
      <rect id="Rectángulo_50121" data-name="Rectángulo 50121" width="8.902" height="21.135" fill="none"/>
    </clipPath>
    <clipPath id="clip-path-21">
      <rect id="Rectángulo_50122" data-name="Rectángulo 50122" width="16.275" height="3.899" fill="none"/>
    </clipPath>
    <clipPath id="clip-path-22">
      <rect id="Rectángulo_50123" data-name="Rectángulo 50123" width="12.181" height="1.719" fill="none"/>
    </clipPath>
  </defs>
  <g id="Grupo_1033651" data-name="Grupo 1033651" transform="translate(-180 -1379.028)">
    <g id="Grupo_172564" data-name="Grupo 172564" transform="translate(3328.733 695.008)">
      <g id="Grupo_171328" data-name="Grupo 171328" transform="translate(-3148.733 775.848)">
        <g id="Grupo_171324" data-name="Grupo 171324" transform="translate(136.122 55.699)">
          <path id="Trazado_207509" data-name="Trazado 207509" d="M2644.911,1347.952a.485.485,0,0,0-.02-.091,74.958,74.958,0,0,0-21.709-33.876,88.118,88.118,0,0,0-31.605-17.653c-21.649-7.056-44.753-6.729-57.059-3.44a.578.578,0,0,0-.427.724.64.64,0,0,0,.78.4c21.65-5.788,90.465-3.688,108.814,54.17a.64.64,0,0,0,.782.4A.583.583,0,0,0,2644.911,1347.952Z" transform="translate(-2534.064 -1290.642)" fill="#fcf7f2"/>
        </g>
        <g id="Grupo_171325" data-name="Grupo 171325" transform="translate(29.823 106.768)">
          <path id="Trazado_207510" data-name="Trazado 207510" d="M893.408,1604.271a.71.71,0,0,0-.1.021c-14.6,4.245-26.87,11.214-36.477,20.713a77.7,77.7,0,0,0-18.488,29.345c-7.16,19.972-6.211,41.084-2.3,52.249a.653.653,0,0,0,.8.372.569.569,0,0,0,.419-.723c-6.882-19.644-6.347-82.605,56.432-100.861a.569.569,0,0,0,.416-.724A.644.644,0,0,0,893.408,1604.271Z" transform="translate(-833.026 -1604.264)" fill="#fcf7f2"/>
        </g>
        <g id="Grupo_171327" data-name="Grupo 171327" transform="translate(0 0)">
          <g id="Grupo_171326" data-name="Grupo 171326">
            <path id="Trazado_207511" data-name="Trazado 207511" d="M886.9,1290.9c19.433-4.55,67.078-162.89-7.32-248.4-23.026-26.467-45.231-10.346-69.939-51.272-18.778-31.1-32.981-50.98-57.019-54.2-28.951-3.879-70.946,1.405-82.487,53.094a306.691,306.691,0,0,0-7.983,68.58c-.39,62.808-27.622,68.26-34.48,110.3-11.022,67.582,13.372,120.622,28.467,121.854C670.24,1292,872.005,1293.836,886.9,1290.9Z" transform="translate(-624.903 -936.014)" fill="#e7f7ff"/>
          </g>
        </g>
      </g>
    </g>
    <g id="Grupo_172863" data-name="Grupo 172863" transform="translate(180 1526.821)">
      <g id="Grupo_172799" data-name="Grupo 172799" clip-path="url(#clip-path)">
        <rect id="Rectángulo_49997" data-name="Rectángulo 49997" width="282.629" height="4.781" transform="translate(5.829 20.921)" fill="#f0f0f0"/>
        <rect id="Rectángulo_350381" data-name="Rectángulo 350381" width="282.629" height="4.781" transform="translate(5.829 -56.225)" fill="#f0f0f0"/>
        <rect id="Rectángulo_49998" data-name="Rectángulo 49998" width="282.629" height="4.781" transform="translate(5.829 77.146)" fill="#f0f0f0"/>
        <rect id="Rectángulo_49999" data-name="Rectángulo 49999" width="282.629" height="4.781" transform="translate(5.829 133.37)" fill="#f0f0f0"/>
        <rect id="Rectángulo_50000" data-name="Rectángulo 50000" width="282.629" height="4.781" transform="translate(5.829 189.595)" fill="#f0f0f0"/>
        <g id="Grupo_172725" data-name="Grupo 172725">
          <g id="Grupo_172724" data-name="Grupo 172724" clip-path="url(#clip-path-2)">
            <path id="Trazado_209313" data-name="Trazado 209313" d="M56.395,8.183H46.354a1.853,1.853,0,0,0-1.77,1.927V20.416a1.854,1.854,0,0,0,1.77,1.928H56.395a1.854,1.854,0,0,0,1.77-1.928V10.11a1.853,1.853,0,0,0-1.77-1.927" transform="translate(-10.749 -1.422)" fill="#ebebeb"/>
            <rect id="Rectángulo_50001" data-name="Rectángulo 50001" width="7.678" height="8.055" transform="translate(33.835 9.772)" fill="#fafafa"/>
            <path id="Trazado_209314" data-name="Trazado 209314" d="M55.463,7.488H49.287a.578.578,0,0,1-.552-.6v-2.1a.578.578,0,0,1,.552-.6h6.176a.578.578,0,0,1,.552.6v2.1a.578.578,0,0,1-.552.6" transform="translate(-11.75 -0.728)" fill="#f5f5f5"/>
            <path id="Trazado_209315" data-name="Trazado 209315" d="M87.975,8.183H77.934a1.853,1.853,0,0,0-1.77,1.927V20.416a1.854,1.854,0,0,0,1.77,1.928H87.975a1.854,1.854,0,0,0,1.77-1.928V10.11a1.853,1.853,0,0,0-1.77-1.927" transform="translate(-18.363 -1.422)" fill="#ebebeb"/>
            <rect id="Rectángulo_50002" data-name="Rectángulo 50002" width="7.678" height="8.055" transform="translate(57.801 9.772)" fill="#fafafa"/>
            <path id="Trazado_209316" data-name="Trazado 209316" d="M87.044,7.488H80.868a.577.577,0,0,1-.552-.6v-2.1a.577.577,0,0,1,.552-.6h6.176a.577.577,0,0,1,.551.6v2.1a.577.577,0,0,1-.551.6" transform="translate(-19.364 -0.728)" fill="#f5f5f5"/>
            <path id="Trazado_209317" data-name="Trazado 209317" d="M119.556,8.183H109.515a1.853,1.853,0,0,0-1.77,1.927V20.416a1.854,1.854,0,0,0,1.77,1.928h10.041a1.854,1.854,0,0,0,1.77-1.928V10.11a1.853,1.853,0,0,0-1.77-1.927" transform="translate(-25.977 -1.422)" fill="#ebebeb"/>
            <rect id="Rectángulo_50003" data-name="Rectángulo 50003" width="7.678" height="8.055" transform="translate(81.768 9.772)" fill="#fafafa"/>
            <path id="Trazado_209318" data-name="Trazado 209318" d="M118.624,7.488h-6.176a.578.578,0,0,1-.552-.6v-2.1a.578.578,0,0,1,.552-.6h6.176a.578.578,0,0,1,.552.6v2.1a.578.578,0,0,1-.552.6" transform="translate(-26.977 -0.728)" fill="#f5f5f5"/>
            <path id="Trazado_209319" data-name="Trazado 209319" d="M151.136,8.183H141.095a1.853,1.853,0,0,0-1.77,1.927V20.416a1.854,1.854,0,0,0,1.77,1.928h10.041a1.854,1.854,0,0,0,1.77-1.928V10.11a1.853,1.853,0,0,0-1.77-1.927" transform="translate(-33.59 -1.422)" fill="#ebebeb"/>
            <rect id="Rectángulo_50004" data-name="Rectángulo 50004" width="7.678" height="8.055" transform="translate(105.735 9.772)" fill="#fafafa"/>
            <path id="Trazado_209320" data-name="Trazado 209320" d="M150.2,7.488h-6.176a.578.578,0,0,1-.552-.6v-2.1a.578.578,0,0,1,.552-.6H150.2a.577.577,0,0,1,.551.6v2.1a.577.577,0,0,1-.551.6" transform="translate(-34.591 -0.728)" fill="#f5f5f5"/>
            <path id="Trazado_209321" data-name="Trazado 209321" d="M182.717,8.183H172.676a1.853,1.853,0,0,0-1.77,1.927V20.416a1.854,1.854,0,0,0,1.77,1.928h10.041a1.854,1.854,0,0,0,1.77-1.928V10.11a1.853,1.853,0,0,0-1.77-1.927" transform="translate(-41.204 -1.422)" fill="#ebebeb"/>
            <rect id="Rectángulo_50005" data-name="Rectángulo 50005" width="7.678" height="8.055" transform="translate(129.702 9.772)" fill="#fafafa"/>
            <path id="Trazado_209322" data-name="Trazado 209322" d="M181.785,7.488h-6.176a.577.577,0,0,1-.552-.6v-2.1a.577.577,0,0,1,.552-.6h6.176a.577.577,0,0,1,.551.6v2.1a.577.577,0,0,1-.551.6" transform="translate(-42.205 -0.728)" fill="#f5f5f5"/>
            <path id="Trazado_209323" data-name="Trazado 209323" d="M182.717,144.289H172.676a1.853,1.853,0,0,0-1.77,1.927v10.307a1.854,1.854,0,0,0,1.77,1.928h10.041a1.854,1.854,0,0,0,1.77-1.928V146.216a1.853,1.853,0,0,0-1.77-1.927" transform="translate(-41.204 -25.079)" fill="#ebebeb"/>
            <rect id="Rectángulo_50006" data-name="Rectángulo 50006" width="7.678" height="8.055" transform="translate(129.702 122.222)" fill="#fafafa"/>
            <path id="Trazado_209324" data-name="Trazado 209324" d="M181.785,143.594h-6.176a.577.577,0,0,1-.552-.6v-2.1a.577.577,0,0,1,.552-.6h6.176a.577.577,0,0,1,.551.6v2.1a.577.577,0,0,1-.551.6" transform="translate(-42.205 -24.384)" fill="#f5f5f5"/>
            <path id="Trazado_209325" data-name="Trazado 209325" d="M214.3,144.289H204.256a1.853,1.853,0,0,0-1.77,1.927v10.307a1.854,1.854,0,0,0,1.77,1.928H214.3a1.854,1.854,0,0,0,1.77-1.928V146.216a1.853,1.853,0,0,0-1.77-1.927" transform="translate(-48.818 -25.079)" fill="#ebebeb"/>
            <rect id="Rectángulo_50007" data-name="Rectángulo 50007" width="7.678" height="8.055" transform="translate(153.668 122.222)" fill="#fafafa"/>
            <path id="Trazado_209326" data-name="Trazado 209326" d="M213.366,143.594H207.19a.578.578,0,0,1-.552-.6v-2.1a.578.578,0,0,1,.552-.6h6.176a.578.578,0,0,1,.552.6v2.1a.577.577,0,0,1-.552.6" transform="translate(-49.819 -24.384)" fill="#f5f5f5"/>
            <path id="Trazado_209327" data-name="Trazado 209327" d="M245.878,144.289H235.836a1.853,1.853,0,0,0-1.77,1.927v10.307a1.854,1.854,0,0,0,1.77,1.928h10.042a1.854,1.854,0,0,0,1.769-1.928V146.216a1.853,1.853,0,0,0-1.769-1.927" transform="translate(-56.432 -25.079)" fill="#ebebeb"/>
            <rect id="Rectángulo_50008" data-name="Rectángulo 50008" width="7.678" height="8.055" transform="translate(177.635 122.222)" fill="#fafafa"/>
            <path id="Trazado_209328" data-name="Trazado 209328" d="M244.946,143.594H238.77a.577.577,0,0,1-.552-.6v-2.1a.577.577,0,0,1,.552-.6h6.176a.577.577,0,0,1,.551.6v2.1a.577.577,0,0,1-.551.6" transform="translate(-57.433 -24.384)" fill="#f5f5f5"/>
            <path id="Trazado_209329" data-name="Trazado 209329" d="M277.458,144.289H267.417a1.853,1.853,0,0,0-1.77,1.927v10.307a1.854,1.854,0,0,0,1.77,1.928h10.041a1.854,1.854,0,0,0,1.77-1.928V146.216a1.853,1.853,0,0,0-1.77-1.927" transform="translate(-64.046 -25.079)" fill="#ebebeb"/>
            <rect id="Rectángulo_50009" data-name="Rectángulo 50009" width="7.678" height="8.055" transform="translate(201.601 122.222)" fill="#fafafa"/>
            <path id="Trazado_209330" data-name="Trazado 209330" d="M276.527,143.594h-6.176a.578.578,0,0,1-.552-.6v-2.1a.578.578,0,0,1,.552-.6h6.176a.578.578,0,0,1,.552.6v2.1a.578.578,0,0,1-.552.6" transform="translate(-65.047 -24.384)" fill="#f5f5f5"/>
            <path id="Trazado_209331" data-name="Trazado 209331" d="M309.038,144.289H299a1.853,1.853,0,0,0-1.77,1.927v10.307A1.854,1.854,0,0,0,299,158.45h10.041a1.854,1.854,0,0,0,1.77-1.928V146.216a1.853,1.853,0,0,0-1.77-1.927" transform="translate(-71.66 -25.079)" fill="#ebebeb"/>
            <rect id="Rectángulo_50010" data-name="Rectángulo 50010" width="7.678" height="8.055" transform="translate(225.568 122.222)" fill="#fafafa"/>
            <path id="Trazado_209332" data-name="Trazado 209332" d="M308.107,143.594h-6.176a.577.577,0,0,1-.552-.6v-2.1a.578.578,0,0,1,.552-.6h6.176a.577.577,0,0,1,.551.6v2.1a.577.577,0,0,1-.551.6" transform="translate(-72.661 -24.384)" fill="#f5f5f5"/>
            <path id="Trazado_209333" data-name="Trazado 209333" d="M92.2,212.342h10.041a1.853,1.853,0,0,1,1.77,1.927v10.307a1.854,1.854,0,0,1-1.77,1.927H92.2a1.854,1.854,0,0,1-1.77-1.927V214.269a1.853,1.853,0,0,1,1.77-1.927" transform="translate(-21.803 -36.907)" fill="#ebebeb"/>
            <rect id="Rectángulo_50011" data-name="Rectángulo 50011" width="7.678" height="8.055" transform="translate(74.534 178.446)" fill="#fafafa"/>
            <path id="Trazado_209334" data-name="Trazado 209334" d="M95.137,211.647h6.176a.577.577,0,0,0,.552-.6v-2.1a.577.577,0,0,0-.552-.6H95.137a.577.577,0,0,0-.551.6v2.1a.577.577,0,0,0,.551.6" transform="translate(-22.804 -36.212)" fill="#f5f5f5"/>
            <path id="Trazado_209335" data-name="Trazado 209335" d="M60.624,212.342H70.665a1.853,1.853,0,0,1,1.77,1.927v10.307a1.854,1.854,0,0,1-1.77,1.927H60.624a1.854,1.854,0,0,1-1.77-1.927V214.269a1.853,1.853,0,0,1,1.77-1.927" transform="translate(-14.189 -36.907)" fill="#ebebeb"/>
            <rect id="Rectángulo_50012" data-name="Rectángulo 50012" width="7.679" height="8.055" transform="translate(50.567 178.446)" fill="#fafafa"/>
            <path id="Trazado_209336" data-name="Trazado 209336" d="M63.557,211.647h6.176a.578.578,0,0,0,.552-.6v-2.1a.578.578,0,0,0-.552-.6H63.557a.578.578,0,0,0-.552.6v2.1a.578.578,0,0,0,.552.6" transform="translate(-15.19 -36.212)" fill="#f5f5f5"/>
            <path id="Trazado_209337" data-name="Trazado 209337" d="M29.043,212.342H39.084a1.853,1.853,0,0,1,1.77,1.927v10.307a1.854,1.854,0,0,1-1.77,1.927H29.043a1.854,1.854,0,0,1-1.77-1.927V214.269a1.853,1.853,0,0,1,1.77-1.927" transform="translate(-6.575 -36.907)" fill="#ebebeb"/>
            <rect id="Rectángulo_50013" data-name="Rectángulo 50013" width="7.678" height="8.055" transform="translate(26.6 178.446)" fill="#fafafa"/>
            <path id="Trazado_209338" data-name="Trazado 209338" d="M31.976,211.647h6.176a.578.578,0,0,0,.552-.6v-2.1a.578.578,0,0,0-.552-.6H31.976a.577.577,0,0,0-.551.6v2.1a.577.577,0,0,0,.551.6" transform="translate(-7.576 -36.212)" fill="#f5f5f5"/>
            <rect id="Rectángulo_50014" data-name="Rectángulo 50014" width="7.012" height="12.621" transform="translate(160.015 8.3)" fill="#e0e0e0"/>
            <rect id="Rectángulo_50015" data-name="Rectángulo 50015" width="5.77" height="6.731" transform="translate(160.015 11.245)" fill="#f5f5f5"/>
            <path id="Trazado_209339" data-name="Trazado 209339" d="M217.828,10.348h-7.447a.6.6,0,0,1-.57-.621V8.291a.6.6,0,0,1,.57-.621h7.447a.6.6,0,0,1,.571.621V9.726a.6.6,0,0,1-.571.621" transform="translate(-50.584 -1.333)" fill="#f0f0f0"/>
            <rect id="Rectángulo_50016" data-name="Rectángulo 50016" width="7.012" height="12.621" transform="translate(175.993 8.3)" fill="#e0e0e0"/>
            <rect id="Rectángulo_50017" data-name="Rectángulo 50017" width="5.77" height="6.731" transform="translate(175.992 11.245)" fill="#f5f5f5"/>
            <path id="Trazado_209340" data-name="Trazado 209340" d="M238.882,10.348h-7.447a.6.6,0,0,1-.57-.621V8.291a.6.6,0,0,1,.57-.621h7.447a.6.6,0,0,1,.571.621V9.726a.6.6,0,0,1-.571.621" transform="translate(-55.66 -1.333)" fill="#f0f0f0"/>
            <rect id="Rectángulo_50018" data-name="Rectángulo 50018" width="7.012" height="12.621" transform="translate(191.97 8.3)" fill="#e0e0e0"/>
            <rect id="Rectángulo_50019" data-name="Rectángulo 50019" width="5.77" height="6.731" transform="translate(191.97 11.245)" fill="#f5f5f5"/>
            <path id="Trazado_209341" data-name="Trazado 209341" d="M259.936,10.348h-7.447a.6.6,0,0,1-.571-.621V8.291a.6.6,0,0,1,.571-.621h7.447a.6.6,0,0,1,.57.621V9.726a.6.6,0,0,1-.57.621" transform="translate(-60.736 -1.333)" fill="#f0f0f0"/>
            <rect id="Rectángulo_50020" data-name="Rectángulo 50020" width="7.012" height="12.621" transform="translate(207.948 8.3)" fill="#e0e0e0"/>
            <rect id="Rectángulo_50021" data-name="Rectángulo 50021" width="5.77" height="6.731" transform="translate(207.947 11.245)" fill="#f5f5f5"/>
            <path id="Trazado_209342" data-name="Trazado 209342" d="M280.989,10.348h-7.447a.6.6,0,0,1-.571-.621V8.291a.6.6,0,0,1,.571-.621h7.447a.6.6,0,0,1,.571.621V9.726a.6.6,0,0,1-.571.621" transform="translate(-65.812 -1.333)" fill="#f0f0f0"/>
            <rect id="Rectángulo_50022" data-name="Rectángulo 50022" width="7.012" height="12.621" transform="translate(45.285 64.525)" fill="#e0e0e0"/>
            <rect id="Rectángulo_50023" data-name="Rectángulo 50023" width="5.77" height="6.731" transform="translate(45.285 67.47)" fill="#f5f5f5"/>
            <path id="Trazado_209343" data-name="Trazado 209343" d="M66.651,78.4H59.2a.6.6,0,0,1-.571-.621V76.344a.6.6,0,0,1,.571-.621h7.447a.6.6,0,0,1,.571.621v1.435a.6.6,0,0,1-.571.621" transform="translate(-14.136 -13.161)" fill="#f0f0f0"/>
            <rect id="Rectángulo_50024" data-name="Rectángulo 50024" width="7.012" height="12.621" transform="translate(61.263 64.525)" fill="#e0e0e0"/>
            <rect id="Rectángulo_50025" data-name="Rectángulo 50025" width="5.77" height="6.731" transform="translate(61.263 67.47)" fill="#f5f5f5"/>
            <path id="Trazado_209344" data-name="Trazado 209344" d="M87.705,78.4H80.258a.6.6,0,0,1-.57-.621V76.344a.6.6,0,0,1,.57-.621h7.447a.6.6,0,0,1,.571.621v1.435a.6.6,0,0,1-.571.621" transform="translate(-19.212 -13.161)" fill="#f0f0f0"/>
            <rect id="Rectángulo_50026" data-name="Rectángulo 50026" width="7.012" height="12.621" transform="translate(77.241 64.525)" fill="#e0e0e0"/>
            <rect id="Rectángulo_50027" data-name="Rectángulo 50027" width="5.77" height="6.731" transform="translate(77.241 67.47)" fill="#f5f5f5"/>
            <path id="Trazado_209345" data-name="Trazado 209345" d="M108.759,78.4h-7.447a.6.6,0,0,1-.57-.621V76.344a.6.6,0,0,1,.57-.621h7.447a.6.6,0,0,1,.571.621v1.435a.6.6,0,0,1-.571.621" transform="translate(-24.288 -13.161)" fill="#f0f0f0"/>
            <rect id="Rectángulo_50028" data-name="Rectángulo 50028" width="7.012" height="12.621" transform="translate(93.219 64.525)" fill="#e0e0e0"/>
            <rect id="Rectángulo_50029" data-name="Rectángulo 50029" width="5.77" height="6.731" transform="translate(93.219 67.47)" fill="#f5f5f5"/>
            <path id="Trazado_209346" data-name="Trazado 209346" d="M129.812,78.4h-7.447a.6.6,0,0,1-.57-.621V76.344a.6.6,0,0,1,.57-.621h7.447a.6.6,0,0,1,.571.621v1.435a.6.6,0,0,1-.571.621" transform="translate(-29.364 -13.161)" fill="#f0f0f0"/>
            <rect id="Rectángulo_50030" data-name="Rectángulo 50030" width="7.012" height="12.621" transform="translate(220.231 176.974)" fill="#e0e0e0"/>
            <rect id="Rectángulo_50031" data-name="Rectángulo 50031" width="5.77" height="6.731" transform="translate(220.23 179.92)" fill="#f5f5f5"/>
            <path id="Trazado_209347" data-name="Trazado 209347" d="M297.174,214.507h-7.447a.6.6,0,0,1-.571-.621V212.45a.6.6,0,0,1,.571-.621h7.447a.6.6,0,0,1,.571.621v1.435a.6.6,0,0,1-.571.621" transform="translate(-69.714 -36.818)" fill="#f0f0f0"/>
            <rect id="Rectángulo_50032" data-name="Rectángulo 50032" width="7.012" height="12.621" transform="translate(236.208 176.974)" fill="#e0e0e0"/>
            <rect id="Rectángulo_50033" data-name="Rectángulo 50033" width="5.77" height="6.731" transform="translate(236.208 179.92)" fill="#f5f5f5"/>
            <path id="Trazado_209348" data-name="Trazado 209348" d="M318.228,214.507h-7.447a.6.6,0,0,1-.571-.621V212.45a.6.6,0,0,1,.571-.621h7.447a.6.6,0,0,1,.571.621v1.435a.6.6,0,0,1-.571.621" transform="translate(-74.79 -36.818)" fill="#f0f0f0"/>
            <rect id="Rectángulo_50034" data-name="Rectángulo 50034" width="7.012" height="12.621" transform="translate(252.186 176.974)" fill="#e0e0e0"/>
            <rect id="Rectángulo_50035" data-name="Rectángulo 50035" width="5.77" height="6.731" transform="translate(252.186 179.92)" fill="#f5f5f5"/>
            <path id="Trazado_209349" data-name="Trazado 209349" d="M339.281,214.507h-7.447a.6.6,0,0,1-.571-.621V212.45a.6.6,0,0,1,.571-.621h7.447a.6.6,0,0,1,.571.621v1.435a.6.6,0,0,1-.571.621" transform="translate(-79.865 -36.818)" fill="#f0f0f0"/>
            <rect id="Rectángulo_50036" data-name="Rectángulo 50036" width="7.012" height="12.621" transform="translate(268.164 176.974)" fill="#e0e0e0"/>
            <rect id="Rectángulo_50037" data-name="Rectángulo 50037" width="5.77" height="6.731" transform="translate(268.163 179.92)" fill="#f5f5f5"/>
            <path id="Trazado_209350" data-name="Trazado 209350" d="M360.335,214.507h-7.447a.6.6,0,0,1-.57-.621V212.45a.6.6,0,0,1,.57-.621h7.447a.6.6,0,0,1,.571.621v1.435a.6.6,0,0,1-.571.621" transform="translate(-84.942 -36.818)" fill="#f0f0f0"/>
            <rect id="Rectángulo_50038" data-name="Rectángulo 50038" width="12.894" height="12.964" transform="translate(157.871 64.183)" fill="#f5f5f5"/>
            <rect id="Rectángulo_50039" data-name="Rectángulo 50039" width="5.199" height="12.964" transform="translate(170.765 64.183)" fill="#e6e6e6"/>
            <path id="Trazado_209351" data-name="Trazado 209351" d="M208.025,77.685l6.447,6.481,6.447-6.481Z" transform="translate(-50.154 -13.502)" fill="#ebebeb"/>
            <rect id="Rectángulo_50040" data-name="Rectángulo 50040" width="12.894" height="12.964" transform="translate(171.631 64.183)" fill="#f5f5f5"/>
            <rect id="Rectángulo_50041" data-name="Rectángulo 50041" width="5.199" height="12.964" transform="translate(184.525 64.183)" fill="#e6e6e6"/>
            <path id="Trazado_209352" data-name="Trazado 209352" d="M226.157,77.685l6.447,6.481,6.447-6.481Z" transform="translate(-54.525 -13.502)" fill="#ebebeb"/>
            <rect id="Rectángulo_50042" data-name="Rectángulo 50042" width="12.894" height="12.964" transform="translate(185.392 64.183)" fill="#f5f5f5"/>
            <rect id="Rectángulo_50043" data-name="Rectángulo 50043" width="5.199" height="12.964" transform="translate(198.285 64.183)" fill="#e6e6e6"/>
            <path id="Trazado_209353" data-name="Trazado 209353" d="M244.288,77.685l6.447,6.481,6.447-6.481Z" transform="translate(-58.896 -13.502)" fill="#ebebeb"/>
            <rect id="Rectángulo_50044" data-name="Rectángulo 50044" width="12.894" height="12.964" transform="translate(164.318 51.219)" fill="#f5f5f5"/>
            <rect id="Rectángulo_50045" data-name="Rectángulo 50045" width="5.199" height="12.964" transform="translate(177.212 51.219)" fill="#e6e6e6"/>
            <path id="Trazado_209354" data-name="Trazado 209354" d="M216.52,61.994l6.447,6.481,6.447-6.481Z" transform="translate(-52.202 -10.775)" fill="#ebebeb"/>
            <rect id="Rectángulo_50046" data-name="Rectángulo 50046" width="12.894" height="12.964" transform="translate(178.078 51.219)" fill="#f5f5f5"/>
            <rect id="Rectángulo_50047" data-name="Rectángulo 50047" width="5.199" height="12.964" transform="translate(190.972 51.219)" fill="#e6e6e6"/>
            <path id="Trazado_209355" data-name="Trazado 209355" d="M234.652,61.994l6.447,6.481,6.447-6.481Z" transform="translate(-56.573 -10.775)" fill="#ebebeb"/>
            <rect id="Rectángulo_50048" data-name="Rectángulo 50048" width="12.894" height="12.964" transform="translate(215.38 64.183)" fill="#f5f5f5"/>
            <rect id="Rectángulo_50049" data-name="Rectángulo 50049" width="5.199" height="12.964" transform="translate(228.274 64.183)" fill="#e6e6e6"/>
            <path id="Trazado_209356" data-name="Trazado 209356" d="M283.8,77.685l6.447,6.481,6.447-6.481Z" transform="translate(-68.423 -13.502)" fill="#ebebeb"/>
            <rect id="Rectángulo_50050" data-name="Rectángulo 50050" width="12.894" height="12.964" transform="translate(229.14 64.183)" fill="#f5f5f5"/>
            <rect id="Rectángulo_50051" data-name="Rectángulo 50051" width="5.199" height="12.964" transform="translate(242.033 64.183)" fill="#e6e6e6"/>
            <path id="Trazado_209357" data-name="Trazado 209357" d="M301.934,77.685l6.447,6.481,6.447-6.481Z" transform="translate(-72.795 -13.502)" fill="#ebebeb"/>
            <rect id="Rectángulo_50052" data-name="Rectángulo 50052" width="12.894" height="12.964" transform="translate(242.9 64.183)" fill="#f5f5f5"/>
            <rect id="Rectángulo_50053" data-name="Rectángulo 50053" width="5.199" height="12.964" transform="translate(255.794 64.183)" fill="#e6e6e6"/>
            <path id="Trazado_209358" data-name="Trazado 209358" d="M320.066,77.685l6.447,6.481,6.447-6.481Z" transform="translate(-77.166 -13.502)" fill="#ebebeb"/>
            <rect id="Rectángulo_50054" data-name="Rectángulo 50054" width="12.894" height="12.964" transform="translate(221.827 51.219)" fill="#f5f5f5"/>
            <rect id="Rectángulo_50055" data-name="Rectángulo 50055" width="5.199" height="12.964" transform="translate(234.721 51.219)" fill="#e6e6e6"/>
            <path id="Trazado_209359" data-name="Trazado 209359" d="M292.3,61.994l6.447,6.481,6.447-6.481Z" transform="translate(-70.471 -10.775)" fill="#ebebeb"/>
            <rect id="Rectángulo_50056" data-name="Rectángulo 50056" width="12.894" height="12.964" transform="translate(235.586 51.219)" fill="#f5f5f5"/>
            <rect id="Rectángulo_50057" data-name="Rectángulo 50057" width="5.199" height="12.964" transform="translate(248.48 51.219)" fill="#e6e6e6"/>
            <path id="Trazado_209360" data-name="Trazado 209360" d="M310.429,61.994l6.447,6.481,6.447-6.481Z" transform="translate(-74.843 -10.775)" fill="#ebebeb"/>
            <rect id="Rectángulo_50058" data-name="Rectángulo 50058" width="12.894" height="12.964" transform="translate(97.048 176.632)" fill="#f5f5f5"/>
            <rect id="Rectángulo_50059" data-name="Rectángulo 50059" width="5.199" height="12.964" transform="translate(109.942 176.632)" fill="#e6e6e6"/>
            <path id="Trazado_209361" data-name="Trazado 209361" d="M127.879,213.791l6.447,6.481,6.447-6.481Z" transform="translate(-30.831 -37.159)" fill="#ebebeb"/>
            <rect id="Rectángulo_50060" data-name="Rectángulo 50060" width="12.894" height="12.964" transform="translate(110.808 176.632)" fill="#f5f5f5"/>
            <rect id="Rectángulo_50061" data-name="Rectángulo 50061" width="5.199" height="12.964" transform="translate(123.702 176.632)" fill="#e6e6e6"/>
            <path id="Trazado_209362" data-name="Trazado 209362" d="M146.01,213.791l6.447,6.481,6.447-6.481Z" transform="translate(-35.202 -37.159)" fill="#ebebeb"/>
            <rect id="Rectángulo_50062" data-name="Rectángulo 50062" width="12.894" height="12.964" transform="translate(124.568 176.632)" fill="#f5f5f5"/>
            <rect id="Rectángulo_50063" data-name="Rectángulo 50063" width="5.199" height="12.964" transform="translate(137.462 176.632)" fill="#e6e6e6"/>
            <path id="Trazado_209363" data-name="Trazado 209363" d="M164.142,213.791l6.447,6.481,6.447-6.481Z" transform="translate(-39.574 -37.159)" fill="#ebebeb"/>
            <rect id="Rectángulo_50064" data-name="Rectángulo 50064" width="12.894" height="12.964" transform="translate(103.495 163.668)" fill="#f5f5f5"/>
            <rect id="Rectángulo_50065" data-name="Rectángulo 50065" width="5.199" height="12.964" transform="translate(116.389 163.668)" fill="#e6e6e6"/>
            <path id="Trazado_209364" data-name="Trazado 209364" d="M136.374,198.1l6.447,6.481,6.447-6.481Z" transform="translate(-32.879 -34.432)" fill="#ebebeb"/>
            <rect id="Rectángulo_50066" data-name="Rectángulo 50066" width="12.894" height="12.964" transform="translate(117.255 163.668)" fill="#f5f5f5"/>
            <rect id="Rectángulo_50067" data-name="Rectángulo 50067" width="5.199" height="12.964" transform="translate(130.149 163.668)" fill="#e6e6e6"/>
            <path id="Trazado_209365" data-name="Trazado 209365" d="M154.505,198.1l6.447,6.481L167.4,198.1Z" transform="translate(-37.25 -34.432)" fill="#ebebeb"/>
            <rect id="Rectángulo_50068" data-name="Rectángulo 50068" width="12.894" height="12.964" transform="translate(154.556 176.632)" fill="#f5f5f5"/>
            <rect id="Rectángulo_50069" data-name="Rectángulo 50069" width="5.199" height="12.964" transform="translate(167.45 176.632)" fill="#e6e6e6"/>
            <path id="Trazado_209366" data-name="Trazado 209366" d="M203.657,213.791l6.447,6.481,6.447-6.481Z" transform="translate(-49.1 -37.159)" fill="#ebebeb"/>
            <rect id="Rectángulo_50070" data-name="Rectángulo 50070" width="12.894" height="12.964" transform="translate(168.316 176.632)" fill="#f5f5f5"/>
            <rect id="Rectángulo_50071" data-name="Rectángulo 50071" width="5.199" height="12.964" transform="translate(181.21 176.632)" fill="#e6e6e6"/>
            <path id="Trazado_209367" data-name="Trazado 209367" d="M221.788,213.791l6.447,6.481,6.447-6.481Z" transform="translate(-53.472 -37.159)" fill="#ebebeb"/>
            <rect id="Rectángulo_50072" data-name="Rectángulo 50072" width="12.894" height="12.964" transform="translate(182.076 176.632)" fill="#f5f5f5"/>
            <rect id="Rectángulo_50073" data-name="Rectángulo 50073" width="5.199" height="12.964" transform="translate(194.97 176.632)" fill="#e6e6e6"/>
            <path id="Trazado_209368" data-name="Trazado 209368" d="M239.919,213.791l6.447,6.481,6.447-6.481Z" transform="translate(-57.843 -37.159)" fill="#ebebeb"/>
            <rect id="Rectángulo_50074" data-name="Rectángulo 50074" width="12.894" height="12.964" transform="translate(161.003 163.668)" fill="#f5f5f5"/>
            <rect id="Rectángulo_50075" data-name="Rectángulo 50075" width="5.199" height="12.964" transform="translate(173.897 163.668)" fill="#e6e6e6"/>
            <path id="Trazado_209369" data-name="Trazado 209369" d="M212.151,198.1l6.447,6.481,6.447-6.481Z" transform="translate(-51.148 -34.432)" fill="#ebebeb"/>
            <rect id="Rectángulo_50076" data-name="Rectángulo 50076" width="12.894" height="12.964" transform="translate(174.763 163.668)" fill="#f5f5f5"/>
            <rect id="Rectángulo_50077" data-name="Rectángulo 50077" width="5.199" height="12.964" transform="translate(187.657 163.668)" fill="#e6e6e6"/>
            <path id="Trazado_209370" data-name="Trazado 209370" d="M230.283,198.1l6.447,6.481,6.447-6.481Z" transform="translate(-55.52 -34.432)" fill="#ebebeb"/>
            <rect id="Rectángulo_50078" data-name="Rectángulo 50078" width="15.242" height="15.324" transform="translate(27.761 118.046)" fill="#f5f5f5"/>
            <rect id="Rectángulo_50079" data-name="Rectángulo 50079" width="6.145" height="15.324" transform="translate(43.003 118.046)" fill="#e6e6e6"/>
            <path id="Trazado_209371" data-name="Trazado 209371" d="M36.58,142.88l7.621,7.662,7.621-7.662Z" transform="translate(-8.819 -24.834)" fill="#ebebeb"/>
            <rect id="Rectángulo_50080" data-name="Rectángulo 50080" width="15.242" height="15.324" transform="translate(44.027 118.046)" fill="#f5f5f5"/>
            <rect id="Rectángulo_50081" data-name="Rectángulo 50081" width="6.145" height="15.324" transform="translate(59.269 118.046)" fill="#e6e6e6"/>
            <path id="Trazado_209372" data-name="Trazado 209372" d="M58.014,142.88l7.621,7.662,7.621-7.662Z" transform="translate(-13.987 -24.834)" fill="#ebebeb"/>
            <rect id="Rectángulo_50082" data-name="Rectángulo 50082" width="15.242" height="15.324" transform="translate(60.293 118.046)" fill="#f5f5f5"/>
            <rect id="Rectángulo_50083" data-name="Rectángulo 50083" width="6.145" height="15.324" transform="translate(75.535 118.046)" fill="#e6e6e6"/>
            <path id="Trazado_209373" data-name="Trazado 209373" d="M79.447,142.88l7.621,7.662,7.621-7.662Z" transform="translate(-19.154 -24.834)" fill="#ebebeb"/>
            <rect id="Rectángulo_50084" data-name="Rectángulo 50084" width="15.242" height="15.324" transform="translate(35.382 102.722)" fill="#f5f5f5"/>
            <rect id="Rectángulo_50085" data-name="Rectángulo 50085" width="6.145" height="15.324" transform="translate(50.624 102.722)" fill="#e6e6e6"/>
            <path id="Trazado_209374" data-name="Trazado 209374" d="M46.622,124.332l7.621,7.662,7.621-7.662Z" transform="translate(-11.24 -21.61)" fill="#ebebeb"/>
            <rect id="Rectángulo_50086" data-name="Rectángulo 50086" width="15.242" height="15.324" transform="translate(51.648 102.722)" fill="#f5f5f5"/>
            <rect id="Rectángulo_50087" data-name="Rectángulo 50087" width="6.145" height="15.324" transform="translate(66.89 102.722)" fill="#e6e6e6"/>
            <path id="Trazado_209375" data-name="Trazado 209375" d="M68.056,124.332l7.621,7.662,7.621-7.662Z" transform="translate(-16.408 -21.61)" fill="#ebebeb"/>
            <rect id="Rectángulo_50088" data-name="Rectángulo 50088" width="10.405" height="10.46" transform="translate(229.029 10.46)" fill="#f5f5f5"/>
            <rect id="Rectángulo_50089" data-name="Rectángulo 50089" width="4.194" height="10.46" transform="translate(239.433 10.46)" fill="#e6e6e6"/>
            <path id="Trazado_209376" data-name="Trazado 209376" d="M301.789,12.661l5.2,5.23,5.2-5.23Z" transform="translate(-72.759 -2.201)" fill="#ebebeb"/>
            <rect id="Rectángulo_50090" data-name="Rectángulo 50090" width="10.404" height="10.46" transform="translate(240.133 10.46)" fill="#f5f5f5"/>
            <rect id="Rectángulo_50091" data-name="Rectángulo 50091" width="4.194" height="10.46" transform="translate(250.537 10.46)" fill="#e6e6e6"/>
            <path id="Trazado_209377" data-name="Trazado 209377" d="M316.419,12.661l5.2,5.23,5.2-5.23Z" transform="translate(-76.287 -2.201)" fill="#ebebeb"/>
            <rect id="Rectángulo_50092" data-name="Rectángulo 50092" width="10.405" height="10.46" transform="translate(251.236 10.46)" fill="#f5f5f5"/>
            <rect id="Rectángulo_50093" data-name="Rectángulo 50093" width="4.194" height="10.46" transform="translate(261.641 10.46)" fill="#e6e6e6"/>
            <path id="Trazado_209378" data-name="Trazado 209378" d="M331.05,12.661l5.2,5.23,5.2-5.23Z" transform="translate(-79.814 -2.201)" fill="#ebebeb"/>
            <rect id="Rectángulo_50094" data-name="Rectángulo 50094" width="10.405" height="10.46" transform="translate(234.231)" fill="#f5f5f5"/>
            <rect id="Rectángulo_50095" data-name="Rectángulo 50095" width="4.194" height="10.46" transform="translate(244.636)" fill="#e6e6e6"/>
            <path id="Trazado_209379" data-name="Trazado 209379" d="M308.643,0l5.2,5.23,5.2-5.23Z" transform="translate(-74.412 0)" fill="#ebebeb"/>
            <rect id="Rectángulo_50096" data-name="Rectángulo 50096" width="10.404" height="10.46" transform="translate(245.335)" fill="#f5f5f5"/>
            <rect id="Rectángulo_50097" data-name="Rectángulo 50097" width="4.194" height="10.46" transform="translate(255.739)" fill="#e6e6e6"/>
            <path id="Trazado_209380" data-name="Trazado 209380" d="M323.274,0l5.2,5.23,5.2-5.23Z" transform="translate(-77.939 0)" fill="#ebebeb"/>
          </g>
        </g>
        <g id="Grupo_172727" data-name="Grupo 172727">
          <g id="Grupo_172726" data-name="Grupo 172726" clip-path="url(#clip-path-2)">
            <path id="Trazado_209381" data-name="Trazado 209381" d="M294.287,344.478c0,5.167-65.878,9.355-147.144,9.355S0,349.645,0,344.478s65.878-9.355,147.144-9.355,147.144,4.189,147.144,9.355" transform="translate(0 -58.247)" fill="#b0c0d2"/>
          </g>
        </g>
        <g id="Grupo_172741" data-name="Grupo 172741">
          <g id="Grupo_172740" data-name="Grupo 172740" clip-path="url(#clip-path-2)">
            <path id="Trazado_209382" data-name="Trazado 209382" d="M241.012,124.094H147.669c-13.134,0-23.78,11.591-23.78,25.889V281.907c0,14.3,10.647,25.889,23.78,25.889h93.342c13.134,0,23.781-11.591,23.781-25.889V149.983c0-14.3-10.647-25.889-23.781-25.889" transform="translate(-29.869 -21.569)" fill="#15d3ec"/>
            <rect id="Rectángulo_50100" data-name="Rectángulo 50100" width="88.623" height="28.913" transform="translate(120.161 90.779)" fill="#15d3ec"/>
            <g id="Grupo_172730" data-name="Grupo 172730" transform="translate(120.16 90.779)" opacity="0.3">
              <g id="Grupo_172729" data-name="Grupo 172729">
                <g id="Grupo_172728" data-name="Grupo 172728" clip-path="url(#clip-path-5)">
                  <path id="Trazado_209383" data-name="Trazado 209383" d="M246.957,114.283l-88.623,2.845v-7.251h88.623Z" transform="translate(-158.333 -109.876)" fill="#263238"/>
                </g>
              </g>
            </g>
            <path id="Trazado_209384" data-name="Trazado 209384" d="M248.682,75.043H153.018a2.23,2.23,0,0,0-2.129,2.318v25.887a2.229,2.229,0,0,0,2.129,2.317h95.664a2.23,2.23,0,0,0,2.13-2.317V77.361a2.23,2.23,0,0,0-2.13-2.318" transform="translate(-36.378 -13.043)" fill="#b0c0d2"/>
            <g id="Grupo_172736" data-name="Grupo 172736" transform="translate(132.977 144.389)" opacity="0.9">
              <g id="Grupo_172735" data-name="Grupo 172735">
                <g id="Grupo_172734" data-name="Grupo 172734" clip-path="url(#clip-path-6)">
                  <path id="Trazado_209386" data-name="Trazado 209386" d="M277.169,275.192H187.491c-6.776,0-12.268-5.98-12.268-13.357V188.122c0-7.376,5.493-13.356,12.268-13.356h89.678Z" transform="translate(-175.222 -174.765)" fill="#fff"/>
                </g>
              </g>
            </g>
            <g id="Grupo_172739" data-name="Grupo 172739" transform="translate(94.02 144.389)" opacity="0.9">
              <g id="Grupo_172738" data-name="Grupo 172738">
                <g id="Grupo_172737" data-name="Grupo 172737" clip-path="url(#clip-path-7)">
                  <path id="Trazado_209387" data-name="Trazado 209387" d="M123.889,275.192h10.245c6.775,0,12.268-5.98,12.268-13.357V188.122c0-7.376-5.493-13.356-12.268-13.356H123.889Z" transform="translate(-123.889 -174.765)" fill="#fff"/>
                </g>
              </g>
            </g>
          </g>
        </g>
        <g id="Grupo_172764" data-name="Grupo 172764">
          <g id="Grupo_172763" data-name="Grupo 172763" clip-path="url(#clip-path-2)">
            <path id="Trazado_209388" data-name="Trazado 209388" d="M16.975,204.644l-3.011.583c-2.777,2.089-.1,6.488-.1,6.488l.663,2.8a1.643,1.643,0,0,0,1.843,1.379l2.107-.386A2.123,2.123,0,0,0,20,213.137l-.276-2.531a5.542,5.542,0,0,0-.622-2.042Z" transform="translate(-3.063 -35.569)" fill="#ffc3bd"/>
            <path id="Trazado_209389" data-name="Trazado 209389" d="M30.451,151.541l-2.92,5.688-2.913,5.734-2.8,5.735-1.331,2.853-.638,1.415-.159.353-.079.177c-.036.082-.015.026-.027.045l-.043.015a.287.287,0,0,0-.08.04c-.012.028-.027-.017-.035.078l0,.848.008,3.395c.009,2.262-.017,4.526-.034,6.788l-.124,6.787c-.07,2.262-.127,4.523-.243,6.784l-9.5.5c-.357-2.208-.653-4.418-.964-6.625l-.844-6.623c-.257-2.208-.523-4.414-.754-6.622L6.626,175.6l-.087-.827a15.717,15.717,0,0,1,.288-4.876,15.464,15.464,0,0,1,.433-1.58l.332-.973.578-1.671c.39-1.1.8-2.191,1.213-3.265q1.233-3.233,2.583-6.353c1.786-4.195,3.628-8.234,5.7-12.327Z" transform="translate(-1.559 -24.981)" fill="#15d3ec"/>
            <path id="Trazado_209391" data-name="Trazado 209391" d="M98.6,129.367c1.638-14.4,3.029-24.59,11.014-24.592,5.935,0,12.017,12.893,10.742,27.332-1.221,13.816-8.563,24.107-16.218,24.907L99.473,298.723a5.741,5.741,0,0,1-5.413,5.608H90.91c-2.825,0-4.916-2.535-4.629-5.608l13.5-144.486c-3.129-4.43-2.353-14.567-1.182-24.87" transform="translate(-20.795 -18.211)" fill="#407bff"/>
            <g id="Grupo_172747" data-name="Grupo 172747" transform="translate(65.459 86.564)" opacity="0.8">
              <g id="Grupo_172746" data-name="Grupo 172746">
                <g id="Grupo_172745" data-name="Grupo 172745" clip-path="url(#clip-path-9)">
                  <path id="Trazado_209392" data-name="Trazado 209392" d="M98.6,129.367c1.638-14.4,3.029-24.59,11.014-24.592,5.935,0,12.017,12.893,10.742,27.332-1.221,13.816-8.563,24.107-16.218,24.907L99.473,298.723a5.741,5.741,0,0,1-5.413,5.608H90.91c-2.825,0-4.916-2.535-4.629-5.608l13.5-144.486c-3.129-4.43-2.353-14.567-1.182-24.87" transform="translate(-86.254 -104.775)" fill="#fff"/>
                </g>
              </g>
            </g>
            <path id="Trazado_209393" data-name="Trazado 209393" d="M72.394,340.505c-5.321-.446-8.119-4.4-7.986-8.6.073-2.312-6.729-2.519-6.729-2.519,1.487,7.171.2,8.193-.138,10.046s-.111,3.9,1.3,3.938c1.685.046,2.447-.3,4.543-.216,2.45.1,4.1.207,8.446.216,1.736,0,2.935-2.667.568-2.866" transform="translate(-13.84 -57.25)" fill="#12263f"/>
            <path id="Trazado_209394" data-name="Trazado 209394" d="M21.41,340.706c-3.447-1.274-3.619-5.155-3.162-9.161.268-2.361-6.493-1.9-6.493-1.9-.489,5.7-1.446,5.932-2.361,7.665s-.955,3.628.358,4.154c1.573.63,2.443.455,4.49.849a35.8,35.8,0,0,0,7.473,1.1c1.736,0,1.906-1.886-.305-2.7" transform="translate(-2.105 -57.289)" fill="#12263f"/>
            <path id="Trazado_209395" data-name="Trazado 209395" d="M62.033,191.1s3.285,29.18.247,54.491c.166,21.417-2.652,63.252-2.652,63.252a13.573,13.573,0,0,1-7.046-.07s-10.449-29.14-7.751-63.546c-9.923-34.487-9.216-53.078-9.216-53.078Z" transform="translate(-8.584 -33.215)" fill="#7e5ee3"/>
            <path id="Trazado_209396" data-name="Trazado 209396" d="M45.659,191.6s-5.4,41.858-11.309,61.8c-6.21,20.942-15.127,53.529-15.327,55.086-2.754.278-5.32.224-7.371-.744,0,0-3.225-36.683,4.723-59.424,2-47.47,6.678-55.82,6.678-55.82Z" transform="translate(-2.653 -33.303)" fill="#7e5ee3"/>
            <path id="Trazado_209397" data-name="Trazado 209397" d="M37.162,122.971c1.059,4.02,2.182,10.6.831,14.184,0,0,4.935.069,12.171,5.9,3.133-5.425-.159-6.334-.159-6.334-2.947-.63-3.54-4.482-3.637-7.5Z" transform="translate(-8.96 -21.373)" fill="#ffc3bd"/>
            <path id="Trazado_209398" data-name="Trazado 209398" d="M58.677,149.383c.033-4.9-3.124-8.354-8.856-9.47-5.3-1.031-12.693-1.179-17.561.441s-6.3,4.592-5.381,8.643c3.965,17.466-.754,28.956-.061,34.385,12.168,1.258,30.424.953,33.049-1.312,1.759-2.768-.812-17.757-1.8-19.943,4.764-3.853.593-10.009.612-12.744" transform="translate(-6.417 -24.183)" fill="#407bff"/>
            <path id="Trazado_209399" data-name="Trazado 209399" d="M54.684,113.624c.106.539.455.915.779.839s.5-.574.394-1.114-.455-.915-.779-.84-.5.575-.394,1.115" transform="translate(-13.177 -19.553)" fill="#263238"/>
            <path id="Trazado_209400" data-name="Trazado 209400" d="M55.032,112.451l1.116-.652s-.411,1.155-1.116.652" transform="translate(-13.268 -19.432)" fill="#263238"/>
            <path id="Trazado_209401" data-name="Trazado 209401" d="M55.2,115.13a14.462,14.462,0,0,0,2.447,3.03,2.084,2.084,0,0,1-1.7.775Z" transform="translate(-13.309 -20.011)" fill="#ed847e"/>
            <path id="Trazado_209402" data-name="Trazado 209402" d="M54.159,117.343c-1.6,0-2.913-2.419-2.93-5.4a8.389,8.389,0,0,1,.8-3.8,2.536,2.536,0,0,1,2.078-1.647h.011c1.6,0,2.913,2.419,2.93,5.4a8.379,8.379,0,0,1-.8,3.8,2.539,2.539,0,0,1-2.079,1.647Zm-.041-10.431h-.009c-.655,0-1.276.514-1.749,1.435a7.941,7.941,0,0,0-.751,3.591c.016,2.756,1.16,4.992,2.55,4.992h.009c.655,0,1.276-.514,1.749-1.435a7.941,7.941,0,0,0,.751-3.591c-.016-2.756-1.159-4.992-2.55-4.992" transform="translate(-12.351 -18.51)" fill="#263238"/>
            <path id="Trazado_209403" data-name="Trazado 209403" d="M54.569,109.731a.345.345,0,0,0,.058-.233.3.3,0,0,0-.331-.283,2.986,2.986,0,0,0-2.284,1.6.338.338,0,0,0,.135.434.288.288,0,0,0,.4-.146,2.373,2.373,0,0,1,1.821-1.248.29.29,0,0,0,.2-.127" transform="translate(-12.532 -18.982)" fill="#263238"/>
            <path id="Trazado_209404" data-name="Trazado 209404" d="M32.95,114.895c1.675,6.54,2.259,9.347,5.945,12.043,5.545,4.054,12.411.408,12.529-6.539.106-6.253-2.65-15.9-9.014-17.167-6.269-1.251-11.135,5.124-9.46,11.664" transform="translate(-7.864 -17.915)" fill="#ffc3bd"/>
            <path id="Trazado_209405" data-name="Trazado 209405" d="M18.9,142.278c3.319-4.832,18.425-5.28,29.745-3.363s10.316,14.129,10.561,22.491,2.927,67.219-.52,89.378c-15.67,2.892-40.486,1.239-47.683-1.376,1.53-7.987,7.112-69.029,7.2-84.818.041-7.716-2.8-17.216.7-22.311" transform="translate(-2.653 -23.961)" fill="#81d4fa"/>
            <g id="Grupo_172753" data-name="Grupo 172753" transform="translate(50.255 138.031)" opacity="0.5">
              <g id="Grupo_172752" data-name="Grupo 172752">
                <g id="Grupo_172751" data-name="Grupo 172751" clip-path="url(#clip-path-10)">
                  <path id="Trazado_209407" data-name="Trazado 209407" d="M72.836,175.388c-2.6-2.677-4.888-5.3-5.73-7.023-3.02-6.155,2.345,11.137,6.155,19.953-.144-4.916-.3-9.328-.424-12.93" transform="translate(-66.22 -167.069)" fill="#407bff"/>
                </g>
              </g>
            </g>
            <path id="Trazado_209408" data-name="Trazado 209408" d="M98.905,174.718l-.4,3.3c.993,3.512,5.652,2.061,5.652,2.061l2.652.156a1.667,1.667,0,0,0,1.764-1.5l.3-2.3a2.11,2.11,0,0,0-1.617-2.3l-2.3-.477a4.436,4.436,0,0,0-1.976.031Z" transform="translate(-23.75 -30.166)" fill="#ffc3bd"/>
            <path id="Trazado_209409" data-name="Trazado 209409" d="M97.939,174.815c1.292-2.512,4.172-2.341,6.368-2.842.373-.085,1.063.7.65,1.192a2.914,2.914,0,0,1-2.063,1.184,3.352,3.352,0,0,1-3.851,2.97,3.806,3.806,0,0,1-1.1-2.5" transform="translate(-23.612 -29.889)" fill="#ffc3bd"/>
            <path id="Trazado_209410" data-name="Trazado 209410" d="M67.164,146.162l1.084,2.344,1.157,2.418c.782,1.609,1.562,3.219,2.384,4.789s1.664,3.111,2.511,4.623c.425.756.867,1.489,1.3,2.214.216.373.439.721.661,1.073l.333.53.167.265.049.093a2.929,2.929,0,0,0,1.084,1.156,7.623,7.623,0,0,0,1.645.464c.725.164,1.49.293,2.274.41,1.564.244,3.2.411,4.854.549.829.064,1.664.139,2.5.183l2.453.13L92.66,177.7c-1.014.245-1.892.43-2.835.6s-1.861.336-2.8.466a55.3,55.3,0,0,1-5.754.5c-.984.034-1.983.026-3.016-.021-.508-.013-1.039-.058-1.57-.1a12.486,12.486,0,0,1-2.02-.333,14.964,14.964,0,0,1-7.773-4.893l-.622-.763-.485-.606c-.324-.406-.65-.81-.952-1.22-.628-.813-1.218-1.644-1.8-2.473-1.162-1.656-2.263-3.338-3.289-5.048s-2.048-3.417-2.994-5.168q-.7-1.316-1.387-2.65c-.468-.906-.88-1.754-1.355-2.785Z" transform="translate(-13.021 -25.404)" fill="#81d4fa"/>
            <g id="Grupo_172759" data-name="Grupo 172759" transform="translate(20.78 155.795)" opacity="0.5">
              <g id="Grupo_172758" data-name="Grupo 172758">
                <g id="Grupo_172757" data-name="Grupo 172757" clip-path="url(#clip-path-11)">
                  <path id="Trazado_209412" data-name="Trazado 209412" d="M40.958,190.953s-10.512-.77-13.577-2.383c3.7,2.671,8.765,3.028,13.577,2.383" transform="translate(-27.381 -188.57)" fill="#407bff"/>
                </g>
              </g>
            </g>
            <g id="Grupo_172762" data-name="Grupo 172762" transform="translate(23.008 158.807)" opacity="0.5">
              <g id="Grupo_172761" data-name="Grupo 172761">
                <g id="Grupo_172760" data-name="Grupo 172760" clip-path="url(#clip-path-12)">
                  <path id="Trazado_209413" data-name="Trazado 209413" d="M40.479,192.671s-7.74.43-10.162-.454c3.008,1.595,6.738,1.376,10.162.454" transform="translate(-30.317 -192.216)" fill="#407bff"/>
                </g>
              </g>
            </g>
            <path id="Trazado_209414" data-name="Trazado 209414" d="M37.588,99.261c-12.058-5.692-22.767-.582-18.8,8.843s-5.144,11.247-6.83,21.91,2.139,18.454,12.142,21.849c12.851,4.36,24.674,2.387,23.948-10.747s-7.818-22.025-5.806-28.36,3.614-15.606-4.65-13.494" transform="translate(-2.789 -16.838)" fill="#12263f"/>
            <path id="Trazado_209415" data-name="Trazado 209415" d="M50.211,115.617a.165.165,0,0,1-.065-.013.211.211,0,0,1-.112-.265c.42-1.243,5.837-3.1,6.454-3.31a.187.187,0,0,1,.237.136.211.211,0,0,1-.125.259c-2.258.762-5.941,2.265-6.21,3.058a.191.191,0,0,1-.178.135" transform="translate(-12.06 -19.47)" fill="#263238"/>
            <path id="Trazado_209416" data-name="Trazado 209416" d="M48.607,119.044a4.227,4.227,0,0,0,2.454,2.652c1.386.436,2.076-1.472,1.689-3.374-.348-1.713-1.49-4-2.879-3.584-1.369.413-1.9,2.633-1.263,4.306" transform="translate(-11.654 -19.934)" fill="#ffc3bd"/>
          </g>
        </g>
        <g id="Grupo_172769" data-name="Grupo 172769">
          <g id="Grupo_172768" data-name="Grupo 172768" clip-path="url(#clip-path-2)">
            <g id="Grupo_172767" data-name="Grupo 172767" transform="translate(170.337 62)" opacity="0.1">
              <g id="Grupo_172766" data-name="Grupo 172766">
                <g id="Grupo_172765" data-name="Grupo 172765" clip-path="url(#clip-path-14)">
                  <path id="Trazado_209417" data-name="Trazado 209417" d="M278.665,294.762a24.542,24.542,0,0,0,3.769-3.488h-42.3l-2.054-41.787h50.954V246H237.912l-2.054-41.787h53.179v-3.488h-53.35l-2.054-41.787h55.4v-3.488H233.462l-2.054-41.787H262.9v-3.488H231.236l-1.727-35.13h-5.059L235.47,299.27h5.06l-.222-4.508Z" transform="translate(-224.451 -75.043)" fill="#263238"/>
                </g>
              </g>
            </g>
          </g>
        </g>
        <path id="Trazado_209418" data-name="Trazado 209418" d="M288.718,49.669l1.3,8.262H230.824l-1.3-8.262h-5.059l38.8,246.388h5.06l-1.3-8.262h59.195l1.3,8.262h5.06l-38.8-246.388Zm1.85,11.75,6.581,41.787H237.954l-6.581-41.787ZM252.212,193.757l-6.58-41.787h59.195l6.58,41.787Zm59.744,3.488,6.58,41.787H259.342l-6.58-41.787Zm-66.873-48.763-6.58-41.787H297.7l6.58,41.787Zm21.388,135.826L259.89,242.52h59.195l6.58,41.787Z" transform="translate(-54.117 -156.426)" fill="#12263f"/>
        <g id="Grupo_172798" data-name="Grupo 172798" transform="translate(0 -147.793)">
          <g id="Grupo_172797" data-name="Grupo 172797" clip-path="url(#clip-path-15)">
            <path id="Trazado_209419" data-name="Trazado 209419" d="M305.243,48.449a6.439,6.439,0,0,1,2.627-3.244,6.594,6.594,0,0,0-.243-4.087l13.628-6.246c-.715,5.161-1.27,9.238.658,11.521-2.605,2.1-7.386,5.893-12.912,6.264s-4.481-2-3.758-4.209" transform="translate(-73.451 -6.061)" fill="#b55b52"/>
            <path id="Trazado_209420" data-name="Trazado 209420" d="M303.687,26.167l.08,5.027a3.645,3.645,0,0,1-2.8-.375,10.512,10.512,0,0,1,2.725-4.651" transform="translate(-72.56 -4.548)" fill="#a02724"/>
            <path id="Trazado_209421" data-name="Trazado 209421" d="M304.235,25.121c-.052.595-.383,1.045-.741,1s-.606-.555-.554-1.151.383-1.045.741-1,.606.555.554,1.151" transform="translate(-73.035 -4.166)" fill="#263238"/>
            <path id="Trazado_209422" data-name="Trazado 209422" d="M303.863,19.606a.34.34,0,0,0,.194.255,2.719,2.719,0,0,1,1.57,1.866.321.321,0,0,0,.379.273.355.355,0,0,0,.254-.413,3.415,3.415,0,0,0-1.96-2.379.316.316,0,0,0-.42.2.372.372,0,0,0-.017.2" transform="translate(-73.258 -3.334)" fill="#263238"/>
            <path id="Trazado_209423" data-name="Trazado 209423" d="M322.983,22.637c-1.047,7.265-1.9,12.174-6.064,14.861-8.27,5.337-12.571.875-13.542-6.6-.874-6.732.986-17.481,7.814-19.65,6.728-2.137,12.838,4.128,11.792,11.393" transform="translate(-73.094 -1.881)" fill="#b55b52"/>
            <path id="Trazado_209424" data-name="Trazado 209424" d="M308.926,24.971c-3.036-.723-3.954-4.331-2.079-5.7-1.241-2.942-3.033-3.458-2.991-6.936s3.363-7.642,10.245-6.988c-.949.585-1.928,1.1-1.928,1.1s5.287-.962,9.623,1.773,6.735,1.05,6.735,1.05a2.722,2.722,0,0,1-1.454,2.272c1.106.62,3.731,6.334-.316,11.222s-5.422,8.142-4.016,10.1c-2.023,2.329-6.861,2.191-9.968.321-3.187-1.919-3.85-8.216-3.85-8.216" transform="translate(-73.258 -0.918)" fill="#12263f"/>
            <path id="Trazado_209425" data-name="Trazado 209425" d="M313.648,27.324a5.9,5.9,0,0,1-2.756,3.528c-1.751.953-3.014-.651-2.853-2.659.146-1.808,1.233-4.482,3.148-4.6,1.886-.116,2.995,1.853,2.461,3.732" transform="translate(-74.263 -4.1)" fill="#b55b52"/>
            <path id="Trazado_209426" data-name="Trazado 209426" d="M302.774,257.784l10.285.107L312.67,271.1l-8.593-.074Z" transform="translate(-72.997 -44.805)" fill="#b55b52"/>
            <g id="Grupo_172772" data-name="Grupo 172772" transform="translate(229.779 212.983)" opacity="0.2">
              <g id="Grupo_172771" data-name="Grupo 172771">
                <g id="Grupo_172770" data-name="Grupo 172770" clip-path="url(#clip-path-16)">
                  <path id="Trazado_209427" data-name="Trazado 209427" d="M302.777,257.789l10.288.107-.219,7.4-9.341-.088Z" transform="translate(-302.777 -257.789)"/>
                </g>
              </g>
            </g>
            <path id="Trazado_209428" data-name="Trazado 209428" d="M309.122,183.287c3.589-17.38,9.533-35.736,3.272-51.335l-28.58,2.716s2.827,37,3.592,52.632c.794,16.256,10.483,53.761,10.483,53.761l11.77.032s1.833-39.808-.536-57.806" transform="translate(-68.426 -22.934)" fill="#7e5ee3"/>
            <path id="Trazado_209429" data-name="Trazado 209429" d="M311.71,277.571H309l-.656-.988-1.124,1H292.055a6.888,6.888,0,0,1,.408-3.366s5.261-.929,7.3-2.452a1.468,1.468,0,0,1,1.2-.266c1.837.387,6.691,1.241,9.316.126a.465.465,0,0,1,.587.436,39.061,39.061,0,0,0,.846,5.512" transform="translate(-70.392 -47.183)" fill="#263238"/>
            <path id="Trazado_209430" data-name="Trazado 209430" d="M360.816,239.8l9.531-4.226,5.1,12-7.958,3.544Z" transform="translate(-86.99 -40.945)" fill="#b55b52"/>
            <g id="Grupo_172775" data-name="Grupo 172775" transform="translate(273.829 194.628)" opacity="0.2">
              <g id="Grupo_172774" data-name="Grupo 172774">
                <g id="Grupo_172773" data-name="Grupo 172773" clip-path="url(#clip-path-17)">
                  <path id="Trazado_209431" data-name="Trazado 209431" d="M360.821,239.8l9.535-4.228,2.854,6.72-8.653,3.847Z" transform="translate(-360.821 -235.573)"/>
                </g>
              </g>
            </g>
            <path id="Trazado_209432" data-name="Trazado 209432" d="M347.012,179.82c-.578-16.97-1.552-42.344-7.4-49.6l-31.983,2.365s11.948,36.1,16.557,51.355c4.79,15.862,25.682,42.27,25.682,42.27l10.274-4.646s-7.367-22.884-13.134-41.747" transform="translate(-74.168 -22.634)" fill="#7e5ee3"/>
            <path id="Trazado_209433" data-name="Trazado 209433" d="M294.565,49.162a119.159,119.159,0,0,1,28.518-2.312c5.532.3,9.618,5.673,9.033,11.669-2.41,24.713,2.206,53.755,2.148,58.6,0,0-41.686,18.682-52.836,4.53-5.384-29.449,2.362-55.1,5.982-65.82a9.889,9.889,0,0,1,7.154-6.666" transform="translate(-67.406 -8.122)" fill="#407bff"/>
            <g id="Grupo_172778" data-name="Grupo 172778" transform="translate(218.519 155.925)" opacity="0.1">
              <g id="Grupo_172777" data-name="Grupo 172777">
                <g id="Grupo_172776" data-name="Grupo 172776" clip-path="url(#clip-path-18)">
                  <path id="Trazado_209434" data-name="Trazado 209434" d="M310.114,193.156c.3,2.264.531,4.875.706,7.708a115.983,115.983,0,0,1-21.91,1.95c-.25-2.065-.425-3.966-.508-5.643-.114-2.33-.273-5.131-.463-8.212a180.442,180.442,0,0,0,23.131-.231q-.5,2.218-.956,4.428" transform="translate(-287.939 -188.728)" fill="#263238"/>
                </g>
              </g>
            </g>
            <g id="Grupo_172781" data-name="Grupo 172781" transform="translate(248.192 151.538)" opacity="0.1">
              <g id="Grupo_172780" data-name="Grupo 172780">
                <g id="Grupo_172779" data-name="Grupo 172779" clip-path="url(#clip-path-19)">
                  <path id="Trazado_209435" data-name="Trazado 209435" d="M351.969,189.961A105.149,105.149,0,0,1,330.53,197.7a45.47,45.47,0,0,1-1.662-4.511c-.524-1.735-1.146-3.751-1.829-5.94a215.141,215.141,0,0,0,24.444-3.834c.076,1.958.144,3.85.2,5.651.091.3.19.595.281.892" transform="translate(-327.039 -183.418)" fill="#263238"/>
                </g>
              </g>
            </g>
            <path id="Trazado_209436" data-name="Trazado 209436" d="M342.1,159.859c-6.056,6.585-31.29,14.789-51.006,11.468a52.365,52.365,0,0,1-2.754-8.576,38.931,38.931,0,0,0-.608,7.874,36.909,36.909,0,0,1-5.919-1.983c-1.343-11.22-4.819-55.016-3.248-78.439s8.682-38.178,10.139-39.277,11.179-4.09,22.35-5.015c10.207-.843,19.307,1.892,21.075,5.2,2.907,4.941.668,41.541,1.791,52.884s7.285,38.063,8.181,55.867" transform="translate(-67.065 -7.953)" fill="#81d4fa"/>
            <path id="Trazado_209438" data-name="Trazado 209438" d="M379.706,250.06l-1.692,1.593-1.052-.316-.288,1.59-10.213,9.613a6.76,6.76,0,0,1-1.586-2.957s2.814-3.177,2.672-5.939a.56.56,0,0,1,.247-.52c1.2-.725,5.9-3.7,7.433-6.661a.463.463,0,0,1,.787-.107,33.789,33.789,0,0,0,3.693,3.7" transform="translate(-87.969 -42.789)" fill="#263238"/>
            <path id="Trazado_209439" data-name="Trazado 209439" d="M239.01,89.92l.185,4.713c-1.429,4.707-6.669,1.659-6.669,1.659l-3.063-.358a2.446,2.446,0,0,1-1.906-2.484l-.153-3.294a2.568,2.568,0,0,1,2.048-2.871l2.684-.168a4.411,4.411,0,0,1,2.27.473Z" transform="translate(-54.825 -15.14)" fill="#b55b52"/>
            <path id="Trazado_209440" data-name="Trazado 209440" d="M241.353,90.228c-1.28-3.8-4.606-4.189-7.09-5.368-.422-.2-1.28.754-.845,1.529a3.912,3.912,0,0,0,2.276,2.108c-.064,1.265.907,4.774,4.185,5a5.372,5.372,0,0,0,1.475-3.27" transform="translate(-56.247 -14.745)" fill="#b55b52"/>
            <g id="Grupo_172787" data-name="Grupo 172787" transform="translate(211.368 63.519)" opacity="0.5">
              <g id="Grupo_172786" data-name="Grupo 172786">
                <g id="Grupo_172785" data-name="Grupo 172785" clip-path="url(#clip-path-20)">
                  <path id="Trazado_209441" data-name="Trazado 209441" d="M281.1,77.75a126.2,126.2,0,0,0-2.451,17.862q-.08,1.165-.137,2.4c5.36-5.315,8.9-13.54,8.9-18.672.006-2.49-3.089-3.222-6.314-1.595" transform="translate(-278.516 -76.882)" fill="#407bff"/>
                </g>
              </g>
            </g>
            <g id="Grupo_172790" data-name="Grupo 172790" transform="translate(245.631 92.53)" opacity="0.5">
              <g id="Grupo_172789" data-name="Grupo 172789">
                <g id="Grupo_172788" data-name="Grupo 172788" clip-path="url(#clip-path-21)">
                  <path id="Trazado_209442" data-name="Trazado 209442" d="M323.664,115.487s12.6-1.129,16.276-3.492c-4.433,3.915-10.507,4.438-16.276,3.492" transform="translate(-323.664 -111.996)" fill="#407bff"/>
                </g>
              </g>
            </g>
            <g id="Grupo_172793" data-name="Grupo 172793" transform="translate(247.054 96.945)" opacity="0.5">
              <g id="Grupo_172792" data-name="Grupo 172792">
                <g id="Grupo_172791" data-name="Grupo 172791" clip-path="url(#clip-path-22)">
                  <path id="Trazado_209443" data-name="Trazado 209443" d="M325.539,118.005s9.279.631,12.182-.665c-3.606,2.337-8.077,2.018-12.182.665" transform="translate(-325.539 -117.34)" fill="#407bff"/>
                </g>
              </g>
            </g>
            <path id="Trazado_209444" data-name="Trazado 209444" d="M291.4,64.824c-1.72,2.012-3.47,3.932-5.215,5.887-1.753,1.94-3.542,3.843-5.324,5.759-3.562,3.838-7.213,7.579-11.006,11.3l-1.564,1.533-1.385.416a43.23,43.23,0,0,1-7.205,1.407c-2.246.289-4.439.451-6.612.579s-4.333.185-6.486.193c-2.165-.011-4.28-.019-6.487-.138l-.776-11.843,6.036-1.34c2.016-.442,4.023-.886,6-1.352,1.985-.444,3.94-.946,5.821-1.45a37.729,37.729,0,0,0,5.038-1.661l-2.949,1.948,9.869-11.83,4.955-5.975c1.67-1.968,3.326-3.981,5-5.917Z" transform="translate(-57.704 -9.098)" fill="#81d4fa"/>
          </g>
        </g>
      </g>
    </g>
  </g>
</svg>
