<svg id="Grupo_168467" data-name="Grupo 168467" xmlns="http://www.w3.org/2000/svg" width="104.566" height="104.566" viewBox="0 0 104.566 104.566">
  <circle id="Elipse_5382" data-name="Elipse 5382" cx="52.283" cy="52.283" r="52.283" fill="#4722bb"/>
  <path id="matraz" d="M18.95,51.92c1,1-.559,2.619-1.589,1.588C16.36,52.506,17.921,50.889,18.95,51.92Zm-4.755,3.227L9.779,59.563a1.08,1.08,0,0,0,1.527,1.528l4.416-4.416a1.08,1.08,0,0,0-1.527-1.528ZM50.655,34.3l-11.1-11.1a4.869,4.869,0,0,0-6.142-.6,1.08,1.08,0,0,0,1.2,1.794,2.7,2.7,0,0,1,3.411.336l11.1,11.1A2.706,2.706,0,0,1,45.3,39.655l-11.1-11.1a1.08,1.08,0,0,0-1.527,0c-.061.061,1.593-1.585-30.07,30.078A8.922,8.922,0,0,0,15.224,71.252c.285-.285,25.066-25.065,25.137-25.138,1.4-1.463-2.687-3.819-4.128-4.3-3.92-1.315-7.016.754-10.495,1.317a1.08,1.08,0,0,0,.345,2.133c4.293-.7,7.944-3.53,11.973.1L13.7,69.725a6.762,6.762,0,0,1-9.562-9.562l29.31-29.31,10.33,10.33A4.866,4.866,0,0,0,50.655,34.3Zm12.49,14.29a1.08,1.08,0,1,0-1.644,1.4,4.817,4.817,0,0,1-.26,6.495l-.358.358a4.791,4.791,0,0,1-6.779,0,4.852,4.852,0,0,1-.358-6.8c3.273-3.73,2.729-5.262,3.871-5.275a1.08,1.08,0,0,0,1.068-1.092c-.018-1.66-2.847-1.329-3.771.658a17.965,17.965,0,0,1-2.792,4.284,7.094,7.094,0,0,0,10.288,9.749l.358-.358a6.988,6.988,0,0,0,.377-9.423ZM53.868,27.822a1.89,1.89,0,1,1,1.89,1.89A1.892,1.892,0,0,1,53.868,27.822Zm5.468-5.806a1.08,1.08,0,0,0,0-2.16,2.633,2.633,0,1,1,2.633-2.633,1.08,1.08,0,1,0,2.16,0,4.793,4.793,0,1,0-4.793,4.793Z" transform="translate(19.775 12.136)" fill="#fff"/>
  <g id="signo-de-bloque-redondeado" transform="translate(19.776 18.885)">
    <g id="block">
      <path id="Trazado_209581" data-name="Trazado 209581" d="M12.558,0A12.558,12.558,0,1,0,25.116,12.558,12.595,12.595,0,0,0,12.558,0ZM2.512,12.558A10.076,10.076,0,0,1,12.558,2.512a9.9,9.9,0,0,1,6.153,2.135L4.646,18.711A9.9,9.9,0,0,1,2.512,12.558ZM12.558,22.6A9.9,9.9,0,0,1,6.4,20.469L20.469,6.4A9.9,9.9,0,0,1,22.6,12.558,10.076,10.076,0,0,1,12.558,22.6Z" fill="#fff"/>
    </g>
  </g>
</svg>
