<svg xmlns="http://www.w3.org/2000/svg" xmlns:xlink="http://www.w3.org/1999/xlink" width="354" height="255.465" viewBox="0 0 354 255.465">
  <defs>
    <clipPath id="clip-path">
      <rect id="Rectángulo_50697" data-name="Rectángulo 50697" width="335.595" height="232.627" fill="none"/>
    </clipPath>
    <clipPath id="clip-path-2">
      <rect id="Rectángulo_50664" data-name="Rectángulo 50664" width="335.595" height="232.626" fill="none"/>
    </clipPath>
    <clipPath id="clip-path-3">
      <rect id="Rectángulo_50662" data-name="Rectángulo 50662" width="22.352" height="135.613" fill="none"/>
    </clipPath>
    <clipPath id="clip-path-4">
      <rect id="Rectángulo_50663" data-name="Rectángulo 50663" width="58.919" height="139.501" fill="none"/>
    </clipPath>
    <clipPath id="clip-path-5">
      <rect id="Rectángulo_50666" data-name="Rectángulo 50666" width="39.609" height="14.398" rx="7.199" fill="none"/>
    </clipPath>
    <clipPath id="clip-path-7">
      <path id="Trazado_210712" data-name="Trazado 210712" d="M138.033,918.794v80.2a4.478,4.478,0,0,0,4.478,4.478h27.295a4.478,4.478,0,0,0,4.478-4.478v-80.2Z" transform="translate(-138.033 -918.794)" fill="#15d3ec"/>
    </clipPath>
    <clipPath id="clip-path-9">
      <rect id="Rectángulo_50673" data-name="Rectángulo 50673" width="37.409" height="128.83" fill="none"/>
    </clipPath>
    <clipPath id="clip-path-10">
      <path id="Trazado_210717" data-name="Trazado 210717" d="M501.93,738.586c1.145,10.559-11.4,15.757-17.9,21.664a26.594,26.594,0,0,0-10.27,20.995v63.8a6.37,6.37,0,0,0,6.37,6.37c4.314-.1,13.928-.058,23.185-.013,8.311.039,16.334.079,19.972.013h31.821a6.37,6.37,0,0,0,6.37-6.37v-63.8a26.594,26.594,0,0,0-10.27-20.995c-6.518-5.926-19.042-11.1-17.9-21.664Z" transform="translate(-473.758 -738.586)" fill="#ff9d00"/>
    </clipPath>
    <clipPath id="clip-path-12">
      <path id="Trazado_210720" data-name="Trazado 210720" d="M626.4,622.317A4.407,4.407,0,0,0,622,626.724v9.352a4.407,4.407,0,0,0,4.407,4.407h32.545c6.581-.14,3.885-9.675,4.407-13.759a4.407,4.407,0,0,0-4.407-4.407Z" transform="translate(-621.997 -622.317)" fill="none"/>
    </clipPath>
    <linearGradient id="linear-gradient" x1="11.803" y1="1" x2="11.803" gradientUnits="objectBoundingBox">
      <stop offset="0" stop-color="#5891d1"/>
      <stop offset="1" stop-color="#4e7fdf"/>
    </linearGradient>
    <linearGradient id="linear-gradient-2" x1="0.5" y1="1" x2="0.5" y2="0" xlink:href="#linear-gradient"/>
    <linearGradient id="linear-gradient-4" x1="20.498" x2="20.498" y2="1" gradientUnits="objectBoundingBox">
      <stop offset="0" stop-color="#9e263d"/>
      <stop offset="1" stop-color="#81261a"/>
    </linearGradient>
    <linearGradient id="linear-gradient-5" x1="20.742" y1="0" x2="20.742" y2="1" xlink:href="#linear-gradient-4"/>
    <linearGradient id="linear-gradient-6" x1="0.5" x2="0.5" y2="1" gradientUnits="objectBoundingBox">
      <stop offset="0.005" stop-color="#edf7ff"/>
      <stop offset="1" stop-color="#ddf6ff"/>
    </linearGradient>
    <clipPath id="clip-path-17">
      <path id="Trazado_210759" data-name="Trazado 210759" d="M1267.529,448.926l15.554,22.6,18.089-.244-15.73-22.74Z" transform="translate(-1267.529 -448.545)" fill="none"/>
    </clipPath>
    <clipPath id="clip-path-18">
      <rect id="Rectángulo_50692" data-name="Rectángulo 50692" width="26.915" height="24.263" fill="none"/>
    </clipPath>
  </defs>
  <g id="Grupo_162683" data-name="Grupo 162683" transform="translate(57.049 -724.981)">
    <path id="Trazado_202345" data-name="Trazado 202345" d="M412.574,1603.2c0,11.663-79.247,21.12-177,21.12s-177-9.457-177-21.12,79.248-21.115,177-21.115S412.574,1591.536,412.574,1603.2Z" transform="translate(-115.623 -643.87)" fill="#12263f" opacity="0.16"/>
    <g id="Grupo_173598" data-name="Grupo 173598" transform="translate(-38.645 724.981)">
      <g id="Grupo_173597" data-name="Grupo 173597" clip-path="url(#clip-path)">
        <g id="Grupo_173532" data-name="Grupo 173532" transform="translate(0 0)">
          <g id="Grupo_173531" data-name="Grupo 173531" clip-path="url(#clip-path-2)">
            <g id="Grupo_173527" data-name="Grupo 173527" transform="translate(0 92.61)" opacity="0.67">
              <g id="Grupo_173526" data-name="Grupo 173526">
                <g id="Grupo_173525" data-name="Grupo 173525" clip-path="url(#clip-path-3)">
                  <path id="Trazado_210654" data-name="Trazado 210654" d="M.644,728.367,0,596.067a3.3,3.3,0,0,1,3.3-3.313H22.352V728.367Z" transform="translate(0 -592.754)" fill="#a4c4ff"/>
                </g>
              </g>
            </g>
            <path id="Trazado_210655" data-name="Trazado 210655" d="M178.4,534.325H45.863a6.309,6.309,0,0,1-6.309-6.309V369.09a6.309,6.309,0,0,1,6.309-6.309H178.4a6.309,6.309,0,0,1,6.309,6.309V528.016a6.309,6.309,0,0,1-6.309,6.309" transform="translate(-33.374 -306.101)" fill="#d1daf7"/>
            <path id="Trazado_210656" data-name="Trazado 210656" d="M103.6,506.538H89.865a4.7,4.7,0,0,1,0-9.4H103.6Z" transform="translate(-71.858 -419.465)" fill="#fff"/>
            <path id="Trazado_210657" data-name="Trazado 210657" d="M203.152,497.136h13.733a4.7,4.7,0,0,1,0,9.4H203.152Z" transform="translate(-171.412 -419.465)" fill="#a4c4ff"/>
            <path id="Trazado_210658" data-name="Trazado 210658" d="M103.442,616.406H89.709a4.7,4.7,0,1,1,0-9.4h13.733Z" transform="translate(-71.727 -512.168)" fill="#fff"/>
            <path id="Trazado_210659" data-name="Trazado 210659" d="M203,607h13.733a4.7,4.7,0,1,1,0,9.4H203Z" transform="translate(-171.28 -512.168)" fill="#a4c4ff"/>
            <path id="Trazado_210660" data-name="Trazado 210660" d="M103.285,726.275H89.552a4.7,4.7,0,1,1,0-9.4h13.733Z" transform="translate(-71.594 -604.871)" fill="#fff"/>
            <path id="Trazado_210661" data-name="Trazado 210661" d="M202.839,716.872h13.733a4.7,4.7,0,1,1,0,9.4H202.839Z" transform="translate(-171.148 -604.87)" fill="#a4c4ff"/>
            <path id="Trazado_210662" data-name="Trazado 210662" d="M103.129,836.143H89.4a4.7,4.7,0,1,1,0-9.4h13.733Z" transform="translate(-71.462 -697.573)" fill="#fff"/>
            <path id="Trazado_210663" data-name="Trazado 210663" d="M202.683,826.74h13.733a4.7,4.7,0,0,1,0,9.4H202.683Z" transform="translate(-171.016 -697.573)" fill="#a4c4ff"/>
            <path id="Trazado_210664" data-name="Trazado 210664" d="M102.972,946.011H89.239a4.7,4.7,0,1,1,0-9.4h13.733Z" transform="translate(-71.33 -790.276)" fill="#fff"/>
            <path id="Trazado_210665" data-name="Trazado 210665" d="M202.526,936.609h13.733a4.7,4.7,0,1,1,0,9.4H202.526Z" transform="translate(-170.884 -790.276)" fill="#a4c4ff"/>
            <path id="Trazado_210666" data-name="Trazado 210666" d="M102.816,1055.879H89.083a4.7,4.7,0,1,1,0-9.4h13.733Z" transform="translate(-71.198 -882.979)" fill="#fff"/>
            <path id="Trazado_210667" data-name="Trazado 210667" d="M202.37,1046.477H216.1a4.7,4.7,0,1,1,0,9.4H202.37Z" transform="translate(-170.752 -882.979)" fill="#a4c4ff"/>
            <path id="Trazado_210668" data-name="Trazado 210668" d="M102.659,1165.748H88.926a4.7,4.7,0,1,1,0-9.4h13.733Z" transform="translate(-71.066 -975.681)" fill="#fff"/>
            <path id="Trazado_210669" data-name="Trazado 210669" d="M202.213,1156.345h13.733a4.7,4.7,0,0,1,0,9.4H202.213Z" transform="translate(-170.62 -975.681)" fill="#a4c4ff"/>
            <path id="Trazado_210670" data-name="Trazado 210670" d="M102.5,1275.616H88.77a4.7,4.7,0,1,1,0-9.4H102.5Z" transform="translate(-70.934 -1068.384)" fill="#fff"/>
            <path id="Trazado_210671" data-name="Trazado 210671" d="M202.057,1266.213H215.79a4.7,4.7,0,1,1,0,9.4H202.057Z" transform="translate(-170.488 -1068.384)" fill="#a4c4ff"/>
            <path id="Trazado_210672" data-name="Trazado 210672" d="M405.073,506.538H391.34a4.7,4.7,0,1,1,0-9.4h13.733Z" transform="translate(-326.231 -419.465)" fill="#fff"/>
            <path id="Trazado_210673" data-name="Trazado 210673" d="M504.627,497.136H518.36a4.7,4.7,0,0,1,0,9.4H504.627Z" transform="translate(-425.785 -419.465)" fill="#a4c4ff"/>
            <path id="Trazado_210674" data-name="Trazado 210674" d="M404.917,616.406H391.184a4.7,4.7,0,0,1,0-9.4h13.733Z" transform="translate(-326.1 -512.168)" fill="#fff"/>
            <path id="Trazado_210675" data-name="Trazado 210675" d="M504.471,607H518.2a4.7,4.7,0,1,1,0,9.4H504.471Z" transform="translate(-425.654 -512.168)" fill="#a4c4ff"/>
            <path id="Trazado_210676" data-name="Trazado 210676" d="M404.76,726.275H391.027a4.7,4.7,0,0,1,0-9.4H404.76Z" transform="translate(-325.967 -604.871)" fill="#fff"/>
            <path id="Trazado_210677" data-name="Trazado 210677" d="M504.314,716.872h13.733a4.7,4.7,0,0,1,0,9.4H504.314Z" transform="translate(-425.521 -604.87)" fill="#a4c4ff"/>
            <path id="Trazado_210678" data-name="Trazado 210678" d="M404.6,836.143H390.871a4.7,4.7,0,1,1,0-9.4H404.6Z" transform="translate(-325.836 -697.573)" fill="#fff"/>
            <path id="Trazado_210679" data-name="Trazado 210679" d="M504.158,826.74h13.733a4.7,4.7,0,0,1,0,9.4H504.158Z" transform="translate(-425.39 -697.573)" fill="#a4c4ff"/>
            <path id="Trazado_210680" data-name="Trazado 210680" d="M404.447,946.011H390.714a4.7,4.7,0,1,1,0-9.4h13.733Z" transform="translate(-325.703 -790.276)" fill="#fff"/>
            <path id="Trazado_210681" data-name="Trazado 210681" d="M504,936.609h13.733a4.7,4.7,0,1,1,0,9.4H504Z" transform="translate(-425.257 -790.276)" fill="#a4c4ff"/>
            <path id="Trazado_210682" data-name="Trazado 210682" d="M404.291,1055.879H390.558a4.7,4.7,0,1,1,0-9.4h13.733Z" transform="translate(-325.572 -882.979)" fill="#fff"/>
            <path id="Trazado_210683" data-name="Trazado 210683" d="M503.845,1046.477h13.733a4.7,4.7,0,1,1,0,9.4H503.845Z" transform="translate(-425.125 -882.979)" fill="#a4c4ff"/>
            <path id="Trazado_210684" data-name="Trazado 210684" d="M404.134,1165.748H390.4a4.7,4.7,0,0,1,0-9.4h13.733Z" transform="translate(-325.439 -975.681)" fill="#fff"/>
            <path id="Trazado_210685" data-name="Trazado 210685" d="M503.688,1156.345h13.733a4.7,4.7,0,0,1,0,9.4H503.688Z" transform="translate(-424.993 -975.681)" fill="#a4c4ff"/>
            <path id="Trazado_210686" data-name="Trazado 210686" d="M403.978,1275.616H390.245a4.7,4.7,0,0,1,0-9.4h13.733Z" transform="translate(-325.308 -1068.384)" fill="#fff"/>
            <path id="Trazado_210687" data-name="Trazado 210687" d="M503.532,1266.213h13.733a4.7,4.7,0,0,1,0,9.4H503.532Z" transform="translate(-424.861 -1068.384)" fill="#a4c4ff"/>
            <path id="Trazado_210688" data-name="Trazado 210688" d="M706.548,506.538H692.815a4.7,4.7,0,0,1,0-9.4h13.733Z" transform="translate(-580.605 -419.465)" fill="#fff"/>
            <path id="Trazado_210689" data-name="Trazado 210689" d="M806.1,497.136h13.733a4.7,4.7,0,0,1,0,9.4H806.1Z" transform="translate(-680.159 -419.465)" fill="#a4c4ff"/>
            <path id="Trazado_210690" data-name="Trazado 210690" d="M706.392,616.406H692.659a4.7,4.7,0,1,1,0-9.4h13.733Z" transform="translate(-580.473 -512.168)" fill="#fff"/>
            <path id="Trazado_210691" data-name="Trazado 210691" d="M805.946,607h13.733a4.7,4.7,0,1,1,0,9.4H805.946Z" transform="translate(-680.027 -512.168)" fill="#a4c4ff"/>
            <path id="Trazado_210692" data-name="Trazado 210692" d="M706.235,726.275H692.5a4.7,4.7,0,1,1,0-9.4h13.733Z" transform="translate(-580.341 -604.871)" fill="#fff"/>
            <path id="Trazado_210693" data-name="Trazado 210693" d="M805.789,716.872h13.733a4.7,4.7,0,1,1,0,9.4H805.789Z" transform="translate(-679.895 -604.87)" fill="#a4c4ff"/>
            <path id="Trazado_210694" data-name="Trazado 210694" d="M706.079,836.143H692.346a4.7,4.7,0,1,1,0-9.4h13.733Z" transform="translate(-580.209 -697.573)" fill="#fff"/>
            <path id="Trazado_210695" data-name="Trazado 210695" d="M805.633,826.74h13.733a4.7,4.7,0,0,1,0,9.4H805.633Z" transform="translate(-679.763 -697.573)" fill="#a4c4ff"/>
            <path id="Trazado_210696" data-name="Trazado 210696" d="M705.922,946.011H692.189a4.7,4.7,0,1,1,0-9.4h13.733Z" transform="translate(-580.077 -790.276)" fill="#fff"/>
            <path id="Trazado_210697" data-name="Trazado 210697" d="M805.476,936.609h13.733a4.7,4.7,0,1,1,0,9.4H805.476Z" transform="translate(-679.63 -790.276)" fill="#a4c4ff"/>
            <path id="Trazado_210698" data-name="Trazado 210698" d="M705.766,1055.879H692.033a4.7,4.7,0,1,1,0-9.4h13.733Z" transform="translate(-579.945 -882.979)" fill="#fff"/>
            <path id="Trazado_210699" data-name="Trazado 210699" d="M805.32,1046.477h13.733a4.7,4.7,0,1,1,0,9.4H805.32Z" transform="translate(-679.499 -882.979)" fill="#a4c4ff"/>
            <path id="Trazado_210700" data-name="Trazado 210700" d="M705.609,1165.748H691.876a4.7,4.7,0,1,1,0-9.4h13.733Z" transform="translate(-579.813 -975.681)" fill="#fff"/>
            <path id="Trazado_210701" data-name="Trazado 210701" d="M805.163,1156.345H818.9a4.7,4.7,0,0,1,0,9.4H805.163Z" transform="translate(-679.366 -975.681)" fill="#a4c4ff"/>
            <path id="Trazado_210702" data-name="Trazado 210702" d="M705.453,1275.616H691.72a4.7,4.7,0,1,1,0-9.4h13.733Z" transform="translate(-579.681 -1068.384)" fill="#fff"/>
            <path id="Trazado_210703" data-name="Trazado 210703" d="M805.007,1266.213H818.74a4.7,4.7,0,0,1,0,9.4H805.007Z" transform="translate(-679.235 -1068.384)" fill="#a4c4ff"/>
            <g id="Grupo_173530" data-name="Grupo 173530" transform="translate(162.378 88.089)" opacity="0.36">
              <g id="Grupo_173529" data-name="Grupo 173529">
                <g id="Grupo_173528" data-name="Grupo 173528" clip-path="url(#clip-path-4)">
                  <path id="Trazado_210704" data-name="Trazado 210704" d="M1095.858,621.989c-8-18.786-9.549-66.045-41.092-57.046-31.208,10.046-6.165,50.305-2.362,70.266Z" transform="translate(-1039.301 -563.815)" fill="#a4c4ff"/>
                  <path id="Trazado_210705" data-name="Trazado 210705" d="M1119.667,1030.827c2.182,20.3-10.086,65.965,22.71,66.536,32.781-.529,20.539-46.333,22.71-66.536Z" transform="translate(-1106.68 -957.862)" fill="#a4c4ff"/>
                </g>
              </g>
            </g>
            <path id="Trazado_210706" data-name="Trazado 210706" d="M1132.217,537.9l-48.04,14.615c-4.224-22.172-31.893-66.525,2.611-77.682,34.843-9.989,36.632,42.4,45.429,63.067" transform="translate(-902.56 -399.591)" fill="#15d3ec"/>
            <path id="Trazado_210707" data-name="Trazado 210707" d="M1158.573,989.93h50.214c-2.412,22.442,11.151,72.927-25.107,73.559-36.242-.584-22.707-51.224-25.107-73.559" transform="translate(-977.084 -835.266)" fill="#a4c4ff"/>
            <path id="Trazado_210708" data-name="Trazado 210708" d="M1361.964,957.09c-.581-8.323-12.267-11.584-17.117-4.891-2.817-5.979-12.323-3.855-12.21,2.868-.169,5.213,6.369,8.368,10.353,5.117a9.577,9.577,0,0,0,1.674,3.7c-5.58,9.351,1.814,22.211,12.814,21.908,16.572.186,20.111-23.966,4.487-28.7" transform="translate(-1124.426 -800.402)" fill="#fff"/>
            <path id="Trazado_210709" data-name="Trazado 210709" d="M166.359,841.039H129.8a1.525,1.525,0,0,1-1.525-1.525V828.166a1.525,1.525,0,0,1,1.525-1.525h36.56a1.525,1.525,0,0,1,1.525,1.525v11.349a1.525,1.525,0,0,1-1.525,1.525" transform="translate(-108.234 -697.489)" fill="#38385c"/>
          </g>
        </g>
        <g id="Grupo_173534" data-name="Grupo 173534" transform="translate(20.041 129.152)">
          <g id="Grupo_173533" data-name="Grupo 173533" clip-path="url(#clip-path-5)">
            <rect id="Rectángulo_50665" data-name="Rectángulo 50665" width="42.895" height="5.567" transform="translate(-1.37 9.992)" fill="#1a1a35"/>
          </g>
        </g>
        <g id="Grupo_173536" data-name="Grupo 173536" transform="translate(0 0)">
          <g id="Grupo_173535" data-name="Grupo 173535" clip-path="url(#clip-path-2)">
            <path id="Trazado_210710" data-name="Trazado 210710" d="M169.806,1003.468H142.511a4.478,4.478,0,0,1-4.478-4.478v-80.2h36.25v80.2a4.478,4.478,0,0,1-4.478,4.478" transform="translate(-116.467 -775.244)" fill="#a4c4ff"/>
          </g>
        </g>
        <g id="Grupo_173538" data-name="Grupo 173538" transform="translate(21.566 143.55)">
          <g id="Grupo_173537" data-name="Grupo 173537" clip-path="url(#clip-path-7)">
            <path id="Trazado_210711" data-name="Trazado 210711" d="M110.645,998.484l44.068-4.007v74.77H111.689Z" transform="translate(-114.924 -982.652)" fill="#15d3ec"/>
          </g>
        </g>
        <g id="Grupo_173543" data-name="Grupo 173543" transform="translate(0 0)">
          <g id="Grupo_173542" data-name="Grupo 173542" clip-path="url(#clip-path-2)">
            <path id="Trazado_210713" data-name="Trazado 210713" d="M184.214,1105.046H156.7a1.468,1.468,0,0,1-1.468-1.468v-36.839a1.468,1.468,0,0,1,1.468-1.468h27.519a1.468,1.468,0,0,1,1.468,1.468v36.839a1.468,1.468,0,0,1-1.468,1.468" transform="translate(-130.975 -898.836)" fill="#739bfd"/>
            <rect id="Rectángulo_50668" data-name="Rectángulo 50668" width="24.166" height="3.952" transform="translate(27.397 171.809)" fill="#a4c4ff"/>
            <rect id="Rectángulo_50669" data-name="Rectángulo 50669" width="24.166" height="3.952" transform="translate(27.397 178.104)" fill="#a4c4ff"/>
            <rect id="Rectángulo_50670" data-name="Rectángulo 50670" width="24.166" height="3.952" transform="translate(27.397 184.398)" fill="#a4c4ff"/>
            <rect id="Rectángulo_50671" data-name="Rectángulo 50671" width="24.166" height="3.952" transform="translate(27.397 190.693)" fill="#a4c4ff"/>
            <rect id="Rectángulo_50672" data-name="Rectángulo 50672" width="16.027" height="3.952" transform="translate(27.397 196.988)" fill="#a4c4ff"/>
            <g id="Grupo_173541" data-name="Grupo 173541" transform="translate(69.354 99.156)" opacity="0.39">
              <g id="Grupo_173540" data-name="Grupo 173540">
                <g id="Grupo_173539" data-name="Grupo 173539" clip-path="url(#clip-path-9)">
                  <path id="Trazado_210714" data-name="Trazado 210714" d="M465.576,763.335c-6.948-.6-21.394,3.124-21.627-7.914V690.847s-1.35-12.24,10.813-21.867,16.458-17.166,16.458-17.166c-1.9.234-3.844-.611-3.865-2.755V637.4a2.755,2.755,0,0,1,2.755-2.755h11.2V763.335Z" transform="translate(-443.905 -634.649)" fill="#3875ff"/>
                </g>
              </g>
            </g>
            <path id="Trazado_210715" data-name="Trazado 210715" d="M551.205,760.25c-6.518-5.926-19.042-11.1-17.9-21.664H501.93c1.145,10.559-11.4,15.757-17.9,21.664a26.594,26.594,0,0,0-10.27,20.995v63.8a6.37,6.37,0,0,0,6.37,6.37c8.188-.193,35.467.139,43.157,0h31.821a6.37,6.37,0,0,0,6.37-6.37v-63.8a26.6,26.6,0,0,0-10.27-20.995" transform="translate(-399.739 -623.191)" fill="#ff9d00"/>
          </g>
        </g>
        <g id="Grupo_173545" data-name="Grupo 173545" transform="translate(74.019 115.395)">
          <g id="Grupo_173544" data-name="Grupo 173544" clip-path="url(#clip-path-10)">
            <path id="Trazado_210716" data-name="Trazado 210716" d="M551.441,974.089l-94.985-5.365V1050h93.308Z" transform="translate(-459.16 -932.768)" fill="#ff9d00"/>
          </g>
        </g>
        <g id="Grupo_173547" data-name="Grupo 173547" transform="translate(0 0)">
          <g id="Grupo_173546" data-name="Grupo 173546" clip-path="url(#clip-path-2)">
            <rect id="Rectángulo_50675" data-name="Rectángulo 50675" width="87.717" height="39.33" transform="translate(74.019 159.381)" fill="#fff"/>
            <rect id="Rectángulo_50676" data-name="Rectángulo 50676" width="64.491" height="5.269" transform="translate(86.841 166.435)" fill="#a4c4ff"/>
            <rect id="Rectángulo_50677" data-name="Rectángulo 50677" width="64.491" height="5.269" transform="translate(86.841 174.811)" fill="#a4c4ff"/>
            <rect id="Rectángulo_50678" data-name="Rectángulo 50678" width="47.317" height="5.269" transform="translate(86.841 183.186)" fill="#a4c4ff"/>
            <path id="Trazado_210718" data-name="Trazado 210718" d="M875.852,1140.2h-5.807v-5.807h-5.56v5.807h-5.807v5.56h5.807v5.808h5.56v-5.808h5.807Z" transform="translate(-724.52 -957.154)" fill="#15d3ec"/>
            <path id="Trazado_210719" data-name="Trazado 210719" d="M658.949,640.483H626.4A4.407,4.407,0,0,1,622,636.076v-9.352a4.407,4.407,0,0,1,4.407-4.407h32.545a4.407,4.407,0,0,1,4.407,4.407c-.523,4.083,2.174,13.619-4.407,13.759" transform="translate(-524.818 -525.088)" fill="#38385c"/>
          </g>
        </g>
        <g id="Grupo_173549" data-name="Grupo 173549" transform="translate(97.179 97.229)">
          <g id="Grupo_173548" data-name="Grupo 173548" clip-path="url(#clip-path-12)">
            <rect id="Rectángulo_50680" data-name="Rectángulo 50680" width="45.178" height="6.638" transform="translate(-1.725 12.968)" fill="#1a1a35"/>
          </g>
        </g>
        <g id="Grupo_173585" data-name="Grupo 173585" transform="translate(0 0)">
          <g id="Grupo_173584" data-name="Grupo 173584" transform="translate(20.001 -0.918)" clip-path="url(#clip-path-2)">
            <path id="Trazado_210756" data-name="Trazado 210756" d="M1285.884,465.972l-19.591.218c-1.643,1.464-17.838-24.764-18.8-25.3a.8.8,0,0,1,.652-1.262l20-.222a1.358,1.358,0,0,1,1.131.584l17.213,24.816a.746.746,0,0,1-.6,1.171" transform="translate(-1052.469 -370.75)" fill="#38385c"/>
            <path id="Trazado_210757" data-name="Trazado 210757" d="M1285.443,448.546l15.73,22.74-18.089.244-15.554-22.6Z" transform="translate(-1069.494 -378.466)" fill="#d1daf7"/>
          </g>
        </g>
        <g id="Grupo_173596" data-name="Grupo 173596" transform="translate(0 0)">
          <g id="Grupo_173595" data-name="Grupo 173595" clip-path="url(#clip-path-2)">
            <path id="Trazado_210767" data-name="Trazado 210767" d="M665.692,34.622c-.788,46.164-69.456,46.156-70.238,0,.788-46.162,69.456-46.155,70.238,0" transform="translate(-502.422 -0.002)" fill="#7e5ee3"/>
            <path id="Trazado_210768" data-name="Trazado 210768" d="M725.372,93.177,703.3,115.244l-8.788-8.788-6.4,6.4,8.788,8.788-.024.024,6.4,6.4,28.494-28.494Z" transform="translate(-580.605 -78.619)" fill="#e3eefd"/>
            <g id="Grupo_1036393" data-name="Grupo 1036393" transform="translate(-2154.094 -733.174)">
              <g id="Grupo_1036383" data-name="Grupo 1036383" transform="translate(2393.196 814.99)">
                <path id="Trazado_737146" data-name="Trazado 737146" d="M2427.986,1025.5a1.523,1.523,0,0,0-.674-.081c-1.141.065-1.893.36-2.909-.163-.4-.208-.808-.577-1.241-.444a2.192,2.192,0,0,0,1.739,2.305,4.772,4.772,0,0,1,1.41.228c.415.215.659.666,1.056.913.427.265,1.35,1.124,1.757.83C2429.983,1028.471,2428.976,1025.912,2427.986,1025.5Z" transform="translate(-2423.152 -1013.285)" fill="#eaba83"/>
                <path id="Trazado_737147" data-name="Trazado 737147" d="M2495.56,990.061c-1.073-1.571-1.436-14.156-1.4-14.241-.118-.076-.227-.157-.342-.24-1.369-1.06-1.56-3.782-2.478-2.419-6.529,9.692-7.113,26.736-10.712,34.643l.914,1.578c.975.976,1.911,2.123,2.8,1.068a43.021,43.021,0,0,0,6.267-11.206C2491.722,996.265,2494.252,992.946,2495.56,990.061Z" transform="translate(-2467.916 -972.788)" fill="#eaba83"/>
                <path id="Trazado_737148" data-name="Trazado 737148" d="M2449.908,1058.31c.043.053,1.371,2.069,2.948,1.386.556-.241,1.649-2.386,1.649-2.386-.007-.123-1.833-.321-1.834-.445-.051-8.1-3.386-11.126-9.994-21.207l-2.254.748C2445.8,1044.755,2446.673,1054.381,2449.908,1058.31Z" transform="translate(-2436.603 -1021.754)" fill="#eaba83"/>
              </g>
              <ellipse id="Elipse_5664" data-name="Elipse 5664" cx="33.465" cy="1.598" rx="33.465" ry="1.598" transform="translate(2384.689 967.605)" fill="#090909" opacity="0.13"/>
              <path id="Trazado_737149" data-name="Trazado 737149" d="M2604.179,1004.894c-1.138,1.921-2.618,3.653-3.479,5.714-2.913,6.98,2.074,14.872,1.13,22.375-8.522-1.175-15.353-8.77-16.951-17.223s1.455-17.347,6.834-24.062C2603.389,977.124,2611.279,992.915,2604.179,1004.894Z" transform="translate(-155.584 -167.967)" fill="#81261a"/>
              <path id="Trazado_737150" data-name="Trazado 737150" d="M2552.852,854.091c2.912.057,6.591,1.031,7.746,3.7,1.452,3.357,7.058,8.948,5.944,12.431-1.587,4.963-10.763,9.095-12.35,14.058a8.35,8.35,0,0,1-1.028,2.349c-1.671,2.346-5.453,2.263-7.7.462s-3.237-4.745-3.713-7.586C2540.535,872.246,2542.311,853.885,2552.852,854.091Z" transform="translate(-122.065 -65.351)" fill="#471504"/>
              <path id="Trazado_737151" data-name="Trazado 737151" d="M2574.124,896.3c.418-1.942,1.622-8.4,2.065-10.554l7.115,1.1a44.846,44.846,0,0,0,1.419,8.758c.305.812,1.643,2.879,2.438,3.1.883.247-1.8,1.625-2.63,2.214-4.194,2.554-8.465.144-11.268-3.037,0-.084,0-.229,0-.229C2573.786,897.5,2574,896.852,2574.124,896.3Z" transform="translate(-146.868 -90.004)" fill="#eaba83"/>
              <path id="Trazado_737152" data-name="Trazado 737152" d="M2588.1,886.841a50.894,50.894,0,0,0,.976,7.043,11.788,11.788,0,0,1-9.655-.077c.53-2.721,1.245-6.506,1.565-8.063Z" transform="translate(-151.661 -90.004)" fill="#d19864"/>
              <path id="Trazado_737153" data-name="Trazado 737153" d="M2555.42,818.163a15.259,15.259,0,0,1-2.874-8.685,37.618,37.618,0,0,1,1.025-9.213,8.866,8.866,0,0,1,9.608-6.066c6.827.6,7.887,5.288,8.458,7.753.481,2.076.063,4.7-.26,6.809a22.025,22.025,0,0,1-.813,3.793c-1.208,3.538-4.255,6.478-7.458,8.3C2560,822.613,2557.516,820.879,2555.42,818.163Z" transform="translate(-130.716 -18.672)" fill="#eaba83"/>
              <path id="Trazado_737154" data-name="Trazado 737154" d="M2554.1,804.2c.188-1.317.428-2.63.7-3.932a8.867,8.867,0,0,1,9.608-6.066c6.826.6,7.887,5.288,8.458,7.753a8.907,8.907,0,0,1,.206,1.615C2566.625,809.3,2558.706,798.334,2554.1,804.2Z" transform="translate(-131.942 -18.672)" fill="#d19864" opacity="0.55"/>
              <path id="Trazado_737155" data-name="Trazado 737155" d="M2518.627,990.085c.332-15.019-6.263-27.064-4.077-32.725-1.046-5.548-1.538-1.13-4.5-4.945.668-2.948,3.7-12.687,6.735-13.64,5.509-1.727,7.869-4.572,7.869-4.572,2.954,3.182,6.326,5.756,10.748,3.2.874-.588-2.595-2.842-1.978-3.94.413.138,16.13,8.592,16.4,9-.076.123,2.462,3.771,2.388,3.9.635,1.372-3.355-3.088-3.362-1.6-1.946,3.979,1.267,6.04.339,7.446-1.01,1.531-2.388-3.332-3.412-.976.167,2.474-9.178,20.729-6.467,27.432C2528.807,981.555,2528.943,992.655,2518.627,990.085Z" transform="translate(-97.635 -127.172)" fill="#eaba83"/>
              <path id="Trazado_737156" data-name="Trazado 737156" d="M2460.175,1204.566c1.784-7.376,4.125-14.649,5.053-22.126,1.031-8.309,5.225-34.01,6.355-41.569a26.162,26.162,0,0,1,.547-2.643c1.237-6.777,2.048-10.27,2.379-13,.732-6.03,1.138-13.093.659-16.77,3.04-.353,7.126-.705,10.627-1.058,0-.1,0-.2,0-.3.645.075,1.179.11,1.65.124.382-.041.766-.083,1.121-.124v.112a20.378,20.378,0,0,1,5.112-.1c.641,3.8,5.935,9.313,7,11.089,3.427,5.735,5.322,8.82,6.931,17.133,1.352,6.99.566,14.379-1.006,24.386l0,0c-.931,9.2-4.876,20.3-3.077,25.6,4.086,12.027-8.394,36.375-8.468,40.691a6.389,6.389,0,0,1,.164,1.072l-3.719-1.559a6.9,6.9,0,0,1,.12-.727,178.012,178.012,0,0,0,1.824-19.462c0-7.589.675-15.221-.292-22.694-1.219-9.422-3.815-24.142-5.962-35.9a105.094,105.094,0,0,1-2.835,14.553c-2.669,9.174-10.212,20.176-9.669,26.183,1.144,12.651-15.258,33.38-17.423,37.115a2.719,2.719,0,0,0-.376,1.587,34.519,34.519,0,0,1-3.474-1.383C2453.951,1223.133,2458.9,1209.843,2460.175,1204.566Z" transform="translate(-53.517 -262.318)" fill="#eaba83"/>
              <path id="Trazado_737157" data-name="Trazado 737157" d="M2508.673,1194.354a3.447,3.447,0,0,1-1.56-1.585c1.113-8.718,5.188-33.7,6.3-41.142a26.169,26.169,0,0,1,.547-2.643c1.237-6.777,2.048-10.27,2.379-13a62.486,62.486,0,0,0-1.314-13.475c7.3,1.912,15,1.67,21.614-1.711,1.791,3.285,5.051,6.812,5.86,8.166,3.427,5.734,5.322,8.82,6.931,17.133,1.353,6.99.567,14.379-1.006,24.386l0,0c-.931,9.2-4.876,20.3-3.077,25.6,4.086,12.027-8.394,36.375-8.468,40.691a6.377,6.377,0,0,1,.163,1.072l-3.718-1.559a6.959,6.959,0,0,1,.12-.727,178.083,178.083,0,0,0,1.824-19.462c0-7.589.675-15.221-.292-22.694-1.219-9.422-3.816-24.142-5.963-35.9a104.989,104.989,0,0,1-2.835,14.553c-1.625,5.585-5.049,11.842-7.363,17.243C2516.145,1193.756,2513.028,1196.532,2508.673,1194.354Z" transform="translate(-95.347 -273.075)" fill="url(#linear-gradient)"/>
              <path id="Trazado_737158" data-name="Trazado 737158" d="M2476.986,1419.64c-1.486,3.463-2.517,6.59-2.313,8.939,1.15,12.653-15.254,33.383-17.423,37.109a2.879,2.879,0,0,0-.371,1.594,32.28,32.28,0,0,1-3.475-1.39c.551-1.666,5.5-14.954,6.77-20.226,1.786-7.381,4.122-14.654,5.057-22.131.012-.132.036-.287.048-.431.216-1.617.515-3.81.9-6.339a111.994,111.994,0,0,0,12.2-.216C2477.884,1417.6,2477.417,1418.633,2476.986,1419.64Z" transform="translate(-53.517 -503.412)" fill="url(#linear-gradient-2)"/>
              <path id="Trazado_737159" data-name="Trazado 737159" d="M2637.251,1401.751c-.035-.345-.069-.69-.078-1.062-.005-.232.005-.481.009-.722.006-.35.01-.7.034-1.07.017-.272.045-.555.071-.836.033-.366.067-.733.115-1.114.037-.3.08-.611.124-.922.055-.384.112-.77.176-1.165q.08-.49.168-.99.106-.6.22-1.213c.066-.352.133-.7.2-1.061q.122-.623.25-1.255c.089-.438.176-.873.267-1.317h0c.112-.545.225-1.09.337-1.641a70.659,70.659,0,0,1-13.238,4.421c.533,3.376,1,6.521,1.347,9.221.242,1.868.381,3.746.453,5.631.146,3.77.025,7.567-.071,11.366-.048,1.9-.09,3.8-.09,5.7a177.944,177.944,0,0,1-1.825,19.462,7.1,7.1,0,0,0-.12.726l3.718,1.559h0a5.08,5.08,0,0,0-.093-.738c-.019-.1-.036-.173-.049-.23a.977.977,0,0,1-.021-.1c.075-4.316,12.554-28.664,8.468-40.691a.068.068,0,0,1,0-.009,8.111,8.111,0,0,1-.323-1.4C2637.275,1402.126,2637.27,1401.932,2637.251,1401.751Z" transform="translate(-187.629 -480.699)" fill="url(#linear-gradient-2)"/>
              <path id="Trazado_737160" data-name="Trazado 737160" d="M2675.2,983.069c4.123,6.3,7.466,11.571,9.538,17.075.265.7.831,1.431,1.1,2.052a1.691,1.691,0,0,1-.188,1.687,20.524,20.524,0,0,1-1.622,2c-7.189,6.976-10.452,10.383-16.935,13.728a2.342,2.342,0,0,1-2.5-.3c-1.345-1.095-1.706-1.608-.461-2.387,1.063-.666,2.949-1.356,4.076-1.905,1.466-.715,3.207-2.79,4.282-4.017,2.151-2.455,2.953-5.41,5.1-7.865a1.7,1.7,0,0,0,.483-.832,1.743,1.743,0,0,0-.518-1.214c-4.733-6.178-10.183-10.807-13.4-15.763-1.308-2.013,0,0-.066-2.4-.076-2.742.878-8.763,4.047-8.763A60.1,60.1,0,0,1,2675.2,983.069Z" transform="translate(-217.046 -158.872)" fill="#eaba83"/>
              <path id="Trazado_737161" data-name="Trazado 737161" d="M2571.065,887.053a1.936,1.936,0,0,0,.951-.3.686.686,0,0,1,.7-.126c.03.017.068.037.093.009a.093.093,0,0,0,.016-.032.416.416,0,0,0-.106-.44c-.144-.108-.323-.018-.479.058a2.515,2.515,0,0,1-.812.24,1.216,1.216,0,0,1-.319,0c-.273-.041-.556-.248-.832-.16A1.165,1.165,0,0,0,2571.065,887.053Z" transform="translate(-144.539 -90.293)" fill="#d19864"/>
              <path id="Trazado_737162" data-name="Trazado 737162" d="M2574.248,894.073c.078-.08.216-.163.283-.075a5.57,5.57,0,0,1-1.539,1.98,2.019,2.019,0,0,1-2.356.089,2.222,2.222,0,0,1-.7-1.143C2570.767,895.077,2572.954,895.4,2574.248,894.073Z" transform="translate(-144.278 -96.404)" fill="#fff"/>
              <path id="Trazado_737163" data-name="Trazado 737163" d="M2623.085,1641.025c.013-.06.043-.114.052-.175a10.28,10.28,0,0,1,.627-1.9c.676-.678,2.758.49,3.435,1.214a8.3,8.3,0,0,1,.148.824A6.947,6.947,0,0,1,2623.085,1641.025Z" transform="translate(-185.67 -676.471)" fill="#eaba83"/>
              <path id="Trazado_737164" data-name="Trazado 737164" d="M2611.564,1649.6a4.965,4.965,0,0,0,1.945-2.743c1.523-1.586,2.637.437,4.262-.032.03.222.058.469.077.76a1.066,1.066,0,0,1-.3.917c-.31.364-.95.612-1.254.98s-.381,1.183-.683,1.576a1.644,1.644,0,0,1-1.689.375c-.595-.138-2.7.115-2.99-.2a1.073,1.073,0,0,1-.016-1.042A2.636,2.636,0,0,1,2611.564,1649.6Z" transform="translate(-176.094 -682.304)" fill="#471504"/>
              <path id="Trazado_737165" data-name="Trazado 737165" d="M2450.988,1640.441a12.842,12.842,0,0,1,.535-1.487c.676-.678,2.758.49,3.435,1.214,0,0,.076.3.143.792C2453.122,1641.57,2451.893,1641.4,2450.988,1640.441Z" transform="translate(-51.635 -676.471)" fill="#eaba83"/>
              <path id="Trazado_737166" data-name="Trazado 737166" d="M2438.165,1648.284a2.629,2.629,0,0,1,.648-.591,4.841,4.841,0,0,0,2-2.918,3.925,3.925,0,0,1,.093-.409c1.323-1.677,2.465.875,4.113.52.032.229.062.485.081.792a1.064,1.064,0,0,1-.3.917c-.31.364-.949.612-1.254.98s-.382,1.183-.683,1.576a1.644,1.644,0,0,1-1.689.375c-.595-.138-2.7.115-2.99-.2A1.072,1.072,0,0,1,2438.165,1648.284Z" transform="translate(-41.55 -680.396)" fill="#471504"/>
              <path id="Trazado_737167" data-name="Trazado 737167" d="M2598.066,800.978a3.679,3.679,0,0,1,2.189,3.993c-.1,1.077-.665,2.839-.791,3.914-.159,1.364.833,2.9,1.708,2.268-.714,1.419-.143,1.785-.917,3.172a11.033,11.033,0,0,1-1.2,1.665c.036.36,1.135,1.414,1.283,1.73a5.088,5.088,0,0,1,.354,3.862c-.464,1.228-1.173,2.392,1.118,4.356,3.326,2.11,10.014,5.862,10.764,5.942,1.72.183,2.951-.327,3.436-1.987.732-2.5-4.347-8.293-4.766-9.474-1.56-4.4,3.558-10.8,1.62-15.049a19.636,19.636,0,0,0-3.755-5.761c-3.119-3.308-8.246-9.94-13.9-5.365-1.152.933-3.1,3.455-2.371,5.07C2593.513,800.8,2596.731,800.453,2598.066,800.978Z" transform="translate(-161.994 -17.527)" fill="url(#linear-gradient-4)"/>
              <path id="Trazado_737168" data-name="Trazado 737168" d="M2659.375,858.368c-2.827-3.77,3.387-9.047,4.178-14.627.231.446.457.9.681,1.392,1.938,4.248-3.179,10.648-1.62,15.049a21.523,21.523,0,0,0,1.745,2.656A24.778,24.778,0,0,1,2659.375,858.368Z" transform="translate(-213.364 -57.292)" fill="#730e02"/>
              <path id="Trazado_737169" data-name="Trazado 737169" d="M2595.214,794.724c4-3.239,8.475.069,8.4.069-3.022,1.511-3.929,4.33-3.806,8.209a3.312,3.312,0,0,0-1.743-1.543c-1.335-.525-4.553-.177-5.223-1.666C2592.118,798.179,2594.062,795.656,2595.214,794.724Z" transform="translate(-161.994 -18.008)" fill="#78231c"/>
              <path id="Trazado_737170" data-name="Trazado 737170" d="M2640.176,933.561a3.782,3.782,0,0,0,1.131-2.616c.781,1.416,1.3,2.78,1.03,3.7-.485,1.661-1.832,2.143-3.552,1.96-.75-.08-7.322-3.8-10.648-5.915-1.554-1.123-1.91-2.539-1.481-3.506C2630.513,931.1,2637.331,935.311,2640.176,933.561Z" transform="translate(-188.32 -122.279)" fill="#730e02"/>
              <path id="Trazado_737171" data-name="Trazado 737171" d="M2627.5,872.838a2.3,2.3,0,0,1,1.094-.244,1.084,1.084,0,0,1,.914.583,1.143,1.143,0,0,1-.006.859,2.851,2.851,0,0,1-.457.745,6.108,6.108,0,0,1-1.6,1.512,1.419,1.419,0,0,1-.926.255c-.441-.069-1.01-.208-1.187-.625C2624.681,874.4,2626.334,873.356,2627.5,872.838Z" transform="translate(-187.303 -79.759)" fill="#eaba83"/>
              <path id="Trazado_737172" data-name="Trazado 737172" d="M2553.157,807.173c1.916-1.915,4.756,1.926,8.228,4.531a13.2,13.2,0,0,1-1.332-.553,16.266,16.266,0,0,0-3.1-1.365c-1.919-.38-3.617,1.416-4.161,3.295a20.412,20.412,0,0,0-.675,4.755C2551.02,813.042,2550.4,809.926,2553.157,807.173Z" transform="translate(-129.675 -28.409)" fill="#471504"/>
              <path id="Trazado_737173" data-name="Trazado 737173" d="M2508.5,805.824a15.47,15.47,0,0,0-.877-1.555c-.846-1.727.094-3.823,1.388-5.245s2.957-2.527,3.978-4.157,1.106-4.125-.5-5.177a3.835,3.835,0,0,1-1.179-.828,2.1,2.1,0,0,1-.263-1.215c-.007-5.73,4.409-14.857,8.469-17.132,1.123-.629,2.542-.227,3.8.037a16.993,16.993,0,0,1,5.991,3.069c3.158,2.473,5.282,12.281-2.1,9.675-3.472-2.6-6.312-6.446-8.228-4.531-2.752,2.753-2.137,5.869-1.041,10.663a40.256,40.256,0,0,0,.286,6.321,14.977,14.977,0,0,0-1.518,2.278,5.122,5.122,0,0,0,.021,2.751c.549,3.223,3.321,8.039-.362,10.193-2.188,1.28-4.225.222-6.674,7.261C2504.821,813.925,2509.313,808.139,2508.5,805.824Z" transform="translate(-95.491)" fill="url(#linear-gradient-5)"/>
              <path id="Trazado_737174" data-name="Trazado 737174" d="M2545.045,836.336a9.476,9.476,0,0,0-.271-1.031A.939.939,0,0,1,2545.045,836.336Z" transform="translate(-124.68 -50.721)" fill="#81261a"/>
              <path id="Trazado_737175" data-name="Trazado 737175" d="M2527.588,842.468a3.828,3.828,0,0,0,1.448-2.5c.589,2.731-.345,4.747-2.143,6.7a2.985,2.985,0,0,0-1.231-2.622,3.832,3.832,0,0,1-1.179-.828,2.1,2.1,0,0,1-.263-1.215c0-.206.025-.411.031-.617C2525.094,842.553,2526.108,843.208,2527.588,842.468Z" transform="translate(-108.671 -54.351)" fill="#730e02"/>
              <path id="Trazado_737176" data-name="Trazado 737176" d="M2508.512,915.671a15.409,15.409,0,0,0-.877-1.555,3.691,3.691,0,0,1-.046-2.9c1.965,2.044,4.229,3.95,8.012,2.058-1,3-4.54,2.611-7.03,3.862A2.7,2.7,0,0,0,2508.512,915.671Z" transform="translate(-95.506 -109.846)" fill="#730e02"/>
              <g id="Grupo_1036384" data-name="Grupo 1036384" transform="translate(2410.732 792.606)">
                <path id="Trazado_737177" data-name="Trazado 737177" d="M2502.527,882.718c-.5-2.416,1.324-4.246,2.458-5.122a16.254,16.254,0,0,1,1.753-1.128,14.976,14.976,0,0,0,1.862-1.216,3.794,3.794,0,0,0,1.624-3.627l.194-.049a3.987,3.987,0,0,1-1.693,3.832,14.987,14.987,0,0,1-1.886,1.233,16.093,16.093,0,0,0-1.731,1.113c-1.1.847-2.866,2.614-2.385,4.923Z" transform="translate(-2502.441 -871.577)" fill="#81261a"/>
              </g>
              <g id="Grupo_1036385" data-name="Grupo 1036385" transform="translate(2449.511 792.595)">
                <path id="Trazado_737178" data-name="Trazado 737178" d="M2682.275,885.455c-.542-.573-1.109-1.071-1.657-1.552a11.07,11.07,0,0,1-2.361-2.54,6.044,6.044,0,0,1-.424-3.435l.021-.345a23.584,23.584,0,0,1,1.171-6.056l.212.071a23.374,23.374,0,0,0-1.159,6l-.022.346a5.9,5.9,0,0,0,.394,3.307,10.88,10.88,0,0,0,2.315,2.485c.552.485,1.123.987,1.672,1.567Z" transform="translate(-2677.78 -871.527)" fill="#78231c"/>
              </g>
              <path id="Trazado_737179" data-name="Trazado 737179" d="M2590.76,848.8a.581.581,0,0,0-.285.276c3.273.505,4.051,1.25,4.477,2.728-.515-.917-2.188-1.8-4.521-1.5-.271.035-.575.067-.731-.17a.661.661,0,0,1-.054-.461,2.01,2.01,0,0,1,.771-1.291,1.466,1.466,0,0,0-.287.771A.638.638,0,0,1,2590.76,848.8Z" transform="translate(-159.614 -60.905)" fill="#81261a"/>
              <path id="Trazado_737180" data-name="Trazado 737180" d="M2560.277,859.854a.36.36,0,0,1,.154.192c-2.039.063-2.568.465-2.936,1.346a2.766,2.766,0,0,1,2.874-.584c.164.042.347.085.459-.049a.418.418,0,0,0,.066-.281,1.263,1.263,0,0,0-.378-.857.92.92,0,0,1,.12.5A.394.394,0,0,0,2560.277,859.854Z" transform="translate(-134.587 -69.659)" fill="#81261a"/>
              <path id="Trazado_737181" data-name="Trazado 737181" d="M2596,879.282c0,.546.794.989,1.773.989s1.773-.443,1.773-.989-.794-.989-1.773-.989S2596,878.736,2596,879.282Z" transform="translate(-164.579 -84.202)" fill="#cf807b" opacity="0.29"/>
              <path id="Trazado_737182" data-name="Trazado 737182" d="M2558.253,878.7c0,.327.476.592,1.062.592s1.062-.265,1.062-.592-.475-.592-1.062-.592S2558.253,878.371,2558.253,878.7Z" transform="translate(-135.177 -84.056)" fill="#cf807b" opacity="0.29"/>
              <g id="Grupo_1036387" data-name="Grupo 1036387" transform="translate(2430.3 791.541)">
                <g id="Grupo_1036386" data-name="Grupo 1036386" transform="translate(0.023 0.13)">
                  <path id="Trazado_737183" data-name="Trazado 737183" d="M2592.716,868.241a.369.369,0,0,1-.37-.369c0-.153.388-.15.52-.206a1.5,1.5,0,0,0-.854-.313.989.989,0,1,0,.989.989.94.94,0,0,0-.041-.2A.365.365,0,0,1,2592.716,868.241Z" transform="translate(-2591.024 -867.354)" fill="#3b2616"/>
                </g>
                <path id="Trazado_737184" data-name="Trazado 737184" d="M2596.637,867.747c.183-.084.506-.374.5-.575a1.217,1.217,0,0,1-1.038.291.62.62,0,0,0,.336-.7c-.1.242-.331.4-.781.325s-1.25.1-.583.537A1.664,1.664,0,0,0,2596.637,867.747Z" transform="translate(-2593.954 -866.764)" fill="#3b2616"/>
                <path id="Trazado_737185" data-name="Trazado 737185" d="M2591.76,868.444a.42.42,0,1,0-.42.42A.421.421,0,0,0,2591.76,868.444Z" transform="translate(-2590.919 -867.745)" fill="#eaba83"/>
              </g>
              <g id="Grupo_1036389" data-name="Grupo 1036389" transform="translate(2423.649 792.191)">
                <g id="Grupo_1036388" data-name="Grupo 1036388" transform="translate(0.826 0.094)">
                  <path id="Trazado_737186" data-name="Trazado 737186" d="M2564.784,870.768a.267.267,0,0,0,.267-.266c0-.11-.289-.154-.384-.194a1.524,1.524,0,0,1,.625-.18.714.714,0,1,1-.713.714.671.671,0,0,1,.03-.147A.263.263,0,0,0,2564.784,870.768Z" transform="translate(-2564.578 -870.128)" fill="#3b2616"/>
                </g>
                <path id="Trazado_737187" data-name="Trazado 737187" d="M2561.171,870.424c-.133-.06-.327-.277-.327-.38a.794.794,0,0,0,.723.162.448.448,0,0,1-.243-.5c.076.2.3.271.573.213.319-.07.854.039.412.409A1,1,0,0,1,2561.171,870.424Z" transform="translate(-2560.845 -869.702)" fill="#3b2616"/>
                <path id="Trazado_737188" data-name="Trazado 737188" d="M2568.364,870.915a.3.3,0,1,1,.3.3A.3.3,0,0,1,2568.364,870.915Z" transform="translate(-2566.701 -870.411)" fill="#eaba83"/>
              </g>
              <path id="Trazado_737189" data-name="Trazado 737189" d="M2609.253,829.294a3.225,3.225,0,0,1,1.36,2.5,6.7,6.7,0,0,1-.166,1.484,17.1,17.1,0,0,0-.276,3.352c.023.442.064.183.188.608a1.451,1.451,0,0,0,.822.982,7.486,7.486,0,0,1-.063-3.208c.277-1.387.947-2.818.474-4.151a5.439,5.439,0,0,0-2.163-2.448,2.314,2.314,0,0,0-1.853-.454c-.387.1-.714.505-1.124.5A5.2,5.2,0,0,1,2609.253,829.294Z" transform="translate(-172.715 -44.956)" fill="#81261a"/>
              <path id="Trazado_737190" data-name="Trazado 737190" d="M2623.179,867.27a1.776,1.776,0,0,0,1.1,1.115,1.613,1.613,0,0,1-.367-.307,2.786,2.786,0,0,1-.547-2.311,4.715,4.715,0,0,0,.139-.881c0-.257-.217-.945-.485-1.031A10.166,10.166,0,0,0,2623.179,867.27Z" transform="translate(-185.566 -72.958)" fill="#81261a"/>
              <g id="Grupo_1036390" data-name="Grupo 1036390" transform="translate(2443.735 879.941)">
                <path id="Trazado_737191" data-name="Trazado 737191" d="M2651.945,1334.767l-.283-.1c2.292-6.649,4.889-14.185,3.488-21.622-.151-.8-.351-1.609-.545-2.39a30.967,30.967,0,0,1-.708-3.388c-.479-3.637.345-7.3,1.143-10.849,2.391-10.627,4.317-20.215,3.658-29.943l.3-.02c.662,9.768-1.268,19.378-3.664,30.028-.792,3.52-1.611,7.159-1.138,10.745a30.677,30.677,0,0,0,.7,3.354c.195.785.4,1.6.55,2.407C2656.86,1320.507,2654.248,1328.083,2651.945,1334.767Z" transform="translate(-2651.662 -1266.458)" fill="#3d6dba"/>
              </g>
              <g id="Grupo_1036391" data-name="Grupo 1036391" transform="translate(2408.507 894.914)">
                <path id="Trazado_737192" data-name="Trazado 737192" d="M2492.61,1390.675l-.23-.191a43.87,43.87,0,0,0,8.1-14.974,29.968,29.968,0,0,0,1.443-8.166c.016-.706,0-1.428-.017-2.126a23,23,0,0,1,.176-4.351c.467-2.766,1.92-5.243,3.326-7.638.262-.448.525-.895.781-1.342a59.142,59.142,0,0,0,6.631-17.729l.293.059a59.43,59.43,0,0,1-6.665,17.818c-.256.449-.519.9-.782,1.345-1.392,2.372-2.831,4.825-3.289,7.537a22.746,22.746,0,0,0-.171,4.294c.016.7.033,1.427.017,2.14a30.231,30.231,0,0,1-1.456,8.247A44.171,44.171,0,0,1,2492.61,1390.675Z" transform="translate(-2492.38 -1334.158)" fill="#3e6ebc"/>
              </g>
              <path id="Trazado_737193" data-name="Trazado 737193" d="M2538.928,1028.748c-.3,2.984-.986,6.736-1.621,9.863-4.242,1.917-14.878,4.581-19.431,5.635-.065-4-.327-11.226-.327-11.226s-2.145,9.51-3.008,11.376c-4.044.9-17.59.807-21.64.663,2.827-12.039,9.365-43.625,9.688-46.345,1.042-7.043,1.24-12.28.545-17.348-1.2-8.724-4.386-19.989-2.9-23.823l-3.535-1.762c1.81-8.016,3.775-11.083,6.734-12.246a26.713,26.713,0,0,0,7.25-3.966c-1.246,3.475,2.241,7.069,7.549,4.853,1.989-.551,4.577-3.559,5.2-4.661.408.144,12.762,7.046,13.037,7.465-.072.12,2.468,3.762,2.4,3.894.635,1.366-6.435,6.6-7.453,8.963.132,2.085-4.288,11.421-4.743,19.569.024.036,4.258,7,5.073,8.353,3.427,5.728,5.233,8.31,6.839,16.626A65.367,65.367,0,0,1,2538.928,1028.748Z" transform="translate(-84.279 -131.926)" fill="url(#linear-gradient-6)"/>
              <path id="Trazado_737194" data-name="Trazado 737194" d="M2516.637,993.357c-5.237,4.189-13.219,3.8-15.947-1.966.761,4.369,1.848,9.336,2.443,13.675.7,5.068.5,10.3-.545,17.348-.323,2.72-6.862,34.307-9.688,46.345,4.05.144,17.6.237,21.64-.663.863-1.866,3.008-11.376,3.008-11.376s.262,7.231.327,11.227c4.554-1.055,15.19-3.719,19.431-5.636.635-3.128,1.322-6.88,1.621-9.863a65.368,65.368,0,0,0-.348-24.118c-1.605-8.316-3.412-10.9-6.839-16.626-.815-1.354-5.05-8.317-5.073-8.353.455-8.148,4.875-17.484,4.743-19.569,1.019-2.36,8.088-7.6,7.453-8.963.072-.132-2.469-3.775-2.4-3.894a11.042,11.042,0,0,0-1.428-.926C2527.835,976.3,2523.835,987.758,2516.637,993.357Z" transform="translate(-84.279 -155.626)" opacity="0.42" style="mix-blend-mode: overlay;isolation: isolate"/>
              <path id="Trazado_737195" data-name="Trazado 737195" d="M2568.919,946.874a4.558,4.558,0,0,0-1.085,1.96c-.133.53-.972.788-.925,2.962a22.586,22.586,0,0,0,1.111,3.049l-.32,3.728c.648-.9,1.1-1.709,1.883-2.64a47.215,47.215,0,0,1,5.941-5.891,4.5,4.5,0,0,0-1.448-2.646A4.837,4.837,0,0,0,2568.919,946.874Z" transform="translate(-141.917 -137.224)" fill="#eaba83"/>
              <path id="Trazado_737196" data-name="Trazado 737196" d="M2559.753,943.424c0-3.517,1.238-11.716,1.238-11.716-2.586.68-4.7,7.766-4.7,7.766Z" transform="translate(-133.65 -125.803)" fill="#f5fcff"/>
              <path id="Trazado_737197" data-name="Trazado 737197" d="M2595.321,929.351a12.171,12.171,0,0,0-.675-3.4c-.124-.472-.927-1.034-1.34-1.348,1.23,4.036-1.692,5.833-4.427,8.313a26.368,26.368,0,0,1-4.153,2.882,25.4,25.4,0,0,1,2.192,4.974,44.369,44.369,0,0,1,6.4-7.856A12.8,12.8,0,0,0,2595.321,929.351Z" transform="translate(-155.796 -120.271)" fill="#f5fcff"/>
              <path id="Trazado_737198" data-name="Trazado 737198" d="M2573.419,975.139a15.666,15.666,0,0,0-2.927,5.763s3-2.947,5.377,0C2575.916,979,2574.911,973.874,2573.419,975.139Z" transform="translate(-144.709 -159.474)" fill="#9cc0cb"/>
              <path id="Trazado_737199" data-name="Trazado 737199" d="M2557.574,970.773a5.233,5.233,0,0,0-1.834-3.244,6.329,6.329,0,0,0-1.627-.705c-.235,1.129-.384,2.1-.619,3.229a2.555,2.555,0,0,1,1.787-.726,2.272,2.272,0,0,1,1.093.388A4.058,4.058,0,0,1,2557.574,970.773Z" transform="translate(-131.472 -153.152)" fill="#9cc0cb"/>
              <path id="Trazado_737200" data-name="Trazado 737200" d="M2593.254,958.183a3.482,3.482,0,0,1,.194,1.353c2.626-4.786,8.375-11.536,8.847-12.219C2599.031,950.764,2595.525,954.252,2593.254,958.183Z" transform="translate(-162.437 -137.961)" fill="#9cc0cb"/>
              <path id="Trazado_737201" data-name="Trazado 737201" d="M2657.286,1165.975a3.567,3.567,0,0,1-1.129,1.1,2.8,2.8,0,0,1-1.374.132,6.413,6.413,0,0,1-1.722-.655.667.667,0,0,1-.2-.417,3.023,3.023,0,0,1,.378-2.1,7.643,7.643,0,0,0,.466-.771c.148-.276.217-.518-.068-.388a2.069,2.069,0,0,0-.444.292l-1.18.978a.421.421,0,0,1-.287.132.286.286,0,0,1-.22-.323.817.817,0,0,1,.189-.385q.863-1.174,1.8-2.291a.574.574,0,0,1,.767-.263l3.163.994a4.831,4.831,0,0,1,1.5.671c.469.356,1.124.119,1.069.705-.052.558-.759,1.07-1.289,1.369A4.885,4.885,0,0,0,2657.286,1165.975Z" transform="translate(-207.805 -304.348)" fill="#eaba83"/>
              <g id="Grupo_1036392" data-name="Grupo 1036392" transform="translate(2423.922 824.115)">
                <path id="Trazado_737202" data-name="Trazado 737202" d="M2571.974,1083.367l-.3-.009a108.074,108.074,0,0,0-3.311-30.081c-.645-2.526-1.395-5.071-2.12-7.533-1.132-3.845-2.3-7.821-3.1-11.819-1.565-7.784-1.4-14.287.5-19.88l.283.1c-1.883,5.542-2.043,11.994-.489,19.726.8,3.984,1.969,7.954,3.1,11.793.725,2.464,1.475,5.012,2.122,7.544A108.377,108.377,0,0,1,2571.974,1083.367Z" transform="translate(-2562.077 -1014.045)" fill="#9cc0cb"/>
              </g>
              <ellipse id="Elipse_5665" data-name="Elipse 5665" cx="0.688" cy="0.754" rx="0.688" ry="0.754" transform="translate(2427.069 829.073)" fill="#fafdff"/>
              <ellipse id="Elipse_5666" data-name="Elipse 5666" cx="0.688" cy="0.754" rx="0.688" ry="0.754" transform="translate(2429.566 843.918)" fill="#fafdff"/>
              <ellipse id="Elipse_5667" data-name="Elipse 5667" cx="0.688" cy="0.754" rx="0.688" ry="0.754" transform="translate(2433.551 859.681)" fill="#fafdff"/>
              <ellipse id="Elipse_5668" data-name="Elipse 5668" cx="0.688" cy="0.754" rx="0.688" ry="0.754" transform="translate(2437.19 878.019)" fill="#fafdff"/>
            </g>
          </g>
        </g>
        <g id="Grupo_173590" data-name="Grupo 173590" transform="translate(218.037 69.161)">
          <g id="Grupo_173589" data-name="Grupo 173589" clip-path="url(#clip-path-17)">
            <g id="Grupo_173588" data-name="Grupo 173588" transform="translate(7.867 -0.549)" opacity="0.5">
              <g id="Grupo_173587" data-name="Grupo 173587">
                <g id="Grupo_173586" data-name="Grupo 173586" clip-path="url(#clip-path-18)">
                  <path id="Trazado_210758" data-name="Trazado 210758" d="M1322.862,445.031s5.877,11.134-1.641,17.216h0l4.132,7.046,19.442-.453-16.471-23.649Z" transform="translate(-1317.88 -445.031)" fill="#e3eefe"/>
                </g>
              </g>
            </g>
          </g>
        </g>
      </g>
    </g>
  </g>
</svg>
